<?xml version="1.0" encoding="utf-8"?>
<!-- Generator: Adobe Illustrator 23.0.1, SVG Export Plug-In . SVG Version: 6.00 Build 0)  -->
<svg version="1.1" id="Camada_3" xmlns="http://www.w3.org/2000/svg" xmlns:xlink="http://www.w3.org/1999/xlink" x="0px" y="0px"
	 viewBox="0 0 346.8 85.9" style="enable-background:new 0 0 346.8 85.9;" xml:space="preserve">
<style type="text/css">
	.st0{fill:#FFFFFF;}
	.st1{fill:none;}
</style>
<g>
	<g>
		<path class="st0" d="M89.4,0.9v49.9h256.7V0.9H89.4z M101.9,42.4h-4v-4h4V42.4z M101.9,37.3h-4v-4h4V37.3z M101.9,32.3h-4v-4h4
			V32.3z M101.9,27.2h-4v-4h4V27.2z M101.9,22.2h-4v-4.1h4V22.2z M101.9,17.1h-4v-4h4V17.1z M101.9,12h-4V8h4V12z M107,27.2h-4v-4h4
			V27.2z M107,12h-4V8h4V12z M112,27.2h-4v-4h4V27.2z M112,12h-4V8h4V12z M117.1,27.2h-4v-4h4V27.2z M117.1,12h-4V8h4V12z
			 M122.2,22.2h-4.1v-4.1h4.1V22.2z M122.2,17.1h-4.1v-4h4.1V17.1z M137.7,37.3h-4v-4h4V37.3z M137.7,32.3h-4v-4h4V32.3z
			 M137.7,27.2h-4v-4h4V27.2z M137.7,22.2h-4v-4.1h4V22.2z M142.8,42.4h-4v-4h4V42.4z M142.8,32.3h-4v-4h4V32.3z M142.8,22.2h-4
			v-4.1h4V22.2z M147.8,42.4h-4v-4h4V42.4z M147.8,32.3h-4v-4h4V32.3z M147.8,22.2h-4v-4.1h4V22.2z M152.9,42.4h-4v-4h4V42.4z
			 M152.9,32.3h-4v-4h4V32.3z M152.9,27.2h-4v-4h4V27.2z M152.9,22.2h-4v-4.1h4V22.2z M168.5,42.4h-4v-4h4V42.4z M168.5,37.3h-4v-4
			h4V37.3z M168.5,32.3h-4v-4h4V32.3z M168.5,27.2h-4v-4h4V27.2z M168.5,22.2h-4v-4.1h4V22.2z M173.5,27.2h-4v-4h4V27.2z
			 M178.6,22.2h-4v-4.1h4V22.2z M183.7,22.2h-4v-4.1h4V22.2z M199.2,42.4h-4v-4h4V42.4z M199.2,32.3h-4v-4h4V32.3z M199.2,27.2h-4
			v-4h4V27.2z M204.3,42.4h-4v-4h4V42.4z M204.3,32.3h-4v-4h4V32.3z M204.3,22.2h-4v-4.1h4V22.2z M209.3,42.4h-4v-4h4V42.4z
			 M209.3,32.3h-4v-4h4V32.3z M209.3,22.2h-4v-4.1h4V22.2z M214.4,37.3h-4v-4h4V37.3z M214.4,22.2h-4v-4.1h4V22.2z M230,42.4h-4v-4
			h4V42.4z M230,37.3h-4v-4h4V37.3z M230,32.3h-4v-4h4V32.3z M230,27.2h-4v-4h4V27.2z M230,22.2h-4v-4.1h4V22.2z M235,42.4h-4v-4h4
			V42.4z M235,22.2h-4v-4.1h4V22.2z M240.1,42.4h-4v-4h4V42.4z M240.1,22.2h-4v-4.1h4V22.2z M245.2,42.4h-4v-4h4V42.4z M245.2,37.3
			h-4v-4h4V37.3z M245.2,32.3h-4v-4h4V32.3z M245.2,27.2h-4v-4h4V27.2z M245.2,22.2h-4v-4.1h4V22.2z M260.7,42.4h-4v-4h4V42.4z
			 M260.7,37.3h-4v-4h4V37.3z M260.7,32.3h-4v-4h4V32.3z M260.7,27.2h-4v-4h4V27.2z M260.7,22.2h-4v-4.1h4V22.2z M265.8,22.2h-4
			v-4.1h4V22.2z M270.8,22.2h-4v-4.1h4V22.2z M275.9,42.4h-4v-4h4V42.4z M275.9,37.3h-4v-4h4V37.3z M275.9,32.3h-4v-4h4V32.3z
			 M275.9,27.2h-4v-4h4V27.2z M291.5,42.4h-4v-4h4V42.4z M291.5,37.3h-4v-4h4V37.3z M291.5,32.3h-4v-4h4V32.3z M291.5,22.2h-4v-4.1
			h4V22.2z M296.5,42.4h-4v-4h4V42.4z M296.5,32.3h-4v-4h4V32.3z M296.5,22.2h-4v-4.1h4V22.2z M301.6,42.4h-4v-4h4V42.4z
			 M301.6,32.3h-4v-4h4V32.3z M301.6,22.2h-4v-4.1h4V22.2z M306.6,42.4h-4v-4h4V42.4z M306.6,37.3h-4v-4h4V37.3z M306.6,32.3h-4v-4
			h4V32.3z M306.6,27.2h-4v-4h4V27.2z M306.6,22.2h-4v-4.1h4V22.2z M322.2,42.4h-4v-4h4V42.4z M322.2,37.3h-4v-4h4V37.3z
			 M322.2,32.3h-4v-4h4V32.3z M322.2,27.2h-4v-4h4V27.2z M322.2,22.2h-4v-4.1h4V22.2z M327.3,42.4h-4v-4h4V42.4z M332.3,42.4h-4v-4
			h4V42.4z M337.4,42.4h-4v-4h4V42.4z"/>
		<g>
			<g>
				<path class="st0" d="M89.4,59.5v-3.4h3.4v3.4H89.4z M89.4,63.8v-3.4h3.4v3.4H89.4z M89.4,68v-3.4h3.4V68H89.4z M89.4,72.3v-3.4
					h3.4v3.4H89.4z M89.4,76.5v-3.4h3.4v3.4H89.4z M89.4,80.8v-3.4h3.4v3.4H89.4z M89.4,85.1v-3.4h3.4v3.4H89.4z M93.7,59.5v-3.4
					h3.4v3.4H93.7z M93.7,72.3v-3.4h3.4v3.4H93.7z M98,59.5v-3.4h3.4v3.4H98z M98,72.3v-3.4h3.4v3.4H98z M98,76.5v-3.4h3.4v3.4H98z
					 M102.2,59.5v-3.4h3.4v3.4H102.2z M102.2,72.3v-3.4h3.4v3.4H102.2z M102.2,80.8v-3.4h3.4v3.4H102.2z M106.5,63.8v-3.4h3.4v3.4
					H106.5z M106.5,68v-3.4h3.4V68H106.5z M106.5,85.1v-3.4h3.4v3.4H106.5z"/>
				<path class="st0" d="M128.8,59.5v-3.4h3.4v3.4H128.8z M128.8,63.8v-3.4h3.4v3.4H128.8z M128.8,68v-3.4h3.4V68H128.8z
					 M128.8,72.3v-3.4h3.4v3.4H128.8z M128.8,76.5v-3.4h3.4v3.4H128.8z M128.8,80.8v-3.4h3.4v3.4H128.8z M128.8,85.1v-3.4h3.4v3.4
					H128.8z M133.1,59.5v-3.4h3.4v3.4H133.1z M133.1,72.3v-3.4h3.4v3.4H133.1z M133.1,85.1v-3.4h3.4v3.4H133.1z M137.3,59.5v-3.4
					h3.4v3.4H137.3z M137.3,72.3v-3.4h3.4v3.4H137.3z M137.3,85.1v-3.4h3.4v3.4H137.3z M141.6,59.5v-3.4h3.4v3.4H141.6z M141.6,72.3
					v-3.4h3.4v3.4H141.6z M141.6,85.1v-3.4h3.4v3.4H141.6z M145.8,59.5v-3.4h3.4v3.4H145.8z M145.8,85.1v-3.4h3.4v3.4H145.8z"/>
				<path class="st0" d="M168.1,59.5v-3.4h3.4v3.4H168.1z M168.1,63.8v-3.4h3.4v3.4H168.1z M168.1,68v-3.4h3.4V68H168.1z
					 M168.1,72.3v-3.4h3.4v3.4H168.1z M168.1,76.5v-3.4h3.4v3.4H168.1z M168.1,80.8v-3.4h3.4v3.4H168.1z M168.1,85.1v-3.4h3.4v3.4
					H168.1z M172.4,59.5v-3.4h3.4v3.4H172.4z M172.4,72.3v-3.4h3.4v3.4H172.4z M176.6,59.5v-3.4h3.4v3.4H176.6z M176.6,72.3v-3.4
					h3.4v3.4H176.6z M180.9,59.5v-3.4h3.4v3.4H180.9z M180.9,72.3v-3.4h3.4v3.4H180.9z M185.2,59.5v-3.4h3.4v3.4H185.2z"/>
				<path class="st0" d="M207.5,59.5v-3.4h3.4v3.4H207.5z M207.5,63.8v-3.4h3.4v3.4H207.5z M207.5,68v-3.4h3.4V68H207.5z
					 M207.5,72.3v-3.4h3.4v3.4H207.5z M207.5,76.5v-3.4h3.4v3.4H207.5z M207.5,80.8v-3.4h3.4v3.4H207.5z M207.5,85.1v-3.4h3.4v3.4
					H207.5z M211.7,59.5v-3.4h3.4v3.4H211.7z M211.7,85.1v-3.4h3.4v3.4H211.7z M216,59.5v-3.4h3.4v3.4H216z M216,85.1v-3.4h3.4v3.4
					H216z M220.3,59.5v-3.4h3.4v3.4H220.3z M220.3,85.1v-3.4h3.4v3.4H220.3z M224.5,59.5v-3.4h3.4v3.4H224.5z M224.5,63.8v-3.4h3.4
					v3.4H224.5z M224.5,68v-3.4h3.4V68H224.5z M224.5,72.3v-3.4h3.4v3.4H224.5z M224.5,76.5v-3.4h3.4v3.4H224.5z M224.5,80.8v-3.4
					h3.4v3.4H224.5z M224.5,85.1v-3.4h3.4v3.4H224.5z"/>
				<path class="st0" d="M246.8,59.5v-3.4h3.4v3.4H246.8z M246.8,63.8v-3.4h3.4v3.4H246.8z M246.8,68v-3.4h3.4V68H246.8z
					 M246.8,72.3v-3.4h3.4v3.4H246.8z M246.8,76.5v-3.4h3.4v3.4H246.8z M246.8,80.8v-3.4h3.4v3.4H246.8z M246.8,85.1v-3.4h3.4v3.4
					H246.8z M251.1,59.5v-3.4h3.4v3.4H251.1z M251.1,72.3v-3.4h3.4v3.4H251.1z M255.3,59.5v-3.4h3.4v3.4H255.3z M255.3,72.3v-3.4
					h3.4v3.4H255.3z M255.3,76.5v-3.4h3.4v3.4H255.3z M259.6,59.5v-3.4h3.4v3.4H259.6z M259.6,72.3v-3.4h3.4v3.4H259.6z M259.6,80.8
					v-3.4h3.4v3.4H259.6z M263.9,63.8v-3.4h3.4v3.4H263.9z M263.9,68v-3.4h3.4V68H263.9z M263.9,85.1v-3.4h3.4v3.4H263.9z"/>
				<path class="st0" d="M286.2,59.5v-3.4h3.4v3.4H286.2z M286.2,63.8v-3.4h3.4v3.4H286.2z M286.2,68v-3.4h3.4V68H286.2z
					 M286.2,72.3v-3.4h3.4v3.4H286.2z M286.2,76.5v-3.4h3.4v3.4H286.2z M286.2,80.8v-3.4h3.4v3.4H286.2z M286.2,85.1v-3.4h3.4v3.4
					H286.2z M290.4,63.8v-3.4h3.4v3.4H290.4z M294.7,68v-3.4h3.4V68H294.7z M294.7,72.3v-3.4h3.4v3.4H294.7z M298.9,63.8v-3.4h3.4
					v3.4H298.9z M303.2,59.5v-3.4h3.4v3.4H303.2z M303.2,63.8v-3.4h3.4v3.4H303.2z M303.2,68v-3.4h3.4V68H303.2z M303.2,72.3v-3.4
					h3.4v3.4H303.2z M303.2,76.5v-3.4h3.4v3.4H303.2z M303.2,80.8v-3.4h3.4v3.4H303.2z M303.2,85.1v-3.4h3.4v3.4H303.2z"/>
				<path class="st0" d="M325.5,63.8v-3.4h3.4v3.4H325.5z M325.5,68v-3.4h3.4V68H325.5z M325.5,72.3v-3.4h3.4v3.4H325.5z
					 M325.5,76.5v-3.4h3.4v3.4H325.5z M325.5,80.8v-3.4h3.4v3.4H325.5z M325.5,85.1v-3.4h3.4v3.4H325.5z M329.8,59.5v-3.4h3.4v3.4
					H329.8z M329.8,76.5v-3.4h3.4v3.4H329.8z M334,59.5v-3.4h3.4v3.4H334z M334,76.5v-3.4h3.4v3.4H334z M338.3,59.5v-3.4h3.4v3.4
					H338.3z M338.3,76.5v-3.4h3.4v3.4H338.3z M342.5,63.8v-3.4h3.4v3.4H342.5z M342.5,68v-3.4h3.4V68H342.5z M342.5,72.3v-3.4h3.4
					v3.4H342.5z M342.5,76.5v-3.4h3.4v3.4H342.5z M342.5,80.8v-3.4h3.4v3.4H342.5z M342.5,85.1v-3.4h3.4v3.4H342.5z"/>
			</g>
		</g>
	</g>
	<g>
		<rect x="0.5" y="0.9" class="st1" width="81.8" height="84.2"/>
		<rect x="72.7" y="5.9" class="st1" width="4.4" height="4.3"/>
		<rect x="72.7" y="10.5" class="st1" width="4.4" height="4.3"/>
		<rect x="72.7" y="15.2" class="st1" width="4.4" height="4.3"/>
		<rect x="72.7" y="19.8" class="st1" width="4.4" height="4.3"/>
		<rect x="72.7" y="24.5" class="st1" width="4.4" height="4.3"/>
		<rect x="72.7" y="29.1" class="st1" width="4.4" height="4.3"/>
		<rect x="72.7" y="33.8" class="st1" width="4.4" height="4.3"/>
		<rect x="72.7" y="38.5" class="st1" width="4.4" height="4.3"/>
		<rect x="72.7" y="43.1" class="st1" width="4.4" height="4.3"/>
		<rect x="72.7" y="47.8" class="st1" width="4.4" height="4.3"/>
		<rect x="72.7" y="52.4" class="st1" width="4.4" height="4.3"/>
		<rect x="72.7" y="57.1" class="st1" width="4.4" height="4.3"/>
		<rect x="72.7" y="61.8" class="st1" width="4.4" height="4.3"/>
		<rect x="72.7" y="66.4" class="st1" width="4.4" height="4.3"/>
		<rect x="72.7" y="71.1" class="st1" width="4.4" height="4.3"/>
		<rect x="72.7" y="75.7" class="st1" width="4.4" height="4.3"/>
		<rect x="67.9" y="5.9" class="st1" width="4.4" height="4.3"/>
		<rect x="67.9" y="10.5" class="st1" width="4.4" height="4.3"/>
		<rect x="67.9" y="15.2" class="st1" width="4.4" height="4.3"/>
		<rect x="67.9" y="19.8" class="st1" width="4.4" height="4.3"/>
		<rect x="67.9" y="24.5" class="st1" width="4.4" height="4.3"/>
		<rect x="67.9" y="29.1" class="st1" width="4.4" height="4.3"/>
		<rect x="67.9" y="47.8" class="st1" width="4.4" height="4.3"/>
		<rect x="67.9" y="52.4" class="st1" width="4.4" height="4.3"/>
		<rect x="67.9" y="57.1" class="st1" width="4.4" height="4.3"/>
		<rect x="67.9" y="61.8" class="st1" width="4.4" height="4.3"/>
		<rect x="67.9" y="66.4" class="st1" width="4.4" height="4.3"/>
		<rect x="67.9" y="75.7" class="st1" width="4.4" height="4.3"/>
		<rect x="63.1" y="5.9" class="st1" width="4.4" height="4.3"/>
		<rect x="63.1" y="10.5" class="st1" width="4.4" height="4.3"/>
		<rect x="63.1" y="15.2" class="st1" width="4.4" height="4.3"/>
		<rect x="63.1" y="19.8" class="st1" width="4.4" height="4.3"/>
		<rect x="63.1" y="24.5" class="st1" width="4.4" height="4.3"/>
		<rect x="63.1" y="33.8" class="st1" width="4.4" height="4.3"/>
		<rect x="63.1" y="38.5" class="st1" width="4.4" height="4.3"/>
		<rect x="63.1" y="43.1" class="st1" width="4.4" height="4.3"/>
		<rect x="63.1" y="52.4" class="st1" width="4.4" height="4.3"/>
		<rect x="63.1" y="57.1" class="st1" width="4.4" height="4.3"/>
		<rect x="63.1" y="61.8" class="st1" width="4.4" height="4.3"/>
		<rect x="63.1" y="71.1" class="st1" width="4.4" height="4.3"/>
		<rect x="63.1" y="75.7" class="st1" width="4.4" height="4.3"/>
		<rect x="58.3" y="5.9" class="st1" width="4.4" height="4.3"/>
		<rect x="58.3" y="10.5" class="st1" width="4.4" height="4.3"/>
		<rect x="58.3" y="15.2" class="st1" width="4.4" height="4.3"/>
		<rect x="58.3" y="19.8" class="st1" width="4.4" height="4.3"/>
		<rect x="58.3" y="24.5" class="st1" width="4.4" height="4.3"/>
		<rect x="58.3" y="33.8" class="st1" width="4.4" height="4.3"/>
		<rect x="58.3" y="38.5" class="st1" width="4.4" height="4.3"/>
		<rect x="58.3" y="43.1" class="st1" width="4.4" height="4.3"/>
		<rect x="58.3" y="52.4" class="st1" width="4.4" height="4.3"/>
		<rect x="58.3" y="57.1" class="st1" width="4.4" height="4.3"/>
		<rect x="58.3" y="66.4" class="st1" width="4.4" height="4.3"/>
		<rect x="58.3" y="71.1" class="st1" width="4.4" height="4.3"/>
		<rect x="58.3" y="75.7" class="st1" width="4.4" height="4.3"/>
		<rect x="53.5" y="5.9" class="st1" width="4.4" height="4.3"/>
		<rect x="53.5" y="10.5" class="st1" width="4.4" height="4.3"/>
		<rect x="53.5" y="15.2" class="st1" width="4.4" height="4.3"/>
		<rect x="53.5" y="19.8" class="st1" width="4.4" height="4.3"/>
		<rect x="53.5" y="24.5" class="st1" width="4.4" height="4.3"/>
		<rect x="53.5" y="33.8" class="st1" width="4.4" height="4.3"/>
		<rect x="53.5" y="38.5" class="st1" width="4.4" height="4.3"/>
		<rect x="53.5" y="43.1" class="st1" width="4.4" height="4.3"/>
		<rect x="53.5" y="52.4" class="st1" width="4.4" height="4.3"/>
		<rect x="53.5" y="61.8" class="st1" width="4.4" height="4.3"/>
		<rect x="53.5" y="66.4" class="st1" width="4.4" height="4.3"/>
		<rect x="53.5" y="71.1" class="st1" width="4.4" height="4.3"/>
		<rect x="53.5" y="75.7" class="st1" width="4.4" height="4.3"/>
		<rect x="48.7" y="5.9" class="st1" width="4.4" height="4.3"/>
		<rect x="48.7" y="10.5" class="st1" width="4.4" height="4.3"/>
		<rect x="48.7" y="15.2" class="st1" width="4.4" height="4.3"/>
		<rect x="48.7" y="19.8" class="st1" width="4.4" height="4.3"/>
		<rect x="48.7" y="24.5" class="st1" width="4.4" height="4.3"/>
		<rect x="48.7" y="33.8" class="st1" width="4.4" height="4.3"/>
		<rect x="48.7" y="38.5" class="st1" width="4.4" height="4.3"/>
		<rect x="48.7" y="43.1" class="st1" width="4.4" height="4.3"/>
		<rect x="48.7" y="57.1" class="st1" width="4.4" height="4.3"/>
		<rect x="48.7" y="61.8" class="st1" width="4.4" height="4.3"/>
		<rect x="48.7" y="66.4" class="st1" width="4.4" height="4.3"/>
		<rect x="48.7" y="71.1" class="st1" width="4.4" height="4.3"/>
		<rect x="48.7" y="75.7" class="st1" width="4.4" height="4.3"/>
		<rect x="44" y="5.9" class="st1" width="4.4" height="4.3"/>
		<rect x="44" y="10.5" class="st1" width="4.4" height="4.3"/>
		<rect x="44" y="15.2" class="st1" width="4.4" height="4.3"/>
		<rect x="44" y="19.8" class="st1" width="4.4" height="4.3"/>
		<rect x="44" y="24.5" class="st1" width="4.4" height="4.3"/>
		<rect x="44" y="75.7" class="st1" width="4.4" height="4.3"/>
		<rect x="39.2" y="5.9" class="st1" width="4.4" height="4.3"/>
		<rect x="39.2" y="10.5" class="st1" width="4.4" height="4.3"/>
		<rect x="39.2" y="15.2" class="st1" width="4.4" height="4.3"/>
		<rect x="39.2" y="19.8" class="st1" width="4.4" height="4.3"/>
		<rect x="39.2" y="24.5" class="st1" width="4.4" height="4.3"/>
		<rect x="39.2" y="29.1" class="st1" width="4.4" height="4.3"/>
		<rect x="39.2" y="33.8" class="st1" width="4.4" height="4.3"/>
		<rect x="39.2" y="38.5" class="st1" width="4.4" height="4.3"/>
		<rect x="39.2" y="43.1" class="st1" width="4.4" height="4.3"/>
		<rect x="39.2" y="47.8" class="st1" width="4.4" height="4.3"/>
		<rect x="39.2" y="52.4" class="st1" width="4.4" height="4.3"/>
		<rect x="39.2" y="57.1" class="st1" width="4.4" height="4.3"/>
		<rect x="39.2" y="61.8" class="st1" width="4.4" height="4.3"/>
		<rect x="39.2" y="66.4" class="st1" width="4.4" height="4.3"/>
		<rect x="39.2" y="71.1" class="st1" width="4.4" height="4.3"/>
		<rect x="39.2" y="75.7" class="st1" width="4.4" height="4.3"/>
		<rect x="34.4" y="5.9" class="st1" width="4.4" height="4.3"/>
		<rect x="34.4" y="10.5" class="st1" width="4.4" height="4.3"/>
		<rect x="34.4" y="29.1" class="st1" width="4.4" height="4.3"/>
		<rect x="34.4" y="33.8" class="st1" width="4.4" height="4.3"/>
		<rect x="34.4" y="38.5" class="st1" width="4.4" height="4.3"/>
		<rect x="34.4" y="43.1" class="st1" width="4.4" height="4.3"/>
		<rect x="34.4" y="47.8" class="st1" width="4.4" height="4.3"/>
		<rect x="34.4" y="52.4" class="st1" width="4.4" height="4.3"/>
		<rect x="34.4" y="57.1" class="st1" width="4.4" height="4.3"/>
		<rect x="34.4" y="61.8" class="st1" width="4.4" height="4.3"/>
		<rect x="34.4" y="66.4" class="st1" width="4.4" height="4.3"/>
		<rect x="34.4" y="71.1" class="st1" width="4.4" height="4.3"/>
		<rect x="34.4" y="75.7" class="st1" width="4.4" height="4.3"/>
		<rect x="29.6" y="5.9" class="st1" width="4.4" height="4.3"/>
		<rect x="29.6" y="15.2" class="st1" width="4.4" height="4.3"/>
		<rect x="29.6" y="19.8" class="st1" width="4.4" height="4.3"/>
		<rect x="29.6" y="24.5" class="st1" width="4.4" height="4.3"/>
		<rect x="29.6" y="33.8" class="st1" width="4.4" height="4.3"/>
		<rect x="29.6" y="38.5" class="st1" width="4.4" height="4.3"/>
		<rect x="29.6" y="43.1" class="st1" width="4.4" height="4.3"/>
		<rect x="29.6" y="47.8" class="st1" width="4.4" height="4.3"/>
		<rect x="29.6" y="52.4" class="st1" width="4.4" height="4.3"/>
		<rect x="29.6" y="57.1" class="st1" width="4.4" height="4.3"/>
		<rect x="29.6" y="61.8" class="st1" width="4.4" height="4.3"/>
		<rect x="29.6" y="66.4" class="st1" width="4.4" height="4.3"/>
		<rect x="29.6" y="71.1" class="st1" width="4.4" height="4.3"/>
		<rect x="29.6" y="75.7" class="st1" width="4.4" height="4.3"/>
		<rect x="24.8" y="5.9" class="st1" width="4.4" height="4.3"/>
		<rect x="24.8" y="15.2" class="st1" width="4.4" height="4.3"/>
		<rect x="24.8" y="19.8" class="st1" width="4.4" height="4.3"/>
		<rect x="24.8" y="24.5" class="st1" width="4.4" height="4.3"/>
		<rect x="24.8" y="33.8" class="st1" width="4.4" height="4.3"/>
		<rect x="24.8" y="38.5" class="st1" width="4.4" height="4.3"/>
		<rect x="24.8" y="43.1" class="st1" width="4.4" height="4.3"/>
		<rect x="24.8" y="47.8" class="st1" width="4.4" height="4.3"/>
		<rect x="24.8" y="52.4" class="st1" width="4.4" height="4.3"/>
		<rect x="24.8" y="57.1" class="st1" width="4.4" height="4.3"/>
		<rect x="24.8" y="61.8" class="st1" width="4.4" height="4.3"/>
		<rect x="24.8" y="66.4" class="st1" width="4.4" height="4.3"/>
		<rect x="24.8" y="71.1" class="st1" width="4.4" height="4.3"/>
		<rect x="24.8" y="75.7" class="st1" width="4.4" height="4.3"/>
		<rect x="20" y="5.9" class="st1" width="4.4" height="4.3"/>
		<rect x="20" y="15.2" class="st1" width="4.4" height="4.3"/>
		<rect x="20" y="19.8" class="st1" width="4.4" height="4.3"/>
		<rect x="20" y="24.5" class="st1" width="4.4" height="4.3"/>
		<rect x="20" y="33.8" class="st1" width="4.4" height="4.3"/>
		<rect x="20" y="38.5" class="st1" width="4.4" height="4.3"/>
		<rect x="20" y="43.1" class="st1" width="4.4" height="4.3"/>
		<rect x="20" y="47.8" class="st1" width="4.4" height="4.3"/>
		<rect x="20" y="52.4" class="st1" width="4.4" height="4.3"/>
		<rect x="20" y="57.1" class="st1" width="4.4" height="4.3"/>
		<rect x="20" y="61.8" class="st1" width="4.4" height="4.3"/>
		<rect x="20" y="66.4" class="st1" width="4.4" height="4.3"/>
		<rect x="20" y="71.1" class="st1" width="4.4" height="4.3"/>
		<rect x="20" y="75.7" class="st1" width="4.4" height="4.3"/>
		<rect x="15.2" y="5.9" class="st1" width="4.4" height="4.3"/>
		<rect x="15.2" y="15.2" class="st1" width="4.4" height="4.3"/>
		<rect x="15.2" y="19.8" class="st1" width="4.4" height="4.3"/>
		<rect x="15.2" y="24.5" class="st1" width="4.4" height="4.3"/>
		<rect x="15.2" y="33.8" class="st1" width="4.4" height="4.3"/>
		<rect x="15.2" y="38.5" class="st1" width="4.4" height="4.3"/>
		<rect x="15.2" y="43.1" class="st1" width="4.4" height="4.3"/>
		<rect x="15.2" y="47.8" class="st1" width="4.4" height="4.3"/>
		<rect x="15.2" y="52.4" class="st1" width="4.4" height="4.3"/>
		<rect x="15.2" y="57.1" class="st1" width="4.4" height="4.3"/>
		<rect x="15.2" y="61.8" class="st1" width="4.4" height="4.3"/>
		<rect x="15.2" y="66.4" class="st1" width="4.4" height="4.3"/>
		<rect x="15.2" y="71.1" class="st1" width="4.4" height="4.3"/>
		<rect x="15.2" y="75.7" class="st1" width="4.4" height="4.3"/>
		<rect x="10.4" y="5.9" class="st1" width="4.4" height="4.3"/>
		<rect x="10.4" y="57.1" class="st1" width="4.4" height="4.3"/>
		<rect x="10.4" y="61.8" class="st1" width="4.4" height="4.3"/>
		<rect x="10.4" y="66.4" class="st1" width="4.4" height="4.3"/>
		<rect x="10.4" y="71.1" class="st1" width="4.4" height="4.3"/>
		<rect x="10.4" y="75.7" class="st1" width="4.4" height="4.3"/>
		<rect x="5.6" y="5.9" class="st1" width="4.4" height="4.3"/>
		<rect x="5.6" y="10.5" class="st1" width="4.4" height="4.3"/>
		<rect x="5.6" y="15.2" class="st1" width="4.4" height="4.3"/>
		<rect x="5.6" y="19.8" class="st1" width="4.4" height="4.3"/>
		<rect x="5.6" y="24.5" class="st1" width="4.4" height="4.3"/>
		<rect x="5.6" y="29.1" class="st1" width="4.4" height="4.3"/>
		<rect x="5.6" y="33.8" class="st1" width="4.4" height="4.3"/>
		<rect x="5.6" y="38.5" class="st1" width="4.4" height="4.3"/>
		<rect x="5.6" y="43.1" class="st1" width="4.4" height="4.3"/>
		<rect x="5.6" y="47.8" class="st1" width="4.4" height="4.3"/>
		<rect x="5.6" y="52.4" class="st1" width="4.4" height="4.3"/>
		<rect x="5.6" y="57.1" class="st1" width="4.4" height="4.3"/>
		<rect x="5.6" y="61.8" class="st1" width="4.4" height="4.3"/>
		<rect x="5.6" y="66.4" class="st1" width="4.4" height="4.3"/>
		<rect x="5.6" y="71.1" class="st1" width="4.4" height="4.3"/>
		<rect x="5.6" y="75.7" class="st1" width="4.4" height="4.3"/>
		<g>
			<rect x="67.9" y="33.8" class="st0" width="4.4" height="4.3"/>
			<rect x="67.9" y="38.5" class="st0" width="4.4" height="4.3"/>
			<rect x="67.9" y="43.1" class="st0" width="4.4" height="4.3"/>
			<rect x="67.9" y="71.1" class="st0" width="4.4" height="4.3"/>
			<rect x="63.1" y="29.1" class="st0" width="4.4" height="4.3"/>
			<rect x="63.1" y="47.8" class="st0" width="4.4" height="4.3"/>
			<rect x="63.1" y="66.4" class="st0" width="4.4" height="4.3"/>
			<rect x="58.3" y="29.1" class="st0" width="4.4" height="4.3"/>
			<rect x="58.3" y="47.8" class="st0" width="4.4" height="4.3"/>
			<rect x="58.3" y="61.8" class="st0" width="4.4" height="4.3"/>
			<rect x="53.5" y="29.1" class="st0" width="4.4" height="4.3"/>
			<rect x="53.5" y="47.8" class="st0" width="4.4" height="4.3"/>
			<rect x="53.5" y="57.1" class="st0" width="4.4" height="4.3"/>
			<rect x="48.7" y="29.1" class="st0" width="4.4" height="4.3"/>
			<rect x="48.7" y="47.8" class="st0" width="4.4" height="4.3"/>
			<rect x="48.7" y="52.4" class="st0" width="4.4" height="4.3"/>
			<rect x="44" y="29.1" class="st0" width="4.4" height="4.3"/>
			<rect x="44" y="33.8" class="st0" width="4.4" height="4.3"/>
			<rect x="44" y="38.5" class="st0" width="4.4" height="4.3"/>
			<rect x="44" y="43.1" class="st0" width="4.4" height="4.3"/>
			<rect x="44" y="47.8" class="st0" width="4.4" height="4.3"/>
			<rect x="44" y="52.4" class="st0" width="4.4" height="4.3"/>
			<rect x="44" y="57.1" class="st0" width="4.4" height="4.3"/>
			<rect x="44" y="61.8" class="st0" width="4.4" height="4.3"/>
			<rect x="44" y="66.4" class="st0" width="4.4" height="4.3"/>
			<rect x="44" y="71.1" class="st0" width="4.4" height="4.3"/>
			<rect x="34.4" y="15.2" class="st0" width="4.4" height="4.3"/>
			<rect x="34.4" y="19.8" class="st0" width="4.4" height="4.3"/>
			<rect x="34.4" y="24.5" class="st0" width="4.4" height="4.3"/>
			<rect x="29.6" y="10.5" class="st0" width="4.4" height="4.3"/>
			<rect x="29.6" y="29.1" class="st0" width="4.4" height="4.3"/>
			<rect x="24.8" y="10.5" class="st0" width="4.4" height="4.3"/>
			<rect x="24.8" y="29.1" class="st0" width="4.4" height="4.3"/>
			<rect x="20" y="10.5" class="st0" width="4.4" height="4.3"/>
			<rect x="20" y="29.1" class="st0" width="4.4" height="4.3"/>
			<rect x="15.2" y="10.5" class="st0" width="4.4" height="4.3"/>
			<rect x="15.2" y="29.1" class="st0" width="4.4" height="4.3"/>
			<rect x="10.4" y="10.5" class="st0" width="4.4" height="4.3"/>
			<rect x="10.4" y="15.2" class="st0" width="4.4" height="4.3"/>
			<rect x="10.4" y="19.8" class="st0" width="4.4" height="4.3"/>
			<rect x="10.4" y="24.5" class="st0" width="4.4" height="4.3"/>
			<rect x="10.4" y="29.1" class="st0" width="4.4" height="4.3"/>
			<rect x="10.4" y="33.8" class="st0" width="4.4" height="4.3"/>
			<rect x="10.4" y="38.5" class="st0" width="4.4" height="4.3"/>
			<rect x="10.4" y="43.1" class="st0" width="4.4" height="4.3"/>
			<rect x="10.4" y="47.8" class="st0" width="4.4" height="4.3"/>
			<rect x="10.4" y="52.4" class="st0" width="4.4" height="4.3"/>
			<rect x="0.8" y="1.2" class="st0" width="4.4" height="4.3"/>
			<rect x="0.8" y="5.9" class="st0" width="4.4" height="4.3"/>
			<rect x="0.8" y="10.5" class="st0" width="4.4" height="4.3"/>
			<rect x="0.8" y="15.2" class="st0" width="4.4" height="4.3"/>
			<rect x="0.8" y="19.8" class="st0" width="4.4" height="4.3"/>
			<rect x="0.8" y="24.5" class="st0" width="4.4" height="4.3"/>
			<rect x="0.8" y="29.1" class="st0" width="4.4" height="4.3"/>
			<rect x="0.8" y="33.8" class="st0" width="4.4" height="4.3"/>
			<rect x="0.8" y="38.5" class="st0" width="4.4" height="4.3"/>
			<rect x="0.8" y="43.1" class="st0" width="4.4" height="4.3"/>
			<rect x="0.8" y="47.8" class="st0" width="4.4" height="4.3"/>
			<rect x="0.8" y="52.4" class="st0" width="4.4" height="4.3"/>
			<rect x="0.8" y="57.1" class="st0" width="4.4" height="4.3"/>
			<rect x="0.8" y="61.8" class="st0" width="4.4" height="4.3"/>
			<rect x="0.8" y="66.4" class="st0" width="4.4" height="4.3"/>
			<rect x="0.8" y="71.1" class="st0" width="4.4" height="4.3"/>
			<rect x="0.8" y="75.7" class="st0" width="4.4" height="4.3"/>
			<rect x="77.5" y="5.9" class="st0" width="4.4" height="4.3"/>
			<rect x="77.5" y="10.5" class="st0" width="4.4" height="4.3"/>
			<rect x="77.5" y="15.2" class="st0" width="4.4" height="4.3"/>
			<rect x="77.5" y="19.8" class="st0" width="4.4" height="4.3"/>
			<rect x="77.5" y="24.5" class="st0" width="4.4" height="4.3"/>
			<rect x="77.5" y="29.1" class="st0" width="4.4" height="4.3"/>
			<rect x="77.5" y="33.8" class="st0" width="4.4" height="4.3"/>
			<rect x="77.5" y="38.5" class="st0" width="4.4" height="4.3"/>
			<rect x="77.5" y="43.1" class="st0" width="4.4" height="4.3"/>
			<rect x="77.5" y="47.8" class="st0" width="4.4" height="4.3"/>
			<rect x="77.5" y="52.4" class="st0" width="4.4" height="4.3"/>
			<rect x="77.5" y="57.1" class="st0" width="4.4" height="4.3"/>
			<rect x="77.5" y="61.8" class="st0" width="4.4" height="4.3"/>
			<rect x="77.5" y="66.4" class="st0" width="4.4" height="4.3"/>
			<rect x="77.5" y="71.1" class="st0" width="4.4" height="4.3"/>
			<rect x="77.5" y="75.7" class="st0" width="4.4" height="4.3"/>
			<rect x="0.8" y="80.4" class="st0" width="4.4" height="4.3"/>
			<rect x="5.6" y="1.2" class="st0" width="4.4" height="4.3"/>
			<rect x="10.4" y="1.2" class="st0" width="4.4" height="4.3"/>
			<rect x="15.2" y="1.2" class="st0" width="4.4" height="4.3"/>
			<rect x="20" y="1.2" class="st0" width="4.4" height="4.3"/>
			<rect x="24.8" y="1.2" class="st0" width="4.4" height="4.3"/>
			<rect x="29.6" y="1.2" class="st0" width="4.4" height="4.3"/>
			<rect x="34.4" y="1.2" class="st0" width="4.4" height="4.3"/>
			<rect x="39.2" y="1.2" class="st0" width="4.4" height="4.3"/>
			<rect x="44" y="1.2" class="st0" width="4.4" height="4.3"/>
			<rect x="48.7" y="1.2" class="st0" width="4.4" height="4.3"/>
			<rect x="53.5" y="1.2" class="st0" width="4.4" height="4.3"/>
			<rect x="58.3" y="1.2" class="st0" width="4.4" height="4.3"/>
			<rect x="63.1" y="1.2" class="st0" width="4.4" height="4.3"/>
			<rect x="67.9" y="1.2" class="st0" width="4.4" height="4.3"/>
			<rect x="72.7" y="1.2" class="st0" width="4.4" height="4.3"/>
			<rect x="77.5" y="1.2" class="st0" width="4.4" height="4.3"/>
			<rect x="5.6" y="80.4" class="st0" width="4.4" height="4.3"/>
			<rect x="10.4" y="80.4" class="st0" width="4.4" height="4.3"/>
			<rect x="15.2" y="80.4" class="st0" width="4.4" height="4.3"/>
			<rect x="20" y="80.4" class="st0" width="4.4" height="4.3"/>
			<rect x="24.8" y="80.4" class="st0" width="4.4" height="4.3"/>
			<rect x="29.6" y="80.4" class="st0" width="4.4" height="4.3"/>
			<rect x="34.4" y="80.4" class="st0" width="4.4" height="4.3"/>
			<rect x="39.2" y="80.4" class="st0" width="4.4" height="4.3"/>
			<rect x="44" y="80.4" class="st0" width="4.4" height="4.3"/>
			<rect x="48.7" y="80.4" class="st0" width="4.4" height="4.3"/>
			<rect x="53.5" y="80.4" class="st0" width="4.4" height="4.3"/>
			<rect x="58.3" y="80.4" class="st0" width="4.4" height="4.3"/>
			<rect x="63.1" y="80.4" class="st0" width="4.4" height="4.3"/>
			<rect x="67.9" y="80.4" class="st0" width="4.4" height="4.3"/>
			<rect x="72.7" y="80.4" class="st0" width="4.4" height="4.3"/>
			<rect x="77.5" y="80.4" class="st0" width="4.4" height="4.3"/>
		</g>
		<g>
			<g>
				<path class="st0" d="M10.7,74.3C10.7,74.4,10.7,74.4,10.7,74.3C10.7,74.4,10.7,74.4,10.7,74.3c0,0.1,0,0.1-0.1,0.2
					c0,0,0,0,0,0.1c0,0,0,0,0,0c0,0,0,0,0,0c0,0,0,0,0,0c0,0,0,0,0,0c0,0,0,0,0,0s0,0,0,0c0,0,0,0.1,0,0.1c0,0,0,0.1,0,0.1
					c0,0,0,0,0,0c0,0,0,0,0,0.1c0,0,0,0,0,0.1l0,0c0,0.1,0,0.1,0,0.2c0,0,0,0.1,0,0.1c0,0,0,0.1,0,0.1c0,0,0,0.1,0,0.1c0,0,0,0,0,0
					s0,0,0,0h0v0.1h0l0,0l0,0.1h0v0c0,0,0,0,0,0c0,0,0,0.1,0,0.1c0,0.1,0,0.1,0,0.1c0,0,0,0,0,0c0,0,0,0,0-0.1V76c0,0,0,0,0,0
					c0,0,0,0,0,0c0,0,0,0,0,0c0,0,0,0,0,0c0,0,0,0,0,0.1c0,0,0,0,0,0c0,0,0,0,0,0c0,0,0,0,0,0c0,0,0,0,0,0c0,0,0,0,0,0
					c0,0,0,0-0.1,0c0,0,0,0,0,0c0,0,0,0,0,0c0,0,0,0,0,0c0,0,0-0.1,0-0.1c0,0,0,0,0-0.1c0,0,0-0.1,0-0.1c0,0,0,0,0-0.1
					c0-0.1,0-0.2,0-0.3c0-0.1,0-0.1,0-0.1c0,0,0-0.1,0-0.1c0,0,0-0.1,0-0.3c0,0,0,0,0-0.1c0,0,0-0.1,0-0.1c0,0,0,0,0,0c0,0,0,0,0,0
					c0,0,0,0,0,0c0,0,0,0,0,0c0-0.1,0-0.2,0-0.3c0-0.1,0-0.2,0.1-0.4c0,0,0,0,0,0c0,0,0,0,0,0c0,0,0,0,0,0c0,0,0,0,0,0
					c0-0.1,0-0.2,0-0.4c0-0.1,0.1-0.3,0.1-0.4l0,0c0,0,0,0,0,0c0,0,0,0,0,0c0,0,0,0,0,0c0,0,0,0,0,0c0,0,0,0,0,0v0c0,0-0.1,0-0.2,0
					c-0.1,0-0.1,0-0.2,0c0,0,0,0,0.1,0c0,0,0,0,0,0c0,0,0,0,0,0c0,0,0,0,0,0c0,0,0,0,0,0c0,0,0,0,0,0c0,0,0,0,0,0c0,0,0,0-0.1,0
					c0,0,0,0,0,0c0,0,0,0,0,0c0,0-0.1,0-0.1,0c0,0-0.1,0-0.1,0c0,0,0,0,0,0c0,0,0,0,0,0c0,0,0,0,0,0c0,0,0,0-0.1,0l0,0
					c-0.1,0-0.2,0.1-0.3,0.1c-0.1,0-0.2,0-0.3,0c-0.2,0.3-0.3,0.6-0.5,1c-0.2,0.3-0.3,0.6-0.5,0.9c0,0-0.1,0-0.1,0c0,0-0.1,0-0.1,0
					c0,0-0.1,0-0.1-0.1c0,0-0.1,0-0.1,0c0,0,0,0,0-0.1c0.1-0.3,0.2-0.5,0.4-0.8c0.1-0.3,0.3-0.5,0.4-0.8c0,0,0,0,0,0c0,0,0,0,0,0
					l0,0c-0.1,0-0.2,0-0.3,0.1c-0.1,0-0.2,0-0.3,0.1c-0.1,0-0.1,0-0.2,0s-0.1,0-0.2,0c0,0-0.1,0-0.1,0c0,0,0,0-0.1,0c0,0,0,0-0.1,0
					c0,0,0,0-0.1,0c0,0,0,0,0,0c0,0,0,0,0,0c0-0.1,0-0.1,0-0.1c0,0,0-0.1,0-0.1c0,0,0,0,0.1,0c0.1,0,0.1-0.1,0.2-0.1s0.1,0,0.2,0
					c0.1,0,0.1,0,0.2,0c0.1,0,0.1,0,0.2-0.1c0.1,0,0.2-0.1,0.3-0.1c0.1,0,0.2,0,0.4-0.1c0,0,0,0,0,0c0,0,0,0,0,0c0,0,0,0,0.1,0
					c0,0,0,0,0-0.1c0.3-0.5,0.6-0.9,0.9-1.4c0.3-0.4,0.6-0.9,1-1.3c0.1,0,0.1-0.1,0.1-0.1c0-0.1,0.1-0.1,0.2-0.1c0,0,0,0,0-0.1
					c0,0,0.1,0,0.1-0.1c0,0,0.1-0.1,0.1-0.1c0,0,0.1-0.1,0.1-0.1c0,0,0.1,0,0.1,0c0.1,0,0.1,0,0.1,0.1c0,0.1,0.1,0.1,0.1,0.2
					c0,0,0.1,0.1,0.1,0.1c0,0,0,0.1,0,0.2c0,0,0,0.1,0,0.1s0,0.1,0,0.1c0,0,0,0.1,0,0.1c0,0,0,0.1,0,0.1c0,0,0,0,0,0c0,0,0,0,0,0
					c0,0,0,0.1,0,0.1c0,0,0,0.1,0,0.1c0,0,0,0.1,0,0.1c0,0,0,0.1,0,0.1c0,0,0,0.1,0,0.1c0,0,0,0.1,0,0.1c0,0.2-0.1,0.4-0.1,0.5
					c0,0.2-0.1,0.3-0.1,0.5c0,0,0,0,0,0c0,0,0,0,0,0c0,0,0,0,0,0c0,0,0,0,0,0.1c0,0,0,0,0,0c0,0,0,0,0,0c0,0,0,0,0,0c0,0,0,0,0,0
					c0,0,0,0,0,0c0,0,0,0.1,0,0.1c0,0,0,0.1,0,0.1c0,0,0,0,0,0c0,0,0,0,0,0c0.1,0,0.2,0,0.3,0c0.1,0,0.2,0,0.3,0c0,0,0,0-0.1,0
					c0,0,0,0-0.1,0l0.1,0c0,0,0,0,0,0c0,0,0,0-0.1,0c0,0,0,0,0.1,0c0,0-0.1,0-0.1,0c-0.1,0-0.1,0-0.1,0c0,0,0,0,0,0c0,0,0,0,0,0
					c0,0-0.1,0-0.1,0c0,0-0.1,0-0.1,0c0,0,0.1,0,0.1,0c0,0,0.1,0,0.1,0c0,0-0.1,0-0.1,0c0,0-0.1,0-0.1,0c0,0,0,0,0,0c0,0,0,0-0.1,0
					c0,0,0,0,0,0c0,0,0,0,0,0c0.1,0,0.2,0,0.2,0c0.1,0,0.2,0,0.2,0c0,0,0,0-0.1,0c0,0,0,0-0.1,0c0,0,0,0,0,0c0,0,0,0,0,0
					c0,0,0,0,0,0c0,0,0,0,0,0c0,0,0,0,0,0c0,0,0,0,0,0c-0.1,0-0.1,0-0.2,0c-0.1,0-0.1,0-0.2,0c0,0,0,0,0,0l-0.1,0c0,0,0,0,0,0
					c0,0,0,0,0,0c0,0,0,0,0,0c0,0,0,0,0,0c0,0,0,0,0,0c0,0,0,0,0,0c0,0,0,0,0,0c0,0,0,0,0,0l0,0v0v0c0,0,0,0,0,0c0,0,0,0,0,0v0h0v0
					c0,0,0,0,0,0l0,0c0,0,0,0,0,0c0,0,0,0,0,0c0,0,0,0,0,0c0,0,0,0,0,0c0,0,0,0,0,0c0,0,0,0,0-0.1c0,0,0,0,0,0c0,0,0,0.1,0,0.1
					c0,0,0,0.1,0,0.1c0,0,0,0.1,0,0.1c0,0,0,0.1,0,0.2c0,0.1-0.1,0.2-0.1,0.5C10.7,74.3,10.7,74.3,10.7,74.3L10.7,74.3z M10.2,73
					C10.2,73,10.2,73,10.2,73C10.1,73,10.2,72.9,10.2,73L10.2,73c0.1,0,0.1,0,0.1,0c0,0,0,0,0.1,0c0,0,0,0,0,0c0,0,0.1,0,0.1,0
					c0,0,0.1,0,0.1,0c0,0,0,0,0,0c0,0,0,0,0,0c0,0,0,0,0.1,0c0,0,0,0,0.1,0c0-0.1,0-0.3,0.1-0.4c0-0.1,0-0.3,0.1-0.4l0.1-0.3
					c0,0,0,0,0,0c0,0,0,0,0,0l0,0c0,0,0,0,0-0.1c0,0,0,0,0-0.1c0,0,0-0.1,0-0.1c0-0.1,0-0.1,0-0.1c0,0,0-0.1,0-0.1c0,0,0,0,0-0.1
					l0-0.2c0-0.1,0-0.1,0.1-0.2c0,0,0-0.1,0-0.1c0,0,0,0,0-0.1c0-0.1,0-0.1,0-0.2c0,0,0-0.1,0-0.2c-0.1,0.1-0.1,0.1-0.2,0.1
					c0,0-0.1,0.1-0.2,0.2c-0.1,0.1-0.2,0.2-0.3,0.3c-0.1,0.1-0.2,0.2-0.3,0.4c-0.1,0.1-0.1,0.1-0.1,0.2c0,0.1-0.1,0.1-0.2,0.2
					c0,0,0,0,0,0c0,0,0,0,0,0c-0.1,0.2-0.3,0.4-0.4,0.6c-0.1,0.2-0.3,0.4-0.4,0.6c0,0,0,0,0,0.1c0,0,0,0,0,0c0,0,0.1,0,0.1,0l0,0
					c0.1,0,0.2,0,0.2,0c0.1,0,0.1,0,0.2,0c0,0,0,0,0,0c0,0,0,0,0,0c0,0,0,0,0,0h0l0,0c0.1,0,0.2,0,0.2,0C10,73,10,73,10.2,73
					C10.1,73,10.1,73,10.2,73C10.1,73,10.1,73,10.2,73L10.2,73z M9.5,73.1C9.5,73,9.5,73,9.5,73.1C9.5,73,9.5,73,9.5,73.1L9.5,73.1
					C9.5,73,9.5,73,9.5,73.1L9.5,73.1L9.5,73.1z M9.5,73C9.5,73,9.5,73,9.5,73L9.5,73L9.5,73C9.5,73,9.5,73,9.5,73
					C9.5,73,9.5,73,9.5,73L9.5,73z M9.6,73.4C9.6,73.4,9.6,73.4,9.6,73.4C9.6,73.4,9.6,73.4,9.6,73.4C9.6,73.4,9.6,73.4,9.6,73.4z
					 M9.6,73C9.6,73,9.6,73,9.6,73C9.7,73,9.7,73,9.6,73C9.7,73,9.7,73,9.6,73L9.6,73z M9.9,73.3C9.9,73.3,9.9,73.3,9.9,73.3
					C9.9,73.3,9.9,73.3,9.9,73.3C9.9,73.3,9.9,73.3,9.9,73.3L9.9,73.3L9.9,73.3C9.9,73.3,9.9,73.3,9.9,73.3L9.9,73.3L9.9,73.3z
					 M9.9,73.3C9.9,73.3,9.9,73.3,9.9,73.3C9.9,73.3,9.9,73.3,9.9,73.3C9.9,73.3,9.9,73.3,9.9,73.3L9.9,73.3L9.9,73.3
					C9.9,73.3,9.9,73.3,9.9,73.3L9.9,73.3L9.9,73.3z M10,73.3C10,73.3,10,73.3,10,73.3C10,73.3,10,73.3,10,73.3z M10.2,73.1
					C10.2,73.1,10.2,73.1,10.2,73.1C10.3,73.1,10.3,73.1,10.2,73.1L10.2,73.1C10.3,73.1,10.3,73.1,10.2,73.1L10.2,73.1L10.2,73.1
					C10.2,73.1,10.2,73.1,10.2,73.1z M10.2,73.1C10.2,73.1,10.2,73.1,10.2,73.1C10.3,73.1,10.3,73.1,10.2,73.1L10.2,73.1
					C10.3,73.1,10.3,73.1,10.2,73.1L10.2,73.1L10.2,73.1C10.2,73.1,10.2,73.1,10.2,73.1z M10.3,73.3L10.3,73.3L10.3,73.3L10.3,73.3
					C10.3,73.3,10.3,73.3,10.3,73.3C10.3,73.3,10.3,73.3,10.3,73.3L10.3,73.3c-0.1,0-0.1,0-0.1,0l0,0h0
					C10.2,73.3,10.2,73.3,10.3,73.3C10.3,73.3,10.3,73.3,10.3,73.3C10.3,73.3,10.3,73.3,10.3,73.3L10.3,73.3L10.3,73.3L10.3,73.3z
					 M10.2,73.3C10.2,73.3,10.2,73.3,10.2,73.3C10.3,73.3,10.3,73.3,10.2,73.3C10.3,73.3,10.3,73.3,10.2,73.3l0.1,0l0.1,0h0h0h0h0
					C10.3,73.3,10.3,73.3,10.2,73.3C10.3,73.3,10.3,73.3,10.2,73.3L10.2,73.3C10.3,73.3,10.3,73.3,10.2,73.3L10.2,73.3L10.2,73.3z
					 M10.3,73.1L10.3,73.1L10.3,73.1L10.3,73.1l0.1,0l0,0h0h0c0,0,0,0,0,0L10.3,73.1C10.4,73.1,10.3,73.1,10.3,73.1
					C10.3,73.1,10.3,73.1,10.3,73.1L10.3,73.1L10.3,73.1C10.3,73.1,10.3,73.1,10.3,73.1C10.3,73.1,10.3,73.1,10.3,73.1L10.3,73.1z
					 M10.3,73.1L10.3,73.1L10.3,73.1L10.3,73.1l0.1,0l0,0h0h0c0,0,0,0,0,0L10.3,73.1C10.4,73.1,10.3,73.1,10.3,73.1
					C10.3,73.1,10.3,73.1,10.3,73.1L10.3,73.1L10.3,73.1C10.3,73.1,10.3,73.1,10.3,73.1C10.3,73.1,10.3,73.1,10.3,73.1L10.3,73.1z
					 M10.3,73.1L10.3,73.1L10.3,73.1L10.3,73.1L10.3,73.1L10.3,73.1L10.3,73.1L10.3,73.1L10.3,73.1L10.3,73.1L10.3,73.1L10.3,73.1
					L10.3,73.1z M10.3,73.1L10.3,73.1L10.3,73.1L10.3,73.1L10.3,73.1L10.3,73.1L10.3,73.1L10.3,73.1L10.3,73.1L10.3,73.1L10.3,73.1
					L10.3,73.1L10.3,73.1z M10.4,73.2C10.4,73.2,10.4,73.2,10.4,73.2L10.4,73.2L10.4,73.2C10.4,73.1,10.4,73.1,10.4,73.2L10.4,73.2
					L10.4,73.2z M10.4,73.1L10.4,73.1L10.4,73.1C10.4,73.2,10.4,73.2,10.4,73.1L10.4,73.1L10.4,73.1C10.4,73.1,10.4,73.1,10.4,73.1z
					 M10.4,75.1C10.4,75.2,10.4,75.2,10.4,75.1c0,0.1,0,0.1,0,0.1C10.4,75.2,10.4,75.2,10.4,75.1C10.4,75.2,10.4,75.1,10.4,75.1z
					 M10.4,74.9L10.4,74.9L10.4,74.9L10.4,74.9C10.4,75,10.4,75,10.4,74.9L10.4,74.9L10.4,74.9L10.4,74.9L10.4,74.9
					C10.4,74.9,10.4,74.9,10.4,74.9L10.4,74.9z M10.4,74.9L10.4,74.9L10.4,74.9L10.4,74.9C10.4,75,10.4,75,10.4,74.9L10.4,74.9
					L10.4,74.9L10.4,74.9L10.4,74.9C10.4,74.9,10.4,74.9,10.4,74.9L10.4,74.9z M10.5,73.1L10.5,73.1L10.5,73.1L10.5,73.1L10.5,73.1
					C10.5,73.1,10.5,73.1,10.5,73.1C10.5,73.1,10.5,73.1,10.5,73.1L10.5,73.1L10.5,73.1L10.5,73.1L10.5,73.1L10.5,73.1
					C10.5,73.1,10.5,73.1,10.5,73.1L10.5,73.1L10.5,73.1L10.5,73.1L10.5,73.1L10.5,73.1C10.5,73.1,10.5,73.1,10.5,73.1L10.5,73.1
					L10.5,73.1L10.5,73.1z M10.5,73.1L10.5,73.1L10.5,73.1L10.5,73.1L10.5,73.1C10.5,73.1,10.5,73.1,10.5,73.1
					C10.5,73.1,10.5,73.1,10.5,73.1L10.5,73.1L10.5,73.1L10.5,73.1L10.5,73.1L10.5,73.1C10.5,73.1,10.5,73.1,10.5,73.1L10.5,73.1
					L10.5,73.1L10.5,73.1L10.5,73.1L10.5,73.1C10.5,73.1,10.5,73.1,10.5,73.1L10.5,73.1L10.5,73.1L10.5,73.1z M10.5,75.3
					C10.4,75.3,10.4,75.3,10.5,75.3C10.5,75.3,10.5,75.3,10.5,75.3C10.5,75.3,10.5,75.3,10.5,75.3z M10.5,75.1
					C10.5,75.2,10.5,75.2,10.5,75.1c0,0.1,0,0.1,0,0.1C10.5,75.2,10.5,75.2,10.5,75.1C10.5,75.2,10.5,75.1,10.5,75.1z M10.5,73.3
					C10.5,73.3,10.5,73.3,10.5,73.3C10.5,73.2,10.5,73.2,10.5,73.3C10.5,73.2,10.5,73.2,10.5,73.3C10.5,73.2,10.5,73.2,10.5,73.3z
					 M10.5,75.8C10.5,75.8,10.5,75.8,10.5,75.8C10.5,75.8,10.5,75.8,10.5,75.8C10.5,75.8,10.5,75.8,10.5,75.8z M10.5,75
					C10.5,75,10.5,75.1,10.5,75c0,0.1,0,0.1,0,0.1c0,0,0,0,0,0C10.5,75.1,10.5,75.1,10.5,75C10.5,75.1,10.5,75.1,10.5,75
					C10.5,75,10.5,75,10.5,75z M10.6,74.7L10.6,74.7C10.6,74.7,10.6,74.7,10.6,74.7L10.6,74.7L10.6,74.7L10.6,74.7L10.6,74.7
					L10.6,74.7z M10.6,74.7C10.6,74.7,10.6,74.7,10.6,74.7L10.6,74.7L10.6,74.7L10.6,74.7L10.6,74.7L10.6,74.7L10.6,74.7z
					 M10.6,74.7C10.6,74.8,10.6,74.8,10.6,74.7c0,0.1,0,0.1,0,0.2C10.6,74.9,10.6,74.9,10.6,74.7C10.6,74.8,10.6,74.8,10.6,74.7z
					 M10.6,74.5C10.6,74.6,10.6,74.6,10.6,74.5c0,0.1,0,0.1,0,0.1C10.6,74.6,10.6,74.6,10.6,74.5C10.6,74.6,10.6,74.6,10.6,74.5z
					 M10.6,75.9C10.6,75.9,10.6,75.9,10.6,75.9C10.6,75.9,10.6,75.9,10.6,75.9C10.6,75.9,10.6,75.9,10.6,75.9
					C10.6,75.9,10.6,75.9,10.6,75.9C10.6,75.9,10.6,75.9,10.6,75.9z M10.6,76L10.6,76C10.6,76,10.6,76,10.6,76z M10.6,75.8
					L10.6,75.8L10.6,75.8z M10.6,76L10.6,76L10.6,76L10.6,76z M10.9,73.1C10.9,73.1,10.9,73.1,10.9,73.1L10.9,73.1
					C10.9,73.1,10.9,73.1,10.9,73.1L10.9,73.1L10.9,73.1L10.9,73.1C11,73,11,73,10.9,73.1C11,73,11,73,10.9,73.1L10.9,73.1
					L10.9,73.1L10.9,73.1L10.9,73.1L10.9,73.1L10.9,73.1z M10.9,73.1C10.9,73.1,10.9,73.1,10.9,73.1L10.9,73.1
					C10.9,73.1,10.9,73.1,10.9,73.1L10.9,73.1L10.9,73.1L10.9,73.1C11,73,11,73,10.9,73.1C11,73,11,73,10.9,73.1L10.9,73.1
					L10.9,73.1L10.9,73.1L10.9,73.1L10.9,73.1L10.9,73.1z M10.9,72.8L10.9,72.8L10.9,72.8L10.9,72.8L10.9,72.8L10.9,72.8L10.9,72.8
					L10.9,72.8L10.9,72.8z M10.9,72.8L10.9,72.8L10.9,72.8L10.9,72.8L10.9,72.8L10.9,72.8L10.9,72.8L10.9,72.8L10.9,72.8z
					 M10.9,73.1C10.9,73.2,10.9,73.2,10.9,73.1L10.9,73.1C10.9,73.2,10.9,73.2,10.9,73.1C10.9,73.2,10.9,73.2,10.9,73.1L10.9,73.1
					L10.9,73.1L10.9,73.1L10.9,73.1C10.9,73.2,10.9,73.2,10.9,73.1L10.9,73.1L10.9,73.1z M10.9,73.2C10.9,73.2,10.9,73.2,10.9,73.2
					C10.9,73.2,10.9,73.2,10.9,73.2L10.9,73.2L10.9,73.2L10.9,73.2L10.9,73.2C10.9,73.2,10.9,73.2,10.9,73.2L10.9,73.2L10.9,73.2
					L10.9,73.2C10.9,73.2,10.9,73.2,10.9,73.2L10.9,73.2z M10.9,73.4C10.9,73.5,10.9,73.5,10.9,73.4C10.9,73.5,10.9,73.4,10.9,73.4
					C10.9,73.4,10.9,73.4,10.9,73.4z M11,73.3C10.9,73.4,10.9,73.4,11,73.3C10.9,73.4,10.9,73.4,11,73.3L11,73.3z M10.9,73.3
					L10.9,73.3L10.9,73.3L10.9,73.3z M11.1,73.1C11.1,73.2,11,73.2,11.1,73.1C11,73.1,11.1,73.1,11.1,73.1z M11.1,73.2
					C11.1,73.2,11.1,73.2,11.1,73.2C11.1,73.2,11,73.2,11.1,73.2C11,73.2,11.1,73.2,11.1,73.2z M11.1,70.2
					C11.1,70.2,11.1,70.2,11.1,70.2C11.1,70.2,11.1,70.2,11.1,70.2L11.1,70.2L11.1,70.2L11.1,70.2L11.1,70.2z M11.1,70.2
					C11.1,70.2,11.1,70.2,11.1,70.2C11.1,70.2,11.1,70.2,11.1,70.2L11.1,70.2L11.1,70.2L11.1,70.2L11.1,70.2z M11.1,73.1
					C11.2,73.1,11.2,73.1,11.1,73.1c0.1,0,0.1,0,0.1,0C11.2,73.2,11.2,73.2,11.1,73.1C11.2,73.2,11.1,73.2,11.1,73.1
					C11.1,73.2,11.1,73.2,11.1,73.1C11.1,73.1,11.1,73.1,11.1,73.1z M11.3,73C11.3,73,11.3,73,11.3,73C11.3,73,11.3,73,11.3,73
					C11.3,73,11.3,73,11.3,73C11.3,73,11.3,73,11.3,73z M11.3,73.1C11.3,73.1,11.3,73.1,11.3,73.1C11.3,73.1,11.3,73.1,11.3,73.1
					C11.3,73.1,11.3,73.1,11.3,73.1C11.3,73.1,11.3,73.1,11.3,73.1z"/>
				<path class="st0" d="M13.3,74.5C13.3,74.6,13.3,74.6,13.3,74.5C13.3,74.5,13.3,74.5,13.3,74.5C13.3,74.6,13.3,74.6,13.3,74.5
					c-0.1,0-0.1,0-0.1,0.1c0,0,0,0-0.1,0c0,0,0,0,0,0c0,0,0,0,0,0c0,0,0,0,0,0c0,0,0,0-0.1,0c0,0-0.1,0-0.1,0c0,0-0.1,0-0.1,0
					c0,0-0.1,0-0.1,0c0,0-0.1,0-0.1,0c0,0-0.1,0-0.1,0c-0.1,0-0.1,0-0.2,0c-0.1,0-0.2,0-0.2,0c0,0,0,0,0,0c0,0,0,0,0,0c0,0,0,0,0,0
					s0,0,0,0c0,0,0,0,0,0c0,0,0,0,0,0c0,0,0,0,0,0c0,0,0,0-0.1,0c-0.1-0.1-0.2-0.2-0.2-0.3c-0.1-0.1-0.1-0.2-0.1-0.4c0,0,0,0,0,0
					c0,0,0,0,0,0v-0.3c0,0,0,0,0,0c0,0,0,0,0,0l0-0.2c0,0,0,0,0,0c0,0,0,0,0,0l0,0c0,0,0,0,0,0c0,0,0,0,0,0c0,0,0,0,0,0l0-0.1
					c0,0,0,0,0,0c0,0,0,0,0,0c0,0,0,0,0,0c0,0,0,0,0-0.1c0,0,0,0,0-0.1h0c0,0,0,0,0,0c0,0,0,0,0,0c0-0.1,0-0.1,0.1-0.2
					c0-0.1,0.1-0.1,0.1-0.2c0,0,0,0,0-0.1c0,0,0,0,0,0c0,0,0,0,0,0v0v0c0-0.1,0.1-0.1,0.1-0.2c0.1-0.1,0.1-0.2,0.2-0.3c0,0,0,0,0,0
					c0,0,0,0,0,0c0,0,0-0.1,0.1-0.1c0-0.1,0.1-0.1,0.1-0.1c0,0,0-0.1,0.1-0.1c0,0,0-0.1,0.1-0.1c0.1-0.1,0.2-0.2,0.2-0.4
					s0.2-0.2,0.3-0.3c0,0,0.1,0,0.1-0.1c0,0,0.1,0,0.1,0c0.1-0.1,0.2-0.1,0.3,0c0,0,0.1,0,0.1,0c0,0,0.1,0,0.1,0.1c0,0,0,0,0,0
					c0,0,0,0,0,0c0,0,0,0,0,0c0,0,0,0,0,0c0,0,0,0,0,0c0,0,0,0,0,0c0,0,0,0.1-0.1,0.1l0,0.1l-0.1,0.1c0,0,0,0.1,0,0.1
					c0,0,0,0.1-0.1,0.1c0,0.1-0.1,0.2-0.2,0.3c-0.1,0.1-0.1,0.2-0.2,0.3c0,0.1-0.1,0.1-0.1,0.2c0,0.1-0.1,0.1-0.1,0.2c0,0,0,0,0,0
					c0,0,0,0,0,0.1c-0.1,0.1-0.1,0.1-0.1,0.2c0,0.1-0.1,0.1-0.1,0.2c0,0,0,0.1-0.1,0.1c0,0,0,0-0.1,0.1c0,0,0,0,0,0c0,0,0,0,0,0
					c0,0-0.1,0-0.1,0.1c0,0,0,0.1-0.1,0.1c0,0,0,0,0,0c0,0,0,0,0,0c0,0-0.1,0.1-0.1,0.1c0,0.1-0.1,0.1-0.2,0.2c0,0,0,0,0,0v0.1
					c0,0.1,0,0.2,0,0.3c0,0.1,0,0.3,0,0.4c0,0.1,0,0.1,0,0.1c0,0,0,0,0,0c0,0,0,0,0,0c0,0,0,0,0,0.1c0,0,0,0,0,0h0c0,0,0,0,0,0
					c0.1,0,0.2,0,0.2,0c0,0,0.1,0,0.1,0c0.1,0,0.2-0.1,0.2-0.1c0.1,0,0.1-0.1,0.2-0.1c0,0,0,0,0,0h0v0c0,0,0,0,0,0c0,0,0,0,0,0
					c0,0,0,0,0,0h0l0,0c0.1,0,0.2-0.1,0.2-0.2c0.1-0.1,0.1-0.1,0.2-0.2c0,0,0,0,0,0c0,0,0,0,0,0c0,0,0,0,0,0c0,0,0,0,0,0
					c0,0,0.1,0,0.1-0.1c0,0,0.1,0,0-0.1c0,0,0,0,0,0c0,0,0,0,0,0c0,0,0,0,0-0.1c0,0,0,0,0,0c0,0,0,0,0,0c0,0,0,0,0.1,0c0,0,0,0,0,0
					c0,0,0,0,0,0c0,0,0,0,0,0c0,0,0,0,0,0c0,0,0.1-0.1,0.1-0.1c0,0,0.1,0,0.1,0c0,0,0,0,0,0c0,0,0,0,0,0c0,0,0,0,0,0c0,0,0,0,0,0
					c0,0,0,0,0.1,0c0,0,0,0.1,0,0.1c0,0,0,0,0,0s0,0,0,0c0,0,0,0,0,0c0,0,0,0.1,0,0.1c0,0,0,0,0,0c0,0,0,0,0,0c0,0,0,0,0,0
					c0,0,0,0,0,0v0c0,0,0,0,0,0c0,0,0,0,0,0c0,0,0,0,0,0c0,0,0,0,0,0c0,0,0,0,0,0c0,0,0,0,0,0c0,0,0,0,0,0c0,0,0,0,0,0v0v0
					c0,0,0,0,0,0c0,0,0,0,0,0c0,0,0,0,0,0c0,0,0,0,0,0c0,0,0,0,0,0c0,0,0,0,0,0c0,0,0,0,0,0.1c0,0,0,0,0,0.1c0,0,0,0,0,0
					c0,0,0,0,0,0c0,0,0,0-0.1,0.1l0,0c0,0,0,0,0,0c0,0,0,0,0,0c0,0,0,0,0,0c0,0,0,0.1-0.1,0.1l0,0v0c0,0,0,0,0,0c0,0,0,0,0,0
					c0,0,0,0,0,0c0,0,0,0,0,0c0,0,0,0,0,0c0,0,0,0,0,0c0,0,0,0,0,0c0,0-0.1,0-0.1,0.1C13.3,74.4,13.3,74.5,13.3,74.5
					C13.3,74.5,13.3,74.5,13.3,74.5C13.3,74.5,13.3,74.5,13.3,74.5z M11.7,73.4C11.7,73.4,11.6,73.4,11.7,73.4
					C11.6,73.4,11.6,73.4,11.7,73.4C11.6,73.4,11.6,73.4,11.7,73.4z M12.1,73.1c0.1-0.1,0.2-0.2,0.3-0.4c0.1-0.1,0.2-0.2,0.3-0.4
					c0,0,0,0,0,0c0,0,0.1-0.1,0.1-0.1c0,0,0-0.1,0.1-0.1c0.1-0.1,0.2-0.2,0.2-0.3c0.1-0.1,0.1-0.2,0.2-0.3c0-0.1,0.1-0.1,0.1-0.2
					c0-0.1,0.1-0.1,0.1-0.2c0.1,0,0.1-0.1,0.1-0.2c-0.1,0-0.1,0-0.1,0.1c0,0-0.1,0.1-0.1,0.1c0,0,0,0.1-0.1,0.1c0,0-0.1,0.1-0.1,0.1
					c-0.1,0.1-0.2,0.2-0.3,0.4c-0.1,0.1-0.1,0.3-0.2,0.4c0,0,0,0,0,0c0,0,0,0.1-0.1,0.1c0,0,0,0.1,0,0.1c0,0-0.1,0.1-0.1,0.1
					c0,0,0,0.1-0.1,0.1c0,0,0,0,0,0.1c0,0,0,0,0,0.1v0c0,0,0,0,0,0.1c0,0,0,0,0,0.1c0,0,0,0.1,0,0.1C12.1,73,12.1,73.1,12.1,73.1
					L12.1,73.1z M13.1,74.5C13.1,74.5,13.1,74.5,13.1,74.5C13.1,74.5,13.1,74.5,13.1,74.5C13.1,74.5,13.2,74.5,13.1,74.5
					C13.2,74.5,13.2,74.5,13.1,74.5c0.1-0.1,0.1-0.1,0.1-0.1c0,0,0,0,0,0c0,0,0,0,0,0c0,0,0,0,0,0c0,0-0.1,0-0.1,0
					C13.2,74.4,13.2,74.4,13.1,74.5L13.1,74.5L13.1,74.5C13.1,74.5,13.1,74.5,13.1,74.5C13.1,74.5,13.1,74.5,13.1,74.5
					C13.1,74.5,13.1,74.5,13.1,74.5C13.1,74.5,13.1,74.5,13.1,74.5C13.1,74.5,13.1,74.5,13.1,74.5z M13.1,74.5L13.1,74.5L13.1,74.5
					L13.1,74.5z M13.4,74.3C13.3,74.3,13.3,74.3,13.4,74.3C13.3,74.3,13.3,74.3,13.4,74.3C13.3,74.3,13.3,74.3,13.4,74.3z
					 M13.4,74.3C13.4,74.3,13.4,74.3,13.4,74.3L13.4,74.3C13.4,74.3,13.4,74.3,13.4,74.3C13.4,74.3,13.4,74.3,13.4,74.3
					C13.4,74.3,13.4,74.3,13.4,74.3C13.4,74.3,13.4,74.3,13.4,74.3C13.4,74.3,13.4,74.3,13.4,74.3z M13.4,74.3
					C13.4,74.3,13.4,74.3,13.4,74.3C13.4,74.3,13.4,74.3,13.4,74.3C13.4,74.3,13.4,74.3,13.4,74.3C13.4,74.3,13.4,74.3,13.4,74.3z
					 M13.5,74.3C13.5,74.3,13.5,74.3,13.5,74.3C13.5,74.3,13.5,74.3,13.5,74.3C13.5,74.3,13.5,74.3,13.5,74.3
					C13.5,74.3,13.5,74.3,13.5,74.3z M13.6,74.2C13.6,74.2,13.6,74.2,13.6,74.2C13.6,74.2,13.6,74.2,13.6,74.2
					C13.6,74.2,13.6,74.2,13.6,74.2C13.6,74.2,13.6,74.2,13.6,74.2c-0.1,0-0.1,0.1-0.1,0.1c0,0,0,0,0,0
					C13.5,74.3,13.6,74.2,13.6,74.2C13.6,74.2,13.6,74.2,13.6,74.2z M13.7,74.2C13.7,74.2,13.7,74.2,13.7,74.2
					C13.7,74.2,13.7,74.2,13.7,74.2C13.7,74.2,13.7,74.2,13.7,74.2z M13.7,73.8C13.7,73.8,13.7,73.8,13.7,73.8L13.7,73.8z M13.8,74
					C13.8,74,13.8,74,13.8,74C13.7,74,13.7,74,13.8,74C13.8,74,13.8,74,13.8,74C13.8,74,13.8,74,13.8,74z M13.9,73.9
					C13.9,73.9,13.9,73.9,13.9,73.9C13.9,73.9,13.9,73.9,13.9,73.9C14,73.9,14,73.9,13.9,73.9z M14,73.9L14,73.9L14,73.9L14,73.9
					L14,73.9z M14,74C14,74,14,74,14,74C14,74,14,74,14,74L14,74z"/>
				<path class="st0" d="M13.7,74.1C13.7,74.1,13.7,74.1,13.7,74.1C13.7,74.1,13.7,74.1,13.7,74.1c0-0.1,0-0.1,0-0.1c0,0,0,0,0-0.1
					c0,0,0,0,0,0s0,0,0,0c0,0,0,0,0-0.1c0,0,0,0,0-0.1c0-0.1,0.1-0.2,0.1-0.3c0.1-0.1,0.1-0.2,0.2-0.3c0,0,0-0.1,0.1-0.1
					c0,0,0-0.1,0-0.1h0c0,0,0-0.1,0.1-0.1c0.1,0,0.1,0,0.2,0c0,0,0,0,0,0c0,0,0,0,0,0.1c0,0,0,0,0,0c0,0,0,0,0,0
					c0,0.1-0.1,0.1-0.1,0.2c0,0.1,0,0.1-0.1,0.2c0,0,0,0,0,0c0,0,0,0,0,0c0,0,0,0,0,0.1s0,0.1,0,0.1c0,0.1-0.1,0.1-0.1,0.2
					c0,0.1-0.1,0.1-0.1,0.2c0,0.1,0,0.1,0,0.2c0,0.1,0,0.1,0,0.2c0.1,0,0.2-0.1,0.3-0.1c0.1,0,0.2-0.1,0.3-0.1l0.2-0.1l0.1,0
					l0.2-0.2l0.2-0.2c0,0,0,0,0.1,0c0,0,0.1,0,0.1,0c0,0,0.1-0.1,0.1-0.1s0.1,0,0.1-0.1c0,0,0,0,0,0c0,0,0,0,0,0l0.1,0
					c0,0,0,0,0.1-0.1c0,0,0.1,0,0.1-0.1c0,0,0,0,0,0c0,0,0,0,0,0c0,0,0,0,0,0c0,0,0,0,0,0c0,0,0,0,0,0c0,0,0,0,0,0s0,0,0,0
					c0,0,0,0,0,0c0,0,0,0,0,0c0,0,0,0,0,0c0,0,0,0,0,0c0,0,0,0,0,0c0,0,0,0,0,0c0,0,0,0,0,0s0,0,0,0c0,0,0,0,0,0c0,0,0,0,0,0
					c0,0,0,0,0,0c0,0,0,0,0,0c0,0,0,0,0,0c0,0,0,0,0,0c0,0,0,0,0,0.1c0,0,0,0,0,0c0,0,0,0,0,0c0,0,0,0,0,0c0,0,0,0,0,0.1
					c0,0,0,0,0,0c0,0,0,0,0,0c0,0,0,0-0.1,0c0,0-0.1,0-0.1,0.1L15.6,74c0,0,0,0-0.1,0.1c0,0-0.1,0-0.1,0.1l0,0c0,0,0,0,0,0
					c0,0,0,0,0,0c0,0,0,0,0,0c0,0,0,0,0,0h0c0,0,0,0,0,0.1c0,0,0,0.1-0.1,0.1v0c0,0,0,0,0,0c0,0,0,0,0,0h0c0,0,0,0,0,0c0,0,0,0,0,0
					c0,0,0,0,0,0c0,0,0,0,0,0c0,0,0,0,0,0c0,0,0,0,0,0c0,0,0,0,0,0c0,0,0,0,0,0l0,0c0,0,0,0,0,0c0,0,0,0-0.1,0c0,0,0,0,0,0
					c0,0,0,0,0,0c0,0,0,0,0,0c0,0,0,0,0,0c0,0,0,0-0.1,0c0,0,0,0.1-0.1,0.1c0,0-0.1,0-0.1,0c-0.1,0-0.1,0.1-0.2,0.1
					c-0.1,0-0.1,0-0.2,0c-0.1,0-0.1,0-0.2,0c0,0-0.1,0-0.1,0c0,0-0.1,0-0.1,0c0,0-0.1-0.1-0.1-0.1c0,0,0-0.1-0.1-0.1c0,0,0,0,0,0
					c0,0,0,0,0,0c0,0,0,0,0,0c0,0,0,0,0,0c0,0,0,0,0,0c0,0,0,0,0-0.1c0,0,0,0,0-0.1c0,0,0,0,0,0.1c0,0,0,0,0,0c0,0,0,0,0,0
					c0,0,0-0.1,0-0.1c0,0,0,0,0,0C13.7,74.3,13.7,74.2,13.7,74.1C13.7,74.2,13.7,74.2,13.7,74.1C13.7,74.2,13.7,74.2,13.7,74.1
					C13.7,74.2,13.7,74.2,13.7,74.1C13.7,74.2,13.7,74.1,13.7,74.1C13.7,74.1,13.7,74.1,13.7,74.1C13.7,74.1,13.7,74.1,13.7,74.1
					C13.7,74.1,13.7,74.1,13.7,74.1z M14.9,72.5C14.9,72.5,14.9,72.5,14.9,72.5C14.9,72.5,14.9,72.5,14.9,72.5c0,0-0.1,0.1-0.1,0.1
					c0,0,0,0-0.1,0c0,0,0,0-0.1,0.1c0,0,0,0,0,0c0,0,0,0,0,0c0,0,0,0,0,0c0,0-0.1,0-0.1,0c0,0-0.1,0-0.1,0c0,0,0-0.1,0-0.1
					c0,0,0-0.1,0.1,0c0,0,0,0,0,0c0,0,0,0,0,0c0.1,0,0.1,0,0.2,0C14.8,72.4,14.8,72.5,14.9,72.5C14.9,72.5,14.9,72.5,14.9,72.5z
					 M15.1,74.4C15.1,74.4,15.1,74.3,15.1,74.4C15.2,74.3,15.2,74.3,15.1,74.4L15.1,74.4z M15.9,73.7C15.9,73.7,15.9,73.7,15.9,73.7
					C15.8,73.7,15.9,73.7,15.9,73.7C15.9,73.7,15.9,73.7,15.9,73.7C15.9,73.7,15.9,73.7,15.9,73.7z M16,73.6
					C16,73.6,16,73.6,16,73.6L16,73.6z"/>
				<path class="st0" d="M18.9,74.1C18.9,74.1,18.9,74.1,18.9,74.1C18.9,74.1,18.9,74.1,18.9,74.1c-0.1,0.1-0.1,0.1-0.2,0.1
					c0,0,0,0-0.1,0.1c0,0,0,0,0,0s0,0,0,0c0,0-0.1,0-0.1,0.1s0,0.1,0,0.1c0,0,0,0-0.1,0.1c0,0-0.1,0-0.1,0c0,0,0,0,0,0s0,0,0,0
					c0,0,0,0,0,0c0,0,0,0,0,0v0c0,0,0,0,0,0c0,0,0,0,0,0c0,0,0,0,0,0c0,0,0,0,0,0c0,0,0,0,0,0c0,0,0,0,0,0.1c0,0,0,0-0.1,0
					c0,0,0.1-0.1,0.1-0.1c0,0-0.1,0-0.1,0.1c0,0,0,0,0,0c0,0,0,0,0,0c0,0,0,0,0,0h0c0,0,0,0,0,0c0,0,0,0,0,0c0,0,0,0,0,0
					c0,0,0,0,0,0c0,0,0,0,0,0c0,0,0,0,0,0c0,0,0,0,0,0c0,0,0,0,0,0c0,0,0,0,0,0c0,0,0,0-0.1,0c0,0,0,0,0,0c0,0,0,0,0,0c0,0,0,0,0,0
					c0,0,0,0,0,0c0,0,0,0,0,0c0,0,0,0,0,0c0,0-0.1,0-0.1,0c-0.1,0-0.1,0-0.2-0.1c-0.1,0-0.1,0-0.2,0c-0.1,0-0.1-0.1-0.2-0.1
					c0,0,0,0,0,0c0,0,0,0,0,0s0,0,0,0c0,0,0,0,0,0c0,0,0,0,0,0c0,0-0.1,0-0.1-0.1c0,0,0-0.1-0.1-0.1c0,0,0,0,0-0.1c0,0,0,0,0,0
					c0-0.1,0-0.3,0-0.4c0-0.1,0-0.3,0-0.4c0,0-0.1,0-0.1,0.1c0,0-0.1,0.1-0.1,0.1c-0.2,0.2-0.3,0.3-0.5,0.5
					c-0.2,0.2-0.3,0.4-0.5,0.6c0,0,0,0-0.1,0c0,0,0,0-0.1,0c0,0-0.1,0-0.1,0c0,0-0.1,0-0.1,0c0,0,0,0,0,0c0,0,0,0,0,0
					c-0.1,0-0.1,0-0.1,0c0,0,0,0,0-0.1c0,0,0,0,0-0.1c0,0,0,0,0-0.1c0,0,0,0,0,0c0,0,0,0,0,0c0.1-0.3,0.1-0.5,0.2-0.7
					c0.1-0.2,0.2-0.4,0.3-0.7c0,0,0.1,0,0.1,0c0,0,0.1,0,0.1,0s0.1,0,0.1,0c0,0,0,0,0,0c0,0,0,0,0,0c0,0.1,0,0.2-0.1,0.3
					c0,0.1-0.1,0.2-0.1,0.3c0,0.1-0.1,0.1-0.1,0.2C16,73.9,16,74,16,74c0,0,0,0,0,0c0,0,0,0,0,0c0.1-0.1,0.1-0.1,0.2-0.2
					c0.1-0.1,0.1-0.2,0.2-0.2c0.1,0,0.1-0.1,0.2-0.2c0.1-0.1,0.1-0.1,0.2-0.2c0.1-0.1,0.1-0.1,0.2-0.1c0.1,0,0.1-0.1,0.2-0.1
					c0,0,0.1,0,0.1,0s0.1,0,0.1,0c0,0,0.1,0,0.1,0c0,0,0.1,0,0.1,0v0c0,0,0,0,0,0c0,0,0,0,0,0.1c0,0,0,0.1,0,0.2c0,0.1,0,0.1,0,0.2
					c0,0,0,0,0,0c0,0,0,0.1,0,0.1c0,0.2,0,0.4,0,0.5c0,0.1,0.1,0.2,0.1,0.2c0.1,0,0.1,0,0.2,0c0,0,0.1,0,0.1,0c0,0,0.1,0,0.1,0
					c0,0,0.1,0,0.1-0.1c0,0,0,0,0,0c0,0,0,0,0,0c0,0,0.1,0,0.1-0.1c0,0,0.1,0,0.1,0c0,0,0,0,0,0c0,0,0,0,0,0c0,0,0,0,0,0
					c0,0,0,0,0,0c0,0,0,0,0,0c0,0,0,0,0,0c0,0,0,0,0,0c0,0,0,0,0,0c0,0,0,0,0,0c0,0,0,0,0,0c0,0,0,0,0,0c0,0,0.1,0,0.1-0.1
					s0,0,0-0.1c0,0,0.1,0,0.1-0.1c0,0,0.1,0,0.1-0.1c0,0,0,0,0.1,0c0,0,0,0,0.1,0c0,0,0,0,0,0c0,0,0,0,0.1,0c0,0,0,0,0,0
					c0,0,0,0,0,0c0,0,0,0,0,0c0,0,0.1,0,0.1,0c0,0,0.1,0,0.1-0.1c0,0,0,0,0,0c0,0,0,0,0,0s0,0,0,0c0,0,0,0,0,0c0,0,0,0,0,0
					c0,0,0,0,0,0c0,0,0,0,0,0c0,0,0,0,0,0c0,0,0,0,0,0c0,0,0,0,0,0c0,0,0,0,0,0c0,0,0,0,0.1,0c0,0,0,0.1,0,0.1c0,0,0,0,0,0
					c0,0,0,0,0,0c0,0,0,0,0,0.1c0,0,0,0.1-0.1,0.1L18.9,74.1z M18.2,74.5C18.2,74.5,18.2,74.5,18.2,74.5
					C18.2,74.6,18.2,74.6,18.2,74.5L18.2,74.5z M18.3,74.5L18.3,74.5L18.3,74.5C18.3,74.5,18.3,74.5,18.3,74.5
					C18.3,74.5,18.3,74.5,18.3,74.5z M18.3,74.5C18.3,74.5,18.3,74.5,18.3,74.5L18.3,74.5z M18.5,74.4L18.5,74.4
					C18.5,74.4,18.5,74.4,18.5,74.4z M18.8,74C18.9,74,18.9,74,18.8,74L18.8,74C18.9,74,18.9,74,18.8,74z M19.1,73.8
					C19.1,73.9,19.1,73.9,19.1,73.8C19.1,73.9,19.1,73.9,19.1,73.8C19.1,73.9,19.1,73.9,19.1,73.8z"/>
				<path class="st0" d="M21.7,73.8C21.7,73.8,21.7,73.9,21.7,73.8c-0.1,0.1-0.1,0.1-0.2,0.2c0,0,0,0-0.1,0.1c0,0-0.1,0-0.1,0.1l0,0
					l-0.1,0.1l-0.1,0l-0.1,0.1c-0.1,0.1-0.2,0.1-0.2,0.2c-0.1,0-0.2,0.1-0.3,0.1c0,0,0,0,0,0c0,0,0,0,0,0c0,0,0,0-0.1,0
					c0,0,0,0-0.1,0c0,0,0,0-0.1,0c0,0,0,0,0,0c0,0,0,0-0.1,0c0,0,0,0-0.1,0c0,0,0,0,0,0c0,0,0,0,0,0c0,0,0,0,0,0c0,0,0,0-0.1,0
					c0,0,0,0,0,0c0,0,0,0,0,0c0,0,0,0-0.1,0c0,0,0,0-0.1,0c0,0,0,0,0,0c0,0,0,0,0,0l0,0c-0.1,0-0.1,0-0.2,0c0,0,0,0,0,0c0,0,0,0,0,0
					c-0.1,0-0.1,0-0.1,0c0,0-0.1,0-0.1-0.1c-0.1,0-0.1-0.1-0.2-0.1s-0.1-0.1-0.1-0.1c0,0,0-0.1,0-0.1c0,0,0-0.1,0-0.1
					c0,0,0-0.1,0-0.1c0,0,0-0.1,0-0.1c0-0.1,0-0.1,0-0.2c0-0.1,0.1-0.2,0.1-0.2l0.2-0.2l0.1-0.1c0,0,0.1-0.1,0.1-0.1s0.1,0,0.1-0.1
					c0,0,0.1,0,0.1-0.1c0,0,0.1,0,0.1-0.1c0,0,0.1-0.1,0.1-0.1c0,0,0.1,0,0.1-0.1c0,0,0.1,0,0.1,0c0,0,0,0,0.1,0c0,0,0,0,0.1,0
					c0,0,0,0,0,0c0,0,0,0,0,0c0,0,0.1,0.1,0.1,0.1c0,0,0.1,0.1,0.1,0.1c0,0,0.1,0,0.1,0.1c0,0,0,0,0,0.1c0,0,0,0.1,0,0.1
					c0,0,0,0.1,0,0.1c0,0,0,0,0,0c0,0,0,0,0,0c0,0,0,0,0,0.1c0,0,0,0-0.1,0.1c0,0,0,0,0,0s0,0,0,0.1c0,0,0,0-0.1,0.1
					c0,0-0.1,0.1-0.1,0.1c0,0-0.1,0.1-0.1,0.1c0,0-0.1,0-0.1,0.1c0,0,0,0,0,0c0,0-0.1,0.1-0.1,0.1c-0.1,0-0.1,0.1-0.1,0.1
					c-0.1,0-0.1,0-0.2,0.1c-0.1,0-0.1,0.1-0.2,0c0,0,0,0,0,0c0,0,0,0,0,0c0,0,0,0,0,0.1c0,0,0,0,0,0c0,0,0.1,0.1,0.1,0.1
					c0.1,0,0.1,0.1,0.2,0.1c0.2,0.1,0.3,0.1,0.5,0c0.1,0,0.1,0,0.1,0c0,0,0.1,0,0.2-0.1c0.1,0,0.1-0.1,0.2-0.1l0.1,0c0,0,0,0,0,0
					c0,0,0,0,0,0c0,0,0,0,0,0c0,0,0,0,0,0l0.2-0.1c0.1,0,0.1-0.1,0.1-0.1c0,0,0.1-0.1,0.2-0.1c0,0,0,0,0,0c0,0,0,0,0.1-0.1
					c0,0,0.1,0,0.1-0.1c0,0,0,0,0.1,0l0.1-0.1c0.1,0,0.1-0.1,0.1-0.1c0,0,0.1,0,0.1-0.1c0,0,0,0,0,0.1c0,0,0,0,0,0
					c0,0,0,0.1-0.1,0.1C21.8,73.7,21.8,73.7,21.7,73.8C21.8,73.8,21.8,73.8,21.7,73.8C21.8,73.8,21.8,73.8,21.7,73.8z M20.2,73
					C20.2,73,20.2,73,20.2,73c-0.1,0.1-0.1,0.1-0.1,0.1c0,0,0,0,0,0c0,0,0,0,0,0c0,0,0,0,0,0l-0.1,0c0,0,0,0-0.1,0.1c0,0,0,0-0.1,0
					c0,0-0.1,0.1-0.1,0.1c0,0-0.1,0.1-0.1,0.1c-0.1,0-0.1,0.1-0.1,0.1c-0.1,0.1-0.1,0.1-0.1,0.2c0,0.1-0.1,0.1-0.1,0.2
					c0.1,0,0.2-0.1,0.3-0.1c0.1-0.1,0.2-0.1,0.3-0.2c0,0,0.1,0,0.1-0.1c0,0,0.1-0.1,0.1-0.1c0,0,0.1-0.1,0.1-0.1
					c0.1-0.1,0.1-0.1,0.1-0.2C20.2,73.1,20.3,73.1,20.2,73C20.3,73,20.3,73,20.2,73C20.3,73,20.2,73,20.2,73
					C20.2,73,20.2,73,20.2,73z"/>
				<path class="st0" d="M25.3,71.1C25.3,71.1,25.3,71.1,25.3,71.1C25.3,71.1,25.3,71.1,25.3,71.1L25.3,71.1
					C25.3,71.1,25.3,71.1,25.3,71.1C25.3,71.1,25.3,71.1,25.3,71.1C25.3,71.1,25.3,71.1,25.3,71.1C25.2,71.2,25.2,71.2,25.3,71.1
					L25.3,71.1C25.2,71.2,25.2,71.2,25.3,71.1C25.2,71.2,25.2,71.2,25.3,71.1c-0.1,0.1-0.1,0.1-0.1,0.1c0,0-0.1,0-0.1,0.1
					c0,0,0,0,0,0c0,0,0,0,0,0c0,0,0,0,0,0c0,0,0,0,0,0c0,0,0,0-0.1-0.1c0,0,0,0-0.1-0.1c0,0,0-0.1,0-0.1c0,0,0-0.1,0-0.1
					c0,0,0-0.1,0-0.1c0,0,0-0.1,0-0.1c0,0,0,0,0,0c0,0,0,0,0,0c0,0,0,0,0,0c0,0,0,0,0,0c0,0,0,0,0,0c0,0,0,0,0,0
					c0.1-0.1,0.3-0.2,0.4-0.2c0.1-0.1,0.3-0.1,0.4-0.2c0,0,0.1,0,0.1-0.1c0,0,0.1,0,0.1-0.1c0,0,0.1,0,0.1,0c0,0,0.1,0,0.1,0
					c0.1,0,0.1,0,0.2-0.1c0.1,0,0.1,0,0.2-0.1c0.1,0,0.2,0,0.3,0c0.1,0,0.2,0,0.3,0c0.2,0,0.3,0,0.5,0.1c0.2,0.1,0.3,0.1,0.4,0.2
					c0,0,0,0.1,0.1,0.1c0,0,0,0.1,0.1,0.1c0,0,0,0,0,0.1c0,0,0,0,0,0.1c0.1,0.1,0.1,0.2,0.1,0.3c0,0.2,0,0.3-0.1,0.5
					c-0.1,0.1-0.1,0.3-0.2,0.4c-0.1,0.1-0.1,0.2-0.2,0.3c-0.1,0.1-0.2,0.1-0.2,0.2c-0.1,0-0.1,0.1-0.2,0.1c0,0.1-0.1,0.1-0.2,0.1
					c-0.1,0.1-0.2,0.1-0.3,0.2c-0.1,0.1-0.2,0.1-0.3,0.2c0,0,0.1,0,0.1,0c0,0,0.1,0,0.1,0c0.2,0,0.4,0.1,0.5,0.2c0,0,0,0,0,0
					c0,0,0,0,0,0h0c0.1,0,0.2,0.1,0.2,0.2s0.1,0.1,0.2,0.2c0,0,0,0.1,0.1,0.1c0,0,0,0.1,0,0.1c0,0,0,0,0,0c0,0,0,0,0,0
					c0,0,0,0,0,0.1c0,0,0,0,0,0.1c0,0,0,0.1,0,0.1c0,0,0,0.1,0,0.1c0,0.1,0.1,0.2,0.1,0.3c0,0.1,0,0.2-0.1,0.3c0,0,0,0.1-0.1,0.1
					c0,0,0,0.1-0.1,0.1c0,0,0,0.1-0.1,0.1c0,0,0,0,0,0c0,0,0,0-0.1,0c0,0-0.1,0.1-0.1,0.1c0,0-0.1,0.1-0.1,0.1
					c-0.1,0-0.1,0.1-0.1,0.1c0,0-0.1,0.1-0.1,0.1h0l-0.2,0.1c-0.1,0-0.1,0-0.1,0.1c0,0-0.1,0.1-0.1,0.1c0,0,0,0-0.1,0
					c0,0-0.1,0-0.1,0.1c0,0,0,0-0.1,0.1c0,0,0,0-0.1,0c-0.1,0-0.1,0.1-0.2,0.1s-0.1,0-0.2,0.1l-0.2,0.1l-0.3,0.1
					c-0.1,0-0.2,0.1-0.3,0.1S25.3,76,25.1,76c0,0,0,0,0,0c0,0,0,0,0,0c0.2-0.1,0.4-0.1,0.6-0.2c0.2-0.1,0.4-0.2,0.6-0.3c0,0,0,0,0,0
					c0,0,0,0,0,0c0.1,0,0.1,0,0.2-0.1c0,0,0.1-0.1,0.2-0.1c0,0,0.1-0.1,0.1-0.1c0,0,0.1-0.1,0.1-0.1c0,0,0,0,0,0c0,0,0,0,0,0
					c0,0,0,0,0,0c0,0,0,0-0.1,0c0,0,0,0,0,0c0,0,0,0,0,0c0,0,0,0,0,0c0,0,0,0,0,0s0,0,0,0l-0.1,0c0,0-0.1,0-0.1,0.1
					c0,0-0.1,0-0.1,0.1c-0.1,0.1-0.2,0.1-0.4,0.2c0,0-0.1,0.1-0.1,0.1c-0.1,0-0.1,0-0.2,0.1c0,0-0.1,0-0.1,0.1c0,0-0.1,0-0.1,0v0
					c-0.1,0-0.2,0-0.2,0.1c-0.1,0-0.1,0-0.2,0.1c0,0,0,0,0.1,0c0,0,0,0,0.1,0c-0.1,0-0.2,0.1-0.3,0.1C25.1,76,25,76,24.8,76
					c0.2,0,0.3-0.1,0.5-0.2c0.2-0.1,0.3-0.1,0.5-0.2c0,0,0,0,0,0c0,0,0.1,0,0.1,0c0,0,0.1,0,0.1,0c0,0,0,0,0,0c0,0,0,0,0,0
					c0.1,0,0.2-0.1,0.3-0.2c0.1-0.1,0.2-0.1,0.3-0.2c0,0-0.1,0-0.1,0.1c0,0-0.1,0-0.1,0.1c0,0,0,0-0.1,0c0,0,0,0-0.1,0l-0.1,0.1
					c-0.1,0.1-0.3,0.1-0.5,0.2l0.2-0.1c0,0,0,0,0,0c0,0,0,0,0,0c0,0,0.1,0,0.1-0.1c0,0,0.1,0,0.1-0.1c0.1,0,0.1-0.1,0.2-0.1
					c0,0,0.1-0.1,0.1-0.1c0.1-0.1,0.2-0.1,0.3-0.2c0.1,0,0.2-0.1,0.3-0.2c0,0,0,0,0,0c0,0,0,0,0,0c0,0,0.1,0,0.1,0c0,0,0,0,0.1-0.1
					c0,0-0.1,0-0.1,0.1c0,0,0,0-0.1,0c0,0,0,0-0.1,0.1c0,0-0.1,0-0.1,0.1c0,0,0,0,0,0c0,0,0,0,0,0c0,0-0.1,0.1-0.1,0.1
					c0,0-0.1,0.1-0.2,0.1c0,0-0.1,0-0.1,0.1c0,0-0.1,0-0.2,0.1c0,0,0,0,0,0c0,0,0,0,0,0c0,0-0.1,0-0.1,0c0,0-0.1,0-0.1,0
					c0.1-0.1,0.2-0.1,0.3-0.2c0.1,0,0.2-0.1,0.3-0.2c0.1,0,0.1-0.1,0.2-0.1c0.1-0.1,0.1-0.1,0.2-0.1c0,0,0,0,0-0.1c0,0,0,0,0.1-0.1
					c0,0,0,0,0,0c0,0,0,0,0,0c0,0,0,0,0.1-0.1c0,0,0.1,0,0.1-0.1c0,0,0,0,0,0c0,0,0,0,0,0c0,0,0,0,0,0c0,0,0,0,0,0
					c0,0-0.1,0.1-0.1,0.1c0,0-0.1,0-0.1,0.1v0c0,0,0,0,0,0c0,0,0,0,0,0c0,0,0,0,0,0l-0.1,0.1c0,0-0.1,0-0.1,0.1c0,0-0.1,0-0.1,0.1
					c0,0,0,0,0.1,0c0,0,0,0,0.1,0c-0.1,0.1-0.2,0.1-0.3,0.2c-0.1,0.1-0.2,0.1-0.3,0.2c0,0,0,0-0.1,0c0,0,0,0-0.1,0c0,0,0,0,0.1,0
					c0.1,0,0.2-0.1,0.2-0.1s0.2-0.1,0.3-0.1c0,0,0,0,0,0c0,0,0,0,0,0l-0.1,0c0,0,0,0,0,0c0,0,0,0,0,0c0,0,0,0,0,0c0,0,0,0,0,0
					c0,0,0,0-0.1,0c0,0,0,0-0.1,0c0,0,0,0,0,0c0,0,0,0,0,0c-0.1,0-0.2,0.1-0.2,0.1c-0.1,0-0.2,0.1-0.2,0.1c0,0,0,0,0,0c0,0,0,0,0,0
					c0,0,0,0,0,0c0,0,0,0,0,0l-0.5,0.2c0,0-0.1,0-0.1,0c0,0-0.1,0-0.1,0c0,0,0,0-0.1,0c0,0,0,0-0.1,0c-0.1,0-0.1,0-0.2,0.1
					c-0.1,0-0.1,0-0.2,0c0,0-0.1,0-0.1,0c0,0-0.1,0-0.1,0c0,0,0,0,0,0c0,0,0,0,0,0c0,0,0,0,0,0c0.1,0,0.2,0,0.4,0
					c0.1,0,0.3,0,0.4-0.1c-0.1,0-0.1,0-0.2,0.1c-0.1,0-0.1,0-0.2,0.1c0,0,0,0,0,0c0,0,0,0,0,0c0,0,0,0-0.1,0c0,0,0,0-0.1,0
					c0,0,0,0,0,0c0,0,0,0,0,0c0,0,0,0-0.1,0c0,0-0.1,0-0.1,0c0,0,0,0,0.1,0c0,0,0,0,0.1,0c0,0-0.1,0-0.1,0c-0.1,0-0.1,0-0.2,0
					c0,0,0,0,0,0c0,0,0,0,0,0c-0.1,0-0.2,0-0.3,0c-0.1,0-0.2,0-0.2-0.1c0,0,0,0-0.1-0.1c0,0,0,0-0.1-0.1c0,0,0,0,0,0c0,0,0,0,0,0
					c0,0,0,0,0,0c0,0,0,0,0,0c0,0,0,0,0,0c0,0,0,0,0-0.1c0,0,0,0,0,0c0,0,0,0,0,0c0,0,0,0,0,0s0,0,0,0c0,0,0,0,0,0c0,0,0,0,0,0
					c0,0,0,0,0-0.1c0,0,0,0,0-0.1l0,0c0,0,0,0,0,0c0,0,0,0,0,0c0,0,0,0,0,0c0,0,0,0,0,0c0,0,0,0,0,0c0,0,0,0,0,0c0,0,0,0,0,0
					c0,0,0,0,0,0c0,0,0,0,0-0.1c0,0,0,0,0.1,0c0,0,0,0,0,0c0,0,0,0,0,0c0,0,0,0,0,0c0,0,0,0,0,0c0,0,0.1,0,0.1-0.1c0,0,0.1,0,0.2,0
					c0,0,0,0,0,0s0,0,0,0c0,0,0,0,0,0c0,0,0,0,0.1,0c0,0,0.1,0,0.1,0c0,0-0.1,0-0.1,0c0,0-0.1,0-0.1,0c0,0-0.1,0-0.1,0
					c0,0,0,0,0,0.1c0,0,0,0,0.1,0.1c0,0,0.1,0,0.1,0c0,0,0.1,0,0.1,0c0,0,0.1,0,0.1,0c0,0,0-0.1,0-0.1c0-0.1,0-0.1,0-0.1
					c0,0,0-0.1,0-0.1s0-0.1,0-0.1c0.1-0.4,0.2-0.8,0.4-1.1c0.1-0.4,0.3-0.7,0.5-1c0,0,0,0,0,0c0,0,0,0,0,0c0,0,0-0.1,0-0.1
					c0,0,0,0,0,0c0,0,0,0,0,0c0,0,0,0,0-0.1c0,0,0.1,0,0.1,0c0,0,0,0,0.1,0c0.1-0.1,0.1-0.3,0.2-0.4c0.1-0.1,0.1-0.3,0.2-0.4
					c0-0.1,0.1-0.2,0.2-0.3c0.1-0.1,0.1-0.2,0.2-0.3c0-0.1,0.1-0.2,0.1-0.3c0-0.1,0.1-0.2,0.1-0.3c0,0,0-0.1,0.1-0.1
					c0,0,0-0.1,0-0.1c0,0,0,0,0,0s0,0,0,0c0,0,0.1,0,0.1,0c0,0,0.1,0,0.1,0c0,0,0.1,0,0.1,0c0,0,0,0,0.1,0c0,0,0,0.1,0,0.1
					c0,0,0,0.1,0,0.1c0,0,0,0.1,0,0.1c0,0,0,0.1,0,0.1c-0.1,0.1-0.1,0.2-0.2,0.3c-0.1,0.1-0.1,0.2-0.2,0.4h0c0,0.1-0.1,0.2-0.1,0.3
					c0,0.1-0.1,0.2-0.1,0.3c0,0,0,0,0,0c0,0,0,0,0,0c0,0.1-0.1,0.1-0.1,0.2c0,0.1-0.1,0.1-0.1,0.2c0,0,0.1,0,0.1,0
					c0,0,0.1,0,0.1-0.1c0.2-0.1,0.4-0.2,0.6-0.3c0,0,0,0,0,0c0.1-0.1,0.2-0.1,0.2-0.2c0.1-0.1,0.1-0.1,0.2-0.2v0
					c0.3-0.2,0.5-0.4,0.7-0.7v0c0,0,0.1-0.1,0.1-0.1c0-0.1,0.1-0.1,0.1-0.2c0-0.1,0.1-0.1,0.1-0.2c0-0.1,0-0.1,0-0.2
					c0,0,0-0.1,0-0.1c0,0,0,0,0-0.1c-0.1-0.1-0.3-0.2-0.5-0.2c-0.2,0-0.4,0-0.6,0l-0.2,0c-0.1,0-0.3,0.1-0.4,0.1
					c-0.1,0-0.3,0.1-0.4,0.1c-0.1,0.1-0.2,0.1-0.3,0.2c-0.1,0.1-0.2,0.2-0.3,0.3c0,0,0,0,0,0c0,0,0,0,0,0c0,0,0,0,0,0s0,0,0,0
					c0,0,0,0,0,0C25.3,71,25.3,71,25.3,71.1C25.3,71,25.3,71,25.3,71.1C25.3,71,25.3,71,25.3,71.1C25.3,71,25.3,71,25.3,71.1
					C25.3,71,25.3,71,25.3,71.1C25.3,71.1,25.3,71.1,25.3,71.1z M23.7,75.8C23.7,75.8,23.7,75.8,23.7,75.8
					C23.7,75.8,23.7,75.8,23.7,75.8L23.7,75.8C23.7,75.8,23.7,75.8,23.7,75.8z M26.8,74.8C26.8,74.8,26.8,74.8,26.8,74.8
					C26.8,74.8,26.8,74.8,26.8,74.8C26.8,74.8,26.8,74.8,26.8,74.8C26.8,74.8,26.8,74.8,26.8,74.8L26.8,74.8
					C26.8,74.8,26.8,74.7,26.8,74.8C26.8,74.7,26.8,74.7,26.8,74.8c0.1-0.1,0.1-0.1,0.1-0.1c0,0,0,0,0,0c0,0,0,0,0,0s0,0,0,0
					c0,0,0,0,0,0c0,0,0,0,0,0c0.1-0.1,0.2-0.1,0.2-0.2c0.1-0.1,0.1-0.2,0.2-0.2c0,0,0,0,0,0c0-0.1,0.1-0.1,0.1-0.2
					c0-0.1,0.1-0.2,0.1-0.3c0-0.1,0-0.1-0.1-0.2c0-0.1-0.1-0.1-0.1-0.1c0,0-0.1,0-0.1-0.1c0,0-0.1,0-0.1-0.1c0,0,0,0,0,0
					c0,0,0,0,0,0c0,0-0.1,0-0.1-0.1c0,0-0.1,0-0.1,0c-0.1,0-0.2-0.1-0.2-0.1c-0.1,0-0.1,0-0.2-0.1s-0.1,0-0.2,0c-0.1,0-0.2,0-0.3,0
					c-0.1,0-0.2,0-0.3,0.1c0,0,0,0,0,0s0,0,0,0c0,0-0.1,0-0.1,0c0,0-0.1,0-0.1,0c0,0,0,0,0,0c0,0,0,0-0.1,0c0,0,0,0,0,0.1
					c0,0.1-0.1,0.2-0.1,0.3c0,0.1-0.1,0.2-0.1,0.3c0,0,0,0.1,0,0.1c0,0,0,0.1,0,0.1c0,0.1-0.1,0.2-0.1,0.3s0,0.2-0.1,0.3
					c0,0,0,0.1,0,0.1c0,0,0,0.1,0,0.1c0,0,0,0.1,0,0.1c0,0,0,0.1-0.1,0.1c0,0,0,0.1-0.1,0.1c0,0.1-0.1,0.1-0.1,0.1
					c0,0-0.1,0.1-0.1,0.1c0,0,0,0,0,0c0,0,0,0-0.1,0.1c0,0,0,0.1-0.1,0.1c0,0,0,0-0.1,0c0,0,0,0,0,0c0.1,0,0.2,0,0.4-0.1
					c0.1,0,0.3-0.1,0.4-0.1c0,0,0,0,0,0c0,0,0,0,0,0c0.1,0,0.2,0,0.2-0.1c0.1,0,0.1-0.1,0.2-0.1c0,0,0,0,0,0c0,0,0,0,0,0
					c0,0,0,0,0,0c0,0,0.1,0,0.1-0.1c0,0,0,0,0,0c0,0,0,0,0,0c0,0,0,0,0.1,0c0,0,0,0,0,0c0,0,0,0,0,0s0,0,0,0c0,0,0,0,0,0
					c0,0,0,0,0.1,0l0,0c0.1,0,0.1,0,0.1-0.1c0,0,0.1-0.1,0.1-0.1c0,0,0,0,0,0c0,0,0,0,0,0c0,0,0,0,0.1,0c0,0,0,0,0.1,0c0,0,0,0,0,0
					c0,0,0,0,0,0c0,0,0,0,0,0c0,0,0,0,0,0l0,0C26.7,74.8,26.7,74.8,26.8,74.8C26.7,74.8,26.7,74.8,26.8,74.8
					C26.7,74.8,26.7,74.8,26.8,74.8C26.8,74.8,26.8,74.8,26.8,74.8C26.8,74.8,26.8,74.8,26.8,74.8C26.8,74.8,26.8,74.8,26.8,74.8z
					 M25.3,75.8c0.1,0,0.2,0,0.3-0.1c0.1,0,0.2-0.1,0.2-0.1c0,0,0,0,0,0C25.6,75.7,25.4,75.8,25.3,75.8c-0.2,0.1-0.3,0.1-0.5,0.2
					c0.1,0,0.2,0,0.3-0.1C25.1,75.9,25.2,75.9,25.3,75.8z M25.8,75.7C25.8,75.6,25.8,75.6,25.8,75.7C25.8,75.6,25.8,75.7,25.8,75.7
					C25.8,75.7,25.8,75.7,25.8,75.7z M25.9,75.2C25.9,75.2,25.9,75.2,25.9,75.2C25.9,75.2,25.9,75.2,25.9,75.2
					C25.9,75.2,25.9,75.2,25.9,75.2z M26.6,75.2C26.6,75.2,26.6,75.2,26.6,75.2c0.1-0.1,0.2-0.1,0.2-0.1c0,0,0,0,0,0c0,0,0,0,0,0
					C26.8,75.1,26.7,75.1,26.6,75.2C26.6,75.2,26.6,75.2,26.6,75.2C26.5,75.2,26.5,75.2,26.6,75.2C26.5,75.2,26.6,75.2,26.6,75.2z
					 M27.5,74.9c0,0-0.1,0.1-0.1,0.1C27.4,75,27.4,75,27.5,74.9C27.5,74.9,27.5,74.9,27.5,74.9z M27.5,73.1
					C27.5,73.1,27.5,73.1,27.5,73.1C27.5,73.1,27.5,73.1,27.5,73.1C27.6,73.1,27.6,73.1,27.5,73.1c0.1,0.1,0.1,0.2,0.2,0.2
					c0,0,0,0,0,0c0,0,0,0,0,0c0,0,0,0,0,0c0,0,0,0,0,0c0,0,0,0,0,0h0h0C27.7,73.2,27.6,73.1,27.5,73.1c0,0,0,0-0.1-0.1
					C27.4,73,27.5,73,27.5,73.1C27.5,73,27.5,73.1,27.5,73.1z M27.8,73.4C27.8,73.4,27.8,73.4,27.8,73.4
					C27.8,73.3,27.8,73.3,27.8,73.4C27.8,73.4,27.8,73.4,27.8,73.4C27.8,73.4,27.8,73.4,27.8,73.4z"/>
				<path class="st0" d="M32.1,74C32.1,74,32.1,74,32.1,74C32,74,32,74.1,32,74.1c0,0,0,0,0,0c0,0-0.1,0.1-0.1,0.1
					c0,0-0.1,0.1-0.1,0.1h0v0c0,0,0,0,0,0s0,0,0,0c0,0,0,0-0.1,0.1c0,0,0,0,0,0c0,0,0,0-0.1,0.1c0,0,0,0-0.1,0.1c0,0,0,0,0,0
					c0,0,0,0-0.1,0c-0.1,0-0.1,0.1-0.1,0.1c0,0-0.1,0-0.1,0c0,0-0.1,0-0.1,0c0,0,0,0-0.1,0c0,0-0.1,0-0.1,0c-0.1,0-0.1,0-0.1,0
					c0,0,0,0-0.1-0.1c0,0,0,0-0.1,0c0,0,0,0,0-0.1c-0.1,0-0.1-0.1-0.1-0.1c0-0.1,0-0.1,0-0.2c0-0.1,0-0.2,0-0.3c0-0.1,0-0.2,0.1-0.3
					c-0.1,0.1-0.1,0.1-0.2,0.2c-0.1,0.1-0.1,0.1-0.2,0.2c0,0-0.1,0.1-0.1,0.1c0,0-0.1,0.1-0.1,0.1c-0.1,0.1-0.2,0.2-0.2,0.3
					c0,0,0,0,0,0c0,0,0,0,0,0c0,0-0.1,0.1-0.1,0.1c0,0-0.1,0.1-0.1,0.1c-0.1,0-0.1,0-0.2,0s-0.1,0-0.2-0.1c0,0-0.1,0-0.1,0
					c0,0,0,0-0.1,0c-0.1,0-0.1-0.1-0.1-0.1c0,0,0-0.1,0-0.2c0,0,0-0.1,0-0.1c0-0.1,0-0.1,0-0.1c0-0.1,0.1-0.2,0.1-0.3
					c0-0.1,0.1-0.2,0.1-0.2c0.1-0.1,0.2-0.2,0.2-0.3c0.1-0.1,0.2-0.2,0.3-0.3c0,0,0.1,0,0.1-0.1c0,0,0.1,0,0.1-0.1c0,0,0.1,0,0.1,0
					c0,0,0.1,0,0.1,0c0.1,0,0.2,0,0.3,0.1c0.1,0,0.1,0.1,0.2,0.2c0,0,0.1,0,0.1-0.1c0,0,0.1,0,0.1,0c0,0,0,0,0,0c0,0,0,0,0,0
					c0,0,0.1,0,0.1,0c0,0,0.1,0.1,0.1,0.1c0,0,0,0,0,0c0,0,0,0,0,0c0,0,0,0,0,0c0,0,0,0,0,0c0,0.1,0,0.2,0,0.3
					c0,0.1-0.1,0.2-0.1,0.3c0,0.1,0,0.2-0.1,0.4c0,0.1,0,0.2,0,0.3c0.2,0,0.3-0.1,0.4-0.1c0.1-0.1,0.2-0.1,0.3-0.2
					c0,0,0.1-0.1,0.1-0.1c0,0,0.1-0.1,0.1-0.1c0,0,0,0,0,0v0c0,0,0.1,0,0.1-0.1c0.1-0.1,0.1-0.1,0.2-0.2c0.1-0.1,0.1-0.1,0.2-0.2
					c0.1,0,0.1-0.1,0.1-0.1c0,0,0,0,0,0c0,0,0,0,0,0c0,0,0,0,0,0c0,0,0,0,0,0v0c0,0,0,0,0,0c0,0,0,0,0,0c0,0,0,0,0,0c0,0,0,0,0,0
					c0,0,0,0,0,0c0,0,0,0,0,0c0,0,0,0,0,0.1c0,0,0,0,0,0.1c0,0,0,0,0,0c0,0,0,0,0,0.1c0,0,0,0,0,0.1c0,0,0,0,0,0L32.1,74z
					 M30.1,73.3c0-0.1,0-0.1-0.1-0.2c0,0-0.1,0-0.1,0l-0.1,0.1c0,0,0,0,0,0c0,0,0,0,0,0c0,0,0,0,0,0c0,0,0,0,0,0.1l-0.1,0.1
					c-0.1,0.1-0.1,0.1-0.2,0.2c-0.1,0.1-0.1,0.2-0.1,0.2c0,0,0,0,0,0.1c0,0,0,0,0,0.1c0,0,0,0,0,0c0,0,0,0,0,0c0,0.1,0,0.1-0.1,0.1
					c0,0,0,0.1,0,0.1c0,0,0.1,0,0.1-0.1c0,0,0.1-0.1,0.1-0.1c0.1-0.1,0.3-0.3,0.4-0.4c0.1-0.1,0.3-0.3,0.4-0.5
					C30.1,73.4,30.1,73.4,30.1,73.3C30.2,73.4,30.2,73.4,30.1,73.3L30.1,73.3C30.2,73.3,30.2,73.3,30.1,73.3z"/>
				<path class="st0" d="M34.6,73.8C34.7,73.8,34.6,73.9,34.6,73.8c-0.1,0.1-0.1,0.1-0.2,0.2c0,0,0,0-0.1,0.1c0,0-0.1,0-0.1,0.1l0,0
					l-0.1,0.1l-0.1,0L34,74.4c-0.1,0.1-0.2,0.1-0.2,0.2c-0.1,0-0.2,0.1-0.3,0.1c0,0,0,0,0,0c0,0,0,0,0,0c0,0,0,0-0.1,0
					c0,0,0,0-0.1,0c0,0,0,0-0.1,0c0,0,0,0,0,0c0,0,0,0-0.1,0c0,0,0,0-0.1,0c0,0,0,0,0,0c0,0,0,0,0,0c0,0,0,0,0,0c0,0,0,0-0.1,0
					c0,0,0,0,0,0c0,0,0,0,0,0c0,0,0,0-0.1,0c0,0,0,0-0.1,0c0,0,0,0,0,0c0,0,0,0,0,0l0,0c-0.1,0-0.1,0-0.2,0c0,0,0,0,0,0c0,0,0,0,0,0
					c-0.1,0-0.1,0-0.1,0c0,0-0.1,0-0.1-0.1c-0.1,0-0.1-0.1-0.2-0.1S32,74.4,32,74.4c0,0,0-0.1,0-0.1c0,0,0-0.1,0-0.1
					c0,0,0-0.1,0-0.1c0,0,0-0.1,0-0.1c0-0.1,0-0.1,0-0.2c0-0.1,0.1-0.2,0.1-0.2l0.2-0.2l0.1-0.1c0,0,0.1-0.1,0.1-0.1s0.1,0,0.1-0.1
					c0,0,0.1,0,0.1-0.1c0,0,0.1,0,0.1-0.1c0,0,0.1-0.1,0.1-0.1c0,0,0.1,0,0.1-0.1c0,0,0.1,0,0.1,0c0,0,0,0,0.1,0c0,0,0,0,0.1,0
					c0,0,0,0,0,0c0,0,0,0,0,0c0,0,0.1,0.1,0.1,0.1c0,0,0.1,0.1,0.1,0.1c0,0,0.1,0,0.1,0.1c0,0,0,0,0,0.1c0,0,0,0.1,0,0.1
					c0,0,0,0.1,0,0.1c0,0,0,0,0,0c0,0,0,0,0,0c0,0,0,0,0,0.1c0,0,0,0-0.1,0.1c0,0,0,0,0,0s0,0,0,0.1c0,0,0,0-0.1,0.1
					c0,0-0.1,0.1-0.1,0.1c0,0-0.1,0.1-0.1,0.1s-0.1,0-0.1,0.1c0,0,0,0,0,0c0,0-0.1,0.1-0.1,0.1c-0.1,0-0.1,0.1-0.1,0.1
					c-0.1,0-0.1,0-0.2,0.1c-0.1,0-0.1,0.1-0.2,0c0,0,0,0,0,0c0,0,0,0,0,0c0,0,0,0,0,0.1c0,0,0,0,0,0c0,0,0.1,0.1,0.1,0.1
					c0.1,0,0.1,0.1,0.2,0.1c0.2,0.1,0.3,0.1,0.5,0c0.1,0,0.1,0,0.1,0c0,0,0.1,0,0.2-0.1c0.1,0,0.1-0.1,0.2-0.1l0.1,0c0,0,0,0,0,0
					c0,0,0,0,0,0c0,0,0,0,0,0c0,0,0,0,0,0l0.2-0.1c0.1,0,0.1-0.1,0.1-0.1c0,0,0.1-0.1,0.2-0.1c0,0,0,0,0,0c0,0,0,0,0.1-0.1
					c0,0,0.1,0,0.1-0.1c0,0,0,0,0.1,0l0.1-0.1c0.1,0,0.1-0.1,0.1-0.1c0,0,0.1,0,0.1-0.1c0,0,0,0,0,0.1c0,0,0,0,0,0
					c0,0,0,0.1-0.1,0.1C34.8,73.7,34.7,73.7,34.6,73.8C34.7,73.8,34.7,73.8,34.6,73.8C34.7,73.8,34.7,73.8,34.6,73.8z M33.1,73
					C33.1,73,33.1,73,33.1,73C33,73.1,33,73.1,33,73.1c0,0,0,0,0,0c0,0,0,0,0,0c0,0,0,0,0,0l-0.1,0c0,0,0,0-0.1,0.1c0,0,0,0-0.1,0
					c0,0-0.1,0.1-0.1,0.1c0,0-0.1,0.1-0.1,0.1c-0.1,0-0.1,0.1-0.1,0.1c-0.1,0.1-0.1,0.1-0.1,0.2c0,0.1-0.1,0.1-0.1,0.2
					c0.1,0,0.2-0.1,0.3-0.1c0.1-0.1,0.2-0.1,0.3-0.2c0,0,0.1,0,0.1-0.1c0,0,0.1-0.1,0.1-0.1c0,0,0.1-0.1,0.1-0.1
					c0.1-0.1,0.1-0.1,0.1-0.2C33.2,73.1,33.2,73.1,33.1,73C33.2,73,33.2,73,33.1,73C33.2,73,33.2,73,33.1,73
					C33.1,73,33.1,73,33.1,73z"/>
				<path class="st0" d="M34.4,74.5C34.4,74.5,34.5,74.4,34.4,74.5c0.1-0.1,0.1-0.1,0.1-0.2c0,0,0,0,0,0c0,0,0,0,0,0
					c0.1,0,0.1-0.1,0.1-0.1c0,0,0,0,0.1,0c0,0,0,0,0.1-0.1l0,0c0,0,0,0,0,0c0,0,0,0,0,0c0,0,0,0,0,0c0,0,0,0,0,0c0,0,0,0,0,0
					c0,0,0,0,0,0c0,0,0,0,0,0c0,0,0.1-0.1,0.1-0.1c0,0,0.1,0,0.1-0.1c0.1,0,0.1-0.1,0.2-0.1c0.1,0,0.1-0.1,0.2-0.1
					c0-0.1,0-0.2,0-0.3c0-0.1,0-0.2-0.1-0.3c0,0,0,0-0.1,0.1c0,0-0.1,0.1-0.1,0.1l-0.1,0.1l-0.1,0.1L35,73.6c0,0-0.1,0.1-0.1,0.1
					c0,0-0.1,0-0.1,0.1c0,0-0.1,0.1-0.1,0.1s-0.1,0-0.1,0c0,0,0,0,0,0c0,0,0,0,0,0c0,0,0,0,0,0c0,0,0,0,0,0c0,0,0,0,0,0c0,0,0,0,0,0
					c0,0,0,0,0,0c0,0,0,0,0,0c0,0,0.1,0,0.1-0.1c0,0,0,0,0-0.1c0,0,0-0.1,0-0.1c0,0,0,0,0.1,0c0,0,0,0,0.1,0c0,0,0,0,0,0
					c0,0,0,0,0,0c0,0,0,0,0.1,0c0,0,0,0,0,0c0-0.1,0.1-0.1,0.1-0.1c0,0,0.1-0.1,0.1-0.1c0-0.1,0.1-0.2,0.2-0.2c0.1,0,0.1,0,0.2,0
					c0.1,0,0.1,0,0.1,0c0,0,0.1,0.1,0.1,0.1c0,0,0,0,0,0.1c0,0,0,0.1,0,0.1c0,0,0,0.1,0,0.1c0,0,0,0.1,0,0.1c0,0,0.1,0,0.2,0
					c0.1,0,0.1,0,0.2-0.1c0.1,0,0.2-0.1,0.2-0.1c0.1,0,0.1,0,0.1,0c0,0,0,0,0,0c0,0,0,0,0,0c0,0,0,0,0,0c0,0,0.1,0,0.1,0
					c0,0,0.1,0,0.1,0c0,0,0,0,0,0c0,0,0,0,0,0v0v0c0,0,0,0,0,0c0.1,0,0.1,0,0.1,0c0,0,0.1,0,0.1,0c0,0,0,0,0.1,0c0,0,0,0,0,0l0.1,0
					c0,0,0,0,0,0c0,0,0,0,0,0c0,0,0,0,0,0s0,0,0,0c0,0,0,0,0,0c0,0,0,0,0,0c0,0,0,0,0,0c0,0,0,0,0,0c0,0,0,0-0.1,0c0,0,0,0-0.1,0
					c0,0,0,0,0,0c0,0,0,0,0,0c0,0-0.1,0-0.1,0c0,0,0,0-0.1,0c0,0-0.1,0-0.1,0c0,0-0.1,0-0.1,0c0,0,0,0,0,0c0,0,0,0-0.1,0
					c0,0,0,0-0.1,0c0,0-0.1,0-0.1,0c0,0-0.1,0-0.1,0l-0.6,0.2c0,0-0.1,0-0.1,0.1c0,0-0.1,0-0.1,0.1c0,0.1,0,0.1,0,0.2
					c0,0,0,0.1,0,0.1c0,0,0,0,0,0c0,0,0,0,0,0.1c0,0,0,0,0,0c0,0,0,0,0,0c0,0,0,0.1,0,0.1c0,0,0,0.1-0.1,0.1c0,0,0,0,0,0
					c0,0,0,0,0,0c0,0,0,0,0,0c0,0,0,0,0,0c0,0,0,0,0,0s0,0,0,0c0,0,0,0,0,0c0,0,0,0,0,0c0,0-0.1,0.1-0.1,0.1c0,0,0,0.1-0.1,0.1
					c0,0,0,0,0,0s0,0,0,0c-0.1,0.1-0.1,0.1-0.2,0.2c-0.1,0.1-0.2,0.1-0.3,0.1c0,0,0,0,0,0c0,0,0,0,0,0c0,0,0,0,0,0c0,0,0,0,0,0
					c0,0,0,0-0.1,0c0,0,0,0-0.1,0c0,0,0,0,0,0v0c0,0,0,0-0.1,0c0,0,0,0-0.1,0c0,0,0,0,0,0c0,0,0,0,0,0c-0.1,0-0.2,0-0.2,0
					c-0.1,0-0.1-0.1-0.2-0.1c0,0,0,0,0,0c0,0,0,0,0,0c0,0,0,0,0,0c0,0,0,0,0,0c0,0,0,0,0,0c0,0,0,0,0,0c0,0,0,0,0,0c0,0,0,0,0,0
					c0,0,0,0,0,0c0,0,0,0,0,0c0,0,0,0,0,0c0,0,0,0,0,0c0-0.1,0-0.1,0-0.1c0,0,0,0,0,0c0,0,0,0,0,0c0,0,0,0,0.1-0.1
					C34.3,74.6,34.3,74.6,34.4,74.5C34.4,74.6,34.4,74.6,34.4,74.5C34.4,74.5,34.4,74.5,34.4,74.5z M34.5,74.5
					C34.5,74.4,34.5,74.4,34.5,74.5C34.5,74.4,34.5,74.5,34.5,74.5z M35,74.3C35,74.3,35,74.3,35,74.3C35,74.3,35,74.4,35,74.3
					c-0.1,0.1-0.1,0.1-0.1,0.1c0,0-0.1,0.1-0.1,0.1c0,0,0,0,0,0c0,0,0,0,0,0c0,0,0,0,0,0c0,0,0,0-0.1,0.1c0,0,0,0,0,0
					c0,0,0,0.1-0.1,0.1c0,0-0.1,0.1-0.1,0.1c0,0,0,0,0,0c0,0,0,0,0,0c0.1,0,0.1,0,0.2-0.1c0.1,0,0.1,0,0.2-0.1c0,0,0,0,0,0
					c0,0,0,0,0,0c0.1-0.1,0.2-0.2,0.3-0.3c0.1-0.1,0.1-0.2,0.2-0.4l0,0c-0.1,0-0.1,0.1-0.2,0.1C35.2,74.3,35.1,74.3,35,74.3z
					 M34.9,75.2C34.9,75.2,34.9,75.2,34.9,75.2C35,75.1,34.9,75.1,34.9,75.2C34.9,75.1,34.9,75.2,34.9,75.2z"/>
				<path class="st0" d="M36.8,74.5C36.8,74.5,36.8,74.4,36.8,74.5c0.1-0.1,0.1-0.1,0.1-0.2c0,0,0,0,0,0c0,0,0,0,0,0
					c0.1,0,0.1-0.1,0.1-0.1c0,0,0,0,0.1,0c0,0,0,0,0.1-0.1l0,0c0,0,0,0,0,0c0,0,0,0,0,0c0,0,0,0,0,0c0,0,0,0,0,0c0,0,0,0,0,0
					c0,0,0,0,0,0c0,0,0,0,0,0c0,0,0.1-0.1,0.1-0.1c0,0,0.1,0,0.1-0.1c0.1,0,0.1-0.1,0.2-0.1c0.1,0,0.1-0.1,0.2-0.1
					c0-0.1,0-0.2,0-0.3c0-0.1,0-0.2-0.1-0.3c0,0,0,0-0.1,0.1c0,0-0.1,0.1-0.1,0.1l-0.1,0.1l-0.1,0.1l-0.1,0.1c0,0-0.1,0.1-0.1,0.1
					c0,0-0.1,0-0.1,0.1c0,0-0.1,0.1-0.1,0.1c0,0-0.1,0-0.1,0c0,0,0,0,0,0c0,0,0,0,0,0c0,0,0,0,0,0c0,0,0,0,0,0c0,0,0,0,0,0
					c0,0,0,0,0,0c0,0,0,0,0,0c0,0,0,0,0,0c0,0,0.1,0,0.1-0.1c0,0,0,0,0-0.1c0,0,0-0.1,0-0.1c0,0,0,0,0.1,0c0,0,0,0,0.1,0
					c0,0,0,0,0,0c0,0,0,0,0,0c0,0,0,0,0.1,0s0,0,0,0c0-0.1,0.1-0.1,0.1-0.1c0,0,0.1-0.1,0.1-0.1c0-0.1,0.1-0.2,0.2-0.2
					c0.1,0,0.1,0,0.2,0c0.1,0,0.1,0,0.1,0c0,0,0.1,0.1,0.1,0.1c0,0,0,0,0,0.1c0,0,0,0.1,0,0.1c0,0,0,0.1,0,0.1c0,0,0,0.1,0,0.1
					c0,0,0.1,0,0.2,0c0.1,0,0.1,0,0.2-0.1c0.1,0,0.2-0.1,0.2-0.1c0.1,0,0.1,0,0.1,0c0,0,0,0,0,0c0,0,0,0,0,0c0,0,0,0,0,0
					c0,0,0.1,0,0.1,0c0,0,0.1,0,0.1,0c0,0,0,0,0,0c0,0,0,0,0,0v0v0c0,0,0,0,0,0c0.1,0,0.1,0,0.1,0c0,0,0.1,0,0.1,0c0,0,0,0,0.1,0
					c0,0,0,0,0,0l0.1,0c0,0,0,0,0,0c0,0,0,0,0,0c0,0,0,0,0,0s0,0,0,0c0,0,0,0,0,0c0,0,0,0,0,0c0,0,0,0,0,0c0,0,0,0,0,0
					c0,0,0,0-0.1,0c0,0,0,0-0.1,0c0,0,0,0,0,0c0,0,0,0,0,0c0,0-0.1,0-0.1,0c0,0,0,0-0.1,0c0,0-0.1,0-0.1,0s-0.1,0-0.1,0c0,0,0,0,0,0
					c0,0,0,0-0.1,0c0,0,0,0-0.1,0c0,0-0.1,0-0.1,0c0,0-0.1,0-0.1,0l-0.6,0.2c0,0-0.1,0-0.1,0.1c0,0-0.1,0-0.1,0.1c0,0.1,0,0.1,0,0.2
					c0,0,0,0.1,0,0.1c0,0,0,0,0,0c0,0,0,0,0,0.1c0,0,0,0,0,0c0,0,0,0,0,0c0,0,0,0.1,0,0.1c0,0,0,0.1-0.1,0.1c0,0,0,0,0,0s0,0,0,0
					c0,0,0,0,0,0c0,0,0,0,0,0c0,0,0,0,0,0s0,0,0,0c0,0,0,0,0,0c0,0,0,0,0,0c0,0-0.1,0.1-0.1,0.1c0,0,0,0.1-0.1,0.1c0,0,0,0,0,0
					s0,0,0,0c-0.1,0.1-0.1,0.1-0.2,0.2c-0.1,0.1-0.2,0.1-0.3,0.1c0,0,0,0,0,0c0,0,0,0,0,0c0,0,0,0,0,0c0,0,0,0,0,0c0,0,0,0-0.1,0
					c0,0,0,0-0.1,0c0,0,0,0,0,0v0c0,0,0,0-0.1,0c0,0,0,0-0.1,0c0,0,0,0,0,0c0,0,0,0,0,0c-0.1,0-0.2,0-0.2,0c-0.1,0-0.1-0.1-0.2-0.1
					c0,0,0,0,0,0c0,0,0,0,0,0c0,0,0,0,0,0c0,0,0,0,0,0c0,0,0,0,0,0c0,0,0,0,0,0c0,0,0,0,0,0c0,0,0,0,0,0c0,0,0,0,0,0c0,0,0,0,0,0
					c0,0,0,0,0,0c0,0,0,0,0,0c0-0.1,0-0.1,0-0.1c0,0,0,0,0,0c0,0,0,0,0,0c0,0,0,0,0.1-0.1C36.7,74.6,36.7,74.6,36.8,74.5
					C36.7,74.6,36.7,74.6,36.8,74.5C36.8,74.5,36.8,74.5,36.8,74.5z M36.9,74.5C36.9,74.4,36.9,74.4,36.9,74.5
					C36.9,74.4,36.9,74.5,36.9,74.5z M37.4,74.3C37.4,74.3,37.4,74.3,37.4,74.3C37.4,74.3,37.4,74.4,37.4,74.3
					c-0.1,0.1-0.1,0.1-0.1,0.1c0,0-0.1,0.1-0.1,0.1c0,0,0,0,0,0c0,0,0,0,0,0c0,0,0,0,0,0c0,0,0,0-0.1,0.1c0,0,0,0,0,0
					c0,0,0,0.1-0.1,0.1s-0.1,0.1-0.1,0.1c0,0,0,0,0,0c0,0,0,0,0,0c0.1,0,0.1,0,0.2-0.1c0.1,0,0.1,0,0.2-0.1c0,0,0,0,0,0c0,0,0,0,0,0
					c0.1-0.1,0.2-0.2,0.3-0.3c0.1-0.1,0.1-0.2,0.2-0.4l0,0c-0.1,0-0.1,0.1-0.2,0.1S37.5,74.3,37.4,74.3z M37.3,75.2
					C37.3,75.2,37.3,75.2,37.3,75.2C37.3,75.1,37.3,75.1,37.3,75.2C37.3,75.1,37.3,75.2,37.3,75.2z"/>
				<path class="st0" d="M41.8,73.8C41.8,73.8,41.8,73.9,41.8,73.8c-0.1,0.1-0.1,0.1-0.2,0.2c0,0,0,0-0.1,0.1c0,0-0.1,0-0.1,0.1l0,0
					l-0.1,0.1l-0.1,0l-0.1,0.1c-0.1,0.1-0.2,0.1-0.2,0.2c-0.1,0-0.2,0.1-0.3,0.1c0,0,0,0,0,0c0,0,0,0,0,0c0,0,0,0-0.1,0
					c0,0,0,0-0.1,0c0,0,0,0-0.1,0c0,0,0,0,0,0c0,0,0,0-0.1,0c0,0,0,0-0.1,0c0,0,0,0,0,0c0,0,0,0,0,0c0,0,0,0,0,0c0,0,0,0-0.1,0
					c0,0,0,0,0,0c0,0,0,0,0,0c0,0,0,0-0.1,0c0,0,0,0-0.1,0c0,0,0,0,0,0c0,0,0,0,0,0l0,0c-0.1,0-0.1,0-0.2,0c0,0,0,0,0,0c0,0,0,0,0,0
					c-0.1,0-0.1,0-0.1,0c0,0-0.1,0-0.1-0.1c-0.1,0-0.1-0.1-0.2-0.1s-0.1-0.1-0.1-0.1c0,0,0-0.1,0-0.1c0,0,0-0.1,0-0.1
					c0,0,0-0.1,0-0.1c0,0,0-0.1,0-0.1c0-0.1,0-0.1,0-0.2c0-0.1,0.1-0.2,0.1-0.2l0.2-0.2l0.1-0.1c0,0,0.1-0.1,0.1-0.1s0.1,0,0.1-0.1
					c0,0,0.1,0,0.1-0.1c0,0,0.1,0,0.1-0.1c0,0,0.1-0.1,0.1-0.1c0,0,0.1,0,0.1-0.1c0,0,0.1,0,0.1,0c0,0,0,0,0.1,0c0,0,0,0,0.1,0
					c0,0,0,0,0,0c0,0,0,0,0,0c0,0,0.1,0.1,0.1,0.1c0,0,0.1,0.1,0.1,0.1c0,0,0.1,0,0.1,0.1c0,0,0,0,0,0.1c0,0,0,0.1,0,0.1
					c0,0,0,0.1,0,0.1c0,0,0,0,0,0c0,0,0,0,0,0c0,0,0,0,0,0.1c0,0,0,0-0.1,0.1c0,0,0,0,0,0s0,0,0,0.1c0,0,0,0-0.1,0.1
					c0,0-0.1,0.1-0.1,0.1c0,0-0.1,0.1-0.1,0.1s-0.1,0-0.1,0.1c0,0,0,0,0,0c0,0-0.1,0.1-0.1,0.1c-0.1,0-0.1,0.1-0.1,0.1
					c-0.1,0-0.1,0-0.2,0.1c-0.1,0-0.1,0.1-0.2,0c0,0,0,0,0,0c0,0,0,0,0,0c0,0,0,0,0,0.1c0,0,0,0,0,0c0,0,0.1,0.1,0.1,0.1
					c0.1,0,0.1,0.1,0.2,0.1c0.2,0.1,0.3,0.1,0.5,0c0.1,0,0.1,0,0.1,0c0,0,0.1,0,0.2-0.1c0.1,0,0.1-0.1,0.2-0.1l0.1,0c0,0,0,0,0,0
					c0,0,0,0,0,0c0,0,0,0,0,0c0,0,0,0,0,0l0.2-0.1c0.1,0,0.1-0.1,0.1-0.1c0,0,0.1-0.1,0.2-0.1c0,0,0,0,0,0c0,0,0,0,0.1-0.1
					c0,0,0.1,0,0.1-0.1c0,0,0,0,0.1,0l0.1-0.1c0.1,0,0.1-0.1,0.1-0.1c0,0,0.1,0,0.1-0.1c0,0,0,0,0,0.1c0,0,0,0,0,0
					c0,0,0,0.1-0.1,0.1C41.9,73.7,41.9,73.7,41.8,73.8C41.9,73.8,41.9,73.8,41.8,73.8C41.9,73.8,41.9,73.8,41.8,73.8z M40.3,73
					C40.3,73,40.3,73,40.3,73c-0.1,0.1-0.1,0.1-0.1,0.1c0,0,0,0,0,0c0,0,0,0,0,0c0,0,0,0,0,0l-0.1,0c0,0,0,0-0.1,0.1c0,0,0,0-0.1,0
					c0,0-0.1,0.1-0.1,0.1c0,0-0.1,0.1-0.1,0.1c-0.1,0-0.1,0.1-0.1,0.1c-0.1,0.1-0.1,0.1-0.1,0.2c0,0.1-0.1,0.1-0.1,0.2
					c0.1,0,0.2-0.1,0.3-0.1c0.1-0.1,0.2-0.1,0.3-0.2c0,0,0.1,0,0.1-0.1c0,0,0.1-0.1,0.1-0.1c0,0,0.1-0.1,0.1-0.1
					c0.1-0.1,0.1-0.1,0.1-0.2C40.3,73.1,40.4,73.1,40.3,73C40.4,73,40.4,73,40.3,73C40.4,73,40.3,73,40.3,73
					C40.3,73,40.3,73,40.3,73z"/>
			</g>
		</g>
	</g>
</g>
</svg>
