<?xml version="1.0" encoding="utf-8"?>
<!-- Generator: Adobe Illustrator 23.0.1, SVG Export Plug-In . SVG Version: 6.00 Build 0)  -->
<svg version="1.1" id="Camada_3" xmlns="http://www.w3.org/2000/svg" xmlns:xlink="http://www.w3.org/1999/xlink" x="0px" y="0px"
	 viewBox="0 0 238.6 237.6" style="enable-background:new 0 0 238.6 237.6;" xml:space="preserve">
<style type="text/css">
	.st0{fill:none;}
	.st1{opacity:0.25;}
	.st2{fill:#FFFFFF;}
	.st3{opacity:0.5;}
</style>
<g>
	<rect x="24.3" y="21.8" class="st0" width="185.8" height="191.1"/>
	<rect x="188.3" y="33.1" class="st0" width="10.1" height="9.8"/>
	<rect x="188.3" y="43.7" class="st0" width="10.1" height="9.8"/>
	<rect x="188.3" y="54.3" class="st0" width="10.1" height="9.8"/>
	<rect x="188.3" y="64.8" class="st0" width="10.1" height="9.8"/>
	<rect x="188.3" y="75.4" class="st0" width="10.1" height="9.8"/>
	<rect x="188.3" y="86" class="st0" width="10.1" height="9.8"/>
	<rect x="188.3" y="96.6" class="st0" width="10.1" height="9.8"/>
	<rect x="188.3" y="107.1" class="st0" width="10.1" height="9.8"/>
	<rect x="188.3" y="117.7" class="st0" width="10.1" height="9.8"/>
	<rect x="188.3" y="128.3" class="st0" width="10.1" height="9.8"/>
	<rect x="188.3" y="138.9" class="st0" width="10.1" height="9.8"/>
	<rect x="188.3" y="149.4" class="st0" width="10.1" height="9.8"/>
	<rect x="188.3" y="160" class="st0" width="10.1" height="9.8"/>
	<rect x="188.3" y="170.6" class="st0" width="10.1" height="9.8"/>
	<rect x="188.3" y="181.2" class="st0" width="10.1" height="9.8"/>
	<rect x="188.3" y="191.7" class="st0" width="10.1" height="9.8"/>
	<rect x="177.5" y="33.1" class="st0" width="10.1" height="9.8"/>
	<rect x="177.5" y="43.7" class="st0" width="10.1" height="9.8"/>
	<rect x="177.5" y="54.3" class="st0" width="10.1" height="9.8"/>
	<rect x="177.5" y="64.8" class="st0" width="10.1" height="9.8"/>
	<rect x="177.5" y="75.4" class="st0" width="10.1" height="9.8"/>
	<rect x="177.5" y="86" class="st0" width="10.1" height="9.8"/>
	<rect x="177.5" y="128.3" class="st0" width="10.1" height="9.8"/>
	<rect x="177.5" y="138.9" class="st0" width="10.1" height="9.8"/>
	<rect x="177.5" y="149.4" class="st0" width="10.1" height="9.8"/>
	<rect x="177.5" y="160" class="st0" width="10.1" height="9.8"/>
	<rect x="177.5" y="170.6" class="st0" width="10.1" height="9.8"/>
	<rect x="177.5" y="191.7" class="st0" width="10.1" height="9.8"/>
	<rect x="166.6" y="33.1" class="st0" width="10.1" height="9.8"/>
	<rect x="166.6" y="43.7" class="st0" width="10.1" height="9.8"/>
	<rect x="166.6" y="54.3" class="st0" width="10.1" height="9.8"/>
	<rect x="166.6" y="64.8" class="st0" width="10.1" height="9.8"/>
	<rect x="166.6" y="75.4" class="st0" width="10.1" height="9.8"/>
	<rect x="166.6" y="96.6" class="st0" width="10.1" height="9.8"/>
	<rect x="166.6" y="107.1" class="st0" width="10.1" height="9.8"/>
	<rect x="166.6" y="117.7" class="st0" width="10.1" height="9.8"/>
	<rect x="166.6" y="138.9" class="st0" width="10.1" height="9.8"/>
	<rect x="166.6" y="149.4" class="st0" width="10.1" height="9.8"/>
	<rect x="166.6" y="160" class="st0" width="10.1" height="9.8"/>
	<rect x="166.6" y="181.2" class="st0" width="10.1" height="9.8"/>
	<rect x="166.6" y="191.7" class="st0" width="10.1" height="9.8"/>
	<rect x="155.7" y="33.1" class="st0" width="10.1" height="9.8"/>
	<rect x="155.7" y="43.7" class="st0" width="10.1" height="9.8"/>
	<rect x="155.7" y="54.3" class="st0" width="10.1" height="9.8"/>
	<rect x="155.7" y="64.8" class="st0" width="10.1" height="9.8"/>
	<rect x="155.7" y="75.4" class="st0" width="10.1" height="9.8"/>
	<rect x="155.7" y="96.6" class="st0" width="10.1" height="9.8"/>
	<rect x="155.7" y="107.1" class="st0" width="10.1" height="9.8"/>
	<rect x="155.7" y="117.7" class="st0" width="10.1" height="9.8"/>
	<rect x="155.7" y="138.9" class="st0" width="10.1" height="9.8"/>
	<rect x="155.7" y="149.4" class="st0" width="10.1" height="9.8"/>
	<rect x="155.7" y="170.6" class="st0" width="10.1" height="9.8"/>
	<rect x="155.7" y="181.2" class="st0" width="10.1" height="9.8"/>
	<rect x="155.7" y="191.7" class="st0" width="10.1" height="9.8"/>
	<rect x="144.8" y="33.1" class="st0" width="10.1" height="9.8"/>
	<rect x="144.8" y="43.7" class="st0" width="10.1" height="9.8"/>
	<rect x="144.8" y="54.3" class="st0" width="10.1" height="9.8"/>
	<rect x="144.8" y="64.8" class="st0" width="10.1" height="9.8"/>
	<rect x="144.8" y="75.4" class="st0" width="10.1" height="9.8"/>
	<rect x="144.8" y="96.6" class="st0" width="10.1" height="9.8"/>
	<rect x="144.8" y="107.1" class="st0" width="10.1" height="9.8"/>
	<rect x="144.8" y="117.7" class="st0" width="10.1" height="9.8"/>
	<rect x="144.8" y="138.9" class="st0" width="10.1" height="9.8"/>
	<rect x="144.8" y="160" class="st0" width="10.1" height="9.8"/>
	<rect x="144.8" y="170.6" class="st0" width="10.1" height="9.8"/>
	<rect x="144.8" y="181.2" class="st0" width="10.1" height="9.8"/>
	<rect x="144.8" y="191.7" class="st0" width="10.1" height="9.8"/>
	<rect x="133.9" y="33.1" class="st0" width="10.1" height="9.8"/>
	<rect x="133.9" y="43.7" class="st0" width="10.1" height="9.8"/>
	<rect x="133.9" y="54.3" class="st0" width="10.1" height="9.8"/>
	<rect x="133.9" y="64.8" class="st0" width="10.1" height="9.8"/>
	<rect x="133.9" y="75.4" class="st0" width="10.1" height="9.8"/>
	<rect x="133.9" y="96.6" class="st0" width="10.1" height="9.8"/>
	<rect x="133.9" y="107.1" class="st0" width="10.1" height="9.8"/>
	<rect x="133.9" y="117.7" class="st0" width="10.1" height="9.8"/>
	<rect x="133.9" y="149.4" class="st0" width="10.1" height="9.8"/>
	<rect x="133.9" y="160" class="st0" width="10.1" height="9.8"/>
	<rect x="133.9" y="170.6" class="st0" width="10.1" height="9.8"/>
	<rect x="133.9" y="181.2" class="st0" width="10.1" height="9.8"/>
	<rect x="133.9" y="191.7" class="st0" width="10.1" height="9.8"/>
	<rect x="123.1" y="33.1" class="st0" width="10.1" height="9.8"/>
	<rect x="123.1" y="43.7" class="st0" width="10.1" height="9.8"/>
	<rect x="123.1" y="54.3" class="st0" width="10.1" height="9.8"/>
	<rect x="123.1" y="64.8" class="st0" width="10.1" height="9.8"/>
	<rect x="123.1" y="75.4" class="st0" width="10.1" height="9.8"/>
	<rect x="123.1" y="191.7" class="st0" width="10.1" height="9.8"/>
	<rect x="112.2" y="33.1" class="st0" width="10.1" height="9.8"/>
	<rect x="112.2" y="43.7" class="st0" width="10.1" height="9.8"/>
	<rect x="112.2" y="54.3" class="st0" width="10.1" height="9.8"/>
	<rect x="112.2" y="64.8" class="st0" width="10.1" height="9.8"/>
	<rect x="112.2" y="75.4" class="st0" width="10.1" height="9.8"/>
	<rect x="112.2" y="86" class="st0" width="10.1" height="9.8"/>
	<rect x="112.2" y="96.6" class="st0" width="10.1" height="9.8"/>
	<rect x="112.2" y="107.1" class="st0" width="10.1" height="9.8"/>
	<rect x="112.2" y="117.7" class="st0" width="10.1" height="9.8"/>
	<rect x="112.2" y="128.3" class="st0" width="10.1" height="9.8"/>
	<rect x="112.2" y="138.9" class="st0" width="10.1" height="9.8"/>
	<rect x="112.2" y="149.4" class="st0" width="10.1" height="9.8"/>
	<rect x="112.2" y="160" class="st0" width="10.1" height="9.8"/>
	<rect x="112.2" y="170.6" class="st0" width="10.1" height="9.8"/>
	<rect x="112.2" y="181.2" class="st0" width="10.1" height="9.8"/>
	<rect x="112.2" y="191.7" class="st0" width="10.1" height="9.8"/>
	<rect x="101.3" y="33.1" class="st0" width="10.1" height="9.8"/>
	<rect x="101.3" y="43.7" class="st0" width="10.1" height="9.8"/>
	<rect x="101.3" y="86" class="st0" width="10.1" height="9.8"/>
	<rect x="101.3" y="96.6" class="st0" width="10.1" height="9.8"/>
	<rect x="101.3" y="107.1" class="st0" width="10.1" height="9.8"/>
	<rect x="101.3" y="117.7" class="st0" width="10.1" height="9.8"/>
	<rect x="101.3" y="128.3" class="st0" width="10.1" height="9.8"/>
	<rect x="101.3" y="138.9" class="st0" width="10.1" height="9.8"/>
	<rect x="101.3" y="149.4" class="st0" width="10.1" height="9.8"/>
	<rect x="101.3" y="160" class="st0" width="10.1" height="9.8"/>
	<rect x="101.3" y="170.6" class="st0" width="10.1" height="9.8"/>
	<rect x="101.3" y="181.2" class="st0" width="10.1" height="9.8"/>
	<rect x="101.3" y="191.7" class="st0" width="10.1" height="9.8"/>
	<rect x="90.4" y="33.1" class="st0" width="10.1" height="9.8"/>
	<rect x="90.4" y="54.3" class="st0" width="10.1" height="9.8"/>
	<rect x="90.4" y="64.8" class="st0" width="10.1" height="9.8"/>
	<rect x="90.4" y="75.4" class="st0" width="10.1" height="9.8"/>
	<rect x="90.4" y="96.6" class="st0" width="10.1" height="9.8"/>
	<rect x="90.4" y="107.1" class="st0" width="10.1" height="9.8"/>
	<rect x="90.4" y="117.7" class="st0" width="10.1" height="9.8"/>
	<rect x="90.4" y="128.3" class="st0" width="10.1" height="9.8"/>
	<rect x="90.4" y="138.9" class="st0" width="10.1" height="9.8"/>
	<rect x="90.4" y="149.4" class="st0" width="10.1" height="9.8"/>
	<rect x="90.4" y="160" class="st0" width="10.1" height="9.8"/>
	<rect x="90.4" y="170.6" class="st0" width="10.1" height="9.8"/>
	<rect x="90.4" y="181.2" class="st0" width="10.1" height="9.8"/>
	<rect x="90.4" y="191.7" class="st0" width="10.1" height="9.8"/>
	<rect x="79.5" y="33.1" class="st0" width="10.1" height="9.8"/>
	<rect x="79.5" y="54.3" class="st0" width="10.1" height="9.8"/>
	<rect x="79.5" y="64.8" class="st0" width="10.1" height="9.8"/>
	<rect x="79.5" y="75.4" class="st0" width="10.1" height="9.8"/>
	<rect x="79.5" y="96.6" class="st0" width="10.1" height="9.8"/>
	<rect x="79.5" y="107.1" class="st0" width="10.1" height="9.8"/>
	<rect x="79.5" y="117.7" class="st0" width="10.1" height="9.8"/>
	<rect x="79.5" y="128.3" class="st0" width="10.1" height="9.8"/>
	<rect x="79.5" y="138.9" class="st0" width="10.1" height="9.8"/>
	<rect x="79.5" y="149.4" class="st0" width="10.1" height="9.8"/>
	<rect x="79.5" y="160" class="st0" width="10.1" height="9.8"/>
	<rect x="79.5" y="170.6" class="st0" width="10.1" height="9.8"/>
	<rect x="79.5" y="181.2" class="st0" width="10.1" height="9.8"/>
	<rect x="79.5" y="191.7" class="st0" width="10.1" height="9.8"/>
	<rect x="68.6" y="33.1" class="st0" width="10.1" height="9.8"/>
	<rect x="68.6" y="54.3" class="st0" width="10.1" height="9.8"/>
	<rect x="68.6" y="64.8" class="st0" width="10.1" height="9.8"/>
	<rect x="68.6" y="75.4" class="st0" width="10.1" height="9.8"/>
	<rect x="68.6" y="96.6" class="st0" width="10.1" height="9.8"/>
	<rect x="68.6" y="107.1" class="st0" width="10.1" height="9.8"/>
	<rect x="68.6" y="117.7" class="st0" width="10.1" height="9.8"/>
	<rect x="68.6" y="128.3" class="st0" width="10.1" height="9.8"/>
	<rect x="68.6" y="138.9" class="st0" width="10.1" height="9.8"/>
	<rect x="68.6" y="149.4" class="st0" width="10.1" height="9.8"/>
	<rect x="68.6" y="160" class="st0" width="10.1" height="9.8"/>
	<rect x="68.6" y="170.6" class="st0" width="10.1" height="9.8"/>
	<rect x="68.6" y="181.2" class="st0" width="10.1" height="9.8"/>
	<rect x="68.6" y="191.7" class="st0" width="10.1" height="9.8"/>
	<rect x="57.8" y="33.1" class="st0" width="10.1" height="9.8"/>
	<rect x="57.8" y="54.3" class="st0" width="10.1" height="9.8"/>
	<rect x="57.8" y="64.8" class="st0" width="10.1" height="9.8"/>
	<rect x="57.8" y="75.4" class="st0" width="10.1" height="9.8"/>
	<rect x="57.8" y="96.6" class="st0" width="10.1" height="9.8"/>
	<rect x="57.8" y="107.1" class="st0" width="10.1" height="9.8"/>
	<rect x="57.8" y="117.7" class="st0" width="10.1" height="9.8"/>
	<rect x="57.8" y="128.3" class="st0" width="10.1" height="9.8"/>
	<rect x="57.8" y="138.9" class="st0" width="10.1" height="9.8"/>
	<rect x="57.8" y="149.4" class="st0" width="10.1" height="9.8"/>
	<rect x="57.8" y="160" class="st0" width="10.1" height="9.8"/>
	<rect x="57.8" y="170.6" class="st0" width="10.1" height="9.8"/>
	<rect x="57.8" y="181.2" class="st0" width="10.1" height="9.8"/>
	<rect x="57.8" y="191.7" class="st0" width="10.1" height="9.8"/>
	<rect x="46.9" y="33.1" class="st0" width="10.1" height="9.8"/>
	<rect x="46.9" y="149.4" class="st0" width="10.1" height="9.8"/>
	<rect x="46.9" y="160" class="st0" width="10.1" height="9.8"/>
	<rect x="46.9" y="170.6" class="st0" width="10.1" height="9.8"/>
	<rect x="46.9" y="181.2" class="st0" width="10.1" height="9.8"/>
	<rect x="46.9" y="191.7" class="st0" width="10.1" height="9.8"/>
	<rect x="36" y="33.1" class="st0" width="10.1" height="9.8"/>
	<rect x="36" y="43.7" class="st0" width="10.1" height="9.8"/>
	<rect x="36" y="54.3" class="st0" width="10.1" height="9.8"/>
	<rect x="36" y="64.8" class="st0" width="10.1" height="9.8"/>
	<rect x="36" y="75.4" class="st0" width="10.1" height="9.8"/>
	<rect x="36" y="86" class="st0" width="10.1" height="9.8"/>
	<rect x="36" y="96.6" class="st0" width="10.1" height="9.8"/>
	<rect x="36" y="107.1" class="st0" width="10.1" height="9.8"/>
	<rect x="36" y="117.7" class="st0" width="10.1" height="9.8"/>
	<rect x="36" y="128.3" class="st0" width="10.1" height="9.8"/>
	<rect x="36" y="138.9" class="st0" width="10.1" height="9.8"/>
	<rect x="36" y="149.4" class="st0" width="10.1" height="9.8"/>
	<rect x="36" y="160" class="st0" width="10.1" height="9.8"/>
	<rect x="36" y="170.6" class="st0" width="10.1" height="9.8"/>
	<rect x="36" y="181.2" class="st0" width="10.1" height="9.8"/>
	<rect x="36" y="191.7" class="st0" width="10.1" height="9.8"/>
	<g class="st1">
		
			<image style="overflow:visible;opacity:0.35;" width="203" height="208" xlink:href="830E2D87.png"  transform="matrix(1 0 0 1 16.3956 14.5221)">
		</image>
		<g>
			<g>
				<g>
					<rect x="177.5" y="96.6" class="st2" width="10.1" height="9.8"/>
				</g>
				<g>
					<rect x="177.5" y="107.1" class="st2" width="10.1" height="9.8"/>
				</g>
				<g>
					<rect x="177.5" y="117.7" class="st2" width="10.1" height="9.8"/>
				</g>
				<g>
					<rect x="177.5" y="181.2" class="st2" width="10.1" height="9.8"/>
				</g>
				<g>
					<rect x="166.6" y="86" class="st2" width="10.1" height="9.8"/>
				</g>
				<g>
					<rect x="166.6" y="128.3" class="st2" width="10.1" height="9.8"/>
				</g>
				<g>
					<rect x="166.6" y="170.6" class="st2" width="10.1" height="9.8"/>
				</g>
				<g>
					<rect x="155.7" y="86" class="st2" width="10.1" height="9.8"/>
				</g>
				<g>
					<rect x="155.7" y="128.3" class="st2" width="10.1" height="9.8"/>
				</g>
				<g>
					<rect x="155.7" y="160" class="st2" width="10.1" height="9.8"/>
				</g>
				<g>
					<rect x="144.8" y="86" class="st2" width="10.1" height="9.8"/>
				</g>
				<g>
					<rect x="144.8" y="128.3" class="st2" width="10.1" height="9.8"/>
				</g>
				<g>
					<rect x="144.8" y="149.4" class="st2" width="10.1" height="9.8"/>
				</g>
				<g>
					<rect x="133.9" y="86" class="st2" width="10.1" height="9.8"/>
				</g>
				<g>
					<rect x="133.9" y="128.3" class="st2" width="10.1" height="9.8"/>
				</g>
				<g>
					<rect x="133.9" y="138.9" class="st2" width="10.1" height="9.8"/>
				</g>
				<g>
					<rect x="123.1" y="86" class="st2" width="10.1" height="9.8"/>
				</g>
				<g>
					<rect x="123.1" y="96.6" class="st2" width="10.1" height="9.8"/>
				</g>
				<g>
					<rect x="123.1" y="107.1" class="st2" width="10.1" height="9.8"/>
				</g>
				<g>
					<rect x="123.1" y="117.7" class="st2" width="10.1" height="9.8"/>
				</g>
				<g>
					<rect x="123.1" y="128.3" class="st2" width="10.1" height="9.8"/>
				</g>
				<g>
					<rect x="123.1" y="138.9" class="st2" width="10.1" height="9.8"/>
				</g>
				<g>
					<rect x="123.1" y="149.4" class="st2" width="10.1" height="9.8"/>
				</g>
				<g>
					<rect x="123.1" y="160" class="st2" width="10.1" height="9.8"/>
				</g>
				<g>
					<rect x="123.1" y="170.6" class="st2" width="10.1" height="9.8"/>
				</g>
				<g>
					<rect x="123.1" y="181.2" class="st2" width="10.1" height="9.8"/>
				</g>
				<g>
					<rect x="101.3" y="54.3" class="st2" width="10.1" height="9.8"/>
				</g>
				<g>
					<rect x="101.3" y="64.8" class="st2" width="10.1" height="9.8"/>
				</g>
				<g>
					<rect x="101.3" y="75.4" class="st2" width="10.1" height="9.8"/>
				</g>
				<g>
					<rect x="90.4" y="43.7" class="st2" width="10.1" height="9.8"/>
				</g>
				<g>
					<rect x="90.4" y="86" class="st2" width="10.1" height="9.8"/>
				</g>
				<g>
					<rect x="79.5" y="43.7" class="st2" width="10.1" height="9.8"/>
				</g>
				<g>
					<rect x="79.5" y="86" class="st2" width="10.1" height="9.8"/>
				</g>
				<g>
					<rect x="68.6" y="43.7" class="st2" width="10.1" height="9.8"/>
				</g>
				<g>
					<rect x="68.6" y="86" class="st2" width="10.1" height="9.8"/>
				</g>
				<g>
					<rect x="57.8" y="43.7" class="st2" width="10.1" height="9.8"/>
				</g>
				<g>
					<rect x="57.8" y="86" class="st2" width="10.1" height="9.8"/>
				</g>
				<g>
					<rect x="46.9" y="43.7" class="st2" width="10.1" height="9.8"/>
				</g>
				<g>
					<rect x="46.9" y="54.3" class="st2" width="10.1" height="9.8"/>
				</g>
				<g>
					<rect x="46.9" y="64.8" class="st2" width="10.1" height="9.8"/>
				</g>
				<g>
					<rect x="46.9" y="75.4" class="st2" width="10.1" height="9.8"/>
				</g>
				<g>
					<rect x="46.9" y="86" class="st2" width="10.1" height="9.8"/>
				</g>
				<g>
					<rect x="46.9" y="96.6" class="st2" width="10.1" height="9.8"/>
				</g>
				<g>
					<rect x="46.9" y="107.1" class="st2" width="10.1" height="9.8"/>
				</g>
				<g>
					<rect x="46.9" y="117.7" class="st2" width="10.1" height="9.8"/>
				</g>
				<g>
					<rect x="46.9" y="128.3" class="st2" width="10.1" height="9.8"/>
				</g>
				<g>
					<rect x="46.9" y="138.9" class="st2" width="10.1" height="9.8"/>
				</g>
				<g>
					<rect x="25.1" y="22.6" class="st2" width="10.1" height="9.8"/>
				</g>
				<g>
					<rect x="25.1" y="33.1" class="st2" width="10.1" height="9.8"/>
				</g>
				<g>
					<rect x="25.1" y="43.7" class="st2" width="10.1" height="9.8"/>
				</g>
				<g>
					<rect x="25.1" y="54.3" class="st2" width="10.1" height="9.8"/>
				</g>
				<g>
					<rect x="25.1" y="64.8" class="st2" width="10.1" height="9.8"/>
				</g>
				<g>
					<rect x="25.1" y="75.4" class="st2" width="10.1" height="9.8"/>
				</g>
				<g>
					<rect x="25.1" y="86" class="st2" width="10.1" height="9.8"/>
				</g>
				<g>
					<rect x="25.1" y="96.6" class="st2" width="10.1" height="9.8"/>
				</g>
				<g>
					<rect x="25.1" y="107.1" class="st2" width="10.1" height="9.8"/>
				</g>
				<g>
					<rect x="25.1" y="117.7" class="st2" width="10.1" height="9.8"/>
				</g>
				<g>
					<rect x="25.1" y="128.3" class="st2" width="10.1" height="9.8"/>
				</g>
				<g>
					<rect x="25.1" y="138.9" class="st2" width="10.1" height="9.8"/>
				</g>
				<g>
					<rect x="25.1" y="149.4" class="st2" width="10.1" height="9.8"/>
				</g>
				<g>
					<rect x="25.1" y="160" class="st2" width="10.1" height="9.8"/>
				</g>
				<g>
					<rect x="25.1" y="170.6" class="st2" width="10.1" height="9.8"/>
				</g>
				<g>
					<rect x="25.1" y="181.2" class="st2" width="10.1" height="9.8"/>
				</g>
				<g>
					<rect x="25.1" y="191.7" class="st2" width="10.1" height="9.8"/>
				</g>
				<g>
					<rect x="199.2" y="33.1" class="st2" width="10.1" height="9.8"/>
				</g>
				<g>
					<rect x="199.2" y="43.7" class="st2" width="10.1" height="9.8"/>
				</g>
				<g>
					<rect x="199.2" y="54.3" class="st2" width="10.1" height="9.8"/>
				</g>
				<g>
					<rect x="199.2" y="64.8" class="st2" width="10.1" height="9.8"/>
				</g>
				<g>
					<rect x="199.2" y="75.4" class="st2" width="10.1" height="9.8"/>
				</g>
				<g>
					<rect x="199.2" y="86" class="st2" width="10.1" height="9.8"/>
				</g>
				<g>
					<rect x="199.2" y="96.6" class="st2" width="10.1" height="9.8"/>
				</g>
				<g>
					<rect x="199.2" y="107.1" class="st2" width="10.1" height="9.8"/>
				</g>
				<g>
					<rect x="199.2" y="117.7" class="st2" width="10.1" height="9.8"/>
				</g>
				<g>
					<rect x="199.2" y="128.3" class="st2" width="10.1" height="9.8"/>
				</g>
				<g>
					<rect x="199.2" y="138.9" class="st2" width="10.1" height="9.8"/>
				</g>
				<g>
					<rect x="199.2" y="149.4" class="st2" width="10.1" height="9.8"/>
				</g>
				<g>
					<rect x="199.2" y="160" class="st2" width="10.1" height="9.8"/>
				</g>
				<g>
					<rect x="199.2" y="170.6" class="st2" width="10.1" height="9.8"/>
				</g>
				<g>
					<rect x="199.2" y="181.2" class="st2" width="10.1" height="9.8"/>
				</g>
				<g>
					<rect x="199.2" y="191.7" class="st2" width="10.1" height="9.8"/>
				</g>
				<g>
					<rect x="25.1" y="202.3" class="st2" width="10.1" height="9.8"/>
				</g>
				<g>
					<rect x="36" y="22.6" class="st2" width="10.1" height="9.8"/>
				</g>
				<g>
					<rect x="46.9" y="22.6" class="st2" width="10.1" height="9.8"/>
				</g>
				<g>
					<rect x="57.8" y="22.6" class="st2" width="10.1" height="9.8"/>
				</g>
				<g>
					<rect x="68.6" y="22.6" class="st2" width="10.1" height="9.8"/>
				</g>
				<g>
					<rect x="79.5" y="22.6" class="st2" width="10.1" height="9.8"/>
				</g>
				<g>
					<rect x="90.4" y="22.6" class="st2" width="10.1" height="9.8"/>
				</g>
				<g>
					<rect x="101.3" y="22.6" class="st2" width="10.1" height="9.8"/>
				</g>
				<g>
					<rect x="112.2" y="22.6" class="st2" width="10.1" height="9.8"/>
				</g>
				<g>
					<rect x="123.1" y="22.6" class="st2" width="10.1" height="9.8"/>
				</g>
				<g>
					<rect x="133.9" y="22.6" class="st2" width="10.1" height="9.8"/>
				</g>
				<g>
					<rect x="144.8" y="22.6" class="st2" width="10.1" height="9.8"/>
				</g>
				<g>
					<rect x="155.7" y="22.6" class="st2" width="10.1" height="9.8"/>
				</g>
				<g>
					<rect x="166.6" y="22.6" class="st2" width="10.1" height="9.8"/>
				</g>
				<g>
					<rect x="177.5" y="22.6" class="st2" width="10.1" height="9.8"/>
				</g>
				<g>
					<rect x="188.3" y="22.6" class="st2" width="10.1" height="9.8"/>
				</g>
				<g>
					<rect x="199.2" y="22.6" class="st2" width="10.1" height="9.8"/>
				</g>
				<g>
					<rect x="36" y="202.3" class="st2" width="10.1" height="9.8"/>
				</g>
				<g>
					<rect x="46.9" y="202.3" class="st2" width="10.1" height="9.8"/>
				</g>
				<g>
					<rect x="57.8" y="202.3" class="st2" width="10.1" height="9.8"/>
				</g>
				<g>
					<rect x="68.6" y="202.3" class="st2" width="10.1" height="9.8"/>
				</g>
				<g>
					<rect x="79.5" y="202.3" class="st2" width="10.1" height="9.8"/>
				</g>
				<g>
					<rect x="90.4" y="202.3" class="st2" width="10.1" height="9.8"/>
				</g>
				<g>
					<rect x="101.3" y="202.3" class="st2" width="10.1" height="9.8"/>
				</g>
				<g>
					<rect x="112.2" y="202.3" class="st2" width="10.1" height="9.8"/>
				</g>
				<g>
					<rect x="123.1" y="202.3" class="st2" width="10.1" height="9.8"/>
				</g>
				<g>
					<rect x="133.9" y="202.3" class="st2" width="10.1" height="9.8"/>
				</g>
				<g>
					<rect x="144.8" y="202.3" class="st2" width="10.1" height="9.8"/>
				</g>
				<g>
					<rect x="155.7" y="202.3" class="st2" width="10.1" height="9.8"/>
				</g>
				<g>
					<rect x="166.6" y="202.3" class="st2" width="10.1" height="9.8"/>
				</g>
				<g>
					<rect x="177.5" y="202.3" class="st2" width="10.1" height="9.8"/>
				</g>
				<g>
					<rect x="188.3" y="202.3" class="st2" width="10.1" height="9.8"/>
				</g>
				<g>
					<rect x="199.2" y="202.3" class="st2" width="10.1" height="9.8"/>
				</g>
			</g>
		</g>
	</g>
	<g class="st3">
		
			<image style="overflow:visible;opacity:0.35;" width="99" height="34" xlink:href="830E2D85.png"  transform="matrix(1 0 0 1 30.3956 169.5221)">
		</image>
		<g>
			<g>
				<path class="st2" d="M47.6,188.6C47.6,188.6,47.6,188.7,47.6,188.6c-0.1,0.1-0.1,0.1-0.1,0.1c0,0.1,0,0.2,0,0.3
					c0,0.1,0,0.1,0,0.1s0,0.1,0,0.1s0,0,0,0.1c0,0,0,0,0,0c0,0,0,0,0,0.1c0,0,0,0,0,0.1s0,0.1,0,0.1c-0.1,0.1-0.1,0.1,0,0.2
					s0,0.2,0,0.2c0,0,0,0,0.1,0c0,0.1,0,0.1,0,0.2s0,0.1,0,0.1l0,0.1c0,0.2,0,0.3,0,0.3s0,0.1,0,0.2c0,0.1,0,0.1,0,0.2
					c0,0.1,0,0.2,0,0.3c0,0,0,0,0,0s0,0,0,0.1h0v0.1h0l0,0l0,0.1h0v0c0,0,0,0,0.1,0c0,0.1,0,0.2,0,0.3c0,0.1,0.1,0.2,0,0.3
					c0,0,0,0,0,0c0-0.1,0-0.1-0.1-0.2v0.1c0,0,0,0,0.1,0c0,0,0,0,0,0c0,0,0,0,0,0c0,0,0,0,0,0c0,0.1,0,0.1-0.1,0.1s0,0,0,0.1
					c0,0,0,0,0,0c0,0,0,0,0,0s0,0,0,0c0,0,0,0,0,0c-0.1,0-0.1,0-0.1,0c0,0,0,0,0,0c0,0,0,0,0,0c0,0,0,0-0.1-0.1c0-0.1,0-0.2-0.1-0.2
					s0-0.1-0.1-0.2c0-0.1,0-0.2,0-0.2c0,0-0.1-0.1-0.1-0.2c0-0.3,0-0.5,0-0.6c0-0.1,0-0.2,0-0.3c0-0.1,0-0.2,0-0.3s0-0.3,0-0.6
					c0,0,0-0.1,0-0.2c0-0.1,0-0.2,0-0.2c0,0,0,0,0-0.1s0,0,0-0.1c0,0,0,0,0,0c0,0,0,0,0,0c0-0.3,0-0.5,0-0.8c0-0.3,0.1-0.5,0.1-0.8
					c0,0,0,0,0,0c0,0,0,0,0,0c0,0,0,0,0,0c0,0,0,0,0,0c0-0.2,0-0.5,0.1-0.8c0.1-0.3,0.1-0.6,0.1-0.8l-0.1-0.1c0,0,0,0,0,0.1
					s0,0-0.1,0c0,0,0,0,0-0.1c0,0-0.1,0-0.1,0c0,0,0,0,0,0v0c-0.1,0-0.2,0.1-0.4,0.1c-0.1,0-0.3,0-0.4,0.1c0,0,0,0,0.1-0.1
					c0,0-0.1,0-0.1,0c0,0-0.1,0.1-0.1,0.1c0,0-0.1,0-0.1,0c0,0,0,0-0.1,0c0,0,0-0.1,0-0.1c0,0,0,0.1-0.1,0.1c0,0-0.1,0.1-0.1,0.1
					c0,0,0,0,0,0c0,0,0,0,0,0c-0.1,0-0.2,0-0.2,0.1c-0.1,0-0.2,0-0.2,0c0,0-0.1,0-0.1,0c0,0,0,0-0.1,0c0,0-0.1,0-0.1,0
					c0,0-0.1,0-0.1,0l-0.1,0c-0.2,0.1-0.5,0.1-0.7,0.1c-0.3,0-0.5,0-0.7,0.1c-0.4,0.7-0.8,1.4-1.1,2.2c-0.4,0.8-0.8,1.5-1.2,2.1
					c-0.1,0-0.2,0-0.3,0c-0.1,0-0.1,0-0.2-0.1c-0.1,0-0.1-0.1-0.2-0.1c-0.1,0-0.1-0.1-0.2-0.1c0-0.1,0-0.1,0.1-0.1
					c0.3-0.6,0.6-1.2,0.9-1.8c0.3-0.6,0.6-1.2,0.9-1.8c0,0,0,0-0.1,0c0,0,0,0-0.1,0l0,0c-0.2,0-0.4,0.1-0.6,0.1s-0.4,0.1-0.6,0.1
					c-0.1,0.1-0.3,0.1-0.5,0.1s-0.3,0-0.5,0.1c-0.1,0-0.1,0-0.2,0.1s-0.1,0-0.1,0.1c0,0-0.1,0-0.1,0c0,0-0.1,0-0.1,0
					c0,0-0.1,0-0.1,0c0,0-0.1,0-0.1,0c0-0.1,0-0.2-0.1-0.3c0-0.1-0.1-0.2-0.1-0.3c0.1,0,0.1,0,0.1,0c0.2-0.1,0.3-0.1,0.5-0.2
					s0.3-0.1,0.5-0.1c0.2,0,0.3-0.1,0.5-0.1c0.2,0,0.3-0.1,0.5-0.1c0.3-0.1,0.5-0.1,0.8-0.2c0.3-0.1,0.5-0.1,0.8-0.2c0,0,0,0,0-0.1
					c0,0,0-0.1,0-0.1c0.1,0,0.1-0.1,0.1-0.1c0,0,0.1-0.1,0.1-0.2c0.6-1,1.3-2.1,1.9-3.1c0.7-1,1.4-2,2.2-2.9
					c0.1-0.1,0.2-0.2,0.3-0.3c0.1-0.1,0.2-0.2,0.3-0.3c0-0.1,0.1-0.1,0.1-0.1c0.1,0,0.2-0.1,0.2-0.1s0.1-0.1,0.2-0.2
					c0.1-0.1,0.2-0.1,0.2-0.2c0.1,0,0.2-0.1,0.3-0.1c0.1,0,0.2,0.1,0.3,0.2s0.1,0.2,0.2,0.4c0.1,0.1,0.2,0.2,0.2,0.2
					c0,0.1,0.1,0.2,0,0.4c0,0.1,0,0.2,0,0.2s0,0.1,0,0.2c0,0.1,0,0.2-0.1,0.2s0,0.1-0.1,0.2c0,0,0,0,0,0.1c0,0,0,0.1,0,0.1
					c0,0.1,0,0.2-0.1,0.2c0,0.1-0.1,0.2-0.1,0.2c0,0.1,0,0.2,0,0.2s0,0.2,0,0.3c0,0.1,0,0.1-0.1,0.2c0,0.1-0.1,0.1-0.1,0.2
					c-0.1,0.4-0.2,0.8-0.2,1.1c-0.1,0.3-0.1,0.7-0.2,1.1c0,0,0,0,0,0c0,0,0,0,0,0c0,0,0,0,0,0c0,0.1,0,0.1,0,0.1c0,0,0,0.1-0.1,0.1
					c0,0,0,0,0,0c0,0,0,0,0,0.1c0,0,0,0,0,0c0,0,0,0,0,0c0,0.1,0,0.2,0,0.2c0,0.1,0,0.2,0,0.2c0,0,0,0,0,0.1s0,0.1,0,0.1
					c0.2,0,0.4,0,0.6,0c0.2,0,0.4,0,0.6,0c0,0-0.1,0-0.1,0c0,0-0.1,0-0.2,0l0.3,0c0,0-0.1,0.1-0.1,0c0,0-0.1,0-0.2,0
					c0,0,0.1,0,0.1,0c-0.1,0.1-0.2,0.1-0.3,0c-0.1,0-0.2,0-0.3,0c0,0,0,0,0,0s0,0,0,0c-0.1,0-0.2,0-0.2,0s-0.2,0-0.2,0
					c0.1,0,0.1,0,0.2,0c0.1,0,0.2,0,0.3,0c-0.1,0.1-0.1,0.1-0.2,0.1c-0.1,0-0.1,0-0.2,0c0,0,0,0,0-0.1c0,0-0.1,0-0.1,0
					c0,0,0,0.1,0,0.1c0,0,0,0-0.1,0c0.2,0,0.4,0,0.5,0c0.2,0,0.3,0,0.5,0c-0.1,0-0.1,0-0.1,0c0,0-0.1,0-0.1,0c0,0,0,0,0,0s0,0,0,0
					c0,0-0.1,0-0.1,0c0,0,0,0-0.1,0c0,0,0,0,0,0c0,0,0,0,0,0c-0.1,0-0.3,0-0.4,0c-0.1,0-0.3,0-0.4,0c0.1,0,0.1,0.1,0.1,0.1l-0.1,0.1
					c0,0,0,0,0,0c-0.1,0-0.1,0-0.1,0c0,0,0,0,0,0c0,0,0,0,0-0.1c0,0,0,0,0,0c0,0,0,0,0,0c0,0,0,0,0,0c0,0,0,0,0,0l0,0v0v0
					c0,0,0,0,0,0c0,0,0,0,0,0v0h0v0c0,0-0.1,0,0,0l0,0c0,0,0,0,0,0c0,0,0,0,0,0c0,0,0,0.1,0,0.1c0,0,0,0.1,0,0.1c0,0,0,0,0,0
					c0,0,0-0.1,0-0.1c0,0,0,0,0,0.1s0,0.2,0,0.2c0,0.1,0,0.2,0,0.2c0,0.1,0,0.1,0,0.1c0,0.1,0,0.2,0,0.4c-0.1,0.2-0.1,0.6-0.2,1.1
					c0,0,0,0-0.1,0L47.6,188.6z M46.4,185.5c0,0-0.1,0-0.1,0C46.3,185.5,46.4,185.4,46.4,185.5L46.4,185.5c0.2,0,0.2,0,0.2-0.1
					c0,0,0.1,0,0.1,0c0,0,0,0,0,0c0.1,0,0.2,0,0.2,0s0.1,0,0.2,0c0,0,0,0-0.1,0c0,0,0,0,0,0c0.1,0,0.1,0,0.1,0s0.1,0,0.1,0
					c0.1-0.3,0.1-0.6,0.1-0.9c0-0.3,0.1-0.6,0.1-0.9l0.2-0.6c0,0,0,0,0-0.1s0,0,0-0.1l0,0c0,0,0-0.1,0-0.2c0-0.1,0-0.1,0-0.1
					c0.1-0.1,0.1-0.2,0.1-0.3c0-0.1,0-0.2,0.1-0.3c0-0.1,0-0.1,0-0.2s0-0.1,0-0.1l0.1-0.5c0-0.1,0.1-0.2,0.1-0.3
					c0-0.1,0.1-0.2,0.1-0.3c0,0,0-0.1,0-0.1c0-0.1,0-0.3,0.1-0.4c0-0.1,0.1-0.2,0.1-0.4c-0.2,0.1-0.3,0.2-0.4,0.3
					c-0.1,0.1-0.2,0.2-0.4,0.4c-0.2,0.3-0.4,0.5-0.6,0.7c-0.2,0.2-0.4,0.5-0.6,0.8c-0.1,0.1-0.2,0.3-0.3,0.4
					c-0.1,0.2-0.2,0.3-0.3,0.5c0,0,0,0.1,0,0.1s0,0,0,0c-0.3,0.5-0.6,0.9-0.9,1.4c-0.3,0.5-0.6,0.9-0.9,1.4c0,0.1,0,0.1-0.1,0.1
					c0,0-0.1,0.1,0,0.1c0.1,0,0.2-0.1,0.3-0.1l-0.1,0c0.2,0,0.4-0.1,0.5-0.1c0.1,0,0.3,0,0.5,0c0,0,0,0,0,0c0.1,0,0.1,0,0.1,0
					c0,0,0,0,0,0h0l0,0c0.2,0,0.4-0.1,0.6-0.1c0.2,0,0.4-0.1,0.5,0c0,0,0,0,0,0s0,0,0,0L46.4,185.5z M44.8,185.7
					c0.1,0,0.1,0,0.1-0.1C44.9,185.6,44.8,185.6,44.8,185.7L44.8,185.7C44.8,185.6,44.8,185.7,44.8,185.7L44.8,185.7L44.8,185.7z
					 M44.8,185.6C44.8,185.6,44.8,185.7,44.8,185.6L44.8,185.6L44.8,185.6c0.1,0,0.1,0,0.1,0C44.9,185.6,44.8,185.6,44.8,185.6
					L44.8,185.6z M45.2,186.4C45.2,186.4,45.1,186.4,45.2,186.4C45.1,186.4,45.1,186.4,45.2,186.4C45.1,186.4,45.1,186.4,45.2,186.4
					z M45.2,185.6C45.2,185.6,45.2,185.6,45.2,185.6C45.2,185.6,45.2,185.6,45.2,185.6C45.2,185.6,45.2,185.6,45.2,185.6L45.2,185.6
					z M45.8,186.2C45.8,186.2,45.8,186.2,45.8,186.2C45.8,186.2,45.8,186.2,45.8,186.2C45.8,186.3,45.8,186.3,45.8,186.2L45.8,186.2
					L45.8,186.2C45.8,186.3,45.8,186.3,45.8,186.2L45.8,186.2L45.8,186.2z M45.8,186.2C45.8,186.2,45.8,186.2,45.8,186.2
					C45.8,186.2,45.8,186.2,45.8,186.2C45.8,186.3,45.8,186.3,45.8,186.2L45.8,186.2L45.8,186.2C45.8,186.3,45.8,186.3,45.8,186.2
					L45.8,186.2L45.8,186.2z M46,186.3C45.9,186.3,45.9,186.3,46,186.3C45.9,186.3,45.9,186.3,46,186.3z M46.4,185.9
					c0,0,0.1,0,0.1,0c0,0,0,0,0,0v0c0,0,0,0,0,0L46.4,185.9L46.4,185.9C46.4,185.9,46.4,185.9,46.4,185.9z M46.4,185.9
					c0,0,0.1,0,0.1,0c0,0,0,0,0,0v0c0,0,0,0,0,0L46.4,185.9L46.4,185.9C46.4,185.9,46.4,185.9,46.4,185.9z M46.8,186.1L46.8,186.1
					L46.8,186.1L46.8,186.1c-0.1,0-0.1,0-0.1,0c0,0,0,0,0,0h0c0,0,0,0,0,0l-0.1,0h0c0,0,0.1,0,0.1,0c0,0,0,0,0,0c0,0,0,0,0,0
					L46.8,186.1L46.8,186.1L46.8,186.1z M46.4,186.2c0,0,0.1,0,0.1,0c0,0,0,0,0,0c0,0,0,0,0,0h0l0.1,0h0h0h0h0c0,0,0,0,0,0
					c0,0,0,0,0,0h0C46.5,186.2,46.5,186.2,46.4,186.2L46.4,186.2L46.4,186.2z M46.6,185.9L46.6,185.9l0.1,0l0,0h0.1l0,0h0h0
					c0,0,0,0,0.1,0h-0.2c0,0,0,0-0.1,0C46.7,185.8,46.7,185.8,46.6,185.9L46.6,185.9L46.6,185.9C46.6,185.8,46.6,185.9,46.6,185.9
					C46.6,185.9,46.6,185.9,46.6,185.9L46.6,185.9z M46.6,185.9L46.6,185.9l0.1,0l0,0h0.1l0,0h0h0c0,0,0,0,0.1,0h-0.2c0,0,0,0-0.1,0
					C46.7,185.8,46.7,185.8,46.6,185.9L46.6,185.9L46.6,185.9C46.6,185.8,46.6,185.9,46.6,185.9C46.6,185.9,46.6,185.9,46.6,185.9
					L46.6,185.9z M46.7,185.8L46.7,185.8L46.7,185.8L46.7,185.8L46.7,185.8L46.7,185.8L46.7,185.8L46.7,185.8L46.7,185.8L46.7,185.8
					L46.7,185.8L46.7,185.8L46.7,185.8z M46.7,185.8L46.7,185.8L46.7,185.8L46.7,185.8L46.7,185.8L46.7,185.8L46.7,185.8L46.7,185.8
					L46.7,185.8L46.7,185.8L46.7,185.8L46.7,185.8L46.7,185.8z M46.9,185.9C46.9,185.9,47,185.9,46.9,185.9L46.9,185.9L46.9,185.9
					c-0.1,0-0.1,0-0.1,0L46.9,185.9L46.9,185.9z M46.8,185.9L46.8,185.9l0.1,0c0,0,0,0,0,0l0,0L46.8,185.9
					C46.8,185.9,46.8,185.9,46.8,185.9z M46.8,190.4c0,0.1,0,0.1,0,0.1c0,0,0,0.1,0,0.1c0,0,0,0,0-0.1
					C46.9,190.5,46.9,190.4,46.8,190.4z M46.9,190L46.9,190L46.9,190L46.9,190C46.9,190,46.9,190,46.9,190L46.9,190L46.9,190
					L46.9,190L46.9,190C46.9,189.9,46.9,189.9,46.9,190L46.9,190z M46.9,190L46.9,190L46.9,190L46.9,190C46.9,190,46.9,190,46.9,190
					L46.9,190L46.9,190L46.9,190L46.9,190C46.9,189.9,46.9,189.9,46.9,190L46.9,190z M47.1,185.8L47.1,185.8L47.1,185.8L47.1,185.8
					L47.1,185.8C47.1,185.8,47.1,185.8,47.1,185.8C47.1,185.9,47.1,185.9,47.1,185.8L47.1,185.8L47.1,185.8l0.1,0.1v0L47.1,185.8
					C47.1,185.8,47.1,185.8,47.1,185.8L47.1,185.8L47.1,185.8L47.1,185.8L47.1,185.8L47.1,185.8c0.1,0,0.1,0,0.1,0l0,0v0H47.1z
					 M47.1,185.8L47.1,185.8L47.1,185.8L47.1,185.8L47.1,185.8C47.1,185.8,47.1,185.8,47.1,185.8C47.1,185.9,47.1,185.9,47.1,185.8
					L47.1,185.8L47.1,185.8l0.1,0.1v0L47.1,185.8C47.1,185.8,47.1,185.8,47.1,185.8L47.1,185.8L47.1,185.8L47.1,185.8L47.1,185.8
					L47.1,185.8c0.1,0,0.1,0,0.1,0l0,0v0H47.1z M47,190.7C47,190.7,47,190.8,47,190.7C47,190.8,47.1,190.7,47,190.7
					C47.1,190.7,47,190.7,47,190.7z M47,190.4c0,0.1,0,0.1,0,0.1s0,0.1,0,0.1c0,0,0-0.1,0-0.1C47.1,190.5,47.1,190.4,47,190.4z
					 M47.1,186.2C47.1,186.2,47.1,186.2,47.1,186.2C47.1,186.1,47.1,186.1,47.1,186.2C47.1,186.1,47.1,186.1,47.1,186.2
					C47.1,186.1,47.1,186.1,47.1,186.2z M47.1,191.9C47.1,191.9,47.1,191.9,47.1,191.9c0,0.1,0,0.1,0,0.1
					C47.1,192,47.1,191.9,47.1,191.9z M47.2,190.1c0,0.1,0,0.1,0,0.1c0,0,0,0.1,0,0.1c0,0,0,0,0,0s0,0,0,0
					C47.2,190.3,47.2,190.3,47.2,190.1C47.2,190.2,47.2,190.2,47.2,190.1z M47.3,189.5L47.3,189.5C47.3,189.4,47.3,189.4,47.3,189.5
					L47.3,189.5L47.3,189.5L47.3,189.5L47.3,189.5L47.3,189.5z M47.3,189.4C47.3,189.4,47.3,189.4,47.3,189.4L47.3,189.4L47.3,189.4
					L47.3,189.4L47.3,189.4L47.3,189.4L47.3,189.4z M47.3,189.5c0,0.1,0,0.1,0,0.2c0,0,0,0.1,0,0.2c0,0,0-0.1,0-0.2
					C47.3,189.6,47.3,189.5,47.3,189.5z M47.3,189c0,0,0,0.1,0,0.1c0,0.1,0,0.1,0,0.1c0-0.1,0-0.1,0-0.1
					C47.3,189.1,47.3,189.1,47.3,189z M47.3,192.1C47.3,192.1,47.3,192,47.3,192.1C47.3,192.1,47.3,192.1,47.3,192.1
					c0,0.1,0,0.1,0,0.1C47.3,192.2,47.3,192.2,47.3,192.1C47.3,192.1,47.3,192.1,47.3,192.1z M47.3,192.5L47.3,192.5
					C47.3,192.5,47.3,192.5,47.3,192.5z M47.3,191.9L47.3,191.9L47.3,191.9z M47.3,192.5L47.3,192.5L47.3,192.5L47.3,192.5z
					 M48,185.8C48,185.8,48,185.7,48,185.8L48,185.8C48,185.7,48,185.7,48,185.8l0.1-0.1l0,0h0c0,0,0,0,0,0c0,0,0,0,0,0v0l0,0v0
					L48,185.8L48,185.8L48,185.8z M48,185.8C48,185.8,48,185.7,48,185.8L48,185.8C48,185.7,48,185.7,48,185.8l0.1-0.1l0,0h0
					c0,0,0,0,0,0c0,0,0,0,0,0v0l0,0v0L48,185.8L48,185.8L48,185.8z M48,185L48,185L48,185L48,185L48,185L48,185L48,185L48,185
					L48,185z M48.1,185L48.1,185L48.1,185L48.1,185L48.1,185L48.1,185L48.1,185L48.1,185L48.1,185z M48.1,185.9
					C48.1,185.9,48.1,185.9,48.1,185.9L48.1,185.9C48,185.9,48,185.9,48.1,185.9C48,185.9,48,185.9,48.1,185.9L48.1,185.9
					L48.1,185.9L48.1,185.9L48.1,185.9C48.1,185.9,48.1,185.9,48.1,185.9L48.1,185.9L48.1,185.9z M48,185.9
					C48,185.9,48,185.9,48,185.9C48,185.9,48,185.9,48,185.9L48,185.9L48,185.9L48,185.9L48,185.9C48.1,186,48.1,186,48,185.9
					L48,185.9L48,185.9L48,185.9C48.1,185.9,48.1,185.9,48,185.9L48,185.9z M48.1,186.6C48,186.6,48,186.7,48.1,186.6
					C48,186.6,48,186.6,48.1,186.6C48.1,186.5,48.1,186.6,48.1,186.6z M48.1,186.3c0,0,0,0.1-0.1,0.2C48,186.5,48,186.5,48.1,186.3
					L48.1,186.3z M48.1,186.2L48.1,186.2L48.1,186.2L48.1,186.2z M48.4,185.9C48.4,185.9,48.3,185.9,48.4,185.9
					C48.3,185.8,48.4,185.8,48.4,185.9z M48.4,185.9C48.4,186,48.4,186,48.4,185.9C48.4,186,48.3,186,48.4,185.9
					C48.3,186,48.4,185.9,48.4,185.9z M48.4,179.3C48.4,179.3,48.4,179.3,48.4,179.3C48.4,179.3,48.4,179.3,48.4,179.3L48.4,179.3
					L48.4,179.3L48.4,179.3L48.4,179.3z M48.4,179.3C48.4,179.3,48.4,179.3,48.4,179.3C48.4,179.3,48.4,179.3,48.4,179.3L48.4,179.3
					L48.4,179.3L48.4,179.3L48.4,179.3z M48.5,185.8c0.1,0,0.1,0,0.1,0c0,0,0.1,0,0.1,0c0,0-0.1,0.1-0.1,0.1c0,0-0.1,0-0.2,0
					C48.5,185.9,48.5,185.9,48.5,185.8C48.5,185.9,48.5,185.9,48.5,185.8z M49,185.6C49,185.6,49,185.6,49,185.6c-0.1,0-0.2,0-0.2,0
					c0,0,0,0,0.1,0C49,185.6,49,185.6,49,185.6z M49,185.8C49,185.9,48.9,185.9,49,185.8c-0.1,0-0.2,0-0.2,0
					C48.8,185.8,48.9,185.8,49,185.8C48.9,185.8,48.9,185.8,49,185.8z"/>
				<path class="st2" d="M53.5,189.1C53.5,189.1,53.5,189.1,53.5,189.1c-0.1,0-0.1,0-0.1,0c0,0,0,0-0.1,0c0,0.1-0.1,0.1-0.1,0.2
					c0,0-0.1,0.1-0.1,0c0,0,0,0-0.1,0.1s-0.1,0-0.1,0.1c0,0,0,0,0,0c0,0-0.1,0-0.2,0.1c-0.1,0-0.2,0.1-0.3,0.1
					c-0.1,0-0.2,0.1-0.3,0.1s-0.1,0.1-0.2,0.1c-0.1,0-0.1,0-0.2,0c-0.1,0-0.2,0.1-0.2,0.1c-0.1,0-0.3,0.1-0.5,0.1
					c-0.2,0-0.4,0-0.6,0c-0.1,0-0.1,0-0.1,0c0,0,0,0,0,0c0,0,0,0,0,0s0,0-0.1,0c0,0,0-0.1,0-0.1c0,0,0,0-0.1,0c0,0,0,0-0.1-0.1
					s-0.1,0-0.1,0c-0.2-0.2-0.4-0.4-0.5-0.7s-0.2-0.5-0.2-0.9c0,0,0-0.1,0-0.1c0,0,0-0.1,0-0.1v-0.7c0,0,0,0,0-0.1c0,0,0,0,0-0.1
					l0-0.4c0,0,0-0.1,0-0.1s0,0,0-0.1l0,0c0,0,0,0,0,0c0,0,0,0,0,0c0,0,0,0,0,0l0.1-0.3c0,0,0,0,0-0.1c0,0,0,0,0-0.1c0,0,0,0,0.1,0
					c0-0.1,0-0.1,0-0.2s0-0.1,0-0.1h0c0,0,0,0,0-0.1s0,0,0,0c0-0.2,0.1-0.3,0.1-0.4c0.1-0.1,0.1-0.3,0.1-0.4c0.1,0,0.1-0.1,0.1-0.1
					c0,0,0,0,0-0.1c0,0,0-0.1,0-0.1v0v0c0.1-0.1,0.2-0.3,0.2-0.4c0.2-0.2,0.3-0.5,0.4-0.7c0,0,0.1,0,0.1-0.1c0,0,0-0.1,0-0.1
					c0.1-0.1,0.1-0.2,0.2-0.3c0.1-0.1,0.1-0.2,0.2-0.3c0-0.1,0.1-0.2,0.1-0.2c0.1-0.1,0.1-0.2,0.2-0.2c0.2-0.3,0.4-0.5,0.6-0.8
					s0.4-0.5,0.8-0.7c0.1-0.1,0.1-0.1,0.2-0.1c0.1,0,0.1,0,0.2-0.1c0.3-0.2,0.5-0.1,0.8,0c0.1,0,0.1,0.1,0.2,0.1
					c0.1,0,0.1,0.1,0.2,0.1c0,0,0.1,0,0.1,0s0,0,0,0.1c0,0,0,0,0,0.1c0,0,0,0,0,0.1c0,0,0,0,0,0.1c0,0,0,0.1,0,0.1
					c0,0.1-0.1,0.1-0.1,0.2l0,0.2l-0.1,0.1c0,0.1-0.1,0.2-0.1,0.3c0,0.1-0.1,0.2-0.1,0.2c-0.1,0.3-0.2,0.5-0.4,0.7
					c-0.2,0.2-0.3,0.4-0.5,0.7c-0.1,0.1-0.2,0.3-0.3,0.4c-0.1,0.2-0.2,0.3-0.3,0.4c0,0-0.1,0-0.1,0.1c0,0-0.1,0.1-0.1,0.1
					c-0.1,0.1-0.3,0.3-0.3,0.4c-0.1,0.1-0.2,0.3-0.3,0.4c0,0.1-0.1,0.1-0.1,0.2s-0.1,0.1-0.1,0.2c0,0,0,0-0.1,0c0,0,0,0,0,0.1
					c-0.1,0-0.1,0.1-0.2,0.2c0,0.1-0.1,0.1-0.1,0.2c0,0,0,0.1-0.1,0.1c0,0-0.1,0.1-0.1,0.1c-0.1,0.1-0.2,0.2-0.3,0.3
					c-0.1,0.1-0.2,0.2-0.4,0.4c0,0,0,0-0.1,0v0.1c-0.1,0.2-0.1,0.5-0.1,0.8c0,0.3,0,0.6,0.1,0.9c0,0.2,0.1,0.3,0.1,0.3
					c0,0,0,0,0.1,0s0,0,0,0c0,0,0,0.1,0,0.2c0,0,0,0,0,0h0c0,0,0,0,0,0c0.2,0,0.4,0,0.4,0c0.1,0,0.2,0,0.3-0.1
					c0.2-0.1,0.3-0.1,0.5-0.2c0.2-0.1,0.3-0.1,0.5-0.2c0,0,0,0,0,0h0v0c0,0,0,0,0,0c0,0,0,0,0,0c0,0,0,0,0,0h0l0,0
					c0.2-0.1,0.4-0.2,0.5-0.4c0.2-0.1,0.3-0.3,0.5-0.4c0,0,0-0.1,0-0.1c0,0,0,0,0-0.1c0,0,0,0,0,0c0,0,0,0,0,0
					c0.1-0.1,0.2-0.1,0.3-0.1s0.1-0.1,0.1-0.2c0,0,0,0,0,0c0,0,0,0,0,0c0-0.1,0.1-0.1,0.1-0.1c0,0,0,0,0.1,0c0,0,0,0,0.1,0
					c0,0,0.1-0.1,0.1-0.1c0,0,0-0.1,0-0.1c0,0,0,0,0,0c0,0,0,0,0,0s0,0,0,0c0.1-0.1,0.2-0.2,0.3-0.3c0.1-0.1,0.1-0.1,0.1-0.1
					c0.1-0.1,0.1-0.1,0.1-0.1c0,0,0,0,0,0c0,0,0,0,0,0c0,0,0,0,0.1-0.1c0.1,0,0.1,0,0.1,0c0,0.1,0,0.1,0.1,0.1c0,0-0.1,0,0,0.1
					s0,0,0,0.1c0,0,0,0.1,0,0.1c0,0.1,0,0.2,0,0.2c0,0,0,0.1,0,0.1c0,0,0,0,0,0s0,0,0,0.1c0,0,0,0,0,0v0c0,0,0,0,0,0c0,0,0,0,0,0
					c0,0,0,0,0,0.1c0,0,0,0,0,0c0,0-0.1,0.1-0.1,0.1c0,0,0,0,0,0c0,0,0,0,0,0c0,0,0,0,0,0.1v0v0c0,0-0.1,0-0.1,0c0,0,0,0.1,0,0.1
					c0,0,0,0,0,0c0,0,0,0,0,0c0,0,0,0-0.1,0s0,0-0.1,0c0,0,0,0.1,0,0.1s0,0.1-0.1,0.1c0,0,0,0,0,0c0,0,0-0.1,0-0.1
					c-0.1,0-0.1,0.1-0.1,0.1l0,0c0,0,0,0,0,0c0,0,0,0,0,0.1c0,0,0,0.1-0.1,0.1c0,0.1-0.1,0.1-0.2,0.1l0,0v0c-0.1,0-0.1,0-0.1,0.1
					c0,0,0,0,0,0c0,0,0,0-0.1,0c0,0,0,0,0,0s0,0,0,0c0,0,0,0,0,0c0,0,0,0,0,0c-0.1,0.1-0.1,0.1-0.2,0.2
					C53.5,188.8,53.5,188.9,53.5,189.1C53.4,189,53.5,189,53.5,189.1C53.5,189,53.5,189,53.5,189.1z M49.7,186.6
					C49.7,186.5,49.7,186.5,49.7,186.6C49.7,186.5,49.7,186.5,49.7,186.6C49.7,186.5,49.7,186.5,49.7,186.6z M50.7,185.8
					c0.2-0.3,0.4-0.6,0.6-0.8s0.4-0.5,0.6-0.8c0,0,0,0,0,0c0.1-0.1,0.1-0.1,0.2-0.2c0-0.1,0.1-0.2,0.1-0.2c0.2-0.2,0.3-0.5,0.5-0.7
					c0.2-0.2,0.3-0.5,0.4-0.7c0.1-0.1,0.1-0.3,0.2-0.4c0.1-0.1,0.1-0.3,0.1-0.4c0.1-0.1,0.2-0.2,0.1-0.4c-0.1,0-0.2,0.1-0.3,0.2
					c-0.1,0.1-0.1,0.2-0.2,0.2c0,0.1-0.1,0.2-0.2,0.3c-0.1,0.1-0.1,0.2-0.2,0.2c-0.3,0.2-0.5,0.5-0.7,0.8c-0.2,0.3-0.3,0.6-0.5,0.9
					c0,0-0.1,0-0.1,0c0,0.1-0.1,0.2-0.1,0.2c-0.1,0.1-0.1,0.1-0.1,0.2c-0.1,0.1-0.1,0.2-0.1,0.2c0,0.1-0.1,0.2-0.1,0.2
					c0,0.1,0,0.1-0.1,0.2s-0.1,0.1-0.1,0.1v0.1c0,0,0,0.1-0.1,0.1c0,0,0,0.1,0,0.2c-0.1,0.1-0.1,0.1-0.1,0.2
					C50.7,185.6,50.7,185.7,50.7,185.8L50.7,185.8z M53.1,188.9C53.1,188.9,53.1,189,53.1,188.9C53.1,189,53.1,189,53.1,188.9
					C53.1,188.9,53.1,188.9,53.1,188.9c0.1,0,0.1,0,0.2-0.1c0,0,0.1-0.1,0.1-0.1c0,0,0,0,0,0c0,0,0,0,0.1-0.1c0,0,0-0.1,0-0.1
					c-0.1,0-0.1,0.1-0.2,0.1C53.2,188.7,53.2,188.8,53.1,188.9L53.1,188.9L53.1,188.9C53.1,188.9,53.1,188.9,53.1,188.9
					C53.1,188.9,53,188.9,53.1,188.9C53,189,53,189,53.1,188.9C53,189,53,189,53.1,188.9C53,189,53.1,188.9,53.1,188.9z M53.1,188.9
					L53.1,188.9L53.1,188.9L53.1,188.9z M53.6,188.5C53.5,188.5,53.5,188.6,53.6,188.5C53.5,188.6,53.5,188.6,53.6,188.5
					C53.5,188.6,53.6,188.6,53.6,188.5z M53.6,188.6C53.6,188.6,53.6,188.5,53.6,188.6L53.6,188.6C53.7,188.6,53.7,188.6,53.6,188.6
					c0.1,0,0.1,0,0.1-0.1C53.7,188.5,53.7,188.5,53.6,188.6C53.7,188.5,53.7,188.5,53.6,188.6C53.6,188.6,53.6,188.6,53.6,188.6z
					 M53.8,188.5C53.7,188.5,53.7,188.5,53.8,188.5C53.7,188.5,53.7,188.5,53.8,188.5C53.7,188.5,53.8,188.6,53.8,188.5
					C53.8,188.5,53.8,188.5,53.8,188.5z M53.8,188.4C53.9,188.4,53.8,188.5,53.8,188.4C53.8,188.5,53.8,188.5,53.8,188.4
					C53.9,188.5,53.9,188.5,53.8,188.4C53.9,188.5,53.9,188.4,53.8,188.4z M54.2,188.2C54.2,188.2,54.1,188.2,54.2,188.2
					c-0.1,0.1-0.1,0.1-0.2,0.1c0,0,0,0,0,0c0,0,0,0,0,0c0,0,0,0-0.1,0c0,0,0,0,0,0.1c0.1,0,0.1,0,0.2-0.1
					C54.1,188.3,54.2,188.3,54.2,188.2z M54.4,188.2C54.4,188.2,54.3,188.2,54.4,188.2C54.3,188.2,54.3,188.2,54.4,188.2
					C54.3,188.2,54.3,188.2,54.4,188.2z M54.4,187.4C54.4,187.4,54.4,187.4,54.4,187.4L54.4,187.4z M54.6,187.8c0,0-0.1,0-0.1,0
					c0,0,0,0.1,0,0.1C54.5,187.9,54.5,187.9,54.6,187.8C54.5,187.9,54.6,187.8,54.6,187.8z M54.9,187.5c-0.1,0-0.1,0.1-0.1,0.1
					c0,0,0.1,0,0.1,0C55,187.6,55,187.6,54.9,187.5z M55,187.7L55,187.7L55,187.7L55,187.7L55,187.7z M55,187.8
					C55,187.8,55,187.8,55,187.8C55,187.8,55,187.8,55,187.8L55,187.8z"/>
				<path class="st2" d="M54.4,188.2C54.4,188.2,54.5,188.1,54.4,188.2c0-0.1,0-0.1,0-0.1c0-0.1,0-0.1,0-0.2s0-0.1,0.1-0.1
					c0,0,0-0.1,0-0.1s0,0,0,0c0,0,0-0.1,0.1-0.1c0,0,0-0.1,0.1-0.1c0.1-0.2,0.2-0.4,0.3-0.7c0.1-0.2,0.3-0.5,0.4-0.7
					c0.1-0.1,0.1-0.1,0.1-0.2s0.1-0.1,0.1-0.2h0c0-0.1,0.1-0.2,0.2-0.1s0.2,0.1,0.4,0.1c0.1,0,0.1,0.1,0.1,0.1c0,0,0,0.1,0,0.1
					c0,0,0,0,0,0.1c0,0,0,0.1,0,0.1c-0.1,0.1-0.1,0.2-0.2,0.4c0,0.1-0.1,0.3-0.2,0.4c0,0,0,0,0,0c0,0,0,0,0,0c0,0,0,0.1-0.1,0.2
					s-0.1,0.2-0.1,0.3c-0.1,0.2-0.2,0.3-0.2,0.5c-0.1,0.2-0.1,0.3-0.2,0.5c0,0.2-0.1,0.3-0.1,0.4c0,0.1,0,0.3,0.1,0.4
					c0.3-0.1,0.5-0.1,0.7-0.2c0.2-0.1,0.4-0.2,0.6-0.3l0.4-0.3l0.1-0.1l0.5-0.4l0.4-0.3c0,0,0.1-0.1,0.2-0.1c0.1,0,0.1-0.1,0.2-0.1
					c0.1-0.1,0.2-0.2,0.3-0.2s0.2-0.1,0.3-0.2c0,0,0-0.1,0.1-0.1s0.1,0,0.1-0.1l0.1-0.1c0-0.1,0.1-0.1,0.2-0.1
					c0.1,0,0.1-0.1,0.2-0.1c0,0,0.1,0,0.1,0c0.1,0,0.1,0,0.1,0.1c0,0,0,0.1,0,0.1c0,0,0,0-0.1,0.1c0,0,0,0.1,0,0.1
					c0,0,0.1,0,0.1-0.1s0-0.1,0.1-0.1c0,0,0,0,0,0.1c0,0,0,0.1,0,0.1c0.1,0,0.1,0.1,0,0.1c0,0,0,0.1,0,0.1c0,0,0,0,0,0
					c0,0,0,0,0,0.1c0,0,0,0,0,0s0,0,0,0c0,0,0,0,0,0.1c0,0,0,0,0,0.1c0,0,0,0,0,0c0,0,0,0,0,0c-0.1,0-0.1,0-0.1,0
					c-0.1,0-0.1,0.1-0.1,0.1s0,0.1-0.1,0.1c0,0,0,0,0,0c0,0,0,0,0,0c0,0,0,0,0,0.1s-0.1,0.1-0.1,0.1c0,0-0.1,0.1-0.1,0.1s0,0,0,0
					c0,0-0.1,0-0.1,0.1c-0.1,0.1-0.1,0.1-0.1,0.1l-0.2,0.2c0,0-0.1,0.1-0.2,0.1c-0.1,0.1-0.1,0.1-0.2,0.1l0,0c0,0,0,0,0,0
					c0,0,0,0,0,0c0,0,0,0,0,0c0,0,0,0,0,0.1h0c0,0,0,0-0.1,0.1c0,0.1-0.1,0.1-0.2,0.2v-0.1c0,0,0,0,0,0s0,0,0,0h0c0,0,0,0.1,0,0.1
					c0,0,0,0-0.1,0c0,0,0,0,0,0c0,0,0,0,0,0c0,0,0,0-0.1,0.1c0,0-0.1,0.1-0.1,0.1c0,0,0,0-0.1,0s0,0-0.1,0l-0.1,0c0,0-0.1,0-0.1,0.1
					c0,0-0.1,0-0.1,0c0,0,0,0,0,0.1c0,0,0,0,0,0s0,0,0,0c0,0,0,0-0.1,0.1s-0.1,0-0.1,0.1c0,0.1-0.1,0.1-0.2,0.2
					c-0.1,0-0.2,0.1-0.3,0.1c-0.1,0.1-0.3,0.1-0.4,0.2c-0.1,0-0.3,0-0.4,0.1s-0.3,0-0.5,0c-0.1,0-0.2,0-0.3,0c-0.1,0-0.2,0-0.2-0.1
					c-0.1-0.1-0.1-0.1-0.2-0.2c0-0.1-0.1-0.1-0.1-0.2c0,0,0,0,0,0s0,0,0-0.1c0,0,0,0,0,0c0,0,0,0,0,0c0,0,0,0,0,0c0-0.1,0-0.1,0-0.1
					c0,0,0-0.1,0-0.1c0,0,0,0.1,0,0.1c0,0,0-0.1,0-0.1c0,0,0-0.1,0.1-0.1c0-0.1,0-0.1,0.1-0.2c0,0,0,0,0,0c0-0.1,0-0.1,0.1-0.1
					C54.4,188.3,54.4,188.2,54.4,188.2C54.4,188.2,54.4,188.2,54.4,188.2C54.4,188.2,54.4,188.3,54.4,188.2c-0.1,0,0,0,0-0.1
					c0,0,0,0,0,0C54.4,188,54.4,188.1,54.4,188.2C54.4,188.1,54.4,188.1,54.4,188.2z M57.1,184.4C57.1,184.4,57.1,184.4,57.1,184.4
					C57.1,184.4,57.1,184.4,57.1,184.4c-0.1,0.1-0.1,0.2-0.2,0.2c0,0.1-0.1,0.1-0.2,0.1c-0.1,0-0.1,0.1-0.1,0.1c-0.1,0-0.1,0-0.1,0
					c0,0,0,0,0,0c-0.1,0-0.1,0-0.1,0c-0.1,0-0.2-0.1-0.2-0.1s-0.1-0.1-0.2-0.1c0-0.1,0-0.2,0-0.3c0-0.1,0.1-0.1,0.2-0.1c0,0,0,0,0,0
					s0,0,0,0c0.1,0,0.2,0,0.3,0.1C56.8,184.3,56.9,184.3,57.1,184.4C57.1,184.4,57.1,184.4,57.1,184.4z M57.6,188.6
					C57.6,188.6,57.6,188.6,57.6,188.6C57.7,188.6,57.7,188.6,57.6,188.6L57.6,188.6z M59.4,187.1C59.3,187.1,59.3,187.1,59.4,187.1
					c-0.1,0.1-0.1,0.1-0.1,0.2C59.3,187.2,59.3,187.2,59.4,187.1C59.4,187.2,59.4,187.1,59.4,187.1z M59.5,187
					C59.5,187,59.5,187,59.5,187L59.5,187z"/>
				<path class="st2" d="M66.2,188.1C66.2,188,66.2,188,66.2,188.1c-0.1,0-0.1,0.1-0.2,0.1c0,0.1-0.1,0.1-0.2,0.2
					c-0.1,0.1-0.1,0.1-0.1,0.1c0,0,0-0.1,0-0.1s0.1-0.1,0.1-0.1c-0.1,0-0.1,0-0.1,0.1s0,0.1-0.1,0.1c0,0.1-0.1,0.1-0.1,0.1
					c-0.1,0-0.1,0.1-0.2,0.1c0,0,0,0,0,0s0,0,0,0c0,0,0,0,0,0s0,0,0,0v0c0,0,0,0-0.1,0c0,0,0,0,0.1,0c0,0,0-0.1,0-0.1
					c0,0-0.1,0-0.1,0s0,0.1,0,0.1c0,0,0,0.1-0.1,0.1c0,0-0.1,0.1-0.1,0c0.1-0.1,0.2-0.2,0.2-0.3c-0.1,0-0.2,0.1-0.3,0.2c0,0,0,0,0,0
					c0,0,0,0.1,0,0.1c0,0-0.1,0-0.1,0h0c0,0,0,0,0,0c0,0-0.1,0-0.1,0c0,0,0,0-0.1,0.1c0,0,0,0,0,0c0,0,0,0,0,0c0,0,0,0-0.1,0.1
					s-0.1,0-0.1,0c0,0,0,0,0,0c0,0,0,0,0-0.1c-0.1,0-0.1,0.1-0.1,0.1s0,0.1-0.1,0.1c0,0,0-0.1,0-0.1c0,0,0,0,0,0c0,0,0,0-0.1,0
					c0,0,0,0,0,0c0,0,0,0,0,0c-0.1,0.1-0.2,0.1-0.3,0.1c-0.1,0-0.3,0-0.4-0.1c-0.2,0-0.3,0-0.5-0.1s-0.3-0.1-0.4-0.2c0,0,0,0,0,0
					c0,0,0,0,0,0s0,0,0,0c0,0,0,0,0,0c0,0,0,0,0,0c-0.1,0-0.1-0.1-0.1-0.2c0-0.1-0.1-0.1-0.1-0.2c0,0,0-0.1,0-0.1c0,0,0,0-0.1,0
					c-0.1-0.3-0.1-0.6-0.1-0.9s0-0.6,0.1-1c-0.1,0-0.2,0.1-0.2,0.2c-0.1,0.1-0.1,0.1-0.2,0.2c-0.4,0.4-0.8,0.8-1.2,1.2
					c-0.4,0.4-0.8,0.8-1.1,1.3c-0.1,0-0.1,0-0.1,0.1c0,0-0.1,0.1-0.1,0.1c-0.1,0-0.1,0-0.2,0s-0.2,0-0.3,0c0,0,0,0,0,0s0,0,0,0
					c-0.1,0-0.2-0.1-0.3-0.1c-0.1,0-0.1-0.1-0.1-0.3c0-0.1,0-0.1,0-0.2s0-0.1,0-0.2c0,0,0-0.1,0-0.1c0,0,0,0,0,0
					c0.1-0.6,0.3-1.1,0.5-1.6c0.2-0.5,0.4-1,0.6-1.5c0.1,0,0.1,0,0.2,0c0.1,0,0.2,0.1,0.2,0.1s0.1,0,0.3,0.1c0,0,0,0,0.1,0.1
					c0,0,0.1,0,0.1,0.1c0,0.2-0.1,0.4-0.1,0.6c-0.1,0.2-0.2,0.4-0.3,0.6c-0.1,0.1-0.1,0.3-0.2,0.5c-0.1,0.2-0.1,0.4-0.2,0.5
					c0,0.1,0,0.1,0,0.1s0,0,0,0.1c0.1-0.2,0.3-0.3,0.4-0.5c0.1-0.2,0.3-0.4,0.4-0.5c0.2-0.1,0.3-0.2,0.4-0.3
					c0.1-0.1,0.3-0.3,0.4-0.4c0.2-0.1,0.3-0.2,0.5-0.3c0.2-0.1,0.3-0.2,0.4-0.3c0.1,0,0.1,0,0.2-0.1s0.1-0.1,0.2-0.1
					c0.1,0,0.2,0,0.2,0.1c0.1,0,0.2,0.1,0.3,0.1v0c0.1,0,0.1,0,0.1,0.1c0,0.1,0,0.1,0.1,0.2c0,0.1,0,0.2,0,0.4c0,0.2,0,0.3-0.1,0.4
					c0,0,0,0,0,0.1c0,0.1,0,0.1,0,0.2c-0.1,0.5-0.1,0.8,0,1.1c0.1,0.3,0.1,0.4,0.2,0.5c0.1,0,0.3,0,0.4,0c0.1,0,0.2,0,0.3,0
					c0.1,0,0.2,0,0.3-0.1c0.1,0,0.2-0.1,0.3-0.2c0,0,0,0,0.1-0.1c0,0,0,0,0.1,0c0.1,0,0.2-0.1,0.3-0.1c0.1-0.1,0.1-0.1,0.2,0
					c0,0,0,0,0-0.1c0,0,0,0,0-0.1c0,0,0,0,0,0c0,0,0,0,0,0c0,0,0,0,0-0.1c0,0,0.1,0,0.1,0c0,0,0.1,0,0.1-0.1c0,0,0.1,0,0.1-0.1
					c0,0,0-0.1,0.1-0.1c0,0,0,0,0,0c0,0,0,0,0,0.1c0.1,0,0.1-0.1,0.1-0.1s0-0.1,0.1-0.1c0.1,0,0.1-0.1,0.2-0.1
					c0.1,0,0.1-0.1,0.2-0.1c0.1,0,0.1-0.1,0.1-0.1c0,0,0.1-0.1,0.1-0.1c0,0,0-0.1,0.1-0.1c0,0,0.1-0.1,0.1,0c0,0,0.1,0,0.1,0
					c0,0,0,0,0,0c0,0,0-0.1,0-0.1c0,0,0.1,0,0.2-0.1c0.1,0,0.2-0.1,0.2-0.1c0,0,0,0,0-0.1c0,0,0,0,0,0s0,0,0,0c0,0,0,0,0,0s0,0,0,0
					c0,0,0,0,0,0s0,0,0-0.1c0,0,0,0,0,0s0,0,0,0c0,0,0,0,0,0c0,0,0,0,0,0c0,0,0.1,0,0.1,0.1c0,0.1,0,0.2-0.1,0.3c0,0,0,0,0,0
					s0,0,0,0c0,0,0,0.1-0.1,0.2c-0.1,0.1-0.1,0.1-0.1,0.1L66.2,188.1z M64.6,189C64.5,189,64.5,189.1,64.6,189
					C64.5,189.1,64.5,189.1,64.6,189L64.6,189z M64.8,188.9L64.8,188.9L64.8,188.9C64.7,188.9,64.7,188.9,64.8,188.9
					C64.7,188.9,64.7,188.9,64.8,188.9z M64.8,189C64.7,189,64.7,189,64.8,189L64.8,189z M65.3,188.8L65.3,188.8
					C65.3,188.8,65.3,188.8,65.3,188.8z M66,187.8C66.1,187.9,66.1,187.8,66,187.8l0.1-0.1C66.1,187.8,66.1,187.8,66,187.8z
					 M66.7,187.5C66.7,187.5,66.7,187.5,66.7,187.5C66.6,187.5,66.6,187.5,66.7,187.5C66.7,187.5,66.7,187.5,66.7,187.5z"/>
				<path class="st2" d="M72.6,187.4c0,0,0,0.1-0.1,0.2s-0.2,0.2-0.3,0.3c0,0-0.1,0-0.1,0.1c-0.1,0.1-0.1,0.1-0.1,0.1l-0.1,0.1
					l-0.3,0.2l-0.1,0.1l-0.2,0.1c-0.2,0.1-0.4,0.2-0.5,0.3c-0.2,0.1-0.4,0.2-0.6,0.3c0,0,0,0-0.1,0s-0.1,0-0.1,0c0,0-0.1,0-0.1,0
					c0,0-0.1,0-0.1,0c0,0-0.1,0-0.1,0c0,0,0,0,0,0c-0.1,0-0.1,0-0.1,0c0,0-0.1,0-0.1,0.1c0,0-0.1,0-0.1,0s-0.1,0-0.1,0
					c0,0-0.1,0-0.1,0s-0.1,0-0.1,0c0,0,0,0,0,0c0,0,0,0,0,0c0,0-0.1,0-0.1,0c0,0-0.1,0-0.2,0c0,0-0.1,0-0.1,0c0,0-0.1,0-0.1,0l0,0
					c-0.2,0-0.3,0-0.4,0c0,0-0.1,0-0.1,0c0,0,0,0-0.1,0c-0.1,0-0.2,0-0.3-0.1s-0.2-0.1-0.3-0.1c-0.1-0.1-0.2-0.1-0.3-0.2
					s-0.2-0.2-0.3-0.3c0-0.1-0.1-0.2-0.1-0.2c0-0.1,0-0.1-0.1-0.2c0-0.1,0-0.2,0-0.2s0-0.2,0-0.2c0-0.1,0.1-0.3,0.1-0.5
					c0-0.2,0.1-0.4,0.3-0.5l0.4-0.4l0.2-0.3c0.1-0.1,0.2-0.1,0.2-0.2s0.1-0.1,0.2-0.2c0.1-0.1,0.1-0.1,0.2-0.1
					c0.1,0,0.1-0.1,0.2-0.1c0.1-0.1,0.2-0.1,0.2-0.2c0.1-0.1,0.2-0.1,0.2-0.2c0.1,0,0.2-0.1,0.2-0.1c0,0,0.1,0,0.1,0
					c0.1,0,0.1,0,0.1,0c0,0,0,0,0.1,0c0,0,0,0,0.1,0c0.1,0.1,0.1,0.2,0.2,0.2s0.2,0.1,0.2,0.2c0.1,0,0.1,0.1,0.1,0.1s0,0.1,0.1,0.1
					c0,0.1,0,0.2,0,0.2c0,0.1,0,0.1-0.1,0.2c0,0,0,0,0,0.1s0,0,0,0.1c0,0.1-0.1,0.1-0.1,0.1c0,0-0.1,0.1-0.1,0.1c0,0,0,0.1-0.1,0.1
					s0,0.1-0.1,0.1c0,0-0.1,0.1-0.2,0.2c-0.1,0.1-0.1,0.1-0.2,0.2c-0.1,0.1-0.1,0.1-0.2,0.2s-0.2,0.1-0.2,0.1c0,0,0,0.1,0,0.1
					c-0.1,0.1-0.2,0.2-0.3,0.2s-0.2,0.2-0.3,0.2c-0.2,0-0.3,0.1-0.5,0.2c-0.1,0.1-0.3,0.1-0.5,0.1c0,0,0,0,0,0c0,0,0,0,0.1,0
					c0,0.1,0,0.1,0,0.1c0,0,0,0.1,0.1,0.1c0.1,0.1,0.2,0.2,0.3,0.2c0.1,0.1,0.3,0.1,0.4,0.1c0.4,0.1,0.8,0.1,1.2,0
					c0.1,0,0.2,0,0.3-0.1c0.1,0,0.2-0.1,0.4-0.1c0.2-0.1,0.3-0.1,0.5-0.2l0.2-0.1c0,0,0.1,0,0.1,0c0,0,0,0,0,0c0,0,0,0,0,0
					c0,0,0,0,0,0l0.4-0.2c0.1-0.1,0.2-0.2,0.3-0.2c0.1,0,0.2-0.1,0.3-0.3c0,0,0,0,0.1-0.1c0.1,0,0.1-0.1,0.2-0.1
					c0.1,0,0.1-0.1,0.2-0.1c0.1,0,0.1-0.1,0.1-0.1l0.2-0.2c0.1-0.1,0.2-0.2,0.3-0.2s0.2-0.1,0.2-0.1c0,0,0.1,0.1,0.1,0.1
					c0,0.1,0,0.1,0.1,0.1c-0.1,0.1-0.1,0.2-0.1,0.2s0,0.1-0.1,0.1s0,0-0.1,0.1C72.7,187.3,72.6,187.4,72.6,187.4z M69.1,185.6
					c0,0-0.1,0-0.1,0.1c0,0-0.1,0.1-0.1,0.1c0,0-0.1,0-0.1,0c0,0,0,0-0.1,0c0,0,0,0-0.1,0l-0.1,0.1c-0.1,0.1-0.1,0.1-0.2,0.1
					s-0.1,0.1-0.2,0.1c-0.1,0.1-0.1,0.2-0.2,0.2c-0.1,0-0.1,0.1-0.2,0.2c-0.1,0.1-0.2,0.2-0.3,0.3c-0.1,0.1-0.2,0.2-0.3,0.4
					c-0.1,0.1-0.2,0.2-0.2,0.4c0.2-0.1,0.4-0.2,0.6-0.3c0.2-0.1,0.4-0.3,0.6-0.4c0.1-0.1,0.1-0.1,0.2-0.2c0.1-0.1,0.1-0.1,0.2-0.2
					c0.1-0.1,0.2-0.1,0.3-0.3c0.1-0.1,0.2-0.2,0.3-0.4c0-0.1,0-0.1,0.1-0.1c0,0,0-0.1,0-0.1C69.2,185.5,69.2,185.5,69.1,185.6
					C69.1,185.5,69.1,185.6,69.1,185.6z"/>
				<path class="st2" d="M80.6,181.2C80.6,181.2,80.6,181.2,80.6,181.2C80.7,181.2,80.7,181.2,80.6,181.2l0.1,0.1c0,0,0,0,0,0
					C80.6,181.3,80.6,181.3,80.6,181.2c0,0.1,0,0.1,0,0.2c0,0,0,0-0.1,0v0c0,0,0,0,0,0c0,0,0,0,0,0c0,0.1-0.1,0.1-0.1,0.1
					c-0.1,0-0.1,0.1-0.2,0.1c-0.1,0-0.1,0,0,0c0,0,0.1,0,0,0c0,0,0,0-0.1,0c0,0,0,0,0,0c-0.1,0-0.1-0.1-0.1-0.1
					c0-0.1-0.1-0.1-0.2-0.2c0-0.1,0-0.2-0.1-0.2s0-0.2-0.1-0.3c0-0.1,0-0.2,0-0.3c0-0.1,0-0.2,0.1-0.3c0,0,0,0,0,0c0,0,0,0,0,0
					c0,0,0,0,0,0c0,0,0,0,0,0c0,0,0,0,0.1,0c0,0,0-0.1,0-0.1c0.3-0.2,0.6-0.4,0.9-0.5s0.6-0.3,1-0.5c0.1,0,0.2-0.1,0.2-0.1
					c0.1,0,0.2-0.1,0.3-0.1c0.1,0,0.1,0,0.2-0.1s0.1,0,0.2-0.1c0.2-0.1,0.3-0.1,0.5-0.1c0.2,0,0.3-0.1,0.5-0.1c0.2,0,0.4,0,0.6-0.1
					s0.4,0,0.6-0.1c0.4,0,0.8,0.1,1.2,0.2s0.6,0.3,0.8,0.5c0,0.1,0.1,0.1,0.1,0.2c0,0.1,0.1,0.1,0.1,0.2c0,0.1,0,0.1,0.1,0.1
					c0,0,0,0.1,0.1,0.2c0.1,0.2,0.2,0.4,0.2,0.6c0,0.4,0,0.8-0.2,1.1c-0.1,0.3-0.3,0.6-0.6,0.8c-0.1,0.2-0.3,0.4-0.5,0.6
					c-0.2,0.2-0.4,0.3-0.5,0.5c-0.1,0.1-0.3,0.2-0.4,0.3s-0.2,0.2-0.4,0.2c-0.2,0.2-0.4,0.3-0.7,0.5c-0.2,0.1-0.4,0.3-0.7,0.4
					c0.1,0,0.1,0.1,0.2,0.1c0.1,0,0.2,0,0.2,0.1c0.4,0.1,0.8,0.2,1.2,0.4c0,0,0,0,0,0s0,0,0,0h0c0.2,0.1,0.4,0.2,0.5,0.4
					s0.3,0.2,0.4,0.4c0,0.1,0.1,0.2,0.1,0.3s0.1,0.2,0.1,0.3c0,0,0,0,0,0c0,0,0,0,0,0c0,0,0,0.1,0.1,0.1c0,0,0,0.1,0,0.1
					c0.1,0.1,0.1,0.1,0.1,0.2c0,0.1,0.1,0.2,0.1,0.2c0.1,0.2,0.1,0.4,0.1,0.7c0,0.2-0.1,0.5-0.2,0.7c0,0.1-0.1,0.2-0.1,0.2
					s-0.1,0.2-0.2,0.2c0,0.1-0.1,0.1-0.2,0.2c0,0-0.1,0.1-0.1,0.1c0,0-0.1,0.1-0.1,0.1c-0.1,0.1-0.1,0.1-0.2,0.2
					c-0.1,0.1-0.1,0.1-0.2,0.2c-0.1,0.1-0.2,0.2-0.3,0.2c-0.1,0.1-0.2,0.2-0.3,0.2h-0.1l-0.3,0.2c-0.1,0-0.2,0.1-0.3,0.2
					c-0.1,0.1-0.2,0.1-0.3,0.2c-0.1,0-0.1,0-0.2,0.1c-0.1,0-0.1,0.1-0.2,0.1c-0.1,0-0.1,0.1-0.2,0.1c-0.1,0-0.1,0.1-0.2,0.1
					c-0.1,0.1-0.2,0.1-0.4,0.2s-0.2,0.1-0.4,0.1l-0.4,0.2l-0.7,0.2c-0.2,0.1-0.4,0.1-0.6,0.2s-0.4,0.1-0.7,0.1c0,0,0,0,0.1,0
					c0,0,0.1,0,0.1,0c0.5-0.1,1-0.3,1.5-0.5c0.5-0.2,0.9-0.4,1.4-0.6c0,0,0,0,0.1,0c0,0,0,0,0-0.1c0.1,0,0.3-0.1,0.4-0.2
					c0.1-0.1,0.2-0.1,0.3-0.2c0.1-0.1,0.2-0.1,0.3-0.2c0.1-0.1,0.2-0.1,0.3-0.1c0-0.1,0.1-0.1,0.1-0.1c0,0,0-0.1,0-0.1c0,0,0,0,0,0
					c-0.1,0-0.1,0-0.1,0.1c0,0-0.1,0.1-0.1,0.1c0,0,0,0-0.1,0c0,0,0,0,0,0c-0.1,0-0.1,0-0.1,0.1s0,0.1-0.1,0.1l-0.2,0.1
					c-0.1,0-0.1,0.1-0.2,0.1c-0.1,0-0.1,0.1-0.2,0.2c-0.3,0.1-0.6,0.3-0.9,0.4c-0.1,0.1-0.2,0.2-0.3,0.2s-0.3,0.1-0.4,0.1
					c-0.1,0.1-0.1,0.1-0.2,0.1c-0.1,0-0.2,0.1-0.2,0.1v0c-0.2,0.1-0.3,0.1-0.5,0.2c-0.2,0.1-0.3,0.1-0.5,0.2
					c0.1-0.1,0.1-0.1,0.2-0.1s0.1,0,0.2-0.1c-0.2,0.1-0.4,0.2-0.6,0.2c-0.2,0.1-0.4,0.1-0.7,0.2c0.4-0.1,0.8-0.2,1.1-0.4
					c0.4-0.1,0.7-0.3,1.1-0.4c0,0,0,0,0,0c0.1,0,0.2-0.1,0.3-0.1c0.1,0,0.2-0.1,0.3-0.1c0,0,0,0,0,0c0,0,0,0,0,0
					c0.3-0.1,0.5-0.2,0.8-0.4c0.2-0.1,0.5-0.3,0.7-0.5c-0.1,0-0.2,0.1-0.3,0.1s-0.2,0.1-0.2,0.1c-0.1,0-0.1,0.1-0.1,0.1
					c0,0-0.1,0.1-0.1,0.1l-0.3,0.1c-0.3,0.2-0.7,0.3-1.1,0.4l0.4-0.2c0,0,0,0,0,0s0,0,0,0c0.1-0.1,0.2-0.1,0.3-0.2
					c0.1,0,0.2-0.1,0.3-0.2c0.1-0.1,0.2-0.1,0.4-0.2c0.1-0.1,0.2-0.1,0.3-0.2c0.2-0.2,0.4-0.3,0.6-0.4c0.2-0.1,0.4-0.2,0.6-0.4
					c0,0,0,0,0,0c0,0,0,0,0,0c0.1,0,0.2-0.1,0.2-0.1c0,0,0.1-0.1,0.1-0.2c-0.1,0-0.1,0.1-0.2,0.1s-0.1,0.1-0.2,0.1
					c0,0.1-0.1,0.1-0.1,0.1c-0.1,0-0.1,0.1-0.2,0.1c0,0,0,0,0,0c0,0,0,0-0.1,0c-0.1,0.1-0.2,0.2-0.3,0.2s-0.2,0.1-0.4,0.2
					c-0.1,0.1-0.2,0.1-0.3,0.2c-0.1,0.1-0.2,0.1-0.4,0.1c0,0,0.1,0,0.1,0c0,0,0.1,0,0.1-0.1c-0.1,0-0.2,0.1-0.2,0.1
					s-0.1,0.1-0.2,0.1c0.2-0.1,0.5-0.2,0.7-0.3c0.2-0.1,0.4-0.3,0.6-0.4c0.2-0.1,0.3-0.1,0.4-0.3c0.1-0.1,0.3-0.2,0.4-0.3
					c0-0.1,0.1-0.1,0.1-0.1c0,0,0.1-0.1,0.1-0.1c0,0-0.1,0-0.1,0c0,0,0,0,0,0c0,0,0.1-0.1,0.1-0.1c0.1,0,0.1-0.1,0.1-0.2
					c0,0-0.1,0-0.1,0c0,0-0.1,0-0.1,0s-0.1,0-0.1,0.1c0,0,0,0,0,0c-0.1,0.1-0.1,0.1-0.2,0.2s-0.2,0.1-0.3,0.2v0.1c0,0,0,0-0.1,0
					c0,0,0,0-0.1,0c0,0,0,0,0,0l-0.3,0.1c-0.1,0.1-0.1,0.1-0.2,0.1c-0.1,0-0.2,0.1-0.2,0.1c0,0,0.1,0,0.1,0c0,0,0.1-0.1,0.1-0.1
					c-0.2,0.2-0.4,0.3-0.7,0.4c-0.3,0.1-0.5,0.2-0.7,0.4c-0.1,0-0.1,0-0.1,0c0,0-0.1,0-0.2,0c0,0,0.1,0,0.1,0
					c0.2-0.1,0.4-0.2,0.6-0.3s0.4-0.2,0.6-0.3c0,0,0-0.1,0.1-0.1c0.1,0,0.1,0,0.1-0.1l-0.1,0.1c0,0,0,0,0,0c0,0,0,0,0,0c0,0,0,0,0,0
					s0,0,0,0c0,0-0.1,0-0.1,0c0,0-0.1,0-0.1,0c0,0,0,0,0,0c0,0,0,0,0,0c-0.2,0.1-0.4,0.2-0.6,0.3c-0.2,0.1-0.4,0.2-0.5,0.2
					c0,0,0,0,0,0c0,0,0,0,0,0c0,0-0.1,0-0.1,0s-0.1,0-0.1,0.1l-1.2,0.4c-0.1,0-0.2,0-0.3,0.1c-0.1,0-0.2,0.1-0.3,0.1
					c-0.1,0-0.1,0-0.1,0.1c0,0-0.1,0-0.2,0c-0.1,0.1-0.2,0.1-0.4,0.1c-0.1,0-0.3,0.1-0.4,0.1c-0.1,0-0.2,0.1-0.3,0.1
					c-0.1,0-0.2,0-0.3,0c0,0,0,0,0,0c0,0,0,0,0,0c-0.1,0-0.1,0-0.1,0.1c0.3,0,0.6,0,0.9-0.1c0.3,0,0.6-0.1,0.9-0.2
					c-0.2,0.1-0.3,0.1-0.5,0.1c-0.2,0-0.3,0.1-0.4,0.1c0,0,0,0,0,0c0,0,0,0,0,0c0,0-0.1,0-0.1,0s-0.1,0-0.1,0c0,0,0,0,0.1,0
					c0,0,0.1,0,0.1,0c0,0.1-0.1,0.1-0.1,0.1s-0.1,0-0.2,0c0,0,0.1,0,0.1,0c0,0,0.1,0,0.1,0c-0.1,0.1-0.2,0.1-0.3,0.1
					c-0.1,0-0.2-0.1-0.4,0c0,0-0.1,0-0.1,0c0,0,0,0-0.1,0c-0.2,0-0.4,0-0.6,0c-0.2,0-0.4-0.1-0.6-0.1c0-0.1-0.1-0.1-0.1-0.1
					c-0.1,0-0.1-0.1-0.1-0.2c0,0,0,0,0,0c0,0,0,0-0.1,0c0,0,0,0,0,0.1c0,0,0,0.1,0,0.1c0,0-0.1-0.1-0.1-0.1s-0.1-0.1-0.1-0.1
					c0,0,0,0,0.1,0.1c0,0,0,0,0.1,0.1c0,0,0-0.1,0-0.1s0-0.1,0-0.1c0,0,0,0,0,0c0,0,0,0-0.1,0c0-0.1,0-0.1,0-0.1c0,0,0-0.1,0-0.1
					l-0.1,0c0,0.1,0,0.1,0,0.1c0,0,0,0,0,0c0,0,0-0.1,0-0.1c0,0,0,0,0,0c0,0,0,0,0,0c0,0,0,0,0,0c0,0,0,0-0.1,0c0,0,0-0.1,0.1-0.1
					c0,0,0-0.1,0-0.1c0.1,0,0.1-0.1,0.1,0c0,0,0,0,0,0c0,0,0,0,0.1,0c0,0,0,0,0,0c0,0,0,0,0,0c0.1-0.1,0.2-0.1,0.3-0.1
					c0.1,0,0.2,0,0.3,0c0,0,0,0,0,0s0,0,0,0c0,0,0,0,0-0.1c0,0.1,0.1,0.1,0.2,0.1s0.2,0,0.2,0c-0.1,0.1-0.1,0.1-0.2,0
					c-0.1,0-0.2,0-0.2,0.1c-0.1,0-0.1,0-0.2,0.1c-0.1,0-0.1,0.1-0.1,0.2c0,0,0.1,0.1,0.2,0.1c0.1,0,0.2,0.1,0.3,0.1
					c0.1,0,0.2,0,0.3,0s0.2,0,0.2,0c0-0.1,0.1-0.2,0.1-0.3c0-0.1,0-0.2,0.1-0.3c0-0.1,0-0.2,0.1-0.3s0.1-0.2,0.1-0.3
					c0.2-0.9,0.5-1.7,0.8-2.6c0.3-0.8,0.7-1.6,1-2.4c0,0,0,0,0,0c0,0,0,0-0.1,0c0-0.1,0-0.1,0-0.2c0,0-0.1-0.1-0.1-0.1
					c0,0,0.1,0,0.1,0c0,0,0-0.1,0-0.1c0.1,0,0.1,0,0.2-0.1c0,0,0.1,0,0.2-0.1c0.1-0.3,0.3-0.6,0.4-0.9c0.1-0.3,0.3-0.6,0.4-0.9
					c0.1-0.2,0.2-0.4,0.3-0.7c0.1-0.2,0.2-0.5,0.3-0.7c0.1-0.2,0.2-0.4,0.3-0.7s0.2-0.5,0.3-0.7c0.1-0.1,0.1-0.2,0.1-0.3
					s0.1-0.2,0.1-0.3c0,0,0,0,0.1,0s0,0,0,0c0.1,0,0.2,0,0.3,0c0.1,0,0.2,0,0.2,0c0.1,0,0.1,0,0.2,0c0.1,0,0.1,0,0.1,0.1
					c0.1,0.1,0.1,0.1,0.1,0.2c0,0.1,0,0.1,0,0.2c0,0.1,0,0.1-0.1,0.2c0,0.1-0.1,0.1-0.1,0.2c-0.1,0.3-0.3,0.5-0.4,0.8
					c-0.1,0.2-0.3,0.5-0.4,0.8h0c-0.1,0.3-0.2,0.5-0.3,0.8c-0.1,0.2-0.2,0.5-0.3,0.7c0,0,0,0,0,0.1c0,0,0,0.1-0.1,0.1
					c-0.1,0.2-0.1,0.3-0.2,0.5c-0.1,0.2-0.2,0.3-0.2,0.5c0.1,0,0.2,0,0.2-0.1c0.1,0,0.1-0.1,0.2-0.1c0.5-0.2,1-0.5,1.4-0.7
					c0,0,0-0.1,0-0.1c0.2-0.1,0.4-0.2,0.5-0.4c0.2-0.1,0.3-0.2,0.5-0.4v0c0.6-0.5,1.1-1,1.5-1.6v-0.1c0.1-0.1,0.1-0.2,0.2-0.3
					c0.1-0.1,0.1-0.2,0.2-0.4c0.1-0.1,0.1-0.3,0.2-0.4c0-0.1,0.1-0.3,0.1-0.4c0-0.1,0-0.1,0-0.2c0,0,0-0.1-0.1-0.1
					c-0.3-0.2-0.7-0.4-1.2-0.5c-0.4-0.1-0.9-0.1-1.3,0l-0.5,0.1c-0.3,0.1-0.6,0.2-0.9,0.3c-0.3,0.1-0.6,0.2-0.8,0.3
					c-0.3,0.1-0.5,0.3-0.8,0.5c-0.3,0.2-0.5,0.4-0.6,0.7c0,0,0,0,0.1,0c0,0,0,0,0,0c0,0,0,0,0,0s0,0,0,0c0,0,0,0.1,0,0.1
					c0,0,0,0,0,0.1c0,0,0,0,0,0c0,0,0,0,0,0c0,0,0,0,0,0C80.7,181.1,80.7,181.1,80.6,181.2C80.6,181.1,80.6,181.2,80.6,181.2z
					 M77,192C77,192,77,192,77,192C77,192,77,191.9,77,192L77,192C77,192,77,192,77,192z M84.1,189.6
					C84.1,189.6,84.1,189.6,84.1,189.6C84.2,189.6,84.2,189.6,84.1,189.6C84.1,189.5,84.1,189.6,84.1,189.6
					C84.1,189.6,84.1,189.6,84.1,189.6L84.1,189.6c0-0.1,0-0.1,0-0.1s0,0,0.1,0c0,0,0.1,0,0.1,0c0,0,0.1,0,0.1-0.1c0,0,0,0,0,0
					s0,0,0,0c0,0,0-0.1,0.1-0.1c0,0,0.1,0,0.1-0.1c0.2-0.1,0.4-0.3,0.5-0.5c0.1-0.2,0.3-0.4,0.4-0.5c0,0,0-0.1,0-0.1
					c0.1-0.1,0.2-0.3,0.3-0.5c0.1-0.2,0.1-0.4,0.1-0.6c0-0.1-0.1-0.2-0.1-0.4c-0.1-0.1-0.2-0.2-0.3-0.3c-0.1-0.1-0.2-0.1-0.3-0.1
					c-0.1,0-0.2-0.1-0.3-0.1c0,0,0,0,0,0c0,0,0,0,0,0c-0.1,0-0.1-0.1-0.2-0.1c-0.1,0-0.1-0.1-0.2-0.1c-0.2-0.1-0.4-0.1-0.5-0.2
					c-0.1-0.1-0.3-0.1-0.4-0.1s-0.3-0.1-0.4-0.1c-0.2,0-0.5,0-0.7,0c-0.3,0-0.5,0.1-0.7,0.2c0,0,0,0,0,0s0,0,0,0
					c-0.1,0-0.2,0-0.2,0.1c-0.1,0-0.2,0.1-0.2,0.1c0,0,0,0,0,0c-0.1,0-0.1,0-0.1,0s0,0.1,0,0.1c-0.1,0.2-0.2,0.4-0.3,0.6
					c-0.1,0.2-0.2,0.4-0.3,0.6c0,0.1,0,0.2,0,0.3c0,0.1,0,0.2-0.1,0.3c-0.1,0.2-0.1,0.4-0.2,0.7s-0.1,0.4-0.1,0.7
					c0,0.1-0.1,0.2-0.1,0.3c0,0.1-0.1,0.2-0.1,0.3c0,0.1,0,0.1-0.1,0.2c0,0.1-0.1,0.2-0.1,0.3c0,0.1-0.1,0.2-0.1,0.3
					c-0.1,0.1-0.1,0.2-0.2,0.3s-0.1,0.2-0.2,0.2c0,0,0,0,0,0c-0.1,0-0.1,0.1-0.1,0.2c0,0.1-0.1,0.2-0.1,0.2c-0.1,0-0.1,0-0.1,0.1
					s-0.1,0.1-0.1,0.1c0.3-0.1,0.6-0.1,0.9-0.2c0.3-0.1,0.6-0.1,0.9-0.3c0,0,0,0,0,0s0,0,0,0c0.2,0,0.4-0.1,0.5-0.1
					c0.1-0.1,0.3-0.1,0.5-0.2c0-0.1,0-0.1,0-0.1c0,0,0.1,0,0.1-0.1c0,0,0,0,0,0c0.1-0.1,0.2-0.1,0.3-0.1c0,0,0.1,0,0.1,0
					c0,0,0,0,0,0c0.1,0,0.1,0,0.1,0c0,0,0.1,0,0.1,0c0,0,0,0,0,0s0,0,0,0c0,0,0.1,0,0.1,0c0,0,0.1,0,0.1,0l0,0
					c0.1,0,0.2-0.1,0.3-0.1c0.1-0.1,0.2-0.1,0.3-0.1c0,0,0,0,0,0c0,0,0,0,0,0c0.1,0,0.1,0,0.1,0s0.1,0,0.1-0.1c0,0,0.1-0.1,0.1-0.1
					c0,0,0.1,0,0.1,0c0,0,0,0,0.1,0c0,0,0.1,0,0.1,0l0,0c0,0,0,0,0,0s0,0,0,0c0,0,0,0,0.1,0C84,189.6,84.1,189.6,84.1,189.6
					C84.1,189.6,84.1,189.6,84.1,189.6C84.1,189.6,84.1,189.6,84.1,189.6z M80.6,191.9c0.2-0.1,0.4-0.1,0.6-0.2
					c0.2-0.1,0.4-0.1,0.6-0.2c0,0,0,0,0,0C81.4,191.7,81,191.9,80.6,191.9c-0.4,0.2-0.8,0.3-1.2,0.4c0.2,0,0.4-0.1,0.6-0.1
					C80.2,192.1,80.4,192,80.6,191.9z M81.8,191.6C81.8,191.6,81.8,191.6,81.8,191.6C81.8,191.6,81.8,191.6,81.8,191.6
					C81.8,191.6,81.8,191.6,81.8,191.6z M82.1,190.6C82.1,190.6,82.1,190.6,82.1,190.6C82.1,190.6,82.1,190.7,82.1,190.6
					C82.1,190.6,82.1,190.6,82.1,190.6z M83.6,190.6c0.1-0.1,0.1-0.1,0.2-0.2c0.1,0,0.2-0.1,0.2-0.1c0,0,0,0,0.1,0c0,0,0,0,0,0
					c-0.1,0.1-0.2,0.1-0.3,0.2c-0.1,0.1-0.2,0.1-0.4,0.2c0,0,0.1,0,0.1,0S83.6,190.6,83.6,190.6z M85.7,189.9
					c-0.1,0.1-0.2,0.1-0.2,0.2c0,0,0.1-0.1,0.1-0.1S85.7,189.9,85.7,189.9z M85.8,185.7C85.8,185.7,85.8,185.7,85.8,185.7
					C85.7,185.7,85.7,185.7,85.8,185.7c0,0.1,0.1,0.1,0.2,0.2c0.1,0.1,0.1,0.1,0.2,0.2c0,0,0,0,0,0c0,0,0,0,0,0c0,0,0,0,0,0
					c0,0,0,0,0,0c0,0,0,0,0,0h0h0c-0.1-0.1-0.2-0.2-0.3-0.3s-0.2-0.2-0.4-0.2c0,0.1,0.1,0.1,0.1,0.1
					C85.7,185.6,85.7,185.7,85.8,185.7z M86.4,186.5c0-0.1,0-0.1,0-0.1c0,0-0.1-0.1-0.1,0C86.3,186.4,86.3,186.4,86.4,186.5
					C86.3,186.5,86.4,186.5,86.4,186.5z"/>
				<path class="st2" d="M96.1,187.8c-0.1,0-0.1,0-0.1,0.1c0,0.1-0.1,0.1-0.1,0.2c0,0,0,0,0,0c-0.1,0.1-0.2,0.1-0.2,0.2
					c-0.1,0.1-0.2,0.2-0.2,0.2h0v0c0,0,0,0-0.1,0.1s-0.1,0-0.1,0c-0.1,0-0.1,0.1-0.1,0.1c0,0-0.1,0.1-0.1,0.1
					c-0.1,0.1-0.1,0.1-0.1,0.1c0,0-0.1,0.1-0.1,0.1c0,0,0,0,0,0c0,0-0.1,0.1-0.2,0.1c-0.1,0.1-0.2,0.1-0.3,0.2
					c-0.1,0.1-0.2,0.1-0.3,0.1c-0.1,0-0.2,0-0.2,0c0,0-0.1,0-0.1,0c-0.1,0-0.2,0-0.3,0.1s-0.2,0.1-0.3,0c0-0.1-0.1-0.1-0.1-0.1
					c-0.1,0-0.1-0.1-0.2-0.1c0,0-0.1-0.1-0.1-0.1c-0.1-0.1-0.2-0.2-0.3-0.3c-0.1-0.1-0.1-0.3-0.1-0.5c0-0.2,0-0.4,0-0.6
					c0-0.2,0.1-0.4,0.1-0.6c-0.2,0.1-0.3,0.3-0.4,0.4c-0.1,0.2-0.3,0.3-0.4,0.5c-0.1,0.1-0.1,0.2-0.2,0.2c-0.1,0.1-0.1,0.1-0.2,0.2
					c-0.2,0.2-0.4,0.4-0.5,0.6c0,0,0,0,0,0c0,0,0,0,0,0c-0.1,0.1-0.2,0.1-0.3,0.2c-0.1,0.1-0.2,0.2-0.3,0.2
					c-0.1,0.1-0.2,0.1-0.4,0.1s-0.3,0-0.4-0.1c-0.1,0-0.1,0-0.2-0.1c0,0-0.1-0.1-0.1-0.1c-0.1-0.1-0.2-0.1-0.2-0.2s0-0.2-0.1-0.3
					c0-0.1,0-0.2,0-0.3c0-0.1,0.1-0.2,0.1-0.3c0.1-0.2,0.1-0.4,0.2-0.6s0.2-0.3,0.3-0.5c0.2-0.3,0.4-0.5,0.6-0.7
					c0.2-0.2,0.4-0.4,0.6-0.6c0.1,0,0.1-0.1,0.2-0.1s0.2-0.1,0.2-0.1c0.1,0,0.1,0,0.2,0c0.1,0,0.1,0,0.2,0c0.2,0,0.4,0.1,0.6,0.2
					c0.2,0.1,0.3,0.2,0.4,0.4c0.1-0.1,0.1-0.1,0.2-0.1c0.1,0,0.1-0.1,0.2-0.1c0,0,0.1,0,0.1-0.1c0,0,0,0,0.1,0c0.1,0,0.2,0,0.3,0.1
					c0.1,0.1,0.2,0.1,0.3,0.2c0,0,0,0,0,0c0,0,0,0,0.1,0c0,0,0,0.1,0,0.1s0,0,0,0.1c0,0.2,0,0.4-0.1,0.6s-0.2,0.4-0.2,0.6
					c0,0.3-0.1,0.5-0.2,0.8c-0.1,0.3-0.1,0.6,0,0.8c0.4,0,0.7-0.1,1-0.3c0.3-0.1,0.5-0.3,0.8-0.4c0.1-0.1,0.2-0.1,0.3-0.2
					c0.1-0.1,0.2-0.1,0.2-0.2c0,0,0,0,0,0v0c0.1,0,0.2-0.1,0.3-0.2c0.2-0.1,0.3-0.3,0.5-0.4s0.3-0.3,0.5-0.4
					c0.1-0.1,0.2-0.1,0.3-0.1c0,0,0,0,0.1,0s0.1,0,0.1,0c0,0,0,0,0,0c0,0,0,0,0,0v0c0,0,0,0,0,0c0,0,0,0.1,0,0.1s0,0,0,0.1
					c0,0,0,0,0,0c0,0,0,0-0.1,0.1s-0.1,0.1-0.1,0.1c0,0.1,0,0.1,0,0.1s0,0.1,0,0.1c0,0-0.1,0-0.1,0c0,0.1-0.1,0.1-0.1,0.1
					c0,0-0.1,0.1-0.1,0.1c0,0,0,0-0.1,0.1L96.1,187.8z M91.7,186.3c0-0.1-0.1-0.3-0.1-0.4s-0.2-0.1-0.3,0l-0.3,0.3
					c0,0,0,0.1-0.1,0.1c0,0-0.1,0-0.1,0.1c0,0,0,0.1-0.1,0.1c0,0,0,0.1-0.1,0.1l-0.2,0.3c-0.1,0.2-0.2,0.3-0.4,0.5
					c-0.1,0.2-0.2,0.4-0.3,0.6c0,0.1,0,0.1-0.1,0.1c0,0-0.1,0.1-0.1,0.2c0,0,0,0,0,0c0,0,0,0,0,0c0,0.1-0.1,0.2-0.1,0.3
					c-0.1,0.1-0.1,0.2-0.1,0.3c0.1-0.1,0.2-0.1,0.3-0.2c0.1-0.1,0.2-0.1,0.2-0.2c0.3-0.3,0.6-0.6,0.9-1c0.3-0.3,0.6-0.7,0.9-1
					c0,0,0.1-0.1,0.1-0.1c0,0,0-0.1,0.1-0.1v0C91.8,186.3,91.7,186.3,91.7,186.3z"/>
				<path class="st2" d="M101.9,187.4c0,0,0,0.1-0.1,0.2s-0.2,0.2-0.3,0.3c0,0-0.1,0-0.1,0.1c-0.1,0.1-0.1,0.1-0.1,0.1l-0.1,0.1
					l-0.3,0.2l-0.1,0.1l-0.2,0.1c-0.2,0.1-0.4,0.2-0.5,0.3c-0.2,0.1-0.4,0.2-0.6,0.3c0,0,0,0-0.1,0s-0.1,0-0.1,0c0,0-0.1,0-0.1,0
					c0,0-0.1,0-0.1,0c0,0-0.1,0-0.1,0c0,0,0,0,0,0c-0.1,0-0.1,0-0.1,0c0,0-0.1,0-0.1,0.1c0,0-0.1,0-0.1,0s-0.1,0-0.1,0
					c0,0-0.1,0-0.1,0s-0.1,0-0.1,0c0,0,0,0,0,0c0,0,0,0,0,0c0,0-0.1,0-0.1,0c0,0-0.1,0-0.2,0c0,0-0.1,0-0.1,0c0,0-0.1,0-0.1,0l0,0
					c-0.2,0-0.3,0-0.4,0c0,0-0.1,0-0.1,0c0,0,0,0-0.1,0c-0.1,0-0.2,0-0.3-0.1s-0.2-0.1-0.3-0.1c-0.1-0.1-0.2-0.1-0.3-0.2
					s-0.2-0.2-0.3-0.3c0-0.1-0.1-0.2-0.1-0.2c0-0.1,0-0.1-0.1-0.2c0-0.1,0-0.2,0-0.2s0-0.2,0-0.2c0-0.1,0.1-0.3,0.1-0.5
					c0-0.2,0.1-0.4,0.3-0.5l0.4-0.4l0.2-0.3c0.1-0.1,0.2-0.1,0.2-0.2s0.1-0.1,0.2-0.2c0.1-0.1,0.1-0.1,0.2-0.1
					c0.1,0,0.1-0.1,0.2-0.1c0.1-0.1,0.2-0.1,0.2-0.2c0.1-0.1,0.2-0.1,0.2-0.2c0.1,0,0.2-0.1,0.2-0.1c0,0,0.1,0,0.1,0
					c0.1,0,0.1,0,0.1,0c0,0,0,0,0.1,0c0,0,0,0,0.1,0c0.1,0.1,0.1,0.2,0.2,0.2s0.2,0.1,0.2,0.2c0.1,0,0.1,0.1,0.1,0.1s0,0.1,0.1,0.1
					c0,0.1,0,0.2,0,0.2c0,0.1,0,0.1-0.1,0.2c0,0,0,0,0,0.1s0,0,0,0.1c0,0.1-0.1,0.1-0.1,0.1c0,0-0.1,0.1-0.1,0.1c0,0,0,0.1-0.1,0.1
					s0,0.1-0.1,0.1c0,0-0.1,0.1-0.2,0.2c-0.1,0.1-0.1,0.1-0.2,0.2c-0.1,0.1-0.1,0.1-0.2,0.2s-0.2,0.1-0.2,0.1c0,0,0,0.1,0,0.1
					c-0.1,0.1-0.2,0.2-0.3,0.2s-0.2,0.2-0.3,0.2c-0.2,0-0.3,0.1-0.5,0.2c-0.1,0.1-0.3,0.1-0.5,0.1c0,0,0,0,0,0c0,0,0,0,0.1,0
					c0,0.1,0,0.1,0,0.1c0,0,0,0.1,0.1,0.1c0.1,0.1,0.2,0.2,0.3,0.2c0.1,0.1,0.3,0.1,0.4,0.1c0.4,0.1,0.8,0.1,1.2,0
					c0.1,0,0.2,0,0.3-0.1c0.1,0,0.2-0.1,0.4-0.1c0.2-0.1,0.3-0.1,0.5-0.2l0.2-0.1c0,0,0.1,0,0.1,0c0,0,0,0,0,0c0,0,0,0,0,0
					c0,0,0,0,0,0l0.4-0.2c0.1-0.1,0.2-0.2,0.3-0.2c0.1,0,0.2-0.1,0.3-0.3c0,0,0,0,0.1-0.1c0.1,0,0.1-0.1,0.2-0.1
					c0.1,0,0.1-0.1,0.2-0.1c0.1,0,0.1-0.1,0.1-0.1l0.2-0.2c0.1-0.1,0.2-0.2,0.3-0.2s0.2-0.1,0.2-0.1c0,0,0.1,0.1,0.1,0.1
					c0,0.1,0,0.1,0.1,0.1c-0.1,0.1-0.1,0.2-0.1,0.2s0,0.1-0.1,0.1s0,0-0.1,0.1C102,187.3,102,187.4,101.9,187.4z M98.4,185.6
					c0,0-0.1,0-0.1,0.1c0,0-0.1,0.1-0.1,0.1c0,0-0.1,0-0.1,0c0,0,0,0-0.1,0c0,0,0,0-0.1,0l-0.1,0.1c-0.1,0.1-0.1,0.1-0.2,0.1
					s-0.1,0.1-0.2,0.1c-0.1,0.1-0.1,0.2-0.2,0.2c-0.1,0-0.1,0.1-0.2,0.2c-0.1,0.1-0.2,0.2-0.3,0.3c-0.1,0.1-0.2,0.2-0.3,0.4
					c-0.1,0.1-0.2,0.2-0.2,0.4c0.2-0.1,0.4-0.2,0.6-0.3c0.2-0.1,0.4-0.3,0.6-0.4c0.1-0.1,0.1-0.1,0.2-0.2c0.1-0.1,0.1-0.1,0.2-0.2
					c0.1-0.1,0.2-0.1,0.3-0.3c0.1-0.1,0.2-0.2,0.3-0.4c0-0.1,0-0.1,0.1-0.1c0,0,0-0.1,0-0.1C98.6,185.5,98.6,185.5,98.4,185.6
					C98.5,185.5,98.4,185.6,98.4,185.6z"/>
				<path class="st2" d="M101.4,189c0-0.1,0.1-0.2,0.1-0.2c0.1,0,0.1-0.1,0.2-0.2c0,0,0,0.1-0.1,0.1c0,0,0,0,0,0.1
					c0.2-0.1,0.2-0.2,0.3-0.3c0,0,0.1,0,0.1,0c0-0.1,0.1-0.1,0.1-0.1l0,0c0,0,0,0,0-0.1s0-0.1,0-0.1c0,0,0,0,0,0c0,0,0,0,0,0
					c0-0.1,0.1-0.1,0.1-0.1c0,0,0.1,0,0.1-0.1c0,0,0,0,0.1,0c0.1-0.1,0.2-0.1,0.3-0.2c0.1,0,0.2-0.1,0.2-0.2
					c0.1-0.1,0.3-0.1,0.4-0.2c0.1-0.1,0.3-0.2,0.4-0.2c0-0.2,0.1-0.4,0-0.6c0-0.2-0.1-0.4-0.1-0.6c0,0-0.1,0.1-0.2,0.1
					s-0.1,0.1-0.2,0.2l-0.2,0.2l-0.2,0.2l-0.3,0.3c-0.1,0.1-0.2,0.1-0.2,0.2c-0.1,0.1-0.1,0.1-0.2,0.1c-0.1,0.1-0.1,0.2-0.2,0.2
					s-0.1,0-0.2,0c0,0-0.1-0.1-0.1-0.1c0,0,0,0,0,0s0,0,0,0c0,0,0,0-0.1-0.1c0,0-0.1,0-0.1,0s0,0,0,0c0,0,0,0,0-0.1c0,0,0,0,0,0
					c0.1,0,0.1-0.1,0.2-0.1c0,0,0-0.1,0.1-0.1c0-0.1,0-0.1,0.1-0.1c0.1,0,0.1-0.1,0.1-0.1s0.1,0,0.1-0.1c0,0,0,0,0-0.1
					c0,0,0-0.1,0-0.1c0,0,0.1-0.1,0.1-0.1s0.1-0.1,0.1-0.1c0.1-0.1,0.2-0.2,0.3-0.3c0.1-0.1,0.2-0.2,0.2-0.3
					c0.1-0.2,0.2-0.3,0.4-0.4c0.2,0,0.3,0,0.4,0.1c0.2,0,0.3,0,0.3,0.1c0.1,0.1,0.1,0.1,0.2,0.3c0,0,0.1,0.1,0.1,0.2
					c0,0.1,0,0.2,0.1,0.3c0,0.1,0,0.2,0,0.3c0,0.1,0,0.2,0,0.2c0.1,0,0.2,0,0.3-0.1c0.2-0.1,0.3-0.1,0.5-0.2
					c0.2-0.1,0.4-0.1,0.5-0.2s0.3-0.1,0.3-0.1c0,0,0,0,0,0c0,0,0,0,0,0c0,0,0,0,0.1,0c0.1,0,0.2,0,0.2-0.1c0.1,0,0.2-0.1,0.2-0.1
					c0,0,0.1,0,0.1,0c0,0,0,0,0.1-0.1v0v0c0,0,0,0,0-0.1c0.1,0,0.2,0,0.3,0c0.1,0,0.2,0,0.2,0c0,0,0.1,0,0.1,0c0,0,0.1,0,0.1,0
					l0.2,0c0,0.1,0,0.1,0.1,0c0,0,0,0,0,0c0,0,0,0,0,0s0,0,0,0c0,0,0,0,0,0c0,0,0,0,0,0c0,0,0,0.1,0,0.1c0,0,0,0,0,0.1
					c-0.1,0-0.1,0-0.1,0c0,0-0.1,0-0.1,0c0,0,0,0,0,0c0,0,0,0,0,0c-0.1,0-0.1,0-0.2,0c-0.1,0-0.1,0-0.1,0.1c-0.1,0-0.2,0-0.3,0.1
					s-0.2,0-0.3,0.1c0,0,0,0.1,0,0.1c-0.1,0-0.1,0-0.2,0c0,0-0.1,0-0.1,0c-0.1,0-0.2,0-0.3,0.1c-0.1,0-0.2,0.1-0.3,0.1l-1.3,0.5
					c-0.1,0-0.2,0.1-0.3,0.1s-0.2,0.1-0.2,0.2c0,0.2-0.1,0.3-0.1,0.3c0,0.1-0.1,0.2-0.1,0.3c-0.1,0-0.1,0-0.1,0.1c0,0,0,0.1,0,0.1
					c0,0,0,0,0,0c0,0,0,0,0,0c0,0.1,0,0.1-0.1,0.2c0,0.1-0.1,0.1-0.1,0.2c0,0,0,0,0,0.1s0,0.1,0,0.1c0,0,0,0-0.1,0.1
					c0,0,0,0.1,0,0.1c0,0,0,0,0,0s0,0,0,0c0,0,0,0.1,0,0.1c0,0,0,0,0,0c-0.1,0.1-0.1,0.1-0.2,0.2c0,0.1-0.1,0.1-0.2,0.2c0,0,0,0,0,0
					s0,0,0,0c-0.2,0.2-0.3,0.3-0.5,0.5c-0.2,0.1-0.4,0.2-0.6,0.3c0,0,0,0,0,0c0,0-0.1,0-0.1,0c0,0,0,0,0,0c0,0,0,0,0.1,0
					c0-0.1-0.1-0.1-0.1,0c0,0-0.1,0-0.1,0c0,0,0,0,0,0v0c0,0-0.1,0-0.1,0s-0.1,0-0.2,0c0,0,0,0,0,0s0,0,0,0c-0.2,0-0.4,0-0.6-0.1
					c-0.1-0.1-0.3-0.2-0.4-0.3c0,0,0,0,0,0c0,0,0,0,0,0c0,0,0,0,0,0c0,0,0,0,0-0.1c0,0,0,0.1-0.1,0c0,0,0,0-0.1,0c0,0,0-0.1,0-0.1
					c0,0,0,0,0-0.1c0,0,0,0,0,0s0,0,0,0c0,0,0-0.1,0-0.1c0,0,0.1,0,0.1,0c0-0.2,0-0.3,0.1-0.3c0,0,0,0,0,0c0,0,0,0,0,0
					c0.1,0,0.1-0.1,0.1-0.2c0-0.1,0.1-0.2,0.1-0.3C101.3,189.1,101.3,189.1,101.4,189C101.4,189,101.4,189,101.4,189z M101.6,188.9
					C101.6,188.8,101.6,188.8,101.6,188.9C101.6,188.8,101.6,188.9,101.6,188.9z M102.8,188.6C102.8,188.6,102.8,188.6,102.8,188.6
					C102.8,188.6,102.8,188.6,102.8,188.6c-0.1,0.1-0.2,0.2-0.3,0.3s-0.2,0.2-0.3,0.3c0,0,0,0.1,0,0c0,0,0,0,0,0s0,0,0,0
					c-0.1,0-0.1,0.1-0.1,0.1c0,0,0,0,0,0c0,0.1-0.1,0.1-0.2,0.2s-0.1,0.1-0.1,0.2c0,0,0,0,0,0s0,0,0,0c0.1,0,0.3-0.1,0.4-0.1
					s0.2-0.1,0.4-0.2c0,0,0-0.1,0-0.1c0,0,0,0,0,0c0.2-0.2,0.4-0.4,0.6-0.7c0.2-0.3,0.3-0.5,0.5-0.8l0,0c-0.1,0.1-0.2,0.2-0.3,0.3
					S103,188.5,102.8,188.6z M102.5,190.5c0,0,0.1,0,0.1-0.1C102.6,190.4,102.6,190.4,102.5,190.5
					C102.5,190.4,102.5,190.5,102.5,190.5z"/>
				<path class="st2" d="M106.8,189c0-0.1,0.1-0.2,0.1-0.2c0.1,0,0.1-0.1,0.2-0.2c0,0,0,0.1-0.1,0.1c0,0,0,0,0,0.1
					c0.2-0.1,0.2-0.2,0.3-0.3c0,0,0.1,0,0.1,0c0-0.1,0.1-0.1,0.1-0.1l0,0c0,0,0,0,0-0.1s0-0.1,0-0.1c0,0,0,0,0,0c0,0,0,0,0,0
					c0-0.1,0.1-0.1,0.1-0.1c0,0,0.1,0,0.1-0.1c0,0,0,0,0.1,0c0.1-0.1,0.2-0.1,0.3-0.2c0.1,0,0.2-0.1,0.2-0.2
					c0.1-0.1,0.3-0.1,0.4-0.2c0.1-0.1,0.3-0.2,0.4-0.2c0-0.2,0.1-0.4,0-0.6c0-0.2-0.1-0.4-0.1-0.6c0,0-0.1,0.1-0.2,0.1
					s-0.1,0.1-0.2,0.2l-0.2,0.2l-0.2,0.2l-0.3,0.3c-0.1,0.1-0.2,0.1-0.2,0.2c-0.1,0.1-0.1,0.1-0.2,0.1c-0.1,0.1-0.1,0.2-0.2,0.2
					s-0.1,0-0.2,0c0,0-0.1-0.1-0.1-0.1c0,0,0,0,0,0s0,0,0,0c0,0,0,0-0.1-0.1c0,0-0.1,0-0.1,0s0,0,0,0c0,0,0,0,0-0.1c0,0,0,0,0,0
					c0.1,0,0.1-0.1,0.2-0.1c0,0,0-0.1,0.1-0.1c0-0.1,0-0.1,0.1-0.1c0.1,0,0.1-0.1,0.1-0.1s0.1,0,0.1-0.1c0,0,0,0,0-0.1
					c0,0,0-0.1,0-0.1c0,0,0.1-0.1,0.1-0.1s0.1-0.1,0.1-0.1c0.1-0.1,0.2-0.2,0.3-0.3c0.1-0.1,0.2-0.2,0.2-0.3
					c0.1-0.2,0.2-0.3,0.4-0.4c0.2,0,0.3,0,0.4,0.1c0.2,0,0.3,0,0.3,0.1c0.1,0.1,0.1,0.1,0.2,0.3c0,0,0.1,0.1,0.1,0.2
					c0,0.1,0,0.2,0.1,0.3c0,0.1,0,0.2,0,0.3c0,0.1,0,0.2,0,0.2c0.1,0,0.2,0,0.3-0.1c0.2-0.1,0.3-0.1,0.5-0.2
					c0.2-0.1,0.4-0.1,0.5-0.2s0.3-0.1,0.3-0.1c0,0,0,0,0,0c0,0,0,0,0,0c0,0,0,0,0.1,0c0.1,0,0.2,0,0.2-0.1c0.1,0,0.2-0.1,0.2-0.1
					c0,0,0.1,0,0.1,0c0,0,0,0,0.1-0.1v0v0c0,0,0,0,0-0.1c0.1,0,0.2,0,0.3,0c0.1,0,0.2,0,0.2,0c0,0,0.1,0,0.1,0c0,0,0.1,0,0.1,0
					l0.2,0c0,0.1,0,0.1,0.1,0c0,0,0,0,0,0c0,0,0,0,0,0s0,0,0,0c0,0,0,0,0,0c0,0,0,0,0,0c0,0,0,0.1,0,0.1c0,0,0,0,0,0.1
					c-0.1,0-0.1,0-0.1,0c0,0-0.1,0-0.1,0c0,0,0,0,0,0c0,0,0,0,0,0c-0.1,0-0.1,0-0.2,0c-0.1,0-0.1,0-0.1,0.1c-0.1,0-0.2,0-0.3,0.1
					s-0.2,0-0.3,0.1c0,0,0,0.1,0,0.1c-0.1,0-0.1,0-0.2,0c0,0-0.1,0-0.1,0c-0.1,0-0.2,0-0.3,0.1c-0.1,0-0.2,0.1-0.3,0.1l-1.3,0.5
					c-0.1,0-0.2,0.1-0.3,0.1s-0.2,0.1-0.2,0.2c0,0.2-0.1,0.3-0.1,0.3c0,0.1-0.1,0.2-0.1,0.3c-0.1,0-0.1,0-0.1,0.1c0,0,0,0.1,0,0.1
					c0,0,0,0,0,0c0,0,0,0,0,0c0,0.1,0,0.1-0.1,0.2c0,0.1-0.1,0.1-0.1,0.2c0,0,0,0,0,0.1s0,0.1,0,0.1c0,0,0,0-0.1,0.1
					c0,0,0,0.1,0,0.1c0,0,0,0,0,0s0,0,0,0c0,0,0,0.1,0,0.1c0,0,0,0,0,0c-0.1,0.1-0.1,0.1-0.2,0.2c0,0.1-0.1,0.1-0.2,0.2c0,0,0,0,0,0
					s0,0,0,0c-0.2,0.2-0.3,0.3-0.5,0.5c-0.2,0.1-0.4,0.2-0.6,0.3c0,0,0,0,0,0c0,0-0.1,0-0.1,0c0,0,0,0,0,0c0,0,0,0,0.1,0
					c0-0.1-0.1-0.1-0.1,0c0,0-0.1,0-0.1,0c0,0,0,0,0,0v0c0,0-0.1,0-0.1,0s-0.1,0-0.2,0c0,0,0,0,0,0s0,0,0,0c-0.2,0-0.4,0-0.6-0.1
					c-0.1-0.1-0.3-0.2-0.4-0.3c0,0,0,0,0,0c0,0,0,0,0,0c0,0,0,0,0,0c0,0,0,0,0-0.1c0,0,0,0.1-0.1,0c0,0,0,0-0.1,0c0,0,0-0.1,0-0.1
					c0,0,0,0,0-0.1c0,0,0,0,0,0s0,0,0,0c0,0,0-0.1,0-0.1c0,0,0.1,0,0.1,0c0-0.2,0-0.3,0.1-0.3c0,0,0,0,0,0c0,0,0,0,0,0
					c0.1,0,0.1-0.1,0.1-0.2c0-0.1,0.1-0.2,0.1-0.3C106.6,189.1,106.7,189.1,106.8,189C106.7,189,106.8,189,106.8,189z M106.9,188.9
					C106.9,188.8,106.9,188.8,106.9,188.9C107,188.8,106.9,188.9,106.9,188.9z M108.2,188.6C108.2,188.6,108.2,188.6,108.2,188.6
					C108.2,188.6,108.2,188.6,108.2,188.6c-0.1,0.1-0.2,0.2-0.3,0.3s-0.2,0.2-0.3,0.3c0,0,0,0.1,0,0c0,0,0,0,0,0s0,0,0,0
					c-0.1,0-0.1,0.1-0.1,0.1c0,0,0,0,0,0c0,0.1-0.1,0.1-0.2,0.2s-0.1,0.1-0.1,0.2c0,0,0,0,0,0s0,0,0,0c0.1,0,0.3-0.1,0.4-0.1
					s0.2-0.1,0.4-0.2c0,0,0-0.1,0-0.1c0,0,0,0,0,0c0.2-0.2,0.4-0.4,0.6-0.7c0.2-0.3,0.3-0.5,0.5-0.8l0,0c-0.1,0.1-0.2,0.2-0.3,0.3
					S108.3,188.5,108.2,188.6z M107.9,190.5c0,0,0.1,0,0.1-0.1C108,190.4,108,190.4,107.9,190.5
					C107.9,190.4,107.9,190.5,107.9,190.5z"/>
				<path class="st2" d="M118.2,187.4c0,0,0,0.1-0.1,0.2s-0.2,0.2-0.3,0.3c0,0-0.1,0-0.1,0.1c-0.1,0.1-0.1,0.1-0.1,0.1l-0.1,0.1
					l-0.3,0.2l-0.1,0.1l-0.2,0.1c-0.2,0.1-0.4,0.2-0.5,0.3c-0.2,0.1-0.4,0.2-0.6,0.3c0,0,0,0-0.1,0s-0.1,0-0.1,0c0,0-0.1,0-0.1,0
					c0,0-0.1,0-0.1,0c0,0-0.1,0-0.1,0c0,0,0,0,0,0c-0.1,0-0.1,0-0.1,0c0,0-0.1,0-0.1,0.1c0,0-0.1,0-0.1,0s-0.1,0-0.1,0
					c0,0-0.1,0-0.1,0s-0.1,0-0.1,0c0,0,0,0,0,0c0,0,0,0,0,0c0,0-0.1,0-0.1,0c0,0-0.1,0-0.2,0c0,0-0.1,0-0.1,0c0,0-0.1,0-0.1,0l0,0
					c-0.2,0-0.3,0-0.4,0c0,0-0.1,0-0.1,0c0,0,0,0-0.1,0c-0.1,0-0.2,0-0.3-0.1s-0.2-0.1-0.3-0.1c-0.1-0.1-0.2-0.1-0.3-0.2
					s-0.2-0.2-0.3-0.3c0-0.1-0.1-0.2-0.1-0.2c0-0.1,0-0.1-0.1-0.2c0-0.1,0-0.2,0-0.2s0-0.2,0-0.2c0-0.1,0.1-0.3,0.1-0.5
					c0-0.2,0.1-0.4,0.3-0.5l0.4-0.4l0.2-0.3c0.1-0.1,0.2-0.1,0.2-0.2s0.1-0.1,0.2-0.2c0.1-0.1,0.1-0.1,0.2-0.1
					c0.1,0,0.1-0.1,0.2-0.1c0.1-0.1,0.2-0.1,0.2-0.2c0.1-0.1,0.2-0.1,0.2-0.2c0.1,0,0.2-0.1,0.2-0.1c0,0,0.1,0,0.1,0
					c0.1,0,0.1,0,0.1,0c0,0,0,0,0.1,0c0,0,0,0,0.1,0c0.1,0.1,0.1,0.2,0.2,0.2s0.2,0.1,0.2,0.2c0.1,0,0.1,0.1,0.1,0.1s0,0.1,0.1,0.1
					c0,0.1,0,0.2,0,0.2c0,0.1,0,0.1-0.1,0.2c0,0,0,0,0,0.1s0,0,0,0.1c0,0.1-0.1,0.1-0.1,0.1c0,0-0.1,0.1-0.1,0.1c0,0,0,0.1-0.1,0.1
					s0,0.1-0.1,0.1c0,0-0.1,0.1-0.2,0.2c-0.1,0.1-0.1,0.1-0.2,0.2c-0.1,0.1-0.1,0.1-0.2,0.2s-0.2,0.1-0.2,0.1c0,0,0,0.1,0,0.1
					c-0.1,0.1-0.2,0.2-0.3,0.2s-0.2,0.2-0.3,0.2c-0.2,0-0.3,0.1-0.5,0.2c-0.1,0.1-0.3,0.1-0.5,0.1c0,0,0,0,0,0c0,0,0,0,0.1,0
					c0,0.1,0,0.1,0,0.1c0,0,0,0.1,0.1,0.1c0.1,0.1,0.2,0.2,0.3,0.2c0.1,0.1,0.3,0.1,0.4,0.1c0.4,0.1,0.8,0.1,1.2,0
					c0.1,0,0.2,0,0.3-0.1c0.1,0,0.2-0.1,0.4-0.1c0.2-0.1,0.3-0.1,0.5-0.2l0.2-0.1c0,0,0.1,0,0.1,0c0,0,0,0,0,0c0,0,0,0,0,0
					c0,0,0,0,0,0l0.4-0.2c0.1-0.1,0.2-0.2,0.3-0.2c0.1,0,0.2-0.1,0.3-0.3c0,0,0,0,0.1-0.1c0.1,0,0.1-0.1,0.2-0.1
					c0.1,0,0.1-0.1,0.2-0.1c0.1,0,0.1-0.1,0.1-0.1l0.2-0.2c0.1-0.1,0.2-0.2,0.3-0.2s0.2-0.1,0.2-0.1c0,0,0.1,0.1,0.1,0.1
					c0,0.1,0,0.1,0.1,0.1c-0.1,0.1-0.1,0.2-0.1,0.2s0,0.1-0.1,0.1s0,0-0.1,0.1C118.3,187.3,118.3,187.4,118.2,187.4z M114.7,185.6
					c0,0-0.1,0-0.1,0.1c0,0-0.1,0.1-0.1,0.1c0,0-0.1,0-0.1,0c0,0,0,0-0.1,0c0,0,0,0-0.1,0l-0.1,0.1c-0.1,0.1-0.1,0.1-0.2,0.1
					s-0.1,0.1-0.2,0.1c-0.1,0.1-0.1,0.2-0.2,0.2c-0.1,0-0.1,0.1-0.2,0.2c-0.1,0.1-0.2,0.2-0.3,0.3c-0.1,0.1-0.2,0.2-0.3,0.4
					c-0.1,0.1-0.2,0.2-0.2,0.4c0.2-0.1,0.4-0.2,0.6-0.3c0.2-0.1,0.4-0.3,0.6-0.4c0.1-0.1,0.1-0.1,0.2-0.2c0.1-0.1,0.1-0.1,0.2-0.2
					c0.1-0.1,0.2-0.1,0.3-0.3c0.1-0.1,0.2-0.2,0.3-0.4c0-0.1,0-0.1,0.1-0.1c0,0,0-0.1,0-0.1C114.9,185.5,114.9,185.5,114.7,185.6
					C114.8,185.5,114.7,185.6,114.7,185.6z"/>
			</g>
		</g>
	</g>
</g>
</svg>
