<?xml version="1.0" encoding="utf-8"?>
<!-- Generator: Adobe Illustrator 23.0.1, SVG Export Plug-In . SVG Version: 6.00 Build 0)  -->
<svg version="1.1" id="Camada_3" xmlns="http://www.w3.org/2000/svg" xmlns:xlink="http://www.w3.org/1999/xlink" x="0px" y="0px"
	 viewBox="0 0 185.2 190.5" style="enable-background:new 0 0 185.2 190.5;" xml:space="preserve">
<style type="text/css">
	.st0{fill:none;}
	.st1{fill:#8E1E4C;}
</style>
<g>
	<rect x="-0.2" y="-0.2" class="st0" width="185.8" height="191.1"/>
	<rect x="163.8" y="11.1" class="st0" width="10.1" height="9.8"/>
	<rect x="163.8" y="21.7" class="st0" width="10.1" height="9.8"/>
	<rect x="163.8" y="32.3" class="st0" width="10.1" height="9.8"/>
	<rect x="163.8" y="42.8" class="st0" width="10.1" height="9.8"/>
	<rect x="163.8" y="53.4" class="st0" width="10.1" height="9.8"/>
	<rect x="163.8" y="64" class="st0" width="10.1" height="9.8"/>
	<rect x="163.8" y="74.6" class="st0" width="10.1" height="9.8"/>
	<rect x="163.8" y="85.1" class="st0" width="10.1" height="9.8"/>
	<rect x="163.8" y="95.7" class="st0" width="10.1" height="9.8"/>
	<rect x="163.8" y="106.3" class="st0" width="10.1" height="9.8"/>
	<rect x="163.8" y="116.9" class="st0" width="10.1" height="9.8"/>
	<rect x="163.8" y="127.4" class="st0" width="10.1" height="9.8"/>
	<rect x="163.8" y="138" class="st0" width="10.1" height="9.8"/>
	<rect x="163.8" y="148.6" class="st0" width="10.1" height="9.8"/>
	<rect x="163.8" y="159.2" class="st0" width="10.1" height="9.8"/>
	<rect x="163.8" y="169.7" class="st0" width="10.1" height="9.8"/>
	<rect x="152.9" y="11.1" class="st0" width="10.1" height="9.8"/>
	<rect x="152.9" y="21.7" class="st0" width="10.1" height="9.8"/>
	<rect x="152.9" y="32.3" class="st0" width="10.1" height="9.8"/>
	<rect x="152.9" y="42.8" class="st0" width="10.1" height="9.8"/>
	<rect x="152.9" y="53.4" class="st0" width="10.1" height="9.8"/>
	<rect x="152.9" y="64" class="st0" width="10.1" height="9.8"/>
	<rect x="152.9" y="106.3" class="st0" width="10.1" height="9.8"/>
	<rect x="152.9" y="116.9" class="st0" width="10.1" height="9.8"/>
	<rect x="152.9" y="127.4" class="st0" width="10.1" height="9.8"/>
	<rect x="152.9" y="138" class="st0" width="10.1" height="9.8"/>
	<rect x="152.9" y="148.6" class="st0" width="10.1" height="9.8"/>
	<rect x="152.9" y="169.7" class="st0" width="10.1" height="9.8"/>
	<rect x="142" y="11.1" class="st0" width="10.1" height="9.8"/>
	<rect x="142" y="21.7" class="st0" width="10.1" height="9.8"/>
	<rect x="142" y="32.3" class="st0" width="10.1" height="9.8"/>
	<rect x="142" y="42.8" class="st0" width="10.1" height="9.8"/>
	<rect x="142" y="53.4" class="st0" width="10.1" height="9.8"/>
	<rect x="142" y="74.6" class="st0" width="10.1" height="9.8"/>
	<rect x="142" y="85.1" class="st0" width="10.1" height="9.8"/>
	<rect x="142" y="95.7" class="st0" width="10.1" height="9.8"/>
	<rect x="142" y="116.9" class="st0" width="10.1" height="9.8"/>
	<rect x="142" y="127.4" class="st0" width="10.1" height="9.8"/>
	<rect x="142" y="138" class="st0" width="10.1" height="9.8"/>
	<rect x="142" y="159.2" class="st0" width="10.1" height="9.8"/>
	<rect x="142" y="169.7" class="st0" width="10.1" height="9.8"/>
	<rect x="131.2" y="11.1" class="st0" width="10.1" height="9.8"/>
	<rect x="131.2" y="21.7" class="st0" width="10.1" height="9.8"/>
	<rect x="131.2" y="32.3" class="st0" width="10.1" height="9.8"/>
	<rect x="131.2" y="42.8" class="st0" width="10.1" height="9.8"/>
	<rect x="131.2" y="53.4" class="st0" width="10.1" height="9.8"/>
	<rect x="131.2" y="74.6" class="st0" width="10.1" height="9.8"/>
	<rect x="131.2" y="85.1" class="st0" width="10.1" height="9.8"/>
	<rect x="131.2" y="95.7" class="st0" width="10.1" height="9.8"/>
	<rect x="131.2" y="116.9" class="st0" width="10.1" height="9.8"/>
	<rect x="131.2" y="127.4" class="st0" width="10.1" height="9.8"/>
	<rect x="131.2" y="148.6" class="st0" width="10.1" height="9.8"/>
	<rect x="131.2" y="159.2" class="st0" width="10.1" height="9.8"/>
	<rect x="131.2" y="169.7" class="st0" width="10.1" height="9.8"/>
	<rect x="120.3" y="11.1" class="st0" width="10.1" height="9.8"/>
	<rect x="120.3" y="21.7" class="st0" width="10.1" height="9.8"/>
	<rect x="120.3" y="32.3" class="st0" width="10.1" height="9.8"/>
	<rect x="120.3" y="42.8" class="st0" width="10.1" height="9.8"/>
	<rect x="120.3" y="53.4" class="st0" width="10.1" height="9.8"/>
	<rect x="120.3" y="74.6" class="st0" width="10.1" height="9.8"/>
	<rect x="120.3" y="85.1" class="st0" width="10.1" height="9.8"/>
	<rect x="120.3" y="95.7" class="st0" width="10.1" height="9.8"/>
	<rect x="120.3" y="116.9" class="st0" width="10.1" height="9.8"/>
	<rect x="120.3" y="138" class="st0" width="10.1" height="9.8"/>
	<rect x="120.3" y="148.6" class="st0" width="10.1" height="9.8"/>
	<rect x="120.3" y="159.2" class="st0" width="10.1" height="9.8"/>
	<rect x="120.3" y="169.7" class="st0" width="10.1" height="9.8"/>
	<rect x="109.4" y="11.1" class="st0" width="10.1" height="9.8"/>
	<rect x="109.4" y="21.7" class="st0" width="10.1" height="9.8"/>
	<rect x="109.4" y="32.3" class="st0" width="10.1" height="9.8"/>
	<rect x="109.4" y="42.8" class="st0" width="10.1" height="9.8"/>
	<rect x="109.4" y="53.4" class="st0" width="10.1" height="9.8"/>
	<rect x="109.4" y="74.6" class="st0" width="10.1" height="9.8"/>
	<rect x="109.4" y="85.1" class="st0" width="10.1" height="9.8"/>
	<rect x="109.4" y="95.7" class="st0" width="10.1" height="9.8"/>
	<rect x="109.4" y="127.4" class="st0" width="10.1" height="9.8"/>
	<rect x="109.4" y="138" class="st0" width="10.1" height="9.8"/>
	<rect x="109.4" y="148.6" class="st0" width="10.1" height="9.8"/>
	<rect x="109.4" y="159.2" class="st0" width="10.1" height="9.8"/>
	<rect x="109.4" y="169.7" class="st0" width="10.1" height="9.8"/>
	<rect x="98.5" y="11.1" class="st0" width="10.1" height="9.8"/>
	<rect x="98.5" y="21.7" class="st0" width="10.1" height="9.8"/>
	<rect x="98.5" y="32.3" class="st0" width="10.1" height="9.8"/>
	<rect x="98.5" y="42.8" class="st0" width="10.1" height="9.8"/>
	<rect x="98.5" y="53.4" class="st0" width="10.1" height="9.8"/>
	<rect x="98.5" y="169.7" class="st0" width="10.1" height="9.8"/>
	<rect x="87.6" y="11.1" class="st0" width="10.1" height="9.8"/>
	<rect x="87.6" y="21.7" class="st0" width="10.1" height="9.8"/>
	<rect x="87.6" y="32.3" class="st0" width="10.1" height="9.8"/>
	<rect x="87.6" y="42.8" class="st0" width="10.1" height="9.8"/>
	<rect x="87.6" y="53.4" class="st0" width="10.1" height="9.8"/>
	<rect x="87.6" y="64" class="st0" width="10.1" height="9.8"/>
	<rect x="87.6" y="74.6" class="st0" width="10.1" height="9.8"/>
	<rect x="87.6" y="85.1" class="st0" width="10.1" height="9.8"/>
	<rect x="87.6" y="95.7" class="st0" width="10.1" height="9.8"/>
	<rect x="87.6" y="106.3" class="st0" width="10.1" height="9.8"/>
	<rect x="87.6" y="116.9" class="st0" width="10.1" height="9.8"/>
	<rect x="87.6" y="127.4" class="st0" width="10.1" height="9.8"/>
	<rect x="87.6" y="138" class="st0" width="10.1" height="9.8"/>
	<rect x="87.6" y="148.6" class="st0" width="10.1" height="9.8"/>
	<rect x="87.6" y="159.2" class="st0" width="10.1" height="9.8"/>
	<rect x="87.6" y="169.7" class="st0" width="10.1" height="9.8"/>
	<rect x="76.7" y="11.1" class="st0" width="10.1" height="9.8"/>
	<rect x="76.7" y="21.7" class="st0" width="10.1" height="9.8"/>
	<rect x="76.7" y="64" class="st0" width="10.1" height="9.8"/>
	<rect x="76.7" y="74.6" class="st0" width="10.1" height="9.8"/>
	<rect x="76.7" y="85.1" class="st0" width="10.1" height="9.8"/>
	<rect x="76.7" y="95.7" class="st0" width="10.1" height="9.8"/>
	<rect x="76.7" y="106.3" class="st0" width="10.1" height="9.8"/>
	<rect x="76.7" y="116.9" class="st0" width="10.1" height="9.8"/>
	<rect x="76.7" y="127.4" class="st0" width="10.1" height="9.8"/>
	<rect x="76.7" y="138" class="st0" width="10.1" height="9.8"/>
	<rect x="76.7" y="148.6" class="st0" width="10.1" height="9.8"/>
	<rect x="76.7" y="159.2" class="st0" width="10.1" height="9.8"/>
	<rect x="76.7" y="169.7" class="st0" width="10.1" height="9.8"/>
	<rect x="65.9" y="11.1" class="st0" width="10.1" height="9.8"/>
	<rect x="65.9" y="32.3" class="st0" width="10.1" height="9.8"/>
	<rect x="65.9" y="42.8" class="st0" width="10.1" height="9.8"/>
	<rect x="65.9" y="53.4" class="st0" width="10.1" height="9.8"/>
	<rect x="65.9" y="74.6" class="st0" width="10.1" height="9.8"/>
	<rect x="65.9" y="85.1" class="st0" width="10.1" height="9.8"/>
	<rect x="65.9" y="95.7" class="st0" width="10.1" height="9.8"/>
	<rect x="65.9" y="106.3" class="st0" width="10.1" height="9.8"/>
	<rect x="65.9" y="116.9" class="st0" width="10.1" height="9.8"/>
	<rect x="65.9" y="127.4" class="st0" width="10.1" height="9.8"/>
	<rect x="65.9" y="138" class="st0" width="10.1" height="9.8"/>
	<rect x="65.9" y="148.6" class="st0" width="10.1" height="9.8"/>
	<rect x="65.9" y="159.2" class="st0" width="10.1" height="9.8"/>
	<rect x="65.9" y="169.7" class="st0" width="10.1" height="9.8"/>
	<rect x="55" y="11.1" class="st0" width="10.1" height="9.8"/>
	<rect x="55" y="32.3" class="st0" width="10.1" height="9.8"/>
	<rect x="55" y="42.8" class="st0" width="10.1" height="9.8"/>
	<rect x="55" y="53.4" class="st0" width="10.1" height="9.8"/>
	<rect x="55" y="74.6" class="st0" width="10.1" height="9.8"/>
	<rect x="55" y="85.1" class="st0" width="10.1" height="9.8"/>
	<rect x="55" y="95.7" class="st0" width="10.1" height="9.8"/>
	<rect x="55" y="106.3" class="st0" width="10.1" height="9.8"/>
	<rect x="55" y="116.9" class="st0" width="10.1" height="9.8"/>
	<rect x="55" y="127.4" class="st0" width="10.1" height="9.8"/>
	<rect x="55" y="138" class="st0" width="10.1" height="9.8"/>
	<rect x="55" y="148.6" class="st0" width="10.1" height="9.8"/>
	<rect x="55" y="159.2" class="st0" width="10.1" height="9.8"/>
	<rect x="55" y="169.7" class="st0" width="10.1" height="9.8"/>
	<rect x="44.1" y="11.1" class="st0" width="10.1" height="9.8"/>
	<rect x="44.1" y="32.3" class="st0" width="10.1" height="9.8"/>
	<rect x="44.1" y="42.8" class="st0" width="10.1" height="9.8"/>
	<rect x="44.1" y="53.4" class="st0" width="10.1" height="9.8"/>
	<rect x="44.1" y="74.6" class="st0" width="10.1" height="9.8"/>
	<rect x="44.1" y="85.1" class="st0" width="10.1" height="9.8"/>
	<rect x="44.1" y="95.7" class="st0" width="10.1" height="9.8"/>
	<rect x="44.1" y="106.3" class="st0" width="10.1" height="9.8"/>
	<rect x="44.1" y="116.9" class="st0" width="10.1" height="9.8"/>
	<rect x="44.1" y="127.4" class="st0" width="10.1" height="9.8"/>
	<rect x="44.1" y="138" class="st0" width="10.1" height="9.8"/>
	<rect x="44.1" y="148.6" class="st0" width="10.1" height="9.8"/>
	<rect x="44.1" y="159.2" class="st0" width="10.1" height="9.8"/>
	<rect x="44.1" y="169.7" class="st0" width="10.1" height="9.8"/>
	<rect x="33.2" y="11.1" class="st0" width="10.1" height="9.8"/>
	<rect x="33.2" y="32.3" class="st0" width="10.1" height="9.8"/>
	<rect x="33.2" y="42.8" class="st0" width="10.1" height="9.8"/>
	<rect x="33.2" y="53.4" class="st0" width="10.1" height="9.8"/>
	<rect x="33.2" y="74.6" class="st0" width="10.1" height="9.8"/>
	<rect x="33.2" y="85.1" class="st0" width="10.1" height="9.8"/>
	<rect x="33.2" y="95.7" class="st0" width="10.1" height="9.8"/>
	<rect x="33.2" y="106.3" class="st0" width="10.1" height="9.8"/>
	<rect x="33.2" y="116.9" class="st0" width="10.1" height="9.8"/>
	<rect x="33.2" y="127.4" class="st0" width="10.1" height="9.8"/>
	<rect x="33.2" y="138" class="st0" width="10.1" height="9.8"/>
	<rect x="33.2" y="148.6" class="st0" width="10.1" height="9.8"/>
	<rect x="33.2" y="159.2" class="st0" width="10.1" height="9.8"/>
	<rect x="33.2" y="169.7" class="st0" width="10.1" height="9.8"/>
	<rect x="22.3" y="11.1" class="st0" width="10.1" height="9.8"/>
	<rect x="22.3" y="127.4" class="st0" width="10.1" height="9.8"/>
	<rect x="22.3" y="138" class="st0" width="10.1" height="9.8"/>
	<rect x="22.3" y="148.6" class="st0" width="10.1" height="9.8"/>
	<rect x="22.3" y="159.2" class="st0" width="10.1" height="9.8"/>
	<rect x="22.3" y="169.7" class="st0" width="10.1" height="9.8"/>
	<rect x="11.4" y="11.1" class="st0" width="10.1" height="9.8"/>
	<rect x="11.4" y="21.7" class="st0" width="10.1" height="9.8"/>
	<rect x="11.4" y="32.3" class="st0" width="10.1" height="9.8"/>
	<rect x="11.4" y="42.8" class="st0" width="10.1" height="9.8"/>
	<rect x="11.4" y="53.4" class="st0" width="10.1" height="9.8"/>
	<rect x="11.4" y="64" class="st0" width="10.1" height="9.8"/>
	<rect x="11.4" y="74.6" class="st0" width="10.1" height="9.8"/>
	<rect x="11.4" y="85.1" class="st0" width="10.1" height="9.8"/>
	<rect x="11.4" y="95.7" class="st0" width="10.1" height="9.8"/>
	<rect x="11.4" y="106.3" class="st0" width="10.1" height="9.8"/>
	<rect x="11.4" y="116.9" class="st0" width="10.1" height="9.8"/>
	<rect x="11.4" y="127.4" class="st0" width="10.1" height="9.8"/>
	<rect x="11.4" y="138" class="st0" width="10.1" height="9.8"/>
	<rect x="11.4" y="148.6" class="st0" width="10.1" height="9.8"/>
	<rect x="11.4" y="159.2" class="st0" width="10.1" height="9.8"/>
	<rect x="11.4" y="169.7" class="st0" width="10.1" height="9.8"/>
	<g>
		<rect x="152.9" y="74.6" class="st1" width="10.1" height="9.8"/>
		<rect x="152.9" y="85.1" class="st1" width="10.1" height="9.8"/>
		<rect x="152.9" y="95.7" class="st1" width="10.1" height="9.8"/>
		<rect x="152.9" y="159.2" class="st1" width="10.1" height="9.8"/>
		<rect x="142" y="64" class="st1" width="10.1" height="9.8"/>
		<rect x="142" y="106.3" class="st1" width="10.1" height="9.8"/>
		<rect x="142" y="148.6" class="st1" width="10.1" height="9.8"/>
		<rect x="131.2" y="64" class="st1" width="10.1" height="9.8"/>
		<rect x="131.2" y="106.3" class="st1" width="10.1" height="9.8"/>
		<rect x="131.2" y="138" class="st1" width="10.1" height="9.8"/>
		<rect x="120.3" y="64" class="st1" width="10.1" height="9.8"/>
		<rect x="120.3" y="106.3" class="st1" width="10.1" height="9.8"/>
		<rect x="120.3" y="127.4" class="st1" width="10.1" height="9.8"/>
		<rect x="109.4" y="64" class="st1" width="10.1" height="9.8"/>
		<rect x="109.4" y="106.3" class="st1" width="10.1" height="9.8"/>
		<rect x="109.4" y="116.9" class="st1" width="10.1" height="9.8"/>
		<rect x="98.5" y="64" class="st1" width="10.1" height="9.8"/>
		<rect x="98.5" y="74.6" class="st1" width="10.1" height="9.8"/>
		<rect x="98.5" y="85.1" class="st1" width="10.1" height="9.8"/>
		<rect x="98.5" y="95.7" class="st1" width="10.1" height="9.8"/>
		<rect x="98.5" y="106.3" class="st1" width="10.1" height="9.8"/>
		<rect x="98.5" y="116.9" class="st1" width="10.1" height="9.8"/>
		<rect x="98.5" y="127.4" class="st1" width="10.1" height="9.8"/>
		<rect x="98.5" y="138" class="st1" width="10.1" height="9.8"/>
		<rect x="98.5" y="148.6" class="st1" width="10.1" height="9.8"/>
		<rect x="98.5" y="159.2" class="st1" width="10.1" height="9.8"/>
		<rect x="76.7" y="32.3" class="st1" width="10.1" height="9.8"/>
		<rect x="76.7" y="42.8" class="st1" width="10.1" height="9.8"/>
		<rect x="76.7" y="53.4" class="st1" width="10.1" height="9.8"/>
		<rect x="65.9" y="21.7" class="st1" width="10.1" height="9.8"/>
		<rect x="65.9" y="64" class="st1" width="10.1" height="9.8"/>
		<rect x="55" y="21.7" class="st1" width="10.1" height="9.8"/>
		<rect x="55" y="64" class="st1" width="10.1" height="9.8"/>
		<rect x="44.1" y="21.7" class="st1" width="10.1" height="9.8"/>
		<rect x="44.1" y="64" class="st1" width="10.1" height="9.8"/>
		<rect x="33.2" y="21.7" class="st1" width="10.1" height="9.8"/>
		<rect x="33.2" y="64" class="st1" width="10.1" height="9.8"/>
		<rect x="22.3" y="21.7" class="st1" width="10.1" height="9.8"/>
		<rect x="22.3" y="32.3" class="st1" width="10.1" height="9.8"/>
		<rect x="22.3" y="42.8" class="st1" width="10.1" height="9.8"/>
		<rect x="22.3" y="53.4" class="st1" width="10.1" height="9.8"/>
		<rect x="22.3" y="64" class="st1" width="10.1" height="9.8"/>
		<rect x="22.3" y="74.6" class="st1" width="10.1" height="9.8"/>
		<rect x="22.3" y="85.1" class="st1" width="10.1" height="9.8"/>
		<rect x="22.3" y="95.7" class="st1" width="10.1" height="9.8"/>
		<rect x="22.3" y="106.3" class="st1" width="10.1" height="9.8"/>
		<rect x="22.3" y="116.9" class="st1" width="10.1" height="9.8"/>
		<rect x="0.6" y="0.5" class="st1" width="10.1" height="9.8"/>
		<rect x="0.6" y="11.1" class="st1" width="10.1" height="9.8"/>
		<rect x="0.6" y="21.7" class="st1" width="10.1" height="9.8"/>
		<rect x="0.6" y="32.3" class="st1" width="10.1" height="9.8"/>
		<rect x="0.6" y="42.8" class="st1" width="10.1" height="9.8"/>
		<rect x="0.6" y="53.4" class="st1" width="10.1" height="9.8"/>
		<rect x="0.6" y="64" class="st1" width="10.1" height="9.8"/>
		<rect x="0.6" y="74.6" class="st1" width="10.1" height="9.8"/>
		<rect x="0.6" y="85.1" class="st1" width="10.1" height="9.8"/>
		<rect x="0.6" y="95.7" class="st1" width="10.1" height="9.8"/>
		<rect x="0.6" y="106.3" class="st1" width="10.1" height="9.8"/>
		<rect x="0.6" y="116.9" class="st1" width="10.1" height="9.8"/>
		<rect x="0.6" y="127.4" class="st1" width="10.1" height="9.8"/>
		<rect x="0.6" y="138" class="st1" width="10.1" height="9.8"/>
		<rect x="0.6" y="148.6" class="st1" width="10.1" height="9.8"/>
		<rect x="0.6" y="159.2" class="st1" width="10.1" height="9.8"/>
		<rect x="0.6" y="169.7" class="st1" width="10.1" height="9.8"/>
		<rect x="174.7" y="11.1" class="st1" width="10.1" height="9.8"/>
		<rect x="174.7" y="21.7" class="st1" width="10.1" height="9.8"/>
		<rect x="174.7" y="32.3" class="st1" width="10.1" height="9.8"/>
		<rect x="174.7" y="42.8" class="st1" width="10.1" height="9.8"/>
		<rect x="174.7" y="53.4" class="st1" width="10.1" height="9.8"/>
		<rect x="174.7" y="64" class="st1" width="10.1" height="9.8"/>
		<rect x="174.7" y="74.6" class="st1" width="10.1" height="9.8"/>
		<rect x="174.7" y="85.1" class="st1" width="10.1" height="9.8"/>
		<rect x="174.7" y="95.7" class="st1" width="10.1" height="9.8"/>
		<rect x="174.7" y="106.3" class="st1" width="10.1" height="9.8"/>
		<rect x="174.7" y="116.9" class="st1" width="10.1" height="9.8"/>
		<rect x="174.7" y="127.4" class="st1" width="10.1" height="9.8"/>
		<rect x="174.7" y="138" class="st1" width="10.1" height="9.8"/>
		<rect x="174.7" y="148.6" class="st1" width="10.1" height="9.8"/>
		<rect x="174.7" y="159.2" class="st1" width="10.1" height="9.8"/>
		<rect x="174.7" y="169.7" class="st1" width="10.1" height="9.8"/>
		<rect x="0.6" y="180.3" class="st1" width="10.1" height="9.8"/>
		<rect x="11.4" y="0.5" class="st1" width="10.1" height="9.8"/>
		<rect x="22.3" y="0.5" class="st1" width="10.1" height="9.8"/>
		<rect x="33.2" y="0.5" class="st1" width="10.1" height="9.8"/>
		<rect x="44.1" y="0.5" class="st1" width="10.1" height="9.8"/>
		<rect x="55" y="0.5" class="st1" width="10.1" height="9.8"/>
		<rect x="65.9" y="0.5" class="st1" width="10.1" height="9.8"/>
		<rect x="76.7" y="0.5" class="st1" width="10.1" height="9.8"/>
		<rect x="87.6" y="0.5" class="st1" width="10.1" height="9.8"/>
		<rect x="98.5" y="0.5" class="st1" width="10.1" height="9.8"/>
		<rect x="109.4" y="0.5" class="st1" width="10.1" height="9.8"/>
		<rect x="120.3" y="0.5" class="st1" width="10.1" height="9.8"/>
		<rect x="131.2" y="0.5" class="st1" width="10.1" height="9.8"/>
		<rect x="142" y="0.5" class="st1" width="10.1" height="9.8"/>
		<rect x="152.9" y="0.5" class="st1" width="10.1" height="9.8"/>
		<rect x="163.8" y="0.5" class="st1" width="10.1" height="9.8"/>
		<rect x="174.7" y="0.5" class="st1" width="10.1" height="9.8"/>
		<rect x="11.4" y="180.3" class="st1" width="10.1" height="9.8"/>
		<rect x="22.3" y="180.3" class="st1" width="10.1" height="9.8"/>
		<rect x="33.2" y="180.3" class="st1" width="10.1" height="9.8"/>
		<rect x="44.1" y="180.3" class="st1" width="10.1" height="9.8"/>
		<rect x="55" y="180.3" class="st1" width="10.1" height="9.8"/>
		<rect x="65.9" y="180.3" class="st1" width="10.1" height="9.8"/>
		<rect x="76.7" y="180.3" class="st1" width="10.1" height="9.8"/>
		<rect x="87.6" y="180.3" class="st1" width="10.1" height="9.8"/>
		<rect x="98.5" y="180.3" class="st1" width="10.1" height="9.8"/>
		<rect x="109.4" y="180.3" class="st1" width="10.1" height="9.8"/>
		<rect x="120.3" y="180.3" class="st1" width="10.1" height="9.8"/>
		<rect x="131.2" y="180.3" class="st1" width="10.1" height="9.8"/>
		<rect x="142" y="180.3" class="st1" width="10.1" height="9.8"/>
		<rect x="152.9" y="180.3" class="st1" width="10.1" height="9.8"/>
		<rect x="163.8" y="180.3" class="st1" width="10.1" height="9.8"/>
		<rect x="174.7" y="180.3" class="st1" width="10.1" height="9.8"/>
	</g>
	<g>
		<g>
			<path class="st1" d="M23.1,166.6L23.1,166.6c-0.1,0.1-0.1,0.1-0.1,0.1c0,0.1,0,0.2,0,0.3s0,0.1,0,0.1v0.1c0,0,0,0,0,0.1l0,0
				c0,0,0,0,0,0.1c0,0,0,0,0,0.1s0,0.1,0,0.1c-0.1,0.1-0.1,0.1,0,0.2s0,0.2,0,0.2s0,0,0.1,0c0,0.1,0,0.1,0,0.2s0,0.1,0,0.1v0.1
				c0,0.2,0,0.3,0,0.3s0,0.1,0,0.2c0,0.1,0,0.1,0,0.2c0,0.1,0,0.2,0,0.3l0,0c0,0,0,0,0,0.1l0,0v0.1l0,0l0,0v0.1l0,0l0,0
				c0,0,0,0,0.1,0c0,0.1,0,0.2,0,0.3s0.1,0.2,0,0.3l0,0c0-0.1,0-0.1-0.1-0.2v0.1c0,0,0,0,0.1,0l0,0l0,0l0,0c0,0.1,0,0.1-0.1,0.1
				s0,0,0,0.1l0,0l0,0l0,0l0,0c-0.1,0-0.1,0-0.1,0l0,0l0,0c0,0,0,0-0.1-0.1c0-0.1,0-0.2-0.1-0.2s0-0.1-0.1-0.2c0-0.1,0-0.2,0-0.2
				s-0.1-0.1-0.1-0.2c0-0.3,0-0.5,0-0.6s0-0.2,0-0.3s0-0.2,0-0.3s0-0.3,0-0.6c0,0,0-0.1,0-0.2c0-0.1,0-0.2,0-0.2s0,0,0-0.1
				s0,0,0-0.1l0,0l0,0c0-0.3,0-0.5,0-0.8s0.1-0.5,0.1-0.8l0,0l0,0l0,0l0,0c0-0.2,0-0.5,0.1-0.8s0.1-0.6,0.1-0.8l-0.1-0.1
				c0,0,0,0,0,0.1s0,0-0.1,0c0,0,0,0,0-0.1h-0.1l0,0l0,0c-0.1,0-0.2,0.1-0.4,0.1c-0.1,0-0.3,0-0.4,0.1c0,0,0,0,0.1-0.1h-0.1
				l-0.1,0.1h-0.1c0,0,0,0-0.1,0v-0.1c0,0,0,0.1-0.1,0.1l-0.1,0.1l0,0l0,0c-0.1,0-0.2,0-0.2,0.1c-0.1,0-0.2,0-0.2,0h-0.1
				c0,0,0,0-0.1,0h-0.1h-0.1h-0.1c-0.2,0.1-0.5,0.1-0.7,0.1c-0.3,0-0.5,0-0.7,0.1c-0.4,0.7-0.8,1.4-1.1,2.2
				c-0.4,0.8-0.8,1.5-1.2,2.1c-0.1,0-0.2,0-0.3,0s-0.1,0-0.2-0.1c-0.1,0-0.1-0.1-0.2-0.1c-0.1,0-0.1-0.1-0.2-0.1
				c0-0.1,0-0.1,0.1-0.1c0.3-0.6,0.6-1.2,0.9-1.8c0.3-0.6,0.6-1.2,0.9-1.8c0,0,0,0-0.1,0c0,0,0,0-0.1,0l0,0c-0.2,0-0.4,0.1-0.6,0.1
				s-0.4,0.1-0.6,0.1c-0.1,0.1-0.3,0.1-0.5,0.1s-0.3,0-0.5,0.1c-0.1,0-0.1,0-0.2,0.1s-0.1,0-0.1,0.1h-0.1h-0.1h-0.1h-0.1
				c0-0.1,0-0.2-0.1-0.3c0-0.1-0.1-0.2-0.1-0.3c0.1,0,0.1,0,0.1,0c0.2-0.1,0.3-0.1,0.5-0.2s0.3-0.1,0.5-0.1s0.3-0.1,0.5-0.1
				s0.3-0.1,0.5-0.1c0.3-0.1,0.5-0.1,0.8-0.2c0.3-0.1,0.5-0.1,0.8-0.2c0,0,0,0,0-0.1v-0.1c0.1,0,0.1-0.1,0.1-0.1s0.1-0.1,0.1-0.2
				c0.6-1,1.3-2.1,1.9-3.1c0.7-1,1.4-2,2.2-2.9c0.1-0.1,0.2-0.2,0.3-0.3s0.2-0.2,0.3-0.3c0-0.1,0.1-0.1,0.1-0.1
				c0.1,0,0.2-0.1,0.2-0.1s0.1-0.1,0.2-0.2c0.1-0.1,0.2-0.1,0.2-0.2c0.1,0,0.2-0.1,0.3-0.1s0.2,0.1,0.3,0.2s0.1,0.2,0.2,0.4
				c0.1,0.1,0.2,0.2,0.2,0.2c0,0.1,0.1,0.2,0,0.4c0,0.1,0,0.2,0,0.2s0,0.1,0,0.2c0,0.1,0,0.2-0.1,0.2s0,0.1-0.1,0.2c0,0,0,0,0,0.1
				v0.1c0,0.1,0,0.2-0.1,0.2c0,0.1-0.1,0.2-0.1,0.2c0,0.1,0,0.2,0,0.2s0,0.2,0,0.3s0,0.1-0.1,0.2c0,0.1-0.1,0.1-0.1,0.2
				c-0.1,0.4-0.2,0.8-0.2,1.1c-0.1,0.3-0.1,0.7-0.2,1.1l0,0l0,0l0,0c0,0.1,0,0.1,0,0.1s0,0.1-0.1,0.1l0,0c0,0,0,0,0,0.1l0,0l0,0
				c0,0.1,0,0.2,0,0.2c0,0.1,0,0.2,0,0.2s0,0,0,0.1s0,0.1,0,0.1c0.2,0,0.4,0,0.6,0c0.2,0,0.4,0,0.6,0h-0.1c0,0-0.1,0-0.2,0h0.3
				c0,0-0.1,0.1-0.1,0c0,0-0.1,0-0.2,0h0.1c-0.1,0.1-0.2,0.1-0.3,0c-0.1,0-0.2,0-0.3,0l0,0l0,0c-0.1,0-0.2,0-0.2,0h-0.2
				c0.1,0,0.1,0,0.2,0c0.1,0,0.2,0,0.3,0c-0.1,0.1-0.1,0.1-0.2,0.1c-0.1,0-0.1,0-0.2,0c0,0,0,0,0-0.1h-0.1v0.1c0,0,0,0-0.1,0
				c0.2,0,0.4,0,0.5,0c0.2,0,0.3,0,0.5,0c-0.1,0-0.1,0-0.1,0h-0.1l0,0l0,0h-0.1c0,0,0,0-0.1,0l0,0l0,0c-0.1,0-0.3,0-0.4,0
				c-0.1,0-0.3,0-0.4,0c0.1,0,0.1,0.1,0.1,0.1l-0.1,0.1l0,0c-0.1,0-0.1,0-0.1,0l0,0c0,0,0,0,0-0.1l0,0l0,0l0,0l0,0l0,0l0,0l0,0l0,0
				l0,0l0,0l0,0l0,0c0,0-0.1,0,0,0l0,0l0,0l0,0v0.1v0.1l0,0v-0.1c0,0,0,0,0,0.1s0,0.2,0,0.2c0,0.1,0,0.2,0,0.2c0,0.1,0,0.1,0,0.1
				c0,0.1,0,0.2,0,0.4c-0.1,0.2-0.1,0.6-0.2,1.1c0,0,0,0-0.1,0L23.1,166.6z M21.8,163.5L21.8,163.5
				C21.7,163.5,21.8,163.4,21.8,163.5L21.8,163.5c0.2,0,0.2,0,0.2-0.1h0.1l0,0c0.1,0,0.2,0,0.2,0s0.1,0,0.2,0c0,0,0,0-0.1,0l0,0
				c0.1,0,0.1,0,0.1,0h0.1c0.1-0.3,0.1-0.6,0.1-0.9c0-0.3,0.1-0.6,0.1-0.9L23,161c0,0,0,0,0-0.1s0,0,0-0.1l0,0c0,0,0-0.1,0-0.2
				c0-0.1,0-0.1,0-0.1c0.1-0.1,0.1-0.2,0.1-0.3s0-0.2,0.1-0.3c0-0.1,0-0.1,0-0.2s0-0.1,0-0.1l0.1-0.5c0-0.1,0.1-0.2,0.1-0.3
				s0.1-0.2,0.1-0.3v-0.1c0-0.1,0-0.3,0.1-0.4c0-0.1,0.1-0.2,0.1-0.4c-0.2,0.1-0.3,0.2-0.4,0.3c-0.1,0.1-0.2,0.2-0.4,0.4
				c-0.2,0.3-0.4,0.5-0.6,0.7c-0.2,0.2-0.4,0.5-0.6,0.8c-0.1,0.1-0.2,0.3-0.3,0.4c-0.1,0.2-0.2,0.3-0.3,0.5v0.1l0,0
				c-0.3,0.5-0.6,0.9-0.9,1.4c-0.3,0.5-0.6,0.9-0.9,1.4c0,0.1,0,0.1-0.1,0.1c0,0-0.1,0.1,0,0.1s0.2-0.1,0.3-0.1h-0.1
				c0.2,0,0.4-0.1,0.5-0.1s0.3,0,0.5,0l0,0c0.1,0,0.1,0,0.1,0l0,0l0,0l0,0c0.2,0,0.4-0.1,0.6-0.1c0.2,0,0.4-0.1,0.5,0l0,0l0,0
				L21.8,163.5z M20.3,163.7c0.1,0,0.1,0,0.1-0.1C20.3,163.6,20.3,163.6,20.3,163.7L20.3,163.7C20.2,163.6,20.2,163.6,20.3,163.7
				L20.3,163.7L20.3,163.7z M20.2,163.6L20.2,163.6L20.2,163.6L20.2,163.6C20.3,163.6,20.3,163.6,20.2,163.6
				C20.3,163.6,20.3,163.6,20.2,163.6L20.2,163.6z M20.6,164.4L20.6,164.4C20.5,164.4,20.6,164.4,20.6,164.4L20.6,164.4z
				 M20.6,163.6C20.6,163.5,20.6,163.5,20.6,163.6C20.7,163.6,20.7,163.6,20.6,163.6L20.6,163.6L20.6,163.6z M21.3,164.2
				C21.2,164.2,21.2,164.2,21.3,164.2C21.2,164.2,21.2,164.2,21.3,164.2C21.2,164.2,21.2,164.2,21.3,164.2L21.3,164.2L21.3,164.2
				C21.2,164.3,21.3,164.3,21.3,164.2L21.3,164.2L21.3,164.2z M21.3,164.2C21.2,164.2,21.2,164.2,21.3,164.2
				C21.2,164.2,21.2,164.2,21.3,164.2C21.2,164.2,21.2,164.2,21.3,164.2L21.3,164.2L21.3,164.2C21.2,164.3,21.3,164.3,21.3,164.2
				L21.3,164.2L21.3,164.2z M21.4,164.3L21.4,164.3C21.3,164.3,21.3,164.3,21.4,164.3z M21.9,163.9L21.9,163.9L21.9,163.9
				L21.9,163.9L21.9,163.9L21.9,163.9L21.9,163.9L21.9,163.9z M21.9,163.9L21.9,163.9L21.9,163.9L21.9,163.9L21.9,163.9L21.9,163.9
				L21.9,163.9L21.9,163.9z M22.2,164.1L22.2,164.1L22.2,164.1L22.2,164.1C22.1,164.1,22.1,164.1,22.2,164.1L22.2,164.1L22.2,164.1
				L22.2,164.1H22l0,0H22.2L22.2,164.1L22.2,164.1L22.2,164.1L22.2,164.1L22.2,164.1z M21.9,164.2L21.9,164.2L21.9,164.2L21.9,164.2
				L21.9,164.2h0.2l0,0l0,0l0,0l0,0l0,0l0,0l0,0C22,164.1,22,164.2,21.9,164.2L21.9,164.2L21.9,164.2z M22,163.9L22,163.9L22,163.9
				L22,163.9h0.2l0,0l0,0l0,0c0,0,0,0,0.1,0H22C22.1,163.9,22.1,163.9,22,163.9C22.2,163.8,22.1,163.8,22,163.9L22,163.9L22,163.9
				C22.1,163.8,22,163.8,22,163.9L22,163.9L22,163.9z M22,163.9L22,163.9L22,163.9L22,163.9h0.2l0,0l0,0l0,0c0,0,0,0,0.1,0H22
				C22.1,163.9,22.1,163.9,22,163.9C22.2,163.8,22.1,163.8,22,163.9L22,163.9L22,163.9C22.1,163.8,22,163.8,22,163.9L22,163.9
				L22,163.9z M22.2,163.8L22.2,163.8L22.2,163.8L22.2,163.8L22.2,163.8L22.2,163.8L22.2,163.8L22.2,163.8L22.2,163.8L22.2,163.8
				L22.2,163.8L22.2,163.8L22.2,163.8z M22.1,163.8L22.1,163.8L22.1,163.8L22.1,163.8L22.1,163.8L22.1,163.8L22.1,163.8L22.1,163.8
				L22.1,163.8L22.1,163.8L22.1,163.8L22.1,163.8L22.1,163.8z M22.4,163.9L22.4,163.9L22.4,163.9L22.4,163.9
				C22.3,163.9,22.3,163.9,22.4,163.9L22.4,163.9L22.4,163.9z M22.3,163.9L22.3,163.9L22.3,163.9L22.3,163.9L22.3,163.9L22.3,163.9
				L22.3,163.9z M22.3,168.4c0,0.1,0,0.1,0,0.1v0.1c0,0,0,0,0-0.1V168.4z M22.3,167.9L22.3,167.9L22.3,167.9L22.3,167.9
				C22.3,168,22.3,168,22.3,167.9L22.3,167.9L22.3,167.9L22.3,167.9L22.3,167.9C22.4,167.9,22.4,167.9,22.3,167.9L22.3,167.9z
				 M22.3,167.9L22.3,167.9L22.3,167.9L22.3,167.9C22.3,168,22.3,168,22.3,167.9L22.3,167.9L22.3,167.9L22.3,167.9L22.3,167.9
				C22.4,167.9,22.4,167.9,22.3,167.9L22.3,167.9z M22.5,163.8L22.5,163.8L22.5,163.8L22.5,163.8L22.5,163.8L22.5,163.8
				C22.5,163.9,22.5,163.9,22.5,163.8L22.5,163.8L22.5,163.8l0.1,0.1l0,0L22.5,163.8C22.6,163.8,22.6,163.8,22.5,163.8L22.5,163.8
				L22.5,163.8L22.5,163.8L22.5,163.8L22.5,163.8C22.6,163.8,22.6,163.8,22.5,163.8L22.5,163.8L22.5,163.8L22.5,163.8z M22.5,163.8
				L22.5,163.8L22.5,163.8L22.5,163.8L22.5,163.8L22.5,163.8C22.5,163.9,22.5,163.9,22.5,163.8L22.5,163.8L22.5,163.8l0.1,0.1l0,0
				L22.5,163.8C22.6,163.8,22.6,163.8,22.5,163.8L22.5,163.8L22.5,163.8L22.5,163.8L22.5,163.8L22.5,163.8
				C22.6,163.8,22.6,163.8,22.5,163.8L22.5,163.8L22.5,163.8L22.5,163.8z M22.5,168.7C22.4,168.7,22.4,168.8,22.5,168.7
				C22.5,168.8,22.5,168.7,22.5,168.7L22.5,168.7z M22.5,168.4c0,0.1,0,0.1,0,0.1v0.1v-0.1V168.4z M22.6,164.2
				C22.5,164.2,22.5,164.2,22.6,164.2C22.5,164.1,22.5,164.1,22.6,164.2C22.5,164.1,22.6,164.1,22.6,164.2
				C22.6,164.1,22.6,164.1,22.6,164.2z M22.6,169.9C22.5,169.9,22.5,169.9,22.6,169.9c0,0.1,0,0.1,0,0.1V169.9z M22.6,168.1
				c0,0.1,0,0.1,0,0.1v0.1l0,0l0,0C22.6,168.3,22.6,168.3,22.6,168.1C22.6,168.2,22.6,168.2,22.6,168.1z M22.7,167.5L22.7,167.5
				C22.7,167.4,22.7,167.4,22.7,167.5L22.7,167.5L22.7,167.5L22.7,167.5L22.7,167.5L22.7,167.5z M22.7,167.4L22.7,167.4L22.7,167.4
				L22.7,167.4L22.7,167.4L22.7,167.4L22.7,167.4L22.7,167.4z M22.7,167.5c0,0.1,0,0.1,0,0.2c0,0,0,0.1,0,0.2c0,0,0-0.1,0-0.2
				C22.7,167.6,22.7,167.5,22.7,167.5z M22.7,167v0.1c0,0.1,0,0.1,0,0.1c0-0.1,0-0.1,0-0.1C22.8,167.1,22.8,167.1,22.7,167z
				 M22.8,170.1C22.8,170,22.8,170,22.8,170.1C22.7,170.1,22.7,170.1,22.8,170.1c0,0.1,0,0.1,0,0.1
				C22.7,170.2,22.8,170.2,22.8,170.1L22.8,170.1z M22.7,170.5L22.7,170.5C22.7,170.4,22.7,170.5,22.7,170.5z M22.7,169.9
				L22.7,169.9L22.7,169.9z M22.8,170.4L22.8,170.4L22.8,170.4L22.8,170.4z M23.4,163.8C23.4,163.7,23.4,163.7,23.4,163.8
				L23.4,163.8C23.5,163.7,23.5,163.7,23.4,163.8l0.1-0.1l0,0l0,0l0,0l0,0l0,0l0,0l0,0L23.4,163.8L23.4,163.8L23.4,163.8z
				 M23.4,163.8C23.4,163.7,23.4,163.7,23.4,163.8L23.4,163.8C23.5,163.7,23.5,163.7,23.4,163.8l0.1-0.1l0,0l0,0l0,0l0,0l0,0l0,0
				l0,0L23.4,163.8L23.4,163.8L23.4,163.8z M23.5,163L23.5,163L23.5,163L23.5,163L23.5,163L23.5,163L23.5,163L23.5,163L23.5,163z
				 M23.5,163L23.5,163L23.5,163L23.5,163L23.5,163L23.5,163L23.5,163L23.5,163L23.5,163z M23.5,163.9L23.5,163.9L23.5,163.9
				L23.5,163.9L23.5,163.9L23.5,163.9L23.5,163.9L23.5,163.9L23.5,163.9L23.5,163.9L23.5,163.9L23.5,163.9z M23.5,163.9L23.5,163.9
				L23.5,163.9L23.5,163.9L23.5,163.9L23.5,163.9L23.5,163.9C23.5,164,23.5,163.9,23.5,163.9L23.5,163.9L23.5,163.9L23.5,163.9
				L23.5,163.9L23.5,163.9z M23.5,164.5C23.5,164.6,23.5,164.7,23.5,164.5C23.5,164.6,23.5,164.6,23.5,164.5L23.5,164.5z
				 M23.6,164.3c0,0,0,0.1-0.1,0.2C23.5,164.5,23.5,164.4,23.6,164.3L23.6,164.3z M23.5,164.2L23.5,164.2L23.5,164.2L23.5,164.2z
				 M23.9,163.9C23.8,163.9,23.8,163.9,23.9,163.9C23.8,163.8,23.8,163.8,23.9,163.9z M23.9,163.9C23.9,164,23.9,164,23.9,163.9
				C23.8,164,23.8,164,23.9,163.9C23.8,163.9,23.8,163.9,23.9,163.9z M23.9,157.3L23.9,157.3L23.9,157.3L23.9,157.3L23.9,157.3
				L23.9,157.3L23.9,157.3z M23.9,157.3L23.9,157.3L23.9,157.3L23.9,157.3L23.9,157.3L23.9,157.3L23.9,157.3z M24,163.8
				C24.1,163.8,24.1,163.8,24,163.8h0.2l-0.1,0.1c0,0-0.1,0-0.2,0C24,163.9,24,163.9,24,163.8C24,163.9,24,163.8,24,163.8z
				 M24.5,163.6C24.5,163.6,24.4,163.6,24.5,163.6c-0.1,0-0.2,0-0.2,0s0,0,0.1,0C24.4,163.6,24.5,163.6,24.5,163.6z M24.4,163.8
				L24.4,163.8c-0.1,0-0.2,0-0.2,0C24.3,163.8,24.3,163.8,24.4,163.8C24.3,163.8,24.4,163.8,24.4,163.8z"/>
			<path class="st1" d="M28.9,167.1L28.9,167.1C28.8,167.1,28.8,167.1,28.9,167.1c-0.1,0-0.1,0-0.2,0c0,0.1-0.1,0.1-0.1,0.2
				c0,0-0.1,0.1-0.1,0c0,0,0,0-0.1,0.1s-0.1,0-0.1,0.1l0,0c0,0-0.1,0-0.2,0.1c-0.1,0-0.2,0.1-0.3,0.1s-0.2,0.1-0.3,0.1
				s-0.1,0.1-0.2,0.1c-0.1,0-0.1,0-0.2,0c-0.1,0-0.2,0.1-0.2,0.1c-0.1,0-0.3,0.1-0.5,0.1s-0.4,0-0.6,0c-0.1,0-0.1,0-0.1,0l0,0l0,0
				c0,0,0,0-0.1,0V168c0,0,0,0-0.1,0c0,0,0,0-0.1-0.1s-0.1,0-0.1,0c-0.2-0.2-0.4-0.4-0.5-0.7s-0.2-0.5-0.2-0.9v-0.1v-0.1v-0.7
				c0,0,0,0,0-0.1c0,0,0,0,0-0.1v-0.4v-0.1c0,0,0,0,0-0.1l0,0l0,0l0,0l0,0l0.1-0.3c0,0,0,0,0-0.1c0,0,0,0,0-0.1c0,0,0,0,0.1,0
				c0-0.1,0-0.1,0-0.2s0-0.1,0-0.1l0,0c0,0,0,0,0-0.1s0,0,0,0c0-0.2,0.1-0.3,0.1-0.4c0.1-0.1,0.1-0.3,0.1-0.4c0.1,0,0.1-0.1,0.1-0.1
				s0,0,0-0.1v-0.1l0,0l0,0c0.1-0.1,0.2-0.3,0.2-0.4c0.2-0.2,0.3-0.5,0.4-0.7c0,0,0.1,0,0.1-0.1v-0.1c0.1-0.1,0.1-0.2,0.2-0.3
				c0.1-0.1,0.1-0.2,0.2-0.3c0-0.1,0.1-0.2,0.1-0.2c0.1-0.1,0.1-0.2,0.2-0.2c0.2-0.3,0.4-0.5,0.6-0.8s0.4-0.5,0.8-0.7
				c0.1-0.1,0.1-0.1,0.2-0.1c0.1,0,0.1,0,0.2-0.1c0.3-0.2,0.5-0.1,0.8,0c0.1,0,0.1,0.1,0.2,0.1c0.1,0,0.1,0.1,0.2,0.1h0.1
				c0,0,0,0,0,0.1c0,0,0,0,0,0.1c0,0,0,0,0,0.1c0,0,0,0,0,0.1v0.1c0,0.1-0.1,0.1-0.1,0.2v0.2l-0.1,0.1c0,0.1-0.1,0.2-0.1,0.3
				s-0.1,0.2-0.1,0.2c-0.1,0.3-0.2,0.5-0.4,0.7s-0.3,0.4-0.5,0.7c-0.1,0.1-0.2,0.3-0.3,0.4c-0.1,0.2-0.2,0.3-0.3,0.4
				c0,0-0.1,0-0.1,0.1l-0.1,0.1c-0.1,0.1-0.3,0.3-0.3,0.4c-0.1,0.1-0.2,0.3-0.3,0.4c0,0.1-0.1,0.1-0.1,0.2s-0.1,0.1-0.1,0.2
				c0,0,0,0-0.1,0c0,0,0,0,0,0.1c-0.1,0-0.1,0.1-0.2,0.2c0,0.1-0.1,0.1-0.1,0.2c0,0,0,0.1-0.1,0.1l-0.1,0.1
				c-0.1,0.1-0.2,0.2-0.3,0.3s-0.2,0.2-0.4,0.4c0,0,0,0-0.1,0v0.1c-0.1,0.2-0.1,0.5-0.1,0.8s0,0.6,0.1,0.9c0,0.2,0.1,0.3,0.1,0.3
				s0,0,0.1,0s0,0,0,0s0,0.1,0,0.2l0,0l0,0l0,0c0.2,0,0.4,0,0.4,0c0.1,0,0.2,0,0.3-0.1c0.2-0.1,0.3-0.1,0.5-0.2
				c0.2-0.1,0.3-0.1,0.5-0.2l0,0l0,0l0,0l0,0l0,0l0,0l0,0l0,0c0.2-0.1,0.4-0.2,0.5-0.4c0.2-0.1,0.3-0.3,0.5-0.4v-0.1c0,0,0,0,0-0.1
				l0,0l0,0c0.1-0.1,0.2-0.1,0.3-0.1s0.1-0.1,0.1-0.2l0,0l0,0c0-0.1,0.1-0.1,0.1-0.1s0,0,0.1,0c0,0,0,0,0.1,0l0.1-0.1v-0.1l0,0l0,0
				l0,0c0.1-0.1,0.2-0.2,0.3-0.3s0.1-0.1,0.1-0.1c0.1-0.1,0.1-0.1,0.1-0.1l0,0l0,0c0,0,0,0,0.1-0.1c0.1,0,0.1,0,0.1,0
				c0,0.1,0,0.1,0.1,0.1c0,0-0.1,0,0,0.1s0,0,0,0.1v0.1c0,0.1,0,0.2,0,0.2v0.1l0,0c0,0,0,0,0,0.1l0,0l0,0l0,0l0,0c0,0,0,0,0,0.1l0,0
				l-0.1,0.1l0,0l0,0c0,0,0,0,0,0.1l0,0l0,0h-0.1v0.1l0,0l0,0c0,0,0,0-0.1,0s0,0-0.1,0v0.1c0,0,0,0.1-0.1,0.1l0,0v-0.1
				c-0.1,0-0.1,0.1-0.1,0.1l0,0l0,0c0,0,0,0,0,0.1c0,0,0,0.1-0.1,0.1c0,0.1-0.1,0.1-0.2,0.1l0,0l0,0c-0.1,0-0.1,0-0.1,0.1l0,0
				c0,0,0,0-0.1,0l0,0l0,0l0,0l0,0c-0.1,0.1-0.1,0.1-0.2,0.2C29,166.8,28.9,166.9,28.9,167.1C28.9,167,28.9,167,28.9,167.1
				C28.9,167,28.9,167,28.9,167.1z M25.2,164.5L25.2,164.5C25.1,164.5,25.1,164.5,25.2,164.5C25.1,164.5,25.1,164.5,25.2,164.5z
				 M26.1,163.8c0.2-0.3,0.4-0.6,0.6-0.8s0.4-0.5,0.6-0.8l0,0c0.1-0.1,0.1-0.1,0.2-0.2c0-0.1,0.1-0.2,0.1-0.2
				c0.2-0.2,0.3-0.5,0.5-0.7s0.3-0.5,0.4-0.7c0.1-0.1,0.1-0.3,0.2-0.4c0.1-0.1,0.1-0.3,0.1-0.4c0.1-0.1,0.2-0.2,0.1-0.4
				c-0.1,0-0.2,0.1-0.3,0.2c-0.1,0.1-0.1,0.2-0.2,0.2c0,0.1-0.1,0.2-0.2,0.3c-0.1,0.1-0.1,0.2-0.2,0.2c-0.3,0.2-0.5,0.5-0.7,0.8
				s-0.3,0.6-0.5,0.9h-0.1c0,0.1-0.1,0.2-0.1,0.2c-0.1,0.1-0.1,0.1-0.1,0.2c-0.1,0.1-0.1,0.2-0.1,0.2c0,0.1-0.1,0.2-0.1,0.2
				c0,0.1,0,0.1-0.1,0.2s0.2,0.1,0.2,0.1v0.1c0,0,0,0.1-0.1,0.1c0,0,0,0.1,0,0.2c-0.1,0.1-0.1,0.1-0.1,0.2
				C26.1,163.6,26.1,163.7,26.1,163.8L26.1,163.8z M28.5,166.9L28.5,166.9C28.5,167,28.6,167,28.5,166.9
				C28.6,166.9,28.6,166.9,28.5,166.9c0.1,0,0.1,0,0.2-0.1l0.1-0.1l0,0c0,0,0,0,0.1-0.1v-0.1c-0.1,0-0.1,0.1-0.2,0.1
				C28.7,166.7,28.6,166.8,28.5,166.9L28.5,166.9L28.5,166.9L28.5,166.9L28.5,166.9C28.4,167,28.4,167,28.5,166.9
				C28.5,167,28.5,167,28.5,166.9C28.5,167,28.5,166.9,28.5,166.9z M28.6,166.9L28.6,166.9L28.6,166.9L28.6,166.9z M29,166.5
				C29,166.5,28.9,166.6,29,166.5C29,166.6,29,166.6,29,166.5C29,166.6,29,166.6,29,166.5z M29.1,166.6
				C29.1,166.6,29.1,166.5,29.1,166.6L29.1,166.6C29.1,166.6,29.2,166.6,29.1,166.6c0.1,0,0.1,0,0.1-0.1
				C29.2,166.5,29.2,166.5,29.1,166.6C29.1,166.5,29.1,166.5,29.1,166.6L29.1,166.6z M29.2,166.5L29.2,166.5L29.2,166.5L29.2,166.5
				L29.2,166.5z M29.3,166.4L29.3,166.4C29.3,166.5,29.3,166.5,29.3,166.4C29.3,166.5,29.3,166.5,29.3,166.4L29.3,166.4z
				 M29.7,166.2C29.6,166.2,29.6,166.2,29.7,166.2c-0.1,0.1-0.1,0.1-0.2,0.1l0,0l0,0c0,0,0,0-0.1,0c0,0,0,0,0,0.1
				c0.1,0,0.1,0,0.2-0.1C29.6,166.3,29.6,166.3,29.7,166.2z M29.8,166.2L29.8,166.2L29.8,166.2L29.8,166.2z M29.9,165.4L29.9,165.4
				L29.9,165.4z M30.1,165.8L30.1,165.8l-0.1,0.1C29.9,165.9,30,165.9,30.1,165.8C30,165.8,30,165.8,30.1,165.8z M30.4,165.5
				c-0.1,0-0.1,0.1-0.1,0.1h0.1C30.4,165.6,30.4,165.6,30.4,165.5z M30.5,165.7L30.5,165.7L30.5,165.7L30.5,165.7L30.5,165.7z
				 M30.5,165.8L30.5,165.8L30.5,165.8L30.5,165.8z"/>
			<path class="st1" d="M29.9,166.2C29.9,166.1,29.9,166.1,29.9,166.2c0-0.1,0-0.1,0-0.1c0-0.1,0-0.1,0-0.2s0-0.1,0.1-0.1v-0.1l0,0
				c0,0,0-0.1,0.1-0.1c0,0,0-0.1,0.1-0.1c0.1-0.2,0.2-0.4,0.3-0.7c0.1-0.2,0.3-0.5,0.4-0.7C31,164,31,164,31,163.9s0.1-0.1,0.1-0.2
				l0,0c0-0.1,0.1-0.2,0.2-0.1s0.2,0.1,0.4,0.1c0.1,0,0.1,0.1,0.1,0.1v0.1c0,0,0,0,0,0.1v0.1c-0.1,0.1-0.1,0.2-0.2,0.4
				c0,0.1-0.1,0.3-0.2,0.4l0,0l0,0c0,0,0,0.1-0.1,0.2s-0.1,0.2-0.1,0.3c-0.1,0.2-0.2,0.3-0.2,0.5c-0.1,0.2-0.1,0.3-0.2,0.5
				c0,0.2-0.1,0.3-0.1,0.4c0,0.1,0,0.3,0.1,0.4c0.3-0.1,0.5-0.1,0.7-0.2c0.2-0.1,0.4-0.2,0.6-0.3l0.4-0.3l0.1-0.1l0.5-0.4l0.4-0.3
				c0,0,0.1-0.1,0.2-0.1c0.1,0,0.1-0.1,0.2-0.1c0.1-0.1,0.2-0.2,0.3-0.2s0.2-0.1,0.3-0.2c0,0,0-0.1,0.1-0.1s0.1,0,0.1-0.1l0.1-0.1
				c0-0.1,0.1-0.1,0.2-0.1c0.1,0,0.1-0.1,0.2-0.1h0.1c0.1,0,0.1,0,0.1,0.1v0.1c0,0,0,0-0.1,0.1v0.1c0,0,0.1,0,0.1-0.1s0-0.1,0.1-0.1
				c0,0,0,0,0,0.1v0.1c0.1,0,0.1,0.1,0,0.1v0.1l0,0c0,0,0,0,0,0.1l0,0l0,0c0,0,0,0,0,0.1c0,0,0,0,0,0.1l0,0l0,0c-0.1,0-0.1,0-0.1,0
				c-0.1,0-0.1,0.1-0.1,0.1s0,0.1-0.1,0.1l0,0l0,0c0,0,0,0,0,0.1s-0.1,0.1-0.1,0.1l-0.1,0.1l0,0c0,0-0.1,0-0.1,0.1
				c-0.1,0.1-0.1,0.1-0.1,0.1l-0.2,0.2c0,0-0.1,0.1-0.2,0.1c-0.1,0.1-0.1,0.1-0.2,0.1l0,0l0,0l0,0l0,0c0,0,0,0,0,0.1l0,0
				c0,0,0,0-0.1,0.1c0,0.1-0.1,0.1-0.2,0.2v-0.1l0,0l0,0l0,0v0.1c0,0,0,0-0.1,0l0,0l0,0c0,0,0,0-0.1,0.1l-0.1,0.1c0,0,0,0-0.1,0
				s0,0-0.1,0h-0.1c0,0-0.1,0-0.1,0.1h-0.1c0,0,0,0,0,0.1l0,0l0,0c0,0,0,0-0.1,0.1s-0.1,0-0.1,0.1s-0.1,0.1-0.2,0.2
				c-0.1,0-0.2,0.1-0.3,0.1c-0.1,0.1-0.3,0.1-0.4,0.2c-0.1,0-0.3,0-0.4,0.1s-0.3,0-0.5,0c-0.1,0-0.2,0-0.3,0s-0.2,0-0.2-0.1
				c-0.1-0.1-0.1-0.1-0.2-0.2c0-0.1-0.1-0.1-0.1-0.2l0,0c0,0,0,0,0-0.1l0,0l0,0l0,0c0-0.1,0-0.1,0-0.1v-0.1v0.1v-0.1
				c0,0,0-0.1,0.1-0.1c0-0.1,0-0.1,0.1-0.2l0,0c0-0.1,0-0.1,0.1-0.1C29.8,166.3,29.8,166.2,29.9,166.2
				C29.8,166.2,29.8,166.2,29.9,166.2C29.8,166.2,29.8,166.3,29.9,166.2c-0.1,0,0,0,0-0.1l0,0C29.9,166,29.9,166.1,29.9,166.2
				C29.8,166.1,29.8,166.1,29.9,166.2z M32.6,162.4L32.6,162.4L32.6,162.4c-0.1,0.1-0.1,0.2-0.2,0.2c0,0.1-0.1,0.1-0.2,0.1
				c-0.1,0-0.1,0.1-0.1,0.1c-0.1,0-0.1,0-0.1,0l0,0c-0.1,0-0.1,0-0.1,0c-0.1,0-0.2-0.1-0.2-0.1s-0.1-0.1-0.2-0.1c0-0.1,0-0.2,0-0.3
				s0.1-0.1,0.2-0.1l0,0l0,0c0.1,0,0.2,0,0.3,0.1C32.3,162.3,32.4,162.3,32.6,162.4C32.5,162.4,32.5,162.4,32.6,162.4z M33.1,166.6
				L33.1,166.6L33.1,166.6L33.1,166.6z M34.8,165.1C34.8,165.1,34.7,165.1,34.8,165.1c-0.1,0.1-0.1,0.1-0.1,0.2
				C34.7,165.2,34.7,165.2,34.8,165.1L34.8,165.1z M35,165L35,165L35,165z"/>
			<path class="st1" d="M41.7,166.1C41.7,166,41.7,166,41.7,166.1c-0.1,0-0.1,0.1-0.2,0.1c0,0.1-0.1,0.1-0.2,0.2
				c-0.1,0.1-0.1,0.1-0.1,0.1v-0.1l0.1-0.1c-0.1,0-0.1,0-0.1,0.1s0,0.1-0.1,0.1c0,0.1-0.1,0.1-0.1,0.1c-0.1,0-0.1,0.1-0.2,0.1l0,0
				l0,0l0,0l0,0l0,0c0,0,0,0-0.1,0c0,0,0,0,0.1,0v-0.1h-0.1v0.1c0,0,0,0.1-0.1,0.1c0,0-0.1,0.1-0.1,0c0.1-0.1,0.2-0.2,0.2-0.3
				c-0.1,0-0.2,0.1-0.3,0.2l0,0v0.1h-0.1l0,0l0,0h-0.1c0,0,0,0-0.1,0.1l0,0l0,0c0,0,0,0-0.1,0.1s-0.1,0-0.1,0l0,0c0,0,0,0,0-0.1
				c-0.1,0-0.1,0.1-0.1,0.1s0,0.1-0.1,0.1V167l0,0c0,0,0,0-0.1,0l0,0l0,0c-0.1,0.1-0.2,0.1-0.3,0.1c-0.1,0-0.3,0-0.4-0.1
				c-0.2,0-0.3,0-0.5-0.1s-0.3-0.1-0.4-0.2l0,0l0,0l0,0l0,0l0,0c-0.1,0-0.1-0.1-0.1-0.2c0-0.1-0.1-0.1-0.1-0.2v-0.1c0,0,0,0-0.1,0
				c-0.1-0.3-0.1-0.6-0.1-0.9s0-0.6,0.1-1c-0.1,0-0.2,0.1-0.2,0.2c-0.1,0.1-0.1,0.1-0.2,0.2c-0.4,0.4-0.8,0.8-1.2,1.2
				s-0.8,0.8-1.1,1.3c-0.1,0-0.1,0-0.1,0.1l-0.1,0.1c-0.1,0-0.1,0-0.2,0s-0.2,0-0.3,0l0,0l0,0c-0.1,0-0.2-0.1-0.3-0.1
				s-0.1-0.1-0.1-0.3c0-0.1,0-0.1,0-0.2s0-0.1,0-0.2v-0.1l0,0c0.1-0.6,0.3-1.1,0.5-1.6s0.4-1,0.6-1.5c0.1,0,0.1,0,0.2,0
				c0.1,0,0.2,0.1,0.2,0.1s0.1,0,0.3,0.1c0,0,0,0,0.1,0.1c0,0,0.1,0,0.1,0.1c0,0.2-0.1,0.4-0.1,0.6c-0.1,0.2-0.2,0.4-0.3,0.6
				c-0.1,0.1-0.1,0.3-0.2,0.5c-0.1,0.2-0.1,0.4-0.2,0.5c0,0.1,0,0.1,0,0.1s0,0,0,0.1c0.1-0.2,0.3-0.3,0.4-0.5
				c0.1-0.2,0.3-0.4,0.4-0.5c0.2-0.1,0.3-0.2,0.4-0.3c0.1-0.1,0.3-0.3,0.4-0.4c0.2-0.1,0.3-0.2,0.5-0.3s0.3-0.2,0.4-0.3
				c0.1,0,0.1,0,0.2-0.1s0.1-0.1,0.2-0.1c0.1,0,0.2,0,0.2,0.1c0.1,0,0.2,0.1,0.3,0.1l0,0c0.1,0,0.1,0,0.1,0.1s0,0.1,0.1,0.2
				c0,0.1,0,0.2,0,0.4s0,0.3-0.1,0.4c0,0,0,0,0,0.1s0,0.1,0,0.2c-0.1,0.5-0.1,0.8,0,1.1s0.1,0.4,0.2,0.5c0.1,0,0.3,0,0.4,0
				s0.2,0,0.3,0c0.1,0,0.2,0,0.3-0.1c0.1,0,0.2-0.1,0.3-0.2c0,0,0,0,0.1-0.1c0,0,0,0,0.1,0s0.2-0.1,0.3-0.1c0.1-0.1,0.1-0.1,0.2,0
				c0,0,0,0,0-0.1c0,0,0,0,0-0.1l0,0l0,0c0,0,0,0,0-0.1h0.1c0,0,0.1,0,0.1-0.1c0,0,0.1,0,0.1-0.1c0,0,0-0.1,0.1-0.1l0,0
				c0,0,0,0,0,0.1c0.1,0,0.1-0.1,0.1-0.1s0-0.1,0.1-0.1s0.1-0.1,0.2-0.1s0.1-0.1,0.2-0.1s0.1-0.1,0.1-0.1l0.1-0.1c0,0,0-0.1,0.1-0.1
				c0,0,0.1-0.1,0.1,0h0.1l0,0v-0.1c0,0,0.1,0,0.2-0.1c0.1,0,0.2-0.1,0.2-0.1s0,0,0-0.1l0,0l0,0l0,0l0,0l0,0c0,0,0,0,0-0.1l0,0l0,0
				l0,0l0,0c0,0,0.1,0,0.1,0.1s0,0.2-0.1,0.3l0,0l0,0c0,0,0,0.1-0.1,0.2c-0.1,0.1-0.1,0.1-0.1,0.1L41.7,166.1z M40,167
				C40,167,40,167.1,40,167C40,167.1,40,167.1,40,167L40,167z M40.2,166.9L40.2,166.9L40.2,166.9L40.2,166.9L40.2,166.9z M40.2,167
				L40.2,167L40.2,167z M40.7,166.7L40.7,166.7C40.7,166.8,40.7,166.8,40.7,166.7z M41.5,165.8C41.5,165.9,41.5,165.8,41.5,165.8
				l0.1-0.1C41.5,165.8,41.5,165.8,41.5,165.8z M42.1,165.5L42.1,165.5L42.1,165.5C42.1,165.5,42.2,165.5,42.1,165.5z"/>
			<path class="st1" d="M48,165.4c0,0,0,0.1-0.1,0.2s-0.2,0.2-0.3,0.3c0,0-0.1,0-0.1,0.1c-0.1,0.1-0.1,0.1-0.1,0.1l-0.1,0.1
				l-0.3,0.2l-0.1,0.1l-0.2,0.1c-0.2,0.1-0.4,0.2-0.5,0.3c-0.2,0.1-0.4,0.2-0.6,0.3c0,0,0,0-0.1,0s-0.1,0-0.1,0h-0.1h-0.1h-0.1l0,0
				c-0.1,0-0.1,0-0.1,0s-0.1,0-0.1,0.1h-0.1h-0.1h-0.1h-0.1l0,0l0,0h-0.1c0,0-0.1,0-0.2,0h-0.1H44l0,0c-0.2,0-0.3,0-0.4,0h-0.1
				c0,0,0,0-0.1,0s-0.2,0-0.3-0.1s-0.2-0.1-0.3-0.1c-0.1-0.1-0.2-0.1-0.3-0.2s-0.2-0.2-0.3-0.3c0-0.1-0.1-0.2-0.1-0.2
				c0-0.1,0-0.1-0.1-0.2c0-0.1,0-0.2,0-0.2v-0.2c0-0.1,0.1-0.3,0.1-0.5s0.1-0.4,0.3-0.5l0.4-0.4l0.2-0.3c0.1-0.1,0.2-0.1,0.2-0.2
				s0.1-0.1,0.2-0.2c0.1-0.1,0.1-0.1,0.2-0.1s0.1-0.1,0.2-0.1c0.1-0.1,0.2-0.1,0.2-0.2c0.1-0.1,0.2-0.1,0.2-0.2
				c0.1,0,0.2-0.1,0.2-0.1h0.1c0.1,0,0.1,0,0.1,0s0,0,0.1,0c0,0,0,0,0.1,0c0.1,0.1,0.1,0.2,0.2,0.2s0.2,0.1,0.2,0.2
				c0.1,0,0.1,0.1,0.1,0.1s0,0.1,0.1,0.1c0,0.1,0,0.2,0,0.2c0,0.1,0,0.1-0.1,0.2c0,0,0,0,0,0.1s0,0,0,0.1s-0.1,0.1-0.1,0.1l-0.1,0.1
				c0,0,0,0.1-0.1,0.1s0,0.1-0.1,0.1c0,0-0.1,0.1-0.2,0.2c-0.1,0.1-0.1,0.1-0.2,0.2c-0.1,0.1-0.1,0.1-0.2,0.2s-0.2,0.1-0.2,0.1v0.1
				c-0.1,0.1-0.2,0.2-0.3,0.2s-0.2,0.2-0.3,0.2c-0.2,0-0.3,0.1-0.5,0.2c-0.1,0.1-0.3,0.1-0.5,0.1l0,0c0,0,0,0,0.1,0
				c0,0.1,0,0.1,0,0.1s0,0.1,0.1,0.1c0.1,0.1,0.2,0.2,0.3,0.2c0.1,0.1,0.3,0.1,0.4,0.1c0.4,0.1,0.8,0.1,1.2,0c0.1,0,0.2,0,0.3-0.1
				c0.1,0,0.2-0.1,0.4-0.1c0.2-0.1,0.3-0.1,0.5-0.2l0.2-0.1h0.1l0,0l0,0l0,0l0.4-0.2c0.1-0.1,0.2-0.2,0.3-0.2c0.1,0,0.2-0.1,0.3-0.3
				c0,0,0,0,0.1-0.1c0.1,0,0.1-0.1,0.2-0.1s0.1-0.1,0.2-0.1s0.1-0.1,0.1-0.1l0.2-0.2c0.1-0.1,0.2-0.2,0.3-0.2s0.2-0.1,0.2-0.1
				l0.1,0.1c0,0.1,0,0.1,0.1,0.1c-0.1,0.1-0.1,0.2-0.1,0.2s0,0.1-0.1,0.1s0,0-0.1,0.1C48.1,165.3,48.1,165.4,48,165.4z M44.5,163.6
				c0,0-0.1,0-0.1,0.1l-0.1,0.1h-0.1c0,0,0,0-0.1,0c0,0,0,0-0.1,0l-0.1,0.1c-0.1,0.1-0.1,0.1-0.2,0.1s-0.1,0.1-0.2,0.1
				c-0.1,0.1-0.1,0.2-0.2,0.2s-0.1,0.1-0.2,0.2c-0.1,0.1-0.2,0.2-0.3,0.3c-0.1,0.1-0.2,0.2-0.3,0.4c-0.1,0.1-0.2,0.2-0.2,0.4
				c0.2-0.1,0.4-0.2,0.6-0.3s0.4-0.3,0.6-0.4c0.1-0.1,0.1-0.1,0.2-0.2c0.1-0.1,0.1-0.1,0.2-0.2c0.1-0.1,0.2-0.1,0.3-0.3
				c0.1-0.1,0.2-0.2,0.3-0.4c0-0.1,0-0.1,0.1-0.1v-0.1C44.7,163.5,44.7,163.5,44.5,163.6C44.6,163.5,44.6,163.6,44.5,163.6z"/>
			<path class="st1" d="M56.1,159.2L56.1,159.2L56.1,159.2l0.1,0.1l0,0C56.1,159.3,56.1,159.3,56.1,159.2c0,0.1,0,0.1,0,0.2
				c0,0,0,0-0.1,0l0,0l0,0l0,0c0,0.1-0.1,0.1-0.1,0.1c-0.1,0-0.1,0.1-0.2,0.1s-0.1,0,0,0c0,0,0.1,0,0,0c0,0,0,0-0.1,0l0,0
				c-0.1,0-0.1-0.1-0.1-0.1c0-0.1-0.1-0.1-0.2-0.2c0-0.1,0-0.2-0.1-0.2s0-0.2-0.1-0.3c0-0.1,0-0.2,0-0.3s0-0.2,0.1-0.3l0,0l0,0l0,0
				l0,0c0,0,0,0,0.1,0v-0.1c0.3-0.2,0.6-0.4,0.9-0.5s0.6-0.3,1-0.5c0.1,0,0.2-0.1,0.2-0.1c0.1,0,0.2-0.1,0.3-0.1
				c0.1,0,0.1,0,0.2-0.1s0.1,0,0.2-0.1c0.2-0.1,0.3-0.1,0.5-0.1s0.3-0.1,0.5-0.1s0.4,0,0.6-0.1s0.4,0,0.6-0.1c0.4,0,0.8,0.1,1.2,0.2
				s0.6,0.3,0.8,0.5c0,0.1,0.1,0.1,0.1,0.2c0,0.1,0.1,0.1,0.1,0.2c0,0.1,0,0.1,0.1,0.1c0,0,0,0.1,0.1,0.2c0.1,0.2,0.2,0.4,0.2,0.6
				c0,0.4,0,0.8-0.2,1.1c-0.1,0.3-0.3,0.6-0.6,0.8c-0.1,0.2-0.3,0.4-0.5,0.6c-0.2,0.2-0.4,0.3-0.5,0.5c-0.1,0.1-0.3,0.2-0.4,0.3
				s-0.2,0.2-0.4,0.2c-0.2,0.2-0.4,0.3-0.7,0.5c-0.2,0.1-0.4,0.3-0.7,0.4c0.1,0,0.1,0.1,0.2,0.1s0.2,0,0.2,0.1
				c0.4,0.1,0.8,0.2,1.2,0.4l0,0l0,0l0,0c0.2,0.1,0.4,0.2,0.5,0.4s0.3,0.2,0.4,0.4c0,0.1,0.1,0.2,0.1,0.3s0.1,0.2,0.1,0.3l0,0l0,0
				c0,0,0,0.1,0.1,0.1v0.1c0.1,0.1,0.1,0.1,0.1,0.2c0,0.1,0.1,0.2,0.1,0.2c0.1,0.2,0.1,0.4,0.1,0.7c0,0.2-0.1,0.5-0.2,0.7
				c0,0.1-0.1,0.2-0.1,0.2s-0.1,0.2-0.2,0.2c0,0.1-0.1,0.1-0.2,0.2l-0.1,0.1l-0.1,0.1c-0.1,0.1-0.1,0.1-0.2,0.2
				c-0.1,0.1-0.1,0.1-0.2,0.2c-0.1,0.1-0.2,0.2-0.3,0.2c-0.1,0.1-0.2,0.2-0.3,0.2H60l-0.3,0.2c-0.1,0-0.2,0.1-0.3,0.2
				c-0.1,0.1-0.2,0.1-0.3,0.2c-0.1,0-0.1,0-0.2,0.1c-0.1,0-0.1,0.1-0.2,0.1s-0.1,0.1-0.2,0.1s-0.1,0.1-0.2,0.1
				c-0.1,0.1-0.2,0.1-0.4,0.2s-0.2,0.1-0.4,0.1l-0.4,0.2l-0.7,0.2c-0.2,0.1-0.4,0.1-0.6,0.2s-0.4,0.1-0.7,0.1c0,0,0,0,0.1,0h0.1
				c0.5-0.1,1-0.3,1.5-0.5s0.9-0.4,1.4-0.6c0,0,0,0,0.1,0c0,0,0,0,0-0.1c0.1,0,0.3-0.1,0.4-0.2c0.1-0.1,0.2-0.1,0.3-0.2
				c0.1-0.1,0.2-0.1,0.3-0.2c0.1-0.1,0.2-0.1,0.3-0.1c0-0.1,0.1-0.1,0.1-0.1v-0.1l0,0c-0.1,0-0.1,0-0.1,0.1l-0.1,0.1c0,0,0,0-0.1,0
				l0,0c-0.1,0-0.1,0-0.1,0.1s0,0.1-0.1,0.1l-0.2,0.1c-0.1,0-0.1,0.1-0.2,0.1s-0.1,0.1-0.2,0.2c-0.3,0.1-0.6,0.3-0.9,0.4
				c-0.1,0.1-0.2,0.2-0.3,0.2s-0.3,0.1-0.4,0.1c-0.1,0.1-0.1,0.1-0.2,0.1s-0.2,0.1-0.2,0.1l0,0c-0.2,0.1-0.3,0.1-0.5,0.2
				c-0.2,0.1-0.3,0.1-0.5,0.2c0.1-0.1,0.1-0.1,0.2-0.1s0.1,0,0.2-0.1c-0.2,0.1-0.4,0.2-0.6,0.2c-0.2,0.1-0.4,0.1-0.7,0.2
				c0.4-0.1,0.8-0.2,1.1-0.4c0.4-0.1,0.7-0.3,1.1-0.4l0,0c0.1,0,0.2-0.1,0.3-0.1c0.1,0,0.2-0.1,0.3-0.1l0,0l0,0
				c0.3-0.1,0.5-0.2,0.8-0.4c0.2-0.1,0.5-0.3,0.7-0.5c-0.1,0-0.2,0.1-0.3,0.1s-0.2,0.1-0.2,0.1c-0.1,0-0.1,0.1-0.1,0.1l-0.1,0.1
				l-0.3,0.1c-0.3,0.2-0.7,0.3-1.1,0.4l0.4-0.2l0,0l0,0c0.1-0.1,0.2-0.1,0.3-0.2c0.1,0,0.2-0.1,0.3-0.2c0.1-0.1,0.2-0.1,0.4-0.2
				c0.1-0.1,0.2-0.1,0.3-0.2c0.2-0.2,0.4-0.3,0.6-0.4c0.2-0.1,0.4-0.2,0.6-0.4l0,0l0,0c0.1,0,0.2-0.1,0.2-0.1s0.1-0.1,0.1-0.2
				c-0.1,0-0.1,0.1-0.2,0.1s-0.1,0.1-0.2,0.1c0,0.1-0.1,0.1-0.1,0.1c-0.1,0-0.1,0.1-0.2,0.1l0,0c0,0,0,0-0.1,0
				c-0.1,0.1-0.2,0.2-0.3,0.2s-0.2,0.1-0.4,0.2c-0.1,0.1-0.2,0.1-0.3,0.2c-0.1,0.1-0.2,0.1-0.4,0.1H58c0,0,0.1,0,0.1-0.1
				c-0.1,0-0.2,0.1-0.2,0.1s-0.1,0.1-0.2,0.1c0.2-0.1,0.5-0.2,0.7-0.3s0.4-0.3,0.6-0.4c0.2-0.1,0.3-0.1,0.4-0.3
				c0.1-0.1,0.3-0.2,0.4-0.3c0-0.1,0.1-0.1,0.1-0.1l0.1-0.1h-0.1l0,0L60,167c0.1,0,0.1-0.1,0.1-0.2H60h-0.1c0,0-0.1,0-0.1,0.1l0,0
				c-0.1,0.1-0.1,0.1-0.2,0.2s-0.2,0.1-0.3,0.2v0.1c0,0,0,0-0.1,0c0,0,0,0-0.1,0l0,0l-0.3,0.1c-0.1,0.1-0.1,0.1-0.2,0.1
				s-0.2,0.1-0.2,0.1h0.1l0.1-0.1c-0.2,0.2-0.4,0.3-0.7,0.4c-0.3,0.1-0.5,0.2-0.7,0.4c-0.1,0-0.1,0-0.1,0s-0.1,0-0.2,0H57
				c0.2-0.1,0.4-0.2,0.6-0.3s0.4-0.2,0.6-0.3c0,0,0-0.1,0.1-0.1s0.1,0,0.1-0.1l-0.1,0.1l0,0l0,0l0,0l0,0h-0.1h-0.1l0,0l0,0
				c-0.2,0.1-0.4,0.2-0.6,0.3s-0.4,0.2-0.5,0.2l0,0l0,0h-0.1c0,0-0.1,0-0.1,0.1l-1.2,0.4c-0.1,0-0.2,0-0.3,0.1
				c-0.1,0-0.2,0.1-0.3,0.1c-0.1,0-0.1,0-0.1,0.1c0,0-0.1,0-0.2,0c-0.1,0.1-0.2,0.1-0.4,0.1c-0.1,0-0.3,0.1-0.4,0.1
				s-0.2,0.1-0.3,0.1c-0.1,0-0.2,0-0.3,0l0,0l0,0c-0.1,0-0.1,0-0.1,0.1c0.3,0,0.6,0,0.9-0.1c0.3,0,0.6-0.1,0.9-0.2
				c-0.2,0.1-0.3,0.1-0.5,0.1s-0.3,0.1-0.4,0.1l0,0l0,0H54h-0.1c0,0,0,0,0.1,0h0.1c0,0.1-0.1,0.1-0.1,0.1s-0.1,0-0.2,0h0.1H54
				c-0.1,0.1-0.2,0.1-0.3,0.1c-0.1,0-0.2-0.1-0.4,0h-0.1c0,0,0,0-0.1,0c-0.2,0-0.4,0-0.6,0s-0.4-0.1-0.6-0.1c0-0.1-0.1-0.1-0.1-0.1
				c-0.1,0-0.1-0.1-0.1-0.2l0,0c0,0,0,0-0.1,0c0,0,0,0,0,0.1v0.1l-0.1-0.1l-0.1-0.1c0,0,0,0,0.1,0.1c0,0,0,0,0.1,0.1v-0.1v-0.1l0,0
				c0,0,0,0-0.1,0c0-0.1,0-0.1,0-0.1v-0.1h-0.1c0,0.1,0,0.1,0,0.1l0,0v-0.1l0,0l0,0l0,0c0,0,0,0-0.1,0c0,0,0-0.1,0.1-0.1v-0.1
				c0.1,0,0.1-0.1,0.1,0l0,0c0,0,0,0,0.1,0l0,0l0,0c0.1-0.1,0.2-0.1,0.3-0.1c0.1,0,0.2,0,0.3,0l0,0l0,0c0,0,0,0,0-0.1
				c0,0.1,0.1,0.1,0.2,0.1s0.2,0,0.2,0c-0.1,0.1-0.1,0.1-0.2,0c-0.1,0-0.2,0-0.2,0.1c-0.1,0-0.1,0-0.2,0.1c-0.1,0-0.1,0.1-0.1,0.2
				c0,0,0.1,0.1,0.2,0.1s0.2,0.1,0.3,0.1c0.1,0,0.2,0,0.3,0s0.2,0,0.2,0c0-0.1,0.1-0.2,0.1-0.3s0-0.2,0.1-0.3c0-0.1,0-0.2,0.1-0.3
				s0.1-0.2,0.1-0.3c0.2-0.9,0.5-1.7,0.8-2.6c0.3-0.8,0.7-1.6,1-2.4l0,0c0,0,0,0-0.1,0c0-0.1,0-0.1,0-0.2l-0.1-0.1H55v-0.1
				c0.1,0,0.1,0,0.2-0.1c0,0,0.1,0,0.2-0.1c0.1-0.3,0.3-0.6,0.4-0.9c0.1-0.3,0.3-0.6,0.4-0.9c0.1-0.2,0.2-0.4,0.3-0.7
				c0.1-0.2,0.2-0.5,0.3-0.7c0.1-0.2,0.2-0.4,0.3-0.7s0.2-0.5,0.3-0.7c0.1-0.1,0.1-0.2,0.1-0.3s0.1-0.2,0.1-0.3c0,0,0,0,0.1,0
				s0,0,0,0c0.1,0,0.2,0,0.3,0c0.1,0,0.2,0,0.2,0c0.1,0,0.1,0,0.2,0s0.1,0,0.1,0.1c0.1,0.1,0.1,0.1,0.1,0.2c0,0.1,0,0.1,0,0.2
				c0,0.1,0,0.1-0.1,0.2c0,0.1-0.1,0.1-0.1,0.2c-0.1,0.3-0.3,0.5-0.4,0.8c-0.1,0.2-0.3,0.5-0.4,0.8l0,0c-0.1,0.3-0.2,0.5-0.3,0.8
				c-0.1,0.2-0.2,0.5-0.3,0.7c0,0,0,0,0,0.1c0,0,0,0.1-0.1,0.1c-0.1,0.2-0.1,0.3-0.2,0.5s-0.2,0.3-0.2,0.5c0.1,0,0.2,0,0.2-0.1
				c0.1,0,0.1-0.1,0.2-0.1c0.5-0.2,1-0.5,1.4-0.7v-0.1c0.2-0.1,0.4-0.2,0.5-0.4c0.2-0.1,0.3-0.2,0.5-0.4l0,0c0.6-0.5,1.1-1,1.5-1.6
				v-0.1c0.1-0.1,0.1-0.2,0.2-0.3s0.1-0.2,0.2-0.4c0.1-0.1,0.1-0.3,0.2-0.4c0-0.1,0.1-0.3,0.1-0.4c0-0.1,0-0.1,0-0.2
				c0,0,0-0.1-0.1-0.1c-0.3-0.2-0.7-0.4-1.2-0.5c-0.4-0.1-0.9-0.1-1.3,0l-0.5,0.1c-0.3,0.1-0.6,0.2-0.9,0.3s-0.6,0.2-0.8,0.3
				c-0.3,0.1-0.5,0.3-0.8,0.5s-0.5,0.4-0.6,0.7c0,0,0,0,0.1,0l0,0l0,0l0,0v0.1c0,0,0,0,0,0.1l0,0l0,0l0,0
				C56.1,159.1,56.1,159.1,56.1,159.2C56.1,159.1,56.1,159.2,56.1,159.2z M52.4,170C52.4,170,52.5,170,52.4,170
				C52.5,169.9,52.4,169.9,52.4,170L52.4,170L52.4,170z M59.6,167.6L59.6,167.6L59.6,167.6C59.6,167.5,59.6,167.5,59.6,167.6
				C59.6,167.6,59.5,167.6,59.6,167.6L59.6,167.6c0-0.1,0-0.1,0-0.1s0,0,0.1,0h0.1c0,0,0.1,0,0.1-0.1l0,0l0,0c0,0,0-0.1,0.1-0.1
				c0,0,0.1,0,0.1-0.1c0.2-0.1,0.4-0.3,0.5-0.5s0.3-0.4,0.4-0.5v-0.1c0.1-0.1,0.2-0.3,0.3-0.5c0.1-0.2,0.1-0.4,0.1-0.6
				c0-0.1-0.1-0.2-0.1-0.4c-0.1-0.1-0.2-0.2-0.3-0.3c-0.1-0.1-0.2-0.1-0.3-0.1c-0.1,0-0.2-0.1-0.3-0.1l0,0l0,0
				c-0.1,0-0.1-0.1-0.2-0.1s-0.1-0.1-0.2-0.1c-0.2-0.1-0.4-0.1-0.5-0.2c-0.1-0.1-0.3-0.1-0.4-0.1s-0.3-0.1-0.4-0.1
				c-0.2,0-0.5,0-0.7,0c-0.3,0-0.5,0.1-0.7,0.2l0,0l0,0c-0.1,0-0.2,0-0.2,0.1c-0.1,0-0.2,0.1-0.2,0.1l0,0c-0.1,0-0.1,0-0.1,0v0.1
				c-0.1,0.2-0.2,0.4-0.3,0.6c-0.1,0.2-0.2,0.4-0.3,0.6c0,0.1,0,0.2,0,0.3s0,0.2-0.1,0.3c-0.1,0.2-0.1,0.4-0.2,0.7s-0.1,0.4-0.1,0.7
				c0,0.1-0.1,0.2-0.1,0.3s-0.1,0.2-0.1,0.3s0,0.1-0.1,0.2c0,0.1-0.1,0.2-0.1,0.3s-0.1,0.2-0.1,0.3c-0.1,0.1-0.1,0.2-0.2,0.3
				s-0.1,0.2-0.2,0.2l0,0c-0.1,0-0.1,0.1-0.1,0.2c0,0.1-0.1,0.2-0.1,0.2c-0.1,0-0.1,0-0.1,0.1s-0.1,0.1-0.1,0.1
				c0.3-0.1,0.6-0.1,0.9-0.2c0.3-0.1,0.6-0.1,0.9-0.3l0,0l0,0c0.2,0,0.4-0.1,0.5-0.1c0.1-0.1,0.3-0.1,0.5-0.2c0-0.1,0-0.1,0-0.1
				s0.1,0,0.1-0.1l0,0c0.1-0.1,0.2-0.1,0.3-0.1h0.1l0,0c0.1,0,0.1,0,0.1,0H58l0,0l0,0h0.1h0.1l0,0c0.1,0,0.2-0.1,0.3-0.1
				c0.1-0.1,0.2-0.1,0.3-0.1l0,0l0,0c0.1,0,0.1,0,0.1,0s0.1,0,0.1-0.1l0.1-0.1h0.1c0,0,0,0,0.1,0h0.1l0,0l0,0l0,0c0,0,0,0,0.1,0
				C59.5,167.6,59.5,167.6,59.6,167.6C59.5,167.6,59.5,167.6,59.6,167.6L59.6,167.6z M56.1,169.9c0.2-0.1,0.4-0.1,0.6-0.2
				c0.2-0.1,0.4-0.1,0.6-0.2l0,0C56.8,169.7,56.5,169.9,56.1,169.9c-0.4,0.2-0.8,0.3-1.2,0.4c0.2,0,0.4-0.1,0.6-0.1
				C55.7,170.1,55.9,170,56.1,169.9z M57.2,169.6C57.3,169.6,57.3,169.6,57.2,169.6C57.3,169.6,57.3,169.6,57.2,169.6L57.2,169.6z
				 M57.6,168.6C57.6,168.6,57.5,168.6,57.6,168.6C57.5,168.6,57.5,168.6,57.6,168.6C57.5,168.6,57.5,168.6,57.6,168.6z M59.1,168.6
				c0.1-0.1,0.1-0.1,0.2-0.2c0.1,0,0.2-0.1,0.2-0.1s0,0,0.1,0l0,0c-0.1,0.1-0.2,0.1-0.3,0.2c-0.1,0.1-0.2,0.1-0.4,0.2H59
				C59,168.7,59,168.6,59.1,168.6z M61.2,167.9c-0.1,0.1-0.2,0.1-0.2,0.2L61.2,167.9L61.2,167.9z M61.2,163.7L61.2,163.7L61.2,163.7
				c0,0.1,0.1,0.1,0.2,0.2c0.1,0.1,0.1,0.1,0.2,0.2l0,0l0,0l0,0l0,0l0,0l0,0l0,0C61.5,164,61.4,163.9,61.2,163.7
				c0,0-0.1-0.1-0.3-0.1c0,0.1,0.1,0.1,0.1,0.1C61.1,163.6,61.2,163.7,61.2,163.7z M61.9,164.5c0-0.1,0-0.1,0-0.1s-0.1-0.1-0.1,0
				C61.7,164.3,61.8,164.4,61.9,164.5C61.8,164.5,61.8,164.5,61.9,164.5z"/>
			<path class="st1" d="M71.6,165.7c-0.1,0-0.1,0-0.1,0.1s-0.1,0.1-0.1,0.2l0,0c-0.1,0.1-0.2,0.1-0.2,0.2c-0.1,0.1-0.2,0.2-0.2,0.2
				l0,0l0,0c0,0,0,0-0.1,0.1s-0.1,0-0.1,0c-0.1,0-0.1,0.1-0.1,0.1l-0.1,0.1c-0.1,0.1-0.1,0.1-0.1,0.1l-0.1,0.1l0,0
				c0,0-0.1,0.1-0.2,0.1c-0.1,0.1-0.2,0.1-0.3,0.2c-0.1,0.1-0.2,0.1-0.3,0.1c-0.1,0-0.2,0-0.2,0h-0.1c-0.1,0-0.2,0-0.3,0.1
				s-0.2,0.1-0.3,0c0-0.1-0.1-0.1-0.1-0.1c-0.1,0-0.1-0.1-0.2-0.1l-0.1-0.1c-0.1-0.1-0.2-0.2-0.3-0.3c-0.1-0.1-0.1-0.3-0.1-0.5
				s0-0.4,0-0.6c0-0.2,0.1-0.4,0.1-0.6c-0.2,0.1-0.3,0.3-0.4,0.4c-0.1,0.2-0.3,0.3-0.4,0.5c-0.1,0.1-0.1,0.2-0.2,0.2
				c-0.1,0.1-0.1,0.1-0.2,0.2c-0.2,0.2-0.4,0.4-0.5,0.6l0,0l0,0c-0.1,0.1-0.2,0.1-0.3,0.2c-0.1,0.1-0.2,0.2-0.3,0.2
				c-0.1,0.1-0.2,0.1-0.4,0.1s-0.3,0-0.4-0.1c-0.1,0-0.1,0-0.2-0.1l-0.1-0.1c-0.1-0.1-0.2-0.1-0.2-0.2s0-0.2-0.1-0.3
				c0-0.1,0-0.2,0-0.3s0.1-0.2,0.1-0.3c0.1-0.2,0.1-0.4,0.2-0.6s0.2-0.3,0.3-0.5c0.2-0.3,0.4-0.5,0.6-0.7s0.4-0.4,0.6-0.6
				c0.1,0,0.1-0.1,0.2-0.1s0.2-0.1,0.2-0.1c0.1,0,0.1,0,0.2,0s0.1,0,0.2,0c0.2,0,0.4,0.1,0.6,0.2c0.2,0.1,0.3,0.2,0.4,0.4
				C68,164,68,164,68.1,164s0.1-0.1,0.2-0.1c0,0,0.1,0,0.1-0.1c0,0,0,0,0.1,0s0.2,0,0.3,0.1c0.1,0.1,0.2,0.1,0.3,0.2l0,0
				c0,0,0,0,0.1,0v0.1c0,0,0,0,0,0.1c0,0.2,0,0.4-0.1,0.6s-0.2,0.4-0.2,0.6c0,0.3-0.1,0.5-0.2,0.8s-0.1,0.6,0,0.8
				c0.4,0,0.7-0.1,1-0.3c0.3-0.1,0.5-0.3,0.8-0.4c0.1-0.1,0.2-0.1,0.3-0.2c0.1-0.1,0.2-0.1,0.2-0.2l0,0l0,0c0.1,0,0.2-0.1,0.3-0.2
				c0.2-0.1,0.3-0.3,0.5-0.4s0.3-0.3,0.5-0.4c0.1-0.1,0.2-0.1,0.3-0.1c0,0,0,0,0.1,0s0.1,0,0.1,0l0,0l0,0l0,0l0,0v0.1c0,0,0,0,0,0.1
				l0,0c0,0,0,0-0.1,0.1s-0.1,0.1-0.1,0.1c0,0.1,0,0.1,0,0.1v0.1h-0.1c0,0.1-0.1,0.1-0.1,0.1l-0.1,0.1c0,0,0,0-0.1,0.1L71.6,165.7z
				 M67.1,164.3c0-0.1-0.1-0.3-0.1-0.4s-0.2-0.1-0.3,0l-0.3,0.3c0,0,0,0.1-0.1,0.1c0,0-0.1,0-0.1,0.1c0,0,0,0.1-0.1,0.1
				c0,0,0,0.1-0.1,0.1l-0.2,0.3c-0.1,0.2-0.2,0.3-0.4,0.5c-0.1,0.2-0.2,0.4-0.3,0.6c0,0.1,0,0.1-0.1,0.1c0,0-0.1,0.1-0.1,0.2l0,0
				l0,0c0,0.1-0.1,0.2-0.1,0.3c-0.1,0.1-0.1,0.2-0.1,0.3c0.1-0.1,0.2-0.1,0.3-0.2c0.1-0.1,0.2-0.1,0.2-0.2c0.3-0.3,0.6-0.6,0.9-1
				c0.3-0.3,0.6-0.7,0.9-1l0.1-0.1c0,0,0-0.1,0.1-0.1l0,0C67.2,164.3,67.2,164.3,67.1,164.3z"/>
			<path class="st1" d="M77.4,165.4c0,0,0,0.1-0.1,0.2s-0.2,0.2-0.3,0.3c0,0-0.1,0-0.1,0.1c-0.1,0.1-0.1,0.1-0.1,0.1l-0.1,0.1
				l-0.3,0.2l-0.1,0.1l-0.2,0.1c-0.2,0.1-0.4,0.2-0.5,0.3c-0.2,0.1-0.4,0.2-0.6,0.3c0,0,0,0-0.1,0s-0.1,0-0.1,0h-0.1h-0.1h-0.1l0,0
				c-0.1,0-0.1,0-0.1,0s-0.1,0-0.1,0.1h-0.1h-0.1H74h-0.1l0,0l0,0h-0.1c0,0-0.1,0-0.2,0h-0.1h-0.1l0,0c-0.2,0-0.3,0-0.4,0h-0.1
				c0,0,0,0-0.1,0s-0.2,0-0.3-0.1s-0.2-0.1-0.3-0.1c-0.1-0.1-0.2-0.1-0.3-0.2s-0.2-0.2-0.3-0.3c0-0.1-0.1-0.2-0.1-0.2
				c0-0.1,0-0.1-0.1-0.2c0-0.1,0-0.2,0-0.2v-0.2c0-0.1,0.1-0.3,0.1-0.5s0.1-0.4,0.3-0.5l0.4-0.4l0.2-0.3c0.1-0.1,0.2-0.1,0.2-0.2
				s0.1-0.1,0.2-0.2c0.1-0.1,0.1-0.1,0.2-0.1s0.1-0.1,0.2-0.1c0.1-0.1,0.2-0.1,0.2-0.2c0.1-0.1,0.2-0.1,0.2-0.2
				c0.1,0,0.2-0.1,0.2-0.1h0.1c0.1,0,0.1,0,0.1,0s0,0,0.1,0c0,0,0,0,0.1,0c0.1,0.1,0.1,0.2,0.2,0.2s0.2,0.1,0.2,0.2
				c0.1,0,0.1,0.1,0.1,0.1s0,0.1,0.1,0.1c0,0.1,0,0.2,0,0.2c0,0.1,0,0.1-0.1,0.2c0,0,0,0,0,0.1s0,0,0,0.1s-0.1,0.1-0.1,0.1l-0.1,0.1
				c0,0,0,0.1-0.1,0.1s0,0.1-0.1,0.1c0,0-0.1,0.1-0.2,0.2c-0.1,0.1-0.1,0.1-0.2,0.2c-0.1,0.1-0.1,0.1-0.2,0.2s-0.2,0.1-0.2,0.1v0.1
				c-0.1,0.1-0.2,0.2-0.3,0.2s-0.2,0.2-0.3,0.2c-0.2,0-0.3,0.1-0.5,0.2c-0.1,0.1-0.3,0.1-0.5,0.1l0,0c0,0,0,0,0.1,0
				c0,0.1,0,0.1,0,0.1s0,0.1,0.1,0.1c0.1,0.1,0.2,0.2,0.3,0.2c0.1,0.1,0.3,0.1,0.4,0.1c0.4,0.1,0.8,0.1,1.2,0c0.1,0,0.2,0,0.3-0.1
				c0.1,0,0.2-0.1,0.4-0.1c0.2-0.1,0.3-0.1,0.5-0.2l0.2-0.1h0.1l0,0l0,0l0,0l0.4-0.2c0.1-0.1,0.2-0.2,0.3-0.2c0.1,0,0.2-0.1,0.3-0.3
				c0,0,0,0,0.1-0.1c0.1,0,0.1-0.1,0.2-0.1s0.1-0.1,0.2-0.1s0.1-0.1,0.1-0.1l0.2-0.2c0.1-0.1,0.2-0.2,0.3-0.2s0.2-0.1,0.2-0.1
				l0.1,0.1c0,0.1,0,0.1,0.1,0.1c-0.1,0.1-0.1,0.2-0.1,0.2s0,0.1-0.1,0.1s0,0-0.1,0.1C77.5,165.3,77.4,165.4,77.4,165.4z
				 M73.9,163.6c0,0-0.1,0-0.1,0.1l-0.1,0.1h-0.1c0,0,0,0-0.1,0c0,0,0,0-0.1,0l-0.1,0.1c-0.1,0.1-0.1,0.1-0.2,0.1s-0.1,0.1-0.2,0.1
				c-0.1,0.1-0.1,0.2-0.2,0.2s-0.1,0.1-0.2,0.2c-0.1,0.1-0.2,0.2-0.3,0.3c-0.1,0.1-0.2,0.2-0.3,0.4c-0.1,0.1-0.2,0.2-0.2,0.4
				c0.2-0.1,0.4-0.2,0.6-0.3s0.4-0.3,0.6-0.4c0.1-0.1,0.1-0.1,0.2-0.2c0.1-0.1,0.1-0.1,0.2-0.2c0.1-0.1,0.2-0.1,0.3-0.3
				c0.1-0.1,0.2-0.2,0.3-0.4c0-0.1,0-0.1,0.1-0.1v-0.1C74,163.5,74,163.5,73.9,163.6C73.9,163.5,73.9,163.6,73.9,163.6z"/>
			<path class="st1" d="M76.9,167c0-0.1,0.1-0.2,0.1-0.2c0.1,0,0.1-0.1,0.2-0.2c0,0,0,0.1-0.1,0.1c0,0,0,0,0,0.1
				c0.2-0.1,0.2-0.2,0.3-0.3h0.1c0-0.1,0.1-0.1,0.1-0.1l0,0c0,0,0,0,0-0.1s0-0.1,0-0.1l0,0l0,0c0-0.1,0.1-0.1,0.1-0.1s0.1,0,0.1-0.1
				c0,0,0,0,0.1,0c0.1-0.1,0.2-0.1,0.3-0.2c0.1,0,0.2-0.1,0.2-0.2c0.1-0.1,0.3-0.1,0.4-0.2c0.1-0.1,0.3-0.2,0.4-0.2
				c0-0.2,0.1-0.4,0-0.6c0-0.2-0.1-0.4-0.1-0.6c0,0-0.1,0.1-0.2,0.1s-0.1,0.1-0.2,0.2l-0.2,0.2l-0.2,0.2L78,165
				c-0.1,0.1-0.2,0.1-0.2,0.2c-0.1,0.1-0.1,0.1-0.2,0.1c-0.1,0.1-0.1,0.2-0.2,0.2s-0.1,0-0.2,0l-0.1-0.1l0,0l0,0c0,0,0,0-0.1-0.1
				h-0.1l0,0c0,0,0,0,0-0.1l0,0c0.1,0,0.1-0.1,0.2-0.1c0,0,0-0.1,0.1-0.1c0-0.1,0-0.1,0.1-0.1s0.1-0.1,0.1-0.1s0.1,0,0.1-0.1
				c0,0,0,0,0-0.1v-0.1l0.1-0.1l0.1-0.1c0.1-0.1,0.2-0.2,0.3-0.3c0.1-0.1,0.2-0.2,0.2-0.3c0.1-0.2,0.2-0.3,0.4-0.4
				c0.2,0,0.3,0,0.4,0.1c0.2,0,0.3,0,0.3,0.1c0.1,0.1,0.1,0.1,0.2,0.3c0,0,0.1,0.1,0.1,0.2c0,0.1,0,0.2,0.1,0.3c0,0.1,0,0.2,0,0.3
				s0,0.2,0,0.2c0.1,0,0.2,0,0.3-0.1c0.2-0.1,0.3-0.1,0.5-0.2c0.2-0.1,0.4-0.1,0.5-0.2s0.3-0.1,0.3-0.1l0,0l0,0c0,0,0,0,0.1,0
				s0.2,0,0.2-0.1c0.1,0,0.2-0.1,0.2-0.1h0.1c0,0,0,0,0.1-0.1l0,0l0,0c0,0,0,0,0-0.1c0.1,0,0.2,0,0.3,0c0.1,0,0.2,0,0.2,0h0.1h0.1
				h0.2c0,0.1,0,0.1,0.1,0l0,0l0,0l0,0l0,0l0,0v0.1c0,0,0,0,0,0.1c-0.1,0-0.1,0-0.1,0h-0.1l0,0l0,0c-0.1,0-0.1,0-0.2,0
				s-0.1,0-0.1,0.1c-0.1,0-0.2,0-0.3,0.1s-0.2,0-0.3,0.1v0.1c-0.1,0-0.1,0-0.2,0h-0.1c-0.1,0-0.2,0-0.3,0.1c-0.1,0-0.2,0.1-0.3,0.1
				l-1.3,0.5c-0.1,0-0.2,0.1-0.3,0.1s-0.2,0.1-0.2,0.2c0,0.2-0.1,0.3-0.1,0.3c0,0.1-0.1,0.2-0.1,0.3c-0.1,0-0.1,0-0.1,0.1v0.1l0,0
				l0,0c0,0.1,0,0.1-0.1,0.2c0,0.1-0.1,0.1-0.1,0.2c0,0,0,0,0,0.1s0,0.1,0,0.1s0,0-0.1,0.1v0.1l0,0l0,0v0.1l0,0
				c-0.1,0.1-0.1,0.1-0.2,0.2c0,0.1-0.1,0.1-0.2,0.2l0,0l0,0c-0.2,0.2-0.3,0.3-0.5,0.5c-0.2,0.1-0.4,0.2-0.6,0.3l0,0H77l0,0
				c0,0,0,0,0.1,0c0-0.1-0.1-0.1-0.1,0h-0.1l0,0l0,0h-0.1c0,0-0.1,0-0.2,0l0,0l0,0c-0.2,0-0.4,0-0.6-0.1c-0.1-0.1-0.3-0.2-0.4-0.3
				l0,0l0,0l0,0c0,0,0,0,0-0.1c0,0,0,0.1-0.1,0c0,0,0,0-0.1,0v-0.1c0,0,0,0,0-0.1l0,0l0,0v-0.1h0.1c0-0.2,0-0.3,0.1-0.3l0,0l0,0
				c0.1,0,0.1-0.1,0.1-0.2c0-0.1,0.1-0.2,0.1-0.3C76.7,167.1,76.8,167.1,76.9,167C76.8,167,76.9,167,76.9,167z M77,166.9
				C77,166.8,77,166.8,77,166.9C77,166.8,77,166.9,77,166.9z M78.3,166.6L78.3,166.6L78.3,166.6c-0.1,0.1-0.2,0.2-0.3,0.3
				s-0.2,0.2-0.3,0.3c0,0,0,0.1,0,0l0,0l0,0c-0.1,0-0.1,0.1-0.1,0.1l0,0c0,0.1-0.1,0.1-0.2,0.2s-0.1,0.1-0.1,0.2l0,0l0,0
				c0.1,0,0.3-0.1,0.4-0.1s0.2-0.1,0.4-0.2v-0.1l0,0c0.2-0.2,0.4-0.4,0.6-0.7s0.3-0.5,0.5-0.8l0,0c-0.1,0.1-0.2,0.2-0.3,0.3
				S78.4,166.5,78.3,166.6z M78,168.5c0,0,0.1,0,0.1-0.1C78.1,168.4,78.1,168.4,78,168.5C78,168.4,78,168.5,78,168.5z"/>
			<path class="st1" d="M82.3,167c0-0.1,0.1-0.2,0.1-0.2c0.1,0,0.1-0.1,0.2-0.2c0,0,0,0.1-0.1,0.1c0,0,0,0,0,0.1
				c0.2-0.1,0.2-0.2,0.3-0.3h0.1c0-0.1,0.1-0.1,0.1-0.1l0,0c0,0,0,0,0-0.1s0-0.1,0-0.1l0,0l0,0c0-0.1,0.1-0.1,0.1-0.1s0.1,0,0.1-0.1
				c0,0,0,0,0.1,0c0.1-0.1,0.2-0.1,0.3-0.2c0.1,0,0.2-0.1,0.2-0.2c0.1-0.1,0.3-0.1,0.4-0.2c0.1-0.1,0.3-0.2,0.4-0.2
				c0-0.2,0.1-0.4,0-0.6c0-0.2-0.1-0.4-0.1-0.6c0,0-0.1,0.1-0.2,0.1s-0.1,0.1-0.2,0.2l-0.2,0.2l-0.2,0.2l-0.3,0.3
				c-0.1,0.1-0.2,0.1-0.2,0.2c-0.1,0.1-0.1,0.1-0.2,0.1c-0.1,0.1-0.1,0.2-0.2,0.2s-0.1,0-0.2,0l-0.1-0.1l0,0l0,0c0,0,0,0-0.1-0.1
				h-0.1l0,0c0,0,0,0,0-0.1l0,0c0.1,0,0.1-0.1,0.2-0.1c0,0,0-0.1,0.1-0.1c0-0.1,0-0.1,0.1-0.1s0.1-0.1,0.1-0.1s0.1,0,0.1-0.1
				c0,0,0,0,0-0.1v-0.1l0.1-0.1l0.1-0.1c0.1-0.1,0.2-0.2,0.3-0.3c0.1-0.1,0.2-0.2,0.2-0.3c0.1-0.2,0.2-0.3,0.4-0.4
				c0.2,0,0.3,0,0.4,0.1c0.2,0,0.3,0,0.3,0.1c0.1,0.1,0.1,0.1,0.2,0.3c0,0,0.1,0.1,0.1,0.2c0,0.1,0,0.2,0.1,0.3c0,0.1,0,0.2,0,0.3
				s0,0.2,0,0.2c0.1,0,0.2,0,0.3-0.1c0.2-0.1,0.3-0.1,0.5-0.2c0.2-0.1,0.4-0.1,0.5-0.2s0.3-0.1,0.3-0.1l0,0l0,0c0,0,0,0,0.1,0
				s0.2,0,0.2-0.1c0.1,0,0.2-0.1,0.2-0.1h0.1c0,0,0,0,0.1-0.1l0,0l0,0c0,0,0,0,0-0.1c0.1,0,0.2,0,0.3,0c0.1,0,0.2,0,0.2,0H88h0.1
				h0.2c0,0.1,0,0.1,0.1,0l0,0l0,0l0,0l0,0l0,0v0.1c0,0,0,0,0,0.1c-0.1,0-0.1,0-0.1,0h-0.1l0,0l0,0c-0.1,0-0.1,0-0.2,0
				s-0.1,0-0.1,0.1c-0.1,0-0.2,0-0.3,0.1s-0.2,0-0.3,0.1v0.1c-0.1,0-0.1,0-0.2,0H87c-0.1,0-0.2,0-0.3,0.1c-0.1,0-0.2,0.1-0.3,0.1
				l-1.3,0.5c-0.1,0-0.2,0.1-0.3,0.1s-0.2,0.1-0.2,0.2c0,0.2-0.1,0.3-0.1,0.3c0,0.1-0.1,0.2-0.1,0.3c-0.1,0-0.1,0-0.1,0.1v0.1l0,0
				l0,0c0,0.1,0,0.1-0.1,0.2c0,0.1-0.1,0.1-0.1,0.2c0,0,0,0,0,0.1s0,0.1,0,0.1s0,0-0.1,0.1v0.1l0,0l0,0v0.1l0,0
				c-0.1,0.1-0.1,0.1-0.2,0.2c0,0.1-0.1,0.1-0.2,0.2l0,0l0,0c-0.2,0.2-0.3,0.3-0.5,0.5c-0.2,0.1-0.4,0.2-0.6,0.3l0,0h-0.1l0,0
				c0,0,0,0,0.1,0c0-0.1-0.1-0.1-0.1,0h-0.1l0,0l0,0h-0.1c0,0-0.1,0-0.2,0l0,0l0,0c-0.2,0-0.4,0-0.6-0.1c-0.1-0.1-0.3-0.2-0.4-0.3
				l0,0l0,0l0,0c0,0,0,0,0-0.1c0,0,0,0.1-0.1,0c0,0,0,0-0.1,0v-0.1c0,0,0,0,0-0.1l0,0l0,0v-0.1h0.1c0-0.2,0-0.3,0.1-0.3l0,0l0,0
				c0.1,0,0.1-0.1,0.1-0.2c0-0.1,0.1-0.2,0.1-0.3C82.1,167.1,82.1,167.1,82.3,167C82.2,167,82.2,167,82.3,167z M82.4,166.9
				C82.4,166.8,82.4,166.8,82.4,166.9C82.4,166.8,82.4,166.9,82.4,166.9z M83.6,166.6L83.6,166.6L83.6,166.6
				c-0.1,0.1-0.2,0.2-0.3,0.3s-0.2,0.2-0.3,0.3c0,0,0,0.1,0,0l0,0l0,0c-0.1,0-0.1,0.1-0.1,0.1l0,0c0,0.1-0.1,0.1-0.2,0.2
				s-0.1,0.1-0.1,0.2l0,0l0,0c0.1,0,0.3-0.1,0.4-0.1s0.2-0.1,0.4-0.2v-0.1l0,0c0.2-0.2,0.4-0.4,0.6-0.7s0.3-0.5,0.5-0.8l0,0
				c-0.1,0.1-0.2,0.2-0.3,0.3S83.8,166.5,83.6,166.6z M83.3,168.5c0,0,0.1,0,0.1-0.1C83.4,168.4,83.4,168.4,83.3,168.5
				C83.4,168.4,83.3,168.5,83.3,168.5z"/>
			<path class="st1" d="M93.7,165.4c0,0,0,0.1-0.1,0.2s-0.2,0.2-0.3,0.3c0,0-0.1,0-0.1,0.1c-0.1,0.1-0.1,0.1-0.1,0.1l-0.1,0.1
				l-0.3,0.2l-0.1,0.1l-0.2,0.1c-0.2,0.1-0.4,0.2-0.5,0.3c-0.2,0.1-0.4,0.2-0.6,0.3c0,0,0,0-0.1,0s-0.1,0-0.1,0H91h-0.1h-0.1l0,0
				c-0.1,0-0.1,0-0.1,0s-0.1,0-0.1,0.1h-0.1h-0.1h-0.1h-0.1l0,0l0,0h-0.1c0,0-0.1,0-0.2,0h-0.1h-0.1l0,0c-0.2,0-0.3,0-0.4,0h-0.1
				c0,0,0,0-0.1,0s-0.2,0-0.3-0.1s-0.2-0.1-0.3-0.1c-0.1-0.1-0.2-0.1-0.3-0.2s-0.2-0.2-0.3-0.3c0-0.1-0.1-0.2-0.1-0.2
				c0-0.1,0-0.1-0.1-0.2c0-0.1,0-0.2,0-0.2v-0.2c0-0.1,0.1-0.3,0.1-0.5s0.1-0.4,0.3-0.5l0.4-0.4l0.2-0.3c0.1-0.1,0.2-0.1,0.2-0.2
				s0.1-0.1,0.2-0.2c0.1-0.1,0.1-0.1,0.2-0.1s0.1-0.1,0.2-0.1c0.1-0.1,0.2-0.1,0.2-0.2c0.1-0.1,0.2-0.1,0.2-0.2
				c0.1,0,0.2-0.1,0.2-0.1h0.1c0.1,0,0.1,0,0.1,0s0,0,0.1,0c0,0,0,0,0.1,0c0.1,0.1,0.1,0.2,0.2,0.2s0.2,0.1,0.2,0.2
				c0.1,0,0.1,0.1,0.1,0.1s0,0.1,0.1,0.1c0,0.1,0,0.2,0,0.2c0,0.1,0,0.1-0.1,0.2c0,0,0,0,0,0.1s0,0,0,0.1s-0.1,0.1-0.1,0.1l-0.1,0.1
				c0,0,0,0.1-0.1,0.1s0,0.1-0.1,0.1c0,0-0.1,0.1-0.2,0.2c-0.1,0.1-0.1,0.1-0.2,0.2c-0.1,0.1-0.1,0.1-0.2,0.2s-0.2,0.1-0.2,0.1v0.1
				c-0.1,0.1-0.2,0.2-0.3,0.2s-0.2,0.2-0.3,0.2c-0.2,0-0.3,0.1-0.5,0.2c-0.1,0.1-0.3,0.1-0.5,0.1l0,0c0,0,0,0,0.1,0
				c0,0.1,0,0.1,0,0.1s0,0.1,0.1,0.1c0.1,0.1,0.2,0.2,0.3,0.2c0.1,0.1,0.3,0.1,0.4,0.1c0.4,0.1,0.8,0.1,1.2,0c0.1,0,0.2,0,0.3-0.1
				c0.1,0,0.2-0.1,0.4-0.1c0.2-0.1,0.3-0.1,0.5-0.2l0.2-0.1h0.1l0,0l0,0l0,0l0.4-0.2c0.1-0.1,0.2-0.2,0.3-0.2c0.1,0,0.2-0.1,0.3-0.3
				c0,0,0,0,0.1-0.1c0.1,0,0.1-0.1,0.2-0.1s0.1-0.1,0.2-0.1s0.1-0.1,0.1-0.1l0.2-0.2c0.1-0.1,0.2-0.2,0.3-0.2s0.2-0.1,0.2-0.1
				l0.1,0.1c0,0.1,0,0.1,0.1,0.1c-0.1,0.1-0.1,0.2-0.1,0.2s0,0.1-0.1,0.1s0,0-0.1,0.1C93.8,165.3,93.7,165.4,93.7,165.4z
				 M90.2,163.6c0,0-0.1,0-0.1,0.1l-0.1,0.1h-0.1c0,0,0,0-0.1,0c0,0,0,0-0.1,0l-0.1,0.1c-0.1,0.1-0.1,0.1-0.2,0.1s-0.1,0.1-0.2,0.1
				c-0.1,0.1-0.1,0.2-0.2,0.2s-0.1,0.1-0.2,0.2c-0.1,0.1-0.2,0.2-0.3,0.3c-0.1,0.1-0.2,0.2-0.3,0.4c-0.1,0.1-0.2,0.2-0.2,0.4
				c0.2-0.1,0.4-0.2,0.6-0.3s0.4-0.3,0.6-0.4c0.1-0.1,0.1-0.1,0.2-0.2c0.1-0.1,0.1-0.1,0.2-0.2c0.1-0.1,0.2-0.1,0.3-0.3
				c0.1-0.1,0.2-0.2,0.3-0.4c0-0.1,0-0.1,0.1-0.1v-0.1C90.3,163.5,90.3,163.5,90.2,163.6C90.2,163.5,90.2,163.6,90.2,163.6z"/>
		</g>
	</g>
</g>
</svg>
