<?xml version="1.0" encoding="utf-8"?>
<!-- Generator: Adobe Illustrator 23.0.1, SVG Export Plug-In . SVG Version: 6.00 Build 0)  -->
<svg version="1.1" id="Camada_3" xmlns="http://www.w3.org/2000/svg" xmlns:xlink="http://www.w3.org/1999/xlink" x="0px" y="0px"
	 viewBox="0 0 238.6 237.6" style="enable-background:new 0 0 238.6 237.6;" xml:space="preserve">
<style type="text/css">
	.st0{fill:none;}
	.st1{fill:#8E1E4C;}
</style>
<g>
	<rect x="25.4" y="22.9" class="st0" width="185.8" height="191.1"/>
	<rect x="189.4" y="34.2" class="st0" width="10.1" height="9.8"/>
	<rect x="189.4" y="44.8" class="st0" width="10.1" height="9.8"/>
	<rect x="189.4" y="55.4" class="st0" width="10.1" height="9.8"/>
	<rect x="189.4" y="65.9" class="st0" width="10.1" height="9.8"/>
	<rect x="189.4" y="76.5" class="st0" width="10.1" height="9.8"/>
	<rect x="189.4" y="87.1" class="st0" width="10.1" height="9.8"/>
	<rect x="189.4" y="97.7" class="st0" width="10.1" height="9.8"/>
	<rect x="189.4" y="108.2" class="st0" width="10.1" height="9.8"/>
	<rect x="189.4" y="118.8" class="st0" width="10.1" height="9.8"/>
	<rect x="189.4" y="129.4" class="st0" width="10.1" height="9.8"/>
	<rect x="189.4" y="140" class="st0" width="10.1" height="9.8"/>
	<rect x="189.4" y="150.5" class="st0" width="10.1" height="9.8"/>
	<rect x="189.4" y="161.1" class="st0" width="10.1" height="9.8"/>
	<rect x="189.4" y="171.7" class="st0" width="10.1" height="9.8"/>
	<rect x="189.4" y="182.3" class="st0" width="10.1" height="9.8"/>
	<rect x="189.4" y="192.8" class="st0" width="10.1" height="9.8"/>
	<rect x="178.5" y="34.2" class="st0" width="10.1" height="9.8"/>
	<rect x="178.5" y="44.8" class="st0" width="10.1" height="9.8"/>
	<rect x="178.5" y="55.4" class="st0" width="10.1" height="9.8"/>
	<rect x="178.5" y="65.9" class="st0" width="10.1" height="9.8"/>
	<rect x="178.5" y="76.5" class="st0" width="10.1" height="9.8"/>
	<rect x="178.5" y="87.1" class="st0" width="10.1" height="9.8"/>
	<rect x="178.5" y="129.4" class="st0" width="10.1" height="9.8"/>
	<rect x="178.5" y="140" class="st0" width="10.1" height="9.8"/>
	<rect x="178.5" y="150.5" class="st0" width="10.1" height="9.8"/>
	<rect x="178.5" y="161.1" class="st0" width="10.1" height="9.8"/>
	<rect x="178.5" y="171.7" class="st0" width="10.1" height="9.8"/>
	<rect x="178.5" y="192.8" class="st0" width="10.1" height="9.8"/>
	<rect x="167.6" y="34.2" class="st0" width="10.1" height="9.8"/>
	<rect x="167.6" y="44.8" class="st0" width="10.1" height="9.8"/>
	<rect x="167.6" y="55.4" class="st0" width="10.1" height="9.8"/>
	<rect x="167.6" y="65.9" class="st0" width="10.1" height="9.8"/>
	<rect x="167.6" y="76.5" class="st0" width="10.1" height="9.8"/>
	<rect x="167.6" y="97.7" class="st0" width="10.1" height="9.8"/>
	<rect x="167.6" y="108.2" class="st0" width="10.1" height="9.8"/>
	<rect x="167.6" y="118.8" class="st0" width="10.1" height="9.8"/>
	<rect x="167.6" y="140" class="st0" width="10.1" height="9.8"/>
	<rect x="167.6" y="150.5" class="st0" width="10.1" height="9.8"/>
	<rect x="167.6" y="161.1" class="st0" width="10.1" height="9.8"/>
	<rect x="167.6" y="182.3" class="st0" width="10.1" height="9.8"/>
	<rect x="167.6" y="192.8" class="st0" width="10.1" height="9.8"/>
	<rect x="156.8" y="34.2" class="st0" width="10.1" height="9.8"/>
	<rect x="156.8" y="44.8" class="st0" width="10.1" height="9.8"/>
	<rect x="156.8" y="55.4" class="st0" width="10.1" height="9.8"/>
	<rect x="156.8" y="65.9" class="st0" width="10.1" height="9.8"/>
	<rect x="156.8" y="76.5" class="st0" width="10.1" height="9.8"/>
	<rect x="156.8" y="97.7" class="st0" width="10.1" height="9.8"/>
	<rect x="156.8" y="108.2" class="st0" width="10.1" height="9.8"/>
	<rect x="156.8" y="118.8" class="st0" width="10.1" height="9.8"/>
	<rect x="156.8" y="140" class="st0" width="10.1" height="9.8"/>
	<rect x="156.8" y="150.5" class="st0" width="10.1" height="9.8"/>
	<rect x="156.8" y="171.7" class="st0" width="10.1" height="9.8"/>
	<rect x="156.8" y="182.3" class="st0" width="10.1" height="9.8"/>
	<rect x="156.8" y="192.8" class="st0" width="10.1" height="9.8"/>
	<rect x="145.9" y="34.2" class="st0" width="10.1" height="9.8"/>
	<rect x="145.9" y="44.8" class="st0" width="10.1" height="9.8"/>
	<rect x="145.9" y="55.4" class="st0" width="10.1" height="9.8"/>
	<rect x="145.9" y="65.9" class="st0" width="10.1" height="9.8"/>
	<rect x="145.9" y="76.5" class="st0" width="10.1" height="9.8"/>
	<rect x="145.9" y="97.7" class="st0" width="10.1" height="9.8"/>
	<rect x="145.9" y="108.2" class="st0" width="10.1" height="9.8"/>
	<rect x="145.9" y="118.8" class="st0" width="10.1" height="9.8"/>
	<rect x="145.9" y="140" class="st0" width="10.1" height="9.8"/>
	<rect x="145.9" y="161.1" class="st0" width="10.1" height="9.8"/>
	<rect x="145.9" y="171.7" class="st0" width="10.1" height="9.8"/>
	<rect x="145.9" y="182.3" class="st0" width="10.1" height="9.8"/>
	<rect x="145.9" y="192.8" class="st0" width="10.1" height="9.8"/>
	<rect x="135" y="34.2" class="st0" width="10.1" height="9.8"/>
	<rect x="135" y="44.8" class="st0" width="10.1" height="9.8"/>
	<rect x="135" y="55.4" class="st0" width="10.1" height="9.8"/>
	<rect x="135" y="65.9" class="st0" width="10.1" height="9.8"/>
	<rect x="135" y="76.5" class="st0" width="10.1" height="9.8"/>
	<rect x="135" y="97.7" class="st0" width="10.1" height="9.8"/>
	<rect x="135" y="108.2" class="st0" width="10.1" height="9.8"/>
	<rect x="135" y="118.8" class="st0" width="10.1" height="9.8"/>
	<rect x="135" y="150.5" class="st0" width="10.1" height="9.8"/>
	<rect x="135" y="161.1" class="st0" width="10.1" height="9.8"/>
	<rect x="135" y="171.7" class="st0" width="10.1" height="9.8"/>
	<rect x="135" y="182.3" class="st0" width="10.1" height="9.8"/>
	<rect x="135" y="192.8" class="st0" width="10.1" height="9.8"/>
	<rect x="124.1" y="34.2" class="st0" width="10.1" height="9.8"/>
	<rect x="124.1" y="44.8" class="st0" width="10.1" height="9.8"/>
	<rect x="124.1" y="55.4" class="st0" width="10.1" height="9.8"/>
	<rect x="124.1" y="65.9" class="st0" width="10.1" height="9.8"/>
	<rect x="124.1" y="76.5" class="st0" width="10.1" height="9.8"/>
	<rect x="124.1" y="192.8" class="st0" width="10.1" height="9.8"/>
	<rect x="113.2" y="34.2" class="st0" width="10.1" height="9.8"/>
	<rect x="113.2" y="44.8" class="st0" width="10.1" height="9.8"/>
	<rect x="113.2" y="55.4" class="st0" width="10.1" height="9.8"/>
	<rect x="113.2" y="65.9" class="st0" width="10.1" height="9.8"/>
	<rect x="113.2" y="76.5" class="st0" width="10.1" height="9.8"/>
	<rect x="113.2" y="87.1" class="st0" width="10.1" height="9.8"/>
	<rect x="113.2" y="97.7" class="st0" width="10.1" height="9.8"/>
	<rect x="113.2" y="108.2" class="st0" width="10.1" height="9.8"/>
	<rect x="113.2" y="118.8" class="st0" width="10.1" height="9.8"/>
	<rect x="113.2" y="129.4" class="st0" width="10.1" height="9.8"/>
	<rect x="113.2" y="140" class="st0" width="10.1" height="9.8"/>
	<rect x="113.2" y="150.5" class="st0" width="10.1" height="9.8"/>
	<rect x="113.2" y="161.1" class="st0" width="10.1" height="9.8"/>
	<rect x="113.2" y="171.7" class="st0" width="10.1" height="9.8"/>
	<rect x="113.2" y="182.3" class="st0" width="10.1" height="9.8"/>
	<rect x="113.2" y="192.8" class="st0" width="10.1" height="9.8"/>
	<rect x="102.3" y="34.2" class="st0" width="10.1" height="9.8"/>
	<rect x="102.3" y="44.8" class="st0" width="10.1" height="9.8"/>
	<rect x="102.3" y="87.1" class="st0" width="10.1" height="9.8"/>
	<rect x="102.3" y="97.7" class="st0" width="10.1" height="9.8"/>
	<rect x="102.3" y="108.2" class="st0" width="10.1" height="9.8"/>
	<rect x="102.3" y="118.8" class="st0" width="10.1" height="9.8"/>
	<rect x="102.3" y="129.4" class="st0" width="10.1" height="9.8"/>
	<rect x="102.3" y="140" class="st0" width="10.1" height="9.8"/>
	<rect x="102.3" y="150.5" class="st0" width="10.1" height="9.8"/>
	<rect x="102.3" y="161.1" class="st0" width="10.1" height="9.8"/>
	<rect x="102.3" y="171.7" class="st0" width="10.1" height="9.8"/>
	<rect x="102.3" y="182.3" class="st0" width="10.1" height="9.8"/>
	<rect x="102.3" y="192.8" class="st0" width="10.1" height="9.8"/>
	<rect x="91.5" y="34.2" class="st0" width="10.1" height="9.8"/>
	<rect x="91.5" y="55.4" class="st0" width="10.1" height="9.8"/>
	<rect x="91.5" y="65.9" class="st0" width="10.1" height="9.8"/>
	<rect x="91.5" y="76.5" class="st0" width="10.1" height="9.8"/>
	<rect x="91.5" y="97.7" class="st0" width="10.1" height="9.8"/>
	<rect x="91.5" y="108.2" class="st0" width="10.1" height="9.8"/>
	<rect x="91.5" y="118.8" class="st0" width="10.1" height="9.8"/>
	<rect x="91.5" y="129.4" class="st0" width="10.1" height="9.8"/>
	<rect x="91.5" y="140" class="st0" width="10.1" height="9.8"/>
	<rect x="91.5" y="150.5" class="st0" width="10.1" height="9.8"/>
	<rect x="91.5" y="161.1" class="st0" width="10.1" height="9.8"/>
	<rect x="91.5" y="171.7" class="st0" width="10.1" height="9.8"/>
	<rect x="91.5" y="182.3" class="st0" width="10.1" height="9.8"/>
	<rect x="91.5" y="192.8" class="st0" width="10.1" height="9.8"/>
	<rect x="80.6" y="34.2" class="st0" width="10.1" height="9.8"/>
	<rect x="80.6" y="55.4" class="st0" width="10.1" height="9.8"/>
	<rect x="80.6" y="65.9" class="st0" width="10.1" height="9.8"/>
	<rect x="80.6" y="76.5" class="st0" width="10.1" height="9.8"/>
	<rect x="80.6" y="97.7" class="st0" width="10.1" height="9.8"/>
	<rect x="80.6" y="108.2" class="st0" width="10.1" height="9.8"/>
	<rect x="80.6" y="118.8" class="st0" width="10.1" height="9.8"/>
	<rect x="80.6" y="129.4" class="st0" width="10.1" height="9.8"/>
	<rect x="80.6" y="140" class="st0" width="10.1" height="9.8"/>
	<rect x="80.6" y="150.5" class="st0" width="10.1" height="9.8"/>
	<rect x="80.6" y="161.1" class="st0" width="10.1" height="9.8"/>
	<rect x="80.6" y="171.7" class="st0" width="10.1" height="9.8"/>
	<rect x="80.6" y="182.3" class="st0" width="10.1" height="9.8"/>
	<rect x="80.6" y="192.8" class="st0" width="10.1" height="9.8"/>
	<rect x="69.7" y="34.2" class="st0" width="10.1" height="9.8"/>
	<rect x="69.7" y="55.4" class="st0" width="10.1" height="9.8"/>
	<rect x="69.7" y="65.9" class="st0" width="10.1" height="9.8"/>
	<rect x="69.7" y="76.5" class="st0" width="10.1" height="9.8"/>
	<rect x="69.7" y="97.7" class="st0" width="10.1" height="9.8"/>
	<rect x="69.7" y="108.2" class="st0" width="10.1" height="9.8"/>
	<rect x="69.7" y="118.8" class="st0" width="10.1" height="9.8"/>
	<rect x="69.7" y="129.4" class="st0" width="10.1" height="9.8"/>
	<rect x="69.7" y="140" class="st0" width="10.1" height="9.8"/>
	<rect x="69.7" y="150.5" class="st0" width="10.1" height="9.8"/>
	<rect x="69.7" y="161.1" class="st0" width="10.1" height="9.8"/>
	<rect x="69.7" y="171.7" class="st0" width="10.1" height="9.8"/>
	<rect x="69.7" y="182.3" class="st0" width="10.1" height="9.8"/>
	<rect x="69.7" y="192.8" class="st0" width="10.1" height="9.8"/>
	<rect x="58.8" y="34.2" class="st0" width="10.1" height="9.8"/>
	<rect x="58.8" y="55.4" class="st0" width="10.1" height="9.8"/>
	<rect x="58.8" y="65.9" class="st0" width="10.1" height="9.8"/>
	<rect x="58.8" y="76.5" class="st0" width="10.1" height="9.8"/>
	<rect x="58.8" y="97.7" class="st0" width="10.1" height="9.8"/>
	<rect x="58.8" y="108.2" class="st0" width="10.1" height="9.8"/>
	<rect x="58.8" y="118.8" class="st0" width="10.1" height="9.8"/>
	<rect x="58.8" y="129.4" class="st0" width="10.1" height="9.8"/>
	<rect x="58.8" y="140" class="st0" width="10.1" height="9.8"/>
	<rect x="58.8" y="150.5" class="st0" width="10.1" height="9.8"/>
	<rect x="58.8" y="161.1" class="st0" width="10.1" height="9.8"/>
	<rect x="58.8" y="171.7" class="st0" width="10.1" height="9.8"/>
	<rect x="58.8" y="182.3" class="st0" width="10.1" height="9.8"/>
	<rect x="58.8" y="192.8" class="st0" width="10.1" height="9.8"/>
	<rect x="47.9" y="34.2" class="st0" width="10.1" height="9.8"/>
	<rect x="47.9" y="150.5" class="st0" width="10.1" height="9.8"/>
	<rect x="47.9" y="161.1" class="st0" width="10.1" height="9.8"/>
	<rect x="47.9" y="171.7" class="st0" width="10.1" height="9.8"/>
	<rect x="47.9" y="182.3" class="st0" width="10.1" height="9.8"/>
	<rect x="47.9" y="192.8" class="st0" width="10.1" height="9.8"/>
	<rect x="37" y="34.2" class="st0" width="10.1" height="9.8"/>
	<rect x="37" y="44.8" class="st0" width="10.1" height="9.8"/>
	<rect x="37" y="55.4" class="st0" width="10.1" height="9.8"/>
	<rect x="37" y="65.9" class="st0" width="10.1" height="9.8"/>
	<rect x="37" y="76.5" class="st0" width="10.1" height="9.8"/>
	<rect x="37" y="87.1" class="st0" width="10.1" height="9.8"/>
	<rect x="37" y="97.7" class="st0" width="10.1" height="9.8"/>
	<rect x="37" y="108.2" class="st0" width="10.1" height="9.8"/>
	<rect x="37" y="118.8" class="st0" width="10.1" height="9.8"/>
	<rect x="37" y="129.4" class="st0" width="10.1" height="9.8"/>
	<rect x="37" y="140" class="st0" width="10.1" height="9.8"/>
	<rect x="37" y="150.5" class="st0" width="10.1" height="9.8"/>
	<rect x="37" y="161.1" class="st0" width="10.1" height="9.8"/>
	<rect x="37" y="171.7" class="st0" width="10.1" height="9.8"/>
	<rect x="37" y="182.3" class="st0" width="10.1" height="9.8"/>
	<rect x="37" y="192.8" class="st0" width="10.1" height="9.8"/>
	<g>
		<rect x="178.5" y="97.7" class="st1" width="10.1" height="9.8"/>
		<rect x="178.5" y="108.2" class="st1" width="10.1" height="9.8"/>
		<rect x="178.5" y="118.8" class="st1" width="10.1" height="9.8"/>
		<rect x="178.5" y="182.3" class="st1" width="10.1" height="9.8"/>
		<rect x="167.6" y="87.1" class="st1" width="10.1" height="9.8"/>
		<rect x="167.6" y="129.4" class="st1" width="10.1" height="9.8"/>
		<rect x="167.6" y="171.7" class="st1" width="10.1" height="9.8"/>
		<rect x="156.8" y="87.1" class="st1" width="10.1" height="9.8"/>
		<rect x="156.8" y="129.4" class="st1" width="10.1" height="9.8"/>
		<rect x="156.8" y="161.1" class="st1" width="10.1" height="9.8"/>
		<rect x="145.9" y="87.1" class="st1" width="10.1" height="9.8"/>
		<rect x="145.9" y="129.4" class="st1" width="10.1" height="9.8"/>
		<rect x="145.9" y="150.5" class="st1" width="10.1" height="9.8"/>
		<rect x="135" y="87.1" class="st1" width="10.1" height="9.8"/>
		<rect x="135" y="129.4" class="st1" width="10.1" height="9.8"/>
		<rect x="135" y="140" class="st1" width="10.1" height="9.8"/>
		<rect x="124.1" y="87.1" class="st1" width="10.1" height="9.8"/>
		<rect x="124.1" y="97.7" class="st1" width="10.1" height="9.8"/>
		<rect x="124.1" y="108.2" class="st1" width="10.1" height="9.8"/>
		<rect x="124.1" y="118.8" class="st1" width="10.1" height="9.8"/>
		<rect x="124.1" y="129.4" class="st1" width="10.1" height="9.8"/>
		<rect x="124.1" y="140" class="st1" width="10.1" height="9.8"/>
		<rect x="124.1" y="150.5" class="st1" width="10.1" height="9.8"/>
		<rect x="124.1" y="161.1" class="st1" width="10.1" height="9.8"/>
		<rect x="124.1" y="171.7" class="st1" width="10.1" height="9.8"/>
		<rect x="124.1" y="182.3" class="st1" width="10.1" height="9.8"/>
		<rect x="102.3" y="55.4" class="st1" width="10.1" height="9.8"/>
		<rect x="102.3" y="65.9" class="st1" width="10.1" height="9.8"/>
		<rect x="102.3" y="76.5" class="st1" width="10.1" height="9.8"/>
		<rect x="91.5" y="44.8" class="st1" width="10.1" height="9.8"/>
		<rect x="91.5" y="87.1" class="st1" width="10.1" height="9.8"/>
		<rect x="80.6" y="44.8" class="st1" width="10.1" height="9.8"/>
		<rect x="80.6" y="87.1" class="st1" width="10.1" height="9.8"/>
		<rect x="69.7" y="44.8" class="st1" width="10.1" height="9.8"/>
		<rect x="69.7" y="87.1" class="st1" width="10.1" height="9.8"/>
		<rect x="58.8" y="44.8" class="st1" width="10.1" height="9.8"/>
		<rect x="58.8" y="87.1" class="st1" width="10.1" height="9.8"/>
		<rect x="47.9" y="44.8" class="st1" width="10.1" height="9.8"/>
		<rect x="47.9" y="55.4" class="st1" width="10.1" height="9.8"/>
		<rect x="47.9" y="65.9" class="st1" width="10.1" height="9.8"/>
		<rect x="47.9" y="76.5" class="st1" width="10.1" height="9.8"/>
		<rect x="47.9" y="87.1" class="st1" width="10.1" height="9.8"/>
		<rect x="47.9" y="97.7" class="st1" width="10.1" height="9.8"/>
		<rect x="47.9" y="108.2" class="st1" width="10.1" height="9.8"/>
		<rect x="47.9" y="118.8" class="st1" width="10.1" height="9.8"/>
		<rect x="47.9" y="129.4" class="st1" width="10.1" height="9.8"/>
		<rect x="47.9" y="140" class="st1" width="10.1" height="9.8"/>
		<rect x="26.2" y="23.6" class="st1" width="10.1" height="9.8"/>
		<rect x="26.2" y="34.2" class="st1" width="10.1" height="9.8"/>
		<rect x="26.2" y="44.8" class="st1" width="10.1" height="9.8"/>
		<rect x="26.2" y="55.4" class="st1" width="10.1" height="9.8"/>
		<rect x="26.2" y="65.9" class="st1" width="10.1" height="9.8"/>
		<rect x="26.2" y="76.5" class="st1" width="10.1" height="9.8"/>
		<rect x="26.2" y="87.1" class="st1" width="10.1" height="9.8"/>
		<rect x="26.2" y="97.7" class="st1" width="10.1" height="9.8"/>
		<rect x="26.2" y="108.2" class="st1" width="10.1" height="9.8"/>
		<rect x="26.2" y="118.8" class="st1" width="10.1" height="9.8"/>
		<rect x="26.2" y="129.4" class="st1" width="10.1" height="9.8"/>
		<rect x="26.2" y="140" class="st1" width="10.1" height="9.8"/>
		<rect x="26.2" y="150.5" class="st1" width="10.1" height="9.8"/>
		<rect x="26.2" y="161.1" class="st1" width="10.1" height="9.8"/>
		<rect x="26.2" y="171.7" class="st1" width="10.1" height="9.8"/>
		<rect x="26.2" y="182.3" class="st1" width="10.1" height="9.8"/>
		<rect x="26.2" y="192.8" class="st1" width="10.1" height="9.8"/>
		<rect x="200.3" y="34.2" class="st1" width="10.1" height="9.8"/>
		<rect x="200.3" y="44.8" class="st1" width="10.1" height="9.8"/>
		<rect x="200.3" y="55.4" class="st1" width="10.1" height="9.8"/>
		<rect x="200.3" y="65.9" class="st1" width="10.1" height="9.8"/>
		<rect x="200.3" y="76.5" class="st1" width="10.1" height="9.8"/>
		<rect x="200.3" y="87.1" class="st1" width="10.1" height="9.8"/>
		<rect x="200.3" y="97.7" class="st1" width="10.1" height="9.8"/>
		<rect x="200.3" y="108.2" class="st1" width="10.1" height="9.8"/>
		<rect x="200.3" y="118.8" class="st1" width="10.1" height="9.8"/>
		<rect x="200.3" y="129.4" class="st1" width="10.1" height="9.8"/>
		<rect x="200.3" y="140" class="st1" width="10.1" height="9.8"/>
		<rect x="200.3" y="150.5" class="st1" width="10.1" height="9.8"/>
		<rect x="200.3" y="161.1" class="st1" width="10.1" height="9.8"/>
		<rect x="200.3" y="171.7" class="st1" width="10.1" height="9.8"/>
		<rect x="200.3" y="182.3" class="st1" width="10.1" height="9.8"/>
		<rect x="200.3" y="192.8" class="st1" width="10.1" height="9.8"/>
		<rect x="26.2" y="203.4" class="st1" width="10.1" height="9.8"/>
		<rect x="37" y="23.6" class="st1" width="10.1" height="9.8"/>
		<rect x="47.9" y="23.6" class="st1" width="10.1" height="9.8"/>
		<rect x="58.8" y="23.6" class="st1" width="10.1" height="9.8"/>
		<rect x="69.7" y="23.6" class="st1" width="10.1" height="9.8"/>
		<rect x="80.6" y="23.6" class="st1" width="10.1" height="9.8"/>
		<rect x="91.5" y="23.6" class="st1" width="10.1" height="9.8"/>
		<rect x="102.3" y="23.6" class="st1" width="10.1" height="9.8"/>
		<rect x="113.2" y="23.6" class="st1" width="10.1" height="9.8"/>
		<rect x="124.1" y="23.6" class="st1" width="10.1" height="9.8"/>
		<rect x="135" y="23.6" class="st1" width="10.1" height="9.8"/>
		<rect x="145.9" y="23.6" class="st1" width="10.1" height="9.8"/>
		<rect x="156.8" y="23.6" class="st1" width="10.1" height="9.8"/>
		<rect x="167.6" y="23.6" class="st1" width="10.1" height="9.8"/>
		<rect x="178.5" y="23.6" class="st1" width="10.1" height="9.8"/>
		<rect x="189.4" y="23.6" class="st1" width="10.1" height="9.8"/>
		<rect x="200.3" y="23.6" class="st1" width="10.1" height="9.8"/>
		<rect x="37" y="203.4" class="st1" width="10.1" height="9.8"/>
		<rect x="47.9" y="203.4" class="st1" width="10.1" height="9.8"/>
		<rect x="58.8" y="203.4" class="st1" width="10.1" height="9.8"/>
		<rect x="69.7" y="203.4" class="st1" width="10.1" height="9.8"/>
		<rect x="80.6" y="203.4" class="st1" width="10.1" height="9.8"/>
		<rect x="91.5" y="203.4" class="st1" width="10.1" height="9.8"/>
		<rect x="102.3" y="203.4" class="st1" width="10.1" height="9.8"/>
		<rect x="113.2" y="203.4" class="st1" width="10.1" height="9.8"/>
		<rect x="124.1" y="203.4" class="st1" width="10.1" height="9.8"/>
		<rect x="135" y="203.4" class="st1" width="10.1" height="9.8"/>
		<rect x="145.9" y="203.4" class="st1" width="10.1" height="9.8"/>
		<rect x="156.8" y="203.4" class="st1" width="10.1" height="9.8"/>
		<rect x="167.6" y="203.4" class="st1" width="10.1" height="9.8"/>
		<rect x="178.5" y="203.4" class="st1" width="10.1" height="9.8"/>
		<rect x="189.4" y="203.4" class="st1" width="10.1" height="9.8"/>
		<rect x="200.3" y="203.4" class="st1" width="10.1" height="9.8"/>
	</g>
	<g>
		<g>
			<path class="st1" d="M48.7,189.7C48.7,189.7,48.7,189.7,48.7,189.7c-0.1,0.1-0.1,0.1-0.1,0.1c0,0.1,0,0.2,0,0.3
				c0,0.1,0,0.1,0,0.1s0,0.1,0,0.1s0,0,0,0.1c0,0,0,0,0,0c0,0,0,0,0,0.1c0,0,0,0,0,0.1s0,0.1,0,0.1c-0.1,0.1-0.1,0.1,0,0.2
				s0,0.2,0,0.2c0,0,0,0,0.1,0c0,0.1,0,0.1,0,0.2s0,0.1,0,0.1l0,0.1c0,0.2,0,0.3,0,0.3s0,0.1,0,0.2c0,0.1,0,0.1,0,0.2
				c0,0.1,0,0.2,0,0.3c0,0,0,0,0,0s0,0,0,0.1h0v0.1h0l0,0l0,0.1h0v0c0,0,0,0,0.1,0c0,0.1,0,0.2,0,0.3c0,0.1,0.1,0.2,0,0.3
				c0,0,0,0,0,0c0-0.1,0-0.1-0.1-0.2v0.1c0,0,0,0,0.1,0c0,0,0,0,0,0c0,0,0,0,0,0c0,0,0,0,0,0c0,0.1,0,0.1-0.1,0.1s0,0,0,0.1
				c0,0,0,0,0,0c0,0,0,0,0,0s0,0,0,0c0,0,0,0,0,0c-0.1,0-0.1,0-0.1,0c0,0,0,0,0,0c0,0,0,0,0,0c0,0,0,0-0.1-0.1c0-0.1,0-0.2-0.1-0.2
				s0-0.1-0.1-0.2c0-0.1,0-0.2,0-0.2c0,0-0.1-0.1-0.1-0.2c0-0.3,0-0.5,0-0.6c0-0.1,0-0.2,0-0.3c0-0.1,0-0.2,0-0.3s0-0.3,0-0.6
				c0,0,0-0.1,0-0.2c0-0.1,0-0.2,0-0.2c0,0,0,0,0-0.1s0,0,0-0.1c0,0,0,0,0,0c0,0,0,0,0,0c0-0.3,0-0.5,0-0.8c0-0.3,0.1-0.5,0.1-0.8
				c0,0,0,0,0,0c0,0,0,0,0,0c0,0,0,0,0,0c0,0,0,0,0,0c0-0.2,0-0.5,0.1-0.8c0.1-0.3,0.1-0.6,0.1-0.8l-0.1-0.1c0,0,0,0,0,0.1
				s0,0-0.1,0c0,0,0,0,0-0.1c0,0-0.1,0-0.1,0c0,0,0,0,0,0v0c-0.1,0-0.2,0.1-0.4,0.1c-0.1,0-0.3,0-0.4,0.1c0,0,0,0,0.1-0.1
				c0,0-0.1,0-0.1,0c0,0-0.1,0.1-0.1,0.1c0,0-0.1,0-0.1,0c0,0,0,0-0.1,0c0,0,0-0.1,0-0.1c0,0,0,0.1-0.1,0.1c0,0-0.1,0.1-0.1,0.1
				c0,0,0,0,0,0c0,0,0,0,0,0c-0.1,0-0.2,0-0.2,0.1c-0.1,0-0.2,0-0.2,0c0,0-0.1,0-0.1,0c0,0,0,0-0.1,0c0,0-0.1,0-0.1,0
				c0,0-0.1,0-0.1,0l-0.1,0c-0.2,0.1-0.5,0.1-0.7,0.1c-0.3,0-0.5,0-0.7,0.1c-0.4,0.7-0.8,1.4-1.1,2.2c-0.4,0.8-0.8,1.5-1.2,2.1
				c-0.1,0-0.2,0-0.3,0c-0.1,0-0.1,0-0.2-0.1c-0.1,0-0.1-0.1-0.2-0.1c-0.1,0-0.1-0.1-0.2-0.1c0-0.1,0-0.1,0.1-0.1
				c0.3-0.6,0.6-1.2,0.9-1.8c0.3-0.6,0.6-1.2,0.9-1.8c0,0,0,0-0.1,0c0,0,0,0-0.1,0l0,0c-0.2,0-0.4,0.1-0.6,0.1s-0.4,0.1-0.6,0.1
				c-0.1,0.1-0.3,0.1-0.5,0.1s-0.3,0-0.5,0.1c-0.1,0-0.1,0-0.2,0.1s-0.1,0-0.1,0.1c0,0-0.1,0-0.1,0c0,0-0.1,0-0.1,0c0,0-0.1,0-0.1,0
				c0,0-0.1,0-0.1,0c0-0.1,0-0.2-0.1-0.3c0-0.1-0.1-0.2-0.1-0.3c0.1,0,0.1,0,0.1,0c0.2-0.1,0.3-0.1,0.5-0.2s0.3-0.1,0.5-0.1
				c0.2,0,0.3-0.1,0.5-0.1c0.2,0,0.3-0.1,0.5-0.1c0.3-0.1,0.5-0.1,0.8-0.2c0.3-0.1,0.5-0.1,0.8-0.2c0,0,0,0,0-0.1c0,0,0-0.1,0-0.1
				c0.1,0,0.1-0.1,0.1-0.1c0,0,0.1-0.1,0.1-0.2c0.6-1,1.3-2.1,1.9-3.1c0.7-1,1.4-2,2.2-2.9c0.1-0.1,0.2-0.2,0.3-0.3
				c0.1-0.1,0.2-0.2,0.3-0.3c0-0.1,0.1-0.1,0.1-0.1c0.1,0,0.2-0.1,0.2-0.1s0.1-0.1,0.2-0.2c0.1-0.1,0.2-0.1,0.2-0.2
				c0.1,0,0.2-0.1,0.3-0.1c0.1,0,0.2,0.1,0.3,0.2s0.1,0.2,0.2,0.4c0.1,0.1,0.2,0.2,0.2,0.2c0,0.1,0.1,0.2,0,0.4c0,0.1,0,0.2,0,0.2
				s0,0.1,0,0.2c0,0.1,0,0.2-0.1,0.2s0,0.1-0.1,0.2c0,0,0,0,0,0.1c0,0,0,0.1,0,0.1c0,0.1,0,0.2-0.1,0.2c0,0.1-0.1,0.2-0.1,0.2
				c0,0.1,0,0.2,0,0.2s0,0.2,0,0.3c0,0.1,0,0.1-0.1,0.2c0,0.1-0.1,0.1-0.1,0.2c-0.1,0.4-0.2,0.8-0.2,1.1c-0.1,0.3-0.1,0.7-0.2,1.1
				c0,0,0,0,0,0c0,0,0,0,0,0c0,0,0,0,0,0c0,0.1,0,0.1,0,0.1c0,0,0,0.1-0.1,0.1c0,0,0,0,0,0c0,0,0,0,0,0.1c0,0,0,0,0,0c0,0,0,0,0,0
				c0,0.1,0,0.2,0,0.2c0,0.1,0,0.2,0,0.2c0,0,0,0,0,0.1s0,0.1,0,0.1c0.2,0,0.4,0,0.6,0c0.2,0,0.4,0,0.6,0c0,0-0.1,0-0.1,0
				c0,0-0.1,0-0.2,0l0.3,0c0,0-0.1,0.1-0.1,0c0,0-0.1,0-0.2,0c0,0,0.1,0,0.1,0c-0.1,0.1-0.2,0.1-0.3,0c-0.1,0-0.2,0-0.3,0
				c0,0,0,0,0,0s0,0,0,0c-0.1,0-0.2,0-0.2,0s-0.2,0-0.2,0c0.1,0,0.1,0,0.2,0c0.1,0,0.2,0,0.3,0c-0.1,0.1-0.1,0.1-0.2,0.1
				c-0.1,0-0.1,0-0.2,0c0,0,0,0,0-0.1c0,0-0.1,0-0.1,0c0,0,0,0.1,0,0.1c0,0,0,0-0.1,0c0.2,0,0.4,0,0.5,0c0.2,0,0.3,0,0.5,0
				c-0.1,0-0.1,0-0.1,0c0,0-0.1,0-0.1,0c0,0,0,0,0,0s0,0,0,0c0,0-0.1,0-0.1,0c0,0,0,0-0.1,0c0,0,0,0,0,0c0,0,0,0,0,0
				c-0.1,0-0.3,0-0.4,0c-0.1,0-0.3,0-0.4,0c0.1,0,0.1,0.1,0.1,0.1l-0.1,0.1c0,0,0,0,0,0c-0.1,0-0.1,0-0.1,0c0,0,0,0,0,0
				c0,0,0,0,0-0.1c0,0,0,0,0,0c0,0,0,0,0,0c0,0,0,0,0,0c0,0,0,0,0,0l0,0v0v0c0,0,0,0,0,0c0,0,0,0,0,0v0h0v0c0,0-0.1,0,0,0l0,0
				c0,0,0,0,0,0c0,0,0,0,0,0c0,0,0,0.1,0,0.1c0,0,0,0.1,0,0.1c0,0,0,0,0,0c0,0,0-0.1,0-0.1c0,0,0,0,0,0.1s0,0.2,0,0.2
				c0,0.1,0,0.2,0,0.2c0,0.1,0,0.1,0,0.1c0,0.1,0,0.2,0,0.4c-0.1,0.2-0.1,0.6-0.2,1.1c0,0,0,0-0.1,0L48.7,189.7z M47.4,186.6
				c0,0-0.1,0-0.1,0C47.3,186.6,47.4,186.5,47.4,186.6L47.4,186.6c0.2,0,0.2,0,0.2-0.1c0,0,0.1,0,0.1,0c0,0,0,0,0,0
				c0.1,0,0.2,0,0.2,0s0.1,0,0.2,0c0,0,0,0-0.1,0c0,0,0,0,0,0c0.1,0,0.1,0,0.1,0s0.1,0,0.1,0c0.1-0.3,0.1-0.6,0.1-0.9
				c0-0.3,0.1-0.6,0.1-0.9l0.2-0.6c0,0,0,0,0-0.1s0,0,0-0.1l0,0c0,0,0-0.1,0-0.2c0-0.1,0-0.1,0-0.1c0.1-0.1,0.1-0.2,0.1-0.3
				c0-0.1,0-0.2,0.1-0.3c0-0.1,0-0.1,0-0.2s0-0.1,0-0.1l0.1-0.5c0-0.1,0.1-0.2,0.1-0.3c0-0.1,0.1-0.2,0.1-0.3c0,0,0-0.1,0-0.1
				c0-0.1,0-0.3,0.1-0.4c0-0.1,0.1-0.2,0.1-0.4c-0.2,0.1-0.3,0.2-0.4,0.3c-0.1,0.1-0.2,0.2-0.4,0.4c-0.2,0.3-0.4,0.5-0.6,0.7
				c-0.2,0.2-0.4,0.5-0.6,0.8c-0.1,0.1-0.2,0.3-0.3,0.4c-0.1,0.2-0.2,0.3-0.3,0.5c0,0,0,0.1,0,0.1s0,0,0,0c-0.3,0.5-0.6,0.9-0.9,1.4
				c-0.3,0.5-0.6,0.9-0.9,1.4c0,0.1,0,0.1-0.1,0.1c0,0-0.1,0.1,0,0.1c0.1,0,0.2-0.1,0.3-0.1l-0.1,0c0.2,0,0.4-0.1,0.5-0.1
				c0.1,0,0.3,0,0.5,0c0,0,0,0,0,0c0.1,0,0.1,0,0.1,0c0,0,0,0,0,0h0l0,0c0.2,0,0.4-0.1,0.6-0.1c0.2,0,0.4-0.1,0.5,0c0,0,0,0,0,0
				s0,0,0,0L47.4,186.6z M45.9,186.8c0.1,0,0.1,0,0.1-0.1C45.9,186.7,45.9,186.7,45.9,186.8L45.9,186.8
				C45.8,186.7,45.8,186.7,45.9,186.8L45.9,186.8L45.9,186.8z M45.8,186.7C45.8,186.7,45.8,186.7,45.8,186.7L45.8,186.7L45.8,186.7
				c0.1,0,0.1,0,0.1,0C45.9,186.7,45.9,186.7,45.8,186.7L45.8,186.7z M46.2,187.5C46.2,187.5,46.2,187.5,46.2,187.5
				C46.1,187.5,46.2,187.5,46.2,187.5C46.2,187.5,46.2,187.5,46.2,187.5z M46.2,186.7C46.2,186.6,46.2,186.6,46.2,186.7
				C46.3,186.7,46.3,186.7,46.2,186.7C46.2,186.7,46.2,186.7,46.2,186.7L46.2,186.7z M46.9,187.3C46.8,187.3,46.8,187.3,46.9,187.3
				C46.8,187.3,46.8,187.3,46.9,187.3C46.8,187.3,46.8,187.3,46.9,187.3L46.9,187.3L46.9,187.3C46.8,187.4,46.9,187.4,46.9,187.3
				L46.9,187.3L46.9,187.3z M46.9,187.3C46.8,187.3,46.8,187.3,46.9,187.3C46.8,187.3,46.8,187.3,46.9,187.3
				C46.8,187.3,46.8,187.3,46.9,187.3L46.9,187.3L46.9,187.3C46.8,187.4,46.9,187.4,46.9,187.3L46.9,187.3L46.9,187.3z M47,187.4
				C47,187.4,47,187.4,47,187.4C46.9,187.4,46.9,187.4,47,187.4z M47.5,187c0,0,0.1,0,0.1,0c0,0,0,0,0,0v0c0,0,0,0,0,0L47.5,187
				L47.5,187C47.5,187,47.5,187,47.5,187z M47.5,187c0,0,0.1,0,0.1,0c0,0,0,0,0,0v0c0,0,0,0,0,0L47.5,187L47.5,187
				C47.5,187,47.5,187,47.5,187z M47.8,187.2L47.8,187.2L47.8,187.2L47.8,187.2c-0.1,0-0.1,0-0.1,0c0,0,0,0,0,0h0c0,0,0,0,0,0
				l-0.1,0h0c0,0,0.1,0,0.1,0c0,0,0,0,0,0c0,0,0,0,0,0L47.8,187.2L47.8,187.2L47.8,187.2z M47.5,187.3c0,0,0.1,0,0.1,0c0,0,0,0,0,0
				c0,0,0,0,0,0h0l0.1,0h0h0h0h0c0,0,0,0,0,0c0,0,0,0,0,0h0C47.6,187.2,47.6,187.3,47.5,187.3L47.5,187.3L47.5,187.3z M47.6,187
				L47.6,187l0.1,0l0,0h0.1l0,0h0h0c0,0,0,0,0.1,0h-0.2c0,0,0,0-0.1,0C47.8,186.9,47.7,186.9,47.6,187L47.6,187L47.6,187
				C47.7,186.9,47.6,186.9,47.6,187C47.6,187,47.6,187,47.6,187L47.6,187z M47.6,187L47.6,187l0.1,0l0,0h0.1l0,0h0h0c0,0,0,0,0.1,0
				h-0.2c0,0,0,0-0.1,0C47.8,186.9,47.7,186.9,47.6,187L47.6,187L47.6,187C47.7,186.9,47.6,186.9,47.6,187
				C47.6,187,47.6,187,47.6,187L47.6,187z M47.8,186.9L47.8,186.9L47.8,186.9L47.8,186.9L47.8,186.9L47.8,186.9L47.8,186.9
				L47.8,186.9L47.8,186.9L47.8,186.9L47.8,186.9L47.8,186.9L47.8,186.9z M47.7,186.9L47.7,186.9L47.7,186.9L47.7,186.9L47.7,186.9
				L47.7,186.9L47.7,186.9L47.7,186.9L47.7,186.9L47.7,186.9L47.7,186.9L47.7,186.9L47.7,186.9z M48,187C48,187,48,187,48,187
				L48,187L48,187c-0.1,0-0.1,0-0.1,0L48,187L48,187z M47.9,187L47.9,187l0.1,0c0,0,0,0,0,0l0,0L47.9,187
				C47.9,187,47.9,187,47.9,187z M47.9,191.5c0,0.1,0,0.1,0,0.1c0,0,0,0.1,0,0.1c0,0,0,0,0-0.1C47.9,191.6,47.9,191.5,47.9,191.5z
				 M47.9,191L47.9,191L47.9,191L47.9,191C47.9,191.1,47.9,191.1,47.9,191L47.9,191L47.9,191L47.9,191L47.9,191
				C48,191,48,191,47.9,191L47.9,191z M47.9,191L47.9,191L47.9,191L47.9,191C47.9,191.1,47.9,191.1,47.9,191L47.9,191L47.9,191
				L47.9,191L47.9,191C48,191,48,191,47.9,191L47.9,191z M48.1,186.9L48.1,186.9L48.1,186.9L48.1,186.9L48.1,186.9
				C48.1,186.9,48.1,186.9,48.1,186.9C48.1,187,48.1,187,48.1,186.9L48.1,186.9L48.1,186.9l0.1,0.1v0L48.1,186.9
				C48.2,186.9,48.2,186.9,48.1,186.9L48.1,186.9L48.1,186.9L48.1,186.9L48.1,186.9L48.1,186.9c0.1,0,0.1,0,0.1,0l0,0v0H48.1z
				 M48.1,186.9L48.1,186.9L48.1,186.9L48.1,186.9L48.1,186.9C48.1,186.9,48.1,186.9,48.1,186.9C48.1,187,48.1,187,48.1,186.9
				L48.1,186.9L48.1,186.9l0.1,0.1v0L48.1,186.9C48.2,186.9,48.2,186.9,48.1,186.9L48.1,186.9L48.1,186.9L48.1,186.9L48.1,186.9
				L48.1,186.9c0.1,0,0.1,0,0.1,0l0,0v0H48.1z M48.1,191.8C48,191.8,48,191.9,48.1,191.8C48.1,191.9,48.1,191.8,48.1,191.8
				C48.1,191.8,48.1,191.8,48.1,191.8z M48.1,191.5c0,0.1,0,0.1,0,0.1s0,0.1,0,0.1c0,0,0-0.1,0-0.1
				C48.1,191.6,48.1,191.5,48.1,191.5z M48.2,187.3C48.1,187.3,48.1,187.3,48.2,187.3C48.1,187.2,48.1,187.2,48.2,187.3
				C48.1,187.2,48.2,187.2,48.2,187.3C48.2,187.2,48.2,187.2,48.2,187.3z M48.2,193C48.1,193,48.1,193,48.2,193c0,0.1,0,0.1,0,0.1
				C48.2,193.1,48.2,193,48.2,193z M48.2,191.2c0,0.1,0,0.1,0,0.1c0,0,0,0.1,0,0.1c0,0,0,0,0,0s0,0,0,0
				C48.2,191.4,48.2,191.4,48.2,191.2C48.2,191.3,48.2,191.3,48.2,191.2z M48.3,190.6L48.3,190.6C48.3,190.5,48.3,190.5,48.3,190.6
				L48.3,190.6L48.3,190.6L48.3,190.6L48.3,190.6L48.3,190.6z M48.3,190.5C48.3,190.5,48.3,190.5,48.3,190.5L48.3,190.5L48.3,190.5
				L48.3,190.5L48.3,190.5L48.3,190.5L48.3,190.5z M48.3,190.6c0,0.1,0,0.1,0,0.2c0,0,0,0.1,0,0.2c0,0,0-0.1,0-0.2
				C48.3,190.7,48.3,190.6,48.3,190.6z M48.3,190.1c0,0,0,0.1,0,0.1c0,0.1,0,0.1,0,0.1c0-0.1,0-0.1,0-0.1
				C48.4,190.2,48.4,190.2,48.3,190.1z M48.4,193.2C48.4,193.1,48.4,193.1,48.4,193.2C48.3,193.2,48.3,193.2,48.4,193.2
				c0,0.1,0,0.1,0,0.1C48.3,193.3,48.4,193.3,48.4,193.2C48.4,193.2,48.4,193.2,48.4,193.2z M48.3,193.6L48.3,193.6
				C48.3,193.5,48.3,193.6,48.3,193.6z M48.3,193L48.3,193L48.3,193z M48.4,193.5L48.4,193.5L48.4,193.5L48.4,193.5z M49,186.9
				C49,186.8,49,186.8,49,186.9L49,186.9C49.1,186.8,49.1,186.8,49,186.9l0.1-0.1l0,0h0c0,0,0,0,0,0c0,0,0,0,0,0v0l0,0v0L49,186.9
				L49,186.9L49,186.9z M49,186.9C49,186.8,49,186.8,49,186.9L49,186.9C49.1,186.8,49.1,186.8,49,186.9l0.1-0.1l0,0h0c0,0,0,0,0,0
				c0,0,0,0,0,0v0l0,0v0L49,186.9L49,186.9L49,186.9z M49.1,186.1L49.1,186.1L49.1,186.1L49.1,186.1L49.1,186.1L49.1,186.1
				L49.1,186.1L49.1,186.1L49.1,186.1z M49.1,186.1L49.1,186.1L49.1,186.1L49.1,186.1L49.1,186.1L49.1,186.1L49.1,186.1L49.1,186.1
				L49.1,186.1z M49.1,187C49.1,187,49.1,187,49.1,187L49.1,187C49.1,187,49.1,187,49.1,187C49.1,187,49.1,187,49.1,187L49.1,187
				L49.1,187L49.1,187L49.1,187C49.1,187,49.1,187,49.1,187L49.1,187L49.1,187z M49.1,187C49.1,187,49.1,187,49.1,187
				C49.1,187,49.1,187,49.1,187L49.1,187L49.1,187L49.1,187L49.1,187C49.1,187.1,49.1,187,49.1,187L49.1,187L49.1,187L49.1,187
				C49.1,187,49.1,187,49.1,187L49.1,187z M49.1,187.6C49.1,187.7,49.1,187.8,49.1,187.6C49.1,187.7,49.1,187.7,49.1,187.6
				C49.1,187.6,49.1,187.6,49.1,187.6z M49.2,187.4c0,0,0,0.1-0.1,0.2C49.1,187.6,49.1,187.5,49.2,187.4L49.2,187.4z M49.1,187.3
				L49.1,187.3L49.1,187.3L49.1,187.3z M49.5,187C49.4,187,49.4,187,49.5,187C49.4,186.9,49.4,186.9,49.5,187z M49.5,187
				C49.5,187.1,49.5,187.1,49.5,187C49.4,187.1,49.4,187.1,49.5,187C49.4,187,49.4,187,49.5,187z M49.5,180.4
				C49.5,180.4,49.5,180.4,49.5,180.4C49.5,180.4,49.5,180.4,49.5,180.4L49.5,180.4L49.5,180.4L49.5,180.4L49.5,180.4z M49.5,180.4
				C49.5,180.4,49.5,180.4,49.5,180.4C49.5,180.4,49.5,180.4,49.5,180.4L49.5,180.4L49.5,180.4L49.5,180.4L49.5,180.4z M49.6,186.9
				c0.1,0,0.1,0,0.1,0c0,0,0.1,0,0.1,0c0,0-0.1,0.1-0.1,0.1c0,0-0.1,0-0.2,0C49.6,187,49.6,187,49.6,186.9
				C49.6,187,49.6,186.9,49.6,186.9z M50.1,186.7C50.1,186.7,50,186.7,50.1,186.7c-0.1,0-0.2,0-0.2,0c0,0,0,0,0.1,0
				C50,186.7,50.1,186.7,50.1,186.7z M50,186.9C50,186.9,50,186.9,50,186.9c-0.1,0-0.2,0-0.2,0C49.9,186.9,49.9,186.9,50,186.9
				C49.9,186.9,50,186.9,50,186.9z"/>
			<path class="st1" d="M54.5,190.2C54.5,190.2,54.5,190.2,54.5,190.2c-0.1,0-0.1,0-0.1,0c0,0,0,0-0.1,0c0,0.1-0.1,0.1-0.1,0.2
				c0,0-0.1,0.1-0.1,0c0,0,0,0-0.1,0.1s-0.1,0-0.1,0.1c0,0,0,0,0,0c0,0-0.1,0-0.2,0.1c-0.1,0-0.2,0.1-0.3,0.1
				c-0.1,0-0.2,0.1-0.3,0.1s-0.1,0.1-0.2,0.1c-0.1,0-0.1,0-0.2,0c-0.1,0-0.2,0.1-0.2,0.1c-0.1,0-0.3,0.1-0.5,0.1c-0.2,0-0.4,0-0.6,0
				c-0.1,0-0.1,0-0.1,0c0,0,0,0,0,0c0,0,0,0,0,0s0,0-0.1,0c0,0,0-0.1,0-0.1c0,0,0,0-0.1,0c0,0,0,0-0.1-0.1s-0.1,0-0.1,0
				c-0.2-0.2-0.4-0.4-0.5-0.7s-0.2-0.5-0.2-0.9c0,0,0-0.1,0-0.1c0,0,0-0.1,0-0.1v-0.7c0,0,0,0,0-0.1c0,0,0,0,0-0.1l0-0.4
				c0,0,0-0.1,0-0.1s0,0,0-0.1l0,0c0,0,0,0,0,0c0,0,0,0,0,0c0,0,0,0,0,0l0.1-0.3c0,0,0,0,0-0.1c0,0,0,0,0-0.1c0,0,0,0,0.1,0
				c0-0.1,0-0.1,0-0.2s0-0.1,0-0.1h0c0,0,0,0,0-0.1s0,0,0,0c0-0.2,0.1-0.3,0.1-0.4c0.1-0.1,0.1-0.3,0.1-0.4c0.1,0,0.1-0.1,0.1-0.1
				c0,0,0,0,0-0.1c0,0,0-0.1,0-0.1v0v0c0.1-0.1,0.2-0.3,0.2-0.4c0.2-0.2,0.3-0.5,0.4-0.7c0,0,0.1,0,0.1-0.1c0,0,0-0.1,0-0.1
				c0.1-0.1,0.1-0.2,0.2-0.3c0.1-0.1,0.1-0.2,0.2-0.3c0-0.1,0.1-0.2,0.1-0.2c0.1-0.1,0.1-0.2,0.2-0.2c0.2-0.3,0.4-0.5,0.6-0.8
				s0.4-0.5,0.8-0.7c0.1-0.1,0.1-0.1,0.2-0.1c0.1,0,0.1,0,0.2-0.1c0.3-0.2,0.5-0.1,0.8,0c0.1,0,0.1,0.1,0.2,0.1
				c0.1,0,0.1,0.1,0.2,0.1c0,0,0.1,0,0.1,0s0,0,0,0.1c0,0,0,0,0,0.1c0,0,0,0,0,0.1c0,0,0,0,0,0.1c0,0,0,0.1,0,0.1
				c0,0.1-0.1,0.1-0.1,0.2l0,0.2l-0.1,0.1c0,0.1-0.1,0.2-0.1,0.3c0,0.1-0.1,0.2-0.1,0.2c-0.1,0.3-0.2,0.5-0.4,0.7
				c-0.2,0.2-0.3,0.4-0.5,0.7c-0.1,0.1-0.2,0.3-0.3,0.4c-0.1,0.2-0.2,0.3-0.3,0.4c0,0-0.1,0-0.1,0.1c0,0-0.1,0.1-0.1,0.1
				c-0.1,0.1-0.3,0.3-0.3,0.4c-0.1,0.1-0.2,0.3-0.3,0.4c0,0.1-0.1,0.1-0.1,0.2s-0.1,0.1-0.1,0.2c0,0,0,0-0.1,0c0,0,0,0,0,0.1
				c-0.1,0-0.1,0.1-0.2,0.2c0,0.1-0.1,0.1-0.1,0.2c0,0,0,0.1-0.1,0.1c0,0-0.1,0.1-0.1,0.1c-0.1,0.1-0.2,0.2-0.3,0.3
				c-0.1,0.1-0.2,0.2-0.4,0.4c0,0,0,0-0.1,0v0.1c-0.1,0.2-0.1,0.5-0.1,0.8c0,0.3,0,0.6,0.1,0.9c0,0.2,0.1,0.3,0.1,0.3c0,0,0,0,0.1,0
				s0,0,0,0c0,0,0,0.1,0,0.2c0,0,0,0,0,0h0c0,0,0,0,0,0c0.2,0,0.4,0,0.4,0c0.1,0,0.2,0,0.3-0.1c0.2-0.1,0.3-0.1,0.5-0.2
				c0.2-0.1,0.3-0.1,0.5-0.2c0,0,0,0,0,0h0v0c0,0,0,0,0,0c0,0,0,0,0,0c0,0,0,0,0,0h0l0,0c0.2-0.1,0.4-0.2,0.5-0.4
				c0.2-0.1,0.3-0.3,0.5-0.4c0,0,0-0.1,0-0.1c0,0,0,0,0-0.1c0,0,0,0,0,0c0,0,0,0,0,0c0.1-0.1,0.2-0.1,0.3-0.1s0.1-0.1,0.1-0.2
				c0,0,0,0,0,0c0,0,0,0,0,0c0-0.1,0.1-0.1,0.1-0.1c0,0,0,0,0.1,0c0,0,0,0,0.1,0c0,0,0.1-0.1,0.1-0.1c0,0,0-0.1,0-0.1c0,0,0,0,0,0
				c0,0,0,0,0,0s0,0,0,0c0.1-0.1,0.2-0.2,0.3-0.3c0.1-0.1,0.1-0.1,0.1-0.1c0.1-0.1,0.1-0.1,0.1-0.1c0,0,0,0,0,0c0,0,0,0,0,0
				c0,0,0,0,0.1-0.1c0.1,0,0.1,0,0.1,0c0,0.1,0,0.1,0.1,0.1c0,0-0.1,0,0,0.1s0,0,0,0.1c0,0,0,0.1,0,0.1c0,0.1,0,0.2,0,0.2
				c0,0,0,0.1,0,0.1c0,0,0,0,0,0s0,0,0,0.1c0,0,0,0,0,0v0c0,0,0,0,0,0c0,0,0,0,0,0c0,0,0,0,0,0.1c0,0,0,0,0,0c0,0-0.1,0.1-0.1,0.1
				c0,0,0,0,0,0c0,0,0,0,0,0c0,0,0,0,0,0.1v0v0c0,0-0.1,0-0.1,0c0,0,0,0.1,0,0.1c0,0,0,0,0,0c0,0,0,0,0,0c0,0,0,0-0.1,0s0,0-0.1,0
				c0,0,0,0.1,0,0.1s0,0.1-0.1,0.1c0,0,0,0,0,0c0,0,0-0.1,0-0.1c-0.1,0-0.1,0.1-0.1,0.1l0,0c0,0,0,0,0,0c0,0,0,0,0,0.1
				c0,0,0,0.1-0.1,0.1c0,0.1-0.1,0.1-0.2,0.1l0,0v0c-0.1,0-0.1,0-0.1,0.1c0,0,0,0,0,0c0,0,0,0-0.1,0c0,0,0,0,0,0s0,0,0,0
				c0,0,0,0,0,0c0,0,0,0,0,0c-0.1,0.1-0.1,0.1-0.2,0.2C54.6,189.9,54.5,190,54.5,190.2C54.5,190.1,54.5,190.1,54.5,190.2
				C54.5,190.1,54.5,190.1,54.5,190.2z M50.8,187.6C50.8,187.6,50.8,187.6,50.8,187.6C50.7,187.6,50.7,187.6,50.8,187.6
				C50.7,187.6,50.7,187.6,50.8,187.6z M51.7,186.9c0.2-0.3,0.4-0.6,0.6-0.8s0.4-0.5,0.6-0.8c0,0,0,0,0,0c0.1-0.1,0.1-0.1,0.2-0.2
				c0-0.1,0.1-0.2,0.1-0.2c0.2-0.2,0.3-0.5,0.5-0.7c0.2-0.2,0.3-0.5,0.4-0.7c0.1-0.1,0.1-0.3,0.2-0.4c0.1-0.1,0.1-0.3,0.1-0.4
				c0.1-0.1,0.2-0.2,0.1-0.4c-0.1,0-0.2,0.1-0.3,0.2c-0.1,0.1-0.1,0.2-0.2,0.2c0,0.1-0.1,0.2-0.2,0.3c-0.1,0.1-0.1,0.2-0.2,0.2
				c-0.3,0.2-0.5,0.5-0.7,0.8c-0.2,0.3-0.3,0.6-0.5,0.9c0,0-0.1,0-0.1,0c0,0.1-0.1,0.2-0.1,0.2c-0.1,0.1-0.1,0.1-0.1,0.2
				c-0.1,0.1-0.1,0.2-0.1,0.2c0,0.1-0.1,0.2-0.1,0.2c0,0.1,0,0.1-0.1,0.2S52,186,52,186v0.1c0,0,0,0.1-0.1,0.1c0,0,0,0.1,0,0.2
				c-0.1,0.1-0.1,0.1-0.1,0.2C51.7,186.7,51.7,186.8,51.7,186.9L51.7,186.9z M54.1,190C54.1,190,54.1,190,54.1,190
				C54.1,190.1,54.2,190.1,54.1,190C54.2,190,54.2,190,54.1,190c0.1,0,0.1,0,0.2-0.1c0,0,0.1-0.1,0.1-0.1c0,0,0,0,0,0
				c0,0,0,0,0.1-0.1c0,0,0-0.1,0-0.1c-0.1,0-0.1,0.1-0.2,0.1C54.3,189.8,54.2,189.9,54.1,190L54.1,190L54.1,190
				C54.1,190,54.1,190,54.1,190C54.1,190,54.1,190,54.1,190C54,190.1,54,190.1,54.1,190C54.1,190.1,54.1,190.1,54.1,190
				C54.1,190.1,54.1,190,54.1,190z M54.2,190L54.2,190L54.2,190L54.2,190z M54.6,189.6C54.6,189.6,54.5,189.7,54.6,189.6
				C54.6,189.7,54.6,189.7,54.6,189.6C54.6,189.7,54.6,189.7,54.6,189.6z M54.7,189.7C54.7,189.7,54.7,189.6,54.7,189.7L54.7,189.7
				C54.7,189.7,54.8,189.7,54.7,189.7c0.1,0,0.1,0,0.1-0.1C54.8,189.6,54.8,189.6,54.7,189.7C54.7,189.6,54.7,189.6,54.7,189.7
				C54.7,189.7,54.7,189.7,54.7,189.7z M54.8,189.6C54.8,189.6,54.8,189.6,54.8,189.6C54.8,189.6,54.8,189.6,54.8,189.6
				C54.8,189.6,54.8,189.6,54.8,189.6C54.8,189.6,54.8,189.6,54.8,189.6z M54.9,189.5C54.9,189.5,54.9,189.5,54.9,189.5
				C54.9,189.6,54.9,189.6,54.9,189.5C54.9,189.6,54.9,189.6,54.9,189.5C54.9,189.5,54.9,189.5,54.9,189.5z M55.3,189.3
				C55.2,189.3,55.2,189.3,55.3,189.3c-0.1,0.1-0.1,0.1-0.2,0.1c0,0,0,0,0,0c0,0,0,0,0,0c0,0,0,0-0.1,0c0,0,0,0,0,0.1
				c0.1,0,0.1,0,0.2-0.1C55.2,189.4,55.2,189.4,55.3,189.3z M55.4,189.3C55.4,189.3,55.4,189.3,55.4,189.3
				C55.4,189.3,55.4,189.3,55.4,189.3C55.4,189.3,55.4,189.3,55.4,189.3z M55.5,188.5C55.5,188.5,55.5,188.5,55.5,188.5L55.5,188.5z
				 M55.7,188.9c0,0-0.1,0-0.1,0c0,0,0,0.1,0,0.1C55.5,189,55.6,189,55.7,188.9C55.6,188.9,55.6,188.9,55.7,188.9z M56,188.6
				c-0.1,0-0.1,0.1-0.1,0.1c0,0,0.1,0,0.1,0C56,188.7,56,188.7,56,188.6z M56.1,188.8L56.1,188.8L56.1,188.8L56.1,188.8L56.1,188.8z
				 M56.1,188.9C56.1,188.9,56.1,188.9,56.1,188.9C56.1,188.9,56.1,188.9,56.1,188.9L56.1,188.9z"/>
			<path class="st1" d="M55.5,189.3C55.5,189.2,55.5,189.2,55.5,189.3c0-0.1,0-0.1,0-0.1c0-0.1,0-0.1,0-0.2s0-0.1,0.1-0.1
				c0,0,0-0.1,0-0.1s0,0,0,0c0,0,0-0.1,0.1-0.1c0,0,0-0.1,0.1-0.1c0.1-0.2,0.2-0.4,0.3-0.7c0.1-0.2,0.3-0.5,0.4-0.7
				c0.1-0.1,0.1-0.1,0.1-0.2s0.1-0.1,0.1-0.2h0c0-0.1,0.1-0.2,0.2-0.1s0.2,0.1,0.4,0.1c0.1,0,0.1,0.1,0.1,0.1c0,0,0,0.1,0,0.1
				c0,0,0,0,0,0.1c0,0,0,0.1,0,0.1c-0.1,0.1-0.1,0.2-0.2,0.4c0,0.1-0.1,0.3-0.2,0.4c0,0,0,0,0,0c0,0,0,0,0,0c0,0,0,0.1-0.1,0.2
				s-0.1,0.2-0.1,0.3c-0.1,0.2-0.2,0.3-0.2,0.5c-0.1,0.2-0.1,0.3-0.2,0.5c0,0.2-0.1,0.3-0.1,0.4c0,0.1,0,0.3,0.1,0.4
				c0.3-0.1,0.5-0.1,0.7-0.2c0.2-0.1,0.4-0.2,0.6-0.3l0.4-0.3l0.1-0.1l0.5-0.4l0.4-0.3c0,0,0.1-0.1,0.2-0.1c0.1,0,0.1-0.1,0.2-0.1
				c0.1-0.1,0.2-0.2,0.3-0.2s0.2-0.1,0.3-0.2c0,0,0-0.1,0.1-0.1s0.1,0,0.1-0.1l0.1-0.1c0-0.1,0.1-0.1,0.2-0.1c0.1,0,0.1-0.1,0.2-0.1
				c0,0,0.1,0,0.1,0c0.1,0,0.1,0,0.1,0.1c0,0,0,0.1,0,0.1c0,0,0,0-0.1,0.1c0,0,0,0.1,0,0.1c0,0,0.1,0,0.1-0.1s0-0.1,0.1-0.1
				c0,0,0,0,0,0.1c0,0,0,0.1,0,0.1c0.1,0,0.1,0.1,0,0.1c0,0,0,0.1,0,0.1c0,0,0,0,0,0c0,0,0,0,0,0.1c0,0,0,0,0,0s0,0,0,0
				c0,0,0,0,0,0.1c0,0,0,0,0,0.1c0,0,0,0,0,0c0,0,0,0,0,0c-0.1,0-0.1,0-0.1,0c-0.1,0-0.1,0.1-0.1,0.1s0,0.1-0.1,0.1c0,0,0,0,0,0
				c0,0,0,0,0,0c0,0,0,0,0,0.1s-0.1,0.1-0.1,0.1c0,0-0.1,0.1-0.1,0.1s0,0,0,0c0,0-0.1,0-0.1,0.1c-0.1,0.1-0.1,0.1-0.1,0.1l-0.2,0.2
				c0,0-0.1,0.1-0.2,0.1c-0.1,0.1-0.1,0.1-0.2,0.1l0,0c0,0,0,0,0,0c0,0,0,0,0,0c0,0,0,0,0,0c0,0,0,0,0,0.1h0c0,0,0,0-0.1,0.1
				c0,0.1-0.1,0.1-0.2,0.2v-0.1c0,0,0,0,0,0s0,0,0,0h0c0,0,0,0.1,0,0.1c0,0,0,0-0.1,0c0,0,0,0,0,0c0,0,0,0,0,0c0,0,0,0-0.1,0.1
				c0,0-0.1,0.1-0.1,0.1c0,0,0,0-0.1,0s0,0-0.1,0l-0.1,0c0,0-0.1,0-0.1,0.1c0,0-0.1,0-0.1,0c0,0,0,0,0,0.1c0,0,0,0,0,0s0,0,0,0
				c0,0,0,0-0.1,0.1s-0.1,0-0.1,0.1c0,0.1-0.1,0.1-0.2,0.2c-0.1,0-0.2,0.1-0.3,0.1c-0.1,0.1-0.3,0.1-0.4,0.2c-0.1,0-0.3,0-0.4,0.1
				s-0.3,0-0.5,0c-0.1,0-0.2,0-0.3,0c-0.1,0-0.2,0-0.2-0.1c-0.1-0.1-0.1-0.1-0.2-0.2c0-0.1-0.1-0.1-0.1-0.2c0,0,0,0,0,0s0,0,0-0.1
				c0,0,0,0,0,0c0,0,0,0,0,0c0,0,0,0,0,0c0-0.1,0-0.1,0-0.1c0,0,0-0.1,0-0.1c0,0,0,0.1,0,0.1c0,0,0-0.1,0-0.1c0,0,0-0.1,0.1-0.1
				c0-0.1,0-0.1,0.1-0.2c0,0,0,0,0,0c0-0.1,0-0.1,0.1-0.1C55.4,189.4,55.4,189.3,55.5,189.3C55.4,189.3,55.4,189.3,55.5,189.3
				C55.4,189.3,55.4,189.4,55.5,189.3c-0.1,0,0,0,0-0.1c0,0,0,0,0,0C55.5,189.1,55.5,189.2,55.5,189.3
				C55.4,189.2,55.4,189.2,55.5,189.3z M58.2,185.5C58.2,185.5,58.2,185.5,58.2,185.5C58.2,185.5,58.2,185.5,58.2,185.5
				c-0.1,0.1-0.1,0.2-0.2,0.2c0,0.1-0.1,0.1-0.2,0.1c-0.1,0-0.1,0.1-0.1,0.1c-0.1,0-0.1,0-0.1,0c0,0,0,0,0,0c-0.1,0-0.1,0-0.1,0
				c-0.1,0-0.2-0.1-0.2-0.1s-0.1-0.1-0.2-0.1c0-0.1,0-0.2,0-0.3c0-0.1,0.1-0.1,0.2-0.1c0,0,0,0,0,0s0,0,0,0c0.1,0,0.2,0,0.3,0.1
				C57.9,185.4,58,185.4,58.2,185.5C58.1,185.5,58.1,185.5,58.2,185.5z M58.7,189.7C58.7,189.7,58.7,189.7,58.7,189.7
				C58.7,189.7,58.7,189.7,58.7,189.7L58.7,189.7z M60.4,188.2C60.4,188.2,60.3,188.2,60.4,188.2c-0.1,0.1-0.1,0.1-0.1,0.2
				C60.3,188.3,60.3,188.3,60.4,188.2C60.4,188.2,60.4,188.2,60.4,188.2z M60.6,188.1C60.6,188.1,60.6,188.1,60.6,188.1L60.6,188.1z
				"/>
			<path class="st1" d="M67.3,189.2C67.3,189.1,67.3,189.1,67.3,189.2c-0.1,0-0.1,0.1-0.2,0.1c0,0.1-0.1,0.1-0.2,0.2
				c-0.1,0.1-0.1,0.1-0.1,0.1c0,0,0-0.1,0-0.1s0.1-0.1,0.1-0.1c-0.1,0-0.1,0-0.1,0.1s0,0.1-0.1,0.1c0,0.1-0.1,0.1-0.1,0.1
				c-0.1,0-0.1,0.1-0.2,0.1c0,0,0,0,0,0s0,0,0,0c0,0,0,0,0,0s0,0,0,0v0c0,0,0,0-0.1,0c0,0,0,0,0.1,0c0,0,0-0.1,0-0.1
				c0,0-0.1,0-0.1,0s0,0.1,0,0.1c0,0,0,0.1-0.1,0.1c0,0-0.1,0.1-0.1,0c0.1-0.1,0.2-0.2,0.2-0.3c-0.1,0-0.2,0.1-0.3,0.2c0,0,0,0,0,0
				c0,0,0,0.1,0,0.1c0,0-0.1,0-0.1,0h0c0,0,0,0,0,0c0,0-0.1,0-0.1,0c0,0,0,0-0.1,0.1c0,0,0,0,0,0c0,0,0,0,0,0c0,0,0,0-0.1,0.1
				s-0.1,0-0.1,0c0,0,0,0,0,0c0,0,0,0,0-0.1c-0.1,0-0.1,0.1-0.1,0.1s0,0.1-0.1,0.1c0,0,0-0.1,0-0.1c0,0,0,0,0,0c0,0,0,0-0.1,0
				c0,0,0,0,0,0c0,0,0,0,0,0c-0.1,0.1-0.2,0.1-0.3,0.1c-0.1,0-0.3,0-0.4-0.1c-0.2,0-0.3,0-0.5-0.1s-0.3-0.1-0.4-0.2c0,0,0,0,0,0
				c0,0,0,0,0,0s0,0,0,0c0,0,0,0,0,0c0,0,0,0,0,0c-0.1,0-0.1-0.1-0.1-0.2c0-0.1-0.1-0.1-0.1-0.2c0,0,0-0.1,0-0.1c0,0,0,0-0.1,0
				c-0.1-0.3-0.1-0.6-0.1-0.9s0-0.6,0.1-1c-0.1,0-0.2,0.1-0.2,0.2c-0.1,0.1-0.1,0.1-0.2,0.2c-0.4,0.4-0.8,0.8-1.2,1.2
				c-0.4,0.4-0.8,0.8-1.1,1.3c-0.1,0-0.1,0-0.1,0.1c0,0-0.1,0.1-0.1,0.1c-0.1,0-0.1,0-0.2,0s-0.2,0-0.3,0c0,0,0,0,0,0s0,0,0,0
				c-0.1,0-0.2-0.1-0.3-0.1c-0.1,0-0.1-0.1-0.1-0.3c0-0.1,0-0.1,0-0.2s0-0.1,0-0.2c0,0,0-0.1,0-0.1c0,0,0,0,0,0
				c0.1-0.6,0.3-1.1,0.5-1.6c0.2-0.5,0.4-1,0.6-1.5c0.1,0,0.1,0,0.2,0c0.1,0,0.2,0.1,0.2,0.1s0.1,0,0.3,0.1c0,0,0,0,0.1,0.1
				c0,0,0.1,0,0.1,0.1c0,0.2-0.1,0.4-0.1,0.6c-0.1,0.2-0.2,0.4-0.3,0.6c-0.1,0.1-0.1,0.3-0.2,0.5c-0.1,0.2-0.1,0.4-0.2,0.5
				c0,0.1,0,0.1,0,0.1s0,0,0,0.1c0.1-0.2,0.3-0.3,0.4-0.5c0.1-0.2,0.3-0.4,0.4-0.5c0.2-0.1,0.3-0.2,0.4-0.3c0.1-0.1,0.3-0.3,0.4-0.4
				c0.2-0.1,0.3-0.2,0.5-0.3c0.2-0.1,0.3-0.2,0.4-0.3c0.1,0,0.1,0,0.2-0.1s0.1-0.1,0.2-0.1c0.1,0,0.2,0,0.2,0.1
				c0.1,0,0.2,0.1,0.3,0.1v0c0.1,0,0.1,0,0.1,0.1c0,0.1,0,0.1,0.1,0.2c0,0.1,0,0.2,0,0.4c0,0.2,0,0.3-0.1,0.4c0,0,0,0,0,0.1
				c0,0.1,0,0.1,0,0.2c-0.1,0.5-0.1,0.8,0,1.1c0.1,0.3,0.1,0.4,0.2,0.5c0.1,0,0.3,0,0.4,0c0.1,0,0.2,0,0.3,0c0.1,0,0.2,0,0.3-0.1
				c0.1,0,0.2-0.1,0.3-0.2c0,0,0,0,0.1-0.1c0,0,0,0,0.1,0c0.1,0,0.2-0.1,0.3-0.1c0.1-0.1,0.1-0.1,0.2,0c0,0,0,0,0-0.1c0,0,0,0,0-0.1
				c0,0,0,0,0,0c0,0,0,0,0,0c0,0,0,0,0-0.1c0,0,0.1,0,0.1,0c0,0,0.1,0,0.1-0.1c0,0,0.1,0,0.1-0.1c0,0,0-0.1,0.1-0.1c0,0,0,0,0,0
				c0,0,0,0,0,0.1c0.1,0,0.1-0.1,0.1-0.1s0-0.1,0.1-0.1c0.1,0,0.1-0.1,0.2-0.1c0.1,0,0.1-0.1,0.2-0.1c0.1,0,0.1-0.1,0.1-0.1
				c0,0,0.1-0.1,0.1-0.1c0,0,0-0.1,0.1-0.1c0,0,0.1-0.1,0.1,0c0,0,0.1,0,0.1,0c0,0,0,0,0,0c0,0,0-0.1,0-0.1c0,0,0.1,0,0.2-0.1
				c0.1,0,0.2-0.1,0.2-0.1c0,0,0,0,0-0.1c0,0,0,0,0,0s0,0,0,0c0,0,0,0,0,0s0,0,0,0c0,0,0,0,0,0s0,0,0-0.1c0,0,0,0,0,0s0,0,0,0
				c0,0,0,0,0,0c0,0,0,0,0,0c0,0,0.1,0,0.1,0.1c0,0.1,0,0.2-0.1,0.3c0,0,0,0,0,0s0,0,0,0c0,0,0,0.1-0.1,0.2
				c-0.1,0.1-0.1,0.1-0.1,0.1L67.3,189.2z M65.6,190.1C65.6,190.1,65.6,190.2,65.6,190.1C65.6,190.2,65.6,190.2,65.6,190.1
				L65.6,190.1z M65.8,190L65.8,190L65.8,190C65.8,190,65.8,190,65.8,190C65.8,190,65.8,190,65.8,190z M65.8,190.1
				C65.8,190.1,65.8,190.1,65.8,190.1L65.8,190.1z M66.3,189.8L66.3,189.8C66.3,189.9,66.3,189.9,66.3,189.8z M67.1,188.9
				C67.1,189,67.1,188.9,67.1,188.9l0.1-0.1C67.1,188.9,67.1,188.9,67.1,188.9z M67.7,188.6C67.7,188.6,67.7,188.6,67.7,188.6
				C67.7,188.6,67.7,188.6,67.7,188.6C67.7,188.6,67.8,188.6,67.7,188.6z"/>
			<path class="st1" d="M73.6,188.5c0,0,0,0.1-0.1,0.2s-0.2,0.2-0.3,0.3c0,0-0.1,0-0.1,0.1c-0.1,0.1-0.1,0.1-0.1,0.1l-0.1,0.1
				l-0.3,0.2l-0.1,0.1l-0.2,0.1c-0.2,0.1-0.4,0.2-0.5,0.3c-0.2,0.1-0.4,0.2-0.6,0.3c0,0,0,0-0.1,0s-0.1,0-0.1,0c0,0-0.1,0-0.1,0
				c0,0-0.1,0-0.1,0c0,0-0.1,0-0.1,0c0,0,0,0,0,0c-0.1,0-0.1,0-0.1,0c0,0-0.1,0-0.1,0.1c0,0-0.1,0-0.1,0s-0.1,0-0.1,0
				c0,0-0.1,0-0.1,0s-0.1,0-0.1,0c0,0,0,0,0,0c0,0,0,0,0,0c0,0-0.1,0-0.1,0c0,0-0.1,0-0.2,0c0,0-0.1,0-0.1,0c0,0-0.1,0-0.1,0l0,0
				c-0.2,0-0.3,0-0.4,0c0,0-0.1,0-0.1,0c0,0,0,0-0.1,0c-0.1,0-0.2,0-0.3-0.1s-0.2-0.1-0.3-0.1c-0.1-0.1-0.2-0.1-0.3-0.2
				s-0.2-0.2-0.3-0.3c0-0.1-0.1-0.2-0.1-0.2c0-0.1,0-0.1-0.1-0.2c0-0.1,0-0.2,0-0.2s0-0.2,0-0.2c0-0.1,0.1-0.3,0.1-0.5
				c0-0.2,0.1-0.4,0.3-0.5l0.4-0.4l0.2-0.3c0.1-0.1,0.2-0.1,0.2-0.2s0.1-0.1,0.2-0.2c0.1-0.1,0.1-0.1,0.2-0.1c0.1,0,0.1-0.1,0.2-0.1
				c0.1-0.1,0.2-0.1,0.2-0.2c0.1-0.1,0.2-0.1,0.2-0.2c0.1,0,0.2-0.1,0.2-0.1c0,0,0.1,0,0.1,0c0.1,0,0.1,0,0.1,0c0,0,0,0,0.1,0
				c0,0,0,0,0.1,0c0.1,0.1,0.1,0.2,0.2,0.2s0.2,0.1,0.2,0.2c0.1,0,0.1,0.1,0.1,0.1s0,0.1,0.1,0.1c0,0.1,0,0.2,0,0.2
				c0,0.1,0,0.1-0.1,0.2c0,0,0,0,0,0.1s0,0,0,0.1c0,0.1-0.1,0.1-0.1,0.1c0,0-0.1,0.1-0.1,0.1c0,0,0,0.1-0.1,0.1s0,0.1-0.1,0.1
				c0,0-0.1,0.1-0.2,0.2c-0.1,0.1-0.1,0.1-0.2,0.2c-0.1,0.1-0.1,0.1-0.2,0.2s-0.2,0.1-0.2,0.1c0,0,0,0.1,0,0.1
				c-0.1,0.1-0.2,0.2-0.3,0.2s-0.2,0.2-0.3,0.2c-0.2,0-0.3,0.1-0.5,0.2c-0.1,0.1-0.3,0.1-0.5,0.1c0,0,0,0,0,0c0,0,0,0,0.1,0
				c0,0.1,0,0.1,0,0.1c0,0,0,0.1,0.1,0.1c0.1,0.1,0.2,0.2,0.3,0.2c0.1,0.1,0.3,0.1,0.4,0.1c0.4,0.1,0.8,0.1,1.2,0
				c0.1,0,0.2,0,0.3-0.1c0.1,0,0.2-0.1,0.4-0.1c0.2-0.1,0.3-0.1,0.5-0.2l0.2-0.1c0,0,0.1,0,0.1,0c0,0,0,0,0,0c0,0,0,0,0,0
				c0,0,0,0,0,0l0.4-0.2c0.1-0.1,0.2-0.2,0.3-0.2c0.1,0,0.2-0.1,0.3-0.3c0,0,0,0,0.1-0.1c0.1,0,0.1-0.1,0.2-0.1
				c0.1,0,0.1-0.1,0.2-0.1c0.1,0,0.1-0.1,0.1-0.1l0.2-0.2c0.1-0.1,0.2-0.2,0.3-0.2s0.2-0.1,0.2-0.1c0,0,0.1,0.1,0.1,0.1
				c0,0.1,0,0.1,0.1,0.1c-0.1,0.1-0.1,0.2-0.1,0.2s0,0.1-0.1,0.1s0,0-0.1,0.1C73.7,188.4,73.7,188.5,73.6,188.5z M70.1,186.7
				c0,0-0.1,0-0.1,0.1c0,0-0.1,0.1-0.1,0.1c0,0-0.1,0-0.1,0c0,0,0,0-0.1,0c0,0,0,0-0.1,0l-0.1,0.1c-0.1,0.1-0.1,0.1-0.2,0.1
				s-0.1,0.1-0.2,0.1c-0.1,0.1-0.1,0.2-0.2,0.2c-0.1,0-0.1,0.1-0.2,0.2c-0.1,0.1-0.2,0.2-0.3,0.3c-0.1,0.1-0.2,0.2-0.3,0.4
				c-0.1,0.1-0.2,0.2-0.2,0.4c0.2-0.1,0.4-0.2,0.6-0.3c0.2-0.1,0.4-0.3,0.6-0.4c0.1-0.1,0.1-0.1,0.2-0.2c0.1-0.1,0.1-0.1,0.2-0.2
				c0.1-0.1,0.2-0.1,0.3-0.3c0.1-0.1,0.2-0.2,0.3-0.4c0-0.1,0-0.1,0.1-0.1c0,0,0-0.1,0-0.1C70.3,186.6,70.3,186.6,70.1,186.7
				C70.2,186.6,70.2,186.7,70.1,186.7z"/>
			<path class="st1" d="M81.7,182.3C81.7,182.3,81.7,182.3,81.7,182.3C81.7,182.3,81.7,182.3,81.7,182.3l0.1,0.1c0,0,0,0,0,0
				C81.7,182.4,81.7,182.4,81.7,182.3c0,0.1,0,0.1,0,0.2c0,0,0,0-0.1,0v0c0,0,0,0,0,0c0,0,0,0,0,0c0,0.1-0.1,0.1-0.1,0.1
				c-0.1,0-0.1,0.1-0.2,0.1c-0.1,0-0.1,0,0,0c0,0,0.1,0,0,0c0,0,0,0-0.1,0c0,0,0,0,0,0c-0.1,0-0.1-0.1-0.1-0.1
				c0-0.1-0.1-0.1-0.2-0.2c0-0.1,0-0.2-0.1-0.2s0-0.2-0.1-0.3c0-0.1,0-0.2,0-0.3c0-0.1,0-0.2,0.1-0.3c0,0,0,0,0,0c0,0,0,0,0,0
				c0,0,0,0,0,0c0,0,0,0,0,0c0,0,0,0,0.1,0c0,0,0-0.1,0-0.1c0.3-0.2,0.6-0.4,0.9-0.5s0.6-0.3,1-0.5c0.1,0,0.2-0.1,0.2-0.1
				c0.1,0,0.2-0.1,0.3-0.1c0.1,0,0.1,0,0.2-0.1s0.1,0,0.2-0.1c0.2-0.1,0.3-0.1,0.5-0.1c0.2,0,0.3-0.1,0.5-0.1c0.2,0,0.4,0,0.6-0.1
				s0.4,0,0.6-0.1c0.4,0,0.8,0.1,1.2,0.2s0.6,0.3,0.8,0.5c0,0.1,0.1,0.1,0.1,0.2c0,0.1,0.1,0.1,0.1,0.2c0,0.1,0,0.1,0.1,0.1
				c0,0,0,0.1,0.1,0.2c0.1,0.2,0.2,0.4,0.2,0.6c0,0.4,0,0.8-0.2,1.1c-0.1,0.3-0.3,0.6-0.6,0.8c-0.1,0.2-0.3,0.4-0.5,0.6
				c-0.2,0.2-0.4,0.3-0.5,0.5c-0.1,0.1-0.3,0.2-0.4,0.3s-0.2,0.2-0.4,0.2c-0.2,0.2-0.4,0.3-0.7,0.5c-0.2,0.1-0.4,0.3-0.7,0.4
				c0.1,0,0.1,0.1,0.2,0.1c0.1,0,0.2,0,0.2,0.1c0.4,0.1,0.8,0.2,1.2,0.4c0,0,0,0,0,0s0,0,0,0h0c0.2,0.1,0.4,0.2,0.5,0.4
				s0.3,0.2,0.4,0.4c0,0.1,0.1,0.2,0.1,0.3s0.1,0.2,0.1,0.3c0,0,0,0,0,0c0,0,0,0,0,0c0,0,0,0.1,0.1,0.1c0,0,0,0.1,0,0.1
				c0.1,0.1,0.1,0.1,0.1,0.2c0,0.1,0.1,0.2,0.1,0.2c0.1,0.2,0.1,0.4,0.1,0.7c0,0.2-0.1,0.5-0.2,0.7c0,0.1-0.1,0.2-0.1,0.2
				s-0.1,0.2-0.2,0.2c0,0.1-0.1,0.1-0.2,0.2c0,0-0.1,0.1-0.1,0.1c0,0-0.1,0.1-0.1,0.1c-0.1,0.1-0.1,0.1-0.2,0.2
				c-0.1,0.1-0.1,0.1-0.2,0.2c-0.1,0.1-0.2,0.2-0.3,0.2c-0.1,0.1-0.2,0.2-0.3,0.2h-0.1l-0.3,0.2c-0.1,0-0.2,0.1-0.3,0.2
				c-0.1,0.1-0.2,0.1-0.3,0.2c-0.1,0-0.1,0-0.2,0.1c-0.1,0-0.1,0.1-0.2,0.1c-0.1,0-0.1,0.1-0.2,0.1c-0.1,0-0.1,0.1-0.2,0.1
				c-0.1,0.1-0.2,0.1-0.4,0.2s-0.2,0.1-0.4,0.1l-0.4,0.2l-0.7,0.2c-0.2,0.1-0.4,0.1-0.6,0.2s-0.4,0.1-0.7,0.1c0,0,0,0,0.1,0
				c0,0,0.1,0,0.1,0c0.5-0.1,1-0.3,1.5-0.5c0.5-0.2,0.9-0.4,1.4-0.6c0,0,0,0,0.1,0c0,0,0,0,0-0.1c0.1,0,0.3-0.1,0.4-0.2
				c0.1-0.1,0.2-0.1,0.3-0.2c0.1-0.1,0.2-0.1,0.3-0.2c0.1-0.1,0.2-0.1,0.3-0.1c0-0.1,0.1-0.1,0.1-0.1c0,0,0-0.1,0-0.1c0,0,0,0,0,0
				c-0.1,0-0.1,0-0.1,0.1c0,0-0.1,0.1-0.1,0.1c0,0,0,0-0.1,0c0,0,0,0,0,0c-0.1,0-0.1,0-0.1,0.1s0,0.1-0.1,0.1l-0.2,0.1
				c-0.1,0-0.1,0.1-0.2,0.1c-0.1,0-0.1,0.1-0.2,0.2c-0.3,0.1-0.6,0.3-0.9,0.4c-0.1,0.1-0.2,0.2-0.3,0.2s-0.3,0.1-0.4,0.1
				c-0.1,0.1-0.1,0.1-0.2,0.1c-0.1,0-0.2,0.1-0.2,0.1v0c-0.2,0.1-0.3,0.1-0.5,0.2c-0.2,0.1-0.3,0.1-0.5,0.2c0.1-0.1,0.1-0.1,0.2-0.1
				s0.1,0,0.2-0.1c-0.2,0.1-0.4,0.2-0.6,0.2c-0.2,0.1-0.4,0.1-0.7,0.2c0.4-0.1,0.8-0.2,1.1-0.4c0.4-0.1,0.7-0.3,1.1-0.4c0,0,0,0,0,0
				c0.1,0,0.2-0.1,0.3-0.1c0.1,0,0.2-0.1,0.3-0.1c0,0,0,0,0,0c0,0,0,0,0,0c0.3-0.1,0.5-0.2,0.8-0.4c0.2-0.1,0.5-0.3,0.7-0.5
				c-0.1,0-0.2,0.1-0.3,0.1s-0.2,0.1-0.2,0.1c-0.1,0-0.1,0.1-0.1,0.1c0,0-0.1,0.1-0.1,0.1l-0.3,0.1c-0.3,0.2-0.7,0.3-1.1,0.4
				l0.4-0.2c0,0,0,0,0,0s0,0,0,0c0.1-0.1,0.2-0.1,0.3-0.2c0.1,0,0.2-0.1,0.3-0.2c0.1-0.1,0.2-0.1,0.4-0.2c0.1-0.1,0.2-0.1,0.3-0.2
				c0.2-0.2,0.4-0.3,0.6-0.4c0.2-0.1,0.4-0.2,0.6-0.4c0,0,0,0,0,0c0,0,0,0,0,0c0.1,0,0.2-0.1,0.2-0.1c0,0,0.1-0.1,0.1-0.2
				c-0.1,0-0.1,0.1-0.2,0.1s-0.1,0.1-0.2,0.1c0,0.1-0.1,0.1-0.1,0.1c-0.1,0-0.1,0.1-0.2,0.1c0,0,0,0,0,0c0,0,0,0-0.1,0
				c-0.1,0.1-0.2,0.2-0.3,0.2s-0.2,0.1-0.4,0.2c-0.1,0.1-0.2,0.1-0.3,0.2c-0.1,0.1-0.2,0.1-0.4,0.1c0,0,0.1,0,0.1,0
				c0,0,0.1,0,0.1-0.1c-0.1,0-0.2,0.1-0.2,0.1s-0.1,0.1-0.2,0.1c0.2-0.1,0.5-0.2,0.7-0.3c0.2-0.1,0.4-0.3,0.6-0.4
				c0.2-0.1,0.3-0.1,0.4-0.3c0.1-0.1,0.3-0.2,0.4-0.3c0-0.1,0.1-0.1,0.1-0.1c0,0,0.1-0.1,0.1-0.1c0,0-0.1,0-0.1,0c0,0,0,0,0,0
				c0,0,0.1-0.1,0.1-0.1c0.1,0,0.1-0.1,0.1-0.2c0,0-0.1,0-0.1,0c0,0-0.1,0-0.1,0s-0.1,0-0.1,0.1c0,0,0,0,0,0
				c-0.1,0.1-0.1,0.1-0.2,0.2s-0.2,0.1-0.3,0.2v0.1c0,0,0,0-0.1,0c0,0,0,0-0.1,0c0,0,0,0,0,0l-0.3,0.1c-0.1,0.1-0.1,0.1-0.2,0.1
				c-0.1,0-0.2,0.1-0.2,0.1c0,0,0.1,0,0.1,0c0,0,0.1-0.1,0.1-0.1c-0.2,0.2-0.4,0.3-0.7,0.4c-0.3,0.1-0.5,0.2-0.7,0.4
				c-0.1,0-0.1,0-0.1,0c0,0-0.1,0-0.2,0c0,0,0.1,0,0.1,0c0.2-0.1,0.4-0.2,0.6-0.3s0.4-0.2,0.6-0.3c0,0,0-0.1,0.1-0.1
				c0.1,0,0.1,0,0.1-0.1l-0.1,0.1c0,0,0,0,0,0c0,0,0,0,0,0c0,0,0,0,0,0s0,0,0,0c0,0-0.1,0-0.1,0c0,0-0.1,0-0.1,0c0,0,0,0,0,0
				c0,0,0,0,0,0c-0.2,0.1-0.4,0.2-0.6,0.3c-0.2,0.1-0.4,0.2-0.5,0.2c0,0,0,0,0,0c0,0,0,0,0,0c0,0-0.1,0-0.1,0s-0.1,0-0.1,0.1
				l-1.2,0.4c-0.1,0-0.2,0-0.3,0.1c-0.1,0-0.2,0.1-0.3,0.1c-0.1,0-0.1,0-0.1,0.1c0,0-0.1,0-0.2,0c-0.1,0.1-0.2,0.1-0.4,0.1
				c-0.1,0-0.3,0.1-0.4,0.1c-0.1,0-0.2,0.1-0.3,0.1c-0.1,0-0.2,0-0.3,0c0,0,0,0,0,0c0,0,0,0,0,0c-0.1,0-0.1,0-0.1,0.1
				c0.3,0,0.6,0,0.9-0.1c0.3,0,0.6-0.1,0.9-0.2c-0.2,0.1-0.3,0.1-0.5,0.1c-0.2,0-0.3,0.1-0.4,0.1c0,0,0,0,0,0c0,0,0,0,0,0
				c0,0-0.1,0-0.1,0s-0.1,0-0.1,0c0,0,0,0,0.1,0c0,0,0.1,0,0.1,0c0,0.1-0.1,0.1-0.1,0.1s-0.1,0-0.2,0c0,0,0.1,0,0.1,0
				c0,0,0.1,0,0.1,0c-0.1,0.1-0.2,0.1-0.3,0.1c-0.1,0-0.2-0.1-0.4,0c0,0-0.1,0-0.1,0c0,0,0,0-0.1,0c-0.2,0-0.4,0-0.6,0
				c-0.2,0-0.4-0.1-0.6-0.1c0-0.1-0.1-0.1-0.1-0.1c-0.1,0-0.1-0.1-0.1-0.2c0,0,0,0,0,0c0,0,0,0-0.1,0c0,0,0,0,0,0.1c0,0,0,0.1,0,0.1
				c0,0-0.1-0.1-0.1-0.1s-0.1-0.1-0.1-0.1c0,0,0,0,0.1,0.1c0,0,0,0,0.1,0.1c0,0,0-0.1,0-0.1s0-0.1,0-0.1c0,0,0,0,0,0c0,0,0,0-0.1,0
				c0-0.1,0-0.1,0-0.1c0,0,0-0.1,0-0.1l-0.1,0c0,0.1,0,0.1,0,0.1c0,0,0,0,0,0c0,0,0-0.1,0-0.1c0,0,0,0,0,0c0,0,0,0,0,0c0,0,0,0,0,0
				c0,0,0,0-0.1,0c0,0,0-0.1,0.1-0.1c0,0,0-0.1,0-0.1c0.1,0,0.1-0.1,0.1,0c0,0,0,0,0,0c0,0,0,0,0.1,0c0,0,0,0,0,0c0,0,0,0,0,0
				c0.1-0.1,0.2-0.1,0.3-0.1c0.1,0,0.2,0,0.3,0c0,0,0,0,0,0s0,0,0,0c0,0,0,0,0-0.1c0,0.1,0.1,0.1,0.2,0.1s0.2,0,0.2,0
				c-0.1,0.1-0.1,0.1-0.2,0c-0.1,0-0.2,0-0.2,0.1c-0.1,0-0.1,0-0.2,0.1c-0.1,0-0.1,0.1-0.1,0.2c0,0,0.1,0.1,0.2,0.1
				c0.1,0,0.2,0.1,0.3,0.1c0.1,0,0.2,0,0.3,0s0.2,0,0.2,0c0-0.1,0.1-0.2,0.1-0.3c0-0.1,0-0.2,0.1-0.3c0-0.1,0-0.2,0.1-0.3
				s0.1-0.2,0.1-0.3c0.2-0.9,0.5-1.7,0.8-2.6c0.3-0.8,0.7-1.6,1-2.4c0,0,0,0,0,0c0,0,0,0-0.1,0c0-0.1,0-0.1,0-0.2
				c0,0-0.1-0.1-0.1-0.1c0,0,0.1,0,0.1,0c0,0,0-0.1,0-0.1c0.1,0,0.1,0,0.2-0.1c0,0,0.1,0,0.2-0.1c0.1-0.3,0.3-0.6,0.4-0.9
				c0.1-0.3,0.3-0.6,0.4-0.9c0.1-0.2,0.2-0.4,0.3-0.7c0.1-0.2,0.2-0.5,0.3-0.7c0.1-0.2,0.2-0.4,0.3-0.7s0.2-0.5,0.3-0.7
				c0.1-0.1,0.1-0.2,0.1-0.3s0.1-0.2,0.1-0.3c0,0,0,0,0.1,0s0,0,0,0c0.1,0,0.2,0,0.3,0c0.1,0,0.2,0,0.2,0c0.1,0,0.1,0,0.2,0
				c0.1,0,0.1,0,0.1,0.1c0.1,0.1,0.1,0.1,0.1,0.2c0,0.1,0,0.1,0,0.2c0,0.1,0,0.1-0.1,0.2c0,0.1-0.1,0.1-0.1,0.2
				c-0.1,0.3-0.3,0.5-0.4,0.8c-0.1,0.2-0.3,0.5-0.4,0.8h0c-0.1,0.3-0.2,0.5-0.3,0.8c-0.1,0.2-0.2,0.5-0.3,0.7c0,0,0,0,0,0.1
				c0,0,0,0.1-0.1,0.1c-0.1,0.2-0.1,0.3-0.2,0.5c-0.1,0.2-0.2,0.3-0.2,0.5c0.1,0,0.2,0,0.2-0.1c0.1,0,0.1-0.1,0.2-0.1
				c0.5-0.2,1-0.5,1.4-0.7c0,0,0-0.1,0-0.1c0.2-0.1,0.4-0.2,0.5-0.4c0.2-0.1,0.3-0.2,0.5-0.4v0c0.6-0.5,1.1-1,1.5-1.6v-0.1
				c0.1-0.1,0.1-0.2,0.2-0.3c0.1-0.1,0.1-0.2,0.2-0.4c0.1-0.1,0.1-0.3,0.2-0.4c0-0.1,0.1-0.3,0.1-0.4c0-0.1,0-0.1,0-0.2
				c0,0,0-0.1-0.1-0.1c-0.3-0.2-0.7-0.4-1.2-0.5c-0.4-0.1-0.9-0.1-1.3,0l-0.5,0.1c-0.3,0.1-0.6,0.2-0.9,0.3
				c-0.3,0.1-0.6,0.2-0.8,0.3c-0.3,0.1-0.5,0.3-0.8,0.5c-0.3,0.2-0.5,0.4-0.6,0.7c0,0,0,0,0.1,0c0,0,0,0,0,0c0,0,0,0,0,0s0,0,0,0
				c0,0,0,0.1,0,0.1c0,0,0,0,0,0.1c0,0,0,0,0,0c0,0,0,0,0,0c0,0,0,0,0,0C81.7,182.2,81.7,182.2,81.7,182.3
				C81.7,182.2,81.7,182.3,81.7,182.3z M78,193.1C78,193.1,78.1,193.1,78,193.1C78.1,193,78,193,78,193.1L78,193.1
				C78,193.1,78,193.1,78,193.1z M85.2,190.7C85.2,190.7,85.2,190.7,85.2,190.7C85.2,190.7,85.2,190.7,85.2,190.7
				C85.2,190.6,85.2,190.6,85.2,190.7C85.2,190.7,85.1,190.7,85.2,190.7L85.2,190.7c0-0.1,0-0.1,0-0.1s0,0,0.1,0c0,0,0.1,0,0.1,0
				c0,0,0.1,0,0.1-0.1c0,0,0,0,0,0s0,0,0,0c0,0,0-0.1,0.1-0.1c0,0,0.1,0,0.1-0.1c0.2-0.1,0.4-0.3,0.5-0.5c0.1-0.2,0.3-0.4,0.4-0.5
				c0,0,0-0.1,0-0.1c0.1-0.1,0.2-0.3,0.3-0.5c0.1-0.2,0.1-0.4,0.1-0.6c0-0.1-0.1-0.2-0.1-0.4c-0.1-0.1-0.2-0.2-0.3-0.3
				c-0.1-0.1-0.2-0.1-0.3-0.1c-0.1,0-0.2-0.1-0.3-0.1c0,0,0,0,0,0c0,0,0,0,0,0c-0.1,0-0.1-0.1-0.2-0.1c-0.1,0-0.1-0.1-0.2-0.1
				c-0.2-0.1-0.4-0.1-0.5-0.2c-0.1-0.1-0.3-0.1-0.4-0.1s-0.3-0.1-0.4-0.1c-0.2,0-0.5,0-0.7,0c-0.3,0-0.5,0.1-0.7,0.2c0,0,0,0,0,0
				s0,0,0,0c-0.1,0-0.2,0-0.2,0.1c-0.1,0-0.2,0.1-0.2,0.1c0,0,0,0,0,0c-0.1,0-0.1,0-0.1,0s0,0.1,0,0.1c-0.1,0.2-0.2,0.4-0.3,0.6
				c-0.1,0.2-0.2,0.4-0.3,0.6c0,0.1,0,0.2,0,0.3c0,0.1,0,0.2-0.1,0.3c-0.1,0.2-0.1,0.4-0.2,0.7s-0.1,0.4-0.1,0.7
				c0,0.1-0.1,0.2-0.1,0.3c0,0.1-0.1,0.2-0.1,0.3c0,0.1,0,0.1-0.1,0.2c0,0.1-0.1,0.2-0.1,0.3c0,0.1-0.1,0.2-0.1,0.3
				c-0.1,0.1-0.1,0.2-0.2,0.3s-0.1,0.2-0.2,0.2c0,0,0,0,0,0c-0.1,0-0.1,0.1-0.1,0.2c0,0.1-0.1,0.2-0.1,0.2c-0.1,0-0.1,0-0.1,0.1
				s-0.1,0.1-0.1,0.1c0.3-0.1,0.6-0.1,0.9-0.2c0.3-0.1,0.6-0.1,0.9-0.3c0,0,0,0,0,0s0,0,0,0c0.2,0,0.4-0.1,0.5-0.1
				c0.1-0.1,0.3-0.1,0.5-0.2c0-0.1,0-0.1,0-0.1c0,0,0.1,0,0.1-0.1c0,0,0,0,0,0c0.1-0.1,0.2-0.1,0.3-0.1c0,0,0.1,0,0.1,0c0,0,0,0,0,0
				c0.1,0,0.1,0,0.1,0c0,0,0.1,0,0.1,0c0,0,0,0,0,0s0,0,0,0c0,0,0.1,0,0.1,0c0,0,0.1,0,0.1,0l0,0c0.1,0,0.2-0.1,0.3-0.1
				c0.1-0.1,0.2-0.1,0.3-0.1c0,0,0,0,0,0c0,0,0,0,0,0c0.1,0,0.1,0,0.1,0s0.1,0,0.1-0.1c0,0,0.1-0.1,0.1-0.1c0,0,0.1,0,0.1,0
				c0,0,0,0,0.1,0c0,0,0.1,0,0.1,0l0,0c0,0,0,0,0,0s0,0,0,0c0,0,0,0,0.1,0C85.1,190.7,85.1,190.7,85.2,190.7
				C85.1,190.7,85.1,190.7,85.2,190.7C85.2,190.7,85.2,190.7,85.2,190.7z M81.7,193c0.2-0.1,0.4-0.1,0.6-0.2
				c0.2-0.1,0.4-0.1,0.6-0.2c0,0,0,0,0,0C82.4,192.8,82.1,193,81.7,193c-0.4,0.2-0.8,0.3-1.2,0.4c0.2,0,0.4-0.1,0.6-0.1
				C81.3,193.2,81.5,193.1,81.7,193z M82.8,192.7C82.9,192.7,82.9,192.7,82.8,192.7C82.9,192.7,82.9,192.7,82.8,192.7
				C82.8,192.7,82.8,192.7,82.8,192.7z M83.2,191.7C83.2,191.7,83.1,191.7,83.2,191.7C83.1,191.7,83.1,191.7,83.2,191.7
				C83.1,191.7,83.1,191.7,83.2,191.7z M84.7,191.7c0.1-0.1,0.1-0.1,0.2-0.2c0.1,0,0.2-0.1,0.2-0.1c0,0,0,0,0.1,0c0,0,0,0,0,0
				c-0.1,0.1-0.2,0.1-0.3,0.2c-0.1,0.1-0.2,0.1-0.4,0.2c0,0,0.1,0,0.1,0S84.6,191.7,84.7,191.7z M86.8,191c-0.1,0.1-0.2,0.1-0.2,0.2
				c0,0,0.1-0.1,0.1-0.1S86.8,191,86.8,191z M86.8,186.8C86.8,186.8,86.8,186.8,86.8,186.8C86.8,186.8,86.8,186.8,86.8,186.8
				c0,0.1,0.1,0.1,0.2,0.2c0.1,0.1,0.1,0.1,0.2,0.2c0,0,0,0,0,0c0,0,0,0,0,0c0,0,0,0,0,0c0,0,0,0,0,0c0,0,0,0,0,0h0h0
				c-0.1-0.1-0.2-0.2-0.3-0.3s-0.2-0.2-0.4-0.2c0,0.1,0.1,0.1,0.1,0.1C86.7,186.7,86.8,186.8,86.8,186.8z M87.5,187.6
				c0-0.1,0-0.1,0-0.1c0,0-0.1-0.1-0.1,0C87.3,187.4,87.4,187.5,87.5,187.6C87.4,187.6,87.4,187.6,87.5,187.6z"/>
			<path class="st1" d="M97.2,188.8c-0.1,0-0.1,0-0.1,0.1c0,0.1-0.1,0.1-0.1,0.2c0,0,0,0,0,0c-0.1,0.1-0.2,0.1-0.2,0.2
				c-0.1,0.1-0.2,0.2-0.2,0.2h0v0c0,0,0,0-0.1,0.1s-0.1,0-0.1,0c-0.1,0-0.1,0.1-0.1,0.1c0,0-0.1,0.1-0.1,0.1
				c-0.1,0.1-0.1,0.1-0.1,0.1c0,0-0.1,0.1-0.1,0.1c0,0,0,0,0,0c0,0-0.1,0.1-0.2,0.1c-0.1,0.1-0.2,0.1-0.3,0.2
				c-0.1,0.1-0.2,0.1-0.3,0.1c-0.1,0-0.2,0-0.2,0c0,0-0.1,0-0.1,0c-0.1,0-0.2,0-0.3,0.1s-0.2,0.1-0.3,0c0-0.1-0.1-0.1-0.1-0.1
				c-0.1,0-0.1-0.1-0.2-0.1c0,0-0.1-0.1-0.1-0.1c-0.1-0.1-0.2-0.2-0.3-0.3c-0.1-0.1-0.1-0.3-0.1-0.5c0-0.2,0-0.4,0-0.6
				c0-0.2,0.1-0.4,0.1-0.6c-0.2,0.1-0.3,0.3-0.4,0.4c-0.1,0.2-0.3,0.3-0.4,0.5c-0.1,0.1-0.1,0.2-0.2,0.2c-0.1,0.1-0.1,0.1-0.2,0.2
				c-0.2,0.2-0.4,0.4-0.5,0.6c0,0,0,0,0,0c0,0,0,0,0,0c-0.1,0.1-0.2,0.1-0.3,0.2c-0.1,0.1-0.2,0.2-0.3,0.2c-0.1,0.1-0.2,0.1-0.4,0.1
				s-0.3,0-0.4-0.1c-0.1,0-0.1,0-0.2-0.1c0,0-0.1-0.1-0.1-0.1c-0.1-0.1-0.2-0.1-0.2-0.2s0-0.2-0.1-0.3c0-0.1,0-0.2,0-0.3
				c0-0.1,0.1-0.2,0.1-0.3c0.1-0.2,0.1-0.4,0.2-0.6s0.2-0.3,0.3-0.5c0.2-0.3,0.4-0.5,0.6-0.7c0.2-0.2,0.4-0.4,0.6-0.6
				c0.1,0,0.1-0.1,0.2-0.1s0.2-0.1,0.2-0.1c0.1,0,0.1,0,0.2,0c0.1,0,0.1,0,0.2,0c0.2,0,0.4,0.1,0.6,0.2c0.2,0.1,0.3,0.2,0.4,0.4
				c0.1-0.1,0.1-0.1,0.2-0.1c0.1,0,0.1-0.1,0.2-0.1c0,0,0.1,0,0.1-0.1c0,0,0,0,0.1,0c0.1,0,0.2,0,0.3,0.1c0.1,0.1,0.2,0.1,0.3,0.2
				c0,0,0,0,0,0c0,0,0,0,0.1,0c0,0,0,0.1,0,0.1s0,0,0,0.1c0,0.2,0,0.4-0.1,0.6s-0.2,0.4-0.2,0.6c0,0.3-0.1,0.5-0.2,0.8
				c-0.1,0.3-0.1,0.6,0,0.8c0.4,0,0.7-0.1,1-0.3c0.3-0.1,0.5-0.3,0.8-0.4c0.1-0.1,0.2-0.1,0.3-0.2c0.1-0.1,0.2-0.1,0.2-0.2
				c0,0,0,0,0,0v0c0.1,0,0.2-0.1,0.3-0.2c0.2-0.1,0.3-0.3,0.5-0.4s0.3-0.3,0.5-0.4c0.1-0.1,0.2-0.1,0.3-0.1c0,0,0,0,0.1,0
				s0.1,0,0.1,0c0,0,0,0,0,0c0,0,0,0,0,0v0c0,0,0,0,0,0c0,0,0,0.1,0,0.1s0,0,0,0.1c0,0,0,0,0,0c0,0,0,0-0.1,0.1s-0.1,0.1-0.1,0.1
				c0,0.1,0,0.1,0,0.1s0,0.1,0,0.1c0,0-0.1,0-0.1,0c0,0.1-0.1,0.1-0.1,0.1c0,0-0.1,0.1-0.1,0.1c0,0,0,0-0.1,0.1L97.2,188.8z
				 M92.7,187.4c0-0.1-0.1-0.3-0.1-0.4s-0.2-0.1-0.3,0l-0.3,0.3c0,0,0,0.1-0.1,0.1c0,0-0.1,0-0.1,0.1c0,0,0,0.1-0.1,0.1
				c0,0,0,0.1-0.1,0.1l-0.2,0.3c-0.1,0.2-0.2,0.3-0.4,0.5c-0.1,0.2-0.2,0.4-0.3,0.6c0,0.1,0,0.1-0.1,0.1c0,0-0.1,0.1-0.1,0.2
				c0,0,0,0,0,0c0,0,0,0,0,0c0,0.1-0.1,0.2-0.1,0.3c-0.1,0.1-0.1,0.2-0.1,0.3c0.1-0.1,0.2-0.1,0.3-0.2c0.1-0.1,0.2-0.1,0.2-0.2
				c0.3-0.3,0.6-0.6,0.9-1c0.3-0.3,0.6-0.7,0.9-1c0,0,0.1-0.1,0.1-0.1c0,0,0-0.1,0.1-0.1v0C92.8,187.4,92.8,187.4,92.7,187.4z"/>
			<path class="st1" d="M103,188.5c0,0,0,0.1-0.1,0.2s-0.2,0.2-0.3,0.3c0,0-0.1,0-0.1,0.1c-0.1,0.1-0.1,0.1-0.1,0.1l-0.1,0.1
				l-0.3,0.2l-0.1,0.1l-0.2,0.1c-0.2,0.1-0.4,0.2-0.5,0.3c-0.2,0.1-0.4,0.2-0.6,0.3c0,0,0,0-0.1,0s-0.1,0-0.1,0c0,0-0.1,0-0.1,0
				c0,0-0.1,0-0.1,0c0,0-0.1,0-0.1,0c0,0,0,0,0,0c-0.1,0-0.1,0-0.1,0c0,0-0.1,0-0.1,0.1c0,0-0.1,0-0.1,0s-0.1,0-0.1,0
				c0,0-0.1,0-0.1,0s-0.1,0-0.1,0c0,0,0,0,0,0c0,0,0,0,0,0c0,0-0.1,0-0.1,0c0,0-0.1,0-0.2,0c0,0-0.1,0-0.1,0c0,0-0.1,0-0.1,0l0,0
				c-0.2,0-0.3,0-0.4,0c0,0-0.1,0-0.1,0c0,0,0,0-0.1,0c-0.1,0-0.2,0-0.3-0.1s-0.2-0.1-0.3-0.1c-0.1-0.1-0.2-0.1-0.3-0.2
				s-0.2-0.2-0.3-0.3c0-0.1-0.1-0.2-0.1-0.2c0-0.1,0-0.1-0.1-0.2c0-0.1,0-0.2,0-0.2s0-0.2,0-0.2c0-0.1,0.1-0.3,0.1-0.5
				c0-0.2,0.1-0.4,0.3-0.5l0.4-0.4l0.2-0.3c0.1-0.1,0.2-0.1,0.2-0.2s0.1-0.1,0.2-0.2c0.1-0.1,0.1-0.1,0.2-0.1c0.1,0,0.1-0.1,0.2-0.1
				c0.1-0.1,0.2-0.1,0.2-0.2c0.1-0.1,0.2-0.1,0.2-0.2c0.1,0,0.2-0.1,0.2-0.1c0,0,0.1,0,0.1,0c0.1,0,0.1,0,0.1,0c0,0,0,0,0.1,0
				c0,0,0,0,0.1,0c0.1,0.1,0.1,0.2,0.2,0.2s0.2,0.1,0.2,0.2c0.1,0,0.1,0.1,0.1,0.1s0,0.1,0.1,0.1c0,0.1,0,0.2,0,0.2
				c0,0.1,0,0.1-0.1,0.2c0,0,0,0,0,0.1s0,0,0,0.1c0,0.1-0.1,0.1-0.1,0.1c0,0-0.1,0.1-0.1,0.1c0,0,0,0.1-0.1,0.1s0,0.1-0.1,0.1
				c0,0-0.1,0.1-0.2,0.2c-0.1,0.1-0.1,0.1-0.2,0.2c-0.1,0.1-0.1,0.1-0.2,0.2s-0.2,0.1-0.2,0.1c0,0,0,0.1,0,0.1
				c-0.1,0.1-0.2,0.2-0.3,0.2s-0.2,0.2-0.3,0.2c-0.2,0-0.3,0.1-0.5,0.2c-0.1,0.1-0.3,0.1-0.5,0.1c0,0,0,0,0,0c0,0,0,0,0.1,0
				c0,0.1,0,0.1,0,0.1c0,0,0,0.1,0.1,0.1c0.1,0.1,0.2,0.2,0.3,0.2c0.1,0.1,0.3,0.1,0.4,0.1c0.4,0.1,0.8,0.1,1.2,0
				c0.1,0,0.2,0,0.3-0.1c0.1,0,0.2-0.1,0.4-0.1c0.2-0.1,0.3-0.1,0.5-0.2l0.2-0.1c0,0,0.1,0,0.1,0c0,0,0,0,0,0c0,0,0,0,0,0
				c0,0,0,0,0,0l0.4-0.2c0.1-0.1,0.2-0.2,0.3-0.2c0.1,0,0.2-0.1,0.3-0.3c0,0,0,0,0.1-0.1c0.1,0,0.1-0.1,0.2-0.1
				c0.1,0,0.1-0.1,0.2-0.1c0.1,0,0.1-0.1,0.1-0.1l0.2-0.2c0.1-0.1,0.2-0.2,0.3-0.2s0.2-0.1,0.2-0.1c0,0,0.1,0.1,0.1,0.1
				c0,0.1,0,0.1,0.1,0.1c-0.1,0.1-0.1,0.2-0.1,0.2s0,0.1-0.1,0.1s0,0-0.1,0.1C103.1,188.4,103,188.5,103,188.5z M99.5,186.7
				c0,0-0.1,0-0.1,0.1c0,0-0.1,0.1-0.1,0.1c0,0-0.1,0-0.1,0c0,0,0,0-0.1,0c0,0,0,0-0.1,0l-0.1,0.1c-0.1,0.1-0.1,0.1-0.2,0.1
				s-0.1,0.1-0.2,0.1c-0.1,0.1-0.1,0.2-0.2,0.2c-0.1,0-0.1,0.1-0.2,0.2c-0.1,0.1-0.2,0.2-0.3,0.3c-0.1,0.1-0.2,0.2-0.3,0.4
				c-0.1,0.1-0.2,0.2-0.2,0.4c0.2-0.1,0.4-0.2,0.6-0.3c0.2-0.1,0.4-0.3,0.6-0.4c0.1-0.1,0.1-0.1,0.2-0.2c0.1-0.1,0.1-0.1,0.2-0.2
				c0.1-0.1,0.2-0.1,0.3-0.3c0.1-0.1,0.2-0.2,0.3-0.4c0-0.1,0-0.1,0.1-0.1c0,0,0-0.1,0-0.1C99.6,186.6,99.6,186.6,99.5,186.7
				C99.5,186.6,99.5,186.7,99.5,186.7z"/>
			<path class="st1" d="M102.5,190.1c0-0.1,0.1-0.2,0.1-0.2c0.1,0,0.1-0.1,0.2-0.2c0,0,0,0.1-0.1,0.1c0,0,0,0,0,0.1
				c0.2-0.1,0.2-0.2,0.3-0.3c0,0,0.1,0,0.1,0c0-0.1,0.1-0.1,0.1-0.1l0,0c0,0,0,0,0-0.1s0-0.1,0-0.1c0,0,0,0,0,0c0,0,0,0,0,0
				c0-0.1,0.1-0.1,0.1-0.1c0,0,0.1,0,0.1-0.1c0,0,0,0,0.1,0c0.1-0.1,0.2-0.1,0.3-0.2c0.1,0,0.2-0.1,0.2-0.2c0.1-0.1,0.3-0.1,0.4-0.2
				c0.1-0.1,0.3-0.2,0.4-0.2c0-0.2,0.1-0.4,0-0.6c0-0.2-0.1-0.4-0.1-0.6c0,0-0.1,0.1-0.2,0.1s-0.1,0.1-0.2,0.2l-0.2,0.2l-0.2,0.2
				l-0.3,0.3c-0.1,0.1-0.2,0.1-0.2,0.2c-0.1,0.1-0.1,0.1-0.2,0.1c-0.1,0.1-0.1,0.2-0.2,0.2s-0.1,0-0.2,0c0,0-0.1-0.1-0.1-0.1
				c0,0,0,0,0,0s0,0,0,0c0,0,0,0-0.1-0.1c0,0-0.1,0-0.1,0s0,0,0,0c0,0,0,0,0-0.1c0,0,0,0,0,0c0.1,0,0.1-0.1,0.2-0.1
				c0,0,0-0.1,0.1-0.1c0-0.1,0-0.1,0.1-0.1c0.1,0,0.1-0.1,0.1-0.1s0.1,0,0.1-0.1c0,0,0,0,0-0.1c0,0,0-0.1,0-0.1c0,0,0.1-0.1,0.1-0.1
				s0.1-0.1,0.1-0.1c0.1-0.1,0.2-0.2,0.3-0.3c0.1-0.1,0.2-0.2,0.2-0.3c0.1-0.2,0.2-0.3,0.4-0.4c0.2,0,0.3,0,0.4,0.1
				c0.2,0,0.3,0,0.3,0.1c0.1,0.1,0.1,0.1,0.2,0.3c0,0,0.1,0.1,0.1,0.2c0,0.1,0,0.2,0.1,0.3c0,0.1,0,0.2,0,0.3c0,0.1,0,0.2,0,0.2
				c0.1,0,0.2,0,0.3-0.1c0.2-0.1,0.3-0.1,0.5-0.2c0.2-0.1,0.4-0.1,0.5-0.2s0.3-0.1,0.3-0.1c0,0,0,0,0,0c0,0,0,0,0,0c0,0,0,0,0.1,0
				c0.1,0,0.2,0,0.2-0.1c0.1,0,0.2-0.1,0.2-0.1c0,0,0.1,0,0.1,0c0,0,0,0,0.1-0.1v0v0c0,0,0,0,0-0.1c0.1,0,0.2,0,0.3,0
				c0.1,0,0.2,0,0.2,0c0,0,0.1,0,0.1,0c0,0,0.1,0,0.1,0l0.2,0c0,0.1,0,0.1,0.1,0c0,0,0,0,0,0c0,0,0,0,0,0s0,0,0,0c0,0,0,0,0,0
				c0,0,0,0,0,0c0,0,0,0.1,0,0.1c0,0,0,0,0,0.1c-0.1,0-0.1,0-0.1,0c0,0-0.1,0-0.1,0c0,0,0,0,0,0c0,0,0,0,0,0c-0.1,0-0.1,0-0.2,0
				c-0.1,0-0.1,0-0.1,0.1c-0.1,0-0.2,0-0.3,0.1s-0.2,0-0.3,0.1c0,0,0,0.1,0,0.1c-0.1,0-0.1,0-0.2,0c0,0-0.1,0-0.1,0
				c-0.1,0-0.2,0-0.3,0.1c-0.1,0-0.2,0.1-0.3,0.1l-1.3,0.5c-0.1,0-0.2,0.1-0.3,0.1s-0.2,0.1-0.2,0.2c0,0.2-0.1,0.3-0.1,0.3
				c0,0.1-0.1,0.2-0.1,0.3c-0.1,0-0.1,0-0.1,0.1c0,0,0,0.1,0,0.1c0,0,0,0,0,0c0,0,0,0,0,0c0,0.1,0,0.1-0.1,0.2
				c0,0.1-0.1,0.1-0.1,0.2c0,0,0,0,0,0.1s0,0.1,0,0.1c0,0,0,0-0.1,0.1c0,0,0,0.1,0,0.1c0,0,0,0,0,0s0,0,0,0c0,0,0,0.1,0,0.1
				c0,0,0,0,0,0c-0.1,0.1-0.1,0.1-0.2,0.2c0,0.1-0.1,0.1-0.2,0.2c0,0,0,0,0,0s0,0,0,0c-0.2,0.2-0.3,0.3-0.5,0.5
				c-0.2,0.1-0.4,0.2-0.6,0.3c0,0,0,0,0,0c0,0-0.1,0-0.1,0c0,0,0,0,0,0c0,0,0,0,0.1,0c0-0.1-0.1-0.1-0.1,0c0,0-0.1,0-0.1,0
				c0,0,0,0,0,0v0c0,0-0.1,0-0.1,0s-0.1,0-0.2,0c0,0,0,0,0,0s0,0,0,0c-0.2,0-0.4,0-0.6-0.1c-0.1-0.1-0.3-0.2-0.4-0.3c0,0,0,0,0,0
				c0,0,0,0,0,0c0,0,0,0,0,0c0,0,0,0,0-0.1c0,0,0,0.1-0.1,0c0,0,0,0-0.1,0c0,0,0-0.1,0-0.1c0,0,0,0,0-0.1c0,0,0,0,0,0s0,0,0,0
				c0,0,0-0.1,0-0.1c0,0,0.1,0,0.1,0c0-0.2,0-0.3,0.1-0.3c0,0,0,0,0,0c0,0,0,0,0,0c0.1,0,0.1-0.1,0.1-0.2c0-0.1,0.1-0.2,0.1-0.3
				C102.3,190.2,102.4,190.2,102.5,190.1C102.4,190.1,102.5,190.1,102.5,190.1z M102.6,190C102.6,189.9,102.6,189.9,102.6,190
				C102.6,189.9,102.6,190,102.6,190z M103.9,189.7C103.9,189.7,103.9,189.7,103.9,189.7C103.9,189.7,103.9,189.7,103.9,189.7
				c-0.1,0.1-0.2,0.2-0.3,0.3s-0.2,0.2-0.3,0.3c0,0,0,0.1,0,0c0,0,0,0,0,0s0,0,0,0c-0.1,0-0.1,0.1-0.1,0.1c0,0,0,0,0,0
				c0,0.1-0.1,0.1-0.2,0.2s-0.1,0.1-0.1,0.2c0,0,0,0,0,0s0,0,0,0c0.1,0,0.3-0.1,0.4-0.1s0.2-0.1,0.4-0.2c0,0,0-0.1,0-0.1
				c0,0,0,0,0,0c0.2-0.2,0.4-0.4,0.6-0.7c0.2-0.3,0.3-0.5,0.5-0.8l0,0c-0.1,0.1-0.2,0.2-0.3,0.3S104,189.6,103.9,189.7z
				 M103.6,191.6c0,0,0.1,0,0.1-0.1C103.7,191.5,103.7,191.5,103.6,191.6C103.6,191.5,103.6,191.6,103.6,191.6z"/>
			<path class="st1" d="M107.9,190.1c0-0.1,0.1-0.2,0.1-0.2c0.1,0,0.1-0.1,0.2-0.2c0,0,0,0.1-0.1,0.1c0,0,0,0,0,0.1
				c0.2-0.1,0.2-0.2,0.3-0.3c0,0,0.1,0,0.1,0c0-0.1,0.1-0.1,0.1-0.1l0,0c0,0,0,0,0-0.1s0-0.1,0-0.1c0,0,0,0,0,0c0,0,0,0,0,0
				c0-0.1,0.1-0.1,0.1-0.1c0,0,0.1,0,0.1-0.1c0,0,0,0,0.1,0c0.1-0.1,0.2-0.1,0.3-0.2c0.1,0,0.2-0.1,0.2-0.2c0.1-0.1,0.3-0.1,0.4-0.2
				c0.1-0.1,0.3-0.2,0.4-0.2c0-0.2,0.1-0.4,0-0.6c0-0.2-0.1-0.4-0.1-0.6c0,0-0.1,0.1-0.2,0.1s-0.1,0.1-0.2,0.2l-0.2,0.2l-0.2,0.2
				l-0.3,0.3c-0.1,0.1-0.2,0.1-0.2,0.2c-0.1,0.1-0.1,0.1-0.2,0.1c-0.1,0.1-0.1,0.2-0.2,0.2s-0.1,0-0.2,0c0,0-0.1-0.1-0.1-0.1
				c0,0,0,0,0,0s0,0,0,0c0,0,0,0-0.1-0.1c0,0-0.1,0-0.1,0s0,0,0,0c0,0,0,0,0-0.1c0,0,0,0,0,0c0.1,0,0.1-0.1,0.2-0.1
				c0,0,0-0.1,0.1-0.1c0-0.1,0-0.1,0.1-0.1c0.1,0,0.1-0.1,0.1-0.1s0.1,0,0.1-0.1c0,0,0,0,0-0.1c0,0,0-0.1,0-0.1c0,0,0.1-0.1,0.1-0.1
				s0.1-0.1,0.1-0.1c0.1-0.1,0.2-0.2,0.3-0.3c0.1-0.1,0.2-0.2,0.2-0.3c0.1-0.2,0.2-0.3,0.4-0.4c0.2,0,0.3,0,0.4,0.1
				c0.2,0,0.3,0,0.3,0.1c0.1,0.1,0.1,0.1,0.2,0.3c0,0,0.1,0.1,0.1,0.2c0,0.1,0,0.2,0.1,0.3c0,0.1,0,0.2,0,0.3c0,0.1,0,0.2,0,0.2
				c0.1,0,0.2,0,0.3-0.1c0.2-0.1,0.3-0.1,0.5-0.2c0.2-0.1,0.4-0.1,0.5-0.2s0.3-0.1,0.3-0.1c0,0,0,0,0,0c0,0,0,0,0,0c0,0,0,0,0.1,0
				c0.1,0,0.2,0,0.2-0.1c0.1,0,0.2-0.1,0.2-0.1c0,0,0.1,0,0.1,0c0,0,0,0,0.1-0.1v0v0c0,0,0,0,0-0.1c0.1,0,0.2,0,0.3,0
				c0.1,0,0.2,0,0.2,0c0,0,0.1,0,0.1,0c0,0,0.1,0,0.1,0l0.2,0c0,0.1,0,0.1,0.1,0c0,0,0,0,0,0c0,0,0,0,0,0s0,0,0,0c0,0,0,0,0,0
				c0,0,0,0,0,0c0,0,0,0.1,0,0.1c0,0,0,0,0,0.1c-0.1,0-0.1,0-0.1,0c0,0-0.1,0-0.1,0c0,0,0,0,0,0c0,0,0,0,0,0c-0.1,0-0.1,0-0.2,0
				c-0.1,0-0.1,0-0.1,0.1c-0.1,0-0.2,0-0.3,0.1s-0.2,0-0.3,0.1c0,0,0,0.1,0,0.1c-0.1,0-0.1,0-0.2,0c0,0-0.1,0-0.1,0
				c-0.1,0-0.2,0-0.3,0.1c-0.1,0-0.2,0.1-0.3,0.1l-1.3,0.5c-0.1,0-0.2,0.1-0.3,0.1s-0.2,0.1-0.2,0.2c0,0.2-0.1,0.3-0.1,0.3
				c0,0.1-0.1,0.2-0.1,0.3c-0.1,0-0.1,0-0.1,0.1c0,0,0,0.1,0,0.1c0,0,0,0,0,0c0,0,0,0,0,0c0,0.1,0,0.1-0.1,0.2
				c0,0.1-0.1,0.1-0.1,0.2c0,0,0,0,0,0.1s0,0.1,0,0.1c0,0,0,0-0.1,0.1c0,0,0,0.1,0,0.1c0,0,0,0,0,0s0,0,0,0c0,0,0,0.1,0,0.1
				c0,0,0,0,0,0c-0.1,0.1-0.1,0.1-0.2,0.2c0,0.1-0.1,0.1-0.2,0.2c0,0,0,0,0,0s0,0,0,0c-0.2,0.2-0.3,0.3-0.5,0.5
				c-0.2,0.1-0.4,0.2-0.6,0.3c0,0,0,0,0,0c0,0-0.1,0-0.1,0c0,0,0,0,0,0c0,0,0,0,0.1,0c0-0.1-0.1-0.1-0.1,0c0,0-0.1,0-0.1,0
				c0,0,0,0,0,0v0c0,0-0.1,0-0.1,0s-0.1,0-0.2,0c0,0,0,0,0,0s0,0,0,0c-0.2,0-0.4,0-0.6-0.1c-0.1-0.1-0.3-0.2-0.4-0.3c0,0,0,0,0,0
				c0,0,0,0,0,0c0,0,0,0,0,0c0,0,0,0,0-0.1c0,0,0,0.1-0.1,0c0,0,0,0-0.1,0c0,0,0-0.1,0-0.1c0,0,0,0,0-0.1c0,0,0,0,0,0s0,0,0,0
				c0,0,0-0.1,0-0.1c0,0,0.1,0,0.1,0c0-0.2,0-0.3,0.1-0.3c0,0,0,0,0,0c0,0,0,0,0,0c0.1,0,0.1-0.1,0.1-0.2c0-0.1,0.1-0.2,0.1-0.3
				C107.7,190.2,107.7,190.2,107.9,190.1C107.8,190.1,107.8,190.1,107.9,190.1z M108,190C108,189.9,108,189.9,108,190
				C108,189.9,108,190,108,190z M109.2,189.7C109.2,189.7,109.2,189.7,109.2,189.7C109.2,189.7,109.2,189.7,109.2,189.7
				c-0.1,0.1-0.2,0.2-0.3,0.3s-0.2,0.2-0.3,0.3c0,0,0,0.1,0,0c0,0,0,0,0,0s0,0,0,0c-0.1,0-0.1,0.1-0.1,0.1c0,0,0,0,0,0
				c0,0.1-0.1,0.1-0.2,0.2s-0.1,0.1-0.1,0.2c0,0,0,0,0,0s0,0,0,0c0.1,0,0.3-0.1,0.4-0.1s0.2-0.1,0.4-0.2c0,0,0-0.1,0-0.1
				c0,0,0,0,0,0c0.2-0.2,0.4-0.4,0.6-0.7c0.2-0.3,0.3-0.5,0.5-0.8l0,0c-0.1,0.1-0.2,0.2-0.3,0.3S109.4,189.6,109.2,189.7z
				 M108.9,191.6c0,0,0.1,0,0.1-0.1C109,191.5,109,191.5,108.9,191.6C109,191.5,108.9,191.6,108.9,191.6z"/>
			<path class="st1" d="M119.3,188.5c0,0,0,0.1-0.1,0.2s-0.2,0.2-0.3,0.3c0,0-0.1,0-0.1,0.1c-0.1,0.1-0.1,0.1-0.1,0.1l-0.1,0.1
				l-0.3,0.2l-0.1,0.1l-0.2,0.1c-0.2,0.1-0.4,0.2-0.5,0.3c-0.2,0.1-0.4,0.2-0.6,0.3c0,0,0,0-0.1,0s-0.1,0-0.1,0c0,0-0.1,0-0.1,0
				c0,0-0.1,0-0.1,0c0,0-0.1,0-0.1,0c0,0,0,0,0,0c-0.1,0-0.1,0-0.1,0c0,0-0.1,0-0.1,0.1c0,0-0.1,0-0.1,0s-0.1,0-0.1,0
				c0,0-0.1,0-0.1,0s-0.1,0-0.1,0c0,0,0,0,0,0c0,0,0,0,0,0c0,0-0.1,0-0.1,0c0,0-0.1,0-0.2,0c0,0-0.1,0-0.1,0c0,0-0.1,0-0.1,0l0,0
				c-0.2,0-0.3,0-0.4,0c0,0-0.1,0-0.1,0c0,0,0,0-0.1,0c-0.1,0-0.2,0-0.3-0.1s-0.2-0.1-0.3-0.1c-0.1-0.1-0.2-0.1-0.3-0.2
				s-0.2-0.2-0.3-0.3c0-0.1-0.1-0.2-0.1-0.2c0-0.1,0-0.1-0.1-0.2c0-0.1,0-0.2,0-0.2s0-0.2,0-0.2c0-0.1,0.1-0.3,0.1-0.5
				c0-0.2,0.1-0.4,0.3-0.5l0.4-0.4l0.2-0.3c0.1-0.1,0.2-0.1,0.2-0.2s0.1-0.1,0.2-0.2c0.1-0.1,0.1-0.1,0.2-0.1c0.1,0,0.1-0.1,0.2-0.1
				c0.1-0.1,0.2-0.1,0.2-0.2c0.1-0.1,0.2-0.1,0.2-0.2c0.1,0,0.2-0.1,0.2-0.1c0,0,0.1,0,0.1,0c0.1,0,0.1,0,0.1,0c0,0,0,0,0.1,0
				c0,0,0,0,0.1,0c0.1,0.1,0.1,0.2,0.2,0.2s0.2,0.1,0.2,0.2c0.1,0,0.1,0.1,0.1,0.1s0,0.1,0.1,0.1c0,0.1,0,0.2,0,0.2
				c0,0.1,0,0.1-0.1,0.2c0,0,0,0,0,0.1s0,0,0,0.1c0,0.1-0.1,0.1-0.1,0.1c0,0-0.1,0.1-0.1,0.1c0,0,0,0.1-0.1,0.1s0,0.1-0.1,0.1
				c0,0-0.1,0.1-0.2,0.2c-0.1,0.1-0.1,0.1-0.2,0.2c-0.1,0.1-0.1,0.1-0.2,0.2s-0.2,0.1-0.2,0.1c0,0,0,0.1,0,0.1
				c-0.1,0.1-0.2,0.2-0.3,0.2s-0.2,0.2-0.3,0.2c-0.2,0-0.3,0.1-0.5,0.2c-0.1,0.1-0.3,0.1-0.5,0.1c0,0,0,0,0,0c0,0,0,0,0.1,0
				c0,0.1,0,0.1,0,0.1c0,0,0,0.1,0.1,0.1c0.1,0.1,0.2,0.2,0.3,0.2c0.1,0.1,0.3,0.1,0.4,0.1c0.4,0.1,0.8,0.1,1.2,0
				c0.1,0,0.2,0,0.3-0.1c0.1,0,0.2-0.1,0.4-0.1c0.2-0.1,0.3-0.1,0.5-0.2l0.2-0.1c0,0,0.1,0,0.1,0c0,0,0,0,0,0c0,0,0,0,0,0
				c0,0,0,0,0,0l0.4-0.2c0.1-0.1,0.2-0.2,0.3-0.2c0.1,0,0.2-0.1,0.3-0.3c0,0,0,0,0.1-0.1c0.1,0,0.1-0.1,0.2-0.1
				c0.1,0,0.1-0.1,0.2-0.1c0.1,0,0.1-0.1,0.1-0.1l0.2-0.2c0.1-0.1,0.2-0.2,0.3-0.2s0.2-0.1,0.2-0.1c0,0,0.1,0.1,0.1,0.1
				c0,0.1,0,0.1,0.1,0.1c-0.1,0.1-0.1,0.2-0.1,0.2s0,0.1-0.1,0.1s0,0-0.1,0.1C119.4,188.4,119.3,188.5,119.3,188.5z M115.8,186.7
				c0,0-0.1,0-0.1,0.1c0,0-0.1,0.1-0.1,0.1c0,0-0.1,0-0.1,0c0,0,0,0-0.1,0c0,0,0,0-0.1,0l-0.1,0.1c-0.1,0.1-0.1,0.1-0.2,0.1
				s-0.1,0.1-0.2,0.1c-0.1,0.1-0.1,0.2-0.2,0.2c-0.1,0-0.1,0.1-0.2,0.2c-0.1,0.1-0.2,0.2-0.3,0.3c-0.1,0.1-0.2,0.2-0.3,0.4
				c-0.1,0.1-0.2,0.2-0.2,0.4c0.2-0.1,0.4-0.2,0.6-0.3c0.2-0.1,0.4-0.3,0.6-0.4c0.1-0.1,0.1-0.1,0.2-0.2c0.1-0.1,0.1-0.1,0.2-0.2
				c0.1-0.1,0.2-0.1,0.3-0.3c0.1-0.1,0.2-0.2,0.3-0.4c0-0.1,0-0.1,0.1-0.1c0,0,0-0.1,0-0.1C115.9,186.6,115.9,186.6,115.8,186.7
				C115.8,186.6,115.8,186.7,115.8,186.7z"/>
		</g>
	</g>
</g>
</svg>
