<?xml version="1.0" encoding="utf-8"?>
<!-- Generator: Adobe Illustrator 23.0.1, SVG Export Plug-In . SVG Version: 6.00 Build 0)  -->
<svg version="1.1" id="Camada_3" xmlns="http://www.w3.org/2000/svg" xmlns:xlink="http://www.w3.org/1999/xlink" x="0px" y="0px"
	 viewBox="0 0 185.2 190.5" style="enable-background:new 0 0 185.2 190.5;" xml:space="preserve">
<style type="text/css">
	.st0{fill:none;}
	.st1{fill:#1A1746;}
</style>
<g>
	<rect x="-0.2" y="-0.3" class="st0" width="185.8" height="191.1"/>
	<rect x="163.9" y="11.1" class="st0" width="10.1" height="9.8"/>
	<rect x="163.9" y="21.7" class="st0" width="10.1" height="9.8"/>
	<rect x="163.9" y="32.2" class="st0" width="10.1" height="9.8"/>
	<rect x="163.9" y="42.8" class="st0" width="10.1" height="9.8"/>
	<rect x="163.9" y="53.4" class="st0" width="10.1" height="9.8"/>
	<rect x="163.9" y="64" class="st0" width="10.1" height="9.8"/>
	<rect x="163.9" y="74.5" class="st0" width="10.1" height="9.8"/>
	<rect x="163.9" y="85.1" class="st0" width="10.1" height="9.8"/>
	<rect x="163.9" y="95.7" class="st0" width="10.1" height="9.8"/>
	<rect x="163.9" y="106.3" class="st0" width="10.1" height="9.8"/>
	<rect x="163.9" y="116.8" class="st0" width="10.1" height="9.8"/>
	<rect x="163.9" y="127.4" class="st0" width="10.1" height="9.8"/>
	<rect x="163.9" y="138" class="st0" width="10.1" height="9.8"/>
	<rect x="163.9" y="148.6" class="st0" width="10.1" height="9.8"/>
	<rect x="163.9" y="159.1" class="st0" width="10.1" height="9.8"/>
	<rect x="163.9" y="169.7" class="st0" width="10.1" height="9.8"/>
	<rect x="153" y="11.1" class="st0" width="10.1" height="9.8"/>
	<rect x="153" y="21.7" class="st0" width="10.1" height="9.8"/>
	<rect x="153" y="32.2" class="st0" width="10.1" height="9.8"/>
	<rect x="153" y="42.8" class="st0" width="10.1" height="9.8"/>
	<rect x="153" y="53.4" class="st0" width="10.1" height="9.8"/>
	<rect x="153" y="64" class="st0" width="10.1" height="9.8"/>
	<rect x="153" y="106.3" class="st0" width="10.1" height="9.8"/>
	<rect x="153" y="116.8" class="st0" width="10.1" height="9.8"/>
	<rect x="153" y="127.4" class="st0" width="10.1" height="9.8"/>
	<rect x="153" y="138" class="st0" width="10.1" height="9.8"/>
	<rect x="153" y="148.6" class="st0" width="10.1" height="9.8"/>
	<rect x="153" y="169.7" class="st0" width="10.1" height="9.8"/>
	<rect x="142.1" y="11.1" class="st0" width="10.1" height="9.8"/>
	<rect x="142.1" y="21.7" class="st0" width="10.1" height="9.8"/>
	<rect x="142.1" y="32.2" class="st0" width="10.1" height="9.8"/>
	<rect x="142.1" y="42.8" class="st0" width="10.1" height="9.8"/>
	<rect x="142.1" y="53.4" class="st0" width="10.1" height="9.8"/>
	<rect x="142.1" y="74.5" class="st0" width="10.1" height="9.8"/>
	<rect x="142.1" y="85.1" class="st0" width="10.1" height="9.8"/>
	<rect x="142.1" y="95.7" class="st0" width="10.1" height="9.8"/>
	<rect x="142.1" y="116.8" class="st0" width="10.1" height="9.8"/>
	<rect x="142.1" y="127.4" class="st0" width="10.1" height="9.8"/>
	<rect x="142.1" y="138" class="st0" width="10.1" height="9.8"/>
	<rect x="142.1" y="159.1" class="st0" width="10.1" height="9.8"/>
	<rect x="142.1" y="169.7" class="st0" width="10.1" height="9.8"/>
	<rect x="131.2" y="11.1" class="st0" width="10.1" height="9.8"/>
	<rect x="131.2" y="21.7" class="st0" width="10.1" height="9.8"/>
	<rect x="131.2" y="32.2" class="st0" width="10.1" height="9.8"/>
	<rect x="131.2" y="42.8" class="st0" width="10.1" height="9.8"/>
	<rect x="131.2" y="53.4" class="st0" width="10.1" height="9.8"/>
	<rect x="131.2" y="74.5" class="st0" width="10.1" height="9.8"/>
	<rect x="131.2" y="85.1" class="st0" width="10.1" height="9.8"/>
	<rect x="131.2" y="95.7" class="st0" width="10.1" height="9.8"/>
	<rect x="131.2" y="116.8" class="st0" width="10.1" height="9.8"/>
	<rect x="131.2" y="127.4" class="st0" width="10.1" height="9.8"/>
	<rect x="131.2" y="148.6" class="st0" width="10.1" height="9.8"/>
	<rect x="131.2" y="159.1" class="st0" width="10.1" height="9.8"/>
	<rect x="131.2" y="169.7" class="st0" width="10.1" height="9.8"/>
	<rect x="120.3" y="11.1" class="st0" width="10.1" height="9.8"/>
	<rect x="120.3" y="21.7" class="st0" width="10.1" height="9.8"/>
	<rect x="120.3" y="32.2" class="st0" width="10.1" height="9.8"/>
	<rect x="120.3" y="42.8" class="st0" width="10.1" height="9.8"/>
	<rect x="120.3" y="53.4" class="st0" width="10.1" height="9.8"/>
	<rect x="120.3" y="74.5" class="st0" width="10.1" height="9.8"/>
	<rect x="120.3" y="85.1" class="st0" width="10.1" height="9.8"/>
	<rect x="120.3" y="95.7" class="st0" width="10.1" height="9.8"/>
	<rect x="120.3" y="116.8" class="st0" width="10.1" height="9.8"/>
	<rect x="120.3" y="138" class="st0" width="10.1" height="9.8"/>
	<rect x="120.3" y="148.6" class="st0" width="10.1" height="9.8"/>
	<rect x="120.3" y="159.1" class="st0" width="10.1" height="9.8"/>
	<rect x="120.3" y="169.7" class="st0" width="10.1" height="9.8"/>
	<rect x="109.5" y="11.1" class="st0" width="10.1" height="9.8"/>
	<rect x="109.5" y="21.7" class="st0" width="10.1" height="9.8"/>
	<rect x="109.5" y="32.2" class="st0" width="10.1" height="9.8"/>
	<rect x="109.5" y="42.8" class="st0" width="10.1" height="9.8"/>
	<rect x="109.5" y="53.4" class="st0" width="10.1" height="9.8"/>
	<rect x="109.5" y="74.5" class="st0" width="10.1" height="9.8"/>
	<rect x="109.5" y="85.1" class="st0" width="10.1" height="9.8"/>
	<rect x="109.5" y="95.7" class="st0" width="10.1" height="9.8"/>
	<rect x="109.5" y="127.4" class="st0" width="10.1" height="9.8"/>
	<rect x="109.5" y="138" class="st0" width="10.1" height="9.8"/>
	<rect x="109.5" y="148.6" class="st0" width="10.1" height="9.8"/>
	<rect x="109.5" y="159.1" class="st0" width="10.1" height="9.8"/>
	<rect x="109.5" y="169.7" class="st0" width="10.1" height="9.8"/>
	<rect x="98.6" y="11.1" class="st0" width="10.1" height="9.8"/>
	<rect x="98.6" y="21.7" class="st0" width="10.1" height="9.8"/>
	<rect x="98.6" y="32.2" class="st0" width="10.1" height="9.8"/>
	<rect x="98.6" y="42.8" class="st0" width="10.1" height="9.8"/>
	<rect x="98.6" y="53.4" class="st0" width="10.1" height="9.8"/>
	<rect x="98.6" y="169.7" class="st0" width="10.1" height="9.8"/>
	<rect x="87.7" y="11.1" class="st0" width="10.1" height="9.8"/>
	<rect x="87.7" y="21.7" class="st0" width="10.1" height="9.8"/>
	<rect x="87.7" y="32.2" class="st0" width="10.1" height="9.8"/>
	<rect x="87.7" y="42.8" class="st0" width="10.1" height="9.8"/>
	<rect x="87.7" y="53.4" class="st0" width="10.1" height="9.8"/>
	<rect x="87.7" y="64" class="st0" width="10.1" height="9.8"/>
	<rect x="87.7" y="74.5" class="st0" width="10.1" height="9.8"/>
	<rect x="87.7" y="85.1" class="st0" width="10.1" height="9.8"/>
	<rect x="87.7" y="95.7" class="st0" width="10.1" height="9.8"/>
	<rect x="87.7" y="106.3" class="st0" width="10.1" height="9.8"/>
	<rect x="87.7" y="116.8" class="st0" width="10.1" height="9.8"/>
	<rect x="87.7" y="127.4" class="st0" width="10.1" height="9.8"/>
	<rect x="87.7" y="138" class="st0" width="10.1" height="9.8"/>
	<rect x="87.7" y="148.6" class="st0" width="10.1" height="9.8"/>
	<rect x="87.7" y="159.1" class="st0" width="10.1" height="9.8"/>
	<rect x="87.7" y="169.7" class="st0" width="10.1" height="9.8"/>
	<rect x="76.8" y="11.1" class="st0" width="10.1" height="9.8"/>
	<rect x="76.8" y="21.7" class="st0" width="10.1" height="9.8"/>
	<rect x="76.8" y="64" class="st0" width="10.1" height="9.8"/>
	<rect x="76.8" y="74.5" class="st0" width="10.1" height="9.8"/>
	<rect x="76.8" y="85.1" class="st0" width="10.1" height="9.8"/>
	<rect x="76.8" y="95.7" class="st0" width="10.1" height="9.8"/>
	<rect x="76.8" y="106.3" class="st0" width="10.1" height="9.8"/>
	<rect x="76.8" y="116.8" class="st0" width="10.1" height="9.8"/>
	<rect x="76.8" y="127.4" class="st0" width="10.1" height="9.8"/>
	<rect x="76.8" y="138" class="st0" width="10.1" height="9.8"/>
	<rect x="76.8" y="148.6" class="st0" width="10.1" height="9.8"/>
	<rect x="76.8" y="159.1" class="st0" width="10.1" height="9.8"/>
	<rect x="76.8" y="169.7" class="st0" width="10.1" height="9.8"/>
	<rect x="65.9" y="11.1" class="st0" width="10.1" height="9.8"/>
	<rect x="65.9" y="32.2" class="st0" width="10.1" height="9.8"/>
	<rect x="65.9" y="42.8" class="st0" width="10.1" height="9.8"/>
	<rect x="65.9" y="53.4" class="st0" width="10.1" height="9.8"/>
	<rect x="65.9" y="74.5" class="st0" width="10.1" height="9.8"/>
	<rect x="65.9" y="85.1" class="st0" width="10.1" height="9.8"/>
	<rect x="65.9" y="95.7" class="st0" width="10.1" height="9.8"/>
	<rect x="65.9" y="106.3" class="st0" width="10.1" height="9.8"/>
	<rect x="65.9" y="116.8" class="st0" width="10.1" height="9.8"/>
	<rect x="65.9" y="127.4" class="st0" width="10.1" height="9.8"/>
	<rect x="65.9" y="138" class="st0" width="10.1" height="9.8"/>
	<rect x="65.9" y="148.6" class="st0" width="10.1" height="9.8"/>
	<rect x="65.9" y="159.1" class="st0" width="10.1" height="9.8"/>
	<rect x="65.9" y="169.7" class="st0" width="10.1" height="9.8"/>
	<rect x="55" y="11.1" class="st0" width="10.1" height="9.8"/>
	<rect x="55" y="32.2" class="st0" width="10.1" height="9.8"/>
	<rect x="55" y="42.8" class="st0" width="10.1" height="9.8"/>
	<rect x="55" y="53.4" class="st0" width="10.1" height="9.8"/>
	<rect x="55" y="74.5" class="st0" width="10.1" height="9.8"/>
	<rect x="55" y="85.1" class="st0" width="10.1" height="9.8"/>
	<rect x="55" y="95.7" class="st0" width="10.1" height="9.8"/>
	<rect x="55" y="106.3" class="st0" width="10.1" height="9.8"/>
	<rect x="55" y="116.8" class="st0" width="10.1" height="9.8"/>
	<rect x="55" y="127.4" class="st0" width="10.1" height="9.8"/>
	<rect x="55" y="138" class="st0" width="10.1" height="9.8"/>
	<rect x="55" y="148.6" class="st0" width="10.1" height="9.8"/>
	<rect x="55" y="159.1" class="st0" width="10.1" height="9.8"/>
	<rect x="55" y="169.7" class="st0" width="10.1" height="9.8"/>
	<rect x="44.2" y="11.1" class="st0" width="10.1" height="9.8"/>
	<rect x="44.2" y="32.2" class="st0" width="10.1" height="9.8"/>
	<rect x="44.2" y="42.8" class="st0" width="10.1" height="9.8"/>
	<rect x="44.2" y="53.4" class="st0" width="10.1" height="9.8"/>
	<rect x="44.2" y="74.5" class="st0" width="10.1" height="9.8"/>
	<rect x="44.2" y="85.1" class="st0" width="10.1" height="9.8"/>
	<rect x="44.2" y="95.7" class="st0" width="10.1" height="9.8"/>
	<rect x="44.2" y="106.3" class="st0" width="10.1" height="9.8"/>
	<rect x="44.2" y="116.8" class="st0" width="10.1" height="9.8"/>
	<rect x="44.2" y="127.4" class="st0" width="10.1" height="9.8"/>
	<rect x="44.2" y="138" class="st0" width="10.1" height="9.8"/>
	<rect x="44.2" y="148.6" class="st0" width="10.1" height="9.8"/>
	<rect x="44.2" y="159.1" class="st0" width="10.1" height="9.8"/>
	<rect x="44.2" y="169.7" class="st0" width="10.1" height="9.8"/>
	<rect x="33.3" y="11.1" class="st0" width="10.1" height="9.8"/>
	<rect x="33.3" y="32.2" class="st0" width="10.1" height="9.8"/>
	<rect x="33.3" y="42.8" class="st0" width="10.1" height="9.8"/>
	<rect x="33.3" y="53.4" class="st0" width="10.1" height="9.8"/>
	<rect x="33.3" y="74.5" class="st0" width="10.1" height="9.8"/>
	<rect x="33.3" y="85.1" class="st0" width="10.1" height="9.8"/>
	<rect x="33.3" y="95.7" class="st0" width="10.1" height="9.8"/>
	<rect x="33.3" y="106.3" class="st0" width="10.1" height="9.8"/>
	<rect x="33.3" y="116.8" class="st0" width="10.1" height="9.8"/>
	<rect x="33.3" y="127.4" class="st0" width="10.1" height="9.8"/>
	<rect x="33.3" y="138" class="st0" width="10.1" height="9.8"/>
	<rect x="33.3" y="148.6" class="st0" width="10.1" height="9.8"/>
	<rect x="33.3" y="159.1" class="st0" width="10.1" height="9.8"/>
	<rect x="33.3" y="169.7" class="st0" width="10.1" height="9.8"/>
	<rect x="22.4" y="11.1" class="st0" width="10.1" height="9.8"/>
	<rect x="22.4" y="127.4" class="st0" width="10.1" height="9.8"/>
	<rect x="22.4" y="138" class="st0" width="10.1" height="9.8"/>
	<rect x="22.4" y="148.6" class="st0" width="10.1" height="9.8"/>
	<rect x="22.4" y="159.1" class="st0" width="10.1" height="9.8"/>
	<rect x="22.4" y="169.7" class="st0" width="10.1" height="9.8"/>
	<rect x="11.5" y="11.1" class="st0" width="10.1" height="9.8"/>
	<rect x="11.5" y="21.7" class="st0" width="10.1" height="9.8"/>
	<rect x="11.5" y="32.2" class="st0" width="10.1" height="9.8"/>
	<rect x="11.5" y="42.8" class="st0" width="10.1" height="9.8"/>
	<rect x="11.5" y="53.4" class="st0" width="10.1" height="9.8"/>
	<rect x="11.5" y="64" class="st0" width="10.1" height="9.8"/>
	<rect x="11.5" y="74.5" class="st0" width="10.1" height="9.8"/>
	<rect x="11.5" y="85.1" class="st0" width="10.1" height="9.8"/>
	<rect x="11.5" y="95.7" class="st0" width="10.1" height="9.8"/>
	<rect x="11.5" y="106.3" class="st0" width="10.1" height="9.8"/>
	<rect x="11.5" y="116.8" class="st0" width="10.1" height="9.8"/>
	<rect x="11.5" y="127.4" class="st0" width="10.1" height="9.8"/>
	<rect x="11.5" y="138" class="st0" width="10.1" height="9.8"/>
	<rect x="11.5" y="148.6" class="st0" width="10.1" height="9.8"/>
	<rect x="11.5" y="159.1" class="st0" width="10.1" height="9.8"/>
	<rect x="11.5" y="169.7" class="st0" width="10.1" height="9.8"/>
	<g>
		<g>
			<g>
				<rect x="153" y="74.5" class="st1" width="10.1" height="9.8"/>
			</g>
			<g>
				<rect x="153" y="85.1" class="st1" width="10.1" height="9.8"/>
			</g>
			<g>
				<rect x="153" y="95.7" class="st1" width="10.1" height="9.8"/>
			</g>
			<g>
				<rect x="153" y="159.1" class="st1" width="10.1" height="9.8"/>
			</g>
			<g>
				<rect x="142.1" y="64" class="st1" width="10.1" height="9.8"/>
			</g>
			<g>
				<rect x="142.1" y="106.3" class="st1" width="10.1" height="9.8"/>
			</g>
			<g>
				<rect x="142.1" y="148.6" class="st1" width="10.1" height="9.8"/>
			</g>
			<g>
				<rect x="131.2" y="64" class="st1" width="10.1" height="9.8"/>
			</g>
			<g>
				<rect x="131.2" y="106.3" class="st1" width="10.1" height="9.8"/>
			</g>
			<g>
				<rect x="131.2" y="138" class="st1" width="10.1" height="9.8"/>
			</g>
			<g>
				<rect x="120.3" y="64" class="st1" width="10.1" height="9.8"/>
			</g>
			<g>
				<rect x="120.3" y="106.3" class="st1" width="10.1" height="9.8"/>
			</g>
			<g>
				<rect x="120.3" y="127.4" class="st1" width="10.1" height="9.8"/>
			</g>
			<g>
				<rect x="109.5" y="64" class="st1" width="10.1" height="9.8"/>
			</g>
			<g>
				<rect x="109.5" y="106.3" class="st1" width="10.1" height="9.8"/>
			</g>
			<g>
				<rect x="109.5" y="116.8" class="st1" width="10.1" height="9.8"/>
			</g>
			<g>
				<rect x="98.6" y="64" class="st1" width="10.1" height="9.8"/>
			</g>
			<g>
				<rect x="98.6" y="74.5" class="st1" width="10.1" height="9.8"/>
			</g>
			<g>
				<rect x="98.6" y="85.1" class="st1" width="10.1" height="9.8"/>
			</g>
			<g>
				<rect x="98.6" y="95.7" class="st1" width="10.1" height="9.8"/>
			</g>
			<g>
				<rect x="98.6" y="106.3" class="st1" width="10.1" height="9.8"/>
			</g>
			<g>
				<rect x="98.6" y="116.8" class="st1" width="10.1" height="9.8"/>
			</g>
			<g>
				<rect x="98.6" y="127.4" class="st1" width="10.1" height="9.8"/>
			</g>
			<g>
				<rect x="98.6" y="138" class="st1" width="10.1" height="9.8"/>
			</g>
			<g>
				<rect x="98.6" y="148.6" class="st1" width="10.1" height="9.8"/>
			</g>
			<g>
				<rect x="98.6" y="159.1" class="st1" width="10.1" height="9.8"/>
			</g>
			<g>
				<rect x="76.8" y="32.2" class="st1" width="10.1" height="9.8"/>
			</g>
			<g>
				<rect x="76.8" y="42.8" class="st1" width="10.1" height="9.8"/>
			</g>
			<g>
				<rect x="76.8" y="53.4" class="st1" width="10.1" height="9.8"/>
			</g>
			<g>
				<rect x="65.9" y="21.7" class="st1" width="10.1" height="9.8"/>
			</g>
			<g>
				<rect x="65.9" y="64" class="st1" width="10.1" height="9.8"/>
			</g>
			<g>
				<rect x="55" y="21.7" class="st1" width="10.1" height="9.8"/>
			</g>
			<g>
				<rect x="55" y="64" class="st1" width="10.1" height="9.8"/>
			</g>
			<g>
				<rect x="44.2" y="21.7" class="st1" width="10.1" height="9.8"/>
			</g>
			<g>
				<rect x="44.2" y="64" class="st1" width="10.1" height="9.8"/>
			</g>
			<g>
				<rect x="33.3" y="21.7" class="st1" width="10.1" height="9.8"/>
			</g>
			<g>
				<rect x="33.3" y="64" class="st1" width="10.1" height="9.8"/>
			</g>
			<g>
				<rect x="22.4" y="21.7" class="st1" width="10.1" height="9.8"/>
			</g>
			<g>
				<rect x="22.4" y="32.2" class="st1" width="10.1" height="9.8"/>
			</g>
			<g>
				<rect x="22.4" y="42.8" class="st1" width="10.1" height="9.8"/>
			</g>
			<g>
				<rect x="22.4" y="53.4" class="st1" width="10.1" height="9.8"/>
			</g>
			<g>
				<rect x="22.4" y="64" class="st1" width="10.1" height="9.8"/>
			</g>
			<g>
				<rect x="22.4" y="74.5" class="st1" width="10.1" height="9.8"/>
			</g>
			<g>
				<rect x="22.4" y="85.1" class="st1" width="10.1" height="9.8"/>
			</g>
			<g>
				<rect x="22.4" y="95.7" class="st1" width="10.1" height="9.8"/>
			</g>
			<g>
				<rect x="22.4" y="106.3" class="st1" width="10.1" height="9.8"/>
			</g>
			<g>
				<rect x="22.4" y="116.8" class="st1" width="10.1" height="9.8"/>
			</g>
			<g>
				<rect x="0.6" y="0.5" class="st1" width="10.1" height="9.8"/>
			</g>
			<g>
				<rect x="0.6" y="11.1" class="st1" width="10.1" height="9.8"/>
			</g>
			<g>
				<rect x="0.6" y="21.7" class="st1" width="10.1" height="9.8"/>
			</g>
			<g>
				<rect x="0.6" y="32.2" class="st1" width="10.1" height="9.8"/>
			</g>
			<g>
				<rect x="0.6" y="42.8" class="st1" width="10.1" height="9.8"/>
			</g>
			<g>
				<rect x="0.6" y="53.4" class="st1" width="10.1" height="9.8"/>
			</g>
			<g>
				<rect x="0.6" y="64" class="st1" width="10.1" height="9.8"/>
			</g>
			<g>
				<rect x="0.6" y="74.5" class="st1" width="10.1" height="9.8"/>
			</g>
			<g>
				<rect x="0.6" y="85.1" class="st1" width="10.1" height="9.8"/>
			</g>
			<g>
				<rect x="0.6" y="95.7" class="st1" width="10.1" height="9.8"/>
			</g>
			<g>
				<rect x="0.6" y="106.3" class="st1" width="10.1" height="9.8"/>
			</g>
			<g>
				<rect x="0.6" y="116.8" class="st1" width="10.1" height="9.8"/>
			</g>
			<g>
				<rect x="0.6" y="127.4" class="st1" width="10.1" height="9.8"/>
			</g>
			<g>
				<rect x="0.6" y="138" class="st1" width="10.1" height="9.8"/>
			</g>
			<g>
				<rect x="0.6" y="148.6" class="st1" width="10.1" height="9.8"/>
			</g>
			<g>
				<rect x="0.6" y="159.1" class="st1" width="10.1" height="9.8"/>
			</g>
			<g>
				<rect x="0.6" y="169.7" class="st1" width="10.1" height="9.8"/>
			</g>
			<g>
				<rect x="174.8" y="11.1" class="st1" width="10.1" height="9.8"/>
			</g>
			<g>
				<rect x="174.8" y="21.7" class="st1" width="10.1" height="9.8"/>
			</g>
			<g>
				<rect x="174.8" y="32.2" class="st1" width="10.1" height="9.8"/>
			</g>
			<g>
				<rect x="174.8" y="42.8" class="st1" width="10.1" height="9.8"/>
			</g>
			<g>
				<rect x="174.8" y="53.4" class="st1" width="10.1" height="9.8"/>
			</g>
			<g>
				<rect x="174.8" y="64" class="st1" width="10.1" height="9.8"/>
			</g>
			<g>
				<rect x="174.8" y="74.5" class="st1" width="10.1" height="9.8"/>
			</g>
			<g>
				<rect x="174.8" y="85.1" class="st1" width="10.1" height="9.8"/>
			</g>
			<g>
				<rect x="174.8" y="95.7" class="st1" width="10.1" height="9.8"/>
			</g>
			<g>
				<rect x="174.8" y="106.3" class="st1" width="10.1" height="9.8"/>
			</g>
			<g>
				<rect x="174.8" y="116.8" class="st1" width="10.1" height="9.8"/>
			</g>
			<g>
				<rect x="174.8" y="127.4" class="st1" width="10.1" height="9.8"/>
			</g>
			<g>
				<rect x="174.8" y="138" class="st1" width="10.1" height="9.8"/>
			</g>
			<g>
				<rect x="174.8" y="148.6" class="st1" width="10.1" height="9.8"/>
			</g>
			<g>
				<rect x="174.8" y="159.1" class="st1" width="10.1" height="9.8"/>
			</g>
			<g>
				<rect x="174.8" y="169.7" class="st1" width="10.1" height="9.8"/>
			</g>
			<g>
				<rect x="0.6" y="180.3" class="st1" width="10.1" height="9.8"/>
			</g>
			<g>
				<rect x="11.5" y="0.5" class="st1" width="10.1" height="9.8"/>
			</g>
			<g>
				<rect x="22.4" y="0.5" class="st1" width="10.1" height="9.8"/>
			</g>
			<g>
				<rect x="33.3" y="0.5" class="st1" width="10.1" height="9.8"/>
			</g>
			<g>
				<rect x="44.2" y="0.5" class="st1" width="10.1" height="9.8"/>
			</g>
			<g>
				<rect x="55" y="0.5" class="st1" width="10.1" height="9.8"/>
			</g>
			<g>
				<rect x="65.9" y="0.5" class="st1" width="10.1" height="9.8"/>
			</g>
			<g>
				<rect x="76.8" y="0.5" class="st1" width="10.1" height="9.8"/>
			</g>
			<g>
				<rect x="87.7" y="0.5" class="st1" width="10.1" height="9.8"/>
			</g>
			<g>
				<rect x="98.6" y="0.5" class="st1" width="10.1" height="9.8"/>
			</g>
			<g>
				<rect x="109.5" y="0.5" class="st1" width="10.1" height="9.8"/>
			</g>
			<g>
				<rect x="120.3" y="0.5" class="st1" width="10.1" height="9.8"/>
			</g>
			<g>
				<rect x="131.2" y="0.5" class="st1" width="10.1" height="9.8"/>
			</g>
			<g>
				<rect x="142.1" y="0.5" class="st1" width="10.1" height="9.8"/>
			</g>
			<g>
				<rect x="153" y="0.5" class="st1" width="10.1" height="9.8"/>
			</g>
			<g>
				<rect x="163.9" y="0.5" class="st1" width="10.1" height="9.8"/>
			</g>
			<g>
				<rect x="174.8" y="0.5" class="st1" width="10.1" height="9.8"/>
			</g>
			<g>
				<rect x="11.5" y="180.3" class="st1" width="10.1" height="9.8"/>
			</g>
			<g>
				<rect x="22.4" y="180.3" class="st1" width="10.1" height="9.8"/>
			</g>
			<g>
				<rect x="33.3" y="180.3" class="st1" width="10.1" height="9.8"/>
			</g>
			<g>
				<rect x="44.2" y="180.3" class="st1" width="10.1" height="9.8"/>
			</g>
			<g>
				<rect x="55" y="180.3" class="st1" width="10.1" height="9.8"/>
			</g>
			<g>
				<rect x="65.9" y="180.3" class="st1" width="10.1" height="9.8"/>
			</g>
			<g>
				<rect x="76.8" y="180.3" class="st1" width="10.1" height="9.8"/>
			</g>
			<g>
				<rect x="87.7" y="180.3" class="st1" width="10.1" height="9.8"/>
			</g>
			<g>
				<rect x="98.6" y="180.3" class="st1" width="10.1" height="9.8"/>
			</g>
			<g>
				<rect x="109.5" y="180.3" class="st1" width="10.1" height="9.8"/>
			</g>
			<g>
				<rect x="120.3" y="180.3" class="st1" width="10.1" height="9.8"/>
			</g>
			<g>
				<rect x="131.2" y="180.3" class="st1" width="10.1" height="9.8"/>
			</g>
			<g>
				<rect x="142.1" y="180.3" class="st1" width="10.1" height="9.8"/>
			</g>
			<g>
				<rect x="153" y="180.3" class="st1" width="10.1" height="9.8"/>
			</g>
			<g>
				<rect x="163.9" y="180.3" class="st1" width="10.1" height="9.8"/>
			</g>
			<g>
				<rect x="174.8" y="180.3" class="st1" width="10.1" height="9.8"/>
			</g>
		</g>
	</g>
	<g>
		<g>
			<path class="st1" d="M23.1,166.6L23.1,166.6c-0.1,0.1-0.1,0.1-0.1,0.1c0,0.1,0,0.2,0,0.3s0,0.1,0,0.1v0.1c0,0,0,0,0,0.1l0,0
				c0,0,0,0,0,0.1c0,0,0,0,0,0.1s0,0.1,0,0.1c-0.1,0.1-0.1,0.1,0,0.2s0,0.2,0,0.2s0,0,0.1,0c0,0.1,0,0.1,0,0.2v0.1v0.1
				c0,0.2,0,0.3,0,0.3c0,0.1,0,0.1,0,0.2c0,0.1,0,0.1,0,0.2c0,0.1,0,0.2,0,0.3l0,0c0,0,0,0,0,0.1l0,0v0.1l0,0l0,0v0.1l0,0l0,0
				c0,0,0,0,0.1,0c0,0.1,0,0.2,0,0.3s0.1,0.2,0,0.3l0,0c0-0.1,0-0.1-0.1-0.2v0.1c0,0,0,0,0.1,0l0,0l0,0l0,0c0,0.1,0,0.1-0.1,0.1
				c0,0,0,0,0,0.1l0,0l0,0l0,0l0,0c-0.1,0-0.1,0-0.1,0l0,0l0,0c0,0,0,0-0.1-0.1c0-0.1,0-0.2-0.1-0.2c0,0,0-0.1-0.1-0.2
				c0-0.1,0-0.2,0-0.2s-0.1-0.1-0.1-0.2c0-0.3,0-0.5,0-0.6s0-0.2,0-0.3s0-0.2,0-0.3s0-0.3,0-0.6c0,0,0-0.1,0-0.2s0-0.2,0-0.2
				s0,0,0-0.1s0,0,0-0.1l0,0l0,0c0-0.3,0-0.5,0-0.8s0.1-0.5,0.1-0.8l0,0l0,0l0,0l0,0c0-0.2,0-0.5,0.1-0.8s0.1-0.6,0.1-0.8l-0.1-0.1
				c0,0,0,0,0,0.1s0,0-0.1,0c0,0,0,0,0-0.1h-0.1l0,0l0,0c-0.1,0-0.2,0.1-0.4,0.1c-0.1,0-0.3,0-0.4,0.1c0,0,0,0,0.1-0.1h-0.1
				l-0.1,0.1h-0.1c0,0,0,0-0.1,0v-0.1c0,0,0,0.1-0.1,0.1l-0.1,0.1l0,0l0,0c-0.1,0-0.2,0-0.2,0.1c-0.1,0-0.2,0-0.2,0h-0.1
				c0,0,0,0-0.1,0h-0.1h-0.1h-0.1c-0.2,0.1-0.5,0.1-0.7,0.1c-0.3,0-0.5,0-0.7,0.1c-0.4,0.7-0.8,1.4-1.1,2.2s-0.8,1.5-1.2,2.1
				c-0.1,0-0.2,0-0.3,0s-0.1,0-0.2-0.1c-0.1,0-0.1-0.1-0.2-0.1c-0.1,0-0.1-0.1-0.2-0.1c0-0.1,0-0.1,0.1-0.1c0.3-0.6,0.6-1.2,0.9-1.8
				c0.3-0.6,0.6-1.2,0.9-1.8c0,0,0,0-0.1,0c0,0,0,0-0.1,0l0,0c-0.2,0-0.4,0.1-0.6,0.1s-0.4,0.1-0.6,0.1c-0.1,0.1-0.3,0.1-0.5,0.1
				s-0.3,0-0.5,0.1c-0.1,0-0.1,0-0.2,0.1s-0.1,0-0.1,0.1h-0.1h-0.1h-0.1h-0.1c0-0.1,0-0.2-0.1-0.3c0-0.1-0.1-0.2-0.1-0.3
				c0.1,0,0.1,0,0.1,0c0.2-0.1,0.3-0.1,0.5-0.2c0.2,0,0.3-0.1,0.5-0.1s0.3-0.1,0.5-0.1s0.3-0.1,0.5-0.1c0.3-0.1,0.5-0.1,0.8-0.2
				c0.3-0.1,0.5-0.1,0.8-0.2c0,0,0,0,0-0.1v-0.1c0.1,0,0.1-0.1,0.1-0.1s0.1-0.1,0.1-0.2c0.6-1,1.3-2.1,1.9-3.1s1.4-2,2.2-2.9
				c0.1-0.1,0.2-0.2,0.3-0.3s0.2-0.2,0.3-0.3c0-0.1,0.1-0.1,0.1-0.1c0.1,0,0.2-0.1,0.2-0.1c0.1-0.1,0.1-0.1,0.2-0.2s0.2-0.1,0.2-0.2
				c0.1,0,0.2-0.1,0.3-0.1s0.2,0.1,0.3,0.2s0.1,0.3,0.2,0.4c0.1,0.1,0.2,0.2,0.2,0.2c0,0.1,0.1,0.2,0,0.4c0,0.1,0,0.2,0,0.2
				c0,0.1,0,0.1,0,0.2c0,0.1,0,0.2-0.1,0.2c0,0.1,0,0.1-0.1,0.2c0,0,0,0,0,0.1v0.1c0,0.1,0,0.2-0.1,0.2c0,0.1-0.1,0.2-0.1,0.2
				c0,0.1,0,0.2,0,0.2s0,0.2,0,0.3s0,0.1-0.1,0.2s-0.1,0.1-0.1,0.2c-0.1,0.4-0.2,0.8-0.2,1.1c-0.1,0.3-0.1,0.7-0.2,1.1l0,0l0,0l0,0
				c0,0.1,0,0.1,0,0.1s0,0.1-0.1,0.1l0,0c0,0,0,0,0,0.1l0,0l0,0c0,0.1,0,0.2,0,0.2c0,0.1,0,0.2,0,0.2s0,0,0,0.1s0,0.1,0,0.1
				c0.2,0,0.4,0,0.6,0c0.2,0,0.4,0,0.6,0h-0.1c0,0-0.1,0-0.2,0h0.3c0,0-0.1,0.1-0.1,0c0,0-0.1,0-0.2,0h0.1c-0.1,0.1-0.2,0.1-0.3,0
				c-0.1,0-0.2,0-0.3,0l0,0l0,0c-0.1,0-0.2,0-0.2,0c-0.1,0-0.2,0-0.2,0c0.1,0,0.1,0,0.2,0s0.2,0,0.3,0c-0.1,0.1-0.1,0.1-0.2,0.1
				c-0.1,0-0.1,0-0.2,0c0,0,0,0,0-0.1h-0.1v0.1c0,0,0,0-0.1,0c0.2,0,0.4,0,0.5,0c0.2,0,0.3,0,0.5,0c-0.1,0-0.1,0-0.1,0h-0.1l0,0l0,0
				h-0.1c0,0,0,0-0.1,0l0,0l0,0c-0.1,0-0.3,0-0.4,0c-0.1,0-0.3,0-0.4,0c0.1,0,0.1,0.1,0.1,0.1l-0.1,0.1l0,0c-0.1,0-0.1,0-0.1,0l0,0
				c0,0,0,0,0-0.1l0,0l0,0l0,0l0,0l0,0l0,0l0,0l0,0l0,0l0,0l0,0l0,0c0,0-0.1,0,0,0l0,0l0,0l0,0v0.1v0.1l0,0v-0.1c0,0,0,0,0,0.1
				s0,0.2,0,0.2c0,0.1,0,0.2,0,0.2c0,0.1,0,0.1,0,0.1c0,0.1,0,0.2,0,0.4c-0.1,0.2-0.1,0.6-0.2,1.1c0,0,0,0-0.1,0L23.1,166.6z
				 M21.9,163.5L21.9,163.5C21.8,163.4,21.9,163.4,21.9,163.5L21.9,163.5c0.2,0,0.2,0,0.2-0.1h0.1l0,0c0.1,0,0.2,0,0.2,0
				s0.1,0,0.2,0c0,0,0,0-0.1,0l0,0c0.1,0,0.1,0,0.1,0h0.1c0.1-0.3,0.1-0.6,0.1-0.9s0.1-0.6,0.1-0.9l0.2-0.6c0,0,0,0,0-0.1s0,0,0-0.1
				l0,0c0,0,0-0.1,0-0.2c0-0.1,0-0.1,0-0.1c0.1-0.1,0.1-0.2,0.1-0.3s0-0.2,0.1-0.3c0-0.1,0-0.1,0-0.2v-0.1l0.1-0.5
				c0-0.1,0.1-0.2,0.1-0.3s0.1-0.2,0.1-0.3v-0.1c0-0.1,0-0.3,0.1-0.4c0-0.1,0.1-0.2,0.1-0.4c-0.2,0.1-0.3,0.2-0.4,0.3
				s-0.2,0.2-0.4,0.4c-0.2,0.3-0.4,0.5-0.6,0.7c-0.2,0.2-0.4,0.5-0.6,0.8c-0.1,0.1-0.2,0.3-0.3,0.4c-0.1,0.2-0.2,0.3-0.3,0.5v0.1
				l0,0c-0.3,0.5-0.6,0.9-0.9,1.4c-0.3,0.5-0.6,0.9-0.9,1.4c0,0.1,0,0.1-0.1,0.1c0,0-0.1,0.1,0,0.1s0.2-0.1,0.3-0.1h-0.1
				c0.2,0,0.4-0.1,0.5-0.1s0.3,0,0.5,0l0,0c0.1,0,0.1,0,0.1,0l0,0l0,0l0,0c0.2,0,0.4-0.1,0.6-0.1c0.2,0,0.4-0.1,0.5,0l0,0l0,0
				L21.9,163.5z M20.3,163.7c0.1,0,0.1,0,0.1-0.1C20.4,163.6,20.3,163.6,20.3,163.7L20.3,163.7C20.3,163.6,20.3,163.6,20.3,163.7
				L20.3,163.7L20.3,163.7z M20.3,163.6L20.3,163.6L20.3,163.6L20.3,163.6C20.4,163.6,20.4,163.6,20.3,163.6L20.3,163.6L20.3,163.6z
				 M20.7,164.4L20.7,164.4C20.6,164.4,20.6,164.4,20.7,164.4C20.6,164.4,20.7,164.4,20.7,164.4z M20.7,163.5L20.7,163.5L20.7,163.5
				C20.7,163.5,20.7,163.6,20.7,163.5L20.7,163.5z M21.3,164.2L21.3,164.2L21.3,164.2L21.3,164.2L21.3,164.2L21.3,164.2L21.3,164.2
				L21.3,164.2L21.3,164.2z M21.3,164.2L21.3,164.2L21.3,164.2L21.3,164.2L21.3,164.2L21.3,164.2L21.3,164.2L21.3,164.2L21.3,164.2z
				 M21.5,164.2C21.5,164.3,21.4,164.3,21.5,164.2C21.4,164.3,21.4,164.2,21.5,164.2z M21.9,163.9L21.9,163.9L21.9,163.9L21.9,163.9
				L21.9,163.9L21.9,163.9L21.9,163.9C21.9,163.8,21.9,163.8,21.9,163.9z M21.9,163.9L21.9,163.9L21.9,163.9L21.9,163.9L21.9,163.9
				L21.9,163.9L21.9,163.9C21.9,163.8,21.9,163.8,21.9,163.9z M22,164.2L22,164.2L22,164.2L22,164.2L22,164.2h0.2l0,0l0,0l0,0l0,0
				l0,0l0,0l0,0C22.1,164.1,22.1,164.1,22,164.2L22,164.2L22,164.2z M22.3,164.1L22.3,164.1L22.3,164.1L22.3,164.1
				C22.2,164.1,22.2,164.1,22.3,164.1L22.3,164.1L22.3,164.1L22.3,164.1h-0.2l0,0H22.3L22.3,164.1L22.3,164.1L22.3,164.1L22.3,164.1
				L22.3,164.1z M22.1,163.9L22.1,163.9L22.1,163.9L22.1,163.9h0.2l0,0l0,0l0,0c0,0,0,0,0.1,0H22.1
				C22.2,163.9,22.2,163.9,22.1,163.9C22,163.9,22.2,163.8,22.1,163.9L22.1,163.9L22.1,163.9C22.1,163.8,22.1,163.8,22.1,163.9
				L22.1,163.9L22.1,163.9z M22.1,163.9L22.1,163.9L22.1,163.9L22.1,163.9h0.2l0,0l0,0l0,0c0,0,0,0,0.1,0H22.1
				C22.2,163.9,22.2,163.9,22.1,163.9C22,163.9,22.2,163.8,22.1,163.9L22.1,163.9L22.1,163.9C22.1,163.8,22.1,163.8,22.1,163.9
				L22.1,163.9L22.1,163.9z M22.2,163.7L22.2,163.7L22.2,163.7L22.2,163.7L22.2,163.7L22.2,163.7L22.2,163.7L22.2,163.7L22.2,163.7
				L22.2,163.7L22.2,163.7L22.2,163.7L22.2,163.7z M22.2,163.7L22.2,163.7L22.2,163.7L22.2,163.7L22.2,163.7L22.2,163.7L22.2,163.7
				L22.2,163.7L22.2,163.7L22.2,163.7L22.2,163.7L22.2,163.7L22.2,163.7z M22.5,163.9L22.5,163.9L22.5,163.9L22.5,163.9
				C22.4,163.9,22.4,163.9,22.5,163.9L22.5,163.9L22.5,163.9z M22.3,163.9L22.3,163.9L22.3,163.9L22.3,163.9L22.3,163.9L22.3,163.9
				C22.4,163.9,22.3,163.9,22.3,163.9z M22.4,168.4c0,0.1,0,0.1,0,0.1v0.1c0,0,0,0,0-0.1S22.4,168.4,22.4,168.4z M22.4,167.9
				L22.4,167.9L22.4,167.9L22.4,167.9C22.4,168,22.4,168,22.4,167.9L22.4,167.9L22.4,167.9L22.4,167.9L22.4,167.9L22.4,167.9
				L22.4,167.9z M22.4,167.9L22.4,167.9L22.4,167.9L22.4,167.9C22.4,168,22.4,168,22.4,167.9L22.4,167.9L22.4,167.9L22.4,167.9
				L22.4,167.9L22.4,167.9L22.4,167.9z M22.6,163.8L22.6,163.8L22.6,163.8L22.6,163.8L22.6,163.8L22.6,163.8L22.6,163.8L22.6,163.8
				L22.6,163.8l0.1,0.1l0,0L22.6,163.8C22.7,163.8,22.7,163.8,22.6,163.8L22.6,163.8L22.6,163.8L22.6,163.8L22.6,163.8L22.6,163.8
				C22.7,163.8,22.7,163.8,22.6,163.8L22.6,163.8L22.6,163.8L22.6,163.8z M22.6,163.8L22.6,163.8L22.6,163.8L22.6,163.8L22.6,163.8
				L22.6,163.8L22.6,163.8L22.6,163.8L22.6,163.8l0.1,0.1l0,0L22.6,163.8C22.7,163.8,22.7,163.8,22.6,163.8L22.6,163.8L22.6,163.8
				L22.6,163.8L22.6,163.8L22.6,163.8C22.7,163.8,22.7,163.8,22.6,163.8L22.6,163.8L22.6,163.8L22.6,163.8z M22.5,168.7L22.5,168.7
				C22.6,168.7,22.6,168.7,22.5,168.7C22.6,168.7,22.6,168.7,22.5,168.7z M22.5,168.4c0,0.1,0,0.1,0,0.1v0.1v-0.1
				C22.6,168.4,22.6,168.4,22.5,168.4z M22.6,164.1L22.6,164.1L22.6,164.1L22.6,164.1L22.6,164.1z M22.6,169.9L22.6,169.9
				c0,0.1,0,0.1,0,0.1C22.7,170,22.6,169.9,22.6,169.9z M22.7,168.1c0,0.1,0,0.1,0,0.1v0.1l0,0l0,0
				C22.7,168.3,22.7,168.3,22.7,168.1C22.7,168.2,22.7,168.1,22.7,168.1z M22.8,167.5L22.8,167.5C22.8,167.4,22.8,167.4,22.8,167.5
				L22.8,167.5L22.8,167.5L22.8,167.5L22.8,167.5L22.8,167.5z M22.8,167.4L22.8,167.4L22.8,167.4L22.8,167.4L22.8,167.4L22.8,167.4
				L22.8,167.4L22.8,167.4z M22.8,167.5c0,0.1,0,0.1,0,0.2c0,0,0,0.1,0,0.2c0,0,0-0.1,0-0.2S22.8,167.5,22.8,167.5z M22.8,167v0.1
				c0,0.1,0,0.1,0,0.1c0-0.1,0-0.1,0-0.1S22.8,167.1,22.8,167z M22.8,170L22.8,170C22.8,170,22.8,170.1,22.8,170c0,0.1,0,0.1,0,0.1
				C22.8,170.2,22.8,170.2,22.8,170C22.8,170.1,22.8,170.1,22.8,170z M22.8,170.4L22.8,170.4L22.8,170.4z M22.8,169.9L22.8,169.9
				L22.8,169.9z M22.9,170.4L22.9,170.4L22.9,170.4L22.9,170.4z M23.5,163.7L23.5,163.7L23.5,163.7L23.5,163.7l0.1-0.1l0,0l0,0l0,0
				l0,0l0,0l0,0l0,0L23.5,163.7L23.5,163.7L23.5,163.7z M23.5,163.7L23.5,163.7L23.5,163.7L23.5,163.7l0.1-0.1l0,0l0,0l0,0l0,0l0,0
				l0,0l0,0L23.5,163.7L23.5,163.7L23.5,163.7z M23.5,163L23.5,163L23.5,163L23.5,163L23.5,163L23.5,163L23.5,163L23.5,163L23.5,163
				z M23.6,163L23.6,163L23.6,163L23.6,163L23.6,163L23.6,163L23.6,163L23.6,163L23.6,163z M23.6,163.9L23.6,163.9L23.6,163.9
				L23.6,163.9C23.6,163.9,23.5,163.9,23.6,163.9L23.6,163.9L23.6,163.9L23.6,163.9L23.6,163.9L23.6,163.9L23.6,163.9L23.6,163.9z
				 M23.6,163.9L23.6,163.9C23.6,163.9,23.5,163.9,23.6,163.9L23.6,163.9L23.6,163.9L23.6,163.9L23.6,163.9L23.6,163.9L23.6,163.9
				L23.6,163.9L23.6,163.9L23.6,163.9L23.6,163.9z M23.6,164.5C23.6,164.6,23.5,164.6,23.6,164.5C23.5,164.6,23.6,164.5,23.6,164.5
				L23.6,164.5z M23.6,164.3c0,0,0,0.1-0.1,0.2C23.6,164.5,23.6,164.4,23.6,164.3L23.6,164.3z M23.6,164.1L23.6,164.1L23.6,164.1
				L23.6,164.1z M23.9,163.8C23.9,163.9,23.8,163.9,23.9,163.8L23.9,163.8z M23.9,163.9L23.9,163.9L23.9,163.9
				C23.8,163.9,23.9,163.9,23.9,163.9z M23.9,157.3L23.9,157.3L23.9,157.3L23.9,157.3L23.9,157.3L23.9,157.3L23.9,157.3z
				 M23.9,157.3L23.9,157.3L23.9,157.3L23.9,157.3L23.9,157.3L23.9,157.3L23.9,157.3z M24.1,163.8C24.2,163.8,24.2,163.8,24.1,163.8
				h0.2l-0.1,0.1c0,0-0.1,0-0.2,0C24,163.9,24,163.9,24.1,163.8C24,163.8,24.1,163.8,24.1,163.8z M24.6,163.6
				C24.5,163.6,24.5,163.6,24.6,163.6c-0.1,0-0.2,0-0.2,0s0,0,0.1,0C24.5,163.6,24.5,163.6,24.6,163.6z M24.5,163.8L24.5,163.8
				c-0.1,0-0.2,0-0.2,0C24.4,163.8,24.4,163.8,24.5,163.8C24.4,163.8,24.5,163.8,24.5,163.8z"/>
			<path class="st1" d="M29,167C29,167.1,29,167.1,29,167C28.9,167,28.9,167,29,167c-0.1,0-0.1,0-0.2,0c0,0.1-0.1,0.1-0.1,0.2
				c0,0-0.1,0.1-0.1,0c0,0,0,0-0.1,0.1s-0.1,0-0.1,0.1l0,0c0,0-0.1,0-0.2,0.1c-0.1,0-0.2,0.1-0.3,0.1s-0.2,0.1-0.3,0.1
				s-0.1,0.1-0.2,0.1c-0.1,0-0.1,0-0.2,0c-0.1,0-0.2,0.1-0.2,0.1c-0.1,0-0.3,0.1-0.5,0.1s-0.4,0-0.6,0c-0.1,0-0.1,0-0.1,0l0,0l0,0
				c0,0,0,0-0.1,0v-0.1c0,0,0,0-0.1,0c0,0,0,0-0.1-0.1s-0.1,0-0.1,0c-0.2-0.2-0.4-0.4-0.5-0.7s-0.2-0.5-0.2-0.9v-0.1V166v-0.7
				c0,0,0,0,0-0.1c0,0,0,0,0-0.1v-0.4v-0.1c0,0,0,0,0-0.1l0,0l0,0l0,0l0,0l0.1-0.3c0,0,0,0,0-0.1c0,0,0,0,0-0.1c0,0,0,0,0.1,0
				c0-0.1,0-0.1,0-0.2s0-0.1,0-0.1l0,0c0,0,0,0,0-0.1l0,0c0-0.2,0.1-0.3,0.1-0.4c0.1-0.1,0.1-0.3,0.1-0.4c0.1,0,0.1-0.1,0.1-0.1
				s0,0,0-0.1v-0.1l0,0l0,0c0.1-0.1,0.2-0.3,0.2-0.4c0.2-0.2,0.3-0.5,0.4-0.7c0,0,0.1,0,0.1-0.1v-0.1c0.1-0.1,0.1-0.2,0.2-0.3
				c0.1-0.1,0.1-0.2,0.2-0.3c0-0.1,0.1-0.2,0.1-0.2c0.1-0.1,0.1-0.2,0.2-0.2c0.2-0.3,0.4-0.5,0.6-0.8s0.4-0.5,0.8-0.7
				c0.1-0.1,0.1-0.1,0.2-0.1c0.1,0,0.1,0,0.2-0.1c0.3-0.2,0.5-0.1,0.8,0c0.1,0,0.1,0.1,0.2,0.1c0.1,0,0.1,0.1,0.2,0.1h0.1
				c0,0,0,0,0,0.1c0,0,0,0,0,0.1c0,0,0,0,0,0.1c0,0,0,0,0,0.1v0.1c0,0.1-0.1,0.1-0.1,0.2v0.2l-0.1,0.1c0,0.1-0.1,0.2-0.1,0.3
				s-0.1,0.2-0.1,0.2c-0.1,0.3-0.2,0.5-0.4,0.7s-0.3,0.4-0.5,0.7c-0.1,0.1-0.2,0.3-0.3,0.4c-0.1,0.2-0.2,0.3-0.3,0.4
				c0,0-0.1,0-0.1,0.1s-0.1,0.1-0.1,0.1c-0.1,0.1-0.3,0.3-0.3,0.4c-0.1,0.1-0.2,0.3-0.3,0.4c0,0.1-0.1,0.1-0.1,0.2s-0.1,0.1-0.1,0.2
				c0,0,0,0-0.1,0c0,0,0,0,0,0.1c-0.1,0-0.1,0.1-0.2,0.2c0,0.1-0.1,0.1-0.1,0.2c0,0,0,0.1-0.1,0.1l-0.1,0.1
				c-0.1,0.1-0.2,0.2-0.3,0.3s-0.2,0.3-0.4,0.4c0,0,0,0-0.1,0v0.1c-0.1,0.2-0.1,0.5-0.1,0.8s0,0.6,0.1,0.9c0,0.2,0.1,0.3,0.1,0.3
				s0,0,0.1,0l0,0c0,0,0,0.1,0,0.2l0,0l0,0l0,0c0.2,0,0.4,0,0.4,0s0.2,0,0.3-0.1c0.2-0.1,0.3-0.1,0.5-0.2c0.2-0.1,0.3-0.1,0.5-0.2
				l0,0l0,0l0,0l0,0l0,0l0,0l0,0l0,0c0.2-0.1,0.4-0.2,0.5-0.4c0.2-0.1,0.3-0.3,0.5-0.4v-0.1c0,0,0,0,0-0.1l0,0l0,0
				c0.1-0.1,0.2-0.1,0.3-0.1s0.1-0.1,0.1-0.2l0,0l0,0c0-0.1,0.1-0.1,0.1-0.1s0,0,0.1,0c0,0,0,0,0.1,0s0.1-0.1,0.1-0.1v-0.1l0,0l0,0
				l0,0c0.1-0.1,0.2-0.2,0.3-0.3s0.1-0.1,0.1-0.1c0.1-0.1,0.1-0.1,0.1-0.1l0,0l0,0c0,0,0,0,0.1-0.1c0.1,0,0.1,0,0.1,0
				c0,0.1,0,0.1,0.1,0.1c0,0-0.1,0,0,0.1c0,0,0,0,0,0.1v0.1c0,0.1,0,0.2,0,0.2v0.1l0,0c0,0,0,0,0,0.1l0,0l0,0l0,0l0,0c0,0,0,0,0,0.1
				l0,0l-0.1,0.1l0,0l0,0c0,0,0,0,0,0.1l0,0l0,0h-0.1v0.1l0,0l0,0c0,0,0,0-0.1,0s0,0-0.1,0v0.1c0,0,0,0.1-0.1,0.1l0,0v-0.1
				c-0.1,0-0.1,0.1-0.1,0.1l0,0l0,0c0,0,0,0,0,0.1c0,0,0,0.1-0.1,0.1c0,0.1-0.1,0.1-0.2,0.1l0,0l0,0c-0.1,0-0.1,0-0.1,0.1l0,0
				c0,0,0,0-0.1,0l0,0l0,0l0,0l0,0c-0.1,0.1-0.1,0.1-0.2,0.2C29.1,166.8,29,166.9,29,167L29,167L29,167z M25.2,164.5L25.2,164.5
				L25.2,164.5L25.2,164.5z M26.2,163.8c0.2-0.3,0.4-0.6,0.6-0.8s0.4-0.5,0.6-0.8l0,0c0.1-0.1,0.1-0.1,0.2-0.2
				c0-0.1,0.1-0.2,0.1-0.2c0.2-0.2,0.3-0.5,0.5-0.7s0.3-0.5,0.4-0.7c0.1-0.1,0.1-0.3,0.2-0.4c0.1-0.1,0.1-0.3,0.1-0.4
				c0.1-0.1,0.2-0.2,0.1-0.4c-0.1,0-0.2,0.1-0.3,0.2c-0.1,0.1-0.1,0.2-0.2,0.2c0,0.1-0.1,0.2-0.2,0.3c-0.1,0.1-0.1,0.2-0.2,0.2
				c-0.3,0.2-0.5,0.5-0.7,0.8s-0.3,0.6-0.5,0.9h-0.1c0,0.1-0.1,0.2-0.1,0.2c-0.1,0.1-0.1,0.1-0.1,0.2c-0.1,0.1-0.1,0.2-0.1,0.2
				c0,0.1-0.1,0.2-0.1,0.2c0,0.1,0,0.1-0.1,0.2l-0.1,0.1v0.1c0,0,0,0.1-0.1,0.1c0,0,0,0.1,0,0.2c-0.1,0.1-0.1,0.1-0.1,0.2
				C26.2,163.6,26.2,163.7,26.2,163.8L26.2,163.8z M28.6,166.9L28.6,166.9L28.6,166.9L28.6,166.9c0.1,0,0.1,0,0.2-0.1l0.1-0.1l0,0
				c0,0,0,0,0.1-0.1s0-0.1,0-0.1c-0.1,0-0.1,0.1-0.2,0.1S28.7,166.8,28.6,166.9L28.6,166.9L28.6,166.9L28.6,166.9L28.6,166.9
				C28.5,166.9,28.5,167,28.6,166.9C28.6,167,28.6,167,28.6,166.9L28.6,166.9z M28.6,166.9L28.6,166.9L28.6,166.9L28.6,166.9z
				 M29.1,166.5C29,166.5,29,166.5,29.1,166.5C29,166.6,29.1,166.6,29.1,166.5C29.1,166.6,29.1,166.5,29.1,166.5z M29.2,166.6
				C29.2,166.5,29.2,166.5,29.2,166.6L29.2,166.6L29.2,166.6c0.1,0,0.1,0,0.1-0.1C29.3,166.5,29.2,166.5,29.2,166.6
				C29.2,166.5,29.2,166.5,29.2,166.6C29.1,166.6,29.1,166.6,29.2,166.6z M29.3,166.5L29.3,166.5C29.3,166.5,29.2,166.5,29.3,166.5
				L29.3,166.5L29.3,166.5z M29.4,166.4L29.4,166.4C29.3,166.5,29.3,166.5,29.4,166.4C29.4,166.5,29.4,166.5,29.4,166.4L29.4,166.4z
				 M29.7,166.2L29.7,166.2c-0.1,0.1-0.1,0.1-0.2,0.1l0,0l0,0c0,0,0,0-0.1,0c0,0,0,0,0,0.1c0.1,0,0.1,0,0.2-0.1
				C29.7,166.3,29.7,166.2,29.7,166.2z M29.9,166.2L29.9,166.2C29.8,166.2,29.8,166.2,29.9,166.2L29.9,166.2z M30,165.4
				C30,165.3,30,165.4,30,165.4L30,165.4z M30.1,165.8L30.1,165.8l-0.1,0.1C30,165.9,30,165.9,30.1,165.8L30.1,165.8z M30.5,165.5
				c-0.1,0-0.1,0.1-0.1,0.1h0.1V165.5z M30.5,165.7L30.5,165.7L30.5,165.7L30.5,165.7L30.5,165.7z M30.6,165.8L30.6,165.8
				C30.6,165.8,30.5,165.8,30.6,165.8L30.6,165.8z"/>
			<path class="st1" d="M29.9,166.1C30,166.1,30,166.1,29.9,166.1c0-0.1,0-0.1,0-0.1c0-0.1,0-0.1,0-0.2s0-0.1,0.1-0.1v-0.1l0,0
				c0,0,0-0.1,0.1-0.1s0-0.1,0.1-0.1c0.1-0.2,0.2-0.4,0.3-0.7c0.1-0.2,0.3-0.5,0.4-0.7c0.1-0.1,0.1-0.1,0.1-0.2
				c0-0.1,0.1-0.1,0.1-0.2l0,0c0-0.1,0.1-0.2,0.2-0.1s0.2,0.1,0.4,0.1c0.1,0,0.1,0.1,0.1,0.1v0.1c0,0,0,0,0,0.1v0.1
				c-0.1,0.1-0.1,0.2-0.2,0.4c0,0.1-0.1,0.3-0.2,0.4l0,0l0,0c0,0,0,0.1-0.1,0.2s0.1,0.1,0.1,0.2c-0.1,0.2-0.2,0.3-0.2,0.5
				c-0.1,0.2-0.1,0.3-0.2,0.5c0,0.2-0.1,0.3-0.1,0.4c0,0.1,0,0.3,0.1,0.4c0.3-0.1,0.5-0.1,0.7-0.2s0.4-0.2,0.6-0.3l0.4-0.3l0.1-0.1
				l0.5-0.4l0.4-0.3c0,0,0.1-0.1,0.2-0.1c0.1,0,0.1-0.1,0.2-0.1c0.1-0.1,0.2-0.2,0.3-0.2s0.2-0.1,0.3-0.2c0,0,0-0.1,0.1-0.1
				s0.1,0,0.1-0.1l0.1-0.1c0-0.1,0.1-0.1,0.2-0.1c0.1,0,0.1-0.1,0.2-0.1h0.1c0.1,0,0.1,0,0.1,0.1v0.1c0,0,0,0-0.1,0.1s0,0.1,0,0.1
				s0.1,0,0.1-0.1s0-0.1,0.1-0.1c0,0,0,0,0,0.1v0.1c0.1,0,0.1,0.1,0,0.1v0.1l0,0c0,0,0,0,0,0.1l0,0l0,0c0,0,0,0,0,0.1c0,0,0,0,0,0.1
				l0,0l0,0c-0.1,0-0.1,0-0.1,0c-0.1,0-0.1,0.1-0.1,0.1s0,0.1-0.1,0.1l0,0l0,0c0,0,0,0,0,0.1l-0.1,0.1l-0.1,0.1l0,0
				c0,0-0.1,0-0.1,0.1c-0.1,0.1-0.1,0.1-0.1,0.1l-0.2,0.2c0,0-0.1,0.1-0.2,0.1c-0.1,0.1-0.1,0.1-0.2,0.1l0,0l0,0l0,0l0,0
				c0,0,0,0,0,0.1l0,0c0,0,0,0-0.1,0.1s-0.1,0.1-0.2,0.2v-0.1l0,0l0,0l0,0v0.1c0,0,0,0-0.1,0l0,0l0,0c0,0,0,0-0.1,0.1l-0.1,0.1
				c0,0,0,0-0.1,0c0,0,0,0-0.1,0h-0.1c0,0-0.1,0-0.1,0.1h-0.1c0,0,0,0,0,0.1l0,0l0,0c0,0,0,0-0.1,0.1s-0.1,0-0.1,0.1
				s-0.1,0.1-0.2,0.2c-0.1,0-0.2,0.1-0.3,0.1c-0.1,0.1-0.3,0.1-0.4,0.2c-0.1,0-0.3,0-0.4,0.1s-0.3,0-0.5,0c-0.1,0-0.2,0-0.3,0
				s-0.2,0-0.2-0.1c-0.1-0.1-0.1-0.1-0.2-0.2c0-0.1-0.1-0.1-0.1-0.2l0,0c0,0,0,0,0-0.1l0,0l0,0l0,0c0-0.1,0-0.1,0-0.1v-0.1v0.1v-0.1
				c0,0,0-0.1,0.1-0.1c0-0.1,0-0.1,0.1-0.2l0,0c0-0.1,0-0.1,0.1-0.1C29.9,166.3,29.9,166.2,29.9,166.1
				C29.9,166.2,29.9,166.2,29.9,166.1C29.9,166.2,29.9,166.2,29.9,166.1c-0.1,0,0,0,0-0.1l0,0C30,166,30,166,29.9,166.1L29.9,166.1z
				 M32.7,162.4C32.6,162.4,32.6,162.4,32.7,162.4L32.7,162.4c-0.1,0.1-0.1,0.2-0.2,0.2c0,0.1-0.1,0.1-0.2,0.1
				c-0.1,0-0.1,0.1-0.1,0.1c-0.1,0-0.1,0-0.1,0l0,0c-0.1,0-0.1,0-0.1,0c-0.1,0-0.2-0.1-0.2-0.1c-0.1,0-0.1-0.1-0.2-0.1
				c0-0.1,0-0.2,0-0.3s0.1-0.1,0.2-0.1l0,0l0,0c0.1,0,0.2,0,0.3,0.1C32.3,162.3,32.5,162.3,32.7,162.4
				C32.6,162.4,32.6,162.4,32.7,162.4z M33.1,166.6C33.2,166.6,33.2,166.6,33.1,166.6C33.2,166.6,33.2,166.5,33.1,166.6L33.1,166.6z
				 M34.9,165.1C34.8,165.1,34.8,165.1,34.9,165.1c-0.1,0.1-0.1,0.1-0.1,0.2C34.8,165.2,34.8,165.2,34.9,165.1L34.9,165.1z
				 M35.1,165C35,165,35,165,35.1,165L35.1,165z"/>
			<path class="st1" d="M41.8,166.1C41.8,166,41.7,166,41.8,166.1c-0.1,0-0.1,0.1-0.2,0.1c0,0.1-0.1,0.1-0.2,0.2
				c-0.1,0.1-0.1,0.1-0.1,0.1v-0.1l0.1-0.1c-0.1,0-0.1,0-0.1,0.1s0,0.1-0.1,0.1c0,0.1-0.1,0.1-0.1,0.1c-0.1,0-0.1,0.1-0.2,0.1l0,0
				l0,0l0,0l0,0l0,0c0,0,0,0-0.1,0c0,0,0,0,0.1,0v-0.1h-0.1v0.1c0,0,0,0.1-0.1,0.1c0,0-0.1,0.1-0.1,0c0.1-0.1,0.2-0.2,0.2-0.3
				c-0.1,0-0.2,0.1-0.3,0.2l0,0v0.1h-0.1l0,0l0,0h-0.1c0,0,0,0-0.1,0.1l0,0l0,0c0,0,0,0-0.1,0.1H40l0,0c0,0,0,0,0-0.1
				c-0.1,0-0.1,0.1-0.1,0.1s0,0.1-0.1,0.1V167l0,0c0,0,0,0-0.1,0l0,0l0,0c-0.1,0.1-0.2,0.1-0.3,0.1c-0.1,0-0.3,0-0.4-0.1
				c-0.2,0-0.3,0-0.5-0.1s-0.3-0.1-0.4-0.2l0,0l0,0l0,0l0,0l0,0c-0.1,0-0.1-0.1-0.1-0.2c0-0.1-0.1-0.1-0.1-0.2v-0.1c0,0,0,0-0.1,0
				c-0.1-0.3-0.1-0.6-0.1-0.9c0-0.3,0-0.6,0.1-1c-0.1,0-0.2,0.1-0.2,0.2c-0.1,0.1-0.1,0.1-0.2,0.2c-0.4,0.4-0.8,0.8-1.2,1.2
				s-0.8,0.8-1.1,1.3c-0.1,0-0.1,0-0.1,0.1l-0.1,0.1c-0.1,0-0.1,0-0.2,0s-0.2,0-0.3,0l0,0l0,0c-0.1,0-0.2-0.1-0.3-0.1
				S34,167.2,34,167c0-0.1,0-0.1,0-0.2c0,0,0-0.1,0-0.2v-0.1l0,0c0.1-0.6,0.3-1.1,0.5-1.6s0.4-1,0.6-1.5c0.1,0,0.1,0,0.2,0
				c0.1,0,0.2,0.1,0.2,0.1s0.1,0,0.3,0.1c0,0,0,0,0.1,0.1s0.1,0,0.1,0.1c0,0.2-0.1,0.4-0.1,0.6c-0.1,0.2-0.2,0.4-0.3,0.6
				c-0.1,0.1-0.1,0.3-0.2,0.5c-0.1,0.2-0.1,0.4-0.2,0.5c0,0.1,0,0.1,0,0.1s0,0,0,0.1c0.1-0.2,0.3-0.3,0.4-0.5s0.3-0.4,0.4-0.5
				c0.2-0.1,0.3-0.2,0.4-0.3c0.1-0.1,0.3-0.3,0.4-0.4c0.2-0.1,0.3-0.2,0.5-0.3s0.3-0.2,0.4-0.3c0.1,0,0.1,0,0.2-0.1
				c0.1,0,0.1-0.1,0.2-0.1c0.1,0,0.2,0,0.2,0.1c0.1,0,0.2,0.1,0.3,0.1l0,0c0.1,0,0.1,0,0.1,0.1s0,0.1,0.1,0.2c0,0.1,0,0.2,0,0.4
				s0,0.3-0.1,0.4c0,0,0,0,0,0.1s0,0.1,0,0.2c-0.1,0.5-0.1,0.8,0,1.1s0.1,0.4,0.2,0.5c0.1,0,0.3,0,0.4,0s0.2,0,0.3,0
				c0.1,0,0.2,0,0.3-0.1s0.2-0.1,0.3-0.2c0,0,0,0,0.1-0.1c0,0,0,0,0.1,0s0.2-0.1,0.3-0.1c0.1-0.1,0.1-0.1,0.2,0c0,0,0,0,0-0.1
				c0,0,0,0,0-0.1l0,0l0,0c0,0,0,0,0-0.1H41c0,0,0.1,0,0.1-0.1c0,0,0.1,0,0.1-0.1c0,0,0-0.1,0.1-0.1l0,0c0,0,0,0,0,0.1
				c0.1,0,0.1-0.1,0.1-0.1s0-0.1,0.1-0.1s0.1-0.1,0.2-0.1s0.1-0.1,0.2-0.1s0.1-0.1,0.1-0.1l0.1-0.1c0,0,0-0.1,0.1-0.1
				c0,0,0.1-0.1,0.1,0h0.1l0,0v-0.1c0,0,0.1,0,0.2-0.1c0.1,0,0.2-0.1,0.2-0.1s0,0,0-0.1l0,0l0,0l0,0l0,0l0,0c0,0,0,0,0-0.1l0,0l0,0
				l0,0l0,0c0,0,0.1,0,0.1,0.1s0,0.2-0.1,0.3l0,0l0,0c0,0,0,0.1-0.1,0.2c-0.1,0.1-0.1,0.1-0.1,0.1L41.8,166.1z M40.1,167L40.1,167
				C40.1,167.1,40.1,167.1,40.1,167L40.1,167z M40.3,166.9L40.3,166.9L40.3,166.9L40.3,166.9L40.3,166.9z M40.3,167L40.3,167
				L40.3,167z M40.8,166.7L40.8,166.7L40.8,166.7z M41.6,165.8L41.6,165.8l0.1-0.1C41.6,165.8,41.6,165.8,41.6,165.8z M42.2,165.4
				C42.2,165.5,42.2,165.5,42.2,165.4C42.2,165.5,42.1,165.5,42.2,165.4C42.2,165.5,42.2,165.5,42.2,165.4z"/>
			<path class="st1" d="M48.1,165.4c0,0,0,0.1-0.1,0.2c-0.1,0.1-0.2,0.2-0.3,0.3c0,0-0.1,0-0.1,0.1c-0.1,0.1-0.1,0.1-0.1,0.1
				l-0.1,0.1l-0.3,0.2l-0.1,0.1l-0.2,0.1c-0.2,0.1-0.4,0.2-0.5,0.3c-0.2,0.1-0.4,0.2-0.6,0.3c0,0,0,0-0.1,0s-0.1,0-0.1,0h-0.1h-0.1
				h-0.1l0,0c-0.1,0-0.1,0-0.1,0s-0.1,0-0.1,0.1h-0.1h-0.1h-0.1h-0.1l0,0l0,0h-0.1c0,0-0.1,0-0.2,0h-0.1h-0.1l0,0
				c-0.2,0-0.3,0-0.4,0h-0.1c0,0,0,0-0.1,0s-0.2,0-0.3-0.1s-0.2-0.1-0.3-0.1c-0.1-0.1-0.2-0.1-0.3-0.2c-0.1-0.1-0.2-0.2-0.3-0.3
				c0-0.1-0.1-0.2-0.1-0.2c0-0.1,0-0.1-0.1-0.2c0-0.1,0-0.2,0-0.2v-0.2c0-0.1,0.1-0.3,0.1-0.5s0.1-0.4,0.3-0.5l0.4-0.4l0.2-0.3
				c0.1-0.1,0.2-0.1,0.2-0.2s0.1-0.1,0.2-0.2c0.1-0.1,0.1-0.1,0.2-0.1s0.1-0.1,0.2-0.1c0.1-0.1,0.2-0.1,0.2-0.2
				c0.1-0.1,0.2-0.1,0.2-0.2c0.1,0,0.2-0.1,0.2-0.1h0.1c0.1,0,0.1,0,0.1,0s0,0,0.1,0c0,0,0,0,0.1,0c0.1,0.1,0.1,0.2,0.2,0.2
				c0.1,0.1,0.2,0.1,0.2,0.2c0.1,0,0.1,0.1,0.1,0.1s0,0.1,0.1,0.1c0,0.1,0,0.2,0,0.2s0,0.1-0.1,0.2c0,0,0,0,0,0.1c0,0,0,0,0,0.1
				s-0.1,0.1-0.1,0.1l-0.1,0.1c0,0,0,0.1-0.1,0.1s0,0.1-0.1,0.1c0,0-0.1,0.1-0.2,0.2c-0.1,0.1-0.1,0.1-0.2,0.2
				c-0.1,0.1-0.1,0.1-0.2,0.2c-0.1,0-0.2,0.1-0.2,0.1v0.1c-0.1,0.1-0.2,0.2-0.3,0.2s-0.2,0.2-0.3,0.2c-0.2,0-0.3,0.1-0.5,0.2
				c-0.1,0.1-0.3,0.1-0.5,0.1l0,0c0,0,0,0,0.1,0c0,0.1,0,0.1,0,0.1s0,0.1,0.1,0.1c0.1,0.1,0.2,0.2,0.3,0.2c0.1,0.1,0.3,0.1,0.4,0.1
				c0.4,0.1,0.8,0.1,1.2,0c0.1,0,0.2,0,0.3-0.1c0.1,0,0.2-0.1,0.4-0.1c0.2-0.1,0.3-0.1,0.5-0.2l0.2-0.1h0.1l0,0l0,0l0,0l0.4-0.2
				c0.1-0.1,0.2-0.2,0.3-0.2c0.1,0,0.2-0.1,0.3-0.3c0,0,0,0,0.1-0.1s0.1-0.1,0.2-0.1s0.1-0.1,0.2-0.1s0.1-0.1,0.1-0.1l0.2-0.2
				c0.1-0.1,0.2-0.2,0.3-0.2c0.1-0.1,0.2-0.1,0.2-0.1l0.1,0.1c0,0,0,0.1,0.1,0.1c-0.3,0.3-0.3,0.4-0.3,0.4s0,0.1-0.1,0.1
				c0,0,0,0-0.1,0.1C48.2,165.3,48.2,165.4,48.1,165.4z M44.6,163.6c0,0-0.1,0-0.1,0.1s-0.1,0.1-0.1,0.1h-0.1c0,0,0,0-0.1,0
				c0,0,0,0-0.1,0l-0.1,0.1c-0.1,0.1-0.1,0.1-0.2,0.1s-0.1,0.1-0.2,0.1c-0.1,0.1-0.1,0.2-0.2,0.2s-0.1,0.1-0.2,0.2
				c-0.1,0.1-0.2,0.2-0.3,0.3c-0.1,0.1-0.2,0.2-0.3,0.4s-0.2,0.2-0.2,0.4c0.2-0.1,0.4-0.2,0.6-0.3s0.4-0.3,0.6-0.4
				c0.1-0.1,0.1-0.1,0.2-0.2c0.1-0.1,0.1-0.1,0.2-0.2c0.1-0.1,0.2-0.1,0.3-0.3s0.2-0.2,0.3-0.4c0-0.1,0-0.1,0.1-0.1v-0.1
				C44.8,163.5,44.7,163.5,44.6,163.6C44.7,163.5,44.6,163.5,44.6,163.6z"/>
			<path class="st1" d="M56.1,159.2C56.1,159.2,56.2,159.1,56.1,159.2C56.2,159.1,56.2,159.1,56.1,159.2l0.1,0.1l0,0
				C56.2,159.3,56.2,159.3,56.1,159.2c0,0.1,0,0.1,0,0.2c0,0,0,0-0.1,0l0,0l0,0l0,0c0,0.1-0.1,0.1-0.1,0.1c-0.1,0-0.1,0.1-0.2,0.1
				s-0.1,0,0,0c0,0,0.1,0,0,0c0,0,0,0-0.1,0l0,0c-0.1,0-0.1-0.1-0.1-0.1c0-0.1-0.1-0.1-0.2-0.2c0-0.1,0-0.2-0.1-0.2s0-0.2-0.1-0.3
				c0-0.1,0-0.2,0-0.3s0-0.2,0.1-0.3l0,0l0,0l0,0l0,0c0,0,0,0,0.1,0v-0.1c0.3-0.2,0.6-0.4,0.9-0.5c0.3-0.2,0.6-0.3,1-0.5
				c0.1,0,0.2-0.1,0.2-0.1c0.1,0,0.2-0.1,0.3-0.1c0.1,0,0.1,0,0.2-0.1c0.1,0,0.1,0,0.2-0.1c0.2-0.1,0.3-0.1,0.5-0.1s0.3-0.1,0.5-0.1
				s0.4,0,0.6-0.1s0.4,0,0.6-0.1c0.4,0,0.8,0.1,1.2,0.2c0.4,0.1,0.6,0.3,0.8,0.5c0,0.1,0.1,0.1,0.1,0.2c0,0.1,0.1,0.1,0.1,0.2
				c0,0.1,0,0.1,0.1,0.1c0,0,0,0.1,0.1,0.2c0.1,0.2,0.2,0.4,0.2,0.6c0,0.4,0,0.8-0.2,1.1c-0.1,0.3-0.3,0.6-0.6,0.8
				c-0.1,0.2-0.3,0.4-0.5,0.6c-0.2,0.2-0.4,0.3-0.5,0.5c-0.1,0.1-0.3,0.2-0.4,0.3s-0.2,0.2-0.4,0.2c-0.2,0.2-0.4,0.3-0.7,0.5
				c-0.2,0.1-0.4,0.3-0.7,0.4c0.1,0,0.1,0.1,0.2,0.1s0.2,0,0.2,0.1c0.4,0.1,0.8,0.2,1.2,0.4l0,0l0,0l0,0c0.2,0.1,0.4,0.2,0.5,0.4
				s0.3,0.2,0.4,0.4c0,0.1,0.1,0.2,0.1,0.3s0.1,0.2,0.1,0.3l0,0l0,0c0,0,0,0.1,0.1,0.1v0.1c0.1,0.1,0.1,0.1,0.1,0.2
				c0,0.1,0.1,0.2,0.1,0.2c0.1,0.2,0.1,0.4,0.1,0.7c0,0.2-0.1,0.5-0.2,0.7c0,0.1-0.1,0.2-0.1,0.2c-0.1,0.1-0.1,0.2-0.2,0.2
				c0,0.1-0.1,0.1-0.2,0.2l-0.1,0.1l-0.1,0.1c-0.1,0.1-0.1,0.1-0.2,0.2c-0.1,0.1-0.1,0.1-0.2,0.2c-0.1,0.1-0.2,0.2-0.3,0.2
				c-0.1,0.1-0.2,0.2-0.3,0.2H60l-0.3,0.2c-0.1,0-0.2,0.1-0.3,0.2c-0.1,0.1-0.2,0.1-0.3,0.2c-0.1,0-0.1,0-0.2,0.1
				c-0.1,0-0.1,0.1-0.2,0.1s-0.1,0.1-0.2,0.1s-0.1,0.1-0.2,0.1c-0.1,0.1-0.2,0.1-0.4,0.2s-0.2,0.1-0.4,0.1l-0.4,0.2l-0.7,0.2
				c-0.2,0.1-0.4,0.1-0.6,0.2c-0.2,0.1-0.4,0.1-0.7,0.1c0,0,0,0,0.1,0h0.1c0.5-0.1,1-0.3,1.5-0.5s0.9-0.4,1.4-0.6c0,0,0,0,0.1,0
				c0,0,0,0,0-0.1c0.1,0,0.3-0.1,0.4-0.2c0.1-0.1,0.2-0.1,0.3-0.2c0.1-0.1,0.2-0.1,0.3-0.2s0.2-0.1,0.3-0.1c0-0.1,0.1-0.1,0.1-0.1
				v-0.1l0,0c-0.1,0-0.1,0-0.1,0.1s-0.1,0.1-0.1,0.1s0,0-0.1,0l0,0c-0.1,0-0.1,0-0.1,0.1s0,0.1-0.1,0.1l-0.2,0.1
				c-0.1,0-0.1,0.1-0.2,0.1s-0.1,0.1-0.2,0.2c-0.3,0.1-0.6,0.3-0.9,0.4c-0.1,0.1-0.2,0.2-0.3,0.2s-0.3,0.1-0.4,0.1
				c-0.1,0.1-0.1,0.1-0.2,0.1s-0.2,0.1-0.2,0.1l0,0c-0.2,0.1-0.3,0.1-0.5,0.2c-0.2,0.1-0.3,0.1-0.5,0.2c0.1-0.1,0.1-0.1,0.2-0.1
				s0.1,0,0.2-0.1c-0.2,0.1-0.4,0.2-0.6,0.2c-0.2,0.1-0.4,0.1-0.7,0.2c0.4-0.1,0.8-0.2,1.1-0.4s0.7-0.3,1.1-0.4l0,0
				c0.1,0,0.2-0.1,0.3-0.1c0.1,0,0.2-0.1,0.3-0.1l0,0l0,0c0.3-0.1,0.5-0.2,0.8-0.4c0.2-0.1,0.5-0.3,0.7-0.5c-0.1,0-0.2,0.1-0.3,0.1
				s-0.2,0.1-0.2,0.1c-0.1,0-0.1,0.1-0.1,0.1l-0.1,0.1l-0.3,0.1c-0.3,0.2-0.7,0.3-1.1,0.4l0.4-0.2l0,0l0,0c0.1-0.1,0.2-0.1,0.3-0.2
				c0.1,0,0.2-0.1,0.3-0.2c0.1-0.1,0.2-0.1,0.4-0.2c0.1-0.1,0.2-0.1,0.3-0.2c0.2-0.2,0.4-0.3,0.6-0.4c0.2-0.1,0.4-0.2,0.6-0.4l0,0
				l0,0c0.1,0,0.2-0.1,0.2-0.1s0.1-0.1,0.1-0.2c-0.1,0-0.1,0.1-0.2,0.1c0,0-0.1,0.1-0.2,0.1c0,0.1-0.1,0.1-0.1,0.1
				c-0.1,0-0.1,0.1-0.2,0.1l0,0c0,0,0,0-0.1,0c-0.1,0.1-0.2,0.2-0.3,0.2s-0.2,0.1-0.4,0.2c-0.1,0.1-0.2,0.1-0.3,0.2
				c-0.1,0.1-0.2,0.1-0.4,0.1H58c0,0,0.1,0,0.1-0.1c-0.1,0-0.2,0.1-0.2,0.1c-0.1,0-0.1,0.1-0.2,0.1c0.2-0.1,0.5-0.2,0.7-0.3
				s0.4-0.3,0.6-0.4c0.2-0.1,0.3-0.1,0.4-0.3c0.1-0.1,0.3-0.2,0.4-0.3c0-0.1,0.1-0.1,0.1-0.1l0.1-0.1h-0.1l0,0L60,167
				c0.1,0,0.1-0.1,0.1-0.2H60h-0.1c0,0-0.1,0-0.1,0.1l0,0c-0.1,0.1-0.1,0.1-0.2,0.2c-0.1,0-0.2,0.1-0.3,0.2v0.1c0,0,0,0-0.1,0
				s0,0-0.1,0l0,0l-0.3,0.1c-0.1,0.1-0.1,0.1-0.2,0.1s-0.2,0.1-0.2,0.1h0.1l0.1-0.1c-0.2,0.2-0.4,0.3-0.7,0.4
				c-0.3,0.1-0.5,0.2-0.7,0.4c-0.1,0-0.1,0-0.1,0s-0.1,0-0.2,0H57c0.2-0.1,0.4-0.2,0.6-0.3s0.4-0.2,0.6-0.3c0,0,0-0.1,0.1-0.1
				s0.1,0,0.1-0.1l-0.1,0.1l0,0l0,0l0,0l0,0h-0.1h-0.1l0,0l0,0c-0.2,0.1-0.4,0.2-0.6,0.3s-0.4,0.2-0.5,0.2l0,0l0,0h-0.1
				c0,0-0.1,0-0.1,0.1l-1.2,0.4c-0.1,0-0.2,0-0.3,0.1c-0.1,0-0.2,0.1-0.3,0.1c-0.1,0-0.1,0-0.1,0.1s-0.1,0-0.2,0
				c-0.1,0.1-0.2,0.1-0.4,0.1c-0.1,0-0.3,0.1-0.4,0.1s-0.2,0.1-0.3,0.1s-0.2,0-0.3,0l0,0l0,0c-0.1,0-0.1,0-0.1,0.1
				c0.3,0,0.6,0,0.9-0.1c0.3,0,0.6-0.1,0.9-0.2c-0.2,0.1-0.3,0.1-0.5,0.1s-0.3,0.1-0.4,0.1l0,0l0,0H54c-0.1,0-0.1,0-0.1,0s0,0,0.1,0
				h0.1c0,0.1-0.1,0.1-0.1,0.1s-0.1,0-0.2,0h0.1H54c-0.1,0.1-0.2,0.1-0.3,0.1c-0.1,0-0.2-0.1-0.4,0h-0.1c0,0,0,0-0.1,0
				c-0.2,0-0.4,0-0.6,0s-0.4-0.1-0.6-0.1c0-0.1-0.1-0.1-0.1-0.1c-0.1,0-0.1-0.1-0.1-0.2l0,0c0,0,0,0-0.1,0c0,0,0,0,0,0.1v0.1
				l-0.1-0.1l-0.1-0.1c0,0,0,0,0.1,0.1c0,0,0,0,0.1,0.1v-0.1v-0.1l0,0c0,0,0,0-0.1,0c0-0.1,0-0.1,0-0.1v-0.1h-0.1c0,0.1,0,0.1,0,0.1
				l0,0v-0.1l0,0l0,0l0,0c0,0,0,0-0.1,0c0,0,0-0.1,0.1-0.1v-0.1c0.1,0,0.1-0.1,0.1,0l0,0c0,0,0,0,0.1,0l0,0l0,0
				c0.1-0.1,0.2-0.1,0.3-0.1c0.1,0,0.2,0,0.3,0l0,0l0,0c0,0,0,0,0-0.1c0,0.1,0.1,0.1,0.2,0.1s0.2,0,0.2,0c-0.1,0.1-0.1,0.1-0.2,0
				c-0.1,0-0.2,0-0.2,0.1c-0.1,0-0.1,0-0.2,0.1c-0.1,0-0.1,0.1-0.1,0.2c0,0,0.1,0.1,0.2,0.1s0.2,0.1,0.3,0.1c0.1,0,0.2,0,0.3,0
				s0.2,0,0.2,0c0-0.1,0.1-0.2,0.1-0.3s0-0.2,0.1-0.3c0-0.1,0-0.2,0.1-0.3s0.1-0.2,0.1-0.3c0.2-0.9,0.5-1.7,0.8-2.6
				c0.3-0.8,0.7-1.6,1-2.4l0,0c0,0,0,0-0.1,0c0-0.1,0-0.1,0-0.2l-0.1-0.1H55v-0.1c0.1,0,0.1,0,0.2-0.1c0,0,0.1,0,0.2-0.1
				c0.1-0.3,0.3-0.6,0.4-0.9c0.1-0.3,0.3-0.6,0.4-0.9c0.1-0.2,0.2-0.4,0.3-0.7c0.1-0.2,0.2-0.5,0.3-0.7c0.1-0.2,0.2-0.4,0.3-0.7
				c0.1-0.2,0.2-0.5,0.3-0.7c0.1-0.1,0.1-0.2,0.1-0.3s0.1-0.2,0.1-0.3c0,0,0,0,0.1,0s0,0,0,0c0.1,0,0.2,0,0.3,0c0.1,0,0.2,0,0.2,0
				c0.1,0,0.1,0,0.2,0s0.1,0,0.1,0.1c0.1,0.1,0.1,0.1,0.1,0.2c0,0.1,0,0.1,0,0.2c0,0.1,0,0.1-0.1,0.2c0,0.1-0.1,0.1-0.1,0.2
				c-0.1,0.3-0.3,0.5-0.4,0.8c-0.1,0.2-0.3,0.5-0.4,0.8l0,0c-0.1,0.3-0.2,0.5-0.3,0.8c-0.1,0.2-0.2,0.5-0.3,0.7c0,0,0,0,0,0.1
				c0,0,0,0.1-0.1,0.1c-0.1,0.2-0.1,0.3-0.2,0.5s-0.2,0.3-0.2,0.5c0.1,0,0.2,0,0.2-0.1c0.1,0,0.1-0.1,0.2-0.1c0.5-0.2,1-0.5,1.4-0.7
				v-0.1c0.2-0.1,0.4-0.2,0.5-0.4c0.2-0.1,0.3-0.2,0.5-0.4l0,0c0.6-0.5,1.1-1,1.5-1.6v-0.1c0.1-0.1,0.1-0.2,0.2-0.3s0.1-0.2,0.2-0.4
				c0.1-0.1,0.1-0.3,0.2-0.4c0-0.1,0.1-0.3,0.1-0.4c0-0.1,0-0.1,0-0.2c0,0,0-0.1-0.1-0.1c-0.3-0.2-0.7-0.4-1.2-0.5
				c-0.4-0.1-0.9-0.1-1.3,0l-0.5,0.1c-0.3,0.1-0.6,0.2-0.9,0.3s-0.6,0.2-0.8,0.3c-0.3,0.1-0.5,0.3-0.8,0.5s-0.5,0.4-0.6,0.7
				c0,0,0,0,0.1,0l0,0l0,0l0,0v0.1c0,0,0,0,0,0.1l0,0l0,0l0,0C56.2,159.1,56.2,159.1,56.1,159.2C56.1,159.1,56.1,159.1,56.1,159.2z
				 M52.5,170C52.5,170,52.5,169.9,52.5,170C52.5,169.9,52.5,169.9,52.5,170L52.5,170C52.5,169.9,52.5,170,52.5,170z M59.7,167.6
				L59.7,167.6L59.7,167.6C59.7,167.5,59.6,167.5,59.7,167.6C59.6,167.6,59.6,167.6,59.7,167.6L59.7,167.6c0-0.1,0-0.1,0-0.1
				s0,0,0.1,0h0.1c0,0,0.1,0,0.1-0.1l0,0l0,0c0,0,0-0.1,0.1-0.1c0,0,0.1,0,0.1-0.1c0.2-0.1,0.4-0.3,0.5-0.5s0.3-0.4,0.4-0.5v-0.1
				c0.1-0.1,0.2-0.3,0.3-0.5c0.1-0.2,0.1-0.4,0.1-0.6c0-0.1-0.1-0.2-0.1-0.4c-0.1-0.1-0.2-0.2-0.3-0.3c-0.1-0.1-0.2-0.1-0.3-0.1
				c-0.1,0-0.2-0.1-0.3-0.1l0,0l0,0c-0.1,0-0.1-0.1-0.2-0.1s-0.1-0.1-0.2-0.1c-0.2-0.1-0.4-0.1-0.5-0.2c-0.1-0.1-0.3-0.1-0.4-0.1
				s-0.3-0.1-0.4-0.1c-0.2,0-0.5,0-0.7,0s-0.5,0.1-0.7,0.2l0,0l0,0c-0.1,0-0.2,0-0.2,0.1c-0.1,0-0.2,0.1-0.2,0.1l0,0
				c-0.1,0-0.1,0-0.1,0v0.1c-0.1,0.2-0.2,0.4-0.3,0.6c-0.1,0.2-0.2,0.4-0.3,0.6c0,0.1,0,0.2,0,0.3s0,0.2-0.1,0.3
				c-0.1,0.2-0.1,0.4-0.2,0.7c0,0.2-0.1,0.4-0.1,0.7c0,0.1-0.1,0.2-0.1,0.3s-0.1,0.2-0.1,0.3s0,0.1-0.1,0.2c0,0.1-0.1,0.2-0.1,0.3
				s-0.1,0.2-0.1,0.3c-0.1,0.1-0.1,0.2-0.2,0.3s-0.1,0.2-0.2,0.2l0,0c-0.1,0-0.1,0.1-0.1,0.2c0,0.1-0.1,0.2-0.1,0.2
				c-0.1,0-0.1,0-0.1,0.1l-0.1,0.1c0.3-0.1,0.6-0.1,0.9-0.2c0.3-0.1,0.6-0.1,0.9-0.3l0,0l0,0c0.2,0,0.4-0.1,0.5-0.1
				c0.1-0.1,0.3-0.1,0.5-0.2c0-0.1,0-0.1,0-0.1s0.1,0,0.1-0.1l0,0c0.1-0.1,0.2-0.1,0.3-0.1h0.1l0,0c0.1,0,0.1,0,0.1,0h0.1l0,0l0,0
				h0.1h0.1l0,0c0.1,0,0.2-0.1,0.3-0.1c0.1-0.1,0.2-0.1,0.3-0.1l0,0l0,0c0.1,0,0.1,0,0.1,0s0.1,0,0.1-0.1l0.1-0.1h0.1c0,0,0,0,0.1,0
				h0.1l0,0l0,0l0,0c0,0,0,0,0.1,0C59.6,167.6,59.6,167.6,59.7,167.6C59.6,167.6,59.6,167.6,59.7,167.6
				C59.6,167.6,59.6,167.6,59.7,167.6z M56.2,169.9c0.2-0.1,0.4-0.1,0.6-0.2c0.2-0.1,0.4-0.1,0.6-0.2l0,0
				C56.9,169.7,56.5,169.9,56.2,169.9c-0.4,0.2-0.8,0.3-1.2,0.4c0.2,0,0.4-0.1,0.6-0.1C55.8,170.1,56,170,56.2,169.9z M57.3,169.6
				C57.3,169.5,57.3,169.5,57.3,169.6C57.3,169.5,57.3,169.5,57.3,169.6L57.3,169.6z M57.6,168.6L57.6,168.6L57.6,168.6L57.6,168.6z
				 M59.1,168.6c0.1-0.1,0.1-0.1,0.2-0.2s0.2-0.1,0.2-0.1s0,0,0.1,0l0,0c-0.1,0.1-0.2,0.1-0.3,0.2c-0.1,0.1-0.2,0.1-0.4,0.2H59
				L59.1,168.6z M61.2,167.9c-0.1,0.1-0.2,0.1-0.2,0.2L61.2,167.9L61.2,167.9z M61.3,163.7L61.3,163.7L61.3,163.7
				c0,0.1,0.1,0.1,0.2,0.2c0.1,0.1,0.1,0.1,0.2,0.2l0,0l0,0l0,0l0,0l0,0l0,0l0,0C61.6,164,61.5,163.9,61.3,163.7
				c0,0-0.1-0.1-0.3-0.1c0,0.1,0.1,0.1,0.1,0.1C61.2,163.6,61.2,163.6,61.3,163.7z M61.9,164.5c0-0.1,0-0.1,0-0.1s-0.1-0.1-0.1,0
				C61.8,164.3,61.8,164.4,61.9,164.5L61.9,164.5z"/>
			<path class="st1" d="M71.7,165.7c-0.1,0-0.1,0-0.1,0.1s-0.1,0.1-0.1,0.2l0,0c-0.1,0.1-0.2,0.1-0.2,0.2c-0.1,0.1-0.2,0.2-0.2,0.2
				l0,0l0,0c0,0,0,0-0.1,0.1h-0.1c-0.1,0-0.1,0.1-0.1,0.1l-0.1,0.1c-0.1,0.1-0.1,0.1-0.1,0.1l-0.1,0.1l0,0c0,0-0.1,0.1-0.2,0.1
				c-0.1,0.1-0.2,0.1-0.3,0.2c-0.1,0.1-0.2,0.1-0.3,0.1c-0.1,0-0.2,0-0.2,0h-0.1c-0.1,0-0.2,0-0.3,0.1c-0.1,0-0.2,0.1-0.3,0
				c0-0.1-0.1-0.1-0.1-0.1c-0.1,0-0.1-0.1-0.2-0.1l-0.1-0.1c-0.1-0.1-0.2-0.2-0.3-0.3s-0.1-0.3-0.1-0.5s0-0.4,0-0.6
				c0-0.2,0.1-0.4,0.1-0.6c-0.2,0.1-0.3,0.3-0.4,0.4c-0.1,0.2-0.3,0.3-0.4,0.5c-0.1,0.1-0.1,0.2-0.2,0.2c-0.1,0.1-0.1,0.1-0.2,0.2
				c-0.2,0.2-0.4,0.4-0.5,0.6l0,0l0,0c-0.1,0.1-0.2,0.1-0.3,0.2c-0.1,0.1-0.2,0.2-0.3,0.2c-0.1,0.1-0.2,0.1-0.4,0.1s-0.3,0-0.4-0.1
				c-0.1,0-0.1,0-0.2-0.1l-0.1-0.1c-0.1-0.1-0.2-0.1-0.2-0.2c0-0.1,0-0.2-0.1-0.3c0-0.1,0-0.2,0-0.3s0.1-0.2,0.1-0.3
				c0.1-0.2,0.1-0.4,0.2-0.6s0.2-0.3,0.3-0.5c0.2-0.3,0.4-0.5,0.6-0.7s0.4-0.4,0.6-0.6c0.1,0,0.1-0.1,0.2-0.1s0.2-0.1,0.2-0.1
				c0.1,0,0.1,0,0.2,0s0.1,0,0.2,0c0.2,0,0.4,0.1,0.6,0.2c0.2,0.1,0.3,0.2,0.4,0.4c0.1-0.1,0.1-0.1,0.2-0.1s0.1-0.1,0.2-0.1
				c0,0,0.1,0,0.1-0.1c0,0,0,0,0.1,0s0.2,0,0.3,0.1s0.2,0.1,0.3,0.2l0,0c0,0,0,0,0.1,0v0.1c0,0,0,0,0,0.1c0,0.2,0,0.4-0.1,0.6
				c-0.1,0.2-0.2,0.4-0.2,0.6c0,0.3-0.1,0.5-0.2,0.8s-0.1,0.6,0,0.8c0.4,0,0.7-0.1,1-0.3c0.3-0.1,0.5-0.3,0.8-0.4
				c0.1-0.1,0.2-0.1,0.3-0.2c0.1-0.1,0.2-0.1,0.2-0.2l0,0l0,0c0.1,0,0.2-0.1,0.3-0.2c0.2-0.1,0.3-0.3,0.5-0.4
				c0.2-0.1,0.3-0.3,0.5-0.4c0.1-0.1,0.2-0.1,0.3-0.1c0,0,0,0,0.1,0s0.1,0,0.1,0l0,0l0,0l0,0l0,0v0.1c0,0,0,0,0,0.1l0,0
				c0,0,0,0-0.1,0.1s-0.1,0.1-0.1,0.1c0,0.1,0,0.1,0,0.1v0.1h-0.1c0,0.1-0.1,0.1-0.1,0.1l-0.1,0.1c0,0,0,0-0.1,0.1L71.7,165.7z
				 M67.2,164.3c0-0.1-0.1-0.3-0.1-0.4s-0.2-0.1-0.3,0l-0.3,0.3c0,0,0,0.1-0.1,0.1c0,0-0.1,0-0.1,0.1c0,0,0,0.1-0.1,0.1
				c0,0,0,0.1-0.1,0.1l-0.2,0.3c-0.1,0.2-0.2,0.3-0.4,0.5c-0.1,0.2-0.2,0.4-0.3,0.5c0,0.1,0,0.1-0.1,0.1c0,0-0.1,0.1-0.1,0.2l0,0
				l0,0c0,0.1-0.1,0.2-0.1,0.3s-0.1,0.2-0.1,0.3c0.1-0.1,0.2-0.1,0.3-0.2s0.2-0.1,0.2-0.2c0.3-0.3,0.6-0.6,0.9-1
				c0.3-0.3,0.6-0.7,0.9-1L67.2,164.3c0,0,0-0.1,0.1-0.1l0,0C67.3,164.3,67.3,164.3,67.2,164.3z"/>
			<path class="st1" d="M77.4,165.4c0,0,0,0.1-0.1,0.2c-0.1,0.1-0.2,0.2-0.3,0.3c0,0-0.1,0-0.1,0.1c-0.1,0.1-0.1,0.1-0.1,0.1
				l-0.1,0.1l-0.3,0.2l-0.1,0.1l-0.2,0.1c-0.2,0.1-0.4,0.2-0.5,0.3c-0.2,0.1-0.4,0.2-0.6,0.3c0,0,0,0-0.1,0s-0.1,0-0.1,0h-0.1h-0.1
				h-0.1l0,0c-0.1,0-0.1,0-0.1,0s-0.1,0-0.1,0.1h-0.1h-0.1H74h-0.1l0,0l0,0h-0.1c0,0-0.1,0-0.2,0h-0.1h-0.1l0,0c-0.2,0-0.3,0-0.4,0
				h-0.1c0,0,0,0-0.1,0s-0.2,0-0.3-0.1s-0.2-0.1-0.3-0.1c-0.1-0.1-0.2-0.1-0.3-0.2c-0.1-0.1-0.2-0.2-0.3-0.3c0-0.1-0.1-0.2-0.1-0.2
				c0-0.1,0-0.1-0.1-0.2c0-0.1,0-0.2,0-0.2v-0.2c0-0.1,0.1-0.3,0.1-0.5s0.1-0.4,0.3-0.5l0.4-0.4l0.2-0.3c0.1-0.1,0.2-0.1,0.2-0.2
				s0.1-0.1,0.2-0.2c0.1-0.1,0.1-0.1,0.2-0.1s0.1-0.1,0.2-0.1c0.1-0.1,0.2-0.1,0.2-0.2c0.1-0.1,0.2-0.1,0.2-0.2
				c0.1,0,0.2-0.1,0.2-0.1h0.1c0.1,0,0.1,0,0.1,0s0,0,0.1,0c0,0,0,0,0.1,0c0.1,0.1,0.1,0.2,0.2,0.2c0.1,0.1,0.2,0.1,0.2,0.2
				c0.1,0,0.1,0.1,0.1,0.1s0,0.1,0.1,0.1c0,0.1,0,0.2,0,0.2s0,0.1-0.1,0.2c0,0,0,0,0,0.1c0,0,0,0,0,0.1s-0.1,0.1-0.1,0.1l-0.1,0.1
				c0,0,0,0.1-0.1,0.1s0,0.1-0.1,0.1c0,0-0.1,0.1-0.2,0.2c-0.1,0.1-0.1,0.1-0.2,0.2c-0.1,0.1-0.1,0.1-0.2,0.2
				c-0.1,0-0.2,0.1-0.2,0.1v0.1c-0.1,0.1-0.2,0.2-0.3,0.2s-0.2,0.2-0.3,0.2c-0.2,0-0.3,0.1-0.5,0.2c-0.1,0.1-0.3,0.1-0.5,0.1l0,0
				c0,0,0,0,0.1,0c0,0.1,0,0.1,0,0.1s0,0.1,0.1,0.1c0.1,0.1,0.2,0.2,0.3,0.2c0.1,0.1,0.3,0.1,0.4,0.1c0.4,0.1,0.8,0.1,1.2,0
				c0.1,0,0.2,0,0.3-0.1c0.1,0,0.2-0.1,0.4-0.1c0.2-0.1,0.3-0.1,0.5-0.2l0.2-0.1h0.1l0,0l0,0l0,0l0.4-0.2c0.1-0.1,0.2-0.2,0.3-0.2
				c0.1,0,0.2-0.1,0.3-0.3c0,0,0,0,0.1-0.1s0.1-0.1,0.2-0.1s0.1-0.1,0.2-0.1s0.1-0.1,0.1-0.1l0.2-0.2c0.1-0.1,0.2-0.2,0.3-0.2
				c0.1-0.1,0.2-0.1,0.2-0.1l0.1,0.1c0,0,0,0.1,0.1,0.1c-0.1,0.1-0.1,0.2-0.1,0.2s0,0.1-0.1,0.1c0,0,0,0-0.1,0.1
				C77.5,165.3,77.5,165.4,77.4,165.4z M74,163.6c0,0-0.1,0-0.1,0.1s-0.1,0.1-0.1,0.1h-0.1c0,0,0,0-0.1,0c0,0,0,0-0.1,0l-0.1,0.1
				c-0.1,0.1-0.1,0.1-0.2,0.1s-0.1,0.1-0.2,0.1c-0.1,0.1-0.1,0.2-0.2,0.2s-0.1,0.1-0.2,0.2c-0.1,0.1-0.2,0.2-0.3,0.3
				c-0.1,0.1-0.2,0.2-0.3,0.4s-0.2,0.2-0.2,0.4c0.2-0.1,0.4-0.2,0.6-0.3s0.4-0.3,0.6-0.4c0.1-0.1,0.1-0.1,0.2-0.2
				c0.1-0.1,0.1-0.1,0.2-0.2c0.1-0.1,0.2-0.1,0.3-0.3s0.2-0.2,0.3-0.4c0-0.1,0-0.1,0.1-0.1v-0.1C74.1,163.5,74.1,163.5,74,163.6
				C74,163.5,74,163.5,74,163.6z"/>
			<path class="st1" d="M77,167c0-0.1,0.1-0.2,0.1-0.2c0.1,0,0.1-0.1,0.2-0.2c0,0,0,0.1-0.1,0.1c0,0,0,0,0,0.1
				c0.2-0.1,0.2-0.2,0.3-0.3h0.1c0-0.1,0.1-0.1,0.1-0.1l0,0c0,0,0,0,0-0.1s0-0.1,0-0.1l0,0l0,0c0-0.1,0.1-0.1,0.1-0.1s0.1,0,0.1-0.1
				c0,0,0,0,0.1,0c0.1-0.1,0.2-0.1,0.3-0.2c0.1,0,0.2-0.1,0.2-0.2c0.1-0.1,0.3-0.1,0.4-0.2c0.1-0.1,0.3-0.2,0.4-0.2
				c0-0.2,0.1-0.4,0-0.6c0-0.2-0.1-0.4-0.1-0.6c0,0-0.1,0.1-0.2,0.1s-0.1,0.1-0.2,0.2l-0.2,0.2l-0.2,0.2l-0.3,0.3
				c-0.1,0.1-0.2,0.1-0.2,0.2c-0.1,0.1-0.1,0.1-0.2,0.1c-0.1,0.1-0.1,0.2-0.2,0.2s-0.1,0-0.2,0l-0.1-0.1l0,0l0,0c0,0,0,0-0.1-0.1H77
				l0,0c0,0,0,0,0-0.1l0,0c0.1,0,0.1-0.1,0.2-0.1c0,0,0-0.1,0.1-0.1c0-0.1,0-0.1,0.1-0.1s0.1-0.1,0.1-0.1s0.1,0,0.1-0.1
				c0,0,0,0,0-0.1v-0.1l0.1-0.1l0.1-0.1c0.1-0.1,0.2-0.2,0.3-0.3c0.1-0.1,0.2-0.2,0.2-0.3c0.1-0.2,0.2-0.3,0.4-0.4
				c0.2,0,0.3,0,0.4,0.1c0.2,0,0.3,0,0.3,0.1c0.1,0.1,0.1,0.1,0.2,0.3c0,0,0.1,0.1,0.1,0.2c0,0.1,0,0.2,0.1,0.3s0,0.2,0,0.3
				s0,0.2,0,0.2c0.1,0,0.2,0,0.3-0.1c0.2-0.1,0.3-0.1,0.5-0.2s0.4-0.1,0.5-0.2c0.2,0,0.3-0.1,0.3-0.1l0,0l0,0c0,0,0,0,0.1,0
				s0.2,0,0.2-0.1s0.2-0.1,0.2-0.1H82c0,0,0,0,0.1-0.1l0,0l0,0c0,0,0,0,0-0.1c0.1,0,0.2,0,0.3,0c0.1,0,0.2,0,0.2,0h0.1h0.1H83
				c0,0.1,0,0.1,0.1,0l0,0l0,0l0,0l0,0l0,0v0.1c0,0,0,0,0,0.1c-0.1,0-0.1,0-0.1,0h-0.1l0,0l0,0c-0.1,0-0.1,0-0.2,0s-0.1,0-0.1,0.1
				c-0.1,0-0.2,0-0.3,0.1s-0.2,0-0.3,0.1v0.1c-0.1,0-0.1,0-0.2,0h-0.1c-0.1,0-0.2,0-0.3,0.1c-0.1,0-0.2,0.1-0.3,0.1l-1.3,0.5
				c-0.1,0-0.2,0.1-0.3,0.1c-0.1,0-0.2,0.1-0.2,0.2c0,0.2-0.1,0.3-0.1,0.3c0,0.1-0.1,0.2-0.1,0.3c-0.1,0-0.1,0-0.1,0.1s0,0.1,0,0.1
				l0,0l0,0c0,0.1,0,0.1-0.1,0.2c0,0.1-0.1,0.1-0.1,0.2c0,0,0,0,0,0.1s0,0.1,0,0.1s0,0-0.1,0.1v0.1l0,0l0,0v0.1l0,0
				c-0.1,0.1-0.1,0.1-0.2,0.2c0,0.1-0.1,0.1-0.2,0.2l0,0l0,0c-0.2,0.2-0.3,0.3-0.5,0.5c-0.2,0.1-0.4,0.2-0.6,0.3l0,0h-0.1l0,0
				c0,0,0,0,0.1,0c0-0.1-0.1-0.1-0.1,0H77l0,0l0,0h-0.1c0,0-0.1,0-0.2,0l0,0l0,0c-0.2,0-0.4,0-0.6-0.1c-0.1-0.1-0.3-0.2-0.4-0.3l0,0
				l0,0l0,0c0,0,0,0,0-0.1c0,0,0,0.1-0.1,0c0,0,0,0-0.1,0v-0.1c0,0,0,0,0-0.1l0,0l0,0v-0.1h0.1c0-0.2,0-0.3,0.1-0.3l0,0l0,0
				c0.1,0,0.1-0.1,0.1-0.2c0-0.1,0.1-0.2,0.1-0.3C76.8,167.1,76.9,167.1,77,167C76.9,167,76.9,167,77,167z M77.1,166.8L77.1,166.8
				L77.1,166.8z M78.4,166.6L78.4,166.6C78.3,166.6,78.3,166.6,78.4,166.6c-0.1,0.1-0.2,0.2-0.3,0.3s-0.2,0.2-0.3,0.3c0,0,0,0.1,0,0
				l0,0l0,0c-0.1,0-0.1,0.1-0.1,0.1l0,0c0,0.1-0.1,0.1-0.2,0.2c-0.1,0-0.1,0.1-0.1,0.2l0,0l0,0c0.1,0,0.3-0.1,0.4-0.1
				s0.2-0.1,0.4-0.2v-0.1l0,0c0.2-0.2,0.4-0.4,0.6-0.7s0.3-0.5,0.5-0.8l0,0c-0.1,0.1-0.2,0.2-0.3,0.3S78.5,166.5,78.4,166.6z
				 M78,168.5c0,0,0.1,0,0.1-0.1C78.2,168.4,78.1,168.4,78,168.5C78.1,168.4,78.1,168.4,78,168.5z"/>
			<path class="st1" d="M82.3,167c0-0.1,0.1-0.2,0.1-0.2c0.1,0,0.1-0.1,0.2-0.2c0,0,0,0.1-0.1,0.1c0,0,0,0,0,0.1
				c0.2-0.1,0.2-0.2,0.3-0.3h0.1c0-0.1,0.1-0.1,0.1-0.1l0,0c0,0,0,0,0-0.1s0-0.1,0-0.1l0,0l0,0c0-0.1,0.1-0.1,0.1-0.1s0.1,0,0.1-0.1
				c0,0,0,0,0.1,0c0.1-0.1,0.2-0.1,0.3-0.2c0.1,0,0.2-0.1,0.2-0.2c0.1-0.1,0.3-0.1,0.4-0.2c0.1-0.1,0.3-0.2,0.4-0.2
				c0-0.2,0.1-0.4,0-0.6c0-0.2-0.1-0.4-0.1-0.6c0,0-0.1,0.1-0.2,0.1s-0.1,0.1-0.2,0.2l-0.2,0.2l-0.2,0.2l-0.3,0.3
				c-0.1,0.1-0.2,0.1-0.2,0.2c-0.1,0.1-0.1,0.1-0.2,0.1c-0.1,0.1-0.1,0.2-0.2,0.2s-0.1,0-0.2,0l-0.1-0.1l0,0l0,0c0,0,0,0-0.1-0.1
				h-0.1l0,0c0,0,0,0,0-0.1l0,0c0.1,0,0.1-0.1,0.2-0.1c0,0,0-0.1,0.1-0.1c0-0.1,0-0.1,0.1-0.1s0.1-0.1,0.1-0.1s0.1,0,0.1-0.1
				c0,0,0,0,0-0.1v-0.1l0.1-0.1l0.1-0.1c0.1-0.1,0.2-0.2,0.3-0.3c0.1-0.1,0.2-0.2,0.2-0.3c0.1-0.2,0.2-0.3,0.4-0.4
				c0.2,0,0.3,0,0.4,0.1c0.2,0,0.3,0,0.3,0.1c0.1,0.1,0.1,0.1,0.2,0.3c0,0,0.1,0.1,0.1,0.2c0,0.1,0,0.2,0.1,0.3s0,0.2,0,0.3
				s0,0.2,0,0.2c0.1,0,0.2,0,0.3-0.1c0.2-0.1,0.3-0.1,0.5-0.2s0.4-0.1,0.5-0.2c0.2,0,0.3-0.1,0.3-0.1l0,0l0,0c0,0,0,0,0.1,0
				s0.2,0,0.2-0.1s0.2-0.1,0.2-0.1h0.1c0,0,0,0,0.1-0.1l0,0l0,0c0,0,0,0,0-0.1c0.1,0,0.2,0,0.3,0c0.1,0,0.2,0,0.2,0H88h0.1h0.2
				c0,0.1,0,0.1,0.1,0l0,0l0,0l0,0l0,0l0,0v0.1c0,0,0,0,0,0.1c-0.1,0-0.1,0-0.1,0h-0.1l0,0l0,0c-0.1,0-0.1,0-0.2,0s-0.1,0-0.1,0.1
				c-0.1,0-0.2,0-0.3,0.1s-0.2,0-0.3,0.1v0.1c-0.1,0-0.1,0-0.2,0H87c-0.1,0-0.2,0-0.3,0.1c-0.1,0-0.2,0.1-0.3,0.1l-1.3,0.5
				c-0.1,0-0.2,0.1-0.3,0.1c-0.1,0-0.2,0.1-0.2,0.2c0,0.2-0.1,0.3-0.1,0.3c0,0.1-0.1,0.2-0.1,0.3c-0.1,0-0.1,0-0.1,0.1s0,0.1,0,0.1
				l0,0l0,0c0,0.1,0,0.1-0.1,0.2c0,0.1-0.1,0.1-0.1,0.2c0,0,0,0,0,0.1s0,0.1,0,0.1s0,0-0.1,0.1v0.1l0,0l0,0v0.1l0,0
				c-0.1,0.1-0.1,0.1-0.2,0.2c0,0.1-0.1,0.1-0.2,0.2l0,0l0,0c-0.2,0.2-0.3,0.3-0.5,0.5c-0.2,0.1-0.4,0.2-0.6,0.3l0,0h-0.1l0,0
				c0,0,0,0,0.1,0c0-0.1-0.1-0.1-0.1,0h-0.1l0,0l0,0h-0.1c0,0-0.1,0-0.2,0l0,0l0,0c-0.2,0-0.4,0-0.6-0.1c-0.1-0.1-0.3-0.2-0.4-0.3
				l0,0l0,0l0,0c0,0,0,0,0-0.1c0,0,0,0.1-0.1,0c0,0,0,0-0.1,0v-0.1c0,0,0,0,0-0.1l0,0l0,0v-0.1h0.1c0-0.2,0-0.3,0.1-0.3l0,0l0,0
				c0.1,0,0.1-0.1,0.1-0.2c0-0.1,0.1-0.2,0.1-0.3C82.2,167.1,82.2,167.1,82.3,167L82.3,167z M82.5,166.8L82.5,166.8L82.5,166.8z
				 M83.7,166.6L83.7,166.6L83.7,166.6c-0.1,0.1-0.2,0.2-0.3,0.3s-0.2,0.2-0.3,0.3c0,0,0,0.1,0,0l0,0l0,0c-0.1,0-0.1,0.1-0.1,0.1
				l0,0c0,0.1-0.1,0.1-0.2,0.2c-0.1,0-0.1,0.1-0.1,0.2l0,0l0,0c0.1,0,0.3-0.1,0.4-0.1s0.2-0.1,0.4-0.2v-0.1l0,0
				c0.2-0.2,0.4-0.4,0.6-0.7s0.3-0.5,0.5-0.8l0,0c-0.1,0.1-0.2,0.2-0.3,0.3S83.9,166.5,83.7,166.6z M83.4,168.5c0,0,0.1,0,0.1-0.1
				C83.5,168.4,83.5,168.4,83.4,168.5C83.4,168.4,83.4,168.4,83.4,168.5z"/>
			<path class="st1" d="M93.7,165.4c0,0,0,0.1-0.1,0.2c-0.1,0.1-0.2,0.2-0.3,0.3c0,0-0.1,0-0.1,0.1c-0.1,0.1-0.1,0.1-0.1,0.1
				l-0.1,0.1l-0.3,0.2l-0.1,0.1l-0.2,0.1c-0.2,0.1-0.4,0.2-0.5,0.3c-0.2,0.1-0.4,0.2-0.6,0.3c0,0,0,0-0.1,0s-0.1,0-0.1,0H91h-0.1
				h-0.1l0,0c-0.1,0-0.1,0-0.1,0s-0.1,0-0.1,0.1h-0.1h-0.1h-0.1h-0.1l0,0l0,0h-0.1c0,0-0.1,0-0.2,0h-0.1h-0.1l0,0
				c-0.2,0-0.3,0-0.4,0h-0.1c0,0,0,0-0.1,0s-0.2,0-0.3-0.1s-0.2-0.1-0.3-0.1c-0.1-0.1-0.2-0.1-0.3-0.2c-0.1-0.1-0.2-0.2-0.3-0.3
				c0-0.1-0.1-0.2-0.1-0.2c0-0.1,0-0.1-0.1-0.2c0-0.1,0-0.2,0-0.2v-0.2c0-0.1,0.1-0.3,0.1-0.5s0.1-0.4,0.3-0.5l0.4-0.4l0.2-0.3
				c0.1-0.1,0.2-0.1,0.2-0.2s0.1-0.1,0.2-0.2c0.1-0.1,0.1-0.1,0.2-0.1s0.1-0.1,0.2-0.1c0.1-0.1,0.2-0.1,0.2-0.2
				c0.1-0.1,0.2-0.1,0.2-0.2c0.1,0,0.2-0.1,0.2-0.1h0.1c0.1,0,0.1,0,0.1,0s0,0,0.1,0c0,0,0,0,0.1,0c0.1,0.1,0.1,0.2,0.2,0.2
				c0.1,0.1,0.2,0.1,0.2,0.2c0.1,0,0.1,0.1,0.1,0.1s0,0.1,0.1,0.1c0,0.1,0,0.2,0,0.2s0,0.1-0.1,0.2c0,0,0,0,0,0.1c0,0,0,0,0,0.1
				s-0.1,0.1-0.1,0.1l-0.1,0.1c0,0,0,0.1-0.1,0.1s0,0.1-0.1,0.1c0,0-0.1,0.1-0.2,0.2c-0.1,0.1-0.1,0.1-0.2,0.2
				c-0.1,0.1-0.1,0.1-0.2,0.2c-0.1,0-0.2,0.1-0.2,0.1v0.1c-0.1,0.1-0.2,0.2-0.3,0.2s-0.2,0.2-0.3,0.2c-0.2,0-0.3,0.1-0.5,0.2
				c-0.1,0.1-0.3,0.1-0.5,0.1l0,0c0,0,0,0,0.1,0c0,0.1,0,0.1,0,0.1s0,0.1,0.1,0.1c0.1,0.1,0.2,0.2,0.3,0.2c0.1,0.1,0.3,0.1,0.4,0.1
				c0.4,0.1,0.8,0.1,1.2,0c0.1,0,0.2,0,0.3-0.1c0.1,0,0.2-0.1,0.4-0.1c0.2-0.1,0.3-0.1,0.5-0.2l0.2-0.1h0.1l0,0l0,0l0,0l0.4-0.2
				c0.1-0.1,0.2-0.2,0.3-0.2c0.1,0,0.2-0.1,0.3-0.3c0,0,0,0,0.1-0.1s0.1-0.1,0.2-0.1s0.1-0.1,0.2-0.1s0.1-0.1,0.1-0.1l0.2-0.2
				c0.1-0.1,0.2-0.2,0.3-0.2c0.1-0.1,0.2-0.1,0.2-0.1l0.1,0.1c0,0,0,0.1,0.1,0.1c-0.1,0.1-0.1,0.2-0.1,0.2s0,0.1-0.1,0.1
				c0,0,0,0-0.1,0.1C93.8,165.3,93.8,165.4,93.7,165.4z M90.3,163.6c0,0-0.1,0-0.1,0.1s-0.1,0.1-0.1,0.1H90c0,0,0,0-0.1,0
				c0,0,0,0-0.1,0l-0.1,0.1c-0.1,0.1-0.1,0.1-0.2,0.1s-0.1,0.1-0.1,0.1c-0.1,0.1-0.1,0.2-0.2,0.2s-0.1,0.1-0.2,0.2
				c-0.1,0.1-0.2,0.2-0.3,0.3c-0.1,0.1-0.2,0.2-0.3,0.4s-0.2,0.2-0.2,0.4c0.2-0.1,0.4-0.2,0.6-0.3s0.4-0.3,0.6-0.4
				c0.1-0.1,0.1-0.1,0.2-0.2c0.1-0.1,0.1-0.1,0.2-0.2c0.1-0.1,0.2-0.1,0.3-0.3s0.2-0.2,0.3-0.4c0-0.1,0-0.1,0.1-0.1v-0.1
				C90.4,163.5,90.4,163.5,90.3,163.6C90.3,163.5,90.3,163.5,90.3,163.6z"/>
		</g>
	</g>
</g>
</svg>
