<?xml version="1.0" encoding="utf-8"?>
<!-- Generator: Adobe Illustrator 23.0.1, SVG Export Plug-In . SVG Version: 6.00 Build 0)  -->
<svg version="1.1" id="Camada_1" xmlns="http://www.w3.org/2000/svg" xmlns:xlink="http://www.w3.org/1999/xlink" x="0px" y="0px"
	 viewBox="0 0 185.8 191.1" style="enable-background:new 0 0 185.8 191.1;" xml:space="preserve">
<style type="text/css">
	.st0{fill:none;}
	.st1{fill:#A08C82;}
</style>
<g>
	<rect x="0" y="0.3" class="st0" width="185.8" height="191.1"/>
	<rect x="164" y="11.7" class="st0" width="10.1" height="9.8"/>
	<rect x="164" y="22.3" class="st0" width="10.1" height="9.8"/>
	<rect x="164" y="32.8" class="st0" width="10.1" height="9.8"/>
	<rect x="164" y="43.4" class="st0" width="10.1" height="9.8"/>
	<rect x="164" y="54" class="st0" width="10.1" height="9.8"/>
	<rect x="164" y="64.5" class="st0" width="10.1" height="9.8"/>
	<rect x="164" y="75.1" class="st0" width="10.1" height="9.8"/>
	<rect x="164" y="85.7" class="st0" width="10.1" height="9.8"/>
	<rect x="164" y="96.3" class="st0" width="10.1" height="9.8"/>
	<rect x="164" y="106.8" class="st0" width="10.1" height="9.8"/>
	<rect x="164" y="117.4" class="st0" width="10.1" height="9.8"/>
	<rect x="164" y="128" class="st0" width="10.1" height="9.8"/>
	<rect x="164" y="138.6" class="st0" width="10.1" height="9.8"/>
	<rect x="164" y="149.1" class="st0" width="10.1" height="9.8"/>
	<rect x="164" y="159.7" class="st0" width="10.1" height="9.8"/>
	<rect x="164" y="170.3" class="st0" width="10.1" height="9.8"/>
	<rect x="153.2" y="11.7" class="st0" width="10.1" height="9.8"/>
	<rect x="153.2" y="22.3" class="st0" width="10.1" height="9.8"/>
	<rect x="153.2" y="32.8" class="st0" width="10.1" height="9.8"/>
	<rect x="153.2" y="43.4" class="st0" width="10.1" height="9.8"/>
	<rect x="153.2" y="54" class="st0" width="10.1" height="9.8"/>
	<rect x="153.2" y="64.5" class="st0" width="10.1" height="9.8"/>
	<rect x="153.2" y="106.8" class="st0" width="10.1" height="9.8"/>
	<rect x="153.2" y="117.4" class="st0" width="10.1" height="9.8"/>
	<rect x="153.2" y="128" class="st0" width="10.1" height="9.8"/>
	<rect x="153.2" y="138.6" class="st0" width="10.1" height="9.8"/>
	<rect x="153.2" y="149.1" class="st0" width="10.1" height="9.8"/>
	<rect x="153.2" y="170.3" class="st0" width="10.1" height="9.8"/>
	<rect x="142.3" y="11.7" class="st0" width="10.1" height="9.8"/>
	<rect x="142.3" y="22.3" class="st0" width="10.1" height="9.8"/>
	<rect x="142.3" y="32.8" class="st0" width="10.1" height="9.8"/>
	<rect x="142.3" y="43.4" class="st0" width="10.1" height="9.8"/>
	<rect x="142.3" y="54" class="st0" width="10.1" height="9.8"/>
	<rect x="142.3" y="75.1" class="st0" width="10.1" height="9.8"/>
	<rect x="142.3" y="85.7" class="st0" width="10.1" height="9.8"/>
	<rect x="142.3" y="96.3" class="st0" width="10.1" height="9.8"/>
	<rect x="142.3" y="117.4" class="st0" width="10.1" height="9.8"/>
	<rect x="142.3" y="128" class="st0" width="10.1" height="9.8"/>
	<rect x="142.3" y="138.6" class="st0" width="10.1" height="9.8"/>
	<rect x="142.3" y="159.7" class="st0" width="10.1" height="9.8"/>
	<rect x="142.3" y="170.3" class="st0" width="10.1" height="9.8"/>
	<rect x="131.4" y="11.7" class="st0" width="10.1" height="9.8"/>
	<rect x="131.4" y="22.3" class="st0" width="10.1" height="9.8"/>
	<rect x="131.4" y="32.8" class="st0" width="10.1" height="9.8"/>
	<rect x="131.4" y="43.4" class="st0" width="10.1" height="9.8"/>
	<rect x="131.4" y="54" class="st0" width="10.1" height="9.8"/>
	<rect x="131.4" y="75.1" class="st0" width="10.1" height="9.8"/>
	<rect x="131.4" y="85.7" class="st0" width="10.1" height="9.8"/>
	<rect x="131.4" y="96.3" class="st0" width="10.1" height="9.8"/>
	<rect x="131.4" y="117.4" class="st0" width="10.1" height="9.8"/>
	<rect x="131.4" y="128" class="st0" width="10.1" height="9.8"/>
	<rect x="131.4" y="149.1" class="st0" width="10.1" height="9.8"/>
	<rect x="131.4" y="159.7" class="st0" width="10.1" height="9.8"/>
	<rect x="131.4" y="170.3" class="st0" width="10.1" height="9.8"/>
	<rect x="120.5" y="11.7" class="st0" width="10.1" height="9.8"/>
	<rect x="120.5" y="22.3" class="st0" width="10.1" height="9.8"/>
	<rect x="120.5" y="32.8" class="st0" width="10.1" height="9.8"/>
	<rect x="120.5" y="43.4" class="st0" width="10.1" height="9.8"/>
	<rect x="120.5" y="54" class="st0" width="10.1" height="9.8"/>
	<rect x="120.5" y="75.1" class="st0" width="10.1" height="9.8"/>
	<rect x="120.5" y="85.7" class="st0" width="10.1" height="9.8"/>
	<rect x="120.5" y="96.3" class="st0" width="10.1" height="9.8"/>
	<rect x="120.5" y="117.4" class="st0" width="10.1" height="9.8"/>
	<rect x="120.5" y="138.6" class="st0" width="10.1" height="9.8"/>
	<rect x="120.5" y="149.1" class="st0" width="10.1" height="9.8"/>
	<rect x="120.5" y="159.7" class="st0" width="10.1" height="9.8"/>
	<rect x="120.5" y="170.3" class="st0" width="10.1" height="9.8"/>
	<rect x="109.6" y="11.7" class="st0" width="10.1" height="9.8"/>
	<rect x="109.6" y="22.3" class="st0" width="10.1" height="9.8"/>
	<rect x="109.6" y="32.8" class="st0" width="10.1" height="9.8"/>
	<rect x="109.6" y="43.4" class="st0" width="10.1" height="9.8"/>
	<rect x="109.6" y="54" class="st0" width="10.1" height="9.8"/>
	<rect x="109.6" y="75.1" class="st0" width="10.1" height="9.8"/>
	<rect x="109.6" y="85.7" class="st0" width="10.1" height="9.8"/>
	<rect x="109.6" y="96.3" class="st0" width="10.1" height="9.8"/>
	<rect x="109.6" y="128" class="st0" width="10.1" height="9.8"/>
	<rect x="109.6" y="138.6" class="st0" width="10.1" height="9.8"/>
	<rect x="109.6" y="149.1" class="st0" width="10.1" height="9.8"/>
	<rect x="109.6" y="159.7" class="st0" width="10.1" height="9.8"/>
	<rect x="109.6" y="170.3" class="st0" width="10.1" height="9.8"/>
	<rect x="98.7" y="11.7" class="st0" width="10.1" height="9.8"/>
	<rect x="98.7" y="22.3" class="st0" width="10.1" height="9.8"/>
	<rect x="98.7" y="32.8" class="st0" width="10.1" height="9.8"/>
	<rect x="98.7" y="43.4" class="st0" width="10.1" height="9.8"/>
	<rect x="98.7" y="54" class="st0" width="10.1" height="9.8"/>
	<rect x="98.7" y="170.3" class="st0" width="10.1" height="9.8"/>
	<rect x="87.9" y="11.7" class="st0" width="10.1" height="9.8"/>
	<rect x="87.9" y="22.3" class="st0" width="10.1" height="9.8"/>
	<rect x="87.9" y="32.8" class="st0" width="10.1" height="9.8"/>
	<rect x="87.9" y="43.4" class="st0" width="10.1" height="9.8"/>
	<rect x="87.9" y="54" class="st0" width="10.1" height="9.8"/>
	<rect x="87.9" y="64.5" class="st0" width="10.1" height="9.8"/>
	<rect x="87.9" y="75.1" class="st0" width="10.1" height="9.8"/>
	<rect x="87.9" y="85.7" class="st0" width="10.1" height="9.8"/>
	<rect x="87.9" y="96.3" class="st0" width="10.1" height="9.8"/>
	<rect x="87.9" y="106.8" class="st0" width="10.1" height="9.8"/>
	<rect x="87.9" y="117.4" class="st0" width="10.1" height="9.8"/>
	<rect x="87.9" y="128" class="st0" width="10.1" height="9.8"/>
	<rect x="87.9" y="138.6" class="st0" width="10.1" height="9.8"/>
	<rect x="87.9" y="149.1" class="st0" width="10.1" height="9.8"/>
	<rect x="87.9" y="159.7" class="st0" width="10.1" height="9.8"/>
	<rect x="87.9" y="170.3" class="st0" width="10.1" height="9.8"/>
	<rect x="77" y="11.7" class="st0" width="10.1" height="9.8"/>
	<rect x="77" y="22.3" class="st0" width="10.1" height="9.8"/>
	<rect x="77" y="64.5" class="st0" width="10.1" height="9.8"/>
	<rect x="77" y="75.1" class="st0" width="10.1" height="9.8"/>
	<rect x="77" y="85.7" class="st0" width="10.1" height="9.8"/>
	<rect x="77" y="96.3" class="st0" width="10.1" height="9.8"/>
	<rect x="77" y="106.8" class="st0" width="10.1" height="9.8"/>
	<rect x="77" y="117.4" class="st0" width="10.1" height="9.8"/>
	<rect x="77" y="128" class="st0" width="10.1" height="9.8"/>
	<rect x="77" y="138.6" class="st0" width="10.1" height="9.8"/>
	<rect x="77" y="149.1" class="st0" width="10.1" height="9.8"/>
	<rect x="77" y="159.7" class="st0" width="10.1" height="9.8"/>
	<rect x="77" y="170.3" class="st0" width="10.1" height="9.8"/>
	<rect x="66.1" y="11.7" class="st0" width="10.1" height="9.8"/>
	<rect x="66.1" y="32.8" class="st0" width="10.1" height="9.8"/>
	<rect x="66.1" y="43.4" class="st0" width="10.1" height="9.8"/>
	<rect x="66.1" y="54" class="st0" width="10.1" height="9.8"/>
	<rect x="66.1" y="75.1" class="st0" width="10.1" height="9.8"/>
	<rect x="66.1" y="85.7" class="st0" width="10.1" height="9.8"/>
	<rect x="66.1" y="96.3" class="st0" width="10.1" height="9.8"/>
	<rect x="66.1" y="106.8" class="st0" width="10.1" height="9.8"/>
	<rect x="66.1" y="117.4" class="st0" width="10.1" height="9.8"/>
	<rect x="66.1" y="128" class="st0" width="10.1" height="9.8"/>
	<rect x="66.1" y="138.6" class="st0" width="10.1" height="9.8"/>
	<rect x="66.1" y="149.1" class="st0" width="10.1" height="9.8"/>
	<rect x="66.1" y="159.7" class="st0" width="10.1" height="9.8"/>
	<rect x="66.1" y="170.3" class="st0" width="10.1" height="9.8"/>
	<rect x="55.2" y="11.7" class="st0" width="10.1" height="9.8"/>
	<rect x="55.2" y="32.8" class="st0" width="10.1" height="9.8"/>
	<rect x="55.2" y="43.4" class="st0" width="10.1" height="9.8"/>
	<rect x="55.2" y="54" class="st0" width="10.1" height="9.8"/>
	<rect x="55.2" y="75.1" class="st0" width="10.1" height="9.8"/>
	<rect x="55.2" y="85.7" class="st0" width="10.1" height="9.8"/>
	<rect x="55.2" y="96.3" class="st0" width="10.1" height="9.8"/>
	<rect x="55.2" y="106.8" class="st0" width="10.1" height="9.8"/>
	<rect x="55.2" y="117.4" class="st0" width="10.1" height="9.8"/>
	<rect x="55.2" y="128" class="st0" width="10.1" height="9.8"/>
	<rect x="55.2" y="138.6" class="st0" width="10.1" height="9.8"/>
	<rect x="55.2" y="149.1" class="st0" width="10.1" height="9.8"/>
	<rect x="55.2" y="159.7" class="st0" width="10.1" height="9.8"/>
	<rect x="55.2" y="170.3" class="st0" width="10.1" height="9.8"/>
	<rect x="44.3" y="11.7" class="st0" width="10.1" height="9.8"/>
	<rect x="44.3" y="32.8" class="st0" width="10.1" height="9.8"/>
	<rect x="44.3" y="43.4" class="st0" width="10.1" height="9.8"/>
	<rect x="44.3" y="54" class="st0" width="10.1" height="9.8"/>
	<rect x="44.3" y="75.1" class="st0" width="10.1" height="9.8"/>
	<rect x="44.3" y="85.7" class="st0" width="10.1" height="9.8"/>
	<rect x="44.3" y="96.3" class="st0" width="10.1" height="9.8"/>
	<rect x="44.3" y="106.8" class="st0" width="10.1" height="9.8"/>
	<rect x="44.3" y="117.4" class="st0" width="10.1" height="9.8"/>
	<rect x="44.3" y="128" class="st0" width="10.1" height="9.8"/>
	<rect x="44.3" y="138.6" class="st0" width="10.1" height="9.8"/>
	<rect x="44.3" y="149.1" class="st0" width="10.1" height="9.8"/>
	<rect x="44.3" y="159.7" class="st0" width="10.1" height="9.8"/>
	<rect x="44.3" y="170.3" class="st0" width="10.1" height="9.8"/>
	<rect x="33.4" y="11.7" class="st0" width="10.1" height="9.8"/>
	<rect x="33.4" y="32.8" class="st0" width="10.1" height="9.8"/>
	<rect x="33.4" y="43.4" class="st0" width="10.1" height="9.8"/>
	<rect x="33.4" y="54" class="st0" width="10.1" height="9.8"/>
	<rect x="33.4" y="75.1" class="st0" width="10.1" height="9.8"/>
	<rect x="33.4" y="85.7" class="st0" width="10.1" height="9.8"/>
	<rect x="33.4" y="96.3" class="st0" width="10.1" height="9.8"/>
	<rect x="33.4" y="106.8" class="st0" width="10.1" height="9.8"/>
	<rect x="33.4" y="117.4" class="st0" width="10.1" height="9.8"/>
	<rect x="33.4" y="128" class="st0" width="10.1" height="9.8"/>
	<rect x="33.4" y="138.6" class="st0" width="10.1" height="9.8"/>
	<rect x="33.4" y="149.1" class="st0" width="10.1" height="9.8"/>
	<rect x="33.4" y="159.7" class="st0" width="10.1" height="9.8"/>
	<rect x="33.4" y="170.3" class="st0" width="10.1" height="9.8"/>
	<rect x="22.6" y="11.7" class="st0" width="10.1" height="9.8"/>
	<rect x="22.6" y="128" class="st0" width="10.1" height="9.8"/>
	<rect x="22.6" y="138.6" class="st0" width="10.1" height="9.8"/>
	<rect x="22.6" y="149.1" class="st0" width="10.1" height="9.8"/>
	<rect x="22.6" y="159.7" class="st0" width="10.1" height="9.8"/>
	<rect x="22.6" y="170.3" class="st0" width="10.1" height="9.8"/>
	<rect x="11.7" y="11.7" class="st0" width="10.1" height="9.8"/>
	<rect x="11.7" y="22.3" class="st0" width="10.1" height="9.8"/>
	<rect x="11.7" y="32.8" class="st0" width="10.1" height="9.8"/>
	<rect x="11.7" y="43.4" class="st0" width="10.1" height="9.8"/>
	<rect x="11.7" y="54" class="st0" width="10.1" height="9.8"/>
	<rect x="11.7" y="64.5" class="st0" width="10.1" height="9.8"/>
	<rect x="11.7" y="75.1" class="st0" width="10.1" height="9.8"/>
	<rect x="11.7" y="85.7" class="st0" width="10.1" height="9.8"/>
	<rect x="11.7" y="96.3" class="st0" width="10.1" height="9.8"/>
	<rect x="11.7" y="106.8" class="st0" width="10.1" height="9.8"/>
	<rect x="11.7" y="117.4" class="st0" width="10.1" height="9.8"/>
	<rect x="11.7" y="128" class="st0" width="10.1" height="9.8"/>
	<rect x="11.7" y="138.6" class="st0" width="10.1" height="9.8"/>
	<rect x="11.7" y="149.1" class="st0" width="10.1" height="9.8"/>
	<rect x="11.7" y="159.7" class="st0" width="10.1" height="9.8"/>
	<rect x="11.7" y="170.3" class="st0" width="10.1" height="9.8"/>
	<g>
		<g>
			<g>
				<rect x="153.2" y="75.1" class="st1" width="10.1" height="9.8"/>
			</g>
			<g>
				<rect x="153.2" y="85.7" class="st1" width="10.1" height="9.8"/>
			</g>
			<g>
				<rect x="153.2" y="96.3" class="st1" width="10.1" height="9.8"/>
			</g>
			<g>
				<rect x="153.2" y="159.7" class="st1" width="10.1" height="9.8"/>
			</g>
			<g>
				<rect x="142.3" y="64.5" class="st1" width="10.1" height="9.8"/>
			</g>
			<g>
				<rect x="142.3" y="106.8" class="st1" width="10.1" height="9.8"/>
			</g>
			<g>
				<rect x="142.3" y="149.1" class="st1" width="10.1" height="9.8"/>
			</g>
			<g>
				<rect x="131.4" y="64.5" class="st1" width="10.1" height="9.8"/>
			</g>
			<g>
				<rect x="131.4" y="106.8" class="st1" width="10.1" height="9.8"/>
			</g>
			<g>
				<rect x="131.4" y="138.6" class="st1" width="10.1" height="9.8"/>
			</g>
			<g>
				<rect x="120.5" y="64.5" class="st1" width="10.1" height="9.8"/>
			</g>
			<g>
				<rect x="120.5" y="106.8" class="st1" width="10.1" height="9.8"/>
			</g>
			<g>
				<rect x="120.5" y="128" class="st1" width="10.1" height="9.8"/>
			</g>
			<g>
				<rect x="109.6" y="64.5" class="st1" width="10.1" height="9.8"/>
			</g>
			<g>
				<rect x="109.6" y="106.8" class="st1" width="10.1" height="9.8"/>
			</g>
			<g>
				<rect x="109.6" y="117.4" class="st1" width="10.1" height="9.8"/>
			</g>
			<g>
				<rect x="98.7" y="64.5" class="st1" width="10.1" height="9.8"/>
			</g>
			<g>
				<rect x="98.7" y="75.1" class="st1" width="10.1" height="9.8"/>
			</g>
			<g>
				<rect x="98.7" y="85.7" class="st1" width="10.1" height="9.8"/>
			</g>
			<g>
				<rect x="98.7" y="96.3" class="st1" width="10.1" height="9.8"/>
			</g>
			<g>
				<rect x="98.7" y="106.8" class="st1" width="10.1" height="9.8"/>
			</g>
			<g>
				<rect x="98.7" y="117.4" class="st1" width="10.1" height="9.8"/>
			</g>
			<g>
				<rect x="98.7" y="128" class="st1" width="10.1" height="9.8"/>
			</g>
			<g>
				<rect x="98.7" y="138.6" class="st1" width="10.1" height="9.8"/>
			</g>
			<g>
				<rect x="98.7" y="149.1" class="st1" width="10.1" height="9.8"/>
			</g>
			<g>
				<rect x="98.7" y="159.7" class="st1" width="10.1" height="9.8"/>
			</g>
			<g>
				<rect x="77" y="32.8" class="st1" width="10.1" height="9.8"/>
			</g>
			<g>
				<rect x="77" y="43.4" class="st1" width="10.1" height="9.8"/>
			</g>
			<g>
				<rect x="77" y="54" class="st1" width="10.1" height="9.8"/>
			</g>
			<g>
				<rect x="66.1" y="22.3" class="st1" width="10.1" height="9.8"/>
			</g>
			<g>
				<rect x="66.1" y="64.5" class="st1" width="10.1" height="9.8"/>
			</g>
			<g>
				<rect x="55.2" y="22.3" class="st1" width="10.1" height="9.8"/>
			</g>
			<g>
				<rect x="55.2" y="64.5" class="st1" width="10.1" height="9.8"/>
			</g>
			<g>
				<rect x="44.3" y="22.3" class="st1" width="10.1" height="9.8"/>
			</g>
			<g>
				<rect x="44.3" y="64.5" class="st1" width="10.1" height="9.8"/>
			</g>
			<g>
				<rect x="33.4" y="22.3" class="st1" width="10.1" height="9.8"/>
			</g>
			<g>
				<rect x="33.4" y="64.5" class="st1" width="10.1" height="9.8"/>
			</g>
			<g>
				<rect x="22.6" y="22.3" class="st1" width="10.1" height="9.8"/>
			</g>
			<g>
				<rect x="22.6" y="32.8" class="st1" width="10.1" height="9.8"/>
			</g>
			<g>
				<rect x="22.6" y="43.4" class="st1" width="10.1" height="9.8"/>
			</g>
			<g>
				<rect x="22.6" y="54" class="st1" width="10.1" height="9.8"/>
			</g>
			<g>
				<rect x="22.6" y="64.5" class="st1" width="10.1" height="9.8"/>
			</g>
			<g>
				<rect x="22.6" y="75.1" class="st1" width="10.1" height="9.8"/>
			</g>
			<g>
				<rect x="22.6" y="85.7" class="st1" width="10.1" height="9.8"/>
			</g>
			<g>
				<rect x="22.6" y="96.3" class="st1" width="10.1" height="9.8"/>
			</g>
			<g>
				<rect x="22.6" y="106.8" class="st1" width="10.1" height="9.8"/>
			</g>
			<g>
				<rect x="22.6" y="117.4" class="st1" width="10.1" height="9.8"/>
			</g>
			<g>
				<rect x="0.8" y="1.1" class="st1" width="10.1" height="9.8"/>
			</g>
			<g>
				<rect x="0.8" y="11.7" class="st1" width="10.1" height="9.8"/>
			</g>
			<g>
				<rect x="0.8" y="22.3" class="st1" width="10.1" height="9.8"/>
			</g>
			<g>
				<rect x="0.8" y="32.8" class="st1" width="10.1" height="9.8"/>
			</g>
			<g>
				<rect x="0.8" y="43.4" class="st1" width="10.1" height="9.8"/>
			</g>
			<g>
				<rect x="0.8" y="54" class="st1" width="10.1" height="9.8"/>
			</g>
			<g>
				<rect x="0.8" y="64.5" class="st1" width="10.1" height="9.8"/>
			</g>
			<g>
				<rect x="0.8" y="75.1" class="st1" width="10.1" height="9.8"/>
			</g>
			<g>
				<rect x="0.8" y="85.7" class="st1" width="10.1" height="9.8"/>
			</g>
			<g>
				<rect x="0.8" y="96.3" class="st1" width="10.1" height="9.8"/>
			</g>
			<g>
				<rect x="0.8" y="106.8" class="st1" width="10.1" height="9.8"/>
			</g>
			<g>
				<rect x="0.8" y="117.4" class="st1" width="10.1" height="9.8"/>
			</g>
			<g>
				<rect x="0.8" y="128" class="st1" width="10.1" height="9.8"/>
			</g>
			<g>
				<rect x="0.8" y="138.6" class="st1" width="10.1" height="9.8"/>
			</g>
			<g>
				<rect x="0.8" y="149.1" class="st1" width="10.1" height="9.8"/>
			</g>
			<g>
				<rect x="0.8" y="159.7" class="st1" width="10.1" height="9.8"/>
			</g>
			<g>
				<rect x="0.8" y="170.3" class="st1" width="10.1" height="9.8"/>
			</g>
			<g>
				<rect x="174.9" y="11.7" class="st1" width="10.1" height="9.8"/>
			</g>
			<g>
				<rect x="174.9" y="22.3" class="st1" width="10.1" height="9.8"/>
			</g>
			<g>
				<rect x="174.9" y="32.8" class="st1" width="10.1" height="9.8"/>
			</g>
			<g>
				<rect x="174.9" y="43.4" class="st1" width="10.1" height="9.8"/>
			</g>
			<g>
				<rect x="174.9" y="54" class="st1" width="10.1" height="9.8"/>
			</g>
			<g>
				<rect x="174.9" y="64.5" class="st1" width="10.1" height="9.8"/>
			</g>
			<g>
				<rect x="174.9" y="75.1" class="st1" width="10.1" height="9.8"/>
			</g>
			<g>
				<rect x="174.9" y="85.7" class="st1" width="10.1" height="9.8"/>
			</g>
			<g>
				<rect x="174.9" y="96.3" class="st1" width="10.1" height="9.8"/>
			</g>
			<g>
				<rect x="174.9" y="106.8" class="st1" width="10.1" height="9.8"/>
			</g>
			<g>
				<rect x="174.9" y="117.4" class="st1" width="10.1" height="9.8"/>
			</g>
			<g>
				<rect x="174.9" y="128" class="st1" width="10.1" height="9.8"/>
			</g>
			<g>
				<rect x="174.9" y="138.6" class="st1" width="10.1" height="9.8"/>
			</g>
			<g>
				<rect x="174.9" y="149.1" class="st1" width="10.1" height="9.8"/>
			</g>
			<g>
				<rect x="174.9" y="159.7" class="st1" width="10.1" height="9.8"/>
			</g>
			<g>
				<rect x="174.9" y="170.3" class="st1" width="10.1" height="9.8"/>
			</g>
			<g>
				<rect x="0.8" y="180.9" class="st1" width="10.1" height="9.8"/>
			</g>
			<g>
				<rect x="11.7" y="1.1" class="st1" width="10.1" height="9.8"/>
			</g>
			<g>
				<rect x="22.6" y="1.1" class="st1" width="10.1" height="9.8"/>
			</g>
			<g>
				<rect x="33.4" y="1.1" class="st1" width="10.1" height="9.8"/>
			</g>
			<g>
				<rect x="44.3" y="1.1" class="st1" width="10.1" height="9.8"/>
			</g>
			<g>
				<rect x="55.2" y="1.1" class="st1" width="10.1" height="9.8"/>
			</g>
			<g>
				<rect x="66.1" y="1.1" class="st1" width="10.1" height="9.8"/>
			</g>
			<g>
				<rect x="77" y="1.1" class="st1" width="10.1" height="9.8"/>
			</g>
			<g>
				<rect x="87.9" y="1.1" class="st1" width="10.1" height="9.8"/>
			</g>
			<g>
				<rect x="98.7" y="1.1" class="st1" width="10.1" height="9.8"/>
			</g>
			<g>
				<rect x="109.6" y="1.1" class="st1" width="10.1" height="9.8"/>
			</g>
			<g>
				<rect x="120.5" y="1.1" class="st1" width="10.1" height="9.8"/>
			</g>
			<g>
				<rect x="131.4" y="1.1" class="st1" width="10.1" height="9.8"/>
			</g>
			<g>
				<rect x="142.3" y="1.1" class="st1" width="10.1" height="9.8"/>
			</g>
			<g>
				<rect x="153.2" y="1.1" class="st1" width="10.1" height="9.8"/>
			</g>
			<g>
				<rect x="164" y="1.1" class="st1" width="10.1" height="9.8"/>
			</g>
			<g>
				<rect x="174.9" y="1.1" class="st1" width="10.1" height="9.8"/>
			</g>
			<g>
				<rect x="11.7" y="180.9" class="st1" width="10.1" height="9.8"/>
			</g>
			<g>
				<rect x="22.6" y="180.9" class="st1" width="10.1" height="9.8"/>
			</g>
			<g>
				<rect x="33.4" y="180.9" class="st1" width="10.1" height="9.8"/>
			</g>
			<g>
				<rect x="44.3" y="180.9" class="st1" width="10.1" height="9.8"/>
			</g>
			<g>
				<rect x="55.2" y="180.9" class="st1" width="10.1" height="9.8"/>
			</g>
			<g>
				<rect x="66.1" y="180.9" class="st1" width="10.1" height="9.8"/>
			</g>
			<g>
				<rect x="77" y="180.9" class="st1" width="10.1" height="9.8"/>
			</g>
			<g>
				<rect x="87.9" y="180.9" class="st1" width="10.1" height="9.8"/>
			</g>
			<g>
				<rect x="98.7" y="180.9" class="st1" width="10.1" height="9.8"/>
			</g>
			<g>
				<rect x="109.6" y="180.9" class="st1" width="10.1" height="9.8"/>
			</g>
			<g>
				<rect x="120.5" y="180.9" class="st1" width="10.1" height="9.8"/>
			</g>
			<g>
				<rect x="131.4" y="180.9" class="st1" width="10.1" height="9.8"/>
			</g>
			<g>
				<rect x="142.3" y="180.9" class="st1" width="10.1" height="9.8"/>
			</g>
			<g>
				<rect x="153.2" y="180.9" class="st1" width="10.1" height="9.8"/>
			</g>
			<g>
				<rect x="164" y="180.9" class="st1" width="10.1" height="9.8"/>
			</g>
			<g>
				<rect x="174.9" y="180.9" class="st1" width="10.1" height="9.8"/>
			</g>
		</g>
	</g>
	<g>
		<g>
			<path class="st1" d="M23.3,167.2L23.3,167.2c-0.1,0.1-0.1,0.1-0.1,0.1c0,0.1,0,0.2,0,0.3s0,0.1,0,0.1v0.1c0,0,0,0,0,0.1l0,0
				c0,0,0,0,0,0.1c0,0,0,0,0,0.1s0,0.1,0,0.1c-0.1,0.1-0.1,0.1,0,0.2s0,0.2,0,0.2s0,0,0.1,0c0,0.1,0,0.1,0,0.2v0.1v0.1
				c0,0.2,0,0.3,0,0.3c0,0.1,0,0.1,0,0.2c0,0.1,0,0.1,0,0.2c0,0.1,0,0.2,0,0.3l0,0c0,0,0,0,0,0.1l0,0v0.1l0,0l0,0v0.1l0,0l0,0
				c0,0,0,0,0.1,0c0,0.1,0,0.2,0,0.3s0.1,0.2,0,0.3l0,0c0-0.1,0-0.1-0.1-0.2v0.1c0,0,0,0,0.1,0l0,0l0,0l0,0c0,0.1,0,0.1-0.1,0.1
				c0,0,0,0,0,0.1l0,0l0,0l0,0l0,0c-0.1,0-0.1,0-0.1,0l0,0l0,0c0,0,0,0-0.1-0.1c0-0.1,0-0.2-0.1-0.2c0,0,0-0.1-0.1-0.2
				c0-0.1,0-0.2,0-0.2s-0.1-0.1-0.1-0.2c0-0.3,0-0.5,0-0.6s0-0.2,0-0.3s0-0.2,0-0.3s0-0.3,0-0.6c0,0,0-0.1,0-0.2s0-0.2,0-0.2
				s0,0,0-0.1s0,0,0-0.1l0,0l0,0c0-0.3,0-0.5,0-0.8s0.1-0.5,0.1-0.8l0,0l0,0l0,0l0,0c0-0.2,0-0.5,0.1-0.8s0.1-0.6,0.1-0.8l-0.1-0.1
				c0,0,0,0,0,0.1s0,0-0.1,0c0,0,0,0,0-0.1h-0.1l0,0l0,0c-0.1,0-0.2,0.1-0.4,0.1c-0.1,0-0.3,0-0.4,0.1c0,0,0,0,0.1-0.1H22l-0.1,0.1
				h-0.1c0,0,0,0-0.1,0v-0.1c0,0,0,0.1-0.1,0.1l-0.1,0.1l0,0l0,0c-0.1,0-0.2,0-0.2,0.1c-0.1,0-0.2,0-0.2,0H21c0,0,0,0-0.1,0h-0.1
				h-0.1h-0.1c-0.2,0.1-0.5,0.1-0.7,0.1c-0.3,0-0.5,0-0.7,0.1c-0.4,0.7-0.8,1.4-1.1,2.2s-0.8,1.5-1.2,2.1c-0.1,0-0.2,0-0.3,0
				s-0.1,0-0.2-0.1c-0.1,0-0.1-0.1-0.2-0.1c-0.1,0-0.1-0.1-0.2-0.1c0-0.1,0-0.1,0.1-0.1c0.3-0.6,0.6-1.2,0.9-1.8
				c0.3-0.6,0.6-1.2,0.9-1.8c0,0,0,0-0.1,0c0,0,0,0-0.1,0l0,0c-0.2,0-0.4,0.1-0.6,0.1s-0.4,0.1-0.6,0.1c-0.1,0.1-0.3,0.1-0.5,0.1
				s-0.3,0-0.5,0.1c-0.1,0-0.1,0-0.2,0.1s-0.1,0-0.1,0.1h-0.1H15h-0.1h-0.1c0-0.1,0-0.2-0.1-0.3c0-0.1-0.1-0.2-0.1-0.3
				c0.1,0,0.1,0,0.1,0c0.2-0.1,0.3-0.1,0.5-0.2c0.2,0,0.3-0.1,0.5-0.1s0.3-0.1,0.5-0.1s0.3-0.1,0.5-0.1c0.3-0.1,0.5-0.1,0.8-0.2
				c0.3-0.1,0.5-0.1,0.8-0.2c0,0,0,0,0-0.1v-0.1c0.1,0,0.1-0.1,0.1-0.1s0.1-0.1,0.1-0.2c0.6-1,1.3-2.1,1.9-3.1s1.4-2,2.2-2.9
				c0.1-0.1,0.2-0.2,0.3-0.3s0.2-0.2,0.3-0.3c0-0.1,0.1-0.1,0.1-0.1c0.1,0,0.2-0.1,0.2-0.1c0.1-0.1,0.1-0.1,0.2-0.2s0.2-0.1,0.2-0.2
				c0.1,0,0.2-0.1,0.3-0.1s0.2,0.1,0.3,0.2s0.1,0.3,0.2,0.4c0.1,0.1,0.2,0.2,0.2,0.2c0,0.1,0.1,0.2,0,0.4c0,0.1,0,0.2,0,0.2
				c0,0.1,0,0.1,0,0.2c0,0.1,0,0.2-0.1,0.2c0,0.1,0,0.1-0.1,0.2c0,0,0,0,0,0.1v0.1c0,0.1,0,0.2-0.1,0.2c0,0.1-0.1,0.2-0.1,0.2
				c0,0.1,0,0.2,0,0.2s0,0.2,0,0.3s0,0.1-0.1,0.2s-0.1,0.1-0.1,0.2c-0.1,0.4-0.2,0.8-0.2,1.1c-0.1,0.3-0.1,0.7-0.2,1.1l0,0l0,0l0,0
				c0,0.1,0,0.1,0,0.1s0,0.1-0.1,0.1l0,0c0,0,0,0,0,0.1l0,0l0,0c0,0.1,0,0.2,0,0.2c0,0.1,0,0.2,0,0.2s0,0,0,0.1s0,0.1,0,0.1
				c0.2,0,0.4,0,0.6,0c0.2,0,0.4,0,0.6,0h-0.1c0,0-0.1,0-0.2,0H25c0,0-0.1,0.1-0.1,0c0,0-0.1,0-0.2,0h0.1c-0.1,0.1-0.2,0.1-0.3,0
				c-0.1,0-0.2,0-0.3,0l0,0l0,0c-0.1,0-0.2,0-0.2,0c-0.1,0-0.2,0-0.2,0c0.1,0,0.1,0,0.2,0s0.2,0,0.3,0c-0.1,0.1-0.1,0.1-0.2,0.1
				c-0.1,0-0.1,0-0.2,0c0,0,0,0,0-0.1h-0.1v0.1c0,0,0,0-0.1,0c0.2,0,0.4,0,0.5,0c0.2,0,0.3,0,0.5,0c-0.1,0-0.1,0-0.1,0h-0.1l0,0l0,0
				h-0.1c0,0,0,0-0.1,0l0,0l0,0c-0.1,0-0.3,0-0.4,0c-0.1,0-0.3,0-0.4,0c0.1,0,0.1,0.1,0.1,0.1l-0.1,0.1l0,0c-0.1,0-0.1,0-0.1,0l0,0
				c0,0,0,0,0-0.1l0,0l0,0l0,0l0,0l0,0l0,0l0,0l0,0l0,0l0,0l0,0l0,0c0,0-0.1,0,0,0l0,0l0,0l0,0v0.1v0.1l0,0v-0.1c0,0,0,0,0,0.1
				s0,0.2,0,0.2c0,0.1,0,0.2,0,0.2c0,0.1,0,0.1,0,0.1c0,0.1,0,0.2,0,0.4c-0.1,0.2-0.1,0.6-0.2,1.1c0,0,0,0-0.1,0L23.3,167.2z
				 M22.1,164.1L22.1,164.1C22,164,22.1,164,22.1,164.1L22.1,164.1c0.2,0,0.2,0,0.2-0.1h0.1l0,0c0.1,0,0.2,0,0.2,0s0.1,0,0.2,0
				c0,0,0,0-0.1,0l0,0c0.1,0,0.1,0,0.1,0h0.1c0.1-0.3,0.1-0.6,0.1-0.9s0.1-0.6,0.1-0.9l0.2-0.6c0,0,0,0,0-0.1s0,0,0-0.1l0,0
				c0,0,0-0.1,0-0.2c0-0.1,0-0.1,0-0.1c0.1-0.1,0.1-0.2,0.1-0.3s0-0.2,0.1-0.3c0-0.1,0-0.1,0-0.2v-0.1l0.1-0.5
				c0-0.1,0.1-0.2,0.1-0.3s0.1-0.2,0.1-0.3V159c0-0.1,0-0.3,0.1-0.4c0-0.1,0.1-0.2,0.1-0.4c-0.2,0.1-0.3,0.2-0.4,0.3
				s-0.2,0.2-0.4,0.4c-0.2,0.3-0.4,0.5-0.6,0.7c-0.2,0.2-0.4,0.5-0.6,0.8c-0.1,0.1-0.2,0.3-0.3,0.4c-0.1,0.2-0.2,0.3-0.3,0.5v0.1
				l0,0c-0.3,0.5-0.6,0.9-0.9,1.4c-0.3,0.5-0.6,0.9-0.9,1.4c0,0.1,0,0.1-0.1,0.1c0,0-0.1,0.1,0,0.1s0.2-0.1,0.3-0.1h-0.1
				c0.2,0,0.4-0.1,0.5-0.1s0.3,0,0.5,0l0,0c0.1,0,0.1,0,0.1,0l0,0l0,0l0,0c0.2,0,0.4-0.1,0.6-0.1c0.2,0,0.4-0.1,0.5,0l0,0l0,0
				L22.1,164.1z M20.5,164.2c0.1,0,0.1,0,0.1-0.1C20.6,164.2,20.5,164.2,20.5,164.2L20.5,164.2C20.4,164.2,20.4,164.2,20.5,164.2
				L20.5,164.2L20.5,164.2z M20.5,164.2C20.4,164.2,20.4,164.2,20.5,164.2L20.5,164.2L20.5,164.2C20.6,164.2,20.6,164.2,20.5,164.2
				L20.5,164.2L20.5,164.2z M20.9,164.9C20.9,165,20.8,165,20.9,164.9C20.8,165,20.8,164.9,20.9,164.9C20.8,165,20.8,165,20.9,164.9
				z M20.9,164.1C20.8,164.1,20.9,164.1,20.9,164.1L20.9,164.1L20.9,164.1L20.9,164.1z M21.5,164.8L21.5,164.8L21.5,164.8
				L21.5,164.8L21.5,164.8L21.5,164.8L21.5,164.8L21.5,164.8L21.5,164.8z M21.5,164.8L21.5,164.8L21.5,164.8L21.5,164.8L21.5,164.8
				L21.5,164.8L21.5,164.8L21.5,164.8L21.5,164.8z M21.6,164.8C21.6,164.9,21.6,164.9,21.6,164.8L21.6,164.8z M22.1,164.4
				L22.1,164.4L22.1,164.4L22.1,164.4L22.1,164.4L22.1,164.4L22.1,164.4L22.1,164.4z M22.1,164.4L22.1,164.4L22.1,164.4L22.1,164.4
				L22.1,164.4L22.1,164.4L22.1,164.4L22.1,164.4z M22.1,164.7L22.1,164.7L22.1,164.7L22.1,164.7L22.1,164.7h0.2l0,0l0,0l0,0l0,0
				l0,0l0,0l0,0C22.2,164.7,22.2,164.7,22.1,164.7L22.1,164.7L22.1,164.7z M22.4,164.7L22.4,164.7L22.4,164.7L22.4,164.7
				C22.3,164.7,22.3,164.7,22.4,164.7L22.4,164.7L22.4,164.7L22.4,164.7h-0.2l0,0H22.4L22.4,164.7L22.4,164.7L22.4,164.7L22.4,164.7
				L22.4,164.7z M22.3,164.4L22.3,164.4L22.3,164.4L22.3,164.4h0.2l0,0l0,0l0,0c0,0,0,0,0.1,0H22.3
				C22.4,164.4,22.4,164.4,22.3,164.4C22.2,164.4,22.4,164.4,22.3,164.4L22.3,164.4L22.3,164.4L22.3,164.4L22.3,164.4L22.3,164.4z
				 M22.3,164.4L22.3,164.4L22.3,164.4L22.3,164.4h0.2l0,0l0,0l0,0c0,0,0,0,0.1,0H22.3C22.4,164.4,22.4,164.4,22.3,164.4
				C22.2,164.4,22.4,164.4,22.3,164.4L22.3,164.4L22.3,164.4L22.3,164.4L22.3,164.4L22.3,164.4z M22.4,164.3L22.4,164.3L22.4,164.3
				L22.4,164.3L22.4,164.3L22.4,164.3L22.4,164.3L22.4,164.3L22.4,164.3L22.4,164.3L22.4,164.3L22.4,164.3L22.4,164.3z M22.3,164.3
				L22.3,164.3L22.3,164.3L22.3,164.3L22.3,164.3L22.3,164.3L22.3,164.3L22.3,164.3L22.3,164.3L22.3,164.3L22.3,164.3L22.3,164.3
				L22.3,164.3z M22.6,164.5C22.6,164.5,22.7,164.5,22.6,164.5L22.6,164.5L22.6,164.5C22.5,164.5,22.5,164.5,22.6,164.5L22.6,164.5
				L22.6,164.5z M22.5,164.4L22.5,164.4L22.5,164.4L22.5,164.4L22.5,164.4L22.5,164.4L22.5,164.4z M22.5,169c0,0.1,0,0.1,0,0.1v0.1
				c0,0,0,0,0-0.1S22.6,169,22.5,169z M22.6,168.5L22.6,168.5L22.6,168.5L22.6,168.5C22.6,168.6,22.6,168.6,22.6,168.5L22.6,168.5
				L22.6,168.5L22.6,168.5L22.6,168.5L22.6,168.5L22.6,168.5z M22.6,168.5L22.6,168.5L22.6,168.5L22.6,168.5
				C22.6,168.6,22.6,168.6,22.6,168.5L22.6,168.5L22.6,168.5L22.6,168.5L22.6,168.5L22.6,168.5L22.6,168.5z M22.7,164.3L22.7,164.3
				L22.7,164.3L22.7,164.3L22.7,164.3C22.8,164.4,22.8,164.4,22.7,164.3C22.8,164.4,22.8,164.4,22.7,164.3L22.7,164.3L22.7,164.3
				l0.1,0.1l0,0L22.7,164.3C22.8,164.4,22.8,164.4,22.7,164.3L22.7,164.3L22.7,164.3L22.7,164.3L22.7,164.3L22.7,164.3
				C22.8,164.3,22.8,164.3,22.7,164.3L22.7,164.3L22.7,164.3L22.7,164.3z M22.7,164.3L22.7,164.3L22.7,164.3L22.7,164.3L22.7,164.3
				C22.8,164.4,22.8,164.4,22.7,164.3C22.8,164.4,22.8,164.4,22.7,164.3L22.7,164.3L22.7,164.3l0.1,0.1l0,0L22.7,164.3
				C22.8,164.4,22.8,164.4,22.7,164.3L22.7,164.3L22.7,164.3L22.7,164.3L22.7,164.3L22.7,164.3C22.8,164.3,22.8,164.3,22.7,164.3
				L22.7,164.3L22.7,164.3L22.7,164.3z M22.7,169.2C22.7,169.3,22.7,169.3,22.7,169.2C22.7,169.3,22.7,169.3,22.7,169.2L22.7,169.2z
				 M22.7,168.9c0,0.1,0,0.1,0,0.1v0.1V169C22.8,169,22.8,169,22.7,168.9z M22.8,164.7L22.8,164.7L22.8,164.7L22.8,164.7
				C22.8,164.6,22.8,164.7,22.8,164.7z M22.8,170.4C22.8,170.5,22.8,170.5,22.8,170.4c0,0.1,0,0.1,0,0.1S22.8,170.5,22.8,170.4z
				 M22.9,168.7c0,0.1,0,0.1,0,0.1v0.1l0,0l0,0C22.9,168.9,22.9,168.8,22.9,168.7L22.9,168.7z M23,168L23,168L23,168L23,168L23,168
				L23,168L23,168L23,168z M23,168L23,168L23,168L23,168L23,168L23,168L23,168L23,168z M23,168.1c0,0.1,0,0.1,0,0.2c0,0,0,0.1,0,0.2
				c0,0,0-0.1,0-0.2C23,168.1,23,168.1,23,168.1z M23,167.6v0.1c0,0.1,0,0.1,0,0.1c0-0.1,0-0.1,0-0.1S23,167.7,23,167.6z M23,170.6
				L23,170.6L23,170.6c0,0.1,0,0.1,0,0.1C23,170.8,23,170.7,23,170.6C23,170.7,23,170.7,23,170.6z M23,171L23,171L23,171z M23,170.5
				L23,170.5L23,170.5z M23,171L23,171L23,171L23,171z M23.7,164.3L23.7,164.3L23.7,164.3L23.7,164.3l0.1-0.1l0,0l0,0l0,0l0,0l0,0
				l0,0l0,0L23.7,164.3L23.7,164.3L23.7,164.3z M23.7,164.3L23.7,164.3L23.7,164.3L23.7,164.3l0.1-0.1l0,0l0,0l0,0l0,0l0,0l0,0l0,0
				L23.7,164.3L23.7,164.3L23.7,164.3z M23.7,163.6L23.7,163.6L23.7,163.6L23.7,163.6L23.7,163.6L23.7,163.6L23.7,163.6L23.7,163.6
				L23.7,163.6z M23.8,163.6L23.8,163.6L23.8,163.6L23.8,163.6L23.8,163.6L23.8,163.6L23.8,163.6L23.8,163.6L23.8,163.6z
				 M23.8,164.4C23.8,164.5,23.7,164.5,23.8,164.4L23.8,164.4C23.7,164.5,23.7,164.5,23.8,164.4C23.7,164.5,23.7,164.5,23.8,164.4
				L23.8,164.4L23.8,164.4L23.8,164.4L23.8,164.4C23.8,164.5,23.8,164.5,23.8,164.4L23.8,164.4L23.8,164.4z M23.7,164.5L23.7,164.5
				L23.7,164.5L23.7,164.5L23.7,164.5L23.7,164.5L23.7,164.5C23.8,164.5,23.8,164.5,23.7,164.5L23.7,164.5L23.7,164.5L23.7,164.5
				C23.8,164.5,23.7,164.5,23.7,164.5L23.7,164.5z M23.8,165.1C23.7,165.2,23.7,165.2,23.8,165.1C23.7,165.2,23.7,165.1,23.8,165.1
				C23.7,165.1,23.8,165.1,23.8,165.1z M23.8,164.9c0,0,0,0.1-0.1,0.2C23.7,165,23.7,165,23.8,164.9L23.8,164.9z M23.8,164.7
				L23.8,164.7L23.8,164.7L23.8,164.7z M24.1,164.4C24,164.5,24,164.5,24.1,164.4C24,164.4,24.1,164.4,24.1,164.4z M24.1,164.5
				L24.1,164.5C24.1,164.5,24,164.5,24.1,164.5C24,164.5,24,164.5,24.1,164.5z M24.1,157.9L24.1,157.9
				C24.1,157.8,24.1,157.8,24.1,157.9L24.1,157.9L24.1,157.9L24.1,157.9L24.1,157.9z M24.1,157.9L24.1,157.9
				C24.1,157.8,24.1,157.8,24.1,157.9L24.1,157.9L24.1,157.9L24.1,157.9L24.1,157.9z M24.2,164.4C24.3,164.4,24.3,164.4,24.2,164.4
				h0.2l-0.1,0.1c0,0-0.1,0-0.2,0C24.2,164.5,24.2,164.5,24.2,164.4L24.2,164.4z M24.7,164.2L24.7,164.2c-0.1,0-0.2,0-0.2,0
				s0,0,0.1,0C24.7,164.1,24.7,164.1,24.7,164.2z M24.7,164.4C24.7,164.4,24.6,164.4,24.7,164.4c-0.1,0-0.2,0-0.2,0
				C24.5,164.3,24.5,164.4,24.7,164.4C24.6,164.4,24.6,164.4,24.7,164.4z"/>
			<path class="st1" d="M29.2,167.6C29.2,167.6,29.1,167.6,29.2,167.6C29.1,167.6,29.1,167.6,29.2,167.6c-0.1,0-0.1,0-0.2,0
				c0,0.1-0.1,0.1-0.1,0.2c0,0-0.1,0.1-0.1,0c0,0,0,0-0.1,0.1s-0.1,0-0.1,0l0,0c0,0-0.1,0-0.2,0.1c-0.1,0-0.2,0.1-0.3,0.1
				s-0.2,0.1-0.3,0.1s-0.1,0.1-0.2,0.1c-0.1,0-0.1,0-0.2,0c-0.1,0-0.2,0.1-0.2,0.1c-0.1,0-0.3,0.1-0.5,0.1s-0.4,0-0.6,0
				c-0.1,0-0.1,0-0.1,0l0,0l0,0c0,0,0,0-0.1,0v-0.1c0,0,0,0-0.1,0c0,0,0,0-0.1-0.1s-0.1,0-0.1,0c-0.2-0.2-0.4-0.4-0.5-0.7
				s-0.2-0.5-0.2-0.9v-0.1v-0.1v-0.6c0,0,0,0,0-0.1c0,0,0,0,0-0.1v-0.4v-0.1c0,0,0,0,0-0.1l0,0l0,0l0,0l0,0l0.1-0.3c0,0,0,0,0-0.1
				c0,0,0,0,0-0.1c0,0,0,0,0.1,0c0-0.1,0-0.1,0-0.2s0-0.1,0-0.1l0,0c0,0,0,0,0-0.1l0,0c0-0.2,0.1-0.3,0.1-0.4
				c0.1-0.1,0.1-0.3,0.1-0.4c0.1,0,0.1-0.1,0.1-0.1s0,0,0-0.1v-0.1l0,0l0,0c0.1-0.1,0.2-0.3,0.2-0.4c0.2-0.2,0.3-0.5,0.4-0.7
				c0,0,0.1,0,0.1-0.1v-0.1c0.1-0.1,0.1-0.2,0.2-0.3c0.1-0.1,0.1-0.2,0.2-0.3c0-0.1,0.1-0.2,0.1-0.2c0.1-0.1,0.1-0.2,0.2-0.2
				c0.2-0.3,0.4-0.5,0.6-0.8s0.4-0.5,0.8-0.7c0.1-0.1,0.1-0.1,0.2-0.1c0.1,0,0.1,0,0.2-0.1c0.3-0.2,0.5-0.1,0.8,0
				c0.1,0,0.1,0.1,0.2,0.1c0.1,0,0.1,0.1,0.2,0.1h0.1c0,0,0,0,0,0.1c0,0,0,0,0,0.1c0,0,0,0,0,0.1c0,0,0,0,0,0.1v0.1
				c0,0.1-0.1,0.1-0.1,0.2v0.2l-0.1,0.1c0,0.1-0.1,0.2-0.1,0.3s-0.1,0.2-0.1,0.2c-0.1,0.3-0.2,0.5-0.4,0.7s-0.3,0.4-0.5,0.7
				c-0.1,0.1-0.2,0.3-0.3,0.4c-0.1,0.2-0.2,0.3-0.3,0.4c0,0-0.1,0-0.1,0.1s-0.1,0.1-0.1,0.1c-0.1,0.1-0.3,0.3-0.3,0.4
				c-0.1,0.1-0.2,0.3-0.3,0.4c0,0.1-0.1,0.1-0.1,0.2s-0.1,0.1-0.1,0.2c0,0,0,0-0.1,0c0,0,0,0,0,0.1c-0.1,0-0.1,0.1-0.2,0.2
				c0,0.1-0.1,0.1-0.1,0.2c0,0,0,0.1-0.1,0.1l-0.1,0.1c-0.1,0.1-0.2,0.2-0.3,0.3s-0.2,0.3-0.4,0.4c0,0,0,0-0.1,0v0.1
				c-0.1,0.2-0.1,0.5-0.1,0.8s0,0.6,0.1,0.9c0,0.2,0.1,0.3,0.1,0.3s0,0,0.1,0l0,0c0,0,0,0.1,0,0.2l0,0l0,0l0,0c0.2,0,0.4,0,0.4,0
				s0.2,0,0.3-0.1c0.2-0.1,0.3-0.1,0.5-0.2c0.2-0.1,0.3-0.1,0.5-0.2l0,0l0,0l0,0l0,0l0,0l0,0l0,0l0,0c0.2-0.1,0.4-0.2,0.5-0.4
				c0.2-0.1,0.3-0.3,0.5-0.4v-0.1c0,0,0,0,0-0.1l0,0l0,0c0.1-0.1,0.2-0.1,0.3-0.1s0.1-0.1,0.1-0.2l0,0l0,0c0-0.1,0.1-0.1,0.1-0.1
				s0,0,0.1,0c0,0,0,0,0.1,0s0.1-0.1,0.1-0.1V166l0,0l0,0l0,0c0.1-0.1,0.2-0.2,0.3-0.3s0.1-0.1,0.1-0.1c0.1-0.1,0.1-0.1,0.1-0.1l0,0
				l0,0c0,0,0,0,0.1-0.1c0.1,0,0.1,0,0.1,0c0,0.1,0,0.1,0.1,0.1c0,0-0.1,0,0,0.1c0,0,0,0,0,0.1v0.1c0,0.1,0,0.2,0,0.2v0.1l0,0
				c0,0,0,0,0,0.1l0,0l0,0l0,0l0,0c0,0,0,0,0,0.1l0,0l-0.1,0.1l0,0l0,0c0,0,0,0,0,0.1l0,0l0,0h-0.1v0.1l0,0l0,0c0,0,0,0-0.1,0
				s0,0-0.1,0v0.1c0,0,0,0.1-0.1,0.1l0,0v-0.1c-0.1,0-0.1,0.1-0.1,0.1l0,0l0,0c0,0,0,0,0,0.1c0,0,0,0.1-0.1,0.1
				c0,0.1-0.1,0.1-0.2,0.1l0,0l0,0c-0.1,0-0.1,0-0.1,0.1l0,0c0,0,0,0-0.1,0l0,0l0,0l0,0l0,0c-0.1,0.1-0.1,0.1-0.2,0.2
				C29.2,167.4,29.2,167.4,29.2,167.6C29.1,167.5,29.1,167.6,29.2,167.6L29.2,167.6z M25.4,165.1C25.4,165.1,25.4,165,25.4,165.1
				C25.4,165,25.4,165,25.4,165.1L25.4,165.1z M26.3,164.3c0.2-0.3,0.4-0.6,0.6-0.8s0.4-0.5,0.6-0.8l0,0c0.1-0.1,0.1-0.1,0.2-0.2
				c0-0.1,0.1-0.2,0.1-0.2c0.2-0.2,0.3-0.5,0.5-0.7s0.3-0.5,0.4-0.7c0.1-0.1,0.1-0.3,0.2-0.4c0.1-0.1,0.1-0.3,0.1-0.4
				c0.1-0.1,0.2-0.2,0.1-0.4c-0.1,0-0.2,0.1-0.3,0.2c-0.1,0.1-0.1,0.2-0.2,0.2c0,0.1-0.1,0.2-0.2,0.3c-0.1,0.1-0.1,0.2-0.2,0.2
				c-0.3,0.2-0.5,0.5-0.7,0.8s-0.3,0.6-0.5,0.9h-0.1c0,0.1-0.1,0.2-0.1,0.2c-0.1,0.1-0.1,0.1-0.1,0.2c-0.1,0.1-0.1,0.2-0.1,0.2
				c0,0.1-0.1,0.2-0.1,0.2c0,0.1,0,0.1-0.1,0.2l-0.1,0.1v0.1c0,0,0,0.1-0.1,0.1c0,0,0,0.1,0,0.2c-0.1,0.1-0.1,0.1-0.1,0.2
				C26.4,164.2,26.3,164.3,26.3,164.3L26.3,164.3z M28.8,167.5L28.8,167.5L28.8,167.5L28.8,167.5c0.1,0,0.1,0,0.2-0.1l0.1-0.1l0,0
				c0,0,0,0,0.1-0.1s0-0.1,0-0.1c-0.1,0-0.1,0.1-0.2,0.1S28.9,167.3,28.8,167.5L28.8,167.5L28.8,167.5L28.8,167.5
				C28.8,167.5,28.7,167.5,28.8,167.5C28.7,167.5,28.7,167.5,28.8,167.5C28.7,167.6,28.7,167.5,28.8,167.5
				C28.7,167.5,28.8,167.5,28.8,167.5z M28.8,167.5L28.8,167.5L28.8,167.5L28.8,167.5z M29.3,167.1
				C29.2,167.1,29.2,167.1,29.3,167.1C29.2,167.2,29.2,167.2,29.3,167.1C29.2,167.1,29.2,167.1,29.3,167.1z M29.3,167.2
				C29.3,167.1,29.3,167.1,29.3,167.2L29.3,167.2C29.4,167.2,29.4,167.2,29.3,167.2c0.1,0,0.1,0,0.1-0.1
				C29.4,167.1,29.4,167.1,29.3,167.2C29.4,167.1,29.3,167.1,29.3,167.2C29.3,167.1,29.3,167.1,29.3,167.2z M29.4,167L29.4,167
				C29.4,167.1,29.4,167.1,29.4,167C29.4,167.1,29.4,167.1,29.4,167C29.4,167.1,29.4,167.1,29.4,167z M29.5,167L29.5,167
				C29.5,167.1,29.5,167.1,29.5,167C29.5,167.1,29.5,167,29.5,167L29.5,167z M29.9,166.8C29.9,166.8,29.8,166.8,29.9,166.8
				c-0.1,0.1-0.1,0.1-0.2,0.1l0,0l0,0c0,0,0,0-0.1,0c0,0,0,0,0,0.1c0.1,0,0.1,0,0.2-0.1L29.9,166.8z M30.1,166.7
				C30.1,166.8,30,166.8,30.1,166.7C30,166.8,30,166.8,30.1,166.7C30,166.7,30,166.7,30.1,166.7z M30.1,166
				C30.1,165.9,30.1,165.9,30.1,166L30.1,166z M30.3,166.3L30.3,166.3l-0.1,0.1C30.2,166.4,30.2,166.4,30.3,166.3
				C30.2,166.4,30.3,166.4,30.3,166.3z M30.6,166.1c-0.1,0-0.1,0.1-0.1,0.1h0.1C30.7,166.2,30.7,166.1,30.6,166.1z M30.7,166.3
				L30.7,166.3L30.7,166.3L30.7,166.3L30.7,166.3z M30.7,166.3C30.7,166.3,30.7,166.4,30.7,166.3C30.7,166.4,30.7,166.3,30.7,166.3
				L30.7,166.3z"/>
			<path class="st1" d="M30.1,166.7L30.1,166.7c0-0.1,0-0.1,0-0.1c0-0.1,0-0.1,0-0.2s0-0.1,0.1-0.1v-0.1l0,0c0,0,0-0.1,0.1-0.1
				s0-0.1,0.1-0.1c0.1-0.2,0.2-0.4,0.3-0.7c0.1-0.2,0.3-0.5,0.4-0.7c0.1-0.1,0.1-0.1,0.1-0.2c0-0.1,0.1-0.1,0.1-0.2l0,0
				c0-0.1,0.1-0.2,0.2-0.1s0.2,0.1,0.4,0.1c0.1,0,0.1,0.1,0.1,0.1v0.1c0,0,0,0,0,0.1v0.1c-0.1,0.1-0.1,0.2-0.2,0.4
				c0,0.1-0.1,0.3-0.2,0.4l0,0l0,0c0,0,0,0.1-0.1,0.2s-0.1,0.2-0.1,0.3c-0.1,0.2-0.2,0.3-0.2,0.5c-0.1,0.2-0.1,0.3-0.2,0.5
				c0,0.2-0.1,0.3-0.1,0.4c0,0.1,0,0.3,0.1,0.4c0.3-0.1,0.5-0.1,0.7-0.2s0.4-0.2,0.6-0.3l0.4-0.3l0.1-0.1l0.5-0.4l0.4-0.3
				c0,0,0.1-0.1,0.2-0.1c0.1,0,0.1-0.1,0.2-0.1c0.1-0.1,0.2-0.2,0.3-0.2s0.2-0.1,0.3-0.2c0,0,0-0.1,0.1-0.1s0.1,0,0.1-0.1l0.1-0.1
				c0-0.1,0.1-0.1,0.2-0.1c0.1,0,0.1-0.1,0.2-0.1h0.1c0.1,0,0.1,0,0.1,0.1v0.1c0,0,0,0-0.1,0.1s0,0.1,0,0.1s0.1,0,0.1-0.1
				s0-0.1,0.1-0.1c0,0,0,0,0,0.1v0.1c0.1,0,0.1,0.1,0,0.1v0.1l0,0c0,0,0,0,0,0.1l0,0l0,0c0,0,0,0,0,0.1c0,0,0,0,0,0.1l0,0l0,0
				c-0.1,0-0.1,0-0.1,0c-0.1,0-0.1,0.1-0.1,0.1s0,0.1-0.1,0.1l0,0l0,0c0,0,0,0,0,0.1l-0.1,0.1l-0.1,0.1l0,0c0,0-0.1,0-0.1,0.1
				c-0.1,0.1-0.1,0.1-0.1,0.1l-0.2,0.2c0,0-0.1,0.1-0.2,0.1c-0.1,0.1-0.1,0.1-0.2,0.1l0,0l0,0l0,0l0,0c0,0,0,0,0,0.1l0,0
				c0,0,0,0-0.1,0.1s-0.1,0.1-0.2,0.2v-0.1l0,0l0,0l0,0v0.1c0,0,0,0-0.1,0l0,0l0,0c0,0,0,0-0.1,0.1l-0.1,0.1c0,0,0,0-0.1,0
				c0,0,0,0-0.1,0h-0.1c0,0-0.1,0-0.1,0.1h-0.1c0,0,0,0,0,0.1l0,0l0,0c0,0,0,0-0.1,0.1s-0.1,0-0.1,0.1s-0.1,0.1-0.2,0.2
				c-0.1,0-0.2,0.1-0.3,0.1c-0.1,0.1-0.3,0.1-0.4,0.2c-0.1,0-0.3,0-0.4,0.1s-0.3,0-0.5,0c-0.1,0-0.2,0-0.3,0s-0.2,0-0.2-0.1
				c-0.1-0.1-0.1-0.1-0.2-0.2c0-0.1-0.1-0.1-0.1-0.2l0,0c0,0,0,0,0-0.1l0,0l0,0l0,0c0-0.1,0-0.1,0-0.1v-0.1v0.1v-0.1
				c0,0,0-0.1,0.1-0.1c0-0.1,0-0.1,0.1-0.2l0,0c0-0.1,0-0.1,0.1-0.1C30.1,166.8,30.1,166.8,30.1,166.7
				C30.1,166.7,30.1,166.8,30.1,166.7C30.1,166.8,30.1,166.8,30.1,166.7c-0.1,0,0,0,0-0.1l0,0C30.1,166.6,30.1,166.6,30.1,166.7
				L30.1,166.7z M32.8,163L32.8,163L32.8,163c-0.1,0.1-0.1,0.2-0.2,0.2c0,0.1-0.1,0.1-0.2,0.1c-0.1,0-0.1,0.1-0.1,0.1
				c-0.1,0-0.1,0-0.1,0l0,0c-0.1,0-0.1,0-0.1,0c-0.1,0-0.2-0.1-0.2-0.1c-0.1,0-0.1-0.1-0.2-0.1c0-0.1,0-0.2,0-0.3s0.1-0.1,0.2-0.1
				l0,0l0,0c0.1,0,0.2,0,0.3,0.1C32.5,162.8,32.6,162.9,32.8,163C32.7,162.9,32.8,163,32.8,163z M33.3,167.2L33.3,167.2
				C33.4,167.1,33.4,167.1,33.3,167.2L33.3,167.2z M35.1,165.7C35,165.7,35,165.7,35.1,165.7c-0.1,0.1-0.1,0.1-0.1,0.2
				C35,165.8,35,165.8,35.1,165.7C35,165.7,35.1,165.7,35.1,165.7z M35.2,165.6L35.2,165.6L35.2,165.6z"/>
			<path class="st1" d="M41.9,166.6L41.9,166.6c-0.1,0-0.1,0.1-0.2,0.1c0,0.1-0.1,0.1-0.2,0.2c-0.1,0.1-0.1,0.1-0.1,0.1v-0.1
				l0.1-0.1c-0.1,0-0.1,0-0.1,0.1s0,0.1-0.1,0.1c0,0.1-0.1,0.1-0.1,0.1c-0.1,0-0.1,0.1-0.2,0.1l0,0l0,0l0,0l0,0l0,0c0,0,0,0-0.1,0
				c0,0,0,0,0.1,0v-0.1h-0.1v0.1c0,0,0,0.1-0.1,0.1c0,0-0.1,0.1-0.1,0c0.1-0.1,0.2-0.2,0.2-0.3c-0.1,0-0.2,0.1-0.3,0.2l0,0v0.1h-0.1
				l0,0l0,0h-0.1c0,0,0,0-0.1,0.1l0,0l0,0c0,0,0,0-0.1,0.1h-0.1l0,0c0,0,0,0,0-0.1c-0.1,0-0.1,0.1-0.1,0.1s0,0.1-0.1,0.1v-0.1l0,0
				c0,0,0,0-0.1,0l0,0l0,0c-0.1,0.1-0.2,0.1-0.3,0.1c-0.1,0-0.3,0-0.4-0.1c-0.2,0-0.3,0-0.5-0.1s-0.3-0.1-0.4-0.2l0,0l0,0l0,0l0,0
				l0,0c-0.1,0-0.1-0.1-0.1-0.2c0-0.1-0.1-0.1-0.1-0.2v-0.1c0,0,0,0-0.1,0c-0.1-0.3-0.1-0.6-0.1-0.9c0-0.3,0-0.6,0.1-1
				c-0.1,0-0.2,0.1-0.2,0.2c-0.1,0.1-0.1,0.1-0.2,0.2c-0.4,0.4-0.8,0.8-1.2,1.2s-0.8,0.8-1.1,1.3c-0.1,0-0.1,0-0.1,0.1l-0.1,0.1
				c-0.1,0-0.1,0-0.2,0s-0.2,0-0.3,0l0,0l0,0c-0.1,0-0.2-0.1-0.3-0.1s-0.1-0.1-0.1-0.3c0-0.1,0-0.1,0-0.2c0,0,0-0.1,0-0.2V167l0,0
				c0.1-0.6,0.3-1.1,0.5-1.6s0.4-1,0.6-1.5c0.1,0,0.1,0,0.2,0c0.1,0,0.2,0.1,0.2,0.1s0.1,0,0.3,0.1c0,0,0,0,0.1,0.1s0.1,0,0.1,0.1
				c0,0.2-0.1,0.4-0.1,0.6c-0.1,0.2-0.2,0.4-0.3,0.6c-0.1,0.1-0.1,0.3-0.2,0.5c-0.1,0.2-0.1,0.4-0.2,0.5c0,0.1,0,0.1,0,0.1
				s0,0,0,0.1c0.1-0.2,0.3-0.3,0.4-0.5s0.3-0.4,0.4-0.5c0.2-0.1,0.3-0.2,0.4-0.3c0.1-0.1,0.3-0.3,0.4-0.4c0.2-0.1,0.3-0.2,0.5-0.3
				s0.3-0.2,0.4-0.3c0.1,0,0.1,0,0.2-0.1c0.1,0,0.1-0.1,0.2-0.1c0.1,0,0.2,0,0.2,0.1c0.1,0,0.2,0.1,0.3,0.1l0,0c0.1,0,0.1,0,0.1,0.1
				s0,0.1,0.1,0.2c0,0.1,0,0.2,0,0.4s0,0.3-0.1,0.4c0,0,0,0,0,0.1s0,0.1,0,0.2c-0.1,0.5-0.1,0.8,0,1.1s0.1,0.4,0.2,0.5
				c0.1,0,0.3,0,0.4,0s0.2,0,0.3,0c0.1,0,0.2,0,0.3-0.1s0.2-0.1,0.3-0.2c0,0,0,0,0.1-0.1c0,0,0,0,0.1,0s0.2-0.1,0.3-0.1
				c0.1-0.1,0.1-0.1,0.2,0c0,0,0,0,0-0.1c0,0,0,0,0-0.1l0,0l0,0c0,0,0,0,0-0.1h0.1c0,0,0.1,0,0.1-0.1c0,0,0.1,0,0.1-0.1
				c0,0,0-0.1,0.1-0.1l0,0c0,0,0,0,0,0.1c0.1,0,0.1-0.1,0.1-0.1s0-0.1,0.1-0.1s0.1-0.1,0.2-0.1s0.1-0.1,0.2-0.1s0.1-0.1,0.1-0.1
				l0.1-0.1c0,0,0-0.1,0.1-0.1c0,0,0.1-0.1,0.1,0h0.1l0,0v-0.1c0,0,0.1,0,0.2-0.1c0.1,0,0.2-0.1,0.2-0.1s0,0,0-0.1l0,0l0,0l0,0l0,0
				l0,0c0,0,0,0,0-0.1l0,0l0,0l0,0l0,0c0,0,0.1,0,0.1,0.1s0,0.2-0.1,0.3l0,0l0,0c0,0,0,0.1-0.1,0.2c-0.1,0.1-0.1,0.1-0.1,0.1
				L41.9,166.6z M40.3,167.6C40.2,167.6,40.2,167.6,40.3,167.6C40.2,167.7,40.2,167.7,40.3,167.6L40.3,167.6z M40.4,167.5
				L40.4,167.5L40.4,167.5L40.4,167.5L40.4,167.5z M40.5,167.5C40.4,167.6,40.4,167.5,40.5,167.5L40.5,167.5z M41,167.3L41,167.3
				L41,167.3z M41.7,166.4C41.7,166.4,41.8,166.4,41.7,166.4l0.1-0.1L41.7,166.4z M42.4,166C42.4,166.1,42.4,166.1,42.4,166
				C42.3,166,42.3,166.1,42.4,166C42.4,166.1,42.4,166.1,42.4,166z"/>
			<path class="st1" d="M48.3,166c0,0,0,0.1-0.1,0.2c-0.1,0.1-0.2,0.2-0.3,0.3c0,0-0.1,0-0.1,0.1c-0.1,0.1-0.1,0.1-0.1,0.1l-0.1,0.1
				l-0.3,0.2l-0.1,0.1l-0.2,0.1c-0.2,0.1-0.4,0.2-0.5,0.3c-0.2,0.1-0.4,0.2-0.6,0.3c0,0,0,0-0.1,0s-0.1,0-0.1,0h-0.1h-0.1h-0.1l0,0
				c-0.1,0-0.1,0-0.1,0s-0.1,0-0.1,0.1h-0.1H45h-0.1h-0.1l0,0l0,0h-0.1c0,0-0.1,0-0.2,0h-0.1h-0.1l0,0c-0.2,0-0.3,0-0.4,0h-0.1
				c0,0,0,0-0.1,0s-0.2,0-0.3-0.1s-0.2-0.1-0.3-0.1c-0.1-0.1-0.2-0.1-0.3-0.2c-0.1-0.1-0.2-0.2-0.3-0.3c0-0.1-0.1-0.2-0.1-0.2
				c0-0.1,0-0.1-0.1-0.2c0-0.1,0-0.2,0-0.2v-0.2c0-0.1,0.1-0.3,0.1-0.5s0.1-0.4,0.3-0.5l0.4-0.4l0.2-0.3c0.1-0.1,0.2-0.1,0.2-0.2
				s0.1-0.1,0.2-0.2c0.1-0.1,0.1-0.1,0.2-0.1s0.1-0.1,0.2-0.1c0.1-0.1,0.2-0.1,0.2-0.2c0.1-0.1,0.2-0.1,0.2-0.2
				c0.1,0,0.2-0.1,0.2-0.1h0.1c0.1,0,0.1,0,0.1,0s0,0,0.1,0c0,0,0,0,0.1,0c0.1,0.1,0.1,0.2,0.2,0.2c0.1,0.1,0.2,0.1,0.2,0.2
				c0.1,0,0.1,0.1,0.1,0.1s0,0.1,0.1,0.1c0,0.1,0,0.2,0,0.2s0,0.1-0.1,0.2c0,0,0,0,0,0.1c0,0,0,0,0,0.1s-0.1,0.1-0.1,0.1l-0.1,0.1
				c0,0,0,0.1-0.1,0.1s0,0.1-0.1,0.1c0,0-0.1,0.1-0.2,0.2c-0.1,0.1-0.1,0.1-0.2,0.2c-0.1,0.1-0.1,0.1-0.2,0.2
				c-0.1,0-0.2,0.1-0.2,0.1v0.1c-0.1,0.1-0.2,0.2-0.3,0.2s-0.2,0.2-0.3,0.2c-0.2,0-0.3,0.1-0.5,0.2c-0.1,0.1-0.3,0.1-0.5,0.1l0,0
				c0,0,0,0,0.1,0c0,0.1,0,0.1,0,0.1s0,0.1,0.1,0.1c0.1,0.1,0.2,0.2,0.3,0.2c0.1,0.1,0.3,0.1,0.4,0.1c0.4,0.1,0.8,0.1,1.2,0
				c0.1,0,0.2,0,0.3-0.1c0.1,0,0.2-0.1,0.4-0.1c0.2-0.1,0.3-0.1,0.5-0.2l0.2-0.1h0.1l0,0l0,0l0,0l0.4-0.2c0.1-0.1,0.2-0.2,0.3-0.2
				c0.1,0,0.2-0.1,0.3-0.3c0,0,0,0,0.1-0.1s0.1-0.1,0.2-0.1s0.1-0.1,0.2-0.1s0.1-0.1,0.1-0.1l0.2-0.2c0.1-0.1,0.2-0.2,0.3-0.2
				c0.1-0.1,0.2-0.1,0.2-0.1l0.1,0.1c0,0,0,0.1,0.1,0.1c-0.1,0.1-0.1,0.2-0.1,0.2s0,0.1-0.1,0.1c0,0,0,0-0.1,0.1
				C48.4,165.9,48.3,165.9,48.3,166z M44.8,164.1c0,0-0.1,0-0.1,0.1s-0.1,0.1-0.1,0.1h-0.1c0,0,0,0-0.1,0c0,0,0,0-0.1,0l-0.1,0.1
				c-0.1,0.1-0.1,0.1-0.2,0.1s-0.1,0.1-0.2,0.1c-0.1,0.1-0.1,0.2-0.2,0.2s-0.1,0.1-0.2,0.2c-0.1,0.1-0.2,0.2-0.3,0.3
				c-0.1,0.1-0.2,0.2-0.3,0.4s-0.2,0.2-0.2,0.4c0.2-0.1,0.4-0.2,0.6-0.3s0.4-0.3,0.6-0.4c0.1-0.1,0.1-0.1,0.2-0.2
				c0.1-0.1,0.1-0.1,0.2-0.2c0.1-0.1,0.2-0.1,0.3-0.3s0.2-0.2,0.3-0.4c0-0.1,0-0.1,0.1-0.1v-0.1C44.9,164.1,44.9,164.1,44.8,164.1
				L44.8,164.1z"/>
			<path class="st1" d="M56.3,159.8C56.3,159.7,56.3,159.7,56.3,159.8C56.3,159.7,56.4,159.7,56.3,159.8l0.1,0.1l0,0
				C56.3,159.9,56.3,159.9,56.3,159.8c0,0.1,0,0.1,0,0.2c0,0,0,0-0.1,0l0,0l0,0l0,0c0,0.1-0.1,0.1-0.1,0.1c-0.1,0-0.1,0.1-0.2,0.1
				s-0.1,0,0,0c0,0,0.1,0,0,0c0,0,0,0-0.1,0l0,0c-0.1,0-0.1-0.1-0.1-0.1c0-0.1-0.1-0.1-0.2-0.2c0-0.1,0-0.2-0.1-0.2s0-0.2-0.1-0.3
				c0-0.1,0-0.2,0-0.3s0-0.2,0.1-0.3l0,0l0,0l0,0l0,0c0,0,0,0,0.1,0v-0.1c0.3-0.2,0.6-0.4,0.9-0.5c0.3-0.2,0.6-0.3,1-0.5
				c0.1,0,0.2-0.1,0.2-0.1c0.1,0,0.2-0.1,0.3-0.1c0.1,0,0.1,0,0.2-0.1c0.1,0,0.1,0,0.2-0.1c0.2-0.1,0.3-0.1,0.5-0.1s0.3-0.1,0.5-0.1
				s0.4,0,0.6-0.1s0.4,0,0.6-0.1c0.4,0,0.8,0.1,1.2,0.2c0.4,0.1,0.6,0.3,0.8,0.5c0,0.1,0.1,0.1,0.1,0.2c0,0.1,0.1,0.1,0.1,0.2
				c0,0.1,0,0.1,0.1,0.1c0,0,0,0.1,0.1,0.2c0.1,0.2,0.2,0.4,0.2,0.6c0,0.4,0,0.8-0.2,1.1c-0.1,0.3-0.3,0.6-0.6,0.8
				c-0.1,0.2-0.3,0.4-0.5,0.6c-0.2,0.2-0.4,0.3-0.5,0.5c-0.1,0.1-0.3,0.2-0.4,0.3s-0.2,0.2-0.4,0.2c-0.2,0.2-0.4,0.3-0.7,0.5
				c-0.2,0.1-0.4,0.3-0.7,0.4c0.1,0,0.1,0.1,0.2,0.1s0.2,0,0.2,0.1c0.4,0.1,0.8,0.2,1.2,0.4l0,0l0,0l0,0c0.2,0.1,0.4,0.2,0.5,0.4
				s0.3,0.2,0.4,0.4c0,0.1,0.1,0.2,0.1,0.3s0.1,0.2,0.1,0.3l0,0l0,0c0,0,0,0.1,0.1,0.1v0.1c0.1,0.1,0.1,0.1,0.1,0.2
				c0,0.1,0.1,0.2,0.1,0.2c0.1,0.2,0.1,0.4,0.1,0.7c0,0.2-0.1,0.5-0.2,0.7c0,0.1-0.1,0.2-0.1,0.2c-0.1,0.1-0.1,0.2-0.2,0.2
				c0,0.1-0.1,0.1-0.2,0.2l-0.1,0.1l-0.1,0.1c-0.1,0.1-0.1,0.1-0.2,0.2c-0.1,0.1-0.1,0.1-0.2,0.2c-0.1,0.1-0.2,0.2-0.3,0.2
				c-0.1,0.1-0.2,0.2-0.3,0.2h-0.1l-0.3,0.2c-0.1,0-0.2,0.1-0.3,0.2c-0.1,0.1-0.2,0.1-0.3,0.2c-0.1,0-0.1,0-0.2,0.1
				c-0.1,0-0.1,0.1-0.2,0.1s-0.1,0.1-0.2,0.1s-0.1,0.1-0.2,0.1c-0.1,0.1-0.2,0.1-0.4,0.2s-0.2,0.1-0.4,0.1l-0.4,0.2l-0.7,0.2
				c-0.2,0.1-0.4,0.1-0.6,0.2c-0.2,0.1-0.4,0.1-0.7,0.1c0,0,0,0,0.1,0h0.1c0.5-0.1,1-0.3,1.5-0.5s0.9-0.4,1.4-0.6c0,0,0,0,0.1,0
				c0,0,0,0,0-0.1c0.1,0,0.3-0.1,0.4-0.2c0.1-0.1,0.2-0.1,0.3-0.2c0.1-0.1,0.2-0.1,0.3-0.2s0.2-0.1,0.3-0.1c0-0.1,0.1-0.1,0.1-0.1
				v-0.1l0,0c-0.1,0-0.1,0-0.1,0.1s-0.1,0.1-0.1,0.1s0,0-0.1,0l0,0c-0.1,0-0.1,0-0.1,0.1s0,0.1-0.1,0.1l-0.2,0.1
				c-0.1,0-0.1,0.1-0.2,0.1s-0.1,0.1-0.2,0.2c-0.3,0.1-0.6,0.3-0.9,0.4c-0.1,0.1-0.2,0.2-0.3,0.2s-0.3,0.1-0.4,0.1
				c-0.1,0.1-0.1,0.1-0.2,0.1s-0.2,0.1-0.2,0.1l0,0c-0.2,0.1-0.3,0.1-0.5,0.2c-0.2,0.1-0.3,0.1-0.5,0.2c0.1-0.1,0.1-0.1,0.2-0.1
				s0.1,0,0.2-0.1c-0.2,0.1-0.4,0.2-0.6,0.2c-0.2,0.1-0.4,0.1-0.7,0.2c0.4-0.1,0.8-0.2,1.1-0.4s0.7-0.3,1.1-0.4l0,0
				c0.1,0,0.2-0.1,0.3-0.1c0.1,0,0.2-0.1,0.3-0.1l0,0l0,0c0.3-0.1,0.5-0.2,0.8-0.4c0.2-0.1,0.5-0.3,0.7-0.5c-0.1,0-0.2,0.1-0.3,0.1
				s-0.2,0.1-0.2,0.1c-0.1,0-0.1,0.1-0.1,0.1l-0.1,0.1l-0.3,0.1c-0.3,0.2-0.7,0.3-1.1,0.4l0.4-0.2l0,0l0,0c0.1-0.1,0.2-0.1,0.3-0.2
				c0.1,0,0.2-0.1,0.3-0.2c0.1-0.1,0.2-0.1,0.4-0.2c0.1-0.1,0.2-0.1,0.3-0.2c0.2-0.2,0.4-0.3,0.6-0.4c0.2-0.1,0.4-0.2,0.6-0.4l0,0
				l0,0c0.1,0,0.2-0.1,0.2-0.1s0.1-0.1,0.1-0.2c-0.1,0-0.1,0.1-0.2,0.1c0,0-0.1,0.1-0.2,0.1c0,0.1-0.1,0.1-0.1,0.1
				c-0.1,0-0.1,0.1-0.2,0.1l0,0c0,0,0,0-0.1,0c-0.1,0.1-0.2,0.2-0.3,0.2s-0.2,0.1-0.4,0.2c-0.1,0.1-0.2,0.1-0.3,0.2
				c-0.1,0.1-0.2,0.1-0.4,0.1h0.1c0,0,0.1,0,0.1-0.1c-0.1,0-0.2,0.1-0.2,0.1c-0.1,0-0.1,0.1-0.2,0.1c0.2-0.1,0.5-0.2,0.7-0.3
				s0.4-0.3,0.6-0.4c0.2-0.1,0.3-0.1,0.4-0.3c0.1-0.1,0.3-0.2,0.4-0.3c0-0.1,0.1-0.1,0.1-0.1l0.1-0.1h-0.1l0,0l0.1-0.1
				c0.1,0,0.1-0.1,0.1-0.2h-0.1h-0.1c0,0-0.1,0-0.1,0.1l0,0c-0.1,0.1-0.1,0.1-0.2,0.2c-0.1,0-0.2,0.1-0.3,0.2v0.1c0,0,0,0-0.1,0
				s0,0-0.1,0l0,0l-0.3,0.1c-0.1,0.1-0.1,0.1-0.2,0.1s-0.2,0.1-0.2,0.1h0.1l0.1-0.1c-0.2,0.2-0.4,0.3-0.7,0.4
				c-0.3,0.1-0.5,0.2-0.7,0.4c-0.1,0-0.1,0-0.1,0s-0.1,0-0.2,0h0.1c0.2-0.1,0.4-0.2,0.6-0.3s0.4-0.2,0.6-0.3c0,0,0-0.1,0.1-0.1
				s0.1,0,0.1-0.1l-0.1,0.1l0,0l0,0l0,0l0,0h-0.1h-0.1l0,0l0,0c-0.2,0.1-0.4,0.2-0.6,0.3s-0.4,0.2-0.5,0.2l0,0l0,0h-0.1
				c0,0-0.1,0-0.1,0.1l-1.2,0.4c-0.1,0-0.2,0-0.3,0.1c-0.1,0-0.2,0.1-0.3,0.1c-0.1,0-0.1,0-0.1,0.1s-0.1,0-0.2,0
				c-0.1,0.1-0.2,0.1-0.4,0.1c-0.1,0-0.3,0.1-0.4,0.1s-0.2,0.1-0.3,0.1s-0.2,0-0.3,0l0,0l0,0c-0.1,0-0.1,0-0.1,0.1
				c0.3,0,0.6,0,0.9-0.1c0.3,0,0.6-0.1,0.9-0.2c-0.2,0.1-0.3,0.1-0.5,0.1s-0.3,0.1-0.4,0.1l0,0l0,0h-0.1c-0.1,0-0.1,0-0.1,0
				s0,0,0.1,0h0.1c0,0.1-0.1,0.1-0.1,0.1s-0.1,0-0.2,0h0.1h0.1c-0.1,0.1-0.2,0.1-0.3,0.1c-0.1,0-0.2-0.1-0.4,0h-0.1c0,0,0,0-0.1,0
				c-0.2,0-0.4,0-0.6,0s-0.4-0.1-0.6-0.1c0-0.1-0.1-0.1-0.1-0.1c-0.1,0-0.1-0.1-0.1-0.2l0,0c0,0,0,0-0.1,0c0,0,0,0,0,0.1v0.1
				l-0.1-0.1l-0.1-0.1c0,0,0,0,0.1,0.1c0,0,0,0,0.1,0.1v-0.1v-0.1l0,0c0,0,0,0-0.1,0c0-0.1,0-0.1,0-0.1v-0.1h-0.1c0,0.1,0,0.1,0,0.1
				l0,0v-0.1l0,0l0,0l0,0c0,0,0,0-0.1,0c0,0,0-0.1,0.1-0.1v-0.1c0.1,0,0.1-0.1,0.1,0l0,0c0,0,0,0,0.1,0l0,0l0,0
				c0.1-0.1,0.2-0.1,0.3-0.1c0.1,0,0.2,0,0.3,0l0,0l0,0c0,0,0,0,0-0.1c0,0.1,0.1,0.1,0.2,0.1s0.2,0,0.2,0c-0.1,0.1-0.1,0.1-0.2,0
				c-0.1,0-0.2,0-0.2,0.1c-0.1,0-0.1,0-0.2,0.1c-0.1,0-0.1,0.1-0.1,0.2c0,0,0.1,0.1,0.2,0.1s0.2,0.1,0.3,0.1c0.1,0,0.2,0,0.3,0
				s0.2,0,0.2,0c0-0.1,0.1-0.2,0.1-0.3s0-0.2,0.1-0.3c0-0.1,0-0.2,0.1-0.3s0.1-0.2,0.1-0.3c0.2-0.9,0.5-1.7,0.8-2.6
				c0.3-0.8,0.7-1.6,1-2.4l0,0c0,0,0,0-0.1,0c0-0.1,0-0.1,0-0.2l-0.1-0.1h0.1v-0.1c0.1,0,0.1,0,0.2-0.1c0,0,0.1,0,0.2-0.1
				c0.1-0.3,0.3-0.6,0.4-0.9c0.1-0.3,0.3-0.6,0.4-0.9c0.1-0.2,0.2-0.4,0.3-0.7c0.1-0.2,0.2-0.5,0.3-0.7c0.1-0.2,0.2-0.4,0.3-0.7
				c0.1-0.2,0.2-0.5,0.3-0.7c0.1-0.1,0.1-0.2,0.1-0.3s0.1-0.2,0.1-0.3c0,0,0,0,0.1,0s0,0,0,0c0.1,0,0.2,0,0.3,0c0.1,0,0.2,0,0.2,0
				c0.1,0,0.1,0,0.2,0s0.1,0,0.1,0.1c0.1,0.1,0.1,0.1,0.1,0.2c0,0.1,0,0.1,0,0.2c0,0.1,0,0.1-0.1,0.2c0,0.1-0.1,0.1-0.1,0.2
				c-0.1,0.3-0.3,0.5-0.4,0.8c-0.1,0.2-0.3,0.5-0.4,0.8l0,0c-0.1,0.3-0.2,0.5-0.3,0.8c-0.1,0.2-0.2,0.5-0.3,0.7c0,0,0,0,0,0.1
				c0,0,0,0.1-0.1,0.1c-0.1,0.2-0.1,0.3-0.2,0.5s-0.2,0.3-0.2,0.5c0.1,0,0.2,0,0.2-0.1c0.1,0,0.1-0.1,0.2-0.1c0.5-0.2,1-0.5,1.4-0.7
				V162c0.2-0.1,0.4-0.2,0.5-0.4c0.2-0.1,0.3-0.2,0.5-0.4l0,0c0.6-0.5,1.1-1,1.5-1.6v-0.1c0.1-0.1,0.1-0.2,0.2-0.3s0.1-0.2,0.2-0.4
				c0.1-0.1,0.1-0.3,0.2-0.4c0-0.1,0.1-0.3,0.1-0.4c0-0.1,0-0.1,0-0.2c0,0,0-0.1-0.1-0.1c-0.3-0.2-0.7-0.4-1.2-0.5
				c-0.4-0.1-0.9-0.1-1.3,0l-0.5,0.1c-0.3,0.1-0.6,0.2-0.9,0.3s-0.6,0.2-0.8,0.3c-0.3,0.1-0.5,0.3-0.8,0.5s-0.5,0.4-0.6,0.7
				c0,0,0,0,0.1,0l0,0l0,0l0,0v0.1c0,0,0,0,0,0.1l0,0l0,0l0,0C56.4,159.6,56.4,159.7,56.3,159.8C56.3,159.7,56.3,159.7,56.3,159.8z
				 M52.7,170.5L52.7,170.5L52.7,170.5L52.7,170.5L52.7,170.5z M59.8,168.2C59.8,168.2,59.8,168.1,59.8,168.2
				C59.9,168.1,59.9,168.1,59.8,168.2C59.8,168.1,59.8,168.1,59.8,168.2C59.8,168.1,59.8,168.1,59.8,168.2L59.8,168.2
				c0-0.1,0-0.1,0-0.1s0,0,0.1,0H60c0,0,0.1,0,0.1-0.1l0,0l0,0c0,0,0-0.1,0.1-0.1c0,0,0.1,0,0.1-0.1c0.2-0.1,0.4-0.3,0.5-0.5
				s0.3-0.4,0.4-0.5v-0.1c0.1-0.1,0.2-0.3,0.3-0.5c0.1-0.2,0.1-0.4,0.1-0.6c0-0.1-0.1-0.2-0.1-0.4c-0.1-0.1-0.2-0.2-0.3-0.3
				c-0.1-0.1-0.2-0.1-0.3-0.1c-0.1,0-0.2-0.1-0.3-0.1l0,0l0,0c-0.1,0-0.1-0.1-0.2-0.1s-0.1-0.1-0.2-0.1c-0.2-0.1-0.4-0.1-0.5-0.2
				c-0.1-0.1-0.3-0.1-0.4-0.1s-0.3-0.1-0.4-0.1c-0.2,0-0.5,0-0.7,0s-0.5,0.1-0.7,0.2l0,0l0,0c-0.1,0-0.2,0-0.2,0.1
				c-0.1,0-0.2,0.1-0.2,0.1l0,0c-0.1,0-0.1,0-0.1,0v0.1c-0.1,0.2-0.2,0.4-0.3,0.6c-0.1,0.2-0.2,0.4-0.3,0.6c0,0.1,0,0.2,0,0.3
				s0,0.2-0.1,0.3c-0.1,0.2-0.1,0.4-0.2,0.7c0,0.2-0.1,0.4-0.1,0.7c0,0.1-0.1,0.2-0.1,0.3s-0.1,0.2-0.1,0.3s0,0.1-0.1,0.2
				c0,0.1-0.1,0.2-0.1,0.3s-0.1,0.2-0.1,0.3c-0.1,0.1-0.1,0.2-0.2,0.3s-0.1,0.2-0.2,0.2l0,0c-0.1,0-0.1,0.1-0.1,0.2
				c0,0.1-0.1,0.2-0.1,0.2c-0.1,0-0.1,0-0.1,0.1l-0.1,0.1c0.3-0.1,0.6-0.1,0.9-0.2c0.3-0.1,0.6-0.1,0.9-0.3l0,0l0,0
				c0.2,0,0.4-0.1,0.5-0.1c0.1-0.1,0.3-0.1,0.5-0.2c0-0.1,0-0.1,0-0.1s0.1,0,0.1-0.1l0,0c0.1-0.1,0.2-0.1,0.3-0.1H58l0,0
				c0.1,0,0.1,0,0.1,0h0.1l0,0l0,0h0.1h0.1l0,0c0.1,0,0.2-0.1,0.3-0.1c0.1-0.1,0.2-0.1,0.3-0.1l0,0l0,0c0.1,0,0.1,0,0.1,0
				s0.1,0,0.1-0.1l0.1-0.1h0.1c0,0,0,0,0.1,0h0.1l0,0l0,0l0,0c0,0,0,0,0.1,0C59.7,168.2,59.7,168.1,59.8,168.2
				C59.8,168.1,59.8,168.2,59.8,168.2L59.8,168.2z M56.3,170.5c0.2-0.1,0.4-0.1,0.6-0.2c0.2-0.1,0.4-0.1,0.6-0.2l0,0
				C57.1,170.3,56.7,170.4,56.3,170.5c-0.4,0.2-0.8,0.3-1.2,0.4c0.2,0,0.4-0.1,0.6-0.1C55.9,170.7,56.1,170.6,56.3,170.5z
				 M57.5,170.1L57.5,170.1L57.5,170.1L57.5,170.1z M57.8,169.1C57.8,169.2,57.8,169.2,57.8,169.1C57.8,169.2,57.7,169.2,57.8,169.1
				C57.7,169.2,57.8,169.2,57.8,169.1z M59.3,169.1c0.1-0.1,0.1-0.1,0.2-0.2s0.2-0.1,0.2-0.1s0,0,0.1,0l0,0
				c-0.1,0.1-0.2,0.1-0.3,0.2c-0.1,0.1-0.2,0.1-0.4,0.2h0.1L59.3,169.1z M61.4,168.5c-0.1,0.1-0.2,0.1-0.2,0.2L61.4,168.5
				L61.4,168.5z M61.5,164.3C61.5,164.3,61.4,164.3,61.5,164.3C61.4,164.3,61.4,164.3,61.5,164.3c0,0.1,0.1,0.1,0.2,0.2
				c0.1,0.1,0.1,0.1,0.2,0.2l0,0l0,0l0,0l0,0l0,0l0,0l0,0C61.8,164.6,61.7,164.5,61.5,164.3c0,0-0.1-0.1-0.3-0.1
				c0,0.1,0.1,0.1,0.1,0.1C61.4,164.2,61.4,164.2,61.5,164.3z M62.1,165.1c0-0.1,0-0.1,0-0.1s-0.1-0.1-0.1,0
				C62,164.9,62,164.9,62.1,165.1C62,165,62,165.1,62.1,165.1z"/>
			<path class="st1" d="M71.8,166.3c-0.1,0-0.1,0-0.1,0.1s-0.1,0.1-0.1,0.2l0,0c-0.1,0.1-0.2,0.1-0.2,0.2c-0.1,0.1-0.2,0.2-0.2,0.2
				l0,0l0,0c0,0,0,0-0.1,0.1H71c-0.1,0-0.1,0.1-0.1,0.1l-0.1,0.1c-0.1,0.1-0.1,0.1-0.1,0.1l-0.1,0.1l0,0c0,0-0.1,0.1-0.2,0.1
				c-0.1,0.1-0.2,0.1-0.3,0.2c-0.1,0.1-0.2,0.1-0.3,0.1c-0.1,0-0.2,0-0.2,0h-0.1c-0.1,0-0.2,0-0.3,0.1c-0.1,0-0.2,0.1-0.3,0
				c0-0.1-0.1-0.1-0.1-0.1c-0.1,0-0.1-0.1-0.2-0.1l-0.1-0.1c-0.1-0.1-0.2-0.2-0.3-0.3s-0.1-0.3-0.1-0.5s0-0.4,0-0.6
				c0-0.2,0.1-0.4,0.1-0.6c-0.2,0.1-0.3,0.3-0.4,0.4c-0.1,0.2-0.3,0.3-0.4,0.5c-0.1,0.1-0.1,0.2-0.2,0.2c-0.1,0.1-0.1,0.1-0.2,0.2
				c-0.2,0.2-0.4,0.4-0.5,0.6l0,0l0,0c-0.1,0.1-0.2,0.1-0.3,0.2c-0.1,0.1-0.2,0.2-0.3,0.2c-0.1,0.1-0.2,0.1-0.4,0.1s-0.3,0-0.4-0.1
				c-0.1,0-0.1,0-0.2-0.1l-0.1-0.1c-0.1-0.1-0.2-0.1-0.2-0.2c0-0.1,0-0.2-0.1-0.3c0-0.1,0-0.2,0-0.3s0.1-0.2,0.1-0.3
				c0.1-0.2,0.1-0.4,0.2-0.6s0.2-0.3,0.3-0.5c0.2-0.3,0.4-0.5,0.6-0.7s0.4-0.4,0.6-0.6c0.1,0,0.1-0.1,0.2-0.1s0.2-0.1,0.2-0.1
				c0.1,0,0.1,0,0.2,0s0.1,0,0.2,0c0.2,0,0.4,0.1,0.6,0.2c0.2,0.1,0.3,0.2,0.4,0.4c0.1-0.1,0.1-0.1,0.2-0.1s0.1-0.1,0.2-0.1
				c0,0,0.1,0,0.1-0.1c0,0,0,0,0.1,0s0.2,0,0.3,0.1s0.2,0.1,0.3,0.2l0,0c0,0,0,0,0.1,0v0.1c0,0,0,0,0,0.1c0,0.2,0,0.4-0.1,0.6
				c-0.1,0.2-0.2,0.4-0.2,0.6c0,0.3-0.1,0.5-0.2,0.8s-0.1,0.6,0,0.8c0.4,0,0.7-0.1,1-0.3c0.3-0.1,0.5-0.3,0.8-0.4
				c0.1-0.1,0.2-0.1,0.3-0.2c0.1-0.1,0.2-0.1,0.2-0.2l0,0l0,0c0.1,0,0.2-0.1,0.3-0.2c0.2-0.1,0.3-0.3,0.5-0.4
				c0.2-0.1,0.3-0.3,0.5-0.4c0.1-0.1,0.2-0.1,0.3-0.1c0,0,0,0,0.1,0s0.1,0,0.1,0l0,0l0,0l0,0l0,0v0.1c0,0,0,0,0,0.1l0,0
				c0,0,0,0-0.1,0.1s-0.1,0.1-0.1,0.1c0,0.1,0,0.1,0,0.1v0.1h-0.1c0,0.1-0.1,0.1-0.1,0.1l-0.1,0.1c0,0,0,0-0.1,0.1L71.8,166.3z
				 M67.3,164.9c0-0.1-0.1-0.3-0.1-0.4s-0.2-0.1-0.3,0l-0.3,0.3c0,0,0,0.1-0.1,0.1c0,0-0.1,0-0.1,0.1c0,0,0,0.1-0.1,0.1
				c0,0,0,0.1-0.1,0.1l-0.2,0.3c-0.1,0.2-0.2,0.3-0.4,0.5c-0.1,0.2-0.2,0.4-0.3,0.5c0,0.1,0,0.1-0.1,0.1c0,0-0.1,0.1-0.1,0.2l0,0
				l0,0c0,0.1-0.1,0.2-0.1,0.3s-0.1,0.2-0.1,0.3c0.1-0.1,0.2-0.1,0.3-0.2s0.2-0.1,0.2-0.2c0.3-0.3,0.6-0.6,0.9-1
				c0.3-0.3,0.6-0.7,0.9-1L67.3,164.9c0,0,0-0.1,0.1-0.1l0,0C67.5,164.9,67.4,164.9,67.3,164.9z"/>
			<path class="st1" d="M77.6,166c0,0,0,0.1-0.1,0.2c-0.1,0.1-0.2,0.2-0.3,0.3c0,0-0.1,0-0.1,0.1c-0.1,0.1-0.1,0.1-0.1,0.1l-0.1,0.1
				l-0.3,0.2l-0.1,0.1l-0.2,0.1c-0.2,0.1-0.4,0.2-0.5,0.3c-0.2,0.1-0.4,0.2-0.6,0.3c0,0,0,0-0.1,0s-0.1,0-0.1,0h-0.1h-0.1h-0.1l0,0
				c-0.1,0-0.1,0-0.1,0s-0.1,0-0.1,0.1h-0.1h-0.1h-0.1h-0.1l0,0l0,0H74c0,0-0.1,0-0.2,0h-0.1h-0.1l0,0c-0.2,0-0.3,0-0.4,0h-0.1
				c0,0,0,0-0.1,0s-0.2,0-0.3-0.1s-0.2-0.1-0.3-0.1c-0.1-0.1-0.2-0.1-0.3-0.2c-0.1-0.1-0.2-0.2-0.3-0.3c0-0.1-0.1-0.2-0.1-0.2
				c0-0.1,0-0.1-0.1-0.2c0-0.1,0-0.2,0-0.2v-0.2c0-0.1,0.1-0.3,0.1-0.5s0.1-0.4,0.3-0.5l0.4-0.4l0.2-0.3c0.1-0.1,0.2-0.1,0.2-0.2
				s0.1-0.1,0.2-0.2c0.1-0.1,0.1-0.1,0.2-0.1s0.1-0.1,0.2-0.1c0.1-0.1,0.2-0.1,0.2-0.2c0.1-0.1,0.2-0.1,0.2-0.2
				c0.1,0,0.2-0.1,0.2-0.1h0.1c0.1,0,0.1,0,0.1,0s0,0,0.1,0c0,0,0,0,0.1,0c0.1,0.1,0.1,0.2,0.2,0.2c0.1,0.1,0.2,0.1,0.2,0.2
				c0.1,0,0.1,0.1,0.1,0.1s0,0.1,0.1,0.1c0,0.1,0,0.2,0,0.2s0,0.1-0.1,0.2c0,0,0,0,0,0.1c0,0,0,0,0,0.1s-0.1,0.1-0.1,0.1l-0.1,0.1
				c0,0,0,0.1-0.1,0.1s0,0.1-0.1,0.1c0,0-0.1,0.1-0.2,0.2c-0.1,0.1-0.1,0.1-0.2,0.2c-0.1,0.1-0.1,0.1-0.2,0.2
				c-0.1,0-0.2,0.1-0.2,0.1v0.1c-0.1,0.1-0.2,0.2-0.3,0.2s-0.2,0.2-0.3,0.2c-0.2,0-0.3,0.1-0.5,0.2c-0.1,0.1-0.3,0.1-0.5,0.1l0,0
				c0,0,0,0,0.1,0c0,0.1,0,0.1,0,0.1s0,0.1,0.1,0.1c0.1,0.1,0.2,0.2,0.3,0.2c0.1,0.1,0.3,0.1,0.4,0.1c0.4,0.1,0.8,0.1,1.2,0
				c0.1,0,0.2,0,0.3-0.1c0.1,0,0.2-0.1,0.4-0.1c0.2-0.1,0.3-0.1,0.5-0.2l0.2-0.1h0.1l0,0l0,0l0,0l0.4-0.2c0.1-0.1,0.2-0.2,0.3-0.2
				c0.1,0,0.2-0.1,0.3-0.3c0,0,0,0,0.1-0.1s0.1-0.1,0.2-0.1s0.1-0.1,0.2-0.1s0.1-0.1,0.1-0.1l0.2-0.2c0.1-0.1,0.2-0.2,0.3-0.2
				c0.1-0.1,0.2-0.1,0.2-0.1l0.1,0.1c0,0,0,0.1,0.1,0.1c-0.1,0.1-0.1,0.2-0.1,0.2s0,0.1-0.1,0.1c0,0,0,0-0.1,0.1
				C77.7,165.9,77.7,165.9,77.6,166z M74.1,164.1c0,0-0.1,0-0.1,0.1s-0.1,0.1-0.1,0.1h-0.1c0,0,0,0-0.1,0c0,0,0,0-0.1,0l-0.1,0.1
				c-0.1,0.1-0.1,0.1-0.2,0.1s-0.1,0.1-0.2,0.1c-0.1,0.1-0.1,0.2-0.2,0.2s-0.1,0.1-0.2,0.2c-0.1,0.1-0.2,0.2-0.3,0.3
				c-0.1,0.1-0.2,0.2-0.3,0.4s-0.2,0.2-0.2,0.4c0.2-0.1,0.4-0.2,0.6-0.3s0.4-0.3,0.6-0.4c0.1-0.1,0.1-0.1,0.2-0.2
				c0.1-0.1,0.1-0.1,0.2-0.2c0.1-0.1,0.2-0.1,0.3-0.3s0.2-0.2,0.3-0.4c0-0.1,0-0.1,0.1-0.1v-0.1C74.3,164.1,74.2,164.1,74.1,164.1
				C74.2,164.1,74.1,164.1,74.1,164.1z"/>
			<path class="st1" d="M77.1,167.6c0-0.1,0.1-0.2,0.1-0.2c0.1,0,0.1-0.1,0.2-0.2c0,0,0,0.1-0.1,0.1c0,0,0,0,0,0.1
				c0.2-0.1,0.2-0.2,0.3-0.3h0.1c0-0.1,0.1-0.1,0.1-0.1l0,0c0,0,0,0,0-0.1s0-0.1,0-0.1l0,0l0,0c0-0.1,0.1-0.1,0.1-0.1s0.1,0,0.1-0.1
				c0,0,0,0,0.1,0c0.1-0.1,0.2-0.1,0.3-0.2c0.1,0,0.2-0.1,0.2-0.2c0.1-0.1,0.3-0.1,0.4-0.2c0.1-0.1,0.3-0.2,0.4-0.2
				c0-0.2,0.1-0.4,0-0.6c0-0.2-0.1-0.4-0.1-0.6c0,0-0.1,0.1-0.2,0.1s-0.1,0.1-0.2,0.2l-0.2,0.2l-0.2,0.2l-0.3,0.3
				c-0.1,0.1-0.2,0.1-0.2,0.2c-0.1,0.1-0.1,0.1-0.2,0.1c-0.1,0.1-0.1,0.2-0.2,0.2s-0.1,0-0.2,0l-0.1-0.1l0,0l0,0c0,0,0,0-0.1-0.1
				h-0.1l0,0c0,0,0,0,0-0.1l0,0c0.1,0,0.1-0.1,0.2-0.1c0,0,0-0.1,0.1-0.1c0-0.1,0-0.1,0.1-0.1s0.1-0.1,0.1-0.1s0.1,0,0.1-0.1
				c0,0,0,0,0-0.1v-0.1l0.1-0.1l0.1-0.1c0.1-0.1,0.2-0.2,0.3-0.3c0.1-0.1,0.2-0.2,0.2-0.3c0.1-0.2,0.2-0.3,0.4-0.4
				c0.2,0,0.3,0,0.4,0.1c0.2,0,0.3,0,0.3,0.1c0.1,0.1,0.1,0.1,0.2,0.3c0,0,0.1,0.1,0.1,0.2c0,0.1,0,0.2,0.1,0.3s0,0.2,0,0.3
				s0,0.2,0,0.2c0.1,0,0.2,0,0.3-0.1c0.2-0.1,0.3-0.1,0.5-0.2s0.4-0.1,0.5-0.2c0.2,0,0.3-0.1,0.3-0.1l0,0l0,0c0,0,0,0,0.1,0
				s0.2,0,0.2-0.1s0.2-0.1,0.2-0.1h0.1c0,0,0,0,0.1-0.1l0,0l0,0c0,0,0,0,0-0.1c0.1,0,0.2,0,0.3,0c0.1,0,0.2,0,0.2,0h0.1h0.1h0.2
				c0,0.1,0,0.1,0.1,0l0,0l0,0l0,0l0,0l0,0v0.1c0,0,0,0,0,0.1c-0.1,0-0.1,0-0.1,0H83l0,0l0,0c-0.1,0-0.1,0-0.2,0s-0.1,0-0.1,0.1
				c-0.1,0-0.2,0-0.3,0.1s-0.2,0-0.3,0.1v0.1c-0.1,0-0.1,0-0.2,0h-0.1c-0.1,0-0.2,0-0.3,0.1c-0.1,0-0.2,0.1-0.3,0.1l-1.3,0.5
				c-0.1,0-0.2,0.1-0.3,0.1c-0.1,0-0.2,0.1-0.2,0.2c0,0.2-0.1,0.3-0.1,0.3c0,0.1-0.1,0.2-0.1,0.3c-0.1,0-0.1,0-0.1,0.1s0,0.1,0,0.1
				l0,0l0,0c0,0.1,0,0.1-0.1,0.2c0,0.1-0.1,0.1-0.1,0.2c0,0,0,0,0,0.1s0,0.1,0,0.1s0,0-0.1,0.1v0.1l0,0l0,0v0.1l0,0
				c-0.1,0.1-0.1,0.1-0.2,0.2c0,0.1-0.1,0.1-0.2,0.2l0,0l0,0c-0.2,0.2-0.3,0.3-0.5,0.5c-0.2,0.1-0.4,0.2-0.6,0.3l0,0h-0.1l0,0
				c0,0,0,0,0.1,0c0-0.1-0.1-0.1-0.1,0h-0.1l0,0l0,0H77c0,0-0.1,0-0.2,0l0,0l0,0c-0.2,0-0.4,0-0.6-0.1c-0.1-0.1-0.3-0.2-0.4-0.3l0,0
				l0,0l0,0c0,0,0,0,0-0.1c0,0,0,0.1-0.1,0c0,0,0,0-0.1,0v-0.1c0,0,0,0,0-0.1l0,0l0,0v-0.1h0.1c0-0.2,0-0.3,0.1-0.3l0,0l0,0
				c0.1,0,0.1-0.1,0.1-0.2c0-0.1,0.1-0.2,0.1-0.3C77,167.7,77,167.6,77.1,167.6C77.1,167.6,77.1,167.5,77.1,167.6z M77.3,167.4
				C77.3,167.4,77.3,167.3,77.3,167.4L77.3,167.4z M78.5,167.1C78.5,167.2,78.5,167.2,78.5,167.1C78.5,167.2,78.5,167.2,78.5,167.1
				c-0.1,0.1-0.2,0.2-0.3,0.3s-0.2,0.2-0.3,0.3c0,0,0,0.1,0,0l0,0l0,0c-0.1,0-0.1,0.1-0.1,0.1l0,0c0,0.1-0.1,0.1-0.2,0.2
				c-0.1,0-0.1,0.1-0.1,0.2l0,0l0,0c0.1,0,0.3-0.1,0.4-0.1s0.2-0.1,0.4-0.2v-0.1l0,0c0.2-0.2,0.4-0.4,0.6-0.7s0.3-0.5,0.5-0.8l0,0
				c-0.1,0.1-0.2,0.2-0.3,0.3S78.7,167.1,78.5,167.1z M78.2,169.1c0,0,0.1,0,0.1-0.1C78.3,169,78.3,169,78.2,169.1
				C78.2,169,78.2,169,78.2,169.1z"/>
			<path class="st1" d="M82.5,167.6c0-0.1,0.1-0.2,0.1-0.2c0.1,0,0.1-0.1,0.2-0.2c0,0,0,0.1-0.1,0.1c0,0,0,0,0,0.1
				c0.2-0.1,0.2-0.2,0.3-0.3h0.1c0-0.1,0.1-0.1,0.1-0.1l0,0c0,0,0,0,0-0.1s0-0.1,0-0.1l0,0l0,0c0-0.1,0.1-0.1,0.1-0.1s0.1,0,0.1-0.1
				c0,0,0,0,0.1,0c0.1-0.1,0.2-0.1,0.3-0.2c0.1,0,0.2-0.1,0.2-0.2c0.1-0.1,0.3-0.1,0.4-0.2c0.1-0.1,0.3-0.2,0.4-0.2
				c0-0.2,0.1-0.4,0-0.6c0-0.2-0.1-0.4-0.1-0.6c0,0-0.1,0.1-0.2,0.1s-0.1,0.1-0.2,0.2l-0.2,0.2l-0.2,0.2l-0.3,0.3
				c-0.1,0.1-0.2,0.1-0.2,0.2c-0.1,0.1-0.1,0.1-0.2,0.1c-0.1,0.1-0.1,0.2-0.2,0.2s-0.1,0-0.2,0l-0.1-0.1l0,0l0,0c0,0,0,0-0.1-0.1
				h-0.1l0,0c0,0,0,0,0-0.1l0,0c0.1,0,0.1-0.1,0.2-0.1c0,0,0-0.1,0.1-0.1c0-0.1,0-0.1,0.1-0.1s0.1-0.1,0.1-0.1s0.1,0,0.1-0.1
				c0,0,0,0,0-0.1v-0.1l0.1-0.1l0.1-0.1c0.1-0.1,0.2-0.2,0.3-0.3c0.1-0.1,0.2-0.2,0.2-0.3c0.1-0.2,0.2-0.3,0.4-0.4
				c0.2,0,0.3,0,0.4,0.1c0.2,0,0.3,0,0.3,0.1c0.1,0.1,0.1,0.1,0.2,0.3c0,0,0.1,0.1,0.1,0.2c0,0.1,0,0.2,0.1,0.3s0,0.2,0,0.3
				s0,0.2,0,0.2c0.1,0,0.2,0,0.3-0.1c0.2-0.1,0.3-0.1,0.5-0.2s0.4-0.1,0.5-0.2c0.2,0,0.3-0.1,0.3-0.1l0,0l0,0c0,0,0,0,0.1,0
				s0.2,0,0.2-0.1s0.2-0.1,0.2-0.1h0.1c0,0,0,0,0.1-0.1l0,0l0,0c0,0,0,0,0-0.1c0.1,0,0.2,0,0.3,0c0.1,0,0.2,0,0.2,0h0.1h0.1h0.2
				c0,0.1,0,0.1,0.1,0l0,0l0,0l0,0l0,0l0,0v0.1c0,0,0,0,0,0.1c-0.1,0-0.1,0-0.1,0h-0.1l0,0l0,0c-0.1,0-0.1,0-0.2,0s-0.1,0-0.1,0.1
				c-0.1,0-0.2,0-0.3,0.1s-0.2,0-0.3,0.1v0.1c-0.1,0-0.1,0-0.2,0h-0.1c-0.1,0-0.2,0-0.3,0.1c-0.1,0-0.2,0.1-0.3,0.1l-1.3,0.5
				c-0.1,0-0.2,0.1-0.3,0.1c-0.1,0-0.2,0.1-0.2,0.2c0,0.2-0.1,0.3-0.1,0.3c0,0.1-0.1,0.2-0.1,0.3c-0.1,0-0.1,0-0.1,0.1s0,0.1,0,0.1
				l0,0l0,0c0,0.1,0,0.1-0.1,0.2c0,0.1-0.1,0.1-0.1,0.2c0,0,0,0,0,0.1s0,0.1,0,0.1s0,0-0.1,0.1v0.1l0,0l0,0v0.1l0,0
				c-0.1,0.1-0.1,0.1-0.2,0.2c0,0.1-0.1,0.1-0.2,0.2l0,0l0,0c-0.2,0.2-0.3,0.3-0.5,0.5c-0.2,0.1-0.4,0.2-0.6,0.3l0,0h-0.1l0,0
				c0,0,0,0,0.1,0c0-0.1-0.1-0.1-0.1,0h-0.1l0,0l0,0h-0.1c0,0-0.1,0-0.2,0l0,0l0,0c-0.2,0-0.4,0-0.6-0.1c-0.1-0.1-0.3-0.2-0.4-0.3
				l0,0l0,0l0,0c0,0,0,0,0-0.1c0,0,0,0.1-0.1,0c0,0,0,0-0.1,0v-0.1c0,0,0,0,0-0.1l0,0l0,0v-0.1h0.1c0-0.2,0-0.3,0.1-0.3l0,0l0,0
				c0.1,0,0.1-0.1,0.1-0.2c0-0.1,0.1-0.2,0.1-0.3C82.3,167.7,82.4,167.6,82.5,167.6C82.4,167.6,82.5,167.5,82.5,167.6z M82.6,167.4
				C82.6,167.4,82.6,167.3,82.6,167.4L82.6,167.4z M83.9,167.1C83.9,167.2,83.9,167.2,83.9,167.1C83.9,167.2,83.9,167.2,83.9,167.1
				c-0.1,0.1-0.2,0.2-0.3,0.3s-0.2,0.2-0.3,0.3c0,0,0,0.1,0,0l0,0l0,0c-0.1,0-0.1,0.1-0.1,0.1l0,0c0,0.1-0.1,0.1-0.2,0.2
				c-0.1,0-0.1,0.1-0.1,0.2l0,0l0,0c0.1,0,0.3-0.1,0.4-0.1s0.2-0.1,0.4-0.2v-0.1l0,0c0.2-0.2,0.4-0.4,0.6-0.7s0.3-0.5,0.5-0.8l0,0
				c-0.1,0.1-0.2,0.2-0.3,0.3S84,167.1,83.9,167.1z M83.6,169.1c0,0,0.1,0,0.1-0.1C83.7,169,83.6,169,83.6,169.1
				C83.6,169,83.6,169,83.6,169.1z"/>
			<path class="st1" d="M93.9,166c0,0,0,0.1-0.1,0.2c-0.1,0.1-0.2,0.2-0.3,0.3c0,0-0.1,0-0.1,0.1c-0.1,0.1-0.1,0.1-0.1,0.1l-0.1,0.1
				l-0.3,0.2l-0.1,0.1l-0.2,0.1c-0.2,0.1-0.4,0.2-0.5,0.3c-0.2,0.1-0.4,0.2-0.6,0.3c0,0,0,0-0.1,0s-0.1,0-0.1,0h-0.1h-0.1H91l0,0
				c-0.1,0-0.1,0-0.1,0s-0.1,0-0.1,0.1h-0.1h-0.1h-0.1h-0.1l0,0l0,0h-0.1c0,0-0.1,0-0.2,0H90h-0.1l0,0c-0.2,0-0.3,0-0.4,0h-0.1
				c0,0,0,0-0.1,0s-0.2,0-0.3-0.1s-0.2-0.1-0.3-0.1c-0.1-0.1-0.2-0.1-0.3-0.2c-0.1-0.1-0.2-0.2-0.3-0.3c0-0.1-0.1-0.2-0.1-0.2
				c0-0.1,0-0.1-0.1-0.2c0-0.1,0-0.2,0-0.2v-0.2c0-0.1,0.1-0.3,0.1-0.5s0.1-0.4,0.3-0.5l0.4-0.4l0.2-0.3c0.1-0.1,0.2-0.1,0.2-0.2
				s0.1-0.1,0.2-0.2c0.1-0.1,0.1-0.1,0.2-0.1s0.1-0.1,0.2-0.1c0.1-0.1,0.2-0.1,0.2-0.2c0.1-0.1,0.2-0.1,0.2-0.2
				c0.1,0,0.2-0.1,0.2-0.1h0.1c0.1,0,0.1,0,0.1,0s0,0,0.1,0c0,0,0,0,0.1,0c0.1,0.1,0.1,0.2,0.2,0.2c0.1,0.1,0.2,0.1,0.2,0.2
				c0.1,0,0.1,0.1,0.1,0.1s0,0.1,0.1,0.1c0,0.1,0,0.2,0,0.2s0,0.1-0.1,0.2c0,0,0,0,0,0.1c0,0,0,0,0,0.1s-0.1,0.1-0.1,0.1L91,165
				c0,0,0,0.1-0.1,0.1s0,0.1-0.1,0.1c0,0-0.1,0.1-0.2,0.2c-0.1,0.1-0.1,0.1-0.2,0.2c-0.1,0.1-0.1,0.1-0.2,0.2
				c-0.1,0-0.2,0.1-0.2,0.1v0.1c-0.1,0.1-0.2,0.2-0.3,0.2s-0.2,0.2-0.3,0.2c-0.2,0-0.3,0.1-0.5,0.2c-0.1,0.1-0.3,0.1-0.5,0.1l0,0
				c0,0,0,0,0.1,0c0,0.1,0,0.1,0,0.1s0,0.1,0.1,0.1c0.1,0.1,0.2,0.2,0.3,0.2c0.1,0.1,0.3,0.1,0.4,0.1c0.4,0.1,0.8,0.1,1.2,0
				c0.1,0,0.2,0,0.3-0.1c0.1,0,0.2-0.1,0.4-0.1c0.2-0.1,0.3-0.1,0.5-0.2l0.2-0.1H92l0,0l0,0l0,0l0.4-0.2c0.1-0.1,0.2-0.2,0.3-0.2
				c0.1,0,0.2-0.1,0.3-0.3c0,0,0,0,0.1-0.1s0.1-0.1,0.2-0.1s0.1-0.1,0.2-0.1s0.1-0.1,0.1-0.1l0.2-0.2c0.1-0.1,0.2-0.2,0.3-0.2
				c0.1-0.1,0.2-0.1,0.2-0.1l0.1,0.1c0,0,0,0.1,0.1,0.1c-0.1,0.1-0.1,0.2-0.1,0.2s0,0.1-0.1,0.1c0,0,0,0-0.1,0.1
				C94,165.9,94,165.9,93.9,166z M90.4,164.1c0,0-0.1,0-0.1,0.1s-0.1,0.1-0.1,0.1h-0.1c0,0,0,0-0.1,0c0,0,0,0-0.1,0l-0.1,0.1
				c-0.1,0.1-0.1,0.1-0.2,0.1s-0.1,0.1-0.2,0.1c-0.1,0.1-0.1,0.2-0.2,0.2s-0.1,0.1-0.2,0.2c-0.1,0.1-0.2,0.2-0.3,0.3
				c-0.1,0.1-0.2,0.2-0.3,0.4s-0.2,0.2-0.2,0.4c0.2-0.1,0.4-0.2,0.6-0.3s0.4-0.3,0.6-0.4c0.1-0.1,0.1-0.1,0.2-0.2
				c0.1-0.1,0.1-0.1,0.2-0.2c0.1-0.1,0.2-0.1,0.3-0.3s0.2-0.2,0.3-0.4c0-0.1,0-0.1,0.1-0.1v-0.1C90.6,164.1,90.5,164.1,90.4,164.1
				C90.5,164.1,90.4,164.1,90.4,164.1z"/>
		</g>
	</g>
</g>
</svg>
