<?xml version="1.0" encoding="utf-8"?>
<!-- Generator: Adobe Illustrator 23.0.1, SVG Export Plug-In . SVG Version: 6.00 Build 0)  -->
<svg version="1.1" id="Camada_1" xmlns="http://www.w3.org/2000/svg" xmlns:xlink="http://www.w3.org/1999/xlink" x="0px" y="0px"
	 viewBox="0 0 202.2 209.2" style="enable-background:new 0 0 202.2 209.2;" xml:space="preserve">
<style type="text/css">
	.st0{fill:none;}
	.st1{fill:#8E1E4C;}
</style>
<g>
	<rect x="8.7" y="9.1" class="st0" width="185.8" height="191.1"/>
	<rect x="172.7" y="20.5" class="st0" width="10.1" height="9.8"/>
	<rect x="172.7" y="31.1" class="st0" width="10.1" height="9.8"/>
	<rect x="172.7" y="41.6" class="st0" width="10.1" height="9.8"/>
	<rect x="172.7" y="52.2" class="st0" width="10.1" height="9.8"/>
	<rect x="172.7" y="62.8" class="st0" width="10.1" height="9.8"/>
	<rect x="172.7" y="73.4" class="st0" width="10.1" height="9.8"/>
	<rect x="172.7" y="83.9" class="st0" width="10.1" height="9.8"/>
	<rect x="172.7" y="94.5" class="st0" width="10.1" height="9.8"/>
	<rect x="172.7" y="105.1" class="st0" width="10.1" height="9.8"/>
	<rect x="172.7" y="115.7" class="st0" width="10.1" height="9.8"/>
	<rect x="172.7" y="126.2" class="st0" width="10.1" height="9.8"/>
	<rect x="172.7" y="136.8" class="st0" width="10.1" height="9.8"/>
	<rect x="172.7" y="147.4" class="st0" width="10.1" height="9.8"/>
	<rect x="172.7" y="158" class="st0" width="10.1" height="9.8"/>
	<rect x="172.7" y="168.5" class="st0" width="10.1" height="9.8"/>
	<rect x="172.7" y="179.1" class="st0" width="10.1" height="9.8"/>
	<rect x="161.8" y="20.5" class="st0" width="10.1" height="9.8"/>
	<rect x="161.8" y="31.1" class="st0" width="10.1" height="9.8"/>
	<rect x="161.8" y="41.6" class="st0" width="10.1" height="9.8"/>
	<rect x="161.8" y="52.2" class="st0" width="10.1" height="9.8"/>
	<rect x="161.8" y="62.8" class="st0" width="10.1" height="9.8"/>
	<rect x="161.8" y="73.4" class="st0" width="10.1" height="9.8"/>
	<rect x="161.8" y="115.7" class="st0" width="10.1" height="9.8"/>
	<rect x="161.8" y="126.2" class="st0" width="10.1" height="9.8"/>
	<rect x="161.8" y="136.8" class="st0" width="10.1" height="9.8"/>
	<rect x="161.8" y="147.4" class="st0" width="10.1" height="9.8"/>
	<rect x="161.8" y="158" class="st0" width="10.1" height="9.8"/>
	<rect x="161.8" y="179.1" class="st0" width="10.1" height="9.8"/>
	<rect x="151" y="20.5" class="st0" width="10.1" height="9.8"/>
	<rect x="151" y="31.1" class="st0" width="10.1" height="9.8"/>
	<rect x="151" y="41.6" class="st0" width="10.1" height="9.8"/>
	<rect x="151" y="52.2" class="st0" width="10.1" height="9.8"/>
	<rect x="151" y="62.8" class="st0" width="10.1" height="9.8"/>
	<rect x="151" y="83.9" class="st0" width="10.1" height="9.8"/>
	<rect x="151" y="94.5" class="st0" width="10.1" height="9.8"/>
	<rect x="151" y="105.1" class="st0" width="10.1" height="9.8"/>
	<rect x="151" y="126.2" class="st0" width="10.1" height="9.8"/>
	<rect x="151" y="136.8" class="st0" width="10.1" height="9.8"/>
	<rect x="151" y="147.4" class="st0" width="10.1" height="9.8"/>
	<rect x="151" y="168.5" class="st0" width="10.1" height="9.8"/>
	<rect x="151" y="179.1" class="st0" width="10.1" height="9.8"/>
	<rect x="140.1" y="20.5" class="st0" width="10.1" height="9.8"/>
	<rect x="140.1" y="31.1" class="st0" width="10.1" height="9.8"/>
	<rect x="140.1" y="41.6" class="st0" width="10.1" height="9.8"/>
	<rect x="140.1" y="52.2" class="st0" width="10.1" height="9.8"/>
	<rect x="140.1" y="62.8" class="st0" width="10.1" height="9.8"/>
	<rect x="140.1" y="83.9" class="st0" width="10.1" height="9.8"/>
	<rect x="140.1" y="94.5" class="st0" width="10.1" height="9.8"/>
	<rect x="140.1" y="105.1" class="st0" width="10.1" height="9.8"/>
	<rect x="140.1" y="126.2" class="st0" width="10.1" height="9.8"/>
	<rect x="140.1" y="136.8" class="st0" width="10.1" height="9.8"/>
	<rect x="140.1" y="158" class="st0" width="10.1" height="9.8"/>
	<rect x="140.1" y="168.5" class="st0" width="10.1" height="9.8"/>
	<rect x="140.1" y="179.1" class="st0" width="10.1" height="9.8"/>
	<rect x="129.2" y="20.5" class="st0" width="10.1" height="9.8"/>
	<rect x="129.2" y="31.1" class="st0" width="10.1" height="9.8"/>
	<rect x="129.2" y="41.6" class="st0" width="10.1" height="9.8"/>
	<rect x="129.2" y="52.2" class="st0" width="10.1" height="9.8"/>
	<rect x="129.2" y="62.8" class="st0" width="10.1" height="9.8"/>
	<rect x="129.2" y="83.9" class="st0" width="10.1" height="9.8"/>
	<rect x="129.2" y="94.5" class="st0" width="10.1" height="9.8"/>
	<rect x="129.2" y="105.1" class="st0" width="10.1" height="9.8"/>
	<rect x="129.2" y="126.2" class="st0" width="10.1" height="9.8"/>
	<rect x="129.2" y="147.4" class="st0" width="10.1" height="9.8"/>
	<rect x="129.2" y="158" class="st0" width="10.1" height="9.8"/>
	<rect x="129.2" y="168.5" class="st0" width="10.1" height="9.8"/>
	<rect x="129.2" y="179.1" class="st0" width="10.1" height="9.8"/>
	<rect x="118.3" y="20.5" class="st0" width="10.1" height="9.8"/>
	<rect x="118.3" y="31.1" class="st0" width="10.1" height="9.8"/>
	<rect x="118.3" y="41.6" class="st0" width="10.1" height="9.8"/>
	<rect x="118.3" y="52.2" class="st0" width="10.1" height="9.8"/>
	<rect x="118.3" y="62.8" class="st0" width="10.1" height="9.8"/>
	<rect x="118.3" y="83.9" class="st0" width="10.1" height="9.8"/>
	<rect x="118.3" y="94.5" class="st0" width="10.1" height="9.8"/>
	<rect x="118.3" y="105.1" class="st0" width="10.1" height="9.8"/>
	<rect x="118.3" y="136.8" class="st0" width="10.1" height="9.8"/>
	<rect x="118.3" y="147.4" class="st0" width="10.1" height="9.8"/>
	<rect x="118.3" y="158" class="st0" width="10.1" height="9.8"/>
	<rect x="118.3" y="168.5" class="st0" width="10.1" height="9.8"/>
	<rect x="118.3" y="179.1" class="st0" width="10.1" height="9.8"/>
	<rect x="107.4" y="20.5" class="st0" width="10.1" height="9.8"/>
	<rect x="107.4" y="31.1" class="st0" width="10.1" height="9.8"/>
	<rect x="107.4" y="41.6" class="st0" width="10.1" height="9.8"/>
	<rect x="107.4" y="52.2" class="st0" width="10.1" height="9.8"/>
	<rect x="107.4" y="62.8" class="st0" width="10.1" height="9.8"/>
	<rect x="107.4" y="179.1" class="st0" width="10.1" height="9.8"/>
	<rect x="96.5" y="20.5" class="st0" width="10.1" height="9.8"/>
	<rect x="96.5" y="31.1" class="st0" width="10.1" height="9.8"/>
	<rect x="96.5" y="41.6" class="st0" width="10.1" height="9.8"/>
	<rect x="96.5" y="52.2" class="st0" width="10.1" height="9.8"/>
	<rect x="96.5" y="62.8" class="st0" width="10.1" height="9.8"/>
	<rect x="96.5" y="73.4" class="st0" width="10.1" height="9.8"/>
	<rect x="96.5" y="83.9" class="st0" width="10.1" height="9.8"/>
	<rect x="96.5" y="94.5" class="st0" width="10.1" height="9.8"/>
	<rect x="96.5" y="105.1" class="st0" width="10.1" height="9.8"/>
	<rect x="96.5" y="115.7" class="st0" width="10.1" height="9.8"/>
	<rect x="96.5" y="126.2" class="st0" width="10.1" height="9.8"/>
	<rect x="96.5" y="136.8" class="st0" width="10.1" height="9.8"/>
	<rect x="96.5" y="147.4" class="st0" width="10.1" height="9.8"/>
	<rect x="96.5" y="158" class="st0" width="10.1" height="9.8"/>
	<rect x="96.5" y="168.5" class="st0" width="10.1" height="9.8"/>
	<rect x="96.5" y="179.1" class="st0" width="10.1" height="9.8"/>
	<rect x="85.7" y="20.5" class="st0" width="10.1" height="9.8"/>
	<rect x="85.7" y="31.1" class="st0" width="10.1" height="9.8"/>
	<rect x="85.7" y="73.4" class="st0" width="10.1" height="9.8"/>
	<rect x="85.7" y="83.9" class="st0" width="10.1" height="9.8"/>
	<rect x="85.7" y="94.5" class="st0" width="10.1" height="9.8"/>
	<rect x="85.7" y="105.1" class="st0" width="10.1" height="9.8"/>
	<rect x="85.7" y="115.7" class="st0" width="10.1" height="9.8"/>
	<rect x="85.7" y="126.2" class="st0" width="10.1" height="9.8"/>
	<rect x="85.7" y="136.8" class="st0" width="10.1" height="9.8"/>
	<rect x="85.7" y="147.4" class="st0" width="10.1" height="9.8"/>
	<rect x="85.7" y="158" class="st0" width="10.1" height="9.8"/>
	<rect x="85.7" y="168.5" class="st0" width="10.1" height="9.8"/>
	<rect x="85.7" y="179.1" class="st0" width="10.1" height="9.8"/>
	<rect x="74.8" y="20.5" class="st0" width="10.1" height="9.8"/>
	<rect x="74.8" y="41.6" class="st0" width="10.1" height="9.8"/>
	<rect x="74.8" y="52.2" class="st0" width="10.1" height="9.8"/>
	<rect x="74.8" y="62.8" class="st0" width="10.1" height="9.8"/>
	<rect x="74.8" y="83.9" class="st0" width="10.1" height="9.8"/>
	<rect x="74.8" y="94.5" class="st0" width="10.1" height="9.8"/>
	<rect x="74.8" y="105.1" class="st0" width="10.1" height="9.8"/>
	<rect x="74.8" y="115.7" class="st0" width="10.1" height="9.8"/>
	<rect x="74.8" y="126.2" class="st0" width="10.1" height="9.8"/>
	<rect x="74.8" y="136.8" class="st0" width="10.1" height="9.8"/>
	<rect x="74.8" y="147.4" class="st0" width="10.1" height="9.8"/>
	<rect x="74.8" y="158" class="st0" width="10.1" height="9.8"/>
	<rect x="74.8" y="168.5" class="st0" width="10.1" height="9.8"/>
	<rect x="74.8" y="179.1" class="st0" width="10.1" height="9.8"/>
	<rect x="63.9" y="20.5" class="st0" width="10.1" height="9.8"/>
	<rect x="63.9" y="41.6" class="st0" width="10.1" height="9.8"/>
	<rect x="63.9" y="52.2" class="st0" width="10.1" height="9.8"/>
	<rect x="63.9" y="62.8" class="st0" width="10.1" height="9.8"/>
	<rect x="63.9" y="83.9" class="st0" width="10.1" height="9.8"/>
	<rect x="63.9" y="94.5" class="st0" width="10.1" height="9.8"/>
	<rect x="63.9" y="105.1" class="st0" width="10.1" height="9.8"/>
	<rect x="63.9" y="115.7" class="st0" width="10.1" height="9.8"/>
	<rect x="63.9" y="126.2" class="st0" width="10.1" height="9.8"/>
	<rect x="63.9" y="136.8" class="st0" width="10.1" height="9.8"/>
	<rect x="63.9" y="147.4" class="st0" width="10.1" height="9.8"/>
	<rect x="63.9" y="158" class="st0" width="10.1" height="9.8"/>
	<rect x="63.9" y="168.5" class="st0" width="10.1" height="9.8"/>
	<rect x="63.9" y="179.1" class="st0" width="10.1" height="9.8"/>
	<rect x="53" y="20.5" class="st0" width="10.1" height="9.8"/>
	<rect x="53" y="41.6" class="st0" width="10.1" height="9.8"/>
	<rect x="53" y="52.2" class="st0" width="10.1" height="9.8"/>
	<rect x="53" y="62.8" class="st0" width="10.1" height="9.8"/>
	<rect x="53" y="83.9" class="st0" width="10.1" height="9.8"/>
	<rect x="53" y="94.5" class="st0" width="10.1" height="9.8"/>
	<rect x="53" y="105.1" class="st0" width="10.1" height="9.8"/>
	<rect x="53" y="115.7" class="st0" width="10.1" height="9.8"/>
	<rect x="53" y="126.2" class="st0" width="10.1" height="9.8"/>
	<rect x="53" y="136.8" class="st0" width="10.1" height="9.8"/>
	<rect x="53" y="147.4" class="st0" width="10.1" height="9.8"/>
	<rect x="53" y="158" class="st0" width="10.1" height="9.8"/>
	<rect x="53" y="168.5" class="st0" width="10.1" height="9.8"/>
	<rect x="53" y="179.1" class="st0" width="10.1" height="9.8"/>
	<rect x="42.1" y="20.5" class="st0" width="10.1" height="9.8"/>
	<rect x="42.1" y="41.6" class="st0" width="10.1" height="9.8"/>
	<rect x="42.1" y="52.2" class="st0" width="10.1" height="9.8"/>
	<rect x="42.1" y="62.8" class="st0" width="10.1" height="9.8"/>
	<rect x="42.1" y="83.9" class="st0" width="10.1" height="9.8"/>
	<rect x="42.1" y="94.5" class="st0" width="10.1" height="9.8"/>
	<rect x="42.1" y="105.1" class="st0" width="10.1" height="9.8"/>
	<rect x="42.1" y="115.7" class="st0" width="10.1" height="9.8"/>
	<rect x="42.1" y="126.2" class="st0" width="10.1" height="9.8"/>
	<rect x="42.1" y="136.8" class="st0" width="10.1" height="9.8"/>
	<rect x="42.1" y="147.4" class="st0" width="10.1" height="9.8"/>
	<rect x="42.1" y="158" class="st0" width="10.1" height="9.8"/>
	<rect x="42.1" y="168.5" class="st0" width="10.1" height="9.8"/>
	<rect x="42.1" y="179.1" class="st0" width="10.1" height="9.8"/>
	<rect x="31.2" y="20.5" class="st0" width="10.1" height="9.8"/>
	<rect x="31.2" y="136.8" class="st0" width="10.1" height="9.8"/>
	<rect x="31.2" y="147.4" class="st0" width="10.1" height="9.8"/>
	<rect x="31.2" y="158" class="st0" width="10.1" height="9.8"/>
	<rect x="31.2" y="168.5" class="st0" width="10.1" height="9.8"/>
	<rect x="31.2" y="179.1" class="st0" width="10.1" height="9.8"/>
	<rect x="20.4" y="20.5" class="st0" width="10.1" height="9.8"/>
	<rect x="20.4" y="31.1" class="st0" width="10.1" height="9.8"/>
	<rect x="20.4" y="41.6" class="st0" width="10.1" height="9.8"/>
	<rect x="20.4" y="52.2" class="st0" width="10.1" height="9.8"/>
	<rect x="20.4" y="62.8" class="st0" width="10.1" height="9.8"/>
	<rect x="20.4" y="73.4" class="st0" width="10.1" height="9.8"/>
	<rect x="20.4" y="83.9" class="st0" width="10.1" height="9.8"/>
	<rect x="20.4" y="94.5" class="st0" width="10.1" height="9.8"/>
	<rect x="20.4" y="105.1" class="st0" width="10.1" height="9.8"/>
	<rect x="20.4" y="115.7" class="st0" width="10.1" height="9.8"/>
	<rect x="20.4" y="126.2" class="st0" width="10.1" height="9.8"/>
	<rect x="20.4" y="136.8" class="st0" width="10.1" height="9.8"/>
	<rect x="20.4" y="147.4" class="st0" width="10.1" height="9.8"/>
	<rect x="20.4" y="158" class="st0" width="10.1" height="9.8"/>
	<rect x="20.4" y="168.5" class="st0" width="10.1" height="9.8"/>
	<rect x="20.4" y="179.1" class="st0" width="10.1" height="9.8"/>
	<g>
		<rect x="161.8" y="83.9" class="st1" width="10.1" height="9.8"/>
		<rect x="161.8" y="94.5" class="st1" width="10.1" height="9.8"/>
		<rect x="161.8" y="105.1" class="st1" width="10.1" height="9.8"/>
		<rect x="161.8" y="168.5" class="st1" width="10.1" height="9.8"/>
		<rect x="151" y="73.4" class="st1" width="10.1" height="9.8"/>
		<rect x="151" y="115.7" class="st1" width="10.1" height="9.8"/>
		<rect x="151" y="158" class="st1" width="10.1" height="9.8"/>
		<rect x="140.1" y="73.4" class="st1" width="10.1" height="9.8"/>
		<rect x="140.1" y="115.7" class="st1" width="10.1" height="9.8"/>
		<rect x="140.1" y="147.4" class="st1" width="10.1" height="9.8"/>
		<rect x="129.2" y="73.4" class="st1" width="10.1" height="9.8"/>
		<rect x="129.2" y="115.7" class="st1" width="10.1" height="9.8"/>
		<rect x="129.2" y="136.8" class="st1" width="10.1" height="9.8"/>
		<rect x="118.3" y="73.4" class="st1" width="10.1" height="9.8"/>
		<rect x="118.3" y="115.7" class="st1" width="10.1" height="9.8"/>
		<rect x="118.3" y="126.2" class="st1" width="10.1" height="9.8"/>
		<rect x="107.4" y="73.4" class="st1" width="10.1" height="9.8"/>
		<rect x="107.4" y="83.9" class="st1" width="10.1" height="9.8"/>
		<rect x="107.4" y="94.5" class="st1" width="10.1" height="9.8"/>
		<rect x="107.4" y="105.1" class="st1" width="10.1" height="9.8"/>
		<rect x="107.4" y="115.7" class="st1" width="10.1" height="9.8"/>
		<rect x="107.4" y="126.2" class="st1" width="10.1" height="9.8"/>
		<rect x="107.4" y="136.8" class="st1" width="10.1" height="9.8"/>
		<rect x="107.4" y="147.4" class="st1" width="10.1" height="9.8"/>
		<rect x="107.4" y="158" class="st1" width="10.1" height="9.8"/>
		<rect x="107.4" y="168.5" class="st1" width="10.1" height="9.8"/>
		<rect x="85.7" y="41.6" class="st1" width="10.1" height="9.8"/>
		<rect x="85.7" y="52.2" class="st1" width="10.1" height="9.8"/>
		<rect x="85.7" y="62.8" class="st1" width="10.1" height="9.8"/>
		<rect x="74.8" y="31.1" class="st1" width="10.1" height="9.8"/>
		<rect x="74.8" y="73.4" class="st1" width="10.1" height="9.8"/>
		<rect x="63.9" y="31.1" class="st1" width="10.1" height="9.8"/>
		<rect x="63.9" y="73.4" class="st1" width="10.1" height="9.8"/>
		<rect x="53" y="31.1" class="st1" width="10.1" height="9.8"/>
		<rect x="53" y="73.4" class="st1" width="10.1" height="9.8"/>
		<rect x="42.1" y="31.1" class="st1" width="10.1" height="9.8"/>
		<rect x="42.1" y="73.4" class="st1" width="10.1" height="9.8"/>
		<rect x="31.2" y="31.1" class="st1" width="10.1" height="9.8"/>
		<rect x="31.2" y="41.6" class="st1" width="10.1" height="9.8"/>
		<rect x="31.2" y="52.2" class="st1" width="10.1" height="9.8"/>
		<rect x="31.2" y="62.8" class="st1" width="10.1" height="9.8"/>
		<rect x="31.2" y="73.4" class="st1" width="10.1" height="9.8"/>
		<rect x="31.2" y="83.9" class="st1" width="10.1" height="9.8"/>
		<rect x="31.2" y="94.5" class="st1" width="10.1" height="9.8"/>
		<rect x="31.2" y="105.1" class="st1" width="10.1" height="9.8"/>
		<rect x="31.2" y="115.7" class="st1" width="10.1" height="9.8"/>
		<rect x="31.2" y="126.2" class="st1" width="10.1" height="9.8"/>
		<rect x="9.5" y="9.9" class="st1" width="10.1" height="9.8"/>
		<rect x="9.5" y="20.5" class="st1" width="10.1" height="9.8"/>
		<rect x="9.5" y="31.1" class="st1" width="10.1" height="9.8"/>
		<rect x="9.5" y="41.6" class="st1" width="10.1" height="9.8"/>
		<rect x="9.5" y="52.2" class="st1" width="10.1" height="9.8"/>
		<rect x="9.5" y="62.8" class="st1" width="10.1" height="9.8"/>
		<rect x="9.5" y="73.4" class="st1" width="10.1" height="9.8"/>
		<rect x="9.5" y="83.9" class="st1" width="10.1" height="9.8"/>
		<rect x="9.5" y="94.5" class="st1" width="10.1" height="9.8"/>
		<rect x="9.5" y="105.1" class="st1" width="10.1" height="9.8"/>
		<rect x="9.5" y="115.7" class="st1" width="10.1" height="9.8"/>
		<rect x="9.5" y="126.2" class="st1" width="10.1" height="9.8"/>
		<rect x="9.5" y="136.8" class="st1" width="10.1" height="9.8"/>
		<rect x="9.5" y="147.4" class="st1" width="10.1" height="9.8"/>
		<rect x="9.5" y="158" class="st1" width="10.1" height="9.8"/>
		<rect x="9.5" y="168.5" class="st1" width="10.1" height="9.8"/>
		<rect x="9.5" y="179.1" class="st1" width="10.1" height="9.8"/>
		<rect x="183.6" y="20.5" class="st1" width="10.1" height="9.8"/>
		<rect x="183.6" y="31.1" class="st1" width="10.1" height="9.8"/>
		<rect x="183.6" y="41.6" class="st1" width="10.1" height="9.8"/>
		<rect x="183.6" y="52.2" class="st1" width="10.1" height="9.8"/>
		<rect x="183.6" y="62.8" class="st1" width="10.1" height="9.8"/>
		<rect x="183.6" y="73.4" class="st1" width="10.1" height="9.8"/>
		<rect x="183.6" y="83.9" class="st1" width="10.1" height="9.8"/>
		<rect x="183.6" y="94.5" class="st1" width="10.1" height="9.8"/>
		<rect x="183.6" y="105.1" class="st1" width="10.1" height="9.8"/>
		<rect x="183.6" y="115.7" class="st1" width="10.1" height="9.8"/>
		<rect x="183.6" y="126.2" class="st1" width="10.1" height="9.8"/>
		<rect x="183.6" y="136.8" class="st1" width="10.1" height="9.8"/>
		<rect x="183.6" y="147.4" class="st1" width="10.1" height="9.8"/>
		<rect x="183.6" y="158" class="st1" width="10.1" height="9.8"/>
		<rect x="183.6" y="168.5" class="st1" width="10.1" height="9.8"/>
		<rect x="183.6" y="179.1" class="st1" width="10.1" height="9.8"/>
		<rect x="9.5" y="189.7" class="st1" width="10.1" height="9.8"/>
		<rect x="20.4" y="9.9" class="st1" width="10.1" height="9.8"/>
		<rect x="31.2" y="9.9" class="st1" width="10.1" height="9.8"/>
		<rect x="42.1" y="9.9" class="st1" width="10.1" height="9.8"/>
		<rect x="53" y="9.9" class="st1" width="10.1" height="9.8"/>
		<rect x="63.9" y="9.9" class="st1" width="10.1" height="9.8"/>
		<rect x="74.8" y="9.9" class="st1" width="10.1" height="9.8"/>
		<rect x="85.7" y="9.9" class="st1" width="10.1" height="9.8"/>
		<rect x="96.5" y="9.9" class="st1" width="10.1" height="9.8"/>
		<rect x="107.4" y="9.9" class="st1" width="10.1" height="9.8"/>
		<rect x="118.3" y="9.9" class="st1" width="10.1" height="9.8"/>
		<rect x="129.2" y="9.9" class="st1" width="10.1" height="9.8"/>
		<rect x="140.1" y="9.9" class="st1" width="10.1" height="9.8"/>
		<rect x="151" y="9.9" class="st1" width="10.1" height="9.8"/>
		<rect x="161.8" y="9.9" class="st1" width="10.1" height="9.8"/>
		<rect x="172.7" y="9.9" class="st1" width="10.1" height="9.8"/>
		<rect x="183.6" y="9.9" class="st1" width="10.1" height="9.8"/>
		<rect x="20.4" y="189.7" class="st1" width="10.1" height="9.8"/>
		<rect x="31.2" y="189.7" class="st1" width="10.1" height="9.8"/>
		<rect x="42.1" y="189.7" class="st1" width="10.1" height="9.8"/>
		<rect x="53" y="189.7" class="st1" width="10.1" height="9.8"/>
		<rect x="63.9" y="189.7" class="st1" width="10.1" height="9.8"/>
		<rect x="74.8" y="189.7" class="st1" width="10.1" height="9.8"/>
		<rect x="85.7" y="189.7" class="st1" width="10.1" height="9.8"/>
		<rect x="96.5" y="189.7" class="st1" width="10.1" height="9.8"/>
		<rect x="107.4" y="189.7" class="st1" width="10.1" height="9.8"/>
		<rect x="118.3" y="189.7" class="st1" width="10.1" height="9.8"/>
		<rect x="129.2" y="189.7" class="st1" width="10.1" height="9.8"/>
		<rect x="140.1" y="189.7" class="st1" width="10.1" height="9.8"/>
		<rect x="151" y="189.7" class="st1" width="10.1" height="9.8"/>
		<rect x="161.8" y="189.7" class="st1" width="10.1" height="9.8"/>
		<rect x="172.7" y="189.7" class="st1" width="10.1" height="9.8"/>
		<rect x="183.6" y="189.7" class="st1" width="10.1" height="9.8"/>
	</g>
</g>
</svg>
