<?xml version="1.0" encoding="utf-8"?>
<!-- Generator: Adobe Illustrator 23.0.1, SVG Export Plug-In . SVG Version: 6.00 Build 0)  -->
<svg version="1.1" id="Camada_3" xmlns="http://www.w3.org/2000/svg" xmlns:xlink="http://www.w3.org/1999/xlink" x="0px" y="0px"
	 viewBox="0 0 346.8 85.9" style="enable-background:new 0 0 346.8 85.9;" xml:space="preserve">
<style type="text/css">
	.st0{fill:#8E1E4C;}
	.st1{fill:#FFFFFF;}
	.st2{fill:none;}
</style>
<g>
	<g>
		<rect x="89.7" y="0.9" class="st0" width="256.7" height="49.9"/>
		<g>
			<path class="st1" d="M98.1,12.1v-4h4v4H98.1z M98.1,17.2v-4h4v4H98.1z M98.1,22.3v-4.1h4v4.1H98.1z M98.1,27.3v-4h4v4H98.1z
				 M98.1,32.4v-4h4v4H98.1z M98.1,37.4v-4h4v4H98.1z M98.1,42.5v-4h4v4H98.1z M103.2,12.1v-4h4v4H103.2z M103.2,27.3v-4h4v4H103.2z
				 M108.2,12.1v-4h4v4H108.2z M108.2,27.3v-4h4v4H108.2z M113.3,12.1v-4h4v4H113.3z M113.3,27.3v-4h4v4H113.3z M118.4,17.2v-4h4.1
				v4H118.4z M118.4,22.3v-4.1h4.1v4.1H118.4z"/>
			<path class="st1" d="M133.9,22.3v-4.1h4v4.1H133.9z M133.9,27.3v-4h4v4H133.9z M133.9,32.4v-4h4v4H133.9z M133.9,37.4v-4h4v4
				H133.9z M139,22.3v-4.1h4v4.1H139z M139,32.4v-4h4v4H139z M139,42.5v-4h4v4H139z M144.1,22.3v-4.1h4v4.1H144.1z M144.1,32.4v-4h4
				v4H144.1z M144.1,42.5v-4h4v4H144.1z M149.1,22.3v-4.1h4v4.1H149.1z M149.1,27.3v-4h4v4H149.1z M149.1,32.4v-4h4v4H149.1z
				 M149.1,42.5v-4h4v4H149.1z"/>
			<path class="st1" d="M164.7,22.3v-4.1h4v4.1H164.7z M164.7,27.3v-4h4v4H164.7z M164.7,32.4v-4h4v4H164.7z M164.7,37.4v-4h4v4
				H164.7z M164.7,42.5v-4h4v4H164.7z M169.8,27.3v-4h4v4H169.8z M174.8,22.3v-4.1h4v4.1H174.8z M179.9,22.3v-4.1h4v4.1H179.9z"/>
			<path class="st1" d="M195.4,27.3v-4h4v4H195.4z M195.4,32.4v-4h4v4H195.4z M195.4,42.5v-4h4v4H195.4z M200.5,22.3v-4.1h4v4.1
				H200.5z M200.5,32.4v-4h4v4H200.5z M200.5,42.5v-4h4v4H200.5z M205.6,22.3v-4.1h4v4.1H205.6z M205.6,32.4v-4h4v4H205.6z
				 M205.6,42.5v-4h4v4H205.6z M210.6,22.3v-4.1h4v4.1H210.6z M210.6,37.4v-4h4v4H210.6z"/>
			<path class="st1" d="M226.2,22.3v-4.1h4v4.1H226.2z M226.2,27.3v-4h4v4H226.2z M226.2,32.4v-4h4v4H226.2z M226.2,37.4v-4h4v4
				H226.2z M226.2,42.5v-4h4v4H226.2z M231.3,22.3v-4.1h4v4.1H231.3z M231.3,42.5v-4h4v4H231.3z M236.3,22.3v-4.1h4v4.1H236.3z
				 M236.3,42.5v-4h4v4H236.3z M241.4,22.3v-4.1h4v4.1H241.4z M241.4,27.3v-4h4v4H241.4z M241.4,32.4v-4h4v4H241.4z M241.4,37.4v-4
				h4v4H241.4z M241.4,42.5v-4h4v4H241.4z"/>
			<path class="st1" d="M256.9,22.3v-4.1h4v4.1H256.9z M256.9,27.3v-4h4v4H256.9z M256.9,32.4v-4h4v4H256.9z M256.9,37.4v-4h4v4
				H256.9z M256.9,42.5v-4h4v4H256.9z M262,22.3v-4.1h4v4.1H262z M267,22.3v-4.1h4v4.1H267z M272.1,27.3v-4h4v4H272.1z M272.1,32.4
				v-4h4v4H272.1z M272.1,37.4v-4h4v4H272.1z M272.1,42.5v-4h4v4H272.1z"/>
			<path class="st1" d="M287.7,22.3v-4.1h4v4.1H287.7z M287.7,32.4v-4h4v4H287.7z M287.7,37.4v-4h4v4H287.7z M287.7,42.5v-4h4v4
				H287.7z M292.7,22.3v-4.1h4v4.1H292.7z M292.7,32.4v-4h4v4H292.7z M292.7,42.5v-4h4v4H292.7z M297.8,22.3v-4.1h4v4.1H297.8z
				 M297.8,32.4v-4h4v4H297.8z M297.8,42.5v-4h4v4H297.8z M302.9,22.3v-4.1h4v4.1H302.9z M302.9,27.3v-4h4v4H302.9z M302.9,32.4v-4
				h4v4H302.9z M302.9,37.4v-4h4v4H302.9z M302.9,42.5v-4h4v4H302.9z"/>
			<path class="st1" d="M318.4,22.3v-4.1h4v4.1H318.4z M318.4,27.3v-4h4v4H318.4z M318.4,32.4v-4h4v4H318.4z M318.4,37.4v-4h4v4
				H318.4z M318.4,42.5v-4h4v4H318.4z M323.5,42.5v-4h4v4H323.5z M328.5,42.5v-4h4v4H328.5z M333.6,42.5v-4h4v4H333.6z"/>
		</g>
		<g>
			<g>
				<path class="st0" d="M89.7,59.6v-3.4h3.4v3.4H89.7z M89.7,63.9v-3.4h3.4v3.4H89.7z M89.7,68.1v-3.4h3.4v3.4H89.7z M89.7,72.4V69
					h3.4v3.4H89.7z M89.7,76.6v-3.4h3.4v3.4H89.7z M89.7,80.9v-3.4h3.4v3.4H89.7z M89.7,85.1v-3.4h3.4v3.4H89.7z M94,59.6v-3.4h3.4
					v3.4H94z M94,72.4V69h3.4v3.4H94z M98.2,59.6v-3.4h3.4v3.4H98.2z M98.2,72.4V69h3.4v3.4H98.2z M98.2,76.6v-3.4h3.4v3.4H98.2z
					 M102.5,59.6v-3.4h3.4v3.4H102.5z M102.5,72.4V69h3.4v3.4H102.5z M102.5,80.9v-3.4h3.4v3.4H102.5z M106.7,63.9v-3.4h3.4v3.4
					H106.7z M106.7,68.1v-3.4h3.4v3.4H106.7z M106.7,85.1v-3.4h3.4v3.4H106.7z"/>
				<path class="st0" d="M129.1,59.6v-3.4h3.4v3.4H129.1z M129.1,63.9v-3.4h3.4v3.4H129.1z M129.1,68.1v-3.4h3.4v3.4H129.1z
					 M129.1,72.4V69h3.4v3.4H129.1z M129.1,76.6v-3.4h3.4v3.4H129.1z M129.1,80.9v-3.4h3.4v3.4H129.1z M129.1,85.1v-3.4h3.4v3.4
					H129.1z M133.3,59.6v-3.4h3.4v3.4H133.3z M133.3,72.4V69h3.4v3.4H133.3z M133.3,85.1v-3.4h3.4v3.4H133.3z M137.6,59.6v-3.4h3.4
					v3.4H137.6z M137.6,72.4V69h3.4v3.4H137.6z M137.6,85.1v-3.4h3.4v3.4H137.6z M141.8,59.6v-3.4h3.4v3.4H141.8z M141.8,72.4V69
					h3.4v3.4H141.8z M141.8,85.1v-3.4h3.4v3.4H141.8z M146.1,59.6v-3.4h3.4v3.4H146.1z M146.1,85.1v-3.4h3.4v3.4H146.1z"/>
				<path class="st0" d="M168.4,59.6v-3.4h3.4v3.4H168.4z M168.4,63.9v-3.4h3.4v3.4H168.4z M168.4,68.1v-3.4h3.4v3.4H168.4z
					 M168.4,72.4V69h3.4v3.4H168.4z M168.4,76.6v-3.4h3.4v3.4H168.4z M168.4,80.9v-3.4h3.4v3.4H168.4z M168.4,85.1v-3.4h3.4v3.4
					H168.4z M172.7,59.6v-3.4h3.4v3.4H172.7z M172.7,72.4V69h3.4v3.4H172.7z M176.9,59.6v-3.4h3.4v3.4H176.9z M176.9,72.4V69h3.4
					v3.4H176.9z M181.2,59.6v-3.4h3.4v3.4H181.2z M181.2,72.4V69h3.4v3.4H181.2z M185.4,59.6v-3.4h3.4v3.4H185.4z"/>
				<path class="st0" d="M207.7,59.6v-3.4h3.4v3.4H207.7z M207.7,63.9v-3.4h3.4v3.4H207.7z M207.7,68.1v-3.4h3.4v3.4H207.7z
					 M207.7,72.4V69h3.4v3.4H207.7z M207.7,76.6v-3.4h3.4v3.4H207.7z M207.7,80.9v-3.4h3.4v3.4H207.7z M207.7,85.1v-3.4h3.4v3.4
					H207.7z M212,59.6v-3.4h3.4v3.4H212z M212,85.1v-3.4h3.4v3.4H212z M216.3,59.6v-3.4h3.4v3.4H216.3z M216.3,85.1v-3.4h3.4v3.4
					H216.3z M220.5,59.6v-3.4h3.4v3.4H220.5z M220.5,85.1v-3.4h3.4v3.4H220.5z M224.8,59.6v-3.4h3.4v3.4H224.8z M224.8,63.9v-3.4
					h3.4v3.4H224.8z M224.8,68.1v-3.4h3.4v3.4H224.8z M224.8,72.4V69h3.4v3.4H224.8z M224.8,76.6v-3.4h3.4v3.4H224.8z M224.8,80.9
					v-3.4h3.4v3.4H224.8z M224.8,85.1v-3.4h3.4v3.4H224.8z"/>
				<path class="st0" d="M247.1,59.6v-3.4h3.4v3.4H247.1z M247.1,63.9v-3.4h3.4v3.4H247.1z M247.1,68.1v-3.4h3.4v3.4H247.1z
					 M247.1,72.4V69h3.4v3.4H247.1z M247.1,76.6v-3.4h3.4v3.4H247.1z M247.1,80.9v-3.4h3.4v3.4H247.1z M247.1,85.1v-3.4h3.4v3.4
					H247.1z M251.4,59.6v-3.4h3.4v3.4H251.4z M251.4,72.4V69h3.4v3.4H251.4z M255.6,59.6v-3.4h3.4v3.4H255.6z M255.6,72.4V69h3.4
					v3.4H255.6z M255.6,76.6v-3.4h3.4v3.4H255.6z M259.9,59.6v-3.4h3.4v3.4H259.9z M259.9,72.4V69h3.4v3.4H259.9z M259.9,80.9v-3.4
					h3.4v3.4H259.9z M264.1,63.9v-3.4h3.4v3.4H264.1z M264.1,68.1v-3.4h3.4v3.4H264.1z M264.1,85.1v-3.4h3.4v3.4H264.1z"/>
				<path class="st0" d="M286.4,59.6v-3.4h3.4v3.4H286.4z M286.4,63.9v-3.4h3.4v3.4H286.4z M286.4,68.1v-3.4h3.4v3.4H286.4z
					 M286.4,72.4V69h3.4v3.4H286.4z M286.4,76.6v-3.4h3.4v3.4H286.4z M286.4,80.9v-3.4h3.4v3.4H286.4z M286.4,85.1v-3.4h3.4v3.4
					H286.4z M290.7,63.9v-3.4h3.4v3.4H290.7z M294.9,68.1v-3.4h3.4v3.4H294.9z M294.9,72.4V69h3.4v3.4H294.9z M299.2,63.9v-3.4h3.4
					v3.4H299.2z M303.5,59.6v-3.4h3.4v3.4H303.5z M303.5,63.9v-3.4h3.4v3.4H303.5z M303.5,68.1v-3.4h3.4v3.4H303.5z M303.5,72.4V69
					h3.4v3.4H303.5z M303.5,76.6v-3.4h3.4v3.4H303.5z M303.5,80.9v-3.4h3.4v3.4H303.5z M303.5,85.1v-3.4h3.4v3.4H303.5z"/>
				<path class="st0" d="M325.8,63.9v-3.4h3.4v3.4H325.8z M325.8,68.1v-3.4h3.4v3.4H325.8z M325.8,72.4V69h3.4v3.4H325.8z
					 M325.8,76.6v-3.4h3.4v3.4H325.8z M325.8,80.9v-3.4h3.4v3.4H325.8z M325.8,85.1v-3.4h3.4v3.4H325.8z M330,59.6v-3.4h3.4v3.4H330
					z M330,76.6v-3.4h3.4v3.4H330z M334.3,59.6v-3.4h3.4v3.4H334.3z M334.3,76.6v-3.4h3.4v3.4H334.3z M338.6,59.6v-3.4h3.4v3.4
					H338.6z M338.6,76.6v-3.4h3.4v3.4H338.6z M342.8,63.9v-3.4h3.4v3.4H342.8z M342.8,68.1v-3.4h3.4v3.4H342.8z M342.8,72.4V69h3.4
					v3.4H342.8z M342.8,76.6v-3.4h3.4v3.4H342.8z M342.8,80.9v-3.4h3.4v3.4H342.8z M342.8,85.1v-3.4h3.4v3.4H342.8z"/>
			</g>
		</g>
	</g>
	<g>
		<rect x="0.7" y="0.9" class="st2" width="81.8" height="84.2"/>
		<rect x="73" y="6" class="st2" width="4.4" height="4.3"/>
		<rect x="73" y="10.6" class="st2" width="4.4" height="4.3"/>
		<rect x="73" y="15.3" class="st2" width="4.4" height="4.3"/>
		<rect x="73" y="19.9" class="st2" width="4.4" height="4.3"/>
		<rect x="73" y="24.6" class="st2" width="4.4" height="4.3"/>
		<rect x="73" y="29.2" class="st2" width="4.4" height="4.3"/>
		<rect x="73" y="33.9" class="st2" width="4.4" height="4.3"/>
		<rect x="73" y="38.6" class="st2" width="4.4" height="4.3"/>
		<rect x="73" y="43.2" class="st2" width="4.4" height="4.3"/>
		<rect x="73" y="47.9" class="st2" width="4.4" height="4.3"/>
		<rect x="73" y="52.5" class="st2" width="4.4" height="4.3"/>
		<rect x="73" y="57.2" class="st2" width="4.4" height="4.3"/>
		<rect x="73" y="61.8" class="st2" width="4.4" height="4.3"/>
		<rect x="73" y="66.5" class="st2" width="4.4" height="4.3"/>
		<rect x="73" y="71.2" class="st2" width="4.4" height="4.3"/>
		<rect x="73" y="75.8" class="st2" width="4.4" height="4.3"/>
		<rect x="68.2" y="6" class="st2" width="4.4" height="4.3"/>
		<rect x="68.2" y="10.6" class="st2" width="4.4" height="4.3"/>
		<rect x="68.2" y="15.3" class="st2" width="4.4" height="4.3"/>
		<rect x="68.2" y="19.9" class="st2" width="4.4" height="4.3"/>
		<rect x="68.2" y="24.6" class="st2" width="4.4" height="4.3"/>
		<rect x="68.2" y="29.2" class="st2" width="4.4" height="4.3"/>
		<rect x="68.2" y="47.9" class="st2" width="4.4" height="4.3"/>
		<rect x="68.2" y="52.5" class="st2" width="4.4" height="4.3"/>
		<rect x="68.2" y="57.2" class="st2" width="4.4" height="4.3"/>
		<rect x="68.2" y="61.8" class="st2" width="4.4" height="4.3"/>
		<rect x="68.2" y="66.5" class="st2" width="4.4" height="4.3"/>
		<rect x="68.2" y="75.8" class="st2" width="4.4" height="4.3"/>
		<rect x="63.4" y="6" class="st2" width="4.4" height="4.3"/>
		<rect x="63.4" y="10.6" class="st2" width="4.4" height="4.3"/>
		<rect x="63.4" y="15.3" class="st2" width="4.4" height="4.3"/>
		<rect x="63.4" y="19.9" class="st2" width="4.4" height="4.3"/>
		<rect x="63.4" y="24.6" class="st2" width="4.4" height="4.3"/>
		<rect x="63.4" y="33.9" class="st2" width="4.4" height="4.3"/>
		<rect x="63.4" y="38.6" class="st2" width="4.4" height="4.3"/>
		<rect x="63.4" y="43.2" class="st2" width="4.4" height="4.3"/>
		<rect x="63.4" y="52.5" class="st2" width="4.4" height="4.3"/>
		<rect x="63.4" y="57.2" class="st2" width="4.4" height="4.3"/>
		<rect x="63.4" y="61.8" class="st2" width="4.4" height="4.3"/>
		<rect x="63.4" y="71.2" class="st2" width="4.4" height="4.3"/>
		<rect x="63.4" y="75.8" class="st2" width="4.4" height="4.3"/>
		<rect x="58.6" y="6" class="st2" width="4.4" height="4.3"/>
		<rect x="58.6" y="10.6" class="st2" width="4.4" height="4.3"/>
		<rect x="58.6" y="15.3" class="st2" width="4.4" height="4.3"/>
		<rect x="58.6" y="19.9" class="st2" width="4.4" height="4.3"/>
		<rect x="58.6" y="24.6" class="st2" width="4.4" height="4.3"/>
		<rect x="58.6" y="33.9" class="st2" width="4.4" height="4.3"/>
		<rect x="58.6" y="38.6" class="st2" width="4.4" height="4.3"/>
		<rect x="58.6" y="43.2" class="st2" width="4.4" height="4.3"/>
		<rect x="58.6" y="52.5" class="st2" width="4.4" height="4.3"/>
		<rect x="58.6" y="57.2" class="st2" width="4.4" height="4.3"/>
		<rect x="58.6" y="66.5" class="st2" width="4.4" height="4.3"/>
		<rect x="58.6" y="71.2" class="st2" width="4.4" height="4.3"/>
		<rect x="58.6" y="75.8" class="st2" width="4.4" height="4.3"/>
		<rect x="53.8" y="6" class="st2" width="4.4" height="4.3"/>
		<rect x="53.8" y="10.6" class="st2" width="4.4" height="4.3"/>
		<rect x="53.8" y="15.3" class="st2" width="4.4" height="4.3"/>
		<rect x="53.8" y="19.9" class="st2" width="4.4" height="4.3"/>
		<rect x="53.8" y="24.6" class="st2" width="4.4" height="4.3"/>
		<rect x="53.8" y="33.9" class="st2" width="4.4" height="4.3"/>
		<rect x="53.8" y="38.6" class="st2" width="4.4" height="4.3"/>
		<rect x="53.8" y="43.2" class="st2" width="4.4" height="4.3"/>
		<rect x="53.8" y="52.5" class="st2" width="4.4" height="4.3"/>
		<rect x="53.8" y="61.8" class="st2" width="4.4" height="4.3"/>
		<rect x="53.8" y="66.5" class="st2" width="4.4" height="4.3"/>
		<rect x="53.8" y="71.2" class="st2" width="4.4" height="4.3"/>
		<rect x="53.8" y="75.8" class="st2" width="4.4" height="4.3"/>
		<rect x="49" y="6" class="st2" width="4.4" height="4.3"/>
		<rect x="49" y="10.6" class="st2" width="4.4" height="4.3"/>
		<rect x="49" y="15.3" class="st2" width="4.4" height="4.3"/>
		<rect x="49" y="19.9" class="st2" width="4.4" height="4.3"/>
		<rect x="49" y="24.6" class="st2" width="4.4" height="4.3"/>
		<rect x="49" y="33.9" class="st2" width="4.4" height="4.3"/>
		<rect x="49" y="38.6" class="st2" width="4.4" height="4.3"/>
		<rect x="49" y="43.2" class="st2" width="4.4" height="4.3"/>
		<rect x="49" y="57.2" class="st2" width="4.4" height="4.3"/>
		<rect x="49" y="61.8" class="st2" width="4.4" height="4.3"/>
		<rect x="49" y="66.5" class="st2" width="4.4" height="4.3"/>
		<rect x="49" y="71.2" class="st2" width="4.4" height="4.3"/>
		<rect x="49" y="75.8" class="st2" width="4.4" height="4.3"/>
		<rect x="44.2" y="6" class="st2" width="4.4" height="4.3"/>
		<rect x="44.2" y="10.6" class="st2" width="4.4" height="4.3"/>
		<rect x="44.2" y="15.3" class="st2" width="4.4" height="4.3"/>
		<rect x="44.2" y="19.9" class="st2" width="4.4" height="4.3"/>
		<rect x="44.2" y="24.6" class="st2" width="4.4" height="4.3"/>
		<rect x="44.2" y="75.8" class="st2" width="4.4" height="4.3"/>
		<rect x="39.4" y="6" class="st2" width="4.4" height="4.3"/>
		<rect x="39.4" y="10.6" class="st2" width="4.4" height="4.3"/>
		<rect x="39.4" y="15.3" class="st2" width="4.4" height="4.3"/>
		<rect x="39.4" y="19.9" class="st2" width="4.4" height="4.3"/>
		<rect x="39.4" y="24.6" class="st2" width="4.4" height="4.3"/>
		<rect x="39.4" y="29.2" class="st2" width="4.4" height="4.3"/>
		<rect x="39.4" y="33.9" class="st2" width="4.4" height="4.3"/>
		<rect x="39.4" y="38.6" class="st2" width="4.4" height="4.3"/>
		<rect x="39.4" y="43.2" class="st2" width="4.4" height="4.3"/>
		<rect x="39.4" y="47.9" class="st2" width="4.4" height="4.3"/>
		<rect x="39.4" y="52.5" class="st2" width="4.4" height="4.3"/>
		<rect x="39.4" y="57.2" class="st2" width="4.4" height="4.3"/>
		<rect x="39.4" y="61.8" class="st2" width="4.4" height="4.3"/>
		<rect x="39.4" y="66.5" class="st2" width="4.4" height="4.3"/>
		<rect x="39.4" y="71.2" class="st2" width="4.4" height="4.3"/>
		<rect x="39.4" y="75.8" class="st2" width="4.4" height="4.3"/>
		<rect x="34.6" y="6" class="st2" width="4.4" height="4.3"/>
		<rect x="34.6" y="10.6" class="st2" width="4.4" height="4.3"/>
		<rect x="34.6" y="29.2" class="st2" width="4.4" height="4.3"/>
		<rect x="34.6" y="33.9" class="st2" width="4.4" height="4.3"/>
		<rect x="34.6" y="38.6" class="st2" width="4.4" height="4.3"/>
		<rect x="34.6" y="43.2" class="st2" width="4.4" height="4.3"/>
		<rect x="34.6" y="47.9" class="st2" width="4.4" height="4.3"/>
		<rect x="34.6" y="52.5" class="st2" width="4.4" height="4.3"/>
		<rect x="34.6" y="57.2" class="st2" width="4.4" height="4.3"/>
		<rect x="34.6" y="61.8" class="st2" width="4.4" height="4.3"/>
		<rect x="34.6" y="66.5" class="st2" width="4.4" height="4.3"/>
		<rect x="34.6" y="71.2" class="st2" width="4.4" height="4.3"/>
		<rect x="34.6" y="75.8" class="st2" width="4.4" height="4.3"/>
		<rect x="29.8" y="6" class="st2" width="4.4" height="4.3"/>
		<rect x="29.8" y="15.3" class="st2" width="4.4" height="4.3"/>
		<rect x="29.8" y="19.9" class="st2" width="4.4" height="4.3"/>
		<rect x="29.8" y="24.6" class="st2" width="4.4" height="4.3"/>
		<rect x="29.8" y="33.9" class="st2" width="4.4" height="4.3"/>
		<rect x="29.8" y="38.6" class="st2" width="4.4" height="4.3"/>
		<rect x="29.8" y="43.2" class="st2" width="4.4" height="4.3"/>
		<rect x="29.8" y="47.9" class="st2" width="4.4" height="4.3"/>
		<rect x="29.8" y="52.5" class="st2" width="4.4" height="4.3"/>
		<rect x="29.8" y="57.2" class="st2" width="4.4" height="4.3"/>
		<rect x="29.8" y="61.8" class="st2" width="4.4" height="4.3"/>
		<rect x="29.8" y="66.5" class="st2" width="4.4" height="4.3"/>
		<rect x="29.8" y="71.2" class="st2" width="4.4" height="4.3"/>
		<rect x="29.8" y="75.8" class="st2" width="4.4" height="4.3"/>
		<rect x="25" y="6" class="st2" width="4.4" height="4.3"/>
		<rect x="25" y="15.3" class="st2" width="4.4" height="4.3"/>
		<rect x="25" y="19.9" class="st2" width="4.4" height="4.3"/>
		<rect x="25" y="24.6" class="st2" width="4.4" height="4.3"/>
		<rect x="25" y="33.9" class="st2" width="4.4" height="4.3"/>
		<rect x="25" y="38.6" class="st2" width="4.4" height="4.3"/>
		<rect x="25" y="43.2" class="st2" width="4.4" height="4.3"/>
		<rect x="25" y="47.9" class="st2" width="4.4" height="4.3"/>
		<rect x="25" y="52.5" class="st2" width="4.4" height="4.3"/>
		<rect x="25" y="57.2" class="st2" width="4.4" height="4.3"/>
		<rect x="25" y="61.8" class="st2" width="4.4" height="4.3"/>
		<rect x="25" y="66.5" class="st2" width="4.4" height="4.3"/>
		<rect x="25" y="71.2" class="st2" width="4.4" height="4.3"/>
		<rect x="25" y="75.8" class="st2" width="4.4" height="4.3"/>
		<rect x="20.3" y="6" class="st2" width="4.4" height="4.3"/>
		<rect x="20.3" y="15.3" class="st2" width="4.4" height="4.3"/>
		<rect x="20.3" y="19.9" class="st2" width="4.4" height="4.3"/>
		<rect x="20.3" y="24.6" class="st2" width="4.4" height="4.3"/>
		<rect x="20.3" y="33.9" class="st2" width="4.4" height="4.3"/>
		<rect x="20.3" y="38.6" class="st2" width="4.4" height="4.3"/>
		<rect x="20.3" y="43.2" class="st2" width="4.4" height="4.3"/>
		<rect x="20.3" y="47.9" class="st2" width="4.4" height="4.3"/>
		<rect x="20.3" y="52.5" class="st2" width="4.4" height="4.3"/>
		<rect x="20.3" y="57.2" class="st2" width="4.4" height="4.3"/>
		<rect x="20.3" y="61.8" class="st2" width="4.4" height="4.3"/>
		<rect x="20.3" y="66.5" class="st2" width="4.4" height="4.3"/>
		<rect x="20.3" y="71.2" class="st2" width="4.4" height="4.3"/>
		<rect x="20.3" y="75.8" class="st2" width="4.4" height="4.3"/>
		<rect x="15.5" y="6" class="st2" width="4.4" height="4.3"/>
		<rect x="15.5" y="15.3" class="st2" width="4.4" height="4.3"/>
		<rect x="15.5" y="19.9" class="st2" width="4.4" height="4.3"/>
		<rect x="15.5" y="24.6" class="st2" width="4.4" height="4.3"/>
		<rect x="15.5" y="33.9" class="st2" width="4.4" height="4.3"/>
		<rect x="15.5" y="38.6" class="st2" width="4.4" height="4.3"/>
		<rect x="15.5" y="43.2" class="st2" width="4.4" height="4.3"/>
		<rect x="15.5" y="47.9" class="st2" width="4.4" height="4.3"/>
		<rect x="15.5" y="52.5" class="st2" width="4.4" height="4.3"/>
		<rect x="15.5" y="57.2" class="st2" width="4.4" height="4.3"/>
		<rect x="15.5" y="61.8" class="st2" width="4.4" height="4.3"/>
		<rect x="15.5" y="66.5" class="st2" width="4.4" height="4.3"/>
		<rect x="15.5" y="71.2" class="st2" width="4.4" height="4.3"/>
		<rect x="15.5" y="75.8" class="st2" width="4.4" height="4.3"/>
		<rect x="10.7" y="6" class="st2" width="4.4" height="4.3"/>
		<rect x="10.7" y="57.2" class="st2" width="4.4" height="4.3"/>
		<rect x="10.7" y="61.8" class="st2" width="4.4" height="4.3"/>
		<rect x="10.7" y="66.5" class="st2" width="4.4" height="4.3"/>
		<rect x="10.7" y="71.2" class="st2" width="4.4" height="4.3"/>
		<rect x="10.7" y="75.8" class="st2" width="4.4" height="4.3"/>
		<rect x="5.9" y="6" class="st2" width="4.4" height="4.3"/>
		<rect x="5.9" y="10.6" class="st2" width="4.4" height="4.3"/>
		<rect x="5.9" y="15.3" class="st2" width="4.4" height="4.3"/>
		<rect x="5.9" y="19.9" class="st2" width="4.4" height="4.3"/>
		<rect x="5.9" y="24.6" class="st2" width="4.4" height="4.3"/>
		<rect x="5.9" y="29.2" class="st2" width="4.4" height="4.3"/>
		<rect x="5.9" y="33.9" class="st2" width="4.4" height="4.3"/>
		<rect x="5.9" y="38.6" class="st2" width="4.4" height="4.3"/>
		<rect x="5.9" y="43.2" class="st2" width="4.4" height="4.3"/>
		<rect x="5.9" y="47.9" class="st2" width="4.4" height="4.3"/>
		<rect x="5.9" y="52.5" class="st2" width="4.4" height="4.3"/>
		<rect x="5.9" y="57.2" class="st2" width="4.4" height="4.3"/>
		<rect x="5.9" y="61.8" class="st2" width="4.4" height="4.3"/>
		<rect x="5.9" y="66.5" class="st2" width="4.4" height="4.3"/>
		<rect x="5.9" y="71.2" class="st2" width="4.4" height="4.3"/>
		<rect x="5.9" y="75.8" class="st2" width="4.4" height="4.3"/>
		<g>
			<rect x="68.2" y="33.9" class="st0" width="4.4" height="4.3"/>
			<rect x="68.2" y="38.6" class="st0" width="4.4" height="4.3"/>
			<rect x="68.2" y="43.2" class="st0" width="4.4" height="4.3"/>
			<rect x="68.2" y="71.2" class="st0" width="4.4" height="4.3"/>
			<rect x="63.4" y="29.2" class="st0" width="4.4" height="4.3"/>
			<rect x="63.4" y="47.9" class="st0" width="4.4" height="4.3"/>
			<rect x="63.4" y="66.5" class="st0" width="4.4" height="4.3"/>
			<rect x="58.6" y="29.2" class="st0" width="4.4" height="4.3"/>
			<rect x="58.6" y="47.9" class="st0" width="4.4" height="4.3"/>
			<rect x="58.6" y="61.8" class="st0" width="4.4" height="4.3"/>
			<rect x="53.8" y="29.2" class="st0" width="4.4" height="4.3"/>
			<rect x="53.8" y="47.9" class="st0" width="4.4" height="4.3"/>
			<rect x="53.8" y="57.2" class="st0" width="4.4" height="4.3"/>
			<rect x="49" y="29.2" class="st0" width="4.4" height="4.3"/>
			<rect x="49" y="47.9" class="st0" width="4.4" height="4.3"/>
			<rect x="49" y="52.5" class="st0" width="4.4" height="4.3"/>
			<rect x="44.2" y="29.2" class="st0" width="4.4" height="4.3"/>
			<rect x="44.2" y="33.9" class="st0" width="4.4" height="4.3"/>
			<rect x="44.2" y="38.6" class="st0" width="4.4" height="4.3"/>
			<rect x="44.2" y="43.2" class="st0" width="4.4" height="4.3"/>
			<rect x="44.2" y="47.9" class="st0" width="4.4" height="4.3"/>
			<rect x="44.2" y="52.5" class="st0" width="4.4" height="4.3"/>
			<rect x="44.2" y="57.2" class="st0" width="4.4" height="4.3"/>
			<rect x="44.2" y="61.8" class="st0" width="4.4" height="4.3"/>
			<rect x="44.2" y="66.5" class="st0" width="4.4" height="4.3"/>
			<rect x="44.2" y="71.2" class="st0" width="4.4" height="4.3"/>
			<rect x="34.6" y="15.3" class="st0" width="4.4" height="4.3"/>
			<rect x="34.6" y="19.9" class="st0" width="4.4" height="4.3"/>
			<rect x="34.6" y="24.6" class="st0" width="4.4" height="4.3"/>
			<rect x="29.8" y="10.6" class="st0" width="4.4" height="4.3"/>
			<rect x="29.8" y="29.2" class="st0" width="4.4" height="4.3"/>
			<rect x="25" y="10.6" class="st0" width="4.4" height="4.3"/>
			<rect x="25" y="29.2" class="st0" width="4.4" height="4.3"/>
			<rect x="20.3" y="10.6" class="st0" width="4.4" height="4.3"/>
			<rect x="20.3" y="29.2" class="st0" width="4.4" height="4.3"/>
			<rect x="15.5" y="10.6" class="st0" width="4.4" height="4.3"/>
			<rect x="15.5" y="29.2" class="st0" width="4.4" height="4.3"/>
			<rect x="10.7" y="10.6" class="st0" width="4.4" height="4.3"/>
			<rect x="10.7" y="15.3" class="st0" width="4.4" height="4.3"/>
			<rect x="10.7" y="19.9" class="st0" width="4.4" height="4.3"/>
			<rect x="10.7" y="24.6" class="st0" width="4.4" height="4.3"/>
			<rect x="10.7" y="29.2" class="st0" width="4.4" height="4.3"/>
			<rect x="10.7" y="33.9" class="st0" width="4.4" height="4.3"/>
			<rect x="10.7" y="38.6" class="st0" width="4.4" height="4.3"/>
			<rect x="10.7" y="43.2" class="st0" width="4.4" height="4.3"/>
			<rect x="10.7" y="47.9" class="st0" width="4.4" height="4.3"/>
			<rect x="10.7" y="52.5" class="st0" width="4.4" height="4.3"/>
			<rect x="1.1" y="1.3" class="st0" width="4.4" height="4.3"/>
			<rect x="1.1" y="6" class="st0" width="4.4" height="4.3"/>
			<rect x="1.1" y="10.6" class="st0" width="4.4" height="4.3"/>
			<rect x="1.1" y="15.3" class="st0" width="4.4" height="4.3"/>
			<rect x="1.1" y="19.9" class="st0" width="4.4" height="4.3"/>
			<rect x="1.1" y="24.6" class="st0" width="4.4" height="4.3"/>
			<rect x="1.1" y="29.2" class="st0" width="4.4" height="4.3"/>
			<rect x="1.1" y="33.9" class="st0" width="4.4" height="4.3"/>
			<rect x="1.1" y="38.6" class="st0" width="4.4" height="4.3"/>
			<rect x="1.1" y="43.2" class="st0" width="4.4" height="4.3"/>
			<rect x="1.1" y="47.9" class="st0" width="4.4" height="4.3"/>
			<rect x="1.1" y="52.5" class="st0" width="4.4" height="4.3"/>
			<rect x="1.1" y="57.2" class="st0" width="4.4" height="4.3"/>
			<rect x="1.1" y="61.8" class="st0" width="4.4" height="4.3"/>
			<rect x="1.1" y="66.5" class="st0" width="4.4" height="4.3"/>
			<rect x="1.1" y="71.2" class="st0" width="4.4" height="4.3"/>
			<rect x="1.1" y="75.8" class="st0" width="4.4" height="4.3"/>
			<rect x="77.8" y="6" class="st0" width="4.4" height="4.3"/>
			<rect x="77.8" y="10.6" class="st0" width="4.4" height="4.3"/>
			<rect x="77.8" y="15.3" class="st0" width="4.4" height="4.3"/>
			<rect x="77.8" y="19.9" class="st0" width="4.4" height="4.3"/>
			<rect x="77.8" y="24.6" class="st0" width="4.4" height="4.3"/>
			<rect x="77.8" y="29.2" class="st0" width="4.4" height="4.3"/>
			<rect x="77.8" y="33.9" class="st0" width="4.4" height="4.3"/>
			<rect x="77.8" y="38.6" class="st0" width="4.4" height="4.3"/>
			<rect x="77.8" y="43.2" class="st0" width="4.4" height="4.3"/>
			<rect x="77.8" y="47.9" class="st0" width="4.4" height="4.3"/>
			<rect x="77.8" y="52.5" class="st0" width="4.4" height="4.3"/>
			<rect x="77.8" y="57.2" class="st0" width="4.4" height="4.3"/>
			<rect x="77.8" y="61.8" class="st0" width="4.4" height="4.3"/>
			<rect x="77.8" y="66.5" class="st0" width="4.4" height="4.3"/>
			<rect x="77.8" y="71.2" class="st0" width="4.4" height="4.3"/>
			<rect x="77.8" y="75.8" class="st0" width="4.4" height="4.3"/>
			<rect x="1.1" y="80.5" class="st0" width="4.4" height="4.3"/>
			<rect x="5.9" y="1.3" class="st0" width="4.4" height="4.3"/>
			<rect x="10.7" y="1.3" class="st0" width="4.4" height="4.3"/>
			<rect x="15.5" y="1.3" class="st0" width="4.4" height="4.3"/>
			<rect x="20.3" y="1.3" class="st0" width="4.4" height="4.3"/>
			<rect x="25" y="1.3" class="st0" width="4.4" height="4.3"/>
			<rect x="29.8" y="1.3" class="st0" width="4.4" height="4.3"/>
			<rect x="34.6" y="1.3" class="st0" width="4.4" height="4.3"/>
			<rect x="39.4" y="1.3" class="st0" width="4.4" height="4.3"/>
			<rect x="44.2" y="1.3" class="st0" width="4.4" height="4.3"/>
			<rect x="49" y="1.3" class="st0" width="4.4" height="4.3"/>
			<rect x="53.8" y="1.3" class="st0" width="4.4" height="4.3"/>
			<rect x="58.6" y="1.3" class="st0" width="4.4" height="4.3"/>
			<rect x="63.4" y="1.3" class="st0" width="4.4" height="4.3"/>
			<rect x="68.2" y="1.3" class="st0" width="4.4" height="4.3"/>
			<rect x="73" y="1.3" class="st0" width="4.4" height="4.3"/>
			<rect x="77.8" y="1.3" class="st0" width="4.4" height="4.3"/>
			<rect x="5.9" y="80.5" class="st0" width="4.4" height="4.3"/>
			<rect x="10.7" y="80.5" class="st0" width="4.4" height="4.3"/>
			<rect x="15.5" y="80.5" class="st0" width="4.4" height="4.3"/>
			<rect x="20.3" y="80.5" class="st0" width="4.4" height="4.3"/>
			<rect x="25" y="80.5" class="st0" width="4.4" height="4.3"/>
			<rect x="29.8" y="80.5" class="st0" width="4.4" height="4.3"/>
			<rect x="34.6" y="80.5" class="st0" width="4.4" height="4.3"/>
			<rect x="39.4" y="80.5" class="st0" width="4.4" height="4.3"/>
			<rect x="44.2" y="80.5" class="st0" width="4.4" height="4.3"/>
			<rect x="49" y="80.5" class="st0" width="4.4" height="4.3"/>
			<rect x="53.8" y="80.5" class="st0" width="4.4" height="4.3"/>
			<rect x="58.6" y="80.5" class="st0" width="4.4" height="4.3"/>
			<rect x="63.4" y="80.5" class="st0" width="4.4" height="4.3"/>
			<rect x="68.2" y="80.5" class="st0" width="4.4" height="4.3"/>
			<rect x="73" y="80.5" class="st0" width="4.4" height="4.3"/>
			<rect x="77.8" y="80.5" class="st0" width="4.4" height="4.3"/>
		</g>
		<g>
			<g>
				<path class="st0" d="M11,74.4C11,74.4,11,74.5,11,74.4C11,74.5,11,74.5,11,74.4c0,0.1,0,0.1-0.1,0.2c0,0,0,0,0,0.1c0,0,0,0,0,0
					c0,0,0,0,0,0c0,0,0,0,0,0c0,0,0,0,0,0c0,0,0,0,0,0c0,0,0,0,0,0c0,0,0,0.1,0,0.1c0,0,0,0.1,0,0.1c0,0,0,0,0,0c0,0,0,0,0,0.1
					c0,0,0,0,0,0.1l0,0c0,0.1,0,0.1,0,0.2s0,0.1,0,0.1c0,0,0,0.1,0,0.1c0,0,0,0.1,0,0.1c0,0,0,0,0,0s0,0,0,0h0v0.1h0l0,0l0,0.1h0v0
					c0,0,0,0,0,0c0,0,0,0.1,0,0.1c0,0.1,0,0.1,0,0.1c0,0,0,0,0,0c0,0,0,0,0-0.1v0.1c0,0,0,0,0,0c0,0,0,0,0,0c0,0,0,0,0,0
					c0,0,0,0,0,0c0,0,0,0,0,0.1c0,0,0,0,0,0c0,0,0,0,0,0c0,0,0,0,0,0c0,0,0,0,0,0c0,0,0,0,0,0c0,0,0,0-0.1,0c0,0,0,0,0,0
					c0,0,0,0,0,0c0,0,0,0,0,0c0,0,0-0.1,0-0.1c0,0,0,0,0-0.1c0,0,0-0.1,0-0.1c0,0,0,0,0-0.1c0-0.1,0-0.2,0-0.3c0-0.1,0-0.1,0-0.1
					c0,0,0-0.1,0-0.1c0,0,0-0.1,0-0.3c0,0,0,0,0-0.1c0,0,0-0.1,0-0.1c0,0,0,0,0,0c0,0,0,0,0,0c0,0,0,0,0,0c0,0,0,0,0,0
					c0-0.1,0-0.2,0-0.3c0-0.1,0-0.2,0.1-0.4c0,0,0,0,0,0c0,0,0,0,0,0c0,0,0,0,0,0c0,0,0,0,0,0c0-0.1,0-0.2,0-0.4
					c0-0.1,0.1-0.3,0.1-0.4l0,0c0,0,0,0,0,0c0,0,0,0,0,0c0,0,0,0,0,0c0,0,0,0,0,0c0,0,0,0,0,0v0c0,0-0.1,0-0.2,0c-0.1,0-0.1,0-0.2,0
					c0,0,0,0,0.1,0c0,0,0,0,0,0c0,0,0,0,0,0c0,0,0,0,0,0c0,0,0,0,0,0c0,0,0,0,0,0c0,0,0,0,0,0c0,0,0,0-0.1,0c0,0,0,0,0,0
					c0,0,0,0,0,0c0,0-0.1,0-0.1,0c0,0-0.1,0-0.1,0c0,0,0,0,0,0c0,0,0,0,0,0c0,0,0,0,0,0c0,0,0,0-0.1,0l0,0c-0.1,0-0.2,0.1-0.3,0.1
					c-0.1,0-0.2,0-0.3,0c-0.2,0.3-0.3,0.6-0.5,1c-0.2,0.3-0.3,0.6-0.5,0.9c0,0-0.1,0-0.1,0c0,0-0.1,0-0.1,0c0,0-0.1,0-0.1-0.1
					c0,0-0.1,0-0.1,0c0,0,0,0,0-0.1C7.9,75,8,74.7,8.1,74.5c0.1-0.3,0.3-0.5,0.4-0.8c0,0,0,0,0,0c0,0,0,0,0,0l0,0
					c-0.1,0-0.2,0-0.3,0.1c-0.1,0-0.2,0-0.3,0.1c-0.1,0-0.1,0-0.2,0c-0.1,0-0.1,0-0.2,0c0,0-0.1,0-0.1,0s0,0-0.1,0c0,0,0,0-0.1,0
					c0,0,0,0-0.1,0c0,0,0,0,0,0c0,0,0,0,0,0c0-0.1,0-0.1,0-0.1c0,0,0-0.1,0-0.1c0,0,0,0,0.1,0c0.1,0,0.1-0.1,0.2-0.1s0.1,0,0.2,0
					c0.1,0,0.1,0,0.2,0c0.1,0,0.1,0,0.2-0.1c0.1,0,0.2-0.1,0.3-0.1c0.1,0,0.2,0,0.4-0.1c0,0,0,0,0,0c0,0,0,0,0,0c0,0,0,0,0.1,0
					c0,0,0,0,0-0.1c0.3-0.5,0.6-0.9,0.9-1.4c0.3-0.4,0.6-0.9,1-1.3c0.1,0,0.1-0.1,0.1-0.1c0-0.1,0.1-0.1,0.2-0.1c0,0,0,0,0-0.1
					c0,0,0.1,0,0.1-0.1c0,0,0.1-0.1,0.1-0.1c0,0,0.1-0.1,0.1-0.1c0,0,0.1,0,0.1,0c0.1,0,0.1,0,0.1,0.1c0,0.1,0.1,0.1,0.1,0.2
					c0,0,0.1,0.1,0.1,0.1c0,0,0,0.1,0,0.2c0,0,0,0.1,0,0.1s0,0.1,0,0.1c0,0,0,0.1,0,0.1c0,0,0,0.1,0,0.1c0,0,0,0,0,0c0,0,0,0,0,0
					c0,0,0,0.1,0,0.1c0,0,0,0.1,0,0.1c0,0,0,0.1,0,0.1c0,0,0,0.1,0,0.1c0,0,0,0.1,0,0.1c0,0,0,0.1,0,0.1c0,0.2-0.1,0.4-0.1,0.5
					c0,0.2-0.1,0.3-0.1,0.5c0,0,0,0,0,0c0,0,0,0,0,0c0,0,0,0,0,0c0,0,0,0,0,0.1c0,0,0,0,0,0c0,0,0,0,0,0c0,0,0,0,0,0c0,0,0,0,0,0
					c0,0,0,0,0,0c0,0,0,0.1,0,0.1c0,0,0,0.1,0,0.1c0,0,0,0,0,0c0,0,0,0,0,0c0.1,0,0.2,0,0.3,0c0.1,0,0.2,0,0.3,0c0,0,0,0-0.1,0
					c0,0,0,0-0.1,0l0.1,0c0,0,0,0,0,0c0,0,0,0-0.1,0c0,0,0,0,0.1,0c0,0-0.1,0-0.1,0c-0.1,0-0.1,0-0.1,0c0,0,0,0,0,0c0,0,0,0,0,0
					c0,0-0.1,0-0.1,0c0,0-0.1,0-0.1,0c0,0,0.1,0,0.1,0c0,0,0.1,0,0.1,0c0,0-0.1,0-0.1,0c0,0-0.1,0-0.1,0c0,0,0,0,0,0c0,0,0,0-0.1,0
					c0,0,0,0,0,0c0,0,0,0,0,0c0.1,0,0.2,0,0.2,0c0.1,0,0.2,0,0.2,0c0,0,0,0-0.1,0c0,0,0,0-0.1,0c0,0,0,0,0,0c0,0,0,0,0,0
					c0,0,0,0,0,0c0,0,0,0,0,0c0,0,0,0,0,0c0,0,0,0,0,0c-0.1,0-0.1,0-0.2,0c-0.1,0-0.1,0-0.2,0c0,0,0,0,0,0l-0.1,0c0,0,0,0,0,0
					c0,0,0,0,0,0c0,0,0,0,0,0c0,0,0,0,0,0c0,0,0,0,0,0c0,0,0,0,0,0c0,0,0,0,0,0c0,0,0,0,0,0l0,0v0v0c0,0,0,0,0,0c0,0,0,0,0,0v0h0v0
					c0,0,0,0,0,0l0,0c0,0,0,0,0,0c0,0,0,0,0,0c0,0,0,0,0,0c0,0,0,0,0,0c0,0,0,0,0,0c0,0,0,0,0-0.1c0,0,0,0,0,0c0,0,0,0.1,0,0.1
					c0,0,0,0.1,0,0.1c0,0,0,0.1,0,0.1c0,0,0,0.1,0,0.2c0,0.1-0.1,0.2-0.1,0.5C11,74.3,11,74.3,11,74.4L11,74.4z M10.4,73.1
					C10.4,73.1,10.4,73.1,10.4,73.1C10.4,73.1,10.4,73,10.4,73.1L10.4,73.1c0.1,0,0.1,0,0.1,0c0,0,0,0,0.1,0c0,0,0,0,0,0
					c0,0,0.1,0,0.1,0c0,0,0.1,0,0.1,0c0,0,0,0,0,0c0,0,0,0,0,0c0,0,0,0,0.1,0c0,0,0,0,0.1,0c0-0.1,0-0.3,0.1-0.4
					c0-0.1,0-0.3,0.1-0.4l0.1-0.3c0,0,0,0,0,0c0,0,0,0,0,0l0,0c0,0,0,0,0-0.1c0,0,0,0,0-0.1c0,0,0-0.1,0-0.1c0-0.1,0-0.1,0-0.1
					c0,0,0-0.1,0-0.1c0,0,0,0,0-0.1l0-0.2c0-0.1,0-0.1,0.1-0.2c0,0,0-0.1,0-0.1c0,0,0,0,0-0.1c0-0.1,0-0.1,0-0.2c0,0,0-0.1,0-0.2
					c-0.1,0.1-0.1,0.1-0.2,0.1c0,0-0.1,0.1-0.2,0.2c-0.1,0.1-0.2,0.2-0.3,0.3c-0.1,0.1-0.2,0.2-0.3,0.4c-0.1,0.1-0.1,0.1-0.1,0.2
					c0,0.1-0.1,0.1-0.2,0.2c0,0,0,0,0,0c0,0,0,0,0,0c-0.1,0.2-0.3,0.4-0.4,0.6c-0.1,0.2-0.3,0.4-0.4,0.6c0,0,0,0,0,0.1c0,0,0,0,0,0
					c0,0,0.1,0,0.1,0l0,0c0.1,0,0.2,0,0.2,0c0.1,0,0.1,0,0.2,0c0,0,0,0,0,0c0,0,0,0,0,0c0,0,0,0,0,0h0l0,0c0.1,0,0.2,0,0.2,0
					C10.2,73.1,10.3,73.1,10.4,73.1C10.4,73.1,10.4,73.1,10.4,73.1C10.4,73.1,10.4,73.1,10.4,73.1L10.4,73.1z M9.8,73.1
					C9.8,73.1,9.8,73.1,9.8,73.1C9.8,73.1,9.8,73.1,9.8,73.1L9.8,73.1C9.7,73.1,9.7,73.1,9.8,73.1L9.8,73.1L9.8,73.1z M9.7,73.1
					C9.7,73.1,9.7,73.1,9.7,73.1L9.7,73.1L9.7,73.1C9.8,73.1,9.8,73.1,9.7,73.1C9.8,73.1,9.8,73.1,9.7,73.1L9.7,73.1z M9.9,73.5
					C9.9,73.5,9.9,73.5,9.9,73.5C9.9,73.5,9.9,73.5,9.9,73.5C9.9,73.5,9.9,73.5,9.9,73.5z M9.9,73.1C9.9,73.1,9.9,73.1,9.9,73.1
					C9.9,73.1,9.9,73.1,9.9,73.1C9.9,73.1,9.9,73.1,9.9,73.1L9.9,73.1z M10.2,73.4C10.2,73.4,10.2,73.4,10.2,73.4
					C10.2,73.4,10.2,73.4,10.2,73.4C10.2,73.4,10.2,73.4,10.2,73.4L10.2,73.4L10.2,73.4C10.2,73.4,10.2,73.4,10.2,73.4L10.2,73.4
					L10.2,73.4z M10.2,73.4C10.2,73.4,10.2,73.4,10.2,73.4C10.2,73.4,10.2,73.4,10.2,73.4C10.2,73.4,10.2,73.4,10.2,73.4L10.2,73.4
					L10.2,73.4C10.2,73.4,10.2,73.4,10.2,73.4L10.2,73.4L10.2,73.4z M10.3,73.4C10.3,73.4,10.2,73.4,10.3,73.4
					C10.2,73.4,10.2,73.4,10.3,73.4z M10.5,73.2C10.5,73.2,10.5,73.2,10.5,73.2C10.5,73.2,10.5,73.2,10.5,73.2L10.5,73.2
					C10.5,73.2,10.5,73.2,10.5,73.2L10.5,73.2L10.5,73.2C10.5,73.2,10.5,73.2,10.5,73.2z M10.5,73.2C10.5,73.2,10.5,73.2,10.5,73.2
					C10.5,73.2,10.5,73.2,10.5,73.2L10.5,73.2C10.5,73.2,10.5,73.2,10.5,73.2L10.5,73.2L10.5,73.2C10.5,73.2,10.5,73.2,10.5,73.2z
					 M10.6,73.3L10.6,73.3L10.6,73.3L10.6,73.3C10.6,73.3,10.6,73.3,10.6,73.3C10.5,73.4,10.5,73.4,10.6,73.3L10.6,73.3
					c-0.1,0-0.1,0-0.1,0l0,0h0C10.5,73.4,10.5,73.4,10.6,73.3C10.5,73.4,10.5,73.4,10.6,73.3C10.6,73.4,10.6,73.4,10.6,73.3
					L10.6,73.3L10.6,73.3L10.6,73.3z M10.5,73.4C10.5,73.4,10.5,73.4,10.5,73.4C10.5,73.4,10.5,73.4,10.5,73.4
					C10.6,73.4,10.6,73.4,10.5,73.4l0.1,0l0.1,0h0h0h0h0C10.6,73.3,10.6,73.3,10.5,73.4C10.5,73.4,10.5,73.4,10.5,73.4L10.5,73.4
					C10.5,73.4,10.5,73.4,10.5,73.4L10.5,73.4L10.5,73.4z M10.5,73.2L10.5,73.2L10.5,73.2L10.5,73.2l0.1,0l0,0h0h0c0,0,0,0,0,0
					L10.5,73.2C10.6,73.2,10.6,73.2,10.5,73.2C10.6,73.2,10.6,73.2,10.5,73.2L10.5,73.2L10.5,73.2C10.5,73.2,10.5,73.2,10.5,73.2
					C10.5,73.2,10.5,73.2,10.5,73.2L10.5,73.2z M10.5,73.2L10.5,73.2L10.5,73.2L10.5,73.2l0.1,0l0,0h0h0c0,0,0,0,0,0L10.5,73.2
					C10.6,73.2,10.6,73.2,10.5,73.2C10.6,73.2,10.6,73.2,10.5,73.2L10.5,73.2L10.5,73.2C10.5,73.2,10.5,73.2,10.5,73.2
					C10.5,73.2,10.5,73.2,10.5,73.2L10.5,73.2z M10.6,73.2L10.6,73.2L10.6,73.2L10.6,73.2L10.6,73.2L10.6,73.2L10.6,73.2L10.6,73.2
					L10.6,73.2L10.6,73.2L10.6,73.2L10.6,73.2L10.6,73.2z M10.6,73.2L10.6,73.2L10.6,73.2L10.6,73.2L10.6,73.2L10.6,73.2L10.6,73.2
					L10.6,73.2L10.6,73.2L10.6,73.2L10.6,73.2L10.6,73.2L10.6,73.2z M10.7,73.3C10.7,73.3,10.7,73.2,10.7,73.3L10.7,73.3L10.7,73.3
					C10.7,73.2,10.6,73.2,10.7,73.3L10.7,73.3L10.7,73.3z M10.6,73.2L10.6,73.2L10.6,73.2C10.7,73.3,10.7,73.2,10.6,73.2L10.6,73.2
					L10.6,73.2C10.7,73.2,10.6,73.2,10.6,73.2z M10.7,75.2C10.7,75.3,10.7,75.3,10.7,75.2c0,0.1,0,0.1,0,0.1
					C10.7,75.3,10.7,75.3,10.7,75.2C10.7,75.3,10.7,75.2,10.7,75.2z M10.7,75L10.7,75L10.7,75L10.7,75C10.7,75.1,10.7,75.1,10.7,75
					L10.7,75L10.7,75L10.7,75L10.7,75C10.7,75,10.7,75,10.7,75L10.7,75z M10.7,75L10.7,75L10.7,75L10.7,75
					C10.7,75.1,10.7,75.1,10.7,75L10.7,75L10.7,75L10.7,75L10.7,75C10.7,75,10.7,75,10.7,75L10.7,75z M10.7,73.2L10.7,73.2
					L10.7,73.2L10.7,73.2L10.7,73.2C10.7,73.2,10.8,73.2,10.7,73.2C10.8,73.2,10.8,73.2,10.7,73.2L10.7,73.2L10.7,73.2L10.7,73.2
					L10.7,73.2L10.7,73.2C10.8,73.2,10.8,73.2,10.7,73.2L10.7,73.2L10.7,73.2L10.7,73.2L10.7,73.2L10.7,73.2
					C10.8,73.2,10.8,73.2,10.7,73.2L10.7,73.2L10.7,73.2L10.7,73.2z M10.7,73.2L10.7,73.2L10.7,73.2L10.7,73.2L10.7,73.2
					C10.7,73.2,10.8,73.2,10.7,73.2C10.8,73.2,10.8,73.2,10.7,73.2L10.7,73.2L10.7,73.2L10.7,73.2L10.7,73.2L10.7,73.2
					C10.8,73.2,10.8,73.2,10.7,73.2L10.7,73.2L10.7,73.2L10.7,73.2L10.7,73.2L10.7,73.2C10.8,73.2,10.8,73.2,10.7,73.2L10.7,73.2
					L10.7,73.2L10.7,73.2z M10.7,75.4C10.7,75.4,10.7,75.4,10.7,75.4C10.7,75.4,10.7,75.4,10.7,75.4C10.7,75.4,10.7,75.4,10.7,75.4z
					 M10.7,75.2C10.7,75.3,10.7,75.3,10.7,75.2c0,0.1,0,0.1,0,0.1C10.7,75.3,10.7,75.3,10.7,75.2C10.8,75.3,10.7,75.2,10.7,75.2z
					 M10.8,73.4C10.8,73.4,10.8,73.4,10.8,73.4C10.8,73.3,10.8,73.3,10.8,73.4C10.8,73.3,10.8,73.3,10.8,73.4
					C10.8,73.3,10.8,73.3,10.8,73.4z M10.8,75.9C10.8,75.9,10.8,75.9,10.8,75.9C10.8,75.9,10.8,75.9,10.8,75.9
					C10.8,75.9,10.8,75.9,10.8,75.9z M10.8,75.1C10.8,75.1,10.8,75.2,10.8,75.1c0,0.1,0,0.1,0,0.1c0,0,0,0,0,0
					C10.8,75.2,10.8,75.2,10.8,75.1C10.8,75.2,10.8,75.2,10.8,75.1C10.8,75.1,10.8,75.1,10.8,75.1z M10.8,74.8L10.8,74.8
					C10.8,74.8,10.8,74.8,10.8,74.8L10.8,74.8L10.8,74.8L10.8,74.8L10.8,74.8L10.8,74.8z M10.8,74.8C10.8,74.8,10.8,74.8,10.8,74.8
					L10.8,74.8L10.8,74.8L10.8,74.8L10.8,74.8L10.8,74.8L10.8,74.8z M10.8,74.8C10.8,74.9,10.8,74.9,10.8,74.8c0,0.1,0,0.1,0,0.2
					C10.8,75,10.8,75,10.8,74.8C10.8,74.9,10.8,74.8,10.8,74.8z M10.8,74.6C10.8,74.7,10.8,74.7,10.8,74.6c0,0.1,0,0.1,0,0.1
					C10.9,74.7,10.9,74.7,10.8,74.6C10.9,74.7,10.9,74.7,10.8,74.6z M10.9,76C10.9,76,10.9,76,10.9,76C10.8,76,10.8,76,10.9,76
					C10.8,76,10.8,76,10.9,76C10.8,76,10.9,76,10.9,76C10.9,76,10.9,76,10.9,76z M10.8,76.1L10.8,76.1
					C10.8,76.1,10.8,76.1,10.8,76.1z M10.8,75.9L10.8,75.9L10.8,75.9z M10.9,76.1L10.9,76.1L10.9,76.1L10.9,76.1z M11.2,73.2
					C11.2,73.2,11.2,73.2,11.2,73.2L11.2,73.2C11.2,73.2,11.2,73.2,11.2,73.2L11.2,73.2L11.2,73.2L11.2,73.2
					C11.2,73.1,11.2,73.1,11.2,73.2C11.2,73.1,11.2,73.1,11.2,73.2L11.2,73.2L11.2,73.2L11.2,73.2L11.2,73.2L11.2,73.2L11.2,73.2z
					 M11.2,73.2C11.2,73.2,11.2,73.2,11.2,73.2L11.2,73.2C11.2,73.2,11.2,73.2,11.2,73.2L11.2,73.2L11.2,73.2L11.2,73.2
					C11.2,73.1,11.2,73.1,11.2,73.2C11.2,73.1,11.2,73.1,11.2,73.2L11.2,73.2L11.2,73.2L11.2,73.2L11.2,73.2L11.2,73.2L11.2,73.2z
					 M11.2,72.9L11.2,72.9L11.2,72.9L11.2,72.9L11.2,72.9L11.2,72.9L11.2,72.9L11.2,72.9L11.2,72.9z M11.2,72.9L11.2,72.9L11.2,72.9
					L11.2,72.9L11.2,72.9L11.2,72.9L11.2,72.9L11.2,72.9L11.2,72.9z M11.2,73.2C11.2,73.2,11.2,73.3,11.2,73.2L11.2,73.2
					C11.2,73.3,11.2,73.3,11.2,73.2C11.2,73.3,11.2,73.3,11.2,73.2L11.2,73.2L11.2,73.2L11.2,73.2L11.2,73.2
					C11.2,73.3,11.2,73.3,11.2,73.2L11.2,73.2L11.2,73.2z M11.2,73.3C11.2,73.3,11.2,73.3,11.2,73.3C11.2,73.3,11.2,73.3,11.2,73.3
					L11.2,73.3L11.2,73.3L11.2,73.3L11.2,73.3C11.2,73.3,11.2,73.3,11.2,73.3L11.2,73.3L11.2,73.3L11.2,73.3
					C11.2,73.2,11.2,73.3,11.2,73.3L11.2,73.3z M11.2,73.5C11.2,73.6,11.2,73.6,11.2,73.5C11.2,73.6,11.2,73.5,11.2,73.5
					C11.2,73.5,11.2,73.5,11.2,73.5z M11.2,73.4C11.2,73.5,11.2,73.5,11.2,73.4C11.2,73.5,11.2,73.5,11.2,73.4L11.2,73.4z
					 M11.2,73.4L11.2,73.4L11.2,73.4L11.2,73.4z M11.3,73.2C11.3,73.2,11.3,73.3,11.3,73.2C11.3,73.2,11.3,73.2,11.3,73.2z
					 M11.3,73.3C11.3,73.3,11.3,73.3,11.3,73.3C11.3,73.3,11.3,73.3,11.3,73.3C11.3,73.3,11.3,73.3,11.3,73.3z M11.3,70.3
					C11.3,70.3,11.3,70.3,11.3,70.3C11.3,70.3,11.3,70.3,11.3,70.3L11.3,70.3L11.3,70.3L11.3,70.3L11.3,70.3z M11.3,70.3
					C11.3,70.3,11.3,70.3,11.3,70.3C11.3,70.3,11.3,70.3,11.3,70.3L11.3,70.3L11.3,70.3L11.3,70.3L11.3,70.3z M11.4,73.2
					C11.4,73.2,11.4,73.2,11.4,73.2c0.1,0,0.1,0,0.1,0C11.5,73.3,11.5,73.3,11.4,73.2C11.4,73.3,11.4,73.3,11.4,73.2
					C11.4,73.3,11.4,73.3,11.4,73.2C11.4,73.2,11.4,73.2,11.4,73.2z M11.6,73.1C11.6,73.1,11.6,73.1,11.6,73.1
					C11.6,73.1,11.5,73.1,11.6,73.1C11.5,73.1,11.5,73.1,11.6,73.1C11.6,73.1,11.6,73.1,11.6,73.1z M11.6,73.2
					C11.6,73.2,11.6,73.2,11.6,73.2C11.5,73.2,11.5,73.2,11.6,73.2C11.5,73.2,11.5,73.2,11.6,73.2C11.6,73.2,11.6,73.2,11.6,73.2z"
					/>
				<path class="st0" d="M13.6,74.6C13.6,74.6,13.6,74.6,13.6,74.6C13.5,74.6,13.5,74.6,13.6,74.6C13.5,74.7,13.5,74.7,13.6,74.6
					c-0.1,0-0.1,0-0.1,0.1c0,0,0,0-0.1,0c0,0,0,0,0,0c0,0,0,0,0,0c0,0,0,0,0,0c0,0,0,0-0.1,0c0,0-0.1,0-0.1,0c0,0-0.1,0-0.1,0
					c0,0-0.1,0-0.1,0c0,0-0.1,0-0.1,0c0,0-0.1,0-0.1,0c-0.1,0-0.1,0-0.2,0c-0.1,0-0.2,0-0.2,0c0,0,0,0,0,0c0,0,0,0,0,0c0,0,0,0,0,0
					s0,0,0,0c0,0,0,0,0,0c0,0,0,0,0,0c0,0,0,0,0,0c0,0,0,0-0.1,0c-0.1-0.1-0.2-0.2-0.2-0.3c-0.1-0.1-0.1-0.2-0.1-0.4c0,0,0,0,0,0
					c0,0,0,0,0,0v-0.3c0,0,0,0,0,0c0,0,0,0,0,0l0-0.2c0,0,0,0,0,0c0,0,0,0,0,0l0,0c0,0,0,0,0,0c0,0,0,0,0,0c0,0,0,0,0,0l0-0.1
					c0,0,0,0,0,0c0,0,0,0,0,0c0,0,0,0,0,0c0,0,0,0,0-0.1c0,0,0,0,0-0.1h0c0,0,0,0,0,0c0,0,0,0,0,0c0-0.1,0-0.1,0.1-0.2
					c0-0.1,0.1-0.1,0.1-0.2c0,0,0,0,0-0.1c0,0,0,0,0,0c0,0,0,0,0,0v0v0c0-0.1,0.1-0.1,0.1-0.2c0.1-0.1,0.1-0.2,0.2-0.3c0,0,0,0,0,0
					c0,0,0,0,0,0c0,0,0-0.1,0.1-0.1c0-0.1,0.1-0.1,0.1-0.1c0,0,0-0.1,0.1-0.1c0,0,0-0.1,0.1-0.1c0.1-0.1,0.2-0.2,0.2-0.4
					c0.1-0.1,0.2-0.2,0.3-0.3c0,0,0.1,0,0.1-0.1c0,0,0.1,0,0.1,0c0.1-0.1,0.2-0.1,0.3,0c0,0,0.1,0,0.1,0c0,0,0.1,0,0.1,0.1
					c0,0,0,0,0,0c0,0,0,0,0,0c0,0,0,0,0,0c0,0,0,0,0,0c0,0,0,0,0,0c0,0,0,0,0,0c0,0,0,0.1-0.1,0.1l0,0.1l-0.1,0.1c0,0,0,0.1,0,0.1
					c0,0,0,0.1-0.1,0.1c0,0.1-0.1,0.2-0.2,0.3c-0.1,0.1-0.1,0.2-0.2,0.3c0,0.1-0.1,0.1-0.1,0.2c0,0.1-0.1,0.1-0.1,0.2c0,0,0,0,0,0
					c0,0,0,0,0,0.1c-0.1,0.1-0.1,0.1-0.1,0.2c0,0.1-0.1,0.1-0.1,0.2c0,0,0,0.1-0.1,0.1c0,0,0,0-0.1,0.1c0,0,0,0,0,0c0,0,0,0,0,0
					c0,0-0.1,0-0.1,0.1c0,0,0,0.1-0.1,0.1c0,0,0,0,0,0c0,0,0,0,0,0c0,0-0.1,0.1-0.1,0.1c0,0.1-0.1,0.1-0.2,0.2c0,0,0,0,0,0v0.1
					c0,0.1,0,0.2,0,0.3c0,0.1,0,0.3,0,0.4c0,0.1,0,0.1,0,0.1c0,0,0,0,0,0c0,0,0,0,0,0c0,0,0,0,0,0.1c0,0,0,0,0,0h0c0,0,0,0,0,0
					c0.1,0,0.2,0,0.2,0c0,0,0.1,0,0.1,0c0.1,0,0.2-0.1,0.2-0.1c0.1,0,0.1-0.1,0.2-0.1c0,0,0,0,0,0h0v0c0,0,0,0,0,0c0,0,0,0,0,0
					c0,0,0,0,0,0h0l0,0c0.1,0,0.2-0.1,0.2-0.2c0.1-0.1,0.1-0.1,0.2-0.2c0,0,0,0,0,0c0,0,0,0,0,0c0,0,0,0,0,0c0,0,0,0,0,0
					c0,0,0.1,0,0.1-0.1c0,0,0.1,0,0-0.1c0,0,0,0,0,0c0,0,0,0,0,0c0,0,0,0,0-0.1c0,0,0,0,0,0c0,0,0,0,0,0c0,0,0,0,0.1,0c0,0,0,0,0,0
					c0,0,0,0,0,0c0,0,0,0,0,0s0,0,0,0c0,0,0.1-0.1,0.1-0.1c0,0,0.1,0,0.1,0c0,0,0,0,0,0c0,0,0,0,0,0c0,0,0,0,0,0c0,0,0,0,0,0
					c0,0,0,0,0.1,0c0,0,0,0.1,0,0.1c0,0,0,0,0,0s0,0,0,0c0,0,0,0,0,0c0,0,0,0.1,0,0.1c0,0,0,0,0,0c0,0,0,0,0,0c0,0,0,0,0,0
					c0,0,0,0,0,0v0c0,0,0,0,0,0c0,0,0,0,0,0c0,0,0,0,0,0c0,0,0,0,0,0c0,0,0,0,0,0c0,0,0,0,0,0c0,0,0,0,0,0c0,0,0,0,0,0v0v0
					c0,0,0,0,0,0c0,0,0,0,0,0c0,0,0,0,0,0c0,0,0,0,0,0c0,0,0,0,0,0c0,0,0,0,0,0c0,0,0,0,0,0.1s0,0,0,0.1c0,0,0,0,0,0c0,0,0,0,0,0
					c0,0,0,0-0.1,0.1l0,0c0,0,0,0,0,0c0,0,0,0,0,0c0,0,0,0,0,0c0,0,0,0.1-0.1,0.1l0,0v0c0,0,0,0,0,0c0,0,0,0,0,0c0,0,0,0,0,0
					c0,0,0,0,0,0c0,0,0,0,0,0c0,0,0,0,0,0c0,0,0,0,0,0c0,0-0.1,0-0.1,0.1C13.6,74.5,13.6,74.6,13.6,74.6
					C13.6,74.6,13.6,74.6,13.6,74.6C13.6,74.6,13.6,74.6,13.6,74.6z M11.9,73.5C11.9,73.5,11.9,73.5,11.9,73.5
					C11.9,73.5,11.9,73.5,11.9,73.5C11.9,73.5,11.9,73.5,11.9,73.5z M12.3,73.2c0.1-0.1,0.2-0.2,0.3-0.4c0.1-0.1,0.2-0.2,0.3-0.4
					c0,0,0,0,0,0c0,0,0.1-0.1,0.1-0.1c0,0,0-0.1,0.1-0.1c0.1-0.1,0.2-0.2,0.2-0.3c0.1-0.1,0.1-0.2,0.2-0.3c0-0.1,0.1-0.1,0.1-0.2
					c0-0.1,0.1-0.1,0.1-0.2c0.1,0,0.1-0.1,0.1-0.2c-0.1,0-0.1,0-0.1,0.1c0,0-0.1,0.1-0.1,0.1c0,0,0,0.1-0.1,0.1c0,0-0.1,0.1-0.1,0.1
					c-0.1,0.1-0.2,0.2-0.3,0.4c-0.1,0.1-0.1,0.3-0.2,0.4c0,0,0,0,0,0c0,0,0,0.1-0.1,0.1c0,0,0,0.1,0,0.1c0,0-0.1,0.1-0.1,0.1
					c0,0,0,0.1-0.1,0.1c0,0,0,0,0,0.1c0,0,0,0,0,0.1v0c0,0,0,0,0,0.1c0,0,0,0,0,0.1c0,0,0,0.1,0,0.1C12.3,73.1,12.3,73.2,12.3,73.2
					L12.3,73.2z M13.4,74.6C13.4,74.6,13.4,74.6,13.4,74.6C13.4,74.6,13.4,74.6,13.4,74.6C13.4,74.6,13.4,74.6,13.4,74.6
					C13.4,74.6,13.5,74.6,13.4,74.6c0.1-0.1,0.1-0.1,0.1-0.1c0,0,0,0,0,0c0,0,0,0,0,0c0,0,0,0,0,0c0,0-0.1,0-0.1,0
					C13.5,74.5,13.4,74.5,13.4,74.6L13.4,74.6L13.4,74.6C13.4,74.6,13.4,74.6,13.4,74.6C13.4,74.6,13.4,74.6,13.4,74.6
					C13.4,74.6,13.4,74.6,13.4,74.6C13.4,74.6,13.4,74.6,13.4,74.6C13.4,74.6,13.4,74.6,13.4,74.6z M13.4,74.6L13.4,74.6L13.4,74.6
					L13.4,74.6z M13.6,74.4C13.6,74.4,13.6,74.4,13.6,74.4C13.6,74.4,13.6,74.4,13.6,74.4C13.6,74.4,13.6,74.4,13.6,74.4z
					 M13.6,74.4C13.6,74.4,13.7,74.4,13.6,74.4L13.6,74.4C13.7,74.4,13.7,74.4,13.6,74.4C13.7,74.4,13.7,74.4,13.6,74.4
					C13.7,74.4,13.7,74.4,13.6,74.4C13.7,74.4,13.7,74.4,13.6,74.4C13.6,74.4,13.6,74.4,13.6,74.4z M13.7,74.4
					C13.7,74.4,13.7,74.4,13.7,74.4C13.7,74.4,13.7,74.4,13.7,74.4C13.7,74.4,13.7,74.4,13.7,74.4C13.7,74.4,13.7,74.4,13.7,74.4z
					 M13.7,74.4C13.7,74.4,13.7,74.4,13.7,74.4C13.7,74.4,13.7,74.4,13.7,74.4C13.7,74.4,13.7,74.4,13.7,74.4
					C13.7,74.4,13.7,74.4,13.7,74.4z M13.9,74.3C13.9,74.3,13.9,74.3,13.9,74.3C13.8,74.3,13.8,74.3,13.9,74.3
					C13.8,74.3,13.8,74.3,13.9,74.3C13.8,74.3,13.8,74.3,13.9,74.3c-0.1,0-0.1,0.1-0.1,0.1c0,0,0,0,0,0
					C13.8,74.3,13.8,74.3,13.9,74.3C13.9,74.3,13.9,74.3,13.9,74.3z M14,74.2C14,74.3,14,74.3,14,74.2C13.9,74.3,13.9,74.3,14,74.2
					C14,74.3,14,74.2,14,74.2z M14,73.9C14,73.9,14,73.9,14,73.9L14,73.9z M14.1,74.1C14.1,74.1,14,74.1,14.1,74.1
					C14,74.1,14,74.1,14.1,74.1C14,74.1,14,74.1,14.1,74.1C14,74.1,14.1,74.1,14.1,74.1z M14.2,74C14.2,74,14.2,74,14.2,74
					C14.2,74,14.2,74,14.2,74C14.2,74,14.2,74,14.2,74z M14.3,74L14.3,74L14.3,74L14.3,74L14.3,74z M14.3,74.1
					C14.3,74.1,14.3,74.1,14.3,74.1C14.3,74.1,14.3,74.1,14.3,74.1L14.3,74.1z"/>
				<path class="st0" d="M14,74.2C14,74.2,14,74.2,14,74.2C14,74.2,14,74.2,14,74.2c0-0.1,0-0.1,0-0.1c0,0,0,0,0-0.1c0,0,0,0,0,0
					s0,0,0,0c0,0,0,0,0-0.1c0,0,0,0,0-0.1c0-0.1,0.1-0.2,0.1-0.3c0.1-0.1,0.1-0.2,0.2-0.3c0,0,0-0.1,0.1-0.1c0,0,0-0.1,0-0.1h0
					c0,0,0-0.1,0.1-0.1c0.1,0,0.1,0,0.2,0c0,0,0,0,0,0c0,0,0,0,0,0.1c0,0,0,0,0,0c0,0,0,0,0,0c0,0.1-0.1,0.1-0.1,0.2
					c0,0.1,0,0.1-0.1,0.2c0,0,0,0,0,0c0,0,0,0,0,0c0,0,0,0,0,0.1s0,0.1,0,0.1c0,0.1-0.1,0.1-0.1,0.2c0,0.1-0.1,0.1-0.1,0.2
					c0,0.1,0,0.1,0,0.2c0,0.1,0,0.1,0,0.2c0.1,0,0.2-0.1,0.3-0.1c0.1,0,0.2-0.1,0.3-0.1l0.2-0.1l0.1,0l0.2-0.2l0.2-0.2
					c0,0,0,0,0.1,0c0,0,0.1,0,0.1,0c0,0,0.1-0.1,0.1-0.1c0,0,0.1,0,0.1-0.1c0,0,0,0,0,0c0,0,0,0,0,0l0.1,0c0,0,0,0,0.1-0.1
					c0,0,0.1,0,0.1-0.1c0,0,0,0,0,0c0,0,0,0,0,0c0,0,0,0,0,0c0,0,0,0,0,0c0,0,0,0,0,0c0,0,0,0,0,0s0,0,0,0c0,0,0,0,0,0c0,0,0,0,0,0
					c0,0,0,0,0,0c0,0,0,0,0,0c0,0,0,0,0,0c0,0,0,0,0,0c0,0,0,0,0,0s0,0,0,0c0,0,0,0,0,0c0,0,0,0,0,0c0,0,0,0,0,0c0,0,0,0,0,0
					c0,0,0,0,0,0c0,0,0,0,0,0s0,0,0,0.1c0,0,0,0,0,0c0,0,0,0,0,0c0,0,0,0,0,0c0,0,0,0,0,0.1c0,0,0,0,0,0c0,0,0,0,0,0c0,0,0,0-0.1,0
					c0,0-0.1,0-0.1,0.1l-0.1,0.1c0,0,0,0-0.1,0.1c0,0-0.1,0-0.1,0.1l0,0c0,0,0,0,0,0c0,0,0,0,0,0c0,0,0,0,0,0c0,0,0,0,0,0h0
					c0,0,0,0,0,0.1c0,0,0,0.1-0.1,0.1v0c0,0,0,0,0,0c0,0,0,0,0,0h0c0,0,0,0,0,0c0,0,0,0,0,0c0,0,0,0,0,0c0,0,0,0,0,0c0,0,0,0,0,0
					c0,0,0,0,0,0c0,0,0,0,0,0c0,0,0,0,0,0l0,0c0,0,0,0,0,0c0,0,0,0-0.1,0c0,0,0,0,0,0c0,0,0,0,0,0c0,0,0,0,0,0c0,0,0,0,0,0
					c0,0,0,0-0.1,0c0,0,0,0.1-0.1,0.1c0,0-0.1,0-0.1,0c-0.1,0-0.1,0.1-0.2,0.1c-0.1,0-0.1,0-0.2,0c-0.1,0-0.1,0-0.2,0
					c0,0-0.1,0-0.1,0c0,0-0.1,0-0.1,0c0,0-0.1-0.1-0.1-0.1c0,0,0-0.1-0.1-0.1c0,0,0,0,0,0c0,0,0,0,0,0c0,0,0,0,0,0c0,0,0,0,0,0
					c0,0,0,0,0,0c0,0,0,0,0-0.1c0,0,0,0,0-0.1c0,0,0,0,0,0.1c0,0,0,0,0,0c0,0,0,0,0,0c0,0,0-0.1,0-0.1c0,0,0,0,0,0
					C13.9,74.3,13.9,74.3,14,74.2C14,74.3,14,74.3,14,74.2C14,74.3,14,74.3,14,74.2C14,74.3,14,74.3,14,74.2
					C14,74.3,14,74.2,14,74.2C14,74.2,14,74.2,14,74.2C14,74.2,14,74.2,14,74.2C14,74.2,14,74.2,14,74.2z M15.2,72.6
					C15.2,72.6,15.2,72.6,15.2,72.6C15.2,72.6,15.2,72.6,15.2,72.6c0,0-0.1,0.1-0.1,0.1c0,0,0,0-0.1,0c0,0,0,0-0.1,0.1c0,0,0,0,0,0
					c0,0,0,0,0,0c0,0,0,0,0,0c0,0-0.1,0-0.1,0c0,0-0.1,0-0.1,0c0,0,0-0.1,0-0.1c0,0,0-0.1,0.1,0c0,0,0,0,0,0c0,0,0,0,0,0
					c0.1,0,0.1,0,0.2,0C15,72.5,15.1,72.6,15.2,72.6C15.2,72.6,15.2,72.6,15.2,72.6z M15.4,74.4C15.4,74.4,15.4,74.4,15.4,74.4
					C15.4,74.4,15.4,74.4,15.4,74.4L15.4,74.4z M16.2,73.8C16.1,73.8,16.1,73.8,16.2,73.8C16.1,73.8,16.1,73.8,16.2,73.8
					C16.1,73.8,16.1,73.8,16.2,73.8C16.2,73.8,16.2,73.8,16.2,73.8z M16.2,73.7C16.2,73.7,16.2,73.7,16.2,73.7L16.2,73.7z"/>
				<path class="st0" d="M19.2,74.2C19.2,74.2,19.2,74.2,19.2,74.2C19.2,74.2,19.1,74.2,19.2,74.2c-0.1,0.1-0.1,0.1-0.2,0.1
					c0,0,0,0-0.1,0.1c0,0,0,0,0,0s0,0,0,0c0,0-0.1,0-0.1,0.1s0,0.1,0,0.1c0,0,0,0-0.1,0.1c0,0-0.1,0-0.1,0c0,0,0,0,0,0c0,0,0,0,0,0
					c0,0,0,0,0,0c0,0,0,0,0,0v0c0,0,0,0,0,0c0,0,0,0,0,0c0,0,0,0,0,0c0,0,0,0,0,0c0,0,0,0,0,0c0,0,0,0,0,0.1c0,0,0,0-0.1,0
					c0,0,0.1-0.1,0.1-0.1c0,0-0.1,0-0.1,0.1c0,0,0,0,0,0c0,0,0,0,0,0c0,0,0,0,0,0h0c0,0,0,0,0,0c0,0,0,0,0,0c0,0,0,0,0,0
					c0,0,0,0,0,0c0,0,0,0,0,0c0,0,0,0,0,0c0,0,0,0,0,0c0,0,0,0,0,0c0,0,0,0,0,0c0,0,0,0-0.1,0s0,0,0,0c0,0,0,0,0,0c0,0,0,0,0,0
					c0,0,0,0,0,0c0,0,0,0,0,0c0,0,0,0,0,0c0,0-0.1,0-0.1,0c-0.1,0-0.1,0-0.2-0.1c-0.1,0-0.1,0-0.2,0c-0.1,0-0.1-0.1-0.2-0.1
					c0,0,0,0,0,0c0,0,0,0,0,0s0,0,0,0c0,0,0,0,0,0c0,0,0,0,0,0c0,0-0.1,0-0.1-0.1c0,0,0-0.1-0.1-0.1c0,0,0,0,0-0.1c0,0,0,0,0,0
					c0-0.1,0-0.3,0-0.4s0-0.3,0-0.4c0,0-0.1,0-0.1,0.1c0,0-0.1,0.1-0.1,0.1c-0.2,0.2-0.3,0.3-0.5,0.5c-0.2,0.2-0.3,0.4-0.5,0.6
					c0,0,0,0-0.1,0c0,0,0,0-0.1,0c0,0-0.1,0-0.1,0s-0.1,0-0.1,0c0,0,0,0,0,0c0,0,0,0,0,0c-0.1,0-0.1,0-0.1,0c0,0,0,0,0-0.1
					c0,0,0,0,0-0.1c0,0,0,0,0-0.1c0,0,0,0,0,0c0,0,0,0,0,0c0.1-0.3,0.1-0.5,0.2-0.7c0.1-0.2,0.2-0.4,0.3-0.7c0,0,0.1,0,0.1,0
					c0,0,0.1,0,0.1,0c0,0,0.1,0,0.1,0c0,0,0,0,0,0c0,0,0,0,0,0c0,0.1,0,0.2-0.1,0.3c0,0.1-0.1,0.2-0.1,0.3c0,0.1-0.1,0.1-0.1,0.2
					c0,0.1-0.1,0.2-0.1,0.2c0,0,0,0,0,0c0,0,0,0,0,0c0.1-0.1,0.1-0.1,0.2-0.2c0.1-0.1,0.1-0.2,0.2-0.2c0.1,0,0.1-0.1,0.2-0.2
					c0.1-0.1,0.1-0.1,0.2-0.2c0.1-0.1,0.1-0.1,0.2-0.1c0.1,0,0.1-0.1,0.2-0.1c0,0,0.1,0,0.1,0c0,0,0.1,0,0.1,0c0,0,0.1,0,0.1,0
					c0,0,0.1,0,0.1,0v0c0,0,0,0,0,0c0,0,0,0,0,0.1c0,0,0,0.1,0,0.2c0,0.1,0,0.1,0,0.2c0,0,0,0,0,0c0,0,0,0.1,0,0.1
					c0,0.2,0,0.4,0,0.5c0,0.1,0.1,0.2,0.1,0.2c0.1,0,0.1,0,0.2,0c0,0,0.1,0,0.1,0c0,0,0.1,0,0.1,0c0,0,0.1,0,0.1-0.1c0,0,0,0,0,0
					c0,0,0,0,0,0c0,0,0.1,0,0.1-0.1c0,0,0.1,0,0.1,0c0,0,0,0,0,0c0,0,0,0,0,0c0,0,0,0,0,0c0,0,0,0,0,0c0,0,0,0,0,0c0,0,0,0,0,0
					c0,0,0,0,0,0c0,0,0,0,0,0c0,0,0,0,0,0c0,0,0,0,0,0c0,0,0,0,0,0c0,0,0.1,0,0.1-0.1s0,0,0-0.1c0,0,0.1,0,0.1-0.1
					c0,0,0.1,0,0.1-0.1c0,0,0,0,0.1,0c0,0,0,0,0.1,0c0,0,0,0,0,0c0,0,0,0,0.1,0c0,0,0,0,0,0c0,0,0,0,0,0c0,0,0,0,0,0
					c0,0,0.1,0,0.1,0c0,0,0.1,0,0.1-0.1c0,0,0,0,0,0c0,0,0,0,0,0s0,0,0,0c0,0,0,0,0,0s0,0,0,0c0,0,0,0,0,0c0,0,0,0,0,0c0,0,0,0,0,0
					c0,0,0,0,0,0c0,0,0,0,0,0c0,0,0,0,0,0c0,0,0,0,0.1,0c0,0,0,0.1,0,0.1c0,0,0,0,0,0s0,0,0,0c0,0,0,0,0,0.1c0,0,0,0.1-0.1,0.1
					L19.2,74.2z M18.5,74.6C18.5,74.6,18.4,74.6,18.5,74.6C18.4,74.7,18.4,74.7,18.5,74.6L18.5,74.6z M18.5,74.6L18.5,74.6
					L18.5,74.6C18.5,74.6,18.5,74.6,18.5,74.6C18.5,74.6,18.5,74.6,18.5,74.6z M18.5,74.6C18.5,74.6,18.5,74.6,18.5,74.6L18.5,74.6z
					 M18.8,74.5L18.8,74.5C18.8,74.5,18.8,74.5,18.8,74.5z M19.1,74.1C19.1,74.1,19.1,74.1,19.1,74.1L19.1,74.1
					C19.1,74.1,19.1,74.1,19.1,74.1z M19.4,73.9C19.4,74,19.4,74,19.4,73.9C19.4,73.9,19.4,74,19.4,73.9C19.4,74,19.4,74,19.4,73.9z
					"/>
				<path class="st0" d="M22,73.9C22,73.9,22,74,22,73.9c-0.1,0.1-0.1,0.1-0.2,0.2c0,0,0,0-0.1,0.1c0,0-0.1,0-0.1,0.1l0,0l-0.1,0.1
					l-0.1,0l-0.1,0.1c-0.1,0.1-0.2,0.1-0.2,0.2c-0.1,0-0.2,0.1-0.3,0.1c0,0,0,0,0,0s0,0,0,0c0,0,0,0-0.1,0c0,0,0,0-0.1,0
					c0,0,0,0-0.1,0c0,0,0,0,0,0c0,0,0,0-0.1,0c0,0,0,0-0.1,0c0,0,0,0,0,0c0,0,0,0,0,0c0,0,0,0,0,0c0,0,0,0-0.1,0c0,0,0,0,0,0
					c0,0,0,0,0,0c0,0,0,0-0.1,0c0,0,0,0-0.1,0c0,0,0,0,0,0c0,0,0,0,0,0l0,0c-0.1,0-0.1,0-0.2,0c0,0,0,0,0,0c0,0,0,0,0,0
					c-0.1,0-0.1,0-0.1,0c0,0-0.1,0-0.1-0.1c-0.1,0-0.1-0.1-0.2-0.1c0,0-0.1-0.1-0.1-0.1c0,0,0-0.1,0-0.1c0,0,0-0.1,0-0.1
					c0,0,0-0.1,0-0.1c0,0,0-0.1,0-0.1c0-0.1,0-0.1,0-0.2c0-0.1,0.1-0.2,0.1-0.2l0.2-0.2l0.1-0.1c0,0,0.1-0.1,0.1-0.1
					c0,0,0.1,0,0.1-0.1c0,0,0.1,0,0.1-0.1c0,0,0.1,0,0.1-0.1c0,0,0.1-0.1,0.1-0.1c0,0,0.1,0,0.1-0.1c0,0,0.1,0,0.1,0c0,0,0,0,0.1,0
					c0,0,0,0,0.1,0c0,0,0,0,0,0c0,0,0,0,0,0c0,0,0.1,0.1,0.1,0.1c0,0,0.1,0.1,0.1,0.1c0,0,0.1,0,0.1,0.1c0,0,0,0,0,0.1
					c0,0,0,0.1,0,0.1c0,0,0,0.1,0,0.1c0,0,0,0,0,0c0,0,0,0,0,0c0,0,0,0,0,0.1c0,0,0,0-0.1,0.1c0,0,0,0,0,0s0,0,0,0.1
					c0,0,0,0-0.1,0.1c0,0-0.1,0.1-0.1,0.1c0,0-0.1,0.1-0.1,0.1c0,0-0.1,0-0.1,0.1c0,0,0,0,0,0c0,0-0.1,0.1-0.1,0.1
					c-0.1,0-0.1,0.1-0.1,0.1c-0.1,0-0.1,0-0.2,0.1c-0.1,0-0.1,0.1-0.2,0c0,0,0,0,0,0c0,0,0,0,0,0c0,0,0,0,0,0.1c0,0,0,0,0,0
					c0,0,0.1,0.1,0.1,0.1c0.1,0,0.1,0.1,0.2,0.1c0.2,0.1,0.3,0.1,0.5,0c0.1,0,0.1,0,0.1,0c0,0,0.1,0,0.2-0.1c0.1,0,0.1-0.1,0.2-0.1
					l0.1,0c0,0,0,0,0,0c0,0,0,0,0,0c0,0,0,0,0,0c0,0,0,0,0,0l0.2-0.1c0.1,0,0.1-0.1,0.1-0.1c0,0,0.1-0.1,0.2-0.1c0,0,0,0,0,0
					c0,0,0,0,0.1-0.1c0,0,0.1,0,0.1-0.1c0,0,0,0,0.1,0l0.1-0.1c0.1,0,0.1-0.1,0.1-0.1s0.1,0,0.1-0.1c0,0,0,0,0,0.1c0,0,0,0,0,0
					c0,0,0,0.1-0.1,0.1C22.1,73.8,22.1,73.8,22,73.9C22.1,73.9,22.1,73.9,22,73.9C22,73.9,22,73.9,22,73.9z M20.5,73.1
					C20.4,73.1,20.4,73.1,20.5,73.1c-0.1,0.1-0.1,0.1-0.1,0.1c0,0,0,0,0,0c0,0,0,0,0,0c0,0,0,0,0,0l-0.1,0c0,0,0,0-0.1,0.1
					c0,0,0,0-0.1,0c0,0-0.1,0.1-0.1,0.1c0,0-0.1,0.1-0.1,0.1c-0.1,0-0.1,0.1-0.1,0.1c-0.1,0.1-0.1,0.1-0.1,0.2
					c0,0.1-0.1,0.1-0.1,0.2c0.1,0,0.2-0.1,0.3-0.1c0.1-0.1,0.2-0.1,0.3-0.2c0,0,0.1,0,0.1-0.1c0,0,0.1-0.1,0.1-0.1
					c0,0,0.1-0.1,0.1-0.1c0.1-0.1,0.1-0.1,0.1-0.2C20.5,73.2,20.5,73.2,20.5,73.1C20.5,73.1,20.5,73.1,20.5,73.1
					C20.5,73.1,20.5,73.1,20.5,73.1C20.5,73.1,20.5,73.1,20.5,73.1z"/>
				<path class="st0" d="M25.5,71.2C25.5,71.2,25.5,71.2,25.5,71.2C25.5,71.2,25.6,71.2,25.5,71.2L25.5,71.2
					C25.6,71.2,25.6,71.2,25.5,71.2C25.5,71.2,25.5,71.2,25.5,71.2C25.5,71.2,25.5,71.2,25.5,71.2C25.5,71.3,25.5,71.3,25.5,71.2
					L25.5,71.2C25.5,71.3,25.5,71.3,25.5,71.2C25.5,71.3,25.5,71.3,25.5,71.2c-0.1,0.1-0.1,0.1-0.1,0.1c0,0-0.1,0-0.1,0.1
					c0,0,0,0,0,0c0,0,0,0,0,0c0,0,0,0,0,0c0,0,0,0,0,0c0,0,0,0-0.1-0.1c0,0,0,0-0.1-0.1c0,0,0-0.1,0-0.1s0-0.1,0-0.1
					c0,0,0-0.1,0-0.1c0,0,0-0.1,0-0.1c0,0,0,0,0,0c0,0,0,0,0,0c0,0,0,0,0,0c0,0,0,0,0,0c0,0,0,0,0,0c0,0,0,0,0,0
					c0.1-0.1,0.3-0.2,0.4-0.2c0.1-0.1,0.3-0.1,0.4-0.2c0,0,0.1,0,0.1-0.1c0,0,0.1,0,0.1-0.1c0,0,0.1,0,0.1,0c0,0,0.1,0,0.1,0
					c0.1,0,0.1,0,0.2-0.1c0.1,0,0.1,0,0.2-0.1c0.1,0,0.2,0,0.3,0c0.1,0,0.2,0,0.3,0c0.2,0,0.3,0,0.5,0.1s0.3,0.1,0.4,0.2
					c0,0,0,0.1,0.1,0.1c0,0,0,0.1,0.1,0.1c0,0,0,0,0,0.1c0,0,0,0,0,0.1c0.1,0.1,0.1,0.2,0.1,0.3c0,0.2,0,0.3-0.1,0.5
					c-0.1,0.1-0.1,0.3-0.2,0.4c-0.1,0.1-0.1,0.2-0.2,0.3c-0.1,0.1-0.2,0.1-0.2,0.2c-0.1,0-0.1,0.1-0.2,0.1c0,0.1-0.1,0.1-0.2,0.1
					c-0.1,0.1-0.2,0.1-0.3,0.2c-0.1,0.1-0.2,0.1-0.3,0.2c0,0,0.1,0,0.1,0c0,0,0.1,0,0.1,0c0.2,0,0.4,0.1,0.5,0.2c0,0,0,0,0,0
					s0,0,0,0h0c0.1,0,0.2,0.1,0.2,0.2c0.1,0.1,0.1,0.1,0.2,0.2c0,0,0,0.1,0.1,0.1c0,0,0,0.1,0,0.1c0,0,0,0,0,0c0,0,0,0,0,0
					c0,0,0,0,0,0.1c0,0,0,0,0,0.1c0,0,0,0.1,0,0.1c0,0,0,0.1,0,0.1c0,0.1,0.1,0.2,0.1,0.3c0,0.1,0,0.2-0.1,0.3c0,0,0,0.1-0.1,0.1
					c0,0,0,0.1-0.1,0.1c0,0,0,0.1-0.1,0.1c0,0,0,0,0,0c0,0,0,0-0.1,0c0,0-0.1,0.1-0.1,0.1c0,0-0.1,0.1-0.1,0.1
					c-0.1,0-0.1,0.1-0.1,0.1c0,0-0.1,0.1-0.1,0.1h0l-0.2,0.1c-0.1,0-0.1,0-0.1,0.1c0,0-0.1,0.1-0.1,0.1c0,0,0,0-0.1,0
					c0,0-0.1,0-0.1,0.1c0,0,0,0-0.1,0.1c0,0,0,0-0.1,0c-0.1,0-0.1,0.1-0.2,0.1s-0.1,0-0.2,0.1l-0.2,0.1L26,76
					c-0.1,0-0.2,0.1-0.3,0.1c-0.1,0-0.2,0.1-0.3,0.1c0,0,0,0,0,0c0,0,0,0,0,0c0.2-0.1,0.4-0.1,0.6-0.2c0.2-0.1,0.4-0.2,0.6-0.3
					c0,0,0,0,0,0c0,0,0,0,0,0c0.1,0,0.1,0,0.2-0.1c0,0,0.1-0.1,0.2-0.1c0,0,0.1-0.1,0.1-0.1c0,0,0.1-0.1,0.1-0.1c0,0,0,0,0,0
					c0,0,0,0,0,0c0,0,0,0,0,0c0,0,0,0-0.1,0c0,0,0,0,0,0c0,0,0,0,0,0c0,0,0,0,0,0c0,0,0,0,0,0s0,0,0,0l-0.1,0c0,0-0.1,0-0.1,0.1
					c0,0-0.1,0-0.1,0.1c-0.1,0.1-0.2,0.1-0.4,0.2c0,0-0.1,0.1-0.1,0.1c-0.1,0-0.1,0-0.2,0.1c0,0-0.1,0-0.1,0.1c0,0-0.1,0-0.1,0v0
					c-0.1,0-0.2,0-0.2,0.1c-0.1,0-0.1,0-0.2,0.1c0,0,0,0,0.1,0c0,0,0,0,0.1,0c-0.1,0-0.2,0.1-0.3,0.1c-0.1,0-0.2,0.1-0.3,0.1
					c0.2,0,0.3-0.1,0.5-0.2c0.2-0.1,0.3-0.1,0.5-0.2c0,0,0,0,0,0c0,0,0.1,0,0.1,0c0,0,0.1,0,0.1,0c0,0,0,0,0,0c0,0,0,0,0,0
					c0.1,0,0.2-0.1,0.3-0.2c0.1-0.1,0.2-0.1,0.3-0.2c0,0-0.1,0-0.1,0.1c0,0-0.1,0-0.1,0.1c0,0,0,0-0.1,0c0,0,0,0-0.1,0l-0.1,0.1
					c-0.1,0.1-0.3,0.1-0.5,0.2l0.2-0.1c0,0,0,0,0,0c0,0,0,0,0,0c0,0,0.1,0,0.1-0.1c0,0,0.1,0,0.1-0.1c0.1,0,0.1-0.1,0.2-0.1
					c0,0,0.1-0.1,0.1-0.1c0.1-0.1,0.2-0.1,0.3-0.2c0.1,0,0.2-0.1,0.3-0.2c0,0,0,0,0,0c0,0,0,0,0,0c0,0,0.1,0,0.1,0c0,0,0,0,0.1-0.1
					c0,0-0.1,0-0.1,0.1c0,0,0,0-0.1,0c0,0,0,0-0.1,0.1c0,0-0.1,0-0.1,0.1c0,0,0,0,0,0c0,0,0,0,0,0c0,0-0.1,0.1-0.1,0.1
					c0,0-0.1,0.1-0.2,0.1c0,0-0.1,0-0.1,0.1c0,0-0.1,0-0.2,0.1c0,0,0,0,0,0c0,0,0,0,0,0c0,0-0.1,0-0.1,0c0,0-0.1,0-0.1,0
					c0.1-0.1,0.2-0.1,0.3-0.2c0.1,0,0.2-0.1,0.3-0.2c0.1,0,0.1-0.1,0.2-0.1c0.1-0.1,0.1-0.1,0.2-0.1c0,0,0,0,0-0.1c0,0,0,0,0.1-0.1
					c0,0,0,0,0,0c0,0,0,0,0,0c0,0,0,0,0.1-0.1c0,0,0.1,0,0.1-0.1c0,0,0,0,0,0c0,0,0,0,0,0c0,0,0,0,0,0c0,0,0,0,0,0
					c0,0-0.1,0.1-0.1,0.1c0,0-0.1,0-0.1,0.1v0c0,0,0,0,0,0c0,0,0,0,0,0c0,0,0,0,0,0L27,75c0,0-0.1,0-0.1,0.1c0,0-0.1,0-0.1,0.1
					c0,0,0,0,0.1,0c0,0,0,0,0.1,0c-0.1,0.1-0.2,0.1-0.3,0.2c-0.1,0.1-0.2,0.1-0.3,0.2c0,0,0,0-0.1,0c0,0,0,0-0.1,0c0,0,0,0,0.1,0
					c0.1,0,0.2-0.1,0.2-0.1c0.1,0,0.2-0.1,0.3-0.1c0,0,0,0,0,0c0,0,0,0,0,0l-0.1,0c0,0,0,0,0,0c0,0,0,0,0,0c0,0,0,0,0,0s0,0,0,0
					c0,0,0,0-0.1,0c0,0,0,0-0.1,0c0,0,0,0,0,0c0,0,0,0,0,0c-0.1,0-0.2,0.1-0.2,0.1c-0.1,0-0.2,0.1-0.2,0.1c0,0,0,0,0,0c0,0,0,0,0,0
					c0,0,0,0,0,0c0,0,0,0,0,0l-0.5,0.2c0,0-0.1,0-0.1,0c0,0-0.1,0-0.1,0c0,0,0,0-0.1,0c0,0,0,0-0.1,0c-0.1,0-0.1,0-0.2,0.1
					c-0.1,0-0.1,0-0.2,0c0,0-0.1,0-0.1,0c0,0-0.1,0-0.1,0c0,0,0,0,0,0c0,0,0,0,0,0c0,0,0,0,0,0c0.1,0,0.2,0,0.4,0
					c0.1,0,0.3,0,0.4-0.1c-0.1,0-0.1,0-0.2,0.1c-0.1,0-0.1,0-0.2,0.1c0,0,0,0,0,0c0,0,0,0,0,0c0,0,0,0-0.1,0c0,0,0,0-0.1,0
					c0,0,0,0,0,0c0,0,0,0,0,0c0,0,0,0-0.1,0c0,0-0.1,0-0.1,0c0,0,0,0,0.1,0c0,0,0,0,0.1,0c0,0-0.1,0-0.1,0c-0.1,0-0.1,0-0.2,0
					c0,0,0,0,0,0c0,0,0,0,0,0c-0.1,0-0.2,0-0.3,0c-0.1,0-0.2,0-0.2-0.1c0,0,0,0-0.1-0.1c0,0,0,0-0.1-0.1c0,0,0,0,0,0c0,0,0,0,0,0
					c0,0,0,0,0,0c0,0,0,0,0,0c0,0,0,0,0,0c0,0,0,0,0-0.1c0,0,0,0,0,0c0,0,0,0,0,0c0,0,0,0,0,0s0,0,0,0c0,0,0,0,0,0c0,0,0,0,0,0
					c0,0,0,0,0-0.1c0,0,0,0,0-0.1l0,0c0,0,0,0,0,0c0,0,0,0,0,0c0,0,0,0,0,0c0,0,0,0,0,0c0,0,0,0,0,0c0,0,0,0,0,0c0,0,0,0,0,0
					c0,0,0,0,0,0c0,0,0,0,0-0.1c0,0,0,0,0.1,0c0,0,0,0,0,0c0,0,0,0,0,0c0,0,0,0,0,0c0,0,0,0,0,0c0,0,0.1,0,0.1-0.1c0,0,0.1,0,0.2,0
					c0,0,0,0,0,0c0,0,0,0,0,0c0,0,0,0,0,0c0,0,0,0,0.1,0c0,0,0.1,0,0.1,0c0,0-0.1,0-0.1,0c0,0-0.1,0-0.1,0c0,0-0.1,0-0.1,0
					c0,0,0,0,0,0.1c0,0,0,0,0.1,0.1c0,0,0.1,0,0.1,0c0,0,0.1,0,0.1,0s0.1,0,0.1,0c0,0,0-0.1,0-0.1c0-0.1,0-0.1,0-0.1
					c0,0,0-0.1,0-0.1s0-0.1,0-0.1c0.1-0.4,0.2-0.8,0.4-1.1c0.1-0.4,0.3-0.7,0.5-1c0,0,0,0,0,0c0,0,0,0,0,0c0,0,0-0.1,0-0.1
					c0,0,0,0,0,0c0,0,0,0,0,0c0,0,0,0,0-0.1c0,0,0.1,0,0.1,0c0,0,0,0,0.1,0c0.1-0.1,0.1-0.3,0.2-0.4c0.1-0.1,0.1-0.3,0.2-0.4
					c0-0.1,0.1-0.2,0.2-0.3c0.1-0.1,0.1-0.2,0.2-0.3c0-0.1,0.1-0.2,0.1-0.3c0-0.1,0.1-0.2,0.1-0.3c0,0,0-0.1,0.1-0.1s0-0.1,0-0.1
					c0,0,0,0,0,0s0,0,0,0c0,0,0.1,0,0.1,0c0,0,0.1,0,0.1,0c0,0,0.1,0,0.1,0c0,0,0,0,0.1,0c0,0,0,0.1,0,0.1c0,0,0,0.1,0,0.1
					c0,0,0,0.1,0,0.1c0,0,0,0.1,0,0.1c-0.1,0.1-0.1,0.2-0.2,0.3c-0.1,0.1-0.1,0.2-0.2,0.4h0c0,0.1-0.1,0.2-0.1,0.3
					c0,0.1-0.1,0.2-0.1,0.3c0,0,0,0,0,0c0,0,0,0,0,0c0,0.1-0.1,0.1-0.1,0.2c0,0.1-0.1,0.1-0.1,0.2c0,0,0.1,0,0.1,0
					c0,0,0.1,0,0.1-0.1c0.2-0.1,0.4-0.2,0.6-0.3c0,0,0,0,0,0c0.1-0.1,0.2-0.1,0.2-0.2c0.1-0.1,0.1-0.1,0.2-0.2v0
					c0.3-0.2,0.5-0.4,0.7-0.7v0c0,0,0.1-0.1,0.1-0.1c0-0.1,0.1-0.1,0.1-0.2c0-0.1,0.1-0.1,0.1-0.2c0-0.1,0-0.1,0-0.2
					c0,0,0-0.1,0-0.1c0,0,0,0,0-0.1c-0.1-0.1-0.3-0.2-0.5-0.2c-0.2,0-0.4,0-0.6,0l-0.2,0c-0.1,0-0.3,0.1-0.4,0.1
					c-0.1,0-0.3,0.1-0.4,0.1c-0.1,0.1-0.2,0.1-0.3,0.2c-0.1,0.1-0.2,0.2-0.3,0.3c0,0,0,0,0,0c0,0,0,0,0,0c0,0,0,0,0,0s0,0,0,0
					c0,0,0,0,0,0C25.5,71.1,25.5,71.1,25.5,71.2C25.5,71.1,25.5,71.1,25.5,71.2C25.6,71.1,25.6,71.1,25.5,71.2
					C25.5,71.1,25.6,71.1,25.5,71.2C25.6,71.1,25.6,71.1,25.5,71.2C25.5,71.1,25.5,71.2,25.5,71.2z M23.9,75.9
					C23.9,75.9,23.9,75.9,23.9,75.9C23.9,75.9,23.9,75.9,23.9,75.9L23.9,75.9C23.9,75.9,23.9,75.9,23.9,75.9z M27.1,74.9
					C27.1,74.9,27.1,74.9,27.1,74.9C27.1,74.9,27.1,74.9,27.1,74.9C27.1,74.9,27.1,74.9,27.1,74.9C27.1,74.9,27.1,74.9,27.1,74.9
					L27.1,74.9C27.1,74.8,27.1,74.8,27.1,74.9C27.1,74.8,27.1,74.8,27.1,74.9c0.1-0.1,0.1-0.1,0.1-0.1c0,0,0,0,0,0c0,0,0,0,0,0
					s0,0,0,0c0,0,0,0,0,0c0,0,0,0,0,0c0.1-0.1,0.2-0.1,0.2-0.2c0.1-0.1,0.1-0.2,0.2-0.2c0,0,0,0,0,0c0-0.1,0.1-0.1,0.1-0.2
					c0-0.1,0.1-0.2,0.1-0.3c0-0.1,0-0.1-0.1-0.2c0-0.1-0.1-0.1-0.1-0.1c0,0-0.1,0-0.1-0.1c0,0-0.1,0-0.1-0.1c0,0,0,0,0,0
					c0,0,0,0,0,0c0,0-0.1,0-0.1-0.1c0,0-0.1,0-0.1,0c-0.1,0-0.2-0.1-0.2-0.1c-0.1,0-0.1,0-0.2-0.1s-0.1,0-0.2,0c-0.1,0-0.2,0-0.3,0
					c-0.1,0-0.2,0-0.3,0.1c0,0,0,0,0,0s0,0,0,0c0,0-0.1,0-0.1,0c0,0-0.1,0-0.1,0c0,0,0,0,0,0c0,0,0,0-0.1,0c0,0,0,0,0,0.1
					c0,0.1-0.1,0.2-0.1,0.3c0,0.1-0.1,0.2-0.1,0.3c0,0,0,0.1,0,0.1c0,0,0,0.1,0,0.1c0,0.1-0.1,0.2-0.1,0.3c0,0.1,0,0.2-0.1,0.3
					c0,0,0,0.1,0,0.1c0,0,0,0.1,0,0.1c0,0,0,0.1,0,0.1c0,0,0,0.1-0.1,0.1c0,0,0,0.1-0.1,0.1c0,0.1-0.1,0.1-0.1,0.1
					c0,0-0.1,0.1-0.1,0.1c0,0,0,0,0,0c0,0,0,0-0.1,0.1c0,0,0,0.1-0.1,0.1c0,0,0,0-0.1,0s0,0,0,0c0.1,0,0.2,0,0.4-0.1
					c0.1,0,0.3-0.1,0.4-0.1c0,0,0,0,0,0c0,0,0,0,0,0c0.1,0,0.2,0,0.2-0.1c0.1,0,0.1-0.1,0.2-0.1c0,0,0,0,0,0c0,0,0,0,0,0
					c0,0,0,0,0,0c0,0,0.1,0,0.1-0.1c0,0,0,0,0,0c0,0,0,0,0,0c0,0,0,0,0.1,0c0,0,0,0,0,0c0,0,0,0,0,0c0,0,0,0,0,0c0,0,0,0,0,0
					c0,0,0,0,0.1,0l0,0c0.1,0,0.1,0,0.1-0.1c0,0,0.1-0.1,0.1-0.1c0,0,0,0,0,0c0,0,0,0,0,0c0,0,0,0,0.1,0c0,0,0,0,0.1,0c0,0,0,0,0,0
					c0,0,0,0,0,0c0,0,0,0,0,0c0,0,0,0,0,0l0,0C27,74.9,27,74.9,27.1,74.9C27,74.9,27,74.9,27.1,74.9C27,74.9,27,74.9,27.1,74.9
					C27,74.9,27,74.9,27.1,74.9C27.1,74.9,27.1,74.9,27.1,74.9C27.1,74.9,27.1,74.9,27.1,74.9z M25.5,75.9c0.1,0,0.2,0,0.3-0.1
					c0.1,0,0.2-0.1,0.2-0.1c0,0,0,0,0,0C25.9,75.8,25.7,75.9,25.5,75.9C25.4,76,25.2,76,25,76.1c0.1,0,0.2,0,0.3-0.1
					C25.4,76,25.5,75.9,25.5,75.9z M26,75.7C26.1,75.7,26.1,75.7,26,75.7C26.1,75.7,26.1,75.7,26,75.7C26,75.8,26,75.7,26,75.7z
					 M26.2,75.3C26.2,75.3,26.2,75.3,26.2,75.3C26.2,75.3,26.2,75.3,26.2,75.3C26.2,75.3,26.2,75.3,26.2,75.3z M26.9,75.3
					C26.9,75.3,26.9,75.3,26.9,75.3c0.1-0.1,0.2-0.1,0.2-0.1c0,0,0,0,0,0c0,0,0,0,0,0C27,75.2,27,75.2,26.9,75.3
					C26.9,75.3,26.8,75.3,26.9,75.3C26.8,75.3,26.8,75.3,26.9,75.3C26.8,75.3,26.8,75.3,26.9,75.3z M27.8,75c0,0-0.1,0.1-0.1,0.1
					C27.7,75.1,27.7,75.1,27.8,75C27.8,75,27.8,75,27.8,75z M27.8,73.2C27.8,73.2,27.8,73.2,27.8,73.2
					C27.8,73.2,27.8,73.2,27.8,73.2C27.8,73.2,27.9,73.2,27.8,73.2c0.1,0.1,0.1,0.2,0.2,0.2c0,0,0,0,0,0c0,0,0,0,0,0c0,0,0,0,0,0
					c0,0,0,0,0,0c0,0,0,0,0,0h0h0C27.9,73.3,27.9,73.2,27.8,73.2c0,0,0,0-0.1-0.1C27.7,73.1,27.7,73.1,27.8,73.2
					C27.8,73.1,27.8,73.1,27.8,73.2z M28.1,73.5C28.1,73.5,28.1,73.5,28.1,73.5C28,73.4,28,73.4,28.1,73.5
					C28,73.4,28,73.5,28.1,73.5C28,73.5,28.1,73.5,28.1,73.5z"/>
				<path class="st0" d="M32.4,74.1C32.3,74.1,32.3,74.1,32.4,74.1c-0.1,0.1-0.1,0.1-0.1,0.1c0,0,0,0,0,0c0,0-0.1,0.1-0.1,0.1
					c0,0-0.1,0.1-0.1,0.1h0v0c0,0,0,0,0,0s0,0,0,0c0,0,0,0-0.1,0.1c0,0,0,0,0,0c0,0,0,0-0.1,0.1c0,0,0,0-0.1,0.1c0,0,0,0,0,0
					c0,0,0,0-0.1,0c-0.1,0-0.1,0.1-0.1,0.1c0,0-0.1,0-0.1,0c0,0-0.1,0-0.1,0c0,0,0,0-0.1,0c0,0-0.1,0-0.1,0c-0.1,0-0.1,0-0.1,0
					c0,0,0,0-0.1-0.1c0,0,0,0-0.1,0c0,0,0,0,0-0.1c-0.1,0-0.1-0.1-0.1-0.1c0-0.1,0-0.1,0-0.2c0-0.1,0-0.2,0-0.3c0-0.1,0-0.2,0.1-0.3
					c-0.1,0.1-0.1,0.1-0.2,0.2c-0.1,0.1-0.1,0.1-0.2,0.2c0,0-0.1,0.1-0.1,0.1c0,0-0.1,0.1-0.1,0.1c-0.1,0.1-0.2,0.2-0.2,0.3
					c0,0,0,0,0,0c0,0,0,0,0,0c0,0-0.1,0.1-0.1,0.1c0,0-0.1,0.1-0.1,0.1c-0.1,0-0.1,0-0.2,0s-0.1,0-0.2-0.1c0,0-0.1,0-0.1,0
					c0,0,0,0-0.1,0c-0.1,0-0.1-0.1-0.1-0.1s0-0.1,0-0.2c0,0,0-0.1,0-0.1c0-0.1,0-0.1,0-0.1c0-0.1,0.1-0.2,0.1-0.3
					c0-0.1,0.1-0.2,0.1-0.2c0.1-0.1,0.2-0.2,0.2-0.3c0.1-0.1,0.2-0.2,0.3-0.3c0,0,0.1,0,0.1-0.1c0,0,0.1,0,0.1-0.1c0,0,0.1,0,0.1,0
					c0,0,0.1,0,0.1,0c0.1,0,0.2,0,0.3,0.1c0.1,0,0.1,0.1,0.2,0.2c0,0,0.1,0,0.1-0.1c0,0,0.1,0,0.1,0c0,0,0,0,0,0c0,0,0,0,0,0
					c0,0,0.1,0,0.1,0c0,0,0.1,0.1,0.1,0.1c0,0,0,0,0,0c0,0,0,0,0,0c0,0,0,0,0,0c0,0,0,0,0,0c0,0.1,0,0.2,0,0.3
					c0,0.1-0.1,0.2-0.1,0.3c0,0.1,0,0.2-0.1,0.4c0,0.1,0,0.2,0,0.3c0.2,0,0.3-0.1,0.4-0.1c0.1-0.1,0.2-0.1,0.3-0.2
					c0,0,0.1-0.1,0.1-0.1c0,0,0.1-0.1,0.1-0.1c0,0,0,0,0,0v0c0,0,0.1,0,0.1-0.1c0.1-0.1,0.1-0.1,0.2-0.2c0.1-0.1,0.1-0.1,0.2-0.2
					c0.1,0,0.1-0.1,0.1-0.1c0,0,0,0,0,0c0,0,0,0,0,0c0,0,0,0,0,0c0,0,0,0,0,0v0c0,0,0,0,0,0c0,0,0,0,0,0c0,0,0,0,0,0c0,0,0,0,0,0
					c0,0,0,0,0,0c0,0,0,0,0,0c0,0,0,0,0,0.1c0,0,0,0,0,0.1c0,0,0,0,0,0c0,0,0,0,0,0.1c0,0,0,0,0,0.1c0,0,0,0,0,0L32.4,74.1z
					 M30.4,73.4c0-0.1,0-0.1-0.1-0.2c0,0-0.1,0-0.1,0l-0.1,0.1c0,0,0,0,0,0c0,0,0,0,0,0c0,0,0,0,0,0c0,0,0,0,0,0.1l-0.1,0.1
					c-0.1,0.1-0.1,0.1-0.2,0.2c-0.1,0.1-0.1,0.2-0.1,0.2c0,0,0,0,0,0.1c0,0,0,0,0,0.1c0,0,0,0,0,0c0,0,0,0,0,0c0,0.1,0,0.1-0.1,0.1
					c0,0,0,0.1,0,0.1c0,0,0.1,0,0.1-0.1c0,0,0.1-0.1,0.1-0.1c0.1-0.1,0.3-0.3,0.4-0.4c0.1-0.1,0.3-0.3,0.4-0.5
					C30.4,73.5,30.4,73.5,30.4,73.4C30.4,73.5,30.4,73.5,30.4,73.4L30.4,73.4C30.4,73.4,30.4,73.4,30.4,73.4z"/>
				<path class="st0" d="M34.9,73.9C34.9,73.9,34.9,74,34.9,73.9c-0.1,0.1-0.1,0.1-0.2,0.2c0,0,0,0-0.1,0.1c0,0-0.1,0-0.1,0.1l0,0
					l-0.1,0.1l-0.1,0l-0.1,0.1c-0.1,0.1-0.2,0.1-0.2,0.2c-0.1,0-0.2,0.1-0.3,0.1c0,0,0,0,0,0c0,0,0,0,0,0c0,0,0,0-0.1,0
					c0,0,0,0-0.1,0c0,0,0,0-0.1,0c0,0,0,0,0,0c0,0,0,0-0.1,0c0,0,0,0-0.1,0c0,0,0,0,0,0c0,0,0,0,0,0c0,0,0,0,0,0c0,0,0,0-0.1,0
					c0,0,0,0,0,0c0,0,0,0,0,0c0,0,0,0-0.1,0c0,0,0,0-0.1,0c0,0,0,0,0,0c0,0,0,0,0,0l0,0c-0.1,0-0.1,0-0.2,0c0,0,0,0,0,0c0,0,0,0,0,0
					c-0.1,0-0.1,0-0.1,0c0,0-0.1,0-0.1-0.1c-0.1,0-0.1-0.1-0.2-0.1c0,0-0.1-0.1-0.1-0.1c0,0,0-0.1,0-0.1c0,0,0-0.1,0-0.1
					c0,0,0-0.1,0-0.1c0,0,0-0.1,0-0.1c0-0.1,0-0.1,0-0.2c0-0.1,0.1-0.2,0.1-0.2l0.2-0.2l0.1-0.1c0,0,0.1-0.1,0.1-0.1
					c0,0,0.1,0,0.1-0.1c0,0,0.1,0,0.1-0.1c0,0,0.1,0,0.1-0.1c0,0,0.1-0.1,0.1-0.1c0,0,0.1,0,0.1-0.1c0,0,0.1,0,0.1,0c0,0,0,0,0.1,0
					c0,0,0,0,0.1,0c0,0,0,0,0,0c0,0,0,0,0,0c0,0,0.1,0.1,0.1,0.1c0,0,0.1,0.1,0.1,0.1c0,0,0.1,0,0.1,0.1c0,0,0,0,0,0.1
					c0,0,0,0.1,0,0.1c0,0,0,0.1,0,0.1c0,0,0,0,0,0c0,0,0,0,0,0c0,0,0,0,0,0.1c0,0,0,0-0.1,0.1c0,0,0,0,0,0s0,0,0,0.1
					c0,0,0,0-0.1,0.1c0,0-0.1,0.1-0.1,0.1c0,0-0.1,0.1-0.1,0.1c0,0-0.1,0-0.1,0.1c0,0,0,0,0,0c0,0-0.1,0.1-0.1,0.1
					c-0.1,0-0.1,0.1-0.1,0.1c-0.1,0-0.1,0-0.2,0.1c-0.1,0-0.1,0.1-0.2,0c0,0,0,0,0,0c0,0,0,0,0,0c0,0,0,0,0,0.1c0,0,0,0,0,0
					c0,0,0.1,0.1,0.1,0.1c0.1,0,0.1,0.1,0.2,0.1c0.2,0.1,0.3,0.1,0.5,0c0.1,0,0.1,0,0.1,0c0,0,0.1,0,0.2-0.1c0.1,0,0.1-0.1,0.2-0.1
					l0.1,0c0,0,0,0,0,0c0,0,0,0,0,0c0,0,0,0,0,0c0,0,0,0,0,0l0.2-0.1c0.1,0,0.1-0.1,0.1-0.1c0,0,0.1-0.1,0.2-0.1c0,0,0,0,0,0
					c0,0,0,0,0.1-0.1c0,0,0.1,0,0.1-0.1c0,0,0,0,0.1,0l0.1-0.1c0.1,0,0.1-0.1,0.1-0.1c0,0,0.1,0,0.1-0.1c0,0,0,0,0,0.1c0,0,0,0,0,0
					c0,0,0,0.1-0.1,0.1C35,73.8,35,73.8,34.9,73.9C35,73.9,35,73.9,34.9,73.9C35,73.9,34.9,73.9,34.9,73.9z M33.4,73.1
					C33.4,73.1,33.3,73.1,33.4,73.1c-0.1,0.1-0.1,0.1-0.1,0.1c0,0,0,0,0,0c0,0,0,0,0,0c0,0,0,0,0,0l-0.1,0c0,0,0,0-0.1,0.1
					c0,0,0,0-0.1,0c0,0-0.1,0.1-0.1,0.1c0,0-0.1,0.1-0.1,0.1c-0.1,0-0.1,0.1-0.1,0.1c-0.1,0.1-0.1,0.1-0.1,0.2
					c0,0.1-0.1,0.1-0.1,0.2c0.1,0,0.2-0.1,0.3-0.1c0.1-0.1,0.2-0.1,0.3-0.2c0,0,0.1,0,0.1-0.1c0,0,0.1-0.1,0.1-0.1
					c0,0,0.1-0.1,0.1-0.1c0.1-0.1,0.1-0.1,0.1-0.2C33.4,73.2,33.4,73.2,33.4,73.1C33.5,73.1,33.5,73.1,33.4,73.1
					C33.4,73.1,33.4,73.1,33.4,73.1C33.4,73.1,33.4,73.1,33.4,73.1z"/>
				<path class="st0" d="M34.7,74.6C34.7,74.6,34.7,74.5,34.7,74.6c0.1-0.1,0.1-0.1,0.1-0.2c0,0,0,0,0,0c0,0,0,0,0,0
					c0.1,0,0.1-0.1,0.1-0.1c0,0,0,0,0.1,0c0,0,0,0,0.1-0.1l0,0c0,0,0,0,0,0s0,0,0,0c0,0,0,0,0,0c0,0,0,0,0,0c0,0,0,0,0,0
					c0,0,0,0,0,0c0,0,0,0,0,0c0,0,0.1-0.1,0.1-0.1c0,0,0.1,0,0.1-0.1c0.1,0,0.1-0.1,0.2-0.1c0.1,0,0.1-0.1,0.2-0.1
					c0-0.1,0-0.2,0-0.3c0-0.1,0-0.2-0.1-0.3c0,0,0,0-0.1,0.1c0,0-0.1,0.1-0.1,0.1l-0.1,0.1l-0.1,0.1l-0.1,0.1c0,0-0.1,0.1-0.1,0.1
					c0,0-0.1,0-0.1,0.1c0,0-0.1,0.1-0.1,0.1c0,0-0.1,0-0.1,0c0,0,0,0,0,0c0,0,0,0,0,0s0,0,0,0c0,0,0,0,0,0c0,0,0,0,0,0c0,0,0,0,0,0
					c0,0,0,0,0,0c0,0,0,0,0,0c0,0,0.1,0,0.1-0.1c0,0,0,0,0-0.1c0,0,0-0.1,0-0.1c0,0,0,0,0.1,0c0,0,0,0,0.1,0c0,0,0,0,0,0
					c0,0,0,0,0,0c0,0,0,0,0.1,0s0,0,0,0c0-0.1,0.1-0.1,0.1-0.1c0,0,0.1-0.1,0.1-0.1c0-0.1,0.1-0.2,0.2-0.2c0.1,0,0.1,0,0.2,0
					c0.1,0,0.1,0,0.1,0c0,0,0.1,0.1,0.1,0.1c0,0,0,0,0,0.1c0,0,0,0.1,0,0.1c0,0,0,0.1,0,0.1c0,0,0,0.1,0,0.1c0,0,0.1,0,0.2,0
					c0.1,0,0.1,0,0.2-0.1c0.1,0,0.2-0.1,0.2-0.1c0.1,0,0.1,0,0.1,0c0,0,0,0,0,0c0,0,0,0,0,0c0,0,0,0,0,0c0,0,0.1,0,0.1,0
					c0,0,0.1,0,0.1,0c0,0,0,0,0,0c0,0,0,0,0,0v0v0c0,0,0,0,0,0c0.1,0,0.1,0,0.1,0c0,0,0.1,0,0.1,0c0,0,0,0,0.1,0c0,0,0,0,0,0l0.1,0
					c0,0,0,0,0,0c0,0,0,0,0,0c0,0,0,0,0,0s0,0,0,0c0,0,0,0,0,0c0,0,0,0,0,0c0,0,0,0,0,0c0,0,0,0,0,0c0,0,0,0-0.1,0c0,0,0,0-0.1,0
					c0,0,0,0,0,0c0,0,0,0,0,0c0,0-0.1,0-0.1,0c0,0,0,0-0.1,0c0,0-0.1,0-0.1,0s-0.1,0-0.1,0c0,0,0,0,0,0c0,0,0,0-0.1,0c0,0,0,0-0.1,0
					c0,0-0.1,0-0.1,0c0,0-0.1,0-0.1,0l-0.6,0.2c0,0-0.1,0-0.1,0.1c0,0-0.1,0-0.1,0.1c0,0.1,0,0.1,0,0.2c0,0,0,0.1,0,0.1c0,0,0,0,0,0
					c0,0,0,0,0,0.1c0,0,0,0,0,0c0,0,0,0,0,0c0,0,0,0.1,0,0.1c0,0,0,0.1-0.1,0.1c0,0,0,0,0,0s0,0,0,0c0,0,0,0,0,0c0,0,0,0,0,0
					c0,0,0,0,0,0s0,0,0,0c0,0,0,0,0,0c0,0,0,0,0,0c0,0-0.1,0.1-0.1,0.1c0,0,0,0.1-0.1,0.1c0,0,0,0,0,0s0,0,0,0
					c-0.1,0.1-0.1,0.1-0.2,0.2c-0.1,0.1-0.2,0.1-0.3,0.1c0,0,0,0,0,0c0,0,0,0,0,0c0,0,0,0,0,0c0,0,0,0,0,0c0,0,0,0-0.1,0
					c0,0,0,0-0.1,0c0,0,0,0,0,0v0c0,0,0,0-0.1,0c0,0,0,0-0.1,0c0,0,0,0,0,0c0,0,0,0,0,0c-0.1,0-0.2,0-0.2,0c-0.1,0-0.1-0.1-0.2-0.1
					c0,0,0,0,0,0c0,0,0,0,0,0c0,0,0,0,0,0c0,0,0,0,0,0c0,0,0,0,0,0c0,0,0,0,0,0c0,0,0,0,0,0c0,0,0,0,0,0c0,0,0,0,0,0c0,0,0,0,0,0
					c0,0,0,0,0,0c0,0,0,0,0,0c0-0.1,0-0.1,0-0.1c0,0,0,0,0,0c0,0,0,0,0,0c0,0,0,0,0.1-0.1C34.6,74.7,34.6,74.7,34.7,74.6
					C34.6,74.7,34.7,74.7,34.7,74.6C34.7,74.6,34.7,74.6,34.7,74.6z M34.8,74.6C34.8,74.5,34.8,74.5,34.8,74.6
					C34.8,74.5,34.8,74.6,34.8,74.6z M35.3,74.4C35.3,74.4,35.3,74.4,35.3,74.4C35.3,74.4,35.3,74.4,35.3,74.4
					c-0.1,0.1-0.1,0.1-0.1,0.1c0,0-0.1,0.1-0.1,0.1c0,0,0,0,0,0c0,0,0,0,0,0c0,0,0,0,0,0c0,0,0,0-0.1,0.1c0,0,0,0,0,0
					c0,0,0,0.1-0.1,0.1s-0.1,0.1-0.1,0.1c0,0,0,0,0,0c0,0,0,0,0,0c0.1,0,0.1,0,0.2-0.1c0.1,0,0.1,0,0.2-0.1c0,0,0,0,0,0c0,0,0,0,0,0
					c0.1-0.1,0.2-0.2,0.3-0.3c0.1-0.1,0.1-0.2,0.2-0.4l0,0c-0.1,0-0.1,0.1-0.2,0.1C35.4,74.4,35.4,74.4,35.3,74.4z M35.2,75.3
					C35.2,75.3,35.2,75.3,35.2,75.3C35.2,75.2,35.2,75.2,35.2,75.3C35.2,75.2,35.2,75.3,35.2,75.3z"/>
				<path class="st0" d="M37.1,74.6C37.1,74.6,37.1,74.5,37.1,74.6c0.1-0.1,0.1-0.1,0.1-0.2c0,0,0,0,0,0c0,0,0,0,0,0
					c0.1,0,0.1-0.1,0.1-0.1c0,0,0,0,0.1,0c0,0,0,0,0.1-0.1l0,0c0,0,0,0,0,0s0,0,0,0c0,0,0,0,0,0c0,0,0,0,0,0c0,0,0,0,0,0
					c0,0,0,0,0,0c0,0,0,0,0,0c0,0,0.1-0.1,0.1-0.1c0,0,0.1,0,0.1-0.1c0.1,0,0.1-0.1,0.2-0.1c0.1,0,0.1-0.1,0.2-0.1
					c0-0.1,0-0.2,0-0.3c0-0.1,0-0.2-0.1-0.3c0,0,0,0-0.1,0.1c0,0-0.1,0.1-0.1,0.1l-0.1,0.1l-0.1,0.1l-0.1,0.1c0,0-0.1,0.1-0.1,0.1
					c0,0-0.1,0-0.1,0.1c0,0-0.1,0.1-0.1,0.1s-0.1,0-0.1,0c0,0,0,0,0,0c0,0,0,0,0,0c0,0,0,0,0,0c0,0,0,0,0,0c0,0,0,0,0,0c0,0,0,0,0,0
					c0,0,0,0,0,0c0,0,0,0,0,0c0,0,0.1,0,0.1-0.1c0,0,0,0,0-0.1c0,0,0-0.1,0-0.1c0,0,0,0,0.1,0s0,0,0.1,0c0,0,0,0,0,0c0,0,0,0,0,0
					c0,0,0,0,0.1,0c0,0,0,0,0,0c0-0.1,0.1-0.1,0.1-0.1c0,0,0.1-0.1,0.1-0.1c0-0.1,0.1-0.2,0.2-0.2c0.1,0,0.1,0,0.2,0
					c0.1,0,0.1,0,0.1,0c0,0,0.1,0.1,0.1,0.1c0,0,0,0,0,0.1c0,0,0,0.1,0,0.1c0,0,0,0.1,0,0.1c0,0,0,0.1,0,0.1c0,0,0.1,0,0.2,0
					c0.1,0,0.1,0,0.2-0.1c0.1,0,0.2-0.1,0.2-0.1c0.1,0,0.1,0,0.1,0c0,0,0,0,0,0c0,0,0,0,0,0c0,0,0,0,0,0c0,0,0.1,0,0.1,0
					c0,0,0.1,0,0.1,0c0,0,0,0,0,0c0,0,0,0,0,0v0v0c0,0,0,0,0,0c0.1,0,0.1,0,0.1,0c0,0,0.1,0,0.1,0c0,0,0,0,0.1,0c0,0,0,0,0,0l0.1,0
					c0,0,0,0,0,0c0,0,0,0,0,0c0,0,0,0,0,0s0,0,0,0c0,0,0,0,0,0c0,0,0,0,0,0c0,0,0,0,0,0c0,0,0,0,0,0c0,0,0,0-0.1,0c0,0,0,0-0.1,0
					c0,0,0,0,0,0c0,0,0,0,0,0c0,0-0.1,0-0.1,0c0,0,0,0-0.1,0c0,0-0.1,0-0.1,0s-0.1,0-0.1,0c0,0,0,0,0,0c0,0,0,0-0.1,0c0,0,0,0-0.1,0
					c0,0-0.1,0-0.1,0c0,0-0.1,0-0.1,0l-0.6,0.2c0,0-0.1,0-0.1,0.1c0,0-0.1,0-0.1,0.1c0,0.1,0,0.1,0,0.2c0,0,0,0.1,0,0.1c0,0,0,0,0,0
					c0,0,0,0,0,0.1c0,0,0,0,0,0c0,0,0,0,0,0c0,0,0,0.1,0,0.1c0,0,0,0.1-0.1,0.1c0,0,0,0,0,0c0,0,0,0,0,0c0,0,0,0,0,0c0,0,0,0,0,0
					c0,0,0,0,0,0s0,0,0,0c0,0,0,0,0,0c0,0,0,0,0,0c0,0-0.1,0.1-0.1,0.1c0,0,0,0.1-0.1,0.1c0,0,0,0,0,0s0,0,0,0
					c-0.1,0.1-0.1,0.1-0.2,0.2c-0.1,0.1-0.2,0.1-0.3,0.1c0,0,0,0,0,0c0,0,0,0,0,0c0,0,0,0,0,0c0,0,0,0,0,0c0,0,0,0-0.1,0
					c0,0,0,0-0.1,0c0,0,0,0,0,0v0c0,0,0,0-0.1,0c0,0,0,0-0.1,0c0,0,0,0,0,0c0,0,0,0,0,0c-0.1,0-0.2,0-0.2,0c-0.1,0-0.1-0.1-0.2-0.1
					c0,0,0,0,0,0c0,0,0,0,0,0c0,0,0,0,0,0c0,0,0,0,0,0c0,0,0,0,0,0c0,0,0,0,0,0c0,0,0,0,0,0c0,0,0,0,0,0c0,0,0,0,0,0c0,0,0,0,0,0
					c0,0,0,0,0,0c0,0,0,0,0,0c0-0.1,0-0.1,0-0.1c0,0,0,0,0,0c0,0,0,0,0,0c0,0,0,0,0.1-0.1C36.9,74.7,37,74.7,37.1,74.6
					C37,74.7,37,74.7,37.1,74.6C37,74.6,37,74.6,37.1,74.6z M37.1,74.6C37.1,74.5,37.1,74.5,37.1,74.6
					C37.1,74.5,37.1,74.6,37.1,74.6z M37.7,74.4C37.7,74.4,37.7,74.4,37.7,74.4C37.7,74.4,37.7,74.4,37.7,74.4
					c-0.1,0.1-0.1,0.1-0.1,0.1c0,0-0.1,0.1-0.1,0.1c0,0,0,0,0,0c0,0,0,0,0,0s0,0,0,0c0,0,0,0-0.1,0.1c0,0,0,0,0,0c0,0,0,0.1-0.1,0.1
					c0,0-0.1,0.1-0.1,0.1c0,0,0,0,0,0c0,0,0,0,0,0c0.1,0,0.1,0,0.2-0.1c0.1,0,0.1,0,0.2-0.1c0,0,0,0,0,0c0,0,0,0,0,0
					c0.1-0.1,0.2-0.2,0.3-0.3c0.1-0.1,0.1-0.2,0.2-0.4l0,0c-0.1,0-0.1,0.1-0.2,0.1C37.8,74.4,37.7,74.4,37.7,74.4z M37.5,75.3
					C37.6,75.3,37.6,75.3,37.5,75.3C37.6,75.2,37.6,75.2,37.5,75.3C37.5,75.2,37.5,75.3,37.5,75.3z"/>
				<path class="st0" d="M42.1,73.9C42.1,73.9,42.1,74,42.1,73.9C42,74,42,74.1,41.9,74.1c0,0,0,0-0.1,0.1c0,0-0.1,0-0.1,0.1l0,0
					l-0.1,0.1l-0.1,0l-0.1,0.1c-0.1,0.1-0.2,0.1-0.2,0.2c-0.1,0-0.2,0.1-0.3,0.1c0,0,0,0,0,0c0,0,0,0,0,0c0,0,0,0-0.1,0
					c0,0,0,0-0.1,0c0,0,0,0-0.1,0c0,0,0,0,0,0c0,0,0,0-0.1,0c0,0,0,0-0.1,0c0,0,0,0,0,0c0,0,0,0,0,0c0,0,0,0,0,0c0,0,0,0-0.1,0
					c0,0,0,0,0,0c0,0,0,0,0,0c0,0,0,0-0.1,0c0,0,0,0-0.1,0c0,0,0,0,0,0c0,0,0,0,0,0l0,0c-0.1,0-0.1,0-0.2,0c0,0,0,0,0,0c0,0,0,0,0,0
					c-0.1,0-0.1,0-0.1,0c0,0-0.1,0-0.1-0.1c-0.1,0-0.1-0.1-0.2-0.1s-0.1-0.1-0.1-0.1c0,0,0-0.1,0-0.1c0,0,0-0.1,0-0.1
					c0,0,0-0.1,0-0.1c0,0,0-0.1,0-0.1c0-0.1,0-0.1,0-0.2c0-0.1,0.1-0.2,0.1-0.2l0.2-0.2l0.1-0.1c0,0,0.1-0.1,0.1-0.1
					c0,0,0.1,0,0.1-0.1c0,0,0.1,0,0.1-0.1c0,0,0.1,0,0.1-0.1c0,0,0.1-0.1,0.1-0.1c0,0,0.1,0,0.1-0.1c0,0,0.1,0,0.1,0c0,0,0,0,0.1,0
					c0,0,0,0,0.1,0c0,0,0,0,0,0c0,0,0,0,0,0c0,0,0.1,0.1,0.1,0.1c0,0,0.1,0.1,0.1,0.1c0,0,0.1,0,0.1,0.1c0,0,0,0,0,0.1
					c0,0,0,0.1,0,0.1c0,0,0,0.1,0,0.1c0,0,0,0,0,0c0,0,0,0,0,0c0,0,0,0,0,0.1c0,0,0,0-0.1,0.1c0,0,0,0,0,0s0,0,0,0.1
					c0,0,0,0-0.1,0.1c0,0-0.1,0.1-0.1,0.1c0,0-0.1,0.1-0.1,0.1s-0.1,0-0.1,0.1c0,0,0,0,0,0c0,0-0.1,0.1-0.1,0.1
					c-0.1,0-0.1,0.1-0.1,0.1c-0.1,0-0.1,0-0.2,0.1c-0.1,0-0.1,0.1-0.2,0c0,0,0,0,0,0c0,0,0,0,0,0c0,0,0,0,0,0.1c0,0,0,0,0,0
					c0,0,0.1,0.1,0.1,0.1c0.1,0,0.1,0.1,0.2,0.1c0.2,0.1,0.3,0.1,0.5,0c0.1,0,0.1,0,0.1,0c0,0,0.1,0,0.2-0.1c0.1,0,0.1-0.1,0.2-0.1
					l0.1,0c0,0,0,0,0,0c0,0,0,0,0,0c0,0,0,0,0,0c0,0,0,0,0,0l0.2-0.1c0.1,0,0.1-0.1,0.1-0.1c0,0,0.1-0.1,0.2-0.1c0,0,0,0,0,0
					c0,0,0,0,0.1-0.1c0,0,0.1,0,0.1-0.1c0,0,0,0,0.1,0l0.1-0.1c0.1,0,0.1-0.1,0.1-0.1c0,0,0.1,0,0.1-0.1c0,0,0,0,0,0.1c0,0,0,0,0,0
					c0,0,0,0.1-0.1,0.1C42.2,73.8,42.2,73.8,42.1,73.9C42.2,73.9,42.2,73.9,42.1,73.9C42.1,73.9,42.1,73.9,42.1,73.9z M40.6,73.1
					C40.5,73.1,40.5,73.1,40.6,73.1c-0.1,0.1-0.1,0.1-0.1,0.1c0,0,0,0,0,0c0,0,0,0,0,0c0,0,0,0,0,0l-0.1,0c0,0,0,0-0.1,0.1
					c0,0,0,0-0.1,0c0,0-0.1,0.1-0.1,0.1c0,0-0.1,0.1-0.1,0.1c-0.1,0-0.1,0.1-0.1,0.1c-0.1,0.1-0.1,0.1-0.1,0.2
					c0,0.1-0.1,0.1-0.1,0.2c0.1,0,0.2-0.1,0.3-0.1c0.1-0.1,0.2-0.1,0.3-0.2c0,0,0.1,0,0.1-0.1c0,0,0.1-0.1,0.1-0.1
					c0,0,0.1-0.1,0.1-0.1c0.1-0.1,0.1-0.1,0.1-0.2C40.6,73.2,40.6,73.2,40.6,73.1C40.6,73.1,40.6,73.1,40.6,73.1
					C40.6,73.1,40.6,73.1,40.6,73.1C40.6,73.1,40.6,73.1,40.6,73.1z"/>
			</g>
		</g>
	</g>
</g>
</svg>
