<?xml version="1.0" encoding="utf-8"?>
<!-- Generator: Adobe Illustrator 23.0.1, SVG Export Plug-In . SVG Version: 6.00 Build 0)  -->
<svg version="1.1" id="Camada_3" xmlns="http://www.w3.org/2000/svg" xmlns:xlink="http://www.w3.org/1999/xlink" x="0px" y="0px"
	 viewBox="0 0 238.6 237.6" style="enable-background:new 0 0 238.6 237.6;" xml:space="preserve">
<style type="text/css">
	.st0{fill:none;}
	.st1{fill:#1A1746;}
</style>
<g>
	<rect x="25.4" y="22.6" class="st0" width="185.8" height="191.1"/>
	<rect x="189.5" y="34" class="st0" width="10.1" height="9.8"/>
	<rect x="189.5" y="44.6" class="st0" width="10.1" height="9.8"/>
	<rect x="189.5" y="55.1" class="st0" width="10.1" height="9.8"/>
	<rect x="189.5" y="65.7" class="st0" width="10.1" height="9.8"/>
	<rect x="189.5" y="76.3" class="st0" width="10.1" height="9.8"/>
	<rect x="189.5" y="86.9" class="st0" width="10.1" height="9.8"/>
	<rect x="189.5" y="97.4" class="st0" width="10.1" height="9.8"/>
	<rect x="189.5" y="108" class="st0" width="10.1" height="9.8"/>
	<rect x="189.5" y="118.6" class="st0" width="10.1" height="9.8"/>
	<rect x="189.5" y="129.2" class="st0" width="10.1" height="9.8"/>
	<rect x="189.5" y="139.7" class="st0" width="10.1" height="9.8"/>
	<rect x="189.5" y="150.3" class="st0" width="10.1" height="9.8"/>
	<rect x="189.5" y="160.9" class="st0" width="10.1" height="9.8"/>
	<rect x="189.5" y="171.5" class="st0" width="10.1" height="9.8"/>
	<rect x="189.5" y="182" class="st0" width="10.1" height="9.8"/>
	<rect x="189.5" y="192.6" class="st0" width="10.1" height="9.8"/>
	<rect x="178.6" y="34" class="st0" width="10.1" height="9.8"/>
	<rect x="178.6" y="44.6" class="st0" width="10.1" height="9.8"/>
	<rect x="178.6" y="55.1" class="st0" width="10.1" height="9.8"/>
	<rect x="178.6" y="65.7" class="st0" width="10.1" height="9.8"/>
	<rect x="178.6" y="76.3" class="st0" width="10.1" height="9.8"/>
	<rect x="178.6" y="86.9" class="st0" width="10.1" height="9.8"/>
	<rect x="178.6" y="129.2" class="st0" width="10.1" height="9.8"/>
	<rect x="178.6" y="139.7" class="st0" width="10.1" height="9.8"/>
	<rect x="178.6" y="150.3" class="st0" width="10.1" height="9.8"/>
	<rect x="178.6" y="160.9" class="st0" width="10.1" height="9.8"/>
	<rect x="178.6" y="171.5" class="st0" width="10.1" height="9.8"/>
	<rect x="178.6" y="192.6" class="st0" width="10.1" height="9.8"/>
	<rect x="167.7" y="34" class="st0" width="10.1" height="9.8"/>
	<rect x="167.7" y="44.6" class="st0" width="10.1" height="9.8"/>
	<rect x="167.7" y="55.1" class="st0" width="10.1" height="9.8"/>
	<rect x="167.7" y="65.7" class="st0" width="10.1" height="9.8"/>
	<rect x="167.7" y="76.3" class="st0" width="10.1" height="9.8"/>
	<rect x="167.7" y="97.4" class="st0" width="10.1" height="9.8"/>
	<rect x="167.7" y="108" class="st0" width="10.1" height="9.8"/>
	<rect x="167.7" y="118.6" class="st0" width="10.1" height="9.8"/>
	<rect x="167.7" y="139.7" class="st0" width="10.1" height="9.8"/>
	<rect x="167.7" y="150.3" class="st0" width="10.1" height="9.8"/>
	<rect x="167.7" y="160.9" class="st0" width="10.1" height="9.8"/>
	<rect x="167.7" y="182" class="st0" width="10.1" height="9.8"/>
	<rect x="167.7" y="192.6" class="st0" width="10.1" height="9.8"/>
	<rect x="156.8" y="34" class="st0" width="10.1" height="9.8"/>
	<rect x="156.8" y="44.6" class="st0" width="10.1" height="9.8"/>
	<rect x="156.8" y="55.1" class="st0" width="10.1" height="9.8"/>
	<rect x="156.8" y="65.7" class="st0" width="10.1" height="9.8"/>
	<rect x="156.8" y="76.3" class="st0" width="10.1" height="9.8"/>
	<rect x="156.8" y="97.4" class="st0" width="10.1" height="9.8"/>
	<rect x="156.8" y="108" class="st0" width="10.1" height="9.8"/>
	<rect x="156.8" y="118.6" class="st0" width="10.1" height="9.8"/>
	<rect x="156.8" y="139.7" class="st0" width="10.1" height="9.8"/>
	<rect x="156.8" y="150.3" class="st0" width="10.1" height="9.8"/>
	<rect x="156.8" y="171.5" class="st0" width="10.1" height="9.8"/>
	<rect x="156.8" y="182" class="st0" width="10.1" height="9.8"/>
	<rect x="156.8" y="192.6" class="st0" width="10.1" height="9.8"/>
	<rect x="145.9" y="34" class="st0" width="10.1" height="9.8"/>
	<rect x="145.9" y="44.6" class="st0" width="10.1" height="9.8"/>
	<rect x="145.9" y="55.1" class="st0" width="10.1" height="9.8"/>
	<rect x="145.9" y="65.7" class="st0" width="10.1" height="9.8"/>
	<rect x="145.9" y="76.3" class="st0" width="10.1" height="9.8"/>
	<rect x="145.9" y="97.4" class="st0" width="10.1" height="9.8"/>
	<rect x="145.9" y="108" class="st0" width="10.1" height="9.8"/>
	<rect x="145.9" y="118.6" class="st0" width="10.1" height="9.8"/>
	<rect x="145.9" y="139.7" class="st0" width="10.1" height="9.8"/>
	<rect x="145.9" y="160.9" class="st0" width="10.1" height="9.8"/>
	<rect x="145.9" y="171.5" class="st0" width="10.1" height="9.8"/>
	<rect x="145.9" y="182" class="st0" width="10.1" height="9.8"/>
	<rect x="145.9" y="192.6" class="st0" width="10.1" height="9.8"/>
	<rect x="135.1" y="34" class="st0" width="10.1" height="9.8"/>
	<rect x="135.1" y="44.6" class="st0" width="10.1" height="9.8"/>
	<rect x="135.1" y="55.1" class="st0" width="10.1" height="9.8"/>
	<rect x="135.1" y="65.7" class="st0" width="10.1" height="9.8"/>
	<rect x="135.1" y="76.3" class="st0" width="10.1" height="9.8"/>
	<rect x="135.1" y="97.4" class="st0" width="10.1" height="9.8"/>
	<rect x="135.1" y="108" class="st0" width="10.1" height="9.8"/>
	<rect x="135.1" y="118.6" class="st0" width="10.1" height="9.8"/>
	<rect x="135.1" y="150.3" class="st0" width="10.1" height="9.8"/>
	<rect x="135.1" y="160.9" class="st0" width="10.1" height="9.8"/>
	<rect x="135.1" y="171.5" class="st0" width="10.1" height="9.8"/>
	<rect x="135.1" y="182" class="st0" width="10.1" height="9.8"/>
	<rect x="135.1" y="192.6" class="st0" width="10.1" height="9.8"/>
	<rect x="124.2" y="34" class="st0" width="10.1" height="9.8"/>
	<rect x="124.2" y="44.6" class="st0" width="10.1" height="9.8"/>
	<rect x="124.2" y="55.1" class="st0" width="10.1" height="9.8"/>
	<rect x="124.2" y="65.7" class="st0" width="10.1" height="9.8"/>
	<rect x="124.2" y="76.3" class="st0" width="10.1" height="9.8"/>
	<rect x="124.2" y="192.6" class="st0" width="10.1" height="9.8"/>
	<rect x="113.3" y="34" class="st0" width="10.1" height="9.8"/>
	<rect x="113.3" y="44.6" class="st0" width="10.1" height="9.8"/>
	<rect x="113.3" y="55.1" class="st0" width="10.1" height="9.8"/>
	<rect x="113.3" y="65.7" class="st0" width="10.1" height="9.8"/>
	<rect x="113.3" y="76.3" class="st0" width="10.1" height="9.8"/>
	<rect x="113.3" y="86.9" class="st0" width="10.1" height="9.8"/>
	<rect x="113.3" y="97.4" class="st0" width="10.1" height="9.8"/>
	<rect x="113.3" y="108" class="st0" width="10.1" height="9.8"/>
	<rect x="113.3" y="118.6" class="st0" width="10.1" height="9.8"/>
	<rect x="113.3" y="129.2" class="st0" width="10.1" height="9.8"/>
	<rect x="113.3" y="139.7" class="st0" width="10.1" height="9.8"/>
	<rect x="113.3" y="150.3" class="st0" width="10.1" height="9.8"/>
	<rect x="113.3" y="160.9" class="st0" width="10.1" height="9.8"/>
	<rect x="113.3" y="171.5" class="st0" width="10.1" height="9.8"/>
	<rect x="113.3" y="182" class="st0" width="10.1" height="9.8"/>
	<rect x="113.3" y="192.6" class="st0" width="10.1" height="9.8"/>
	<rect x="102.4" y="34" class="st0" width="10.1" height="9.8"/>
	<rect x="102.4" y="44.6" class="st0" width="10.1" height="9.8"/>
	<rect x="102.4" y="86.9" class="st0" width="10.1" height="9.8"/>
	<rect x="102.4" y="97.4" class="st0" width="10.1" height="9.8"/>
	<rect x="102.4" y="108" class="st0" width="10.1" height="9.8"/>
	<rect x="102.4" y="118.6" class="st0" width="10.1" height="9.8"/>
	<rect x="102.4" y="129.2" class="st0" width="10.1" height="9.8"/>
	<rect x="102.4" y="139.7" class="st0" width="10.1" height="9.8"/>
	<rect x="102.4" y="150.3" class="st0" width="10.1" height="9.8"/>
	<rect x="102.4" y="160.9" class="st0" width="10.1" height="9.8"/>
	<rect x="102.4" y="171.5" class="st0" width="10.1" height="9.8"/>
	<rect x="102.4" y="182" class="st0" width="10.1" height="9.8"/>
	<rect x="102.4" y="192.6" class="st0" width="10.1" height="9.8"/>
	<rect x="91.5" y="34" class="st0" width="10.1" height="9.8"/>
	<rect x="91.5" y="55.1" class="st0" width="10.1" height="9.8"/>
	<rect x="91.5" y="65.7" class="st0" width="10.1" height="9.8"/>
	<rect x="91.5" y="76.3" class="st0" width="10.1" height="9.8"/>
	<rect x="91.5" y="97.4" class="st0" width="10.1" height="9.8"/>
	<rect x="91.5" y="108" class="st0" width="10.1" height="9.8"/>
	<rect x="91.5" y="118.6" class="st0" width="10.1" height="9.8"/>
	<rect x="91.5" y="129.2" class="st0" width="10.1" height="9.8"/>
	<rect x="91.5" y="139.7" class="st0" width="10.1" height="9.8"/>
	<rect x="91.5" y="150.3" class="st0" width="10.1" height="9.8"/>
	<rect x="91.5" y="160.9" class="st0" width="10.1" height="9.8"/>
	<rect x="91.5" y="171.5" class="st0" width="10.1" height="9.8"/>
	<rect x="91.5" y="182" class="st0" width="10.1" height="9.8"/>
	<rect x="91.5" y="192.6" class="st0" width="10.1" height="9.8"/>
	<rect x="80.6" y="34" class="st0" width="10.1" height="9.8"/>
	<rect x="80.6" y="55.1" class="st0" width="10.1" height="9.8"/>
	<rect x="80.6" y="65.7" class="st0" width="10.1" height="9.8"/>
	<rect x="80.6" y="76.3" class="st0" width="10.1" height="9.8"/>
	<rect x="80.6" y="97.4" class="st0" width="10.1" height="9.8"/>
	<rect x="80.6" y="108" class="st0" width="10.1" height="9.8"/>
	<rect x="80.6" y="118.6" class="st0" width="10.1" height="9.8"/>
	<rect x="80.6" y="129.2" class="st0" width="10.1" height="9.8"/>
	<rect x="80.6" y="139.7" class="st0" width="10.1" height="9.8"/>
	<rect x="80.6" y="150.3" class="st0" width="10.1" height="9.8"/>
	<rect x="80.6" y="160.9" class="st0" width="10.1" height="9.8"/>
	<rect x="80.6" y="171.5" class="st0" width="10.1" height="9.8"/>
	<rect x="80.6" y="182" class="st0" width="10.1" height="9.8"/>
	<rect x="80.6" y="192.6" class="st0" width="10.1" height="9.8"/>
	<rect x="69.8" y="34" class="st0" width="10.1" height="9.8"/>
	<rect x="69.8" y="55.1" class="st0" width="10.1" height="9.8"/>
	<rect x="69.8" y="65.7" class="st0" width="10.1" height="9.8"/>
	<rect x="69.8" y="76.3" class="st0" width="10.1" height="9.8"/>
	<rect x="69.8" y="97.4" class="st0" width="10.1" height="9.8"/>
	<rect x="69.8" y="108" class="st0" width="10.1" height="9.8"/>
	<rect x="69.8" y="118.6" class="st0" width="10.1" height="9.8"/>
	<rect x="69.8" y="129.2" class="st0" width="10.1" height="9.8"/>
	<rect x="69.8" y="139.7" class="st0" width="10.1" height="9.8"/>
	<rect x="69.8" y="150.3" class="st0" width="10.1" height="9.8"/>
	<rect x="69.8" y="160.9" class="st0" width="10.1" height="9.8"/>
	<rect x="69.8" y="171.5" class="st0" width="10.1" height="9.8"/>
	<rect x="69.8" y="182" class="st0" width="10.1" height="9.8"/>
	<rect x="69.8" y="192.6" class="st0" width="10.1" height="9.8"/>
	<rect x="58.9" y="34" class="st0" width="10.1" height="9.8"/>
	<rect x="58.9" y="55.1" class="st0" width="10.1" height="9.8"/>
	<rect x="58.9" y="65.7" class="st0" width="10.1" height="9.8"/>
	<rect x="58.9" y="76.3" class="st0" width="10.1" height="9.8"/>
	<rect x="58.9" y="97.4" class="st0" width="10.1" height="9.8"/>
	<rect x="58.9" y="108" class="st0" width="10.1" height="9.8"/>
	<rect x="58.9" y="118.6" class="st0" width="10.1" height="9.8"/>
	<rect x="58.9" y="129.2" class="st0" width="10.1" height="9.8"/>
	<rect x="58.9" y="139.7" class="st0" width="10.1" height="9.8"/>
	<rect x="58.9" y="150.3" class="st0" width="10.1" height="9.8"/>
	<rect x="58.9" y="160.9" class="st0" width="10.1" height="9.8"/>
	<rect x="58.9" y="171.5" class="st0" width="10.1" height="9.8"/>
	<rect x="58.9" y="182" class="st0" width="10.1" height="9.8"/>
	<rect x="58.9" y="192.6" class="st0" width="10.1" height="9.8"/>
	<rect x="48" y="34" class="st0" width="10.1" height="9.8"/>
	<rect x="48" y="150.3" class="st0" width="10.1" height="9.8"/>
	<rect x="48" y="160.9" class="st0" width="10.1" height="9.8"/>
	<rect x="48" y="171.5" class="st0" width="10.1" height="9.8"/>
	<rect x="48" y="182" class="st0" width="10.1" height="9.8"/>
	<rect x="48" y="192.6" class="st0" width="10.1" height="9.8"/>
	<rect x="37.1" y="34" class="st0" width="10.1" height="9.8"/>
	<rect x="37.1" y="44.6" class="st0" width="10.1" height="9.8"/>
	<rect x="37.1" y="55.1" class="st0" width="10.1" height="9.8"/>
	<rect x="37.1" y="65.7" class="st0" width="10.1" height="9.8"/>
	<rect x="37.1" y="76.3" class="st0" width="10.1" height="9.8"/>
	<rect x="37.1" y="86.9" class="st0" width="10.1" height="9.8"/>
	<rect x="37.1" y="97.4" class="st0" width="10.1" height="9.8"/>
	<rect x="37.1" y="108" class="st0" width="10.1" height="9.8"/>
	<rect x="37.1" y="118.6" class="st0" width="10.1" height="9.8"/>
	<rect x="37.1" y="129.2" class="st0" width="10.1" height="9.8"/>
	<rect x="37.1" y="139.7" class="st0" width="10.1" height="9.8"/>
	<rect x="37.1" y="150.3" class="st0" width="10.1" height="9.8"/>
	<rect x="37.1" y="160.9" class="st0" width="10.1" height="9.8"/>
	<rect x="37.1" y="171.5" class="st0" width="10.1" height="9.8"/>
	<rect x="37.1" y="182" class="st0" width="10.1" height="9.8"/>
	<rect x="37.1" y="192.6" class="st0" width="10.1" height="9.8"/>
	<g>
		<g>
			<g>
				<rect x="178.6" y="97.4" class="st1" width="10.1" height="9.8"/>
			</g>
			<g>
				<rect x="178.6" y="108" class="st1" width="10.1" height="9.8"/>
			</g>
			<g>
				<rect x="178.6" y="118.6" class="st1" width="10.1" height="9.8"/>
			</g>
			<g>
				<rect x="178.6" y="182" class="st1" width="10.1" height="9.8"/>
			</g>
			<g>
				<rect x="167.7" y="86.9" class="st1" width="10.1" height="9.8"/>
			</g>
			<g>
				<rect x="167.7" y="129.2" class="st1" width="10.1" height="9.8"/>
			</g>
			<g>
				<rect x="167.7" y="171.5" class="st1" width="10.1" height="9.8"/>
			</g>
			<g>
				<rect x="156.8" y="86.9" class="st1" width="10.1" height="9.8"/>
			</g>
			<g>
				<rect x="156.8" y="129.2" class="st1" width="10.1" height="9.8"/>
			</g>
			<g>
				<rect x="156.8" y="160.9" class="st1" width="10.1" height="9.8"/>
			</g>
			<g>
				<rect x="145.9" y="86.9" class="st1" width="10.1" height="9.8"/>
			</g>
			<g>
				<rect x="145.9" y="129.2" class="st1" width="10.1" height="9.8"/>
			</g>
			<g>
				<rect x="145.9" y="150.3" class="st1" width="10.1" height="9.8"/>
			</g>
			<g>
				<rect x="135.1" y="86.9" class="st1" width="10.1" height="9.8"/>
			</g>
			<g>
				<rect x="135.1" y="129.2" class="st1" width="10.1" height="9.8"/>
			</g>
			<g>
				<rect x="135.1" y="139.7" class="st1" width="10.1" height="9.8"/>
			</g>
			<g>
				<rect x="124.2" y="86.9" class="st1" width="10.1" height="9.8"/>
			</g>
			<g>
				<rect x="124.2" y="97.4" class="st1" width="10.1" height="9.8"/>
			</g>
			<g>
				<rect x="124.2" y="108" class="st1" width="10.1" height="9.8"/>
			</g>
			<g>
				<rect x="124.2" y="118.6" class="st1" width="10.1" height="9.8"/>
			</g>
			<g>
				<rect x="124.2" y="129.2" class="st1" width="10.1" height="9.8"/>
			</g>
			<g>
				<rect x="124.2" y="139.7" class="st1" width="10.1" height="9.8"/>
			</g>
			<g>
				<rect x="124.2" y="150.3" class="st1" width="10.1" height="9.8"/>
			</g>
			<g>
				<rect x="124.2" y="160.9" class="st1" width="10.1" height="9.8"/>
			</g>
			<g>
				<rect x="124.2" y="171.5" class="st1" width="10.1" height="9.8"/>
			</g>
			<g>
				<rect x="124.2" y="182" class="st1" width="10.1" height="9.8"/>
			</g>
			<g>
				<rect x="102.4" y="55.1" class="st1" width="10.1" height="9.8"/>
			</g>
			<g>
				<rect x="102.4" y="65.7" class="st1" width="10.1" height="9.8"/>
			</g>
			<g>
				<rect x="102.4" y="76.3" class="st1" width="10.1" height="9.8"/>
			</g>
			<g>
				<rect x="91.5" y="44.6" class="st1" width="10.1" height="9.8"/>
			</g>
			<g>
				<rect x="91.5" y="86.9" class="st1" width="10.1" height="9.8"/>
			</g>
			<g>
				<rect x="80.6" y="44.6" class="st1" width="10.1" height="9.8"/>
			</g>
			<g>
				<rect x="80.6" y="86.9" class="st1" width="10.1" height="9.8"/>
			</g>
			<g>
				<rect x="69.8" y="44.6" class="st1" width="10.1" height="9.8"/>
			</g>
			<g>
				<rect x="69.8" y="86.9" class="st1" width="10.1" height="9.8"/>
			</g>
			<g>
				<rect x="58.9" y="44.6" class="st1" width="10.1" height="9.8"/>
			</g>
			<g>
				<rect x="58.9" y="86.9" class="st1" width="10.1" height="9.8"/>
			</g>
			<g>
				<rect x="48" y="44.6" class="st1" width="10.1" height="9.8"/>
			</g>
			<g>
				<rect x="48" y="55.1" class="st1" width="10.1" height="9.8"/>
			</g>
			<g>
				<rect x="48" y="65.7" class="st1" width="10.1" height="9.8"/>
			</g>
			<g>
				<rect x="48" y="76.3" class="st1" width="10.1" height="9.8"/>
			</g>
			<g>
				<rect x="48" y="86.9" class="st1" width="10.1" height="9.8"/>
			</g>
			<g>
				<rect x="48" y="97.4" class="st1" width="10.1" height="9.8"/>
			</g>
			<g>
				<rect x="48" y="108" class="st1" width="10.1" height="9.8"/>
			</g>
			<g>
				<rect x="48" y="118.6" class="st1" width="10.1" height="9.8"/>
			</g>
			<g>
				<rect x="48" y="129.2" class="st1" width="10.1" height="9.8"/>
			</g>
			<g>
				<rect x="48" y="139.7" class="st1" width="10.1" height="9.8"/>
			</g>
			<g>
				<rect x="26.2" y="23.4" class="st1" width="10.1" height="9.8"/>
			</g>
			<g>
				<rect x="26.2" y="34" class="st1" width="10.1" height="9.8"/>
			</g>
			<g>
				<rect x="26.2" y="44.6" class="st1" width="10.1" height="9.8"/>
			</g>
			<g>
				<rect x="26.2" y="55.1" class="st1" width="10.1" height="9.8"/>
			</g>
			<g>
				<rect x="26.2" y="65.7" class="st1" width="10.1" height="9.8"/>
			</g>
			<g>
				<rect x="26.2" y="76.3" class="st1" width="10.1" height="9.8"/>
			</g>
			<g>
				<rect x="26.2" y="86.9" class="st1" width="10.1" height="9.8"/>
			</g>
			<g>
				<rect x="26.2" y="97.4" class="st1" width="10.1" height="9.8"/>
			</g>
			<g>
				<rect x="26.2" y="108" class="st1" width="10.1" height="9.8"/>
			</g>
			<g>
				<rect x="26.2" y="118.6" class="st1" width="10.1" height="9.8"/>
			</g>
			<g>
				<rect x="26.2" y="129.2" class="st1" width="10.1" height="9.8"/>
			</g>
			<g>
				<rect x="26.2" y="139.7" class="st1" width="10.1" height="9.8"/>
			</g>
			<g>
				<rect x="26.2" y="150.3" class="st1" width="10.1" height="9.8"/>
			</g>
			<g>
				<rect x="26.2" y="160.9" class="st1" width="10.1" height="9.8"/>
			</g>
			<g>
				<rect x="26.2" y="171.5" class="st1" width="10.1" height="9.8"/>
			</g>
			<g>
				<rect x="26.2" y="182" class="st1" width="10.1" height="9.8"/>
			</g>
			<g>
				<rect x="26.2" y="192.6" class="st1" width="10.1" height="9.8"/>
			</g>
			<g>
				<rect x="200.4" y="34" class="st1" width="10.1" height="9.8"/>
			</g>
			<g>
				<rect x="200.4" y="44.6" class="st1" width="10.1" height="9.8"/>
			</g>
			<g>
				<rect x="200.4" y="55.1" class="st1" width="10.1" height="9.8"/>
			</g>
			<g>
				<rect x="200.4" y="65.7" class="st1" width="10.1" height="9.8"/>
			</g>
			<g>
				<rect x="200.4" y="76.3" class="st1" width="10.1" height="9.8"/>
			</g>
			<g>
				<rect x="200.4" y="86.9" class="st1" width="10.1" height="9.8"/>
			</g>
			<g>
				<rect x="200.4" y="97.4" class="st1" width="10.1" height="9.8"/>
			</g>
			<g>
				<rect x="200.4" y="108" class="st1" width="10.1" height="9.8"/>
			</g>
			<g>
				<rect x="200.4" y="118.6" class="st1" width="10.1" height="9.8"/>
			</g>
			<g>
				<rect x="200.4" y="129.2" class="st1" width="10.1" height="9.8"/>
			</g>
			<g>
				<rect x="200.4" y="139.7" class="st1" width="10.1" height="9.8"/>
			</g>
			<g>
				<rect x="200.4" y="150.3" class="st1" width="10.1" height="9.8"/>
			</g>
			<g>
				<rect x="200.4" y="160.9" class="st1" width="10.1" height="9.8"/>
			</g>
			<g>
				<rect x="200.4" y="171.5" class="st1" width="10.1" height="9.8"/>
			</g>
			<g>
				<rect x="200.4" y="182" class="st1" width="10.1" height="9.8"/>
			</g>
			<g>
				<rect x="200.4" y="192.6" class="st1" width="10.1" height="9.8"/>
			</g>
			<g>
				<rect x="26.2" y="203.2" class="st1" width="10.1" height="9.8"/>
			</g>
			<g>
				<rect x="37.1" y="23.4" class="st1" width="10.1" height="9.8"/>
			</g>
			<g>
				<rect x="48" y="23.4" class="st1" width="10.1" height="9.8"/>
			</g>
			<g>
				<rect x="58.9" y="23.4" class="st1" width="10.1" height="9.8"/>
			</g>
			<g>
				<rect x="69.8" y="23.4" class="st1" width="10.1" height="9.8"/>
			</g>
			<g>
				<rect x="80.6" y="23.4" class="st1" width="10.1" height="9.8"/>
			</g>
			<g>
				<rect x="91.5" y="23.4" class="st1" width="10.1" height="9.8"/>
			</g>
			<g>
				<rect x="102.4" y="23.4" class="st1" width="10.1" height="9.8"/>
			</g>
			<g>
				<rect x="113.3" y="23.4" class="st1" width="10.1" height="9.8"/>
			</g>
			<g>
				<rect x="124.2" y="23.4" class="st1" width="10.1" height="9.8"/>
			</g>
			<g>
				<rect x="135.1" y="23.4" class="st1" width="10.1" height="9.8"/>
			</g>
			<g>
				<rect x="145.9" y="23.4" class="st1" width="10.1" height="9.8"/>
			</g>
			<g>
				<rect x="156.8" y="23.4" class="st1" width="10.1" height="9.8"/>
			</g>
			<g>
				<rect x="167.7" y="23.4" class="st1" width="10.1" height="9.8"/>
			</g>
			<g>
				<rect x="178.6" y="23.4" class="st1" width="10.1" height="9.8"/>
			</g>
			<g>
				<rect x="189.5" y="23.4" class="st1" width="10.1" height="9.8"/>
			</g>
			<g>
				<rect x="200.4" y="23.4" class="st1" width="10.1" height="9.8"/>
			</g>
			<g>
				<rect x="37.1" y="203.2" class="st1" width="10.1" height="9.8"/>
			</g>
			<g>
				<rect x="48" y="203.2" class="st1" width="10.1" height="9.8"/>
			</g>
			<g>
				<rect x="58.9" y="203.2" class="st1" width="10.1" height="9.8"/>
			</g>
			<g>
				<rect x="69.8" y="203.2" class="st1" width="10.1" height="9.8"/>
			</g>
			<g>
				<rect x="80.6" y="203.2" class="st1" width="10.1" height="9.8"/>
			</g>
			<g>
				<rect x="91.5" y="203.2" class="st1" width="10.1" height="9.8"/>
			</g>
			<g>
				<rect x="102.4" y="203.2" class="st1" width="10.1" height="9.8"/>
			</g>
			<g>
				<rect x="113.3" y="203.2" class="st1" width="10.1" height="9.8"/>
			</g>
			<g>
				<rect x="124.2" y="203.2" class="st1" width="10.1" height="9.8"/>
			</g>
			<g>
				<rect x="135.1" y="203.2" class="st1" width="10.1" height="9.8"/>
			</g>
			<g>
				<rect x="145.9" y="203.2" class="st1" width="10.1" height="9.8"/>
			</g>
			<g>
				<rect x="156.8" y="203.2" class="st1" width="10.1" height="9.8"/>
			</g>
			<g>
				<rect x="167.7" y="203.2" class="st1" width="10.1" height="9.8"/>
			</g>
			<g>
				<rect x="178.6" y="203.2" class="st1" width="10.1" height="9.8"/>
			</g>
			<g>
				<rect x="189.5" y="203.2" class="st1" width="10.1" height="9.8"/>
			</g>
			<g>
				<rect x="200.4" y="203.2" class="st1" width="10.1" height="9.8"/>
			</g>
		</g>
	</g>
	<g>
		<g>
			<path class="st1" d="M48.7,189.5C48.7,189.5,48.7,189.5,48.7,189.5c-0.1,0.1-0.1,0.1-0.1,0.1c0,0.1,0,0.2,0,0.3
				c0,0.1,0,0.1,0,0.1c0,0,0,0.1,0,0.1c0,0,0,0,0,0.1c0,0,0,0,0,0c0,0,0,0,0,0.1c0,0,0,0,0,0.1s0,0.1,0,0.1c-0.1,0.1-0.1,0.1,0,0.2
				s0,0.2,0,0.2c0,0,0,0,0.1,0c0,0.1,0,0.1,0,0.2c0,0,0,0.1,0,0.1l0,0.1c0,0.2,0,0.3,0,0.3c0,0.1,0,0.1,0,0.2c0,0.1,0,0.1,0,0.2
				c0,0.1,0,0.2,0,0.3c0,0,0,0,0,0s0,0,0,0.1h0v0.1h0l0,0l0,0.1h0v0c0,0,0,0,0.1,0c0,0.1,0,0.2,0,0.3c0,0.1,0.1,0.2,0,0.3
				c0,0,0,0,0,0c0-0.1,0-0.1-0.1-0.2v0.1c0,0,0,0,0.1,0c0,0,0,0,0,0c0,0,0,0,0,0c0,0,0,0,0,0c0,0.1,0,0.1-0.1,0.1c0,0,0,0,0,0.1
				c0,0,0,0,0,0c0,0,0,0,0,0s0,0,0,0c0,0,0,0,0,0c-0.1,0-0.1,0-0.1,0c0,0,0,0,0,0c0,0,0,0,0,0c0,0,0,0-0.1-0.1c0-0.1,0-0.2-0.1-0.2
				c0,0,0-0.1-0.1-0.2c0-0.1,0-0.2,0-0.2c0,0-0.1-0.1-0.1-0.2c0-0.3,0-0.5,0-0.6s0-0.2,0-0.3c0-0.1,0-0.2,0-0.3s0-0.3,0-0.6
				c0,0,0-0.1,0-0.2s0-0.2,0-0.2c0,0,0,0,0-0.1s0,0,0-0.1c0,0,0,0,0,0c0,0,0,0,0,0c0-0.3,0-0.5,0-0.8c0-0.3,0.1-0.5,0.1-0.8
				c0,0,0,0,0,0c0,0,0,0,0,0c0,0,0,0,0,0c0,0,0,0,0,0c0-0.2,0-0.5,0.1-0.8c0.1-0.3,0.1-0.6,0.1-0.8l-0.1-0.1c0,0,0,0,0,0.1
				s0,0-0.1,0c0,0,0,0,0-0.1c0,0-0.1,0-0.1,0c0,0,0,0,0,0v0c-0.1,0-0.2,0.1-0.4,0.1c-0.1,0-0.3,0-0.4,0.1c0,0,0,0,0.1-0.1
				c0,0-0.1,0-0.1,0s-0.1,0.1-0.1,0.1c0,0-0.1,0-0.1,0c0,0,0,0-0.1,0c0,0,0-0.1,0-0.1c0,0,0,0.1-0.1,0.1c0,0-0.1,0.1-0.1,0.1
				c0,0,0,0,0,0c0,0,0,0,0,0c-0.1,0-0.2,0-0.2,0.1c-0.1,0-0.2,0-0.2,0c0,0-0.1,0-0.1,0c0,0,0,0-0.1,0c0,0-0.1,0-0.1,0s-0.1,0-0.1,0
				l-0.1,0c-0.2,0.1-0.5,0.1-0.7,0.1c-0.3,0-0.5,0-0.7,0.1c-0.4,0.7-0.8,1.4-1.1,2.2s-0.8,1.5-1.2,2.1c-0.1,0-0.2,0-0.3,0
				c-0.1,0-0.1,0-0.2-0.1c-0.1,0-0.1-0.1-0.2-0.1c-0.1,0-0.1-0.1-0.2-0.1c0-0.1,0-0.1,0.1-0.1c0.3-0.6,0.6-1.2,0.9-1.8
				c0.3-0.6,0.6-1.2,0.9-1.8c0,0,0,0-0.1,0c0,0,0,0-0.1,0l0,0c-0.2,0-0.4,0.1-0.6,0.1s-0.4,0.1-0.6,0.1c-0.1,0.1-0.3,0.1-0.5,0.1
				c-0.2,0-0.3,0-0.5,0.1c-0.1,0-0.1,0-0.2,0.1s-0.1,0-0.1,0.1c0,0-0.1,0-0.1,0s-0.1,0-0.1,0c0,0-0.1,0-0.1,0c0,0-0.1,0-0.1,0
				c0-0.1,0-0.2-0.1-0.3c0-0.1-0.1-0.2-0.1-0.3c0.1,0,0.1,0,0.1,0c0.2-0.1,0.3-0.1,0.5-0.2c0.2,0,0.3-0.1,0.5-0.1
				c0.2,0,0.3-0.1,0.5-0.1c0.2,0,0.3-0.1,0.5-0.1c0.3-0.1,0.5-0.1,0.8-0.2c0.3-0.1,0.5-0.1,0.8-0.2c0,0,0,0,0-0.1c0,0,0-0.1,0-0.1
				c0.1,0,0.1-0.1,0.1-0.1c0,0,0.1-0.1,0.1-0.2c0.6-1,1.3-2.1,1.9-3.1s1.4-2,2.2-2.9c0.1-0.1,0.2-0.2,0.3-0.3
				c0.1-0.1,0.2-0.2,0.3-0.3c0-0.1,0.1-0.1,0.1-0.1c0.1,0,0.2-0.1,0.2-0.1c0.1-0.1,0.1-0.1,0.2-0.2s0.2-0.1,0.2-0.2
				c0.1,0,0.2-0.1,0.3-0.1c0.1,0,0.2,0.1,0.3,0.2s0.1,0.3,0.2,0.4c0.1,0.1,0.2,0.2,0.2,0.2c0,0.1,0.1,0.2,0,0.4c0,0.1,0,0.2,0,0.2
				c0,0.1,0,0.1,0,0.2c0,0.1,0,0.2-0.1,0.2c0,0.1,0,0.1-0.1,0.2c0,0,0,0,0,0.1c0,0,0,0.1,0,0.1c0,0.1,0,0.2-0.1,0.2
				c0,0.1-0.1,0.2-0.1,0.2c0,0.1,0,0.2,0,0.2s0,0.2,0,0.3c0,0.1,0,0.1-0.1,0.2s-0.1,0.1-0.1,0.2c-0.1,0.4-0.2,0.8-0.2,1.1
				c-0.1,0.3-0.1,0.7-0.2,1.1c0,0,0,0,0,0c0,0,0,0,0,0c0,0,0,0,0,0c0,0.1,0,0.1,0,0.1c0,0,0,0.1-0.1,0.1c0,0,0,0,0,0c0,0,0,0,0,0.1
				c0,0,0,0,0,0c0,0,0,0,0,0c0,0.1,0,0.2,0,0.2c0,0.1,0,0.2,0,0.2c0,0,0,0,0,0.1s0,0.1,0,0.1c0.2,0,0.4,0,0.6,0c0.2,0,0.4,0,0.6,0
				c0,0-0.1,0-0.1,0c0,0-0.1,0-0.2,0l0.3,0c0,0-0.1,0.1-0.1,0c0,0-0.1,0-0.2,0c0,0,0.1,0,0.1,0c-0.1,0.1-0.2,0.1-0.3,0
				c-0.1,0-0.2,0-0.3,0c0,0,0,0,0,0s0,0,0,0c-0.1,0-0.2,0-0.2,0c-0.1,0-0.2,0-0.2,0c0.1,0,0.1,0,0.2,0s0.2,0,0.3,0
				c-0.1,0.1-0.1,0.1-0.2,0.1c-0.1,0-0.1,0-0.2,0c0,0,0,0,0-0.1c0,0-0.1,0-0.1,0c0,0,0,0.1,0,0.1s0,0-0.1,0c0.2,0,0.4,0,0.5,0
				c0.2,0,0.3,0,0.5,0c-0.1,0-0.1,0-0.1,0c0,0-0.1,0-0.1,0c0,0,0,0,0,0s0,0,0,0c0,0-0.1,0-0.1,0s0,0-0.1,0c0,0,0,0,0,0c0,0,0,0,0,0
				c-0.1,0-0.3,0-0.4,0c-0.1,0-0.3,0-0.4,0c0.1,0,0.1,0.1,0.1,0.1l-0.1,0.1c0,0,0,0,0,0c-0.1,0-0.1,0-0.1,0c0,0,0,0,0,0
				c0,0,0,0,0-0.1c0,0,0,0,0,0c0,0,0,0,0,0c0,0,0,0,0,0c0,0,0,0,0,0l0,0v0v0c0,0,0,0,0,0c0,0,0,0,0,0v0h0v0c0,0-0.1,0,0,0l0,0
				c0,0,0,0,0,0c0,0,0,0,0,0c0,0,0,0.1,0,0.1c0,0,0,0.1,0,0.1c0,0,0,0,0,0s0-0.1,0-0.1c0,0,0,0,0,0.1s0,0.2,0,0.2c0,0.1,0,0.2,0,0.2
				c0,0.1,0,0.1,0,0.1c0,0.1,0,0.2,0,0.4c-0.1,0.2-0.1,0.6-0.2,1.1c0,0,0,0-0.1,0L48.7,189.5z M47.5,186.4c0,0-0.1,0-0.1,0
				C47.4,186.3,47.5,186.3,47.5,186.4L47.5,186.4c0.2,0,0.2,0,0.2-0.1c0,0,0.1,0,0.1,0c0,0,0,0,0,0c0.1,0,0.2,0,0.2,0s0.1,0,0.2,0
				c0,0,0,0-0.1,0c0,0,0,0,0,0c0.1,0,0.1,0,0.1,0s0.1,0,0.1,0c0.1-0.3,0.1-0.6,0.1-0.9s0.1-0.6,0.1-0.9l0.2-0.6c0,0,0,0,0-0.1
				s0,0,0-0.1l0,0c0,0,0-0.1,0-0.2c0-0.1,0-0.1,0-0.1c0.1-0.1,0.1-0.2,0.1-0.3c0-0.1,0-0.2,0.1-0.3c0-0.1,0-0.1,0-0.2
				c0,0,0-0.1,0-0.1l0.1-0.5c0-0.1,0.1-0.2,0.1-0.3s0.1-0.2,0.1-0.3c0,0,0-0.1,0-0.1c0-0.1,0-0.3,0.1-0.4c0-0.1,0.1-0.2,0.1-0.4
				c-0.2,0.1-0.3,0.2-0.4,0.3s-0.2,0.2-0.4,0.4c-0.2,0.3-0.4,0.5-0.6,0.7c-0.2,0.2-0.4,0.5-0.6,0.8c-0.1,0.1-0.2,0.3-0.3,0.4
				c-0.1,0.2-0.2,0.3-0.3,0.5c0,0,0,0.1,0,0.1s0,0,0,0c-0.3,0.5-0.6,0.9-0.9,1.4c-0.3,0.5-0.6,0.9-0.9,1.4c0,0.1,0,0.1-0.1,0.1
				c0,0-0.1,0.1,0,0.1c0.1,0,0.2-0.1,0.3-0.1l-0.1,0c0.2,0,0.4-0.1,0.5-0.1c0.1,0,0.3,0,0.5,0c0,0,0,0,0,0c0.1,0,0.1,0,0.1,0
				s0,0,0,0h0l0,0c0.2,0,0.4-0.1,0.6-0.1c0.2,0,0.4-0.1,0.5,0c0,0,0,0,0,0c0,0,0,0,0,0L47.5,186.4z M45.9,186.6c0.1,0,0.1,0,0.1-0.1
				C46,186.5,45.9,186.5,45.9,186.6L45.9,186.6C45.9,186.5,45.9,186.5,45.9,186.6L45.9,186.6L45.9,186.6z M45.9,186.5
				C45.9,186.5,45.9,186.5,45.9,186.5L45.9,186.5L45.9,186.5c0.1,0,0.1,0,0.1,0C46,186.5,45.9,186.5,45.9,186.5L45.9,186.5z
				 M46.3,187.3C46.3,187.3,46.3,187.3,46.3,187.3C46.2,187.3,46.2,187.3,46.3,187.3C46.2,187.3,46.3,187.3,46.3,187.3z M46.3,186.4
				C46.3,186.4,46.3,186.4,46.3,186.4C46.3,186.4,46.3,186.4,46.3,186.4C46.3,186.4,46.3,186.5,46.3,186.4L46.3,186.4z M46.9,187.1
				C46.9,187.1,46.9,187.1,46.9,187.1C46.9,187.1,46.9,187.1,46.9,187.1C46.9,187.1,46.9,187.1,46.9,187.1L46.9,187.1L46.9,187.1
				C46.9,187.1,46.9,187.1,46.9,187.1L46.9,187.1L46.9,187.1z M46.9,187.1C46.9,187.1,46.9,187.1,46.9,187.1
				C46.9,187.1,46.9,187.1,46.9,187.1C46.9,187.1,46.9,187.1,46.9,187.1L46.9,187.1L46.9,187.1C46.9,187.1,46.9,187.1,46.9,187.1
				L46.9,187.1L46.9,187.1z M47.1,187.1C47.1,187.2,47,187.2,47.1,187.1C47,187.2,47,187.1,47.1,187.1z M47.5,186.8c0,0,0.1,0,0.1,0
				c0,0,0,0,0,0v0c0,0,0,0,0,0L47.5,186.8L47.5,186.8C47.5,186.7,47.5,186.7,47.5,186.8z M47.5,186.8c0,0,0.1,0,0.1,0c0,0,0,0,0,0v0
				c0,0,0,0,0,0L47.5,186.8L47.5,186.8C47.5,186.7,47.5,186.7,47.5,186.8z M47.6,187.1c0,0,0.1,0,0.1,0c0,0,0,0,0,0c0,0,0,0,0,0h0
				l0.1,0h0h0h0h0c0,0,0,0,0,0c0,0,0,0,0,0h0C47.7,187,47.7,187,47.6,187.1L47.6,187.1L47.6,187.1z M47.9,187L47.9,187L47.9,187
				L47.9,187c-0.1,0-0.1,0-0.1,0c0,0,0,0,0,0h0c0,0,0,0,0,0l-0.1,0h0c0,0,0.1,0,0.1,0c0,0,0,0,0,0c0,0,0,0,0,0L47.9,187L47.9,187
				L47.9,187z M47.7,186.8L47.7,186.8l0.1,0l0,0h0.1l0,0h0h0c0,0,0,0,0.1,0h-0.2c0,0,0,0-0.1,0S47.8,186.7,47.7,186.8L47.7,186.8
				L47.7,186.8C47.7,186.7,47.7,186.7,47.7,186.8C47.7,186.8,47.7,186.8,47.7,186.8L47.7,186.8z M47.7,186.8L47.7,186.8l0.1,0l0,0
				h0.1l0,0h0h0c0,0,0,0,0.1,0h-0.2c0,0,0,0-0.1,0S47.8,186.7,47.7,186.8L47.7,186.8L47.7,186.8C47.7,186.7,47.7,186.7,47.7,186.8
				C47.7,186.8,47.7,186.8,47.7,186.8L47.7,186.8z M47.8,186.6L47.8,186.6L47.8,186.6L47.8,186.6L47.8,186.6L47.8,186.6L47.8,186.6
				L47.8,186.6L47.8,186.6L47.8,186.6L47.8,186.6L47.8,186.6L47.8,186.6z M47.8,186.6L47.8,186.6L47.8,186.6L47.8,186.6L47.8,186.6
				L47.8,186.6L47.8,186.6L47.8,186.6L47.8,186.6L47.8,186.6L47.8,186.6L47.8,186.6L47.8,186.6z M48.1,186.8
				C48.1,186.8,48.1,186.8,48.1,186.8L48.1,186.8L48.1,186.8c-0.1,0-0.1,0-0.1,0L48.1,186.8L48.1,186.8z M47.9,186.8L47.9,186.8
				l0.1,0c0,0,0,0,0,0l0,0L47.9,186.8C48,186.8,47.9,186.8,47.9,186.8z M48,191.3c0,0.1,0,0.1,0,0.1c0,0,0,0.1,0,0.1c0,0,0,0,0-0.1
				S48,191.3,48,191.3z M48,190.8L48,190.8L48,190.8L48,190.8C48,190.9,48,190.9,48,190.8L48,190.8L48,190.8L48,190.8L48,190.8
				C48,190.8,48,190.8,48,190.8L48,190.8z M48,190.8L48,190.8L48,190.8L48,190.8C48,190.9,48,190.9,48,190.8L48,190.8L48,190.8
				L48,190.8L48,190.8C48,190.8,48,190.8,48,190.8L48,190.8z M48.2,186.7L48.2,186.7L48.2,186.7L48.2,186.7L48.2,186.7
				C48.2,186.7,48.2,186.7,48.2,186.7C48.2,186.7,48.2,186.7,48.2,186.7L48.2,186.7L48.2,186.7l0.1,0.1v0L48.2,186.7
				C48.3,186.7,48.3,186.7,48.2,186.7L48.2,186.7L48.2,186.7L48.2,186.7L48.2,186.7L48.2,186.7c0.1,0,0.1,0,0.1,0l0,0v0H48.2z
				 M48.2,186.7L48.2,186.7L48.2,186.7L48.2,186.7L48.2,186.7C48.2,186.7,48.2,186.7,48.2,186.7C48.2,186.7,48.2,186.7,48.2,186.7
				L48.2,186.7L48.2,186.7l0.1,0.1v0L48.2,186.7C48.3,186.7,48.3,186.7,48.2,186.7L48.2,186.7L48.2,186.7L48.2,186.7L48.2,186.7
				L48.2,186.7c0.1,0,0.1,0,0.1,0l0,0v0H48.2z M48.1,191.6C48.1,191.6,48.1,191.6,48.1,191.6C48.2,191.6,48.2,191.6,48.1,191.6
				C48.2,191.6,48.2,191.6,48.1,191.6z M48.1,191.3c0,0.1,0,0.1,0,0.1s0,0.1,0,0.1c0,0,0-0.1,0-0.1
				C48.2,191.3,48.2,191.3,48.1,191.3z M48.2,187C48.2,187,48.2,187,48.2,187C48.2,187,48.2,187,48.2,187
				C48.2,187,48.2,187,48.2,187C48.2,187,48.2,187,48.2,187z M48.2,192.8C48.2,192.8,48.2,192.8,48.2,192.8c0,0.1,0,0.1,0,0.1
				C48.3,192.9,48.2,192.8,48.2,192.8z M48.3,191c0,0.1,0,0.1,0,0.1c0,0,0,0.1,0,0.1c0,0,0,0,0,0s0,0,0,0
				C48.3,191.2,48.3,191.2,48.3,191C48.3,191.1,48.3,191,48.3,191z M48.4,190.4L48.4,190.4C48.4,190.3,48.4,190.3,48.4,190.4
				L48.4,190.4L48.4,190.4L48.4,190.4L48.4,190.4L48.4,190.4z M48.4,190.3C48.4,190.3,48.4,190.3,48.4,190.3L48.4,190.3L48.4,190.3
				L48.4,190.3L48.4,190.3L48.4,190.3L48.4,190.3z M48.4,190.4c0,0.1,0,0.1,0,0.2c0,0,0,0.1,0,0.2c0,0,0-0.1,0-0.2
				C48.4,190.5,48.4,190.4,48.4,190.4z M48.4,189.9c0,0,0,0.1,0,0.1c0,0.1,0,0.1,0,0.1c0-0.1,0-0.1,0-0.1
				C48.4,190,48.4,190,48.4,189.9z M48.4,192.9C48.4,192.9,48.4,192.9,48.4,192.9C48.4,192.9,48.4,193,48.4,192.9c0,0.1,0,0.1,0,0.1
				C48.4,193.1,48.4,193.1,48.4,192.9C48.4,193,48.4,193,48.4,192.9z M48.4,193.3L48.4,193.3C48.4,193.3,48.4,193.3,48.4,193.3z
				 M48.4,192.8L48.4,192.8L48.4,192.8z M48.5,193.3L48.5,193.3L48.5,193.3L48.5,193.3z M49.1,186.6
				C49.1,186.6,49.1,186.6,49.1,186.6L49.1,186.6C49.1,186.6,49.1,186.6,49.1,186.6l0.1-0.1l0,0h0c0,0,0,0,0,0c0,0,0,0,0,0v0l0,0v0
				L49.1,186.6L49.1,186.6L49.1,186.6z M49.1,186.6C49.1,186.6,49.1,186.6,49.1,186.6L49.1,186.6C49.1,186.6,49.1,186.6,49.1,186.6
				l0.1-0.1l0,0h0c0,0,0,0,0,0c0,0,0,0,0,0v0l0,0v0L49.1,186.6L49.1,186.6L49.1,186.6z M49.1,185.9L49.1,185.9L49.1,185.9
				L49.1,185.9L49.1,185.9L49.1,185.9L49.1,185.9L49.1,185.9L49.1,185.9z M49.2,185.9L49.2,185.9L49.2,185.9L49.2,185.9L49.2,185.9
				L49.2,185.9L49.2,185.9L49.2,185.9L49.2,185.9z M49.2,186.8C49.2,186.8,49.2,186.8,49.2,186.8L49.2,186.8
				C49.2,186.8,49.2,186.8,49.2,186.8C49.2,186.8,49.1,186.8,49.2,186.8L49.2,186.8L49.2,186.8L49.2,186.8L49.2,186.8
				C49.2,186.8,49.2,186.8,49.2,186.8L49.2,186.8L49.2,186.8z M49.2,186.8C49.2,186.8,49.2,186.8,49.2,186.8
				C49.2,186.8,49.1,186.8,49.2,186.8L49.2,186.8L49.2,186.8L49.2,186.8L49.2,186.8C49.2,186.8,49.2,186.8,49.2,186.8L49.2,186.8
				L49.2,186.8L49.2,186.8C49.2,186.8,49.2,186.8,49.2,186.8L49.2,186.8z M49.2,187.4C49.2,187.5,49.1,187.5,49.2,187.4
				C49.1,187.5,49.2,187.4,49.2,187.4C49.2,187.4,49.2,187.4,49.2,187.4z M49.2,187.2c0,0,0,0.1-0.1,0.2
				C49.2,187.4,49.2,187.3,49.2,187.2L49.2,187.2z M49.2,187L49.2,187L49.2,187L49.2,187z M49.5,186.7
				C49.5,186.8,49.4,186.8,49.5,186.7C49.5,186.7,49.5,186.7,49.5,186.7z M49.5,186.8C49.5,186.8,49.5,186.8,49.5,186.8
				C49.5,186.8,49.5,186.8,49.5,186.8C49.4,186.8,49.5,186.8,49.5,186.8z M49.5,180.2C49.5,180.2,49.5,180.2,49.5,180.2
				C49.5,180.2,49.5,180.2,49.5,180.2L49.5,180.2L49.5,180.2L49.5,180.2L49.5,180.2z M49.5,180.2C49.5,180.2,49.5,180.2,49.5,180.2
				C49.5,180.2,49.5,180.2,49.5,180.2L49.5,180.2L49.5,180.2L49.5,180.2L49.5,180.2z M49.7,186.7c0.1,0,0.1,0,0.1,0c0,0,0.1,0,0.1,0
				c0,0-0.1,0.1-0.1,0.1c0,0-0.1,0-0.2,0C49.6,186.8,49.6,186.8,49.7,186.7C49.6,186.7,49.7,186.7,49.7,186.7z M50.2,186.5
				C50.1,186.5,50.1,186.5,50.2,186.5c-0.1,0-0.2,0-0.2,0c0,0,0,0,0.1,0C50.1,186.5,50.1,186.5,50.2,186.5z M50.1,186.7
				C50.1,186.7,50.1,186.7,50.1,186.7c-0.1,0-0.2,0-0.2,0C50,186.7,50,186.7,50.1,186.7C50,186.7,50.1,186.7,50.1,186.7z"/>
			<path class="st1" d="M54.6,189.9C54.6,190,54.6,190,54.6,189.9c-0.1,0-0.1,0-0.1,0c0,0,0,0-0.1,0c0,0.1-0.1,0.1-0.1,0.2
				c0,0-0.1,0.1-0.1,0c0,0,0,0-0.1,0.1s-0.1,0-0.1,0.1c0,0,0,0,0,0c0,0-0.1,0-0.2,0.1c-0.1,0-0.2,0.1-0.3,0.1
				c-0.1,0-0.2,0.1-0.3,0.1c-0.1,0-0.1,0.1-0.2,0.1c-0.1,0-0.1,0-0.2,0c-0.1,0-0.2,0.1-0.2,0.1c-0.1,0-0.3,0.1-0.5,0.1s-0.4,0-0.6,0
				c-0.1,0-0.1,0-0.1,0c0,0,0,0,0,0c0,0,0,0,0,0s0,0-0.1,0c0,0,0-0.1,0-0.1c0,0,0,0-0.1,0c0,0,0,0-0.1-0.1s-0.1,0-0.1,0
				c-0.2-0.2-0.4-0.4-0.5-0.7c-0.1-0.3-0.2-0.5-0.2-0.9c0,0,0-0.1,0-0.1s0-0.1,0-0.1v-0.7c0,0,0,0,0-0.1c0,0,0,0,0-0.1l0-0.4
				c0,0,0-0.1,0-0.1s0,0,0-0.1l0,0c0,0,0,0,0,0c0,0,0,0,0,0c0,0,0,0,0,0l0.1-0.3c0,0,0,0,0-0.1c0,0,0,0,0-0.1c0,0,0,0,0.1,0
				c0-0.1,0-0.1,0-0.2s0-0.1,0-0.1h0c0,0,0,0,0-0.1c0,0,0,0,0,0c0-0.2,0.1-0.3,0.1-0.4c0.1-0.1,0.1-0.3,0.1-0.4
				c0.1,0,0.1-0.1,0.1-0.1c0,0,0,0,0-0.1c0,0,0-0.1,0-0.1v0v0c0.1-0.1,0.2-0.3,0.2-0.4c0.2-0.2,0.3-0.5,0.4-0.7c0,0,0.1,0,0.1-0.1
				c0,0,0-0.1,0-0.1c0.1-0.1,0.1-0.2,0.2-0.3c0.1-0.1,0.1-0.2,0.2-0.3c0-0.1,0.1-0.2,0.1-0.2c0.1-0.1,0.1-0.2,0.2-0.2
				c0.2-0.3,0.4-0.5,0.6-0.8s0.4-0.5,0.8-0.7c0.1-0.1,0.1-0.1,0.2-0.1c0.1,0,0.1,0,0.2-0.1c0.3-0.2,0.5-0.1,0.8,0
				c0.1,0,0.1,0.1,0.2,0.1c0.1,0,0.1,0.1,0.2,0.1c0,0,0.1,0,0.1,0s0,0,0,0.1c0,0,0,0,0,0.1c0,0,0,0,0,0.1c0,0,0,0,0,0.1
				c0,0,0,0.1,0,0.1c0,0.1-0.1,0.1-0.1,0.2l0,0.2l-0.1,0.1c0,0.1-0.1,0.2-0.1,0.3c0,0.1-0.1,0.2-0.1,0.2c-0.1,0.3-0.2,0.5-0.4,0.7
				c-0.2,0.2-0.3,0.4-0.5,0.7c-0.1,0.1-0.2,0.3-0.3,0.4c-0.1,0.2-0.2,0.3-0.3,0.4c0,0-0.1,0-0.1,0.1s-0.1,0.1-0.1,0.1
				c-0.1,0.1-0.3,0.3-0.3,0.4c-0.1,0.1-0.2,0.3-0.3,0.4c0,0.1-0.1,0.1-0.1,0.2s-0.1,0.1-0.1,0.2c0,0,0,0-0.1,0c0,0,0,0,0,0.1
				c-0.1,0-0.1,0.1-0.2,0.2c0,0.1-0.1,0.1-0.1,0.2c0,0,0,0.1-0.1,0.1c0,0-0.1,0.1-0.1,0.1c-0.1,0.1-0.2,0.2-0.3,0.3
				c-0.1,0.1-0.2,0.3-0.4,0.4c0,0,0,0-0.1,0v0.1c-0.1,0.2-0.1,0.5-0.1,0.8c0,0.3,0,0.6,0.1,0.9c0,0.2,0.1,0.3,0.1,0.3c0,0,0,0,0.1,0
				c0,0,0,0,0,0c0,0,0,0.1,0,0.2c0,0,0,0,0,0h0c0,0,0,0,0,0c0.2,0,0.4,0,0.4,0s0.2,0,0.3-0.1c0.2-0.1,0.3-0.1,0.5-0.2
				c0.2-0.1,0.3-0.1,0.5-0.2c0,0,0,0,0,0h0v0c0,0,0,0,0,0c0,0,0,0,0,0c0,0,0,0,0,0h0l0,0c0.2-0.1,0.4-0.2,0.5-0.4
				c0.2-0.1,0.3-0.3,0.5-0.4c0,0,0-0.1,0-0.1c0,0,0,0,0-0.1c0,0,0,0,0,0s0,0,0,0c0.1-0.1,0.2-0.1,0.3-0.1c0.1,0,0.1-0.1,0.1-0.2
				c0,0,0,0,0,0c0,0,0,0,0,0c0-0.1,0.1-0.1,0.1-0.1c0,0,0,0,0.1,0c0,0,0,0,0.1,0s0.1-0.1,0.1-0.1c0,0,0-0.1,0-0.1c0,0,0,0,0,0
				c0,0,0,0,0,0c0,0,0,0,0,0c0.1-0.1,0.2-0.2,0.3-0.3c0.1-0.1,0.1-0.1,0.1-0.1c0.1-0.1,0.1-0.1,0.1-0.1s0,0,0,0c0,0,0,0,0,0
				c0,0,0,0,0.1-0.1c0.1,0,0.1,0,0.1,0c0,0.1,0,0.1,0.1,0.1c0,0-0.1,0,0,0.1c0,0,0,0,0,0.1c0,0,0,0.1,0,0.1c0,0.1,0,0.2,0,0.2
				c0,0,0,0.1,0,0.1s0,0,0,0c0,0,0,0,0,0.1c0,0,0,0,0,0v0c0,0,0,0,0,0c0,0,0,0,0,0c0,0,0,0,0,0.1c0,0,0,0,0,0c0,0-0.1,0.1-0.1,0.1
				c0,0,0,0,0,0c0,0,0,0,0,0s0,0,0,0.1v0v0c0,0-0.1,0-0.1,0c0,0,0,0.1,0,0.1c0,0,0,0,0,0c0,0,0,0,0,0c0,0,0,0-0.1,0s0,0-0.1,0
				c0,0,0,0.1,0,0.1s0,0.1-0.1,0.1c0,0,0,0,0,0c0,0,0-0.1,0-0.1c-0.1,0-0.1,0.1-0.1,0.1l0,0c0,0,0,0,0,0c0,0,0,0,0,0.1
				c0,0,0,0.1-0.1,0.1c0,0.1-0.1,0.1-0.2,0.1l0,0v0c-0.1,0-0.1,0-0.1,0.1c0,0,0,0,0,0c0,0,0,0-0.1,0c0,0,0,0,0,0c0,0,0,0,0,0
				c0,0,0,0,0,0c0,0,0,0,0,0c-0.1,0.1-0.1,0.1-0.2,0.2C54.7,189.7,54.6,189.8,54.6,189.9C54.6,189.9,54.6,189.9,54.6,189.9
				C54.6,189.9,54.6,189.9,54.6,189.9z M50.8,187.4C50.8,187.4,50.8,187.4,50.8,187.4C50.8,187.4,50.8,187.4,50.8,187.4
				C50.8,187.4,50.8,187.4,50.8,187.4z M51.8,186.7c0.2-0.3,0.4-0.6,0.6-0.8s0.4-0.5,0.6-0.8c0,0,0,0,0,0c0.1-0.1,0.1-0.1,0.2-0.2
				c0-0.1,0.1-0.2,0.1-0.2c0.2-0.2,0.3-0.5,0.5-0.7c0.2-0.2,0.3-0.5,0.4-0.7c0.1-0.1,0.1-0.3,0.2-0.4c0.1-0.1,0.1-0.3,0.1-0.4
				c0.1-0.1,0.2-0.2,0.1-0.4c-0.1,0-0.2,0.1-0.3,0.2c-0.1,0.1-0.1,0.2-0.2,0.2c0,0.1-0.1,0.2-0.2,0.3c-0.1,0.1-0.1,0.2-0.2,0.2
				c-0.3,0.2-0.5,0.5-0.7,0.8c-0.2,0.3-0.3,0.6-0.5,0.9c0,0-0.1,0-0.1,0c0,0.1-0.1,0.2-0.1,0.2c-0.1,0.1-0.1,0.1-0.1,0.2
				c-0.1,0.1-0.1,0.2-0.1,0.2c0,0.1-0.1,0.2-0.1,0.2c0,0.1,0,0.1-0.1,0.2c0,0-0.1,0.1-0.1,0.1v0.1c0,0,0,0.1-0.1,0.1
				c0,0,0,0.1,0,0.2c-0.1,0.1-0.1,0.1-0.1,0.2C51.8,186.5,51.8,186.6,51.8,186.7L51.8,186.7z M54.2,189.8
				C54.2,189.8,54.2,189.8,54.2,189.8C54.2,189.8,54.2,189.8,54.2,189.8C54.2,189.8,54.2,189.8,54.2,189.8c0.1,0,0.1,0,0.2-0.1
				c0,0,0.1-0.1,0.1-0.1c0,0,0,0,0,0c0,0,0,0,0.1-0.1s0-0.1,0-0.1c-0.1,0-0.1,0.1-0.2,0.1S54.3,189.7,54.2,189.8L54.2,189.8
				L54.2,189.8C54.2,189.8,54.2,189.8,54.2,189.8C54.2,189.8,54.2,189.8,54.2,189.8C54.1,189.8,54.1,189.9,54.2,189.8
				C54.2,189.9,54.2,189.9,54.2,189.8C54.2,189.8,54.2,189.8,54.2,189.8z M54.2,189.8L54.2,189.8L54.2,189.8L54.2,189.8z
				 M54.7,189.4C54.6,189.4,54.6,189.4,54.7,189.4C54.6,189.5,54.7,189.5,54.7,189.4C54.7,189.5,54.7,189.4,54.7,189.4z M54.8,189.5
				C54.8,189.4,54.8,189.4,54.8,189.5L54.8,189.5C54.8,189.5,54.8,189.5,54.8,189.5c0.1,0,0.1,0,0.1-0.1
				C54.9,189.4,54.8,189.4,54.8,189.5C54.8,189.4,54.8,189.4,54.8,189.5C54.7,189.5,54.7,189.5,54.8,189.5z M54.9,189.4
				C54.9,189.4,54.9,189.4,54.9,189.4C54.9,189.4,54.8,189.4,54.9,189.4C54.9,189.4,54.9,189.4,54.9,189.4
				C54.9,189.4,54.9,189.4,54.9,189.4z M55,189.3C55,189.3,55,189.3,55,189.3C54.9,189.4,54.9,189.4,55,189.3
				C55,189.4,55,189.4,55,189.3C55,189.3,55,189.3,55,189.3z M55.3,189.1C55.3,189.1,55.3,189.1,55.3,189.1
				c-0.1,0.1-0.1,0.1-0.2,0.1c0,0,0,0,0,0c0,0,0,0,0,0c0,0,0,0-0.1,0c0,0,0,0,0,0.1c0.1,0,0.1,0,0.2-0.1
				C55.3,189.2,55.3,189.1,55.3,189.1z M55.5,189.1C55.5,189.1,55.5,189.1,55.5,189.1C55.4,189.1,55.4,189.1,55.5,189.1
				C55.5,189.1,55.5,189.1,55.5,189.1z M55.6,188.3C55.6,188.2,55.6,188.3,55.6,188.3L55.6,188.3z M55.7,188.7c0,0-0.1,0-0.1,0
				c0,0,0,0.1,0,0.1C55.6,188.8,55.6,188.8,55.7,188.7C55.7,188.7,55.7,188.7,55.7,188.7z M56.1,188.4c-0.1,0-0.1,0.1-0.1,0.1
				c0,0,0.1,0,0.1,0C56.1,188.5,56.1,188.4,56.1,188.4z M56.1,188.6L56.1,188.6L56.1,188.6L56.1,188.6L56.1,188.6z M56.2,188.7
				C56.2,188.7,56.2,188.7,56.2,188.7C56.2,188.7,56.1,188.7,56.2,188.7L56.2,188.7z"/>
			<path class="st1" d="M55.5,189C55.6,189,55.6,189,55.5,189c0-0.1,0-0.1,0-0.1c0-0.1,0-0.1,0-0.2s0-0.1,0.1-0.1c0,0,0-0.1,0-0.1
				c0,0,0,0,0,0c0,0,0-0.1,0.1-0.1s0-0.1,0.1-0.1c0.1-0.2,0.2-0.4,0.3-0.7c0.1-0.2,0.3-0.5,0.4-0.7c0.1-0.1,0.1-0.1,0.1-0.2
				c0-0.1,0.1-0.1,0.1-0.2h0c0-0.1,0.1-0.2,0.2-0.1s0.2,0.1,0.4,0.1c0.1,0,0.1,0.1,0.1,0.1c0,0,0,0.1,0,0.1c0,0,0,0,0,0.1
				c0,0,0,0.1,0,0.1c-0.1,0.1-0.1,0.2-0.2,0.4c0,0.1-0.1,0.3-0.2,0.4c0,0,0,0,0,0s0,0,0,0c0,0,0,0.1-0.1,0.2S57,188,57,188.1
				c-0.1,0.2-0.2,0.3-0.2,0.5c-0.1,0.2-0.1,0.3-0.2,0.5c0,0.2-0.1,0.3-0.1,0.4c0,0.1,0,0.3,0.1,0.4c0.3-0.1,0.5-0.1,0.7-0.2
				s0.4-0.2,0.6-0.3l0.4-0.3l0.1-0.1l0.5-0.4l0.4-0.3c0,0,0.1-0.1,0.2-0.1c0.1,0,0.1-0.1,0.2-0.1c0.1-0.1,0.2-0.2,0.3-0.2
				c0.1,0,0.2-0.1,0.3-0.2c0,0,0-0.1,0.1-0.1s0.1,0,0.1-0.1l0.1-0.1c0-0.1,0.1-0.1,0.2-0.1c0.1,0,0.1-0.1,0.2-0.1c0,0,0.1,0,0.1,0
				c0.1,0,0.1,0,0.1,0.1c0,0,0,0.1,0,0.1c0,0,0,0-0.1,0.1s0,0.1,0,0.1c0,0,0.1,0,0.1-0.1s0-0.1,0.1-0.1c0,0,0,0,0,0.1
				c0,0,0,0.1,0,0.1c0.1,0,0.1,0.1,0,0.1c0,0,0,0.1,0,0.1c0,0,0,0,0,0s0,0,0,0.1c0,0,0,0,0,0c0,0,0,0,0,0c0,0,0,0,0,0.1
				c0,0,0,0,0,0.1c0,0,0,0,0,0c0,0,0,0,0,0c-0.1,0-0.1,0-0.1,0c-0.1,0-0.1,0.1-0.1,0.1s0,0.1-0.1,0.1c0,0,0,0,0,0s0,0,0,0
				c0,0,0,0,0,0.1c0,0-0.1,0.1-0.1,0.1c0,0-0.1,0.1-0.1,0.1s0,0,0,0c0,0-0.1,0-0.1,0.1c-0.1,0.1-0.1,0.1-0.1,0.1l-0.2,0.2
				c0,0-0.1,0.1-0.2,0.1c-0.1,0.1-0.1,0.1-0.2,0.1l0,0c0,0,0,0,0,0c0,0,0,0,0,0c0,0,0,0,0,0c0,0,0,0,0,0.1h0c0,0,0,0-0.1,0.1
				s-0.1,0.1-0.2,0.2v-0.1c0,0,0,0,0,0s0,0,0,0h0c0,0,0,0.1,0,0.1c0,0,0,0-0.1,0c0,0,0,0,0,0c0,0,0,0,0,0c0,0,0,0-0.1,0.1
				c0,0-0.1,0.1-0.1,0.1c0,0,0,0-0.1,0c0,0,0,0-0.1,0l-0.1,0c0,0-0.1,0-0.1,0.1c0,0-0.1,0-0.1,0c0,0,0,0,0,0.1c0,0,0,0,0,0s0,0,0,0
				c0,0,0,0-0.1,0.1s-0.1,0-0.1,0.1c0,0.1-0.1,0.1-0.2,0.2c-0.1,0-0.2,0.1-0.3,0.1c-0.1,0.1-0.3,0.1-0.4,0.2c-0.1,0-0.3,0-0.4,0.1
				s-0.3,0-0.5,0c-0.1,0-0.2,0-0.3,0c-0.1,0-0.2,0-0.2-0.1c-0.1-0.1-0.1-0.1-0.2-0.2c0-0.1-0.1-0.1-0.1-0.2c0,0,0,0,0,0
				c0,0,0,0,0-0.1c0,0,0,0,0,0c0,0,0,0,0,0c0,0,0,0,0,0c0-0.1,0-0.1,0-0.1c0,0,0-0.1,0-0.1c0,0,0,0.1,0,0.1c0,0,0-0.1,0-0.1
				c0,0,0-0.1,0.1-0.1c0-0.1,0-0.1,0.1-0.2c0,0,0,0,0,0c0-0.1,0-0.1,0.1-0.1C55.5,189.2,55.5,189.1,55.5,189
				C55.5,189.1,55.5,189.1,55.5,189C55.5,189.1,55.5,189.1,55.5,189c-0.1,0,0,0,0-0.1c0,0,0,0,0,0C55.6,188.9,55.6,188.9,55.5,189
				C55.5,189,55.5,189,55.5,189z M58.3,185.3C58.2,185.3,58.2,185.3,58.3,185.3C58.3,185.3,58.3,185.3,58.3,185.3
				c-0.1,0.1-0.1,0.2-0.2,0.2c0,0.1-0.1,0.1-0.2,0.1c-0.1,0-0.1,0.1-0.1,0.1c-0.1,0-0.1,0-0.1,0c0,0,0,0,0,0c-0.1,0-0.1,0-0.1,0
				c-0.1,0-0.2-0.1-0.2-0.1c-0.1,0-0.1-0.1-0.2-0.1c0-0.1,0-0.2,0-0.3c0-0.1,0.1-0.1,0.2-0.1c0,0,0,0,0,0s0,0,0,0
				c0.1,0,0.2,0,0.3,0.1C57.9,185.2,58.1,185.2,58.3,185.3C58.2,185.3,58.2,185.3,58.3,185.3z M58.7,189.5
				C58.8,189.5,58.8,189.5,58.7,189.5C58.8,189.5,58.8,189.4,58.7,189.5L58.7,189.5z M60.5,188C60.4,188,60.4,188,60.5,188
				c-0.1,0.1-0.1,0.1-0.1,0.2C60.4,188.1,60.4,188.1,60.5,188C60.5,188,60.5,188,60.5,188z M60.7,187.9
				C60.6,187.9,60.6,187.9,60.7,187.9L60.7,187.9z"/>
			<path class="st1" d="M67.4,189C67.4,188.9,67.3,188.9,67.4,189c-0.1,0-0.1,0.1-0.2,0.1c0,0.1-0.1,0.1-0.2,0.2
				c-0.1,0.1-0.1,0.1-0.1,0.1c0,0,0-0.1,0-0.1c0,0,0.1-0.1,0.1-0.1c-0.1,0-0.1,0-0.1,0.1c0,0.1,0,0.1-0.1,0.1c0,0.1-0.1,0.1-0.1,0.1
				c-0.1,0-0.1,0.1-0.2,0.1c0,0,0,0,0,0s0,0,0,0c0,0,0,0,0,0c0,0,0,0,0,0v0c0,0,0,0-0.1,0c0,0,0,0,0.1,0c0,0,0-0.1,0-0.1
				c0,0-0.1,0-0.1,0s0,0.1,0,0.1c0,0,0,0.1-0.1,0.1c0,0-0.1,0.1-0.1,0c0.1-0.1,0.2-0.2,0.2-0.3c-0.1,0-0.2,0.1-0.3,0.2c0,0,0,0,0,0
				c0,0,0,0.1,0,0.1c0,0-0.1,0-0.1,0h0c0,0,0,0,0,0c0,0-0.1,0-0.1,0c0,0,0,0-0.1,0.1c0,0,0,0,0,0s0,0,0,0c0,0,0,0-0.1,0.1
				c0,0-0.1,0-0.1,0c0,0,0,0,0,0c0,0,0,0,0-0.1c-0.1,0-0.1,0.1-0.1,0.1c0,0,0,0.1-0.1,0.1c0,0,0-0.1,0-0.1c0,0,0,0,0,0
				c0,0,0,0-0.1,0c0,0,0,0,0,0c0,0,0,0,0,0c-0.1,0.1-0.2,0.1-0.3,0.1c-0.1,0-0.3,0-0.4-0.1c-0.2,0-0.3,0-0.5-0.1s-0.3-0.1-0.4-0.2
				c0,0,0,0,0,0c0,0,0,0,0,0s0,0,0,0c0,0,0,0,0,0c0,0,0,0,0,0c-0.1,0-0.1-0.1-0.1-0.2c0-0.1-0.1-0.1-0.1-0.2c0,0,0-0.1,0-0.1
				c0,0,0,0-0.1,0c-0.1-0.3-0.1-0.6-0.1-0.9c0-0.3,0-0.6,0.1-1c-0.1,0-0.2,0.1-0.2,0.2c-0.1,0.1-0.1,0.1-0.2,0.2
				c-0.4,0.4-0.8,0.8-1.2,1.2c-0.4,0.4-0.8,0.8-1.1,1.3c-0.1,0-0.1,0-0.1,0.1c0,0-0.1,0.1-0.1,0.1c-0.1,0-0.1,0-0.2,0s-0.2,0-0.3,0
				c0,0,0,0,0,0s0,0,0,0c-0.1,0-0.2-0.1-0.3-0.1s-0.1-0.1-0.1-0.3c0-0.1,0-0.1,0-0.2c0,0,0-0.1,0-0.2c0,0,0-0.1,0-0.1c0,0,0,0,0,0
				c0.1-0.6,0.3-1.1,0.5-1.6c0.2-0.5,0.4-1,0.6-1.5c0.1,0,0.1,0,0.2,0c0.1,0,0.2,0.1,0.2,0.1s0.1,0,0.3,0.1c0,0,0,0,0.1,0.1
				s0.1,0,0.1,0.1c0,0.2-0.1,0.4-0.1,0.6c-0.1,0.2-0.2,0.4-0.3,0.6c-0.1,0.1-0.1,0.3-0.2,0.5c-0.1,0.2-0.1,0.4-0.2,0.5
				c0,0.1,0,0.1,0,0.1s0,0,0,0.1c0.1-0.2,0.3-0.3,0.4-0.5s0.3-0.4,0.4-0.5c0.2-0.1,0.3-0.2,0.4-0.3c0.1-0.1,0.3-0.3,0.4-0.4
				c0.2-0.1,0.3-0.2,0.5-0.3c0.2-0.1,0.3-0.2,0.4-0.3c0.1,0,0.1,0,0.2-0.1c0.1,0,0.1-0.1,0.2-0.1c0.1,0,0.2,0,0.2,0.1
				c0.1,0,0.2,0.1,0.3,0.1v0c0.1,0,0.1,0,0.1,0.1c0,0.1,0,0.1,0.1,0.2c0,0.1,0,0.2,0,0.4c0,0.2,0,0.3-0.1,0.4c0,0,0,0,0,0.1
				c0,0.1,0,0.1,0,0.2c-0.1,0.5-0.1,0.8,0,1.1c0.1,0.3,0.1,0.4,0.2,0.5c0.1,0,0.3,0,0.4,0s0.2,0,0.3,0c0.1,0,0.2,0,0.3-0.1
				s0.2-0.1,0.3-0.2c0,0,0,0,0.1-0.1c0,0,0,0,0.1,0c0.1,0,0.2-0.1,0.3-0.1c0.1-0.1,0.1-0.1,0.2,0c0,0,0,0,0-0.1c0,0,0,0,0-0.1
				c0,0,0,0,0,0c0,0,0,0,0,0c0,0,0,0,0-0.1c0,0,0.1,0,0.1,0c0,0,0.1,0,0.1-0.1c0,0,0.1,0,0.1-0.1c0,0,0-0.1,0.1-0.1c0,0,0,0,0,0
				c0,0,0,0,0,0.1c0.1,0,0.1-0.1,0.1-0.1c0,0,0-0.1,0.1-0.1c0.1,0,0.1-0.1,0.2-0.1c0.1,0,0.1-0.1,0.2-0.1c0.1,0,0.1-0.1,0.1-0.1
				s0.1-0.1,0.1-0.1c0,0,0-0.1,0.1-0.1c0,0,0.1-0.1,0.1,0c0,0,0.1,0,0.1,0c0,0,0,0,0,0c0,0,0-0.1,0-0.1c0,0,0.1,0,0.2-0.1
				c0.1,0,0.2-0.1,0.2-0.1c0,0,0,0,0-0.1c0,0,0,0,0,0s0,0,0,0c0,0,0,0,0,0s0,0,0,0c0,0,0,0,0,0s0,0,0-0.1c0,0,0,0,0,0c0,0,0,0,0,0
				c0,0,0,0,0,0c0,0,0,0,0,0c0,0,0.1,0,0.1,0.1s0,0.2-0.1,0.3c0,0,0,0,0,0c0,0,0,0,0,0c0,0,0,0.1-0.1,0.2c-0.1,0.1-0.1,0.1-0.1,0.1
				L67.4,189z M65.7,189.9C65.7,189.9,65.7,189.9,65.7,189.9C65.7,190,65.7,190,65.7,189.9L65.7,189.9z M65.9,189.8L65.9,189.8
				L65.9,189.8C65.9,189.8,65.9,189.8,65.9,189.8C65.9,189.8,65.9,189.8,65.9,189.8z M65.9,189.9C65.9,189.9,65.9,189.9,65.9,189.9
				L65.9,189.9z M66.4,189.6L66.4,189.6C66.4,189.6,66.4,189.6,66.4,189.6z M67.2,188.7C67.2,188.7,67.2,188.7,67.2,188.7l0.1-0.1
				C67.2,188.7,67.2,188.7,67.2,188.7z M67.8,188.3C67.8,188.4,67.8,188.4,67.8,188.3C67.8,188.4,67.7,188.4,67.8,188.3
				C67.8,188.4,67.8,188.4,67.8,188.3z"/>
			<path class="st1" d="M73.7,188.3c0,0,0,0.1-0.1,0.2c-0.1,0.1-0.2,0.2-0.3,0.3c0,0-0.1,0-0.1,0.1c-0.1,0.1-0.1,0.1-0.1,0.1
				l-0.1,0.1l-0.3,0.2l-0.1,0.1l-0.2,0.1c-0.2,0.1-0.4,0.2-0.5,0.3c-0.2,0.1-0.4,0.2-0.6,0.3c0,0,0,0-0.1,0s-0.1,0-0.1,0
				c0,0-0.1,0-0.1,0c0,0-0.1,0-0.1,0c0,0-0.1,0-0.1,0c0,0,0,0,0,0c-0.1,0-0.1,0-0.1,0c0,0-0.1,0-0.1,0.1c0,0-0.1,0-0.1,0
				s-0.1,0-0.1,0c0,0-0.1,0-0.1,0s-0.1,0-0.1,0c0,0,0,0,0,0c0,0,0,0,0,0c0,0-0.1,0-0.1,0c0,0-0.1,0-0.2,0c0,0-0.1,0-0.1,0
				c0,0-0.1,0-0.1,0l0,0c-0.2,0-0.3,0-0.4,0c0,0-0.1,0-0.1,0c0,0,0,0-0.1,0c-0.1,0-0.2,0-0.3-0.1s-0.2-0.1-0.3-0.1
				c-0.1-0.1-0.2-0.1-0.3-0.2c-0.1-0.1-0.2-0.2-0.3-0.3c0-0.1-0.1-0.2-0.1-0.2c0-0.1,0-0.1-0.1-0.2c0-0.1,0-0.2,0-0.2s0-0.2,0-0.2
				c0-0.1,0.1-0.3,0.1-0.5c0-0.2,0.1-0.4,0.3-0.5l0.4-0.4l0.2-0.3c0.1-0.1,0.2-0.1,0.2-0.2s0.1-0.1,0.2-0.2c0.1-0.1,0.1-0.1,0.2-0.1
				c0.1,0,0.1-0.1,0.2-0.1c0.1-0.1,0.2-0.1,0.2-0.2c0.1-0.1,0.2-0.1,0.2-0.2c0.1,0,0.2-0.1,0.2-0.1c0,0,0.1,0,0.1,0
				c0.1,0,0.1,0,0.1,0c0,0,0,0,0.1,0c0,0,0,0,0.1,0c0.1,0.1,0.1,0.2,0.2,0.2c0.1,0.1,0.2,0.1,0.2,0.2c0.1,0,0.1,0.1,0.1,0.1
				s0,0.1,0.1,0.1c0,0.1,0,0.2,0,0.2s0,0.1-0.1,0.2c0,0,0,0,0,0.1c0,0,0,0,0,0.1c0,0.1-0.1,0.1-0.1,0.1c0,0-0.1,0.1-0.1,0.1
				c0,0,0,0.1-0.1,0.1s0,0.1-0.1,0.1c0,0-0.1,0.1-0.2,0.2c-0.1,0.1-0.1,0.1-0.2,0.2c-0.1,0.1-0.1,0.1-0.2,0.2
				c-0.1,0-0.2,0.1-0.2,0.1c0,0,0,0.1,0,0.1c-0.1,0.1-0.2,0.2-0.3,0.2s-0.2,0.2-0.3,0.2c-0.2,0-0.3,0.1-0.5,0.2
				c-0.1,0.1-0.3,0.1-0.5,0.1c0,0,0,0,0,0s0,0,0.1,0c0,0.1,0,0.1,0,0.1s0,0.1,0.1,0.1c0.1,0.1,0.2,0.2,0.3,0.2
				c0.1,0.1,0.3,0.1,0.4,0.1c0.4,0.1,0.8,0.1,1.2,0c0.1,0,0.2,0,0.3-0.1c0.1,0,0.2-0.1,0.4-0.1c0.2-0.1,0.3-0.1,0.5-0.2l0.2-0.1
				c0,0,0.1,0,0.1,0c0,0,0,0,0,0c0,0,0,0,0,0s0,0,0,0l0.4-0.2c0.1-0.1,0.2-0.2,0.3-0.2c0.1,0,0.2-0.1,0.3-0.3c0,0,0,0,0.1-0.1
				s0.1-0.1,0.2-0.1c0.1,0,0.1-0.1,0.2-0.1c0.1,0,0.1-0.1,0.1-0.1l0.2-0.2c0.1-0.1,0.2-0.2,0.3-0.2c0.1-0.1,0.2-0.1,0.2-0.1
				c0,0,0.1,0.1,0.1,0.1s0,0.1,0.1,0.1C74,187.9,74,188,74,188c0,0,0,0.1-0.1,0.1c0,0,0,0-0.1,0.1C73.8,188.2,73.8,188.3,73.7,188.3
				z M70.2,186.5c0,0-0.1,0-0.1,0.1s-0.1,0.1-0.1,0.1c0,0-0.1,0-0.1,0c0,0,0,0-0.1,0c0,0,0,0-0.1,0l-0.1,0.1
				c-0.1,0.1-0.1,0.1-0.2,0.1s-0.1,0.1-0.2,0.1c-0.1,0.1-0.1,0.2-0.2,0.2c-0.1,0-0.1,0.1-0.2,0.2c-0.1,0.1-0.2,0.2-0.3,0.3
				c-0.1,0.1-0.2,0.2-0.3,0.4s-0.2,0.2-0.2,0.4c0.2-0.1,0.4-0.2,0.6-0.3c0.2-0.1,0.4-0.3,0.6-0.4c0.1-0.1,0.1-0.1,0.2-0.2
				c0.1-0.1,0.1-0.1,0.2-0.2c0.1-0.1,0.2-0.1,0.3-0.3s0.2-0.2,0.3-0.4c0-0.1,0-0.1,0.1-0.1c0,0,0-0.1,0-0.1
				C70.4,186.4,70.3,186.4,70.2,186.5C70.3,186.4,70.2,186.4,70.2,186.5z"/>
			<path class="st1" d="M81.7,182.1C81.7,182.1,81.8,182,81.7,182.1C81.8,182,81.8,182,81.7,182.1l0.1,0.1c0,0,0,0,0,0
				C81.8,182.2,81.8,182.2,81.7,182.1c0,0.1,0,0.1,0,0.2c0,0,0,0-0.1,0v0c0,0,0,0,0,0c0,0,0,0,0,0c0,0.1-0.1,0.1-0.1,0.1
				c-0.1,0-0.1,0.1-0.2,0.1c-0.1,0-0.1,0,0,0c0,0,0.1,0,0,0c0,0,0,0-0.1,0c0,0,0,0,0,0c-0.1,0-0.1-0.1-0.1-0.1
				c0-0.1-0.1-0.1-0.2-0.2c0-0.1,0-0.2-0.1-0.2s0-0.2-0.1-0.3c0-0.1,0-0.2,0-0.3c0-0.1,0-0.2,0.1-0.3c0,0,0,0,0,0c0,0,0,0,0,0
				c0,0,0,0,0,0c0,0,0,0,0,0c0,0,0,0,0.1,0c0,0,0-0.1,0-0.1c0.3-0.2,0.6-0.4,0.9-0.5c0.3-0.2,0.6-0.3,1-0.5c0.1,0,0.2-0.1,0.2-0.1
				c0.1,0,0.2-0.1,0.3-0.1c0.1,0,0.1,0,0.2-0.1c0.1,0,0.1,0,0.2-0.1c0.2-0.1,0.3-0.1,0.5-0.1c0.2,0,0.3-0.1,0.5-0.1
				c0.2,0,0.4,0,0.6-0.1s0.4,0,0.6-0.1c0.4,0,0.8,0.1,1.2,0.2c0.4,0.1,0.6,0.3,0.8,0.5c0,0.1,0.1,0.1,0.1,0.2c0,0.1,0.1,0.1,0.1,0.2
				c0,0.1,0,0.1,0.1,0.1c0,0,0,0.1,0.1,0.2c0.1,0.2,0.2,0.4,0.2,0.6c0,0.4,0,0.8-0.2,1.1c-0.1,0.3-0.3,0.6-0.6,0.8
				c-0.1,0.2-0.3,0.4-0.5,0.6c-0.2,0.2-0.4,0.3-0.5,0.5c-0.1,0.1-0.3,0.2-0.4,0.3s-0.2,0.2-0.4,0.2c-0.2,0.2-0.4,0.3-0.7,0.5
				c-0.2,0.1-0.4,0.3-0.7,0.4c0.1,0,0.1,0.1,0.2,0.1s0.2,0,0.2,0.1c0.4,0.1,0.8,0.2,1.2,0.4c0,0,0,0,0,0s0,0,0,0h0
				c0.2,0.1,0.4,0.2,0.5,0.4s0.3,0.2,0.4,0.4c0,0.1,0.1,0.2,0.1,0.3s0.1,0.2,0.1,0.3c0,0,0,0,0,0c0,0,0,0,0,0c0,0,0,0.1,0.1,0.1
				c0,0,0,0.1,0,0.1c0.1,0.1,0.1,0.1,0.1,0.2c0,0.1,0.1,0.2,0.1,0.2c0.1,0.2,0.1,0.4,0.1,0.7c0,0.2-0.1,0.5-0.2,0.7
				c0,0.1-0.1,0.2-0.1,0.2c-0.1,0.1-0.1,0.2-0.2,0.2c0,0.1-0.1,0.1-0.2,0.2c0,0-0.1,0.1-0.1,0.1c0,0-0.1,0.1-0.1,0.1
				c-0.1,0.1-0.1,0.1-0.2,0.2c-0.1,0.1-0.1,0.1-0.2,0.2c-0.1,0.1-0.2,0.2-0.3,0.2c-0.1,0.1-0.2,0.2-0.3,0.2h-0.1l-0.3,0.2
				c-0.1,0-0.2,0.1-0.3,0.2c-0.1,0.1-0.2,0.1-0.3,0.2c-0.1,0-0.1,0-0.2,0.1c-0.1,0-0.1,0.1-0.2,0.1s-0.1,0.1-0.2,0.1
				c-0.1,0-0.1,0.1-0.2,0.1c-0.1,0.1-0.2,0.1-0.4,0.2s-0.2,0.1-0.4,0.1l-0.4,0.2l-0.7,0.2c-0.2,0.1-0.4,0.1-0.6,0.2
				c-0.2,0.1-0.4,0.1-0.7,0.1c0,0,0,0,0.1,0c0,0,0.1,0,0.1,0c0.5-0.1,1-0.3,1.5-0.5c0.5-0.2,0.9-0.4,1.4-0.6c0,0,0,0,0.1,0
				c0,0,0,0,0-0.1c0.1,0,0.3-0.1,0.4-0.2c0.1-0.1,0.2-0.1,0.3-0.2c0.1-0.1,0.2-0.1,0.3-0.2s0.2-0.1,0.3-0.1c0-0.1,0.1-0.1,0.1-0.1
				c0,0,0-0.1,0-0.1c0,0,0,0,0,0c-0.1,0-0.1,0-0.1,0.1s-0.1,0.1-0.1,0.1c0,0,0,0-0.1,0c0,0,0,0,0,0c-0.1,0-0.1,0-0.1,0.1
				s0,0.1-0.1,0.1l-0.2,0.1c-0.1,0-0.1,0.1-0.2,0.1c-0.1,0-0.1,0.1-0.2,0.2c-0.3,0.1-0.6,0.3-0.9,0.4c-0.1,0.1-0.2,0.2-0.3,0.2
				s-0.3,0.1-0.4,0.1c-0.1,0.1-0.1,0.1-0.2,0.1c-0.1,0-0.2,0.1-0.2,0.1v0c-0.2,0.1-0.3,0.1-0.5,0.2c-0.2,0.1-0.3,0.1-0.5,0.2
				c0.1-0.1,0.1-0.1,0.2-0.1s0.1,0,0.2-0.1c-0.2,0.1-0.4,0.2-0.6,0.2c-0.2,0.1-0.4,0.1-0.7,0.2c0.4-0.1,0.8-0.2,1.1-0.4
				s0.7-0.3,1.1-0.4c0,0,0,0,0,0c0.1,0,0.2-0.1,0.3-0.1c0.1,0,0.2-0.1,0.3-0.1c0,0,0,0,0,0c0,0,0,0,0,0c0.3-0.1,0.5-0.2,0.8-0.4
				c0.2-0.1,0.5-0.3,0.7-0.5c-0.1,0-0.2,0.1-0.3,0.1s-0.2,0.1-0.2,0.1c-0.1,0-0.1,0.1-0.1,0.1c0,0-0.1,0.1-0.1,0.1l-0.3,0.1
				c-0.3,0.2-0.7,0.3-1.1,0.4l0.4-0.2c0,0,0,0,0,0s0,0,0,0c0.1-0.1,0.2-0.1,0.3-0.2c0.1,0,0.2-0.1,0.3-0.2c0.1-0.1,0.2-0.1,0.4-0.2
				c0.1-0.1,0.2-0.1,0.3-0.2c0.2-0.2,0.4-0.3,0.6-0.4c0.2-0.1,0.4-0.2,0.6-0.4c0,0,0,0,0,0c0,0,0,0,0,0c0.1,0,0.2-0.1,0.2-0.1
				c0,0,0.1-0.1,0.1-0.2c-0.1,0-0.1,0.1-0.2,0.1c0,0-0.1,0.1-0.2,0.1c0,0.1-0.1,0.1-0.1,0.1c-0.1,0-0.1,0.1-0.2,0.1c0,0,0,0,0,0
				c0,0,0,0-0.1,0c-0.1,0.1-0.2,0.2-0.3,0.2s-0.2,0.1-0.4,0.2c-0.1,0.1-0.2,0.1-0.3,0.2c-0.1,0.1-0.2,0.1-0.4,0.1c0,0,0.1,0,0.1,0
				c0,0,0.1,0,0.1-0.1c-0.1,0-0.2,0.1-0.2,0.1c-0.1,0-0.1,0.1-0.2,0.1c0.2-0.1,0.5-0.2,0.7-0.3c0.2-0.1,0.4-0.3,0.6-0.4
				c0.2-0.1,0.3-0.1,0.4-0.3c0.1-0.1,0.3-0.2,0.4-0.3c0-0.1,0.1-0.1,0.1-0.1c0,0,0.1-0.1,0.1-0.1c0,0-0.1,0-0.1,0c0,0,0,0,0,0
				c0,0,0.1-0.1,0.1-0.1c0.1,0,0.1-0.1,0.1-0.2c0,0-0.1,0-0.1,0c0,0-0.1,0-0.1,0c0,0-0.1,0-0.1,0.1c0,0,0,0,0,0
				c-0.1,0.1-0.1,0.1-0.2,0.2c-0.1,0-0.2,0.1-0.3,0.2v0.1c0,0,0,0-0.1,0s0,0-0.1,0c0,0,0,0,0,0l-0.3,0.1c-0.1,0.1-0.1,0.1-0.2,0.1
				c-0.1,0-0.2,0.1-0.2,0.1c0,0,0.1,0,0.1,0c0,0,0.1-0.1,0.1-0.1c-0.2,0.2-0.4,0.3-0.7,0.4c-0.3,0.1-0.5,0.2-0.7,0.4
				c-0.1,0-0.1,0-0.1,0c0,0-0.1,0-0.2,0c0,0,0.1,0,0.1,0c0.2-0.1,0.4-0.2,0.6-0.3c0.2-0.1,0.4-0.2,0.6-0.3c0,0,0-0.1,0.1-0.1
				c0.1,0,0.1,0,0.1-0.1l-0.1,0.1c0,0,0,0,0,0c0,0,0,0,0,0c0,0,0,0,0,0c0,0,0,0,0,0c0,0-0.1,0-0.1,0c0,0-0.1,0-0.1,0c0,0,0,0,0,0
				c0,0,0,0,0,0c-0.2,0.1-0.4,0.2-0.6,0.3c-0.2,0.1-0.4,0.2-0.5,0.2c0,0,0,0,0,0c0,0,0,0,0,0c0,0-0.1,0-0.1,0c0,0-0.1,0-0.1,0.1
				l-1.2,0.4c-0.1,0-0.2,0-0.3,0.1c-0.1,0-0.2,0.1-0.3,0.1c-0.1,0-0.1,0-0.1,0.1s-0.1,0-0.2,0c-0.1,0.1-0.2,0.1-0.4,0.1
				c-0.1,0-0.3,0.1-0.4,0.1c-0.1,0-0.2,0.1-0.3,0.1s-0.2,0-0.3,0c0,0,0,0,0,0s0,0,0,0c-0.1,0-0.1,0-0.1,0.1c0.3,0,0.6,0,0.9-0.1
				c0.3,0,0.6-0.1,0.9-0.2c-0.2,0.1-0.3,0.1-0.5,0.1c-0.2,0-0.3,0.1-0.4,0.1c0,0,0,0,0,0c0,0,0,0,0,0c0,0-0.1,0-0.1,0
				c-0.1,0-0.1,0-0.1,0c0,0,0,0,0.1,0c0,0,0.1,0,0.1,0c0,0.1-0.1,0.1-0.1,0.1s-0.1,0-0.2,0c0,0,0.1,0,0.1,0c0,0,0.1,0,0.1,0
				c-0.1,0.1-0.2,0.1-0.3,0.1c-0.1,0-0.2-0.1-0.4,0c0,0-0.1,0-0.1,0c0,0,0,0-0.1,0c-0.2,0-0.4,0-0.6,0c-0.2,0-0.4-0.1-0.6-0.1
				c0-0.1-0.1-0.1-0.1-0.1c-0.1,0-0.1-0.1-0.1-0.2c0,0,0,0,0,0c0,0,0,0-0.1,0c0,0,0,0,0,0.1c0,0,0,0.1,0,0.1c0,0-0.1-0.1-0.1-0.1
				c0,0-0.1-0.1-0.1-0.1c0,0,0,0,0.1,0.1c0,0,0,0,0.1,0.1c0,0,0-0.1,0-0.1c0,0,0-0.1,0-0.1c0,0,0,0,0,0c0,0,0,0-0.1,0
				c0-0.1,0-0.1,0-0.1c0,0,0-0.1,0-0.1l-0.1,0c0,0.1,0,0.1,0,0.1c0,0,0,0,0,0c0,0,0-0.1,0-0.1c0,0,0,0,0,0s0,0,0,0c0,0,0,0,0,0
				c0,0,0,0-0.1,0c0,0,0-0.1,0.1-0.1c0,0,0-0.1,0-0.1c0.1,0,0.1-0.1,0.1,0c0,0,0,0,0,0c0,0,0,0,0.1,0c0,0,0,0,0,0c0,0,0,0,0,0
				c0.1-0.1,0.2-0.1,0.3-0.1c0.1,0,0.2,0,0.3,0c0,0,0,0,0,0s0,0,0,0c0,0,0,0,0-0.1c0,0.1,0.1,0.1,0.2,0.1c0.1,0,0.2,0,0.2,0
				c-0.1,0.1-0.1,0.1-0.2,0c-0.1,0-0.2,0-0.2,0.1c-0.1,0-0.1,0-0.2,0.1c-0.1,0-0.1,0.1-0.1,0.2c0,0,0.1,0.1,0.2,0.1
				c0.1,0,0.2,0.1,0.3,0.1c0.1,0,0.2,0,0.3,0s0.2,0,0.2,0c0-0.1,0.1-0.2,0.1-0.3c0-0.1,0-0.2,0.1-0.3c0-0.1,0-0.2,0.1-0.3
				s0.1-0.2,0.1-0.3c0.2-0.9,0.5-1.7,0.8-2.6c0.3-0.8,0.7-1.6,1-2.4c0,0,0,0,0,0c0,0,0,0-0.1,0c0-0.1,0-0.1,0-0.2
				c0,0-0.1-0.1-0.1-0.1c0,0,0.1,0,0.1,0c0,0,0-0.1,0-0.1c0.1,0,0.1,0,0.2-0.1c0,0,0.1,0,0.2-0.1c0.1-0.3,0.3-0.6,0.4-0.9
				c0.1-0.3,0.3-0.6,0.4-0.9c0.1-0.2,0.2-0.4,0.3-0.7c0.1-0.2,0.2-0.5,0.3-0.7c0.1-0.2,0.2-0.4,0.3-0.7c0.1-0.2,0.2-0.5,0.3-0.7
				c0.1-0.1,0.1-0.2,0.1-0.3c0-0.1,0.1-0.2,0.1-0.3c0,0,0,0,0.1,0s0,0,0,0c0.1,0,0.2,0,0.3,0c0.1,0,0.2,0,0.2,0c0.1,0,0.1,0,0.2,0
				c0.1,0,0.1,0,0.1,0.1c0.1,0.1,0.1,0.1,0.1,0.2c0,0.1,0,0.1,0,0.2c0,0.1,0,0.1-0.1,0.2c0,0.1-0.1,0.1-0.1,0.2
				c-0.1,0.3-0.3,0.5-0.4,0.8c-0.1,0.2-0.3,0.5-0.4,0.8h0c-0.1,0.3-0.2,0.5-0.3,0.8c-0.1,0.2-0.2,0.5-0.3,0.7c0,0,0,0,0,0.1
				c0,0,0,0.1-0.1,0.1c-0.1,0.2-0.1,0.3-0.2,0.5c-0.1,0.2-0.2,0.3-0.2,0.5c0.1,0,0.2,0,0.2-0.1c0.1,0,0.1-0.1,0.2-0.1
				c0.5-0.2,1-0.5,1.4-0.7c0,0,0-0.1,0-0.1c0.2-0.1,0.4-0.2,0.5-0.4c0.2-0.1,0.3-0.2,0.5-0.4v0c0.6-0.5,1.1-1,1.5-1.6v-0.1
				c0.1-0.1,0.1-0.2,0.2-0.3s0.1-0.2,0.2-0.4c0.1-0.1,0.1-0.3,0.2-0.4c0-0.1,0.1-0.3,0.1-0.4c0-0.1,0-0.1,0-0.2c0,0,0-0.1-0.1-0.1
				c-0.3-0.2-0.7-0.4-1.2-0.5c-0.4-0.1-0.9-0.1-1.3,0l-0.5,0.1c-0.3,0.1-0.6,0.2-0.9,0.3s-0.6,0.2-0.8,0.3c-0.3,0.1-0.5,0.3-0.8,0.5
				c-0.3,0.2-0.5,0.4-0.6,0.7c0,0,0,0,0.1,0c0,0,0,0,0,0c0,0,0,0,0,0c0,0,0,0,0,0c0,0,0,0.1,0,0.1c0,0,0,0,0,0.1c0,0,0,0,0,0
				c0,0,0,0,0,0c0,0,0,0,0,0C81.8,182,81.8,182,81.7,182.1C81.7,182,81.7,182,81.7,182.1z M78.1,192.9
				C78.1,192.9,78.1,192.8,78.1,192.9C78.1,192.8,78.1,192.8,78.1,192.9L78.1,192.9C78.1,192.8,78.1,192.9,78.1,192.9z M85.3,190.5
				C85.3,190.5,85.3,190.5,85.3,190.5C85.3,190.5,85.3,190.5,85.3,190.5C85.3,190.4,85.2,190.4,85.3,190.5
				C85.2,190.5,85.2,190.5,85.3,190.5L85.3,190.5c0-0.1,0-0.1,0-0.1c0,0,0,0,0.1,0c0,0,0.1,0,0.1,0c0,0,0.1,0,0.1-0.1c0,0,0,0,0,0
				c0,0,0,0,0,0c0,0,0-0.1,0.1-0.1c0,0,0.1,0,0.1-0.1c0.2-0.1,0.4-0.3,0.5-0.5c0.1-0.2,0.3-0.4,0.4-0.5c0,0,0-0.1,0-0.1
				c0.1-0.1,0.2-0.3,0.3-0.5c0.1-0.2,0.1-0.4,0.1-0.6c0-0.1-0.1-0.2-0.1-0.4c-0.1-0.1-0.2-0.2-0.3-0.3c-0.1-0.1-0.2-0.1-0.3-0.1
				c-0.1,0-0.2-0.1-0.3-0.1c0,0,0,0,0,0c0,0,0,0,0,0c-0.1,0-0.1-0.1-0.2-0.1c-0.1,0-0.1-0.1-0.2-0.1c-0.2-0.1-0.4-0.1-0.5-0.2
				c-0.1-0.1-0.3-0.1-0.4-0.1c-0.1,0-0.3-0.1-0.4-0.1c-0.2,0-0.5,0-0.7,0s-0.5,0.1-0.7,0.2c0,0,0,0,0,0s0,0,0,0
				c-0.1,0-0.2,0-0.2,0.1c-0.1,0-0.2,0.1-0.2,0.1c0,0,0,0,0,0c-0.1,0-0.1,0-0.1,0c0,0,0,0.1,0,0.1c-0.1,0.2-0.2,0.4-0.3,0.6
				c-0.1,0.2-0.2,0.4-0.3,0.6c0,0.1,0,0.2,0,0.3c0,0.1,0,0.2-0.1,0.3c-0.1,0.2-0.1,0.4-0.2,0.7c0,0.2-0.1,0.4-0.1,0.7
				c0,0.1-0.1,0.2-0.1,0.3s-0.1,0.2-0.1,0.3c0,0.1,0,0.1-0.1,0.2c0,0.1-0.1,0.2-0.1,0.3c0,0.1-0.1,0.2-0.1,0.3
				c-0.1,0.1-0.1,0.2-0.2,0.3c-0.1,0.1-0.1,0.2-0.2,0.2c0,0,0,0,0,0c-0.1,0-0.1,0.1-0.1,0.2c0,0.1-0.1,0.2-0.1,0.2
				c-0.1,0-0.1,0-0.1,0.1c0,0-0.1,0.1-0.1,0.1c0.3-0.1,0.6-0.1,0.9-0.2c0.3-0.1,0.6-0.1,0.9-0.3c0,0,0,0,0,0s0,0,0,0
				c0.2,0,0.4-0.1,0.5-0.1c0.1-0.1,0.3-0.1,0.5-0.2c0-0.1,0-0.1,0-0.1c0,0,0.1,0,0.1-0.1c0,0,0,0,0,0c0.1-0.1,0.2-0.1,0.3-0.1
				c0,0,0.1,0,0.1,0c0,0,0,0,0,0c0.1,0,0.1,0,0.1,0c0,0,0.1,0,0.1,0c0,0,0,0,0,0s0,0,0,0c0,0,0.1,0,0.1,0c0,0,0.1,0,0.1,0l0,0
				c0.1,0,0.2-0.1,0.3-0.1c0.1-0.1,0.2-0.1,0.3-0.1c0,0,0,0,0,0c0,0,0,0,0,0c0.1,0,0.1,0,0.1,0s0.1,0,0.1-0.1c0,0,0.1-0.1,0.1-0.1
				c0,0,0.1,0,0.1,0c0,0,0,0,0.1,0c0,0,0.1,0,0.1,0l0,0c0,0,0,0,0,0c0,0,0,0,0,0c0,0,0,0,0.1,0C85.2,190.5,85.2,190.5,85.3,190.5
				C85.2,190.5,85.2,190.5,85.3,190.5C85.2,190.5,85.2,190.5,85.3,190.5z M81.8,192.8c0.2-0.1,0.4-0.1,0.6-0.2
				c0.2-0.1,0.4-0.1,0.6-0.2c0,0,0,0,0,0C82.5,192.6,82.1,192.8,81.8,192.8c-0.4,0.2-0.8,0.3-1.2,0.4c0.2,0,0.4-0.1,0.6-0.1
				C81.4,193,81.6,192.9,81.8,192.8z M82.9,192.5C82.9,192.4,82.9,192.4,82.9,192.5C82.9,192.4,82.9,192.4,82.9,192.5
				C82.9,192.5,82.9,192.5,82.9,192.5z M83.2,191.5C83.2,191.5,83.2,191.5,83.2,191.5C83.2,191.5,83.2,191.5,83.2,191.5
				C83.2,191.5,83.2,191.5,83.2,191.5z M84.7,191.5c0.1-0.1,0.1-0.1,0.2-0.2s0.2-0.1,0.2-0.1c0,0,0,0,0.1,0c0,0,0,0,0,0
				c-0.1,0.1-0.2,0.1-0.3,0.2c-0.1,0.1-0.2,0.1-0.4,0.2c0,0,0.1,0,0.1,0S84.7,191.5,84.7,191.5z M86.8,190.8
				c-0.1,0.1-0.2,0.1-0.2,0.2c0,0,0.1-0.1,0.1-0.1S86.8,190.8,86.8,190.8z M86.9,186.6C86.9,186.6,86.9,186.6,86.9,186.6
				C86.9,186.6,86.9,186.6,86.9,186.6c0,0.1,0.1,0.1,0.2,0.2c0.1,0.1,0.1,0.1,0.2,0.2c0,0,0,0,0,0c0,0,0,0,0,0c0,0,0,0,0,0
				c0,0,0,0,0,0c0,0,0,0,0,0h0h0c-0.1-0.1-0.2-0.2-0.3-0.3c-0.1-0.1-0.2-0.2-0.4-0.2c0,0.1,0.1,0.1,0.1,0.1
				C86.8,186.5,86.8,186.5,86.9,186.6z M87.5,187.4c0-0.1,0-0.1,0-0.1c0,0-0.1-0.1-0.1,0C87.4,187.2,87.4,187.3,87.5,187.4
				C87.5,187.4,87.5,187.4,87.5,187.4z"/>
			<path class="st1" d="M97.3,188.6c-0.1,0-0.1,0-0.1,0.1s-0.1,0.1-0.1,0.2c0,0,0,0,0,0c-0.1,0.1-0.2,0.1-0.2,0.2
				c-0.1,0.1-0.2,0.2-0.2,0.2h0v0c0,0,0,0-0.1,0.1c0,0-0.1,0-0.1,0c-0.1,0-0.1,0.1-0.1,0.1c0,0-0.1,0.1-0.1,0.1
				c-0.1,0.1-0.1,0.1-0.1,0.1c0,0-0.1,0.1-0.1,0.1c0,0,0,0,0,0c0,0-0.1,0.1-0.2,0.1c-0.1,0.1-0.2,0.1-0.3,0.2
				c-0.1,0.1-0.2,0.1-0.3,0.1c-0.1,0-0.2,0-0.2,0c0,0-0.1,0-0.1,0c-0.1,0-0.2,0-0.3,0.1c-0.1,0-0.2,0.1-0.3,0c0-0.1-0.1-0.1-0.1-0.1
				c-0.1,0-0.1-0.1-0.2-0.1c0,0-0.1-0.1-0.1-0.1c-0.1-0.1-0.2-0.2-0.3-0.3s-0.1-0.3-0.1-0.5c0-0.2,0-0.4,0-0.6
				c0-0.2,0.1-0.4,0.1-0.6c-0.2,0.1-0.3,0.3-0.4,0.4c-0.1,0.2-0.3,0.3-0.4,0.5c-0.1,0.1-0.1,0.2-0.2,0.2c-0.1,0.1-0.1,0.1-0.2,0.2
				c-0.2,0.2-0.4,0.4-0.5,0.6c0,0,0,0,0,0c0,0,0,0,0,0c-0.1,0.1-0.2,0.1-0.3,0.2c-0.1,0.1-0.2,0.2-0.3,0.2c-0.1,0.1-0.2,0.1-0.4,0.1
				s-0.3,0-0.4-0.1c-0.1,0-0.1,0-0.2-0.1c0,0-0.1-0.1-0.1-0.1c-0.1-0.1-0.2-0.1-0.2-0.2c0-0.1,0-0.2-0.1-0.3c0-0.1,0-0.2,0-0.3
				s0.1-0.2,0.1-0.3c0.1-0.2,0.1-0.4,0.2-0.6s0.2-0.3,0.3-0.5c0.2-0.3,0.4-0.5,0.6-0.7c0.2-0.2,0.4-0.4,0.6-0.6
				c0.1,0,0.1-0.1,0.2-0.1s0.2-0.1,0.2-0.1c0.1,0,0.1,0,0.2,0c0.1,0,0.1,0,0.2,0c0.2,0,0.4,0.1,0.6,0.2c0.2,0.1,0.3,0.2,0.4,0.4
				c0.1-0.1,0.1-0.1,0.2-0.1c0.1,0,0.1-0.1,0.2-0.1c0,0,0.1,0,0.1-0.1c0,0,0,0,0.1,0c0.1,0,0.2,0,0.3,0.1s0.2,0.1,0.3,0.2
				c0,0,0,0,0,0s0,0,0.1,0c0,0,0,0.1,0,0.1s0,0,0,0.1c0,0.2,0,0.4-0.1,0.6c-0.1,0.2-0.2,0.4-0.2,0.6c0,0.3-0.1,0.5-0.2,0.8
				c-0.1,0.3-0.1,0.6,0,0.8c0.4,0,0.7-0.1,1-0.3c0.3-0.1,0.5-0.3,0.8-0.4c0.1-0.1,0.2-0.1,0.3-0.2c0.1-0.1,0.2-0.1,0.2-0.2
				c0,0,0,0,0,0v0c0.1,0,0.2-0.1,0.3-0.2c0.2-0.1,0.3-0.3,0.5-0.4c0.2-0.1,0.3-0.3,0.5-0.4c0.1-0.1,0.2-0.1,0.3-0.1c0,0,0,0,0.1,0
				s0.1,0,0.1,0c0,0,0,0,0,0c0,0,0,0,0,0v0c0,0,0,0,0,0c0,0,0,0.1,0,0.1s0,0,0,0.1c0,0,0,0,0,0c0,0,0,0-0.1,0.1s-0.1,0.1-0.1,0.1
				c0,0.1,0,0.1,0,0.1c0,0,0,0.1,0,0.1c0,0-0.1,0-0.1,0c0,0.1-0.1,0.1-0.1,0.1s-0.1,0.1-0.1,0.1c0,0,0,0-0.1,0.1L97.3,188.6z
				 M92.8,187.2c0-0.1-0.1-0.3-0.1-0.4s-0.2-0.1-0.3,0l-0.3,0.3c0,0,0,0.1-0.1,0.1c0,0-0.1,0-0.1,0.1c0,0,0,0.1-0.1,0.1
				c0,0,0,0.1-0.1,0.1l-0.2,0.3c-0.1,0.2-0.2,0.3-0.4,0.5c-0.1,0.2-0.2,0.4-0.3,0.5c0,0.1,0,0.1-0.1,0.1c0,0-0.1,0.1-0.1,0.2
				c0,0,0,0,0,0s0,0,0,0c0,0.1-0.1,0.2-0.1,0.3s-0.1,0.2-0.1,0.3c0.1-0.1,0.2-0.1,0.3-0.2s0.2-0.1,0.2-0.2c0.3-0.3,0.6-0.6,0.9-1
				c0.3-0.3,0.6-0.7,0.9-1c0,0,0.1-0.1,0.1-0.1c0,0,0-0.1,0.1-0.1v0C92.9,187.2,92.9,187.2,92.8,187.2z"/>
			<path class="st1" d="M103,188.3c0,0,0,0.1-0.1,0.2c-0.1,0.1-0.2,0.2-0.3,0.3c0,0-0.1,0-0.1,0.1c-0.1,0.1-0.1,0.1-0.1,0.1
				l-0.1,0.1l-0.3,0.2l-0.1,0.1l-0.2,0.1c-0.2,0.1-0.4,0.2-0.5,0.3c-0.2,0.1-0.4,0.2-0.6,0.3c0,0,0,0-0.1,0s-0.1,0-0.1,0
				c0,0-0.1,0-0.1,0c0,0-0.1,0-0.1,0c0,0-0.1,0-0.1,0c0,0,0,0,0,0c-0.1,0-0.1,0-0.1,0c0,0-0.1,0-0.1,0.1c0,0-0.1,0-0.1,0
				s-0.1,0-0.1,0c0,0-0.1,0-0.1,0s-0.1,0-0.1,0c0,0,0,0,0,0c0,0,0,0,0,0c0,0-0.1,0-0.1,0c0,0-0.1,0-0.2,0c0,0-0.1,0-0.1,0
				c0,0-0.1,0-0.1,0l0,0c-0.2,0-0.3,0-0.4,0c0,0-0.1,0-0.1,0c0,0,0,0-0.1,0c-0.1,0-0.2,0-0.3-0.1s-0.2-0.1-0.3-0.1
				c-0.1-0.1-0.2-0.1-0.3-0.2c-0.1-0.1-0.2-0.2-0.3-0.3c0-0.1-0.1-0.2-0.1-0.2c0-0.1,0-0.1-0.1-0.2c0-0.1,0-0.2,0-0.2s0-0.2,0-0.2
				c0-0.1,0.1-0.3,0.1-0.5c0-0.2,0.1-0.4,0.3-0.5l0.4-0.4l0.2-0.3c0.1-0.1,0.2-0.1,0.2-0.2s0.1-0.1,0.2-0.2c0.1-0.1,0.1-0.1,0.2-0.1
				c0.1,0,0.1-0.1,0.2-0.1c0.1-0.1,0.2-0.1,0.2-0.2c0.1-0.1,0.2-0.1,0.2-0.2c0.1,0,0.2-0.1,0.2-0.1c0,0,0.1,0,0.1,0
				c0.1,0,0.1,0,0.1,0c0,0,0,0,0.1,0c0,0,0,0,0.1,0c0.1,0.1,0.1,0.2,0.2,0.2c0.1,0.1,0.2,0.1,0.2,0.2c0.1,0,0.1,0.1,0.1,0.1
				s0,0.1,0.1,0.1c0,0.1,0,0.2,0,0.2s0,0.1-0.1,0.2c0,0,0,0,0,0.1c0,0,0,0,0,0.1c0,0.1-0.1,0.1-0.1,0.1c0,0-0.1,0.1-0.1,0.1
				c0,0,0,0.1-0.1,0.1s0,0.1-0.1,0.1c0,0-0.1,0.1-0.2,0.2c-0.1,0.1-0.1,0.1-0.2,0.2c-0.1,0.1-0.1,0.1-0.2,0.2
				c-0.1,0-0.2,0.1-0.2,0.1c0,0,0,0.1,0,0.1c-0.1,0.1-0.2,0.2-0.3,0.2s-0.2,0.2-0.3,0.2c-0.2,0-0.3,0.1-0.5,0.2
				c-0.1,0.1-0.3,0.1-0.5,0.1c0,0,0,0,0,0s0,0,0.1,0c0,0.1,0,0.1,0,0.1s0,0.1,0.1,0.1c0.1,0.1,0.2,0.2,0.3,0.2
				c0.1,0.1,0.3,0.1,0.4,0.1c0.4,0.1,0.8,0.1,1.2,0c0.1,0,0.2,0,0.3-0.1c0.1,0,0.2-0.1,0.4-0.1c0.2-0.1,0.3-0.1,0.5-0.2l0.2-0.1
				c0,0,0.1,0,0.1,0c0,0,0,0,0,0c0,0,0,0,0,0s0,0,0,0l0.4-0.2c0.1-0.1,0.2-0.2,0.3-0.2c0.1,0,0.2-0.1,0.3-0.3c0,0,0,0,0.1-0.1
				s0.1-0.1,0.2-0.1c0.1,0,0.1-0.1,0.2-0.1c0.1,0,0.1-0.1,0.1-0.1l0.2-0.2c0.1-0.1,0.2-0.2,0.3-0.2c0.1-0.1,0.2-0.1,0.2-0.1
				c0,0,0.1,0.1,0.1,0.1s0,0.1,0.1,0.1c-0.1,0.1-0.1,0.2-0.1,0.2c0,0,0,0.1-0.1,0.1c0,0,0,0-0.1,0.1
				C103.1,188.2,103.1,188.3,103,188.3z M99.6,186.5c0,0-0.1,0-0.1,0.1s-0.1,0.1-0.1,0.1c0,0-0.1,0-0.1,0c0,0,0,0-0.1,0
				c0,0,0,0-0.1,0l-0.1,0.1c-0.1,0.1-0.1,0.1-0.2,0.1s-0.1,0.1-0.2,0.1c-0.1,0.1-0.1,0.2-0.2,0.2c-0.1,0-0.1,0.1-0.2,0.2
				c-0.1,0.1-0.2,0.2-0.3,0.3c-0.1,0.1-0.2,0.2-0.3,0.4s-0.2,0.2-0.2,0.4c0.2-0.1,0.4-0.2,0.6-0.3c0.2-0.1,0.4-0.3,0.6-0.4
				c0.1-0.1,0.1-0.1,0.2-0.2c0.1-0.1,0.1-0.1,0.2-0.2c0.1-0.1,0.2-0.1,0.3-0.3s0.2-0.2,0.3-0.4c0-0.1,0-0.1,0.1-0.1c0,0,0-0.1,0-0.1
				C99.7,186.4,99.7,186.4,99.6,186.5C99.6,186.4,99.6,186.4,99.6,186.5z"/>
			<path class="st1" d="M102.6,189.9c0-0.1,0.1-0.2,0.1-0.2c0.1,0,0.1-0.1,0.2-0.2c0,0,0,0.1-0.1,0.1c0,0,0,0,0,0.1
				c0.2-0.1,0.2-0.2,0.3-0.3c0,0,0.1,0,0.1,0c0-0.1,0.1-0.1,0.1-0.1l0,0c0,0,0,0,0-0.1s0-0.1,0-0.1c0,0,0,0,0,0c0,0,0,0,0,0
				c0-0.1,0.1-0.1,0.1-0.1c0,0,0.1,0,0.1-0.1c0,0,0,0,0.1,0c0.1-0.1,0.2-0.1,0.3-0.2c0.1,0,0.2-0.1,0.2-0.2c0.1-0.1,0.3-0.1,0.4-0.2
				c0.1-0.1,0.3-0.2,0.4-0.2c0-0.2,0.1-0.4,0-0.6c0-0.2-0.1-0.4-0.1-0.6c0,0-0.1,0.1-0.2,0.1s-0.1,0.1-0.2,0.2l-0.2,0.2l-0.2,0.2
				l-0.3,0.3c-0.1,0.1-0.2,0.1-0.2,0.2c-0.1,0.1-0.1,0.1-0.2,0.1c-0.1,0.1-0.1,0.2-0.2,0.2c-0.1,0-0.1,0-0.2,0c0,0-0.1-0.1-0.1-0.1
				c0,0,0,0,0,0s0,0,0,0c0,0,0,0-0.1-0.1c0,0-0.1,0-0.1,0s0,0,0,0c0,0,0,0,0-0.1c0,0,0,0,0,0c0.1,0,0.1-0.1,0.2-0.1
				c0,0,0-0.1,0.1-0.1c0-0.1,0-0.1,0.1-0.1c0.1,0,0.1-0.1,0.1-0.1s0.1,0,0.1-0.1c0,0,0,0,0-0.1c0,0,0-0.1,0-0.1c0,0,0.1-0.1,0.1-0.1
				s0.1-0.1,0.1-0.1c0.1-0.1,0.2-0.2,0.3-0.3c0.1-0.1,0.2-0.2,0.2-0.3c0.1-0.2,0.2-0.3,0.4-0.4c0.2,0,0.3,0,0.4,0.1
				c0.2,0,0.3,0,0.3,0.1c0.1,0.1,0.1,0.1,0.2,0.3c0,0,0.1,0.1,0.1,0.2c0,0.1,0,0.2,0.1,0.3s0,0.2,0,0.3c0,0.1,0,0.2,0,0.2
				c0.1,0,0.2,0,0.3-0.1c0.2-0.1,0.3-0.1,0.5-0.2s0.4-0.1,0.5-0.2c0.2,0,0.3-0.1,0.3-0.1c0,0,0,0,0,0c0,0,0,0,0,0c0,0,0,0,0.1,0
				c0.1,0,0.2,0,0.2-0.1s0.2-0.1,0.2-0.1c0,0,0.1,0,0.1,0c0,0,0,0,0.1-0.1v0v0c0,0,0,0,0-0.1c0.1,0,0.2,0,0.3,0c0.1,0,0.2,0,0.2,0
				c0,0,0.1,0,0.1,0c0,0,0.1,0,0.1,0l0.2,0c0,0.1,0,0.1,0.1,0c0,0,0,0,0,0c0,0,0,0,0,0s0,0,0,0c0,0,0,0,0,0c0,0,0,0,0,0
				c0,0,0,0.1,0,0.1s0,0,0,0.1c-0.1,0-0.1,0-0.1,0c0,0-0.1,0-0.1,0c0,0,0,0,0,0c0,0,0,0,0,0c-0.1,0-0.1,0-0.2,0
				c-0.1,0-0.1,0-0.1,0.1c-0.1,0-0.2,0-0.3,0.1s-0.2,0-0.3,0.1c0,0,0,0.1,0,0.1c-0.1,0-0.1,0-0.2,0c0,0-0.1,0-0.1,0
				c-0.1,0-0.2,0-0.3,0.1c-0.1,0-0.2,0.1-0.3,0.1l-1.3,0.5c-0.1,0-0.2,0.1-0.3,0.1c-0.1,0-0.2,0.1-0.2,0.2c0,0.2-0.1,0.3-0.1,0.3
				c0,0.1-0.1,0.2-0.1,0.3c-0.1,0-0.1,0-0.1,0.1s0,0.1,0,0.1c0,0,0,0,0,0c0,0,0,0,0,0c0,0.1,0,0.1-0.1,0.2c0,0.1-0.1,0.1-0.1,0.2
				c0,0,0,0,0,0.1s0,0.1,0,0.1c0,0,0,0-0.1,0.1c0,0,0,0.1,0,0.1c0,0,0,0,0,0s0,0,0,0c0,0,0,0.1,0,0.1c0,0,0,0,0,0
				c-0.1,0.1-0.1,0.1-0.2,0.2c0,0.1-0.1,0.1-0.2,0.2c0,0,0,0,0,0c0,0,0,0,0,0c-0.2,0.2-0.3,0.3-0.5,0.5c-0.2,0.1-0.4,0.2-0.6,0.3
				c0,0,0,0,0,0c0,0-0.1,0-0.1,0c0,0,0,0,0,0c0,0,0,0,0.1,0c0-0.1-0.1-0.1-0.1,0c0,0-0.1,0-0.1,0c0,0,0,0,0,0v0c0,0-0.1,0-0.1,0
				s-0.1,0-0.2,0c0,0,0,0,0,0s0,0,0,0c-0.2,0-0.4,0-0.6-0.1c-0.1-0.1-0.3-0.2-0.4-0.3c0,0,0,0,0,0c0,0,0,0,0,0c0,0,0,0,0,0
				c0,0,0,0,0-0.1c0,0,0,0.1-0.1,0c0,0,0,0-0.1,0c0,0,0-0.1,0-0.1s0,0,0-0.1c0,0,0,0,0,0c0,0,0,0,0,0c0,0,0-0.1,0-0.1
				c0,0,0.1,0,0.1,0c0-0.2,0-0.3,0.1-0.3c0,0,0,0,0,0c0,0,0,0,0,0c0.1,0,0.1-0.1,0.1-0.2c0-0.1,0.1-0.2,0.1-0.3
				C102.4,190,102.5,190,102.6,189.9C102.5,189.9,102.5,189.9,102.6,189.9z M102.7,189.7C102.7,189.7,102.7,189.7,102.7,189.7
				C102.7,189.7,102.7,189.7,102.7,189.7z M104,189.5C104,189.5,104,189.5,104,189.5C103.9,189.5,103.9,189.5,104,189.5
				c-0.1,0.1-0.2,0.2-0.3,0.3s-0.2,0.2-0.3,0.3c0,0,0,0.1,0,0c0,0,0,0,0,0s0,0,0,0c-0.1,0-0.1,0.1-0.1,0.1c0,0,0,0,0,0
				c0,0.1-0.1,0.1-0.2,0.2c-0.1,0-0.1,0.1-0.1,0.2c0,0,0,0,0,0s0,0,0,0c0.1,0,0.3-0.1,0.4-0.1c0.1,0,0.2-0.1,0.4-0.2
				c0,0,0-0.1,0-0.1c0,0,0,0,0,0c0.2-0.2,0.4-0.4,0.6-0.7c0.2-0.3,0.3-0.5,0.5-0.8l0,0c-0.1,0.1-0.2,0.2-0.3,0.3
				S104.1,189.4,104,189.5z M103.6,191.4c0,0,0.1,0,0.1-0.1C103.8,191.3,103.7,191.3,103.6,191.4
				C103.7,191.3,103.7,191.3,103.6,191.4z"/>
			<path class="st1" d="M107.9,189.9c0-0.1,0.1-0.2,0.1-0.2c0.1,0,0.1-0.1,0.2-0.2c0,0,0,0.1-0.1,0.1c0,0,0,0,0,0.1
				c0.2-0.1,0.2-0.2,0.3-0.3c0,0,0.1,0,0.1,0c0-0.1,0.1-0.1,0.1-0.1l0,0c0,0,0,0,0-0.1s0-0.1,0-0.1c0,0,0,0,0,0c0,0,0,0,0,0
				c0-0.1,0.1-0.1,0.1-0.1c0,0,0.1,0,0.1-0.1c0,0,0,0,0.1,0c0.1-0.1,0.2-0.1,0.3-0.2c0.1,0,0.2-0.1,0.2-0.2c0.1-0.1,0.3-0.1,0.4-0.2
				c0.1-0.1,0.3-0.2,0.4-0.2c0-0.2,0.1-0.4,0-0.6c0-0.2-0.1-0.4-0.1-0.6c0,0-0.1,0.1-0.2,0.1s-0.1,0.1-0.2,0.2l-0.2,0.2l-0.2,0.2
				l-0.3,0.3c-0.1,0.1-0.2,0.1-0.2,0.2c-0.1,0.1-0.1,0.1-0.2,0.1c-0.1,0.1-0.1,0.2-0.2,0.2c-0.1,0-0.1,0-0.2,0c0,0-0.1-0.1-0.1-0.1
				c0,0,0,0,0,0s0,0,0,0c0,0,0,0-0.1-0.1c0,0-0.1,0-0.1,0s0,0,0,0c0,0,0,0,0-0.1c0,0,0,0,0,0c0.1,0,0.1-0.1,0.2-0.1
				c0,0,0-0.1,0.1-0.1c0-0.1,0-0.1,0.1-0.1c0.1,0,0.1-0.1,0.1-0.1s0.1,0,0.1-0.1c0,0,0,0,0-0.1c0,0,0-0.1,0-0.1c0,0,0.1-0.1,0.1-0.1
				s0.1-0.1,0.1-0.1c0.1-0.1,0.2-0.2,0.3-0.3c0.1-0.1,0.2-0.2,0.2-0.3c0.1-0.2,0.2-0.3,0.4-0.4c0.2,0,0.3,0,0.4,0.1
				c0.2,0,0.3,0,0.3,0.1c0.1,0.1,0.1,0.1,0.2,0.3c0,0,0.1,0.1,0.1,0.2c0,0.1,0,0.2,0.1,0.3s0,0.2,0,0.3c0,0.1,0,0.2,0,0.2
				c0.1,0,0.2,0,0.3-0.1c0.2-0.1,0.3-0.1,0.5-0.2s0.4-0.1,0.5-0.2c0.2,0,0.3-0.1,0.3-0.1c0,0,0,0,0,0c0,0,0,0,0,0c0,0,0,0,0.1,0
				c0.1,0,0.2,0,0.2-0.1s0.2-0.1,0.2-0.1c0,0,0.1,0,0.1,0c0,0,0,0,0.1-0.1v0v0c0,0,0,0,0-0.1c0.1,0,0.2,0,0.3,0c0.1,0,0.2,0,0.2,0
				c0,0,0.1,0,0.1,0c0,0,0.1,0,0.1,0l0.2,0c0,0.1,0,0.1,0.1,0c0,0,0,0,0,0c0,0,0,0,0,0s0,0,0,0c0,0,0,0,0,0c0,0,0,0,0,0
				c0,0,0,0.1,0,0.1s0,0,0,0.1c-0.1,0-0.1,0-0.1,0c0,0-0.1,0-0.1,0c0,0,0,0,0,0c0,0,0,0,0,0c-0.1,0-0.1,0-0.2,0
				c-0.1,0-0.1,0-0.1,0.1c-0.1,0-0.2,0-0.3,0.1s-0.2,0-0.3,0.1c0,0,0,0.1,0,0.1c-0.1,0-0.1,0-0.2,0c0,0-0.1,0-0.1,0
				c-0.1,0-0.2,0-0.3,0.1c-0.1,0-0.2,0.1-0.3,0.1l-1.3,0.5c-0.1,0-0.2,0.1-0.3,0.1c-0.1,0-0.2,0.1-0.2,0.2c0,0.2-0.1,0.3-0.1,0.3
				c0,0.1-0.1,0.2-0.1,0.3c-0.1,0-0.1,0-0.1,0.1s0,0.1,0,0.1c0,0,0,0,0,0c0,0,0,0,0,0c0,0.1,0,0.1-0.1,0.2c0,0.1-0.1,0.1-0.1,0.2
				c0,0,0,0,0,0.1s0,0.1,0,0.1c0,0,0,0-0.1,0.1c0,0,0,0.1,0,0.1c0,0,0,0,0,0s0,0,0,0c0,0,0,0.1,0,0.1c0,0,0,0,0,0
				c-0.1,0.1-0.1,0.1-0.2,0.2c0,0.1-0.1,0.1-0.2,0.2c0,0,0,0,0,0c0,0,0,0,0,0c-0.2,0.2-0.3,0.3-0.5,0.5c-0.2,0.1-0.4,0.2-0.6,0.3
				c0,0,0,0,0,0c0,0-0.1,0-0.1,0c0,0,0,0,0,0c0,0,0,0,0.1,0c0-0.1-0.1-0.1-0.1,0c0,0-0.1,0-0.1,0c0,0,0,0,0,0v0c0,0-0.1,0-0.1,0
				s-0.1,0-0.2,0c0,0,0,0,0,0s0,0,0,0c-0.2,0-0.4,0-0.6-0.1c-0.1-0.1-0.3-0.2-0.4-0.3c0,0,0,0,0,0c0,0,0,0,0,0c0,0,0,0,0,0
				c0,0,0,0,0-0.1c0,0,0,0.1-0.1,0c0,0,0,0-0.1,0c0,0,0-0.1,0-0.1s0,0,0-0.1c0,0,0,0,0,0c0,0,0,0,0,0c0,0,0-0.1,0-0.1
				c0,0,0.1,0,0.1,0c0-0.2,0-0.3,0.1-0.3c0,0,0,0,0,0c0,0,0,0,0,0c0.1,0,0.1-0.1,0.1-0.2c0-0.1,0.1-0.2,0.1-0.3
				C107.8,190,107.8,190,107.9,189.9C107.9,189.9,107.9,189.9,107.9,189.9z M108.1,189.7C108.1,189.7,108.1,189.7,108.1,189.7
				C108.1,189.7,108.1,189.7,108.1,189.7z M109.3,189.5C109.3,189.5,109.3,189.5,109.3,189.5C109.3,189.5,109.3,189.5,109.3,189.5
				c-0.1,0.1-0.2,0.2-0.3,0.3s-0.2,0.2-0.3,0.3c0,0,0,0.1,0,0c0,0,0,0,0,0s0,0,0,0c-0.1,0-0.1,0.1-0.1,0.1c0,0,0,0,0,0
				c0,0.1-0.1,0.1-0.2,0.2c-0.1,0-0.1,0.1-0.1,0.2c0,0,0,0,0,0s0,0,0,0c0.1,0,0.3-0.1,0.4-0.1c0.1,0,0.2-0.1,0.4-0.2
				c0,0,0-0.1,0-0.1c0,0,0,0,0,0c0.2-0.2,0.4-0.4,0.6-0.7c0.2-0.3,0.3-0.5,0.5-0.8l0,0c-0.1,0.1-0.2,0.2-0.3,0.3
				S109.5,189.4,109.3,189.5z M109,191.4c0,0,0.1,0,0.1-0.1C109.1,191.3,109.1,191.3,109,191.4C109,191.3,109,191.3,109,191.4z"/>
			<path class="st1" d="M119.3,188.3c0,0,0,0.1-0.1,0.2c-0.1,0.1-0.2,0.2-0.3,0.3c0,0-0.1,0-0.1,0.1c-0.1,0.1-0.1,0.1-0.1,0.1
				l-0.1,0.1l-0.3,0.2l-0.1,0.1l-0.2,0.1c-0.2,0.1-0.4,0.2-0.5,0.3c-0.2,0.1-0.4,0.2-0.6,0.3c0,0,0,0-0.1,0s-0.1,0-0.1,0
				c0,0-0.1,0-0.1,0c0,0-0.1,0-0.1,0c0,0-0.1,0-0.1,0c0,0,0,0,0,0c-0.1,0-0.1,0-0.1,0c0,0-0.1,0-0.1,0.1c0,0-0.1,0-0.1,0
				s-0.1,0-0.1,0c0,0-0.1,0-0.1,0s-0.1,0-0.1,0c0,0,0,0,0,0c0,0,0,0,0,0c0,0-0.1,0-0.1,0c0,0-0.1,0-0.2,0c0,0-0.1,0-0.1,0
				c0,0-0.1,0-0.1,0l0,0c-0.2,0-0.3,0-0.4,0c0,0-0.1,0-0.1,0c0,0,0,0-0.1,0c-0.1,0-0.2,0-0.3-0.1s-0.2-0.1-0.3-0.1
				c-0.1-0.1-0.2-0.1-0.3-0.2c-0.1-0.1-0.2-0.2-0.3-0.3c0-0.1-0.1-0.2-0.1-0.2c0-0.1,0-0.1-0.1-0.2c0-0.1,0-0.2,0-0.2s0-0.2,0-0.2
				c0-0.1,0.1-0.3,0.1-0.5c0-0.2,0.1-0.4,0.3-0.5l0.4-0.4l0.2-0.3c0.1-0.1,0.2-0.1,0.2-0.2s0.1-0.1,0.2-0.2c0.1-0.1,0.1-0.1,0.2-0.1
				c0.1,0,0.1-0.1,0.2-0.1c0.1-0.1,0.2-0.1,0.2-0.2c0.1-0.1,0.2-0.1,0.2-0.2c0.1,0,0.2-0.1,0.2-0.1c0,0,0.1,0,0.1,0
				c0.1,0,0.1,0,0.1,0c0,0,0,0,0.1,0c0,0,0,0,0.1,0c0.1,0.1,0.1,0.2,0.2,0.2c0.1,0.1,0.2,0.1,0.2,0.2c0.1,0,0.1,0.1,0.1,0.1
				s0,0.1,0.1,0.1c0,0.1,0,0.2,0,0.2s0,0.1-0.1,0.2c0,0,0,0,0,0.1c0,0,0,0,0,0.1c0,0.1-0.1,0.1-0.1,0.1c0,0-0.1,0.1-0.1,0.1
				c0,0,0,0.1-0.1,0.1s0,0.1-0.1,0.1c0,0-0.1,0.1-0.2,0.2c-0.1,0.1-0.1,0.1-0.2,0.2c-0.1,0.1-0.1,0.1-0.2,0.2
				c-0.1,0-0.2,0.1-0.2,0.1c0,0,0,0.1,0,0.1c-0.1,0.1-0.2,0.2-0.3,0.2s-0.2,0.2-0.3,0.2c-0.2,0-0.3,0.1-0.5,0.2
				c-0.1,0.1-0.3,0.1-0.5,0.1c0,0,0,0,0,0s0,0,0.1,0c0,0.1,0,0.1,0,0.1s0,0.1,0.1,0.1c0.1,0.1,0.2,0.2,0.3,0.2
				c0.1,0.1,0.3,0.1,0.4,0.1c0.4,0.1,0.8,0.1,1.2,0c0.1,0,0.2,0,0.3-0.1c0.1,0,0.2-0.1,0.4-0.1c0.2-0.1,0.3-0.1,0.5-0.2l0.2-0.1
				c0,0,0.1,0,0.1,0c0,0,0,0,0,0c0,0,0,0,0,0s0,0,0,0l0.4-0.2c0.1-0.1,0.2-0.2,0.3-0.2c0.1,0,0.2-0.1,0.3-0.3c0,0,0,0,0.1-0.1
				s0.1-0.1,0.2-0.1c0.1,0,0.1-0.1,0.2-0.1c0.1,0,0.1-0.1,0.1-0.1l0.2-0.2c0.1-0.1,0.2-0.2,0.3-0.2c0.1-0.1,0.2-0.1,0.2-0.1
				c0,0,0.1,0.1,0.1,0.1s0,0.1,0.1,0.1c-0.1,0.1-0.1,0.2-0.1,0.2c0,0,0,0.1-0.1,0.1c0,0,0,0-0.1,0.1
				C119.4,188.2,119.4,188.3,119.3,188.3z M115.9,186.5c0,0-0.1,0-0.1,0.1s-0.1,0.1-0.1,0.1c0,0-0.1,0-0.1,0c0,0,0,0-0.1,0
				c0,0,0,0-0.1,0l-0.1,0.1c-0.1,0.1-0.1,0.1-0.2,0.1S115,187,115,187c-0.1,0.1-0.1,0.2-0.2,0.2c-0.1,0-0.1,0.1-0.2,0.2
				c-0.1,0.1-0.2,0.2-0.3,0.3c-0.1,0.1-0.2,0.2-0.3,0.4s-0.2,0.2-0.2,0.4c0.2-0.1,0.4-0.2,0.6-0.3c0.2-0.1,0.4-0.3,0.6-0.4
				c0.1-0.1,0.1-0.1,0.2-0.2c0.1-0.1,0.1-0.1,0.2-0.2c0.1-0.1,0.2-0.1,0.3-0.3s0.2-0.2,0.3-0.4c0-0.1,0-0.1,0.1-0.1c0,0,0-0.1,0-0.1
				C116,186.4,116,186.4,115.9,186.5C115.9,186.4,115.9,186.4,115.9,186.5z"/>
		</g>
	</g>
</g>
</svg>
