<?xml version="1.0" encoding="utf-8"?>
<!-- Generator: Adobe Illustrator 23.0.1, SVG Export Plug-In . SVG Version: 6.00 Build 0)  -->
<svg version="1.1" id="Camada_2" xmlns="http://www.w3.org/2000/svg" xmlns:xlink="http://www.w3.org/1999/xlink" x="0px" y="0px"
	 viewBox="0 0 238.6 237.6" style="enable-background:new 0 0 238.6 237.6;" xml:space="preserve">
<style type="text/css">
	.st0{fill:none;}
	.st1{fill:#A08C82;}
</style>
<g>
	<rect x="25.4" y="23.4" class="st0" width="185.8" height="191.1"/>
	<rect x="189.4" y="34.8" class="st0" width="10.1" height="9.8"/>
	<rect x="189.4" y="45.4" class="st0" width="10.1" height="9.8"/>
	<rect x="189.4" y="55.9" class="st0" width="10.1" height="9.8"/>
	<rect x="189.4" y="66.5" class="st0" width="10.1" height="9.8"/>
	<rect x="189.4" y="77.1" class="st0" width="10.1" height="9.8"/>
	<rect x="189.4" y="87.6" class="st0" width="10.1" height="9.8"/>
	<rect x="189.4" y="98.2" class="st0" width="10.1" height="9.8"/>
	<rect x="189.4" y="108.8" class="st0" width="10.1" height="9.8"/>
	<rect x="189.4" y="119.4" class="st0" width="10.1" height="9.8"/>
	<rect x="189.4" y="129.9" class="st0" width="10.1" height="9.8"/>
	<rect x="189.4" y="140.5" class="st0" width="10.1" height="9.8"/>
	<rect x="189.4" y="151.1" class="st0" width="10.1" height="9.8"/>
	<rect x="189.4" y="161.7" class="st0" width="10.1" height="9.8"/>
	<rect x="189.4" y="172.2" class="st0" width="10.1" height="9.8"/>
	<rect x="189.4" y="182.8" class="st0" width="10.1" height="9.8"/>
	<rect x="189.4" y="193.4" class="st0" width="10.1" height="9.8"/>
	<rect x="178.6" y="34.8" class="st0" width="10.1" height="9.8"/>
	<rect x="178.6" y="45.4" class="st0" width="10.1" height="9.8"/>
	<rect x="178.6" y="55.9" class="st0" width="10.1" height="9.8"/>
	<rect x="178.6" y="66.5" class="st0" width="10.1" height="9.8"/>
	<rect x="178.6" y="77.1" class="st0" width="10.1" height="9.8"/>
	<rect x="178.6" y="87.6" class="st0" width="10.1" height="9.8"/>
	<rect x="178.6" y="129.9" class="st0" width="10.1" height="9.8"/>
	<rect x="178.6" y="140.5" class="st0" width="10.1" height="9.8"/>
	<rect x="178.6" y="151.1" class="st0" width="10.1" height="9.8"/>
	<rect x="178.6" y="161.7" class="st0" width="10.1" height="9.8"/>
	<rect x="178.6" y="172.2" class="st0" width="10.1" height="9.8"/>
	<rect x="178.6" y="193.4" class="st0" width="10.1" height="9.8"/>
	<rect x="167.7" y="34.8" class="st0" width="10.1" height="9.8"/>
	<rect x="167.7" y="45.4" class="st0" width="10.1" height="9.8"/>
	<rect x="167.7" y="55.9" class="st0" width="10.1" height="9.8"/>
	<rect x="167.7" y="66.5" class="st0" width="10.1" height="9.8"/>
	<rect x="167.7" y="77.1" class="st0" width="10.1" height="9.8"/>
	<rect x="167.7" y="98.2" class="st0" width="10.1" height="9.8"/>
	<rect x="167.7" y="108.8" class="st0" width="10.1" height="9.8"/>
	<rect x="167.7" y="119.4" class="st0" width="10.1" height="9.8"/>
	<rect x="167.7" y="140.5" class="st0" width="10.1" height="9.8"/>
	<rect x="167.7" y="151.1" class="st0" width="10.1" height="9.8"/>
	<rect x="167.7" y="161.7" class="st0" width="10.1" height="9.8"/>
	<rect x="167.7" y="182.8" class="st0" width="10.1" height="9.8"/>
	<rect x="167.7" y="193.4" class="st0" width="10.1" height="9.8"/>
	<rect x="156.8" y="34.8" class="st0" width="10.1" height="9.8"/>
	<rect x="156.8" y="45.4" class="st0" width="10.1" height="9.8"/>
	<rect x="156.8" y="55.9" class="st0" width="10.1" height="9.8"/>
	<rect x="156.8" y="66.5" class="st0" width="10.1" height="9.8"/>
	<rect x="156.8" y="77.1" class="st0" width="10.1" height="9.8"/>
	<rect x="156.8" y="98.2" class="st0" width="10.1" height="9.8"/>
	<rect x="156.8" y="108.8" class="st0" width="10.1" height="9.8"/>
	<rect x="156.8" y="119.4" class="st0" width="10.1" height="9.8"/>
	<rect x="156.8" y="140.5" class="st0" width="10.1" height="9.8"/>
	<rect x="156.8" y="151.1" class="st0" width="10.1" height="9.8"/>
	<rect x="156.8" y="172.2" class="st0" width="10.1" height="9.8"/>
	<rect x="156.8" y="182.8" class="st0" width="10.1" height="9.8"/>
	<rect x="156.8" y="193.4" class="st0" width="10.1" height="9.8"/>
	<rect x="145.9" y="34.8" class="st0" width="10.1" height="9.8"/>
	<rect x="145.9" y="45.4" class="st0" width="10.1" height="9.8"/>
	<rect x="145.9" y="55.9" class="st0" width="10.1" height="9.8"/>
	<rect x="145.9" y="66.5" class="st0" width="10.1" height="9.8"/>
	<rect x="145.9" y="77.1" class="st0" width="10.1" height="9.8"/>
	<rect x="145.9" y="98.2" class="st0" width="10.1" height="9.8"/>
	<rect x="145.9" y="108.8" class="st0" width="10.1" height="9.8"/>
	<rect x="145.9" y="119.4" class="st0" width="10.1" height="9.8"/>
	<rect x="145.9" y="140.5" class="st0" width="10.1" height="9.8"/>
	<rect x="145.9" y="161.7" class="st0" width="10.1" height="9.8"/>
	<rect x="145.9" y="172.2" class="st0" width="10.1" height="9.8"/>
	<rect x="145.9" y="182.8" class="st0" width="10.1" height="9.8"/>
	<rect x="145.9" y="193.4" class="st0" width="10.1" height="9.8"/>
	<rect x="135" y="34.8" class="st0" width="10.1" height="9.8"/>
	<rect x="135" y="45.4" class="st0" width="10.1" height="9.8"/>
	<rect x="135" y="55.9" class="st0" width="10.1" height="9.8"/>
	<rect x="135" y="66.5" class="st0" width="10.1" height="9.8"/>
	<rect x="135" y="77.1" class="st0" width="10.1" height="9.8"/>
	<rect x="135" y="98.2" class="st0" width="10.1" height="9.8"/>
	<rect x="135" y="108.8" class="st0" width="10.1" height="9.8"/>
	<rect x="135" y="119.4" class="st0" width="10.1" height="9.8"/>
	<rect x="135" y="151.1" class="st0" width="10.1" height="9.8"/>
	<rect x="135" y="161.7" class="st0" width="10.1" height="9.8"/>
	<rect x="135" y="172.2" class="st0" width="10.1" height="9.8"/>
	<rect x="135" y="182.8" class="st0" width="10.1" height="9.8"/>
	<rect x="135" y="193.4" class="st0" width="10.1" height="9.8"/>
	<rect x="124.1" y="34.8" class="st0" width="10.1" height="9.8"/>
	<rect x="124.1" y="45.4" class="st0" width="10.1" height="9.8"/>
	<rect x="124.1" y="55.9" class="st0" width="10.1" height="9.8"/>
	<rect x="124.1" y="66.5" class="st0" width="10.1" height="9.8"/>
	<rect x="124.1" y="77.1" class="st0" width="10.1" height="9.8"/>
	<rect x="124.1" y="193.4" class="st0" width="10.1" height="9.8"/>
	<rect x="113.3" y="34.8" class="st0" width="10.1" height="9.8"/>
	<rect x="113.3" y="45.4" class="st0" width="10.1" height="9.8"/>
	<rect x="113.3" y="55.9" class="st0" width="10.1" height="9.8"/>
	<rect x="113.3" y="66.5" class="st0" width="10.1" height="9.8"/>
	<rect x="113.3" y="77.1" class="st0" width="10.1" height="9.8"/>
	<rect x="113.3" y="87.6" class="st0" width="10.1" height="9.8"/>
	<rect x="113.3" y="98.2" class="st0" width="10.1" height="9.8"/>
	<rect x="113.3" y="108.8" class="st0" width="10.1" height="9.8"/>
	<rect x="113.3" y="119.4" class="st0" width="10.1" height="9.8"/>
	<rect x="113.3" y="129.9" class="st0" width="10.1" height="9.8"/>
	<rect x="113.3" y="140.5" class="st0" width="10.1" height="9.8"/>
	<rect x="113.3" y="151.1" class="st0" width="10.1" height="9.8"/>
	<rect x="113.3" y="161.7" class="st0" width="10.1" height="9.8"/>
	<rect x="113.3" y="172.2" class="st0" width="10.1" height="9.8"/>
	<rect x="113.3" y="182.8" class="st0" width="10.1" height="9.8"/>
	<rect x="113.3" y="193.4" class="st0" width="10.1" height="9.8"/>
	<rect x="102.4" y="34.8" class="st0" width="10.1" height="9.8"/>
	<rect x="102.4" y="45.4" class="st0" width="10.1" height="9.8"/>
	<rect x="102.4" y="87.6" class="st0" width="10.1" height="9.8"/>
	<rect x="102.4" y="98.2" class="st0" width="10.1" height="9.8"/>
	<rect x="102.4" y="108.8" class="st0" width="10.1" height="9.8"/>
	<rect x="102.4" y="119.4" class="st0" width="10.1" height="9.8"/>
	<rect x="102.4" y="129.9" class="st0" width="10.1" height="9.8"/>
	<rect x="102.4" y="140.5" class="st0" width="10.1" height="9.8"/>
	<rect x="102.4" y="151.1" class="st0" width="10.1" height="9.8"/>
	<rect x="102.4" y="161.7" class="st0" width="10.1" height="9.8"/>
	<rect x="102.4" y="172.2" class="st0" width="10.1" height="9.8"/>
	<rect x="102.4" y="182.8" class="st0" width="10.1" height="9.8"/>
	<rect x="102.4" y="193.4" class="st0" width="10.1" height="9.8"/>
	<rect x="91.5" y="34.8" class="st0" width="10.1" height="9.8"/>
	<rect x="91.5" y="55.9" class="st0" width="10.1" height="9.8"/>
	<rect x="91.5" y="66.5" class="st0" width="10.1" height="9.8"/>
	<rect x="91.5" y="77.1" class="st0" width="10.1" height="9.8"/>
	<rect x="91.5" y="98.2" class="st0" width="10.1" height="9.8"/>
	<rect x="91.5" y="108.8" class="st0" width="10.1" height="9.8"/>
	<rect x="91.5" y="119.4" class="st0" width="10.1" height="9.8"/>
	<rect x="91.5" y="129.9" class="st0" width="10.1" height="9.8"/>
	<rect x="91.5" y="140.5" class="st0" width="10.1" height="9.8"/>
	<rect x="91.5" y="151.1" class="st0" width="10.1" height="9.8"/>
	<rect x="91.5" y="161.7" class="st0" width="10.1" height="9.8"/>
	<rect x="91.5" y="172.2" class="st0" width="10.1" height="9.8"/>
	<rect x="91.5" y="182.8" class="st0" width="10.1" height="9.8"/>
	<rect x="91.5" y="193.4" class="st0" width="10.1" height="9.8"/>
	<rect x="80.6" y="34.8" class="st0" width="10.1" height="9.8"/>
	<rect x="80.6" y="55.9" class="st0" width="10.1" height="9.8"/>
	<rect x="80.6" y="66.5" class="st0" width="10.1" height="9.8"/>
	<rect x="80.6" y="77.1" class="st0" width="10.1" height="9.8"/>
	<rect x="80.6" y="98.2" class="st0" width="10.1" height="9.8"/>
	<rect x="80.6" y="108.8" class="st0" width="10.1" height="9.8"/>
	<rect x="80.6" y="119.4" class="st0" width="10.1" height="9.8"/>
	<rect x="80.6" y="129.9" class="st0" width="10.1" height="9.8"/>
	<rect x="80.6" y="140.5" class="st0" width="10.1" height="9.8"/>
	<rect x="80.6" y="151.1" class="st0" width="10.1" height="9.8"/>
	<rect x="80.6" y="161.7" class="st0" width="10.1" height="9.8"/>
	<rect x="80.6" y="172.2" class="st0" width="10.1" height="9.8"/>
	<rect x="80.6" y="182.8" class="st0" width="10.1" height="9.8"/>
	<rect x="80.6" y="193.4" class="st0" width="10.1" height="9.8"/>
	<rect x="69.7" y="34.8" class="st0" width="10.1" height="9.8"/>
	<rect x="69.7" y="55.9" class="st0" width="10.1" height="9.8"/>
	<rect x="69.7" y="66.5" class="st0" width="10.1" height="9.8"/>
	<rect x="69.7" y="77.1" class="st0" width="10.1" height="9.8"/>
	<rect x="69.7" y="98.2" class="st0" width="10.1" height="9.8"/>
	<rect x="69.7" y="108.8" class="st0" width="10.1" height="9.8"/>
	<rect x="69.7" y="119.4" class="st0" width="10.1" height="9.8"/>
	<rect x="69.7" y="129.9" class="st0" width="10.1" height="9.8"/>
	<rect x="69.7" y="140.5" class="st0" width="10.1" height="9.8"/>
	<rect x="69.7" y="151.1" class="st0" width="10.1" height="9.8"/>
	<rect x="69.7" y="161.7" class="st0" width="10.1" height="9.8"/>
	<rect x="69.7" y="172.2" class="st0" width="10.1" height="9.8"/>
	<rect x="69.7" y="182.8" class="st0" width="10.1" height="9.8"/>
	<rect x="69.7" y="193.4" class="st0" width="10.1" height="9.8"/>
	<rect x="58.8" y="34.8" class="st0" width="10.1" height="9.8"/>
	<rect x="58.8" y="55.9" class="st0" width="10.1" height="9.8"/>
	<rect x="58.8" y="66.5" class="st0" width="10.1" height="9.8"/>
	<rect x="58.8" y="77.1" class="st0" width="10.1" height="9.8"/>
	<rect x="58.8" y="98.2" class="st0" width="10.1" height="9.8"/>
	<rect x="58.8" y="108.8" class="st0" width="10.1" height="9.8"/>
	<rect x="58.8" y="119.4" class="st0" width="10.1" height="9.8"/>
	<rect x="58.8" y="129.9" class="st0" width="10.1" height="9.8"/>
	<rect x="58.8" y="140.5" class="st0" width="10.1" height="9.8"/>
	<rect x="58.8" y="151.1" class="st0" width="10.1" height="9.8"/>
	<rect x="58.8" y="161.7" class="st0" width="10.1" height="9.8"/>
	<rect x="58.8" y="172.2" class="st0" width="10.1" height="9.8"/>
	<rect x="58.8" y="182.8" class="st0" width="10.1" height="9.8"/>
	<rect x="58.8" y="193.4" class="st0" width="10.1" height="9.8"/>
	<rect x="48" y="34.8" class="st0" width="10.1" height="9.8"/>
	<rect x="48" y="151.1" class="st0" width="10.1" height="9.8"/>
	<rect x="48" y="161.7" class="st0" width="10.1" height="9.8"/>
	<rect x="48" y="172.2" class="st0" width="10.1" height="9.8"/>
	<rect x="48" y="182.8" class="st0" width="10.1" height="9.8"/>
	<rect x="48" y="193.4" class="st0" width="10.1" height="9.8"/>
	<rect x="37.1" y="34.8" class="st0" width="10.1" height="9.8"/>
	<rect x="37.1" y="45.4" class="st0" width="10.1" height="9.8"/>
	<rect x="37.1" y="55.9" class="st0" width="10.1" height="9.8"/>
	<rect x="37.1" y="66.5" class="st0" width="10.1" height="9.8"/>
	<rect x="37.1" y="77.1" class="st0" width="10.1" height="9.8"/>
	<rect x="37.1" y="87.6" class="st0" width="10.1" height="9.8"/>
	<rect x="37.1" y="98.2" class="st0" width="10.1" height="9.8"/>
	<rect x="37.1" y="108.8" class="st0" width="10.1" height="9.8"/>
	<rect x="37.1" y="119.4" class="st0" width="10.1" height="9.8"/>
	<rect x="37.1" y="129.9" class="st0" width="10.1" height="9.8"/>
	<rect x="37.1" y="140.5" class="st0" width="10.1" height="9.8"/>
	<rect x="37.1" y="151.1" class="st0" width="10.1" height="9.8"/>
	<rect x="37.1" y="161.7" class="st0" width="10.1" height="9.8"/>
	<rect x="37.1" y="172.2" class="st0" width="10.1" height="9.8"/>
	<rect x="37.1" y="182.8" class="st0" width="10.1" height="9.8"/>
	<rect x="37.1" y="193.4" class="st0" width="10.1" height="9.8"/>
	<g>
		<g>
			<g>
				<rect x="178.6" y="98.2" class="st1" width="10.1" height="9.8"/>
			</g>
			<g>
				<rect x="178.6" y="108.8" class="st1" width="10.1" height="9.8"/>
			</g>
			<g>
				<rect x="178.6" y="119.4" class="st1" width="10.1" height="9.8"/>
			</g>
			<g>
				<rect x="178.6" y="182.8" class="st1" width="10.1" height="9.8"/>
			</g>
			<g>
				<rect x="167.7" y="87.6" class="st1" width="10.1" height="9.8"/>
			</g>
			<g>
				<rect x="167.7" y="129.9" class="st1" width="10.1" height="9.8"/>
			</g>
			<g>
				<rect x="167.7" y="172.2" class="st1" width="10.1" height="9.8"/>
			</g>
			<g>
				<rect x="156.8" y="87.6" class="st1" width="10.1" height="9.8"/>
			</g>
			<g>
				<rect x="156.8" y="129.9" class="st1" width="10.1" height="9.8"/>
			</g>
			<g>
				<rect x="156.8" y="161.7" class="st1" width="10.1" height="9.8"/>
			</g>
			<g>
				<rect x="145.9" y="87.6" class="st1" width="10.1" height="9.8"/>
			</g>
			<g>
				<rect x="145.9" y="129.9" class="st1" width="10.1" height="9.8"/>
			</g>
			<g>
				<rect x="145.9" y="151.1" class="st1" width="10.1" height="9.8"/>
			</g>
			<g>
				<rect x="135" y="87.6" class="st1" width="10.1" height="9.8"/>
			</g>
			<g>
				<rect x="135" y="129.9" class="st1" width="10.1" height="9.8"/>
			</g>
			<g>
				<rect x="135" y="140.5" class="st1" width="10.1" height="9.8"/>
			</g>
			<g>
				<rect x="124.1" y="87.6" class="st1" width="10.1" height="9.8"/>
			</g>
			<g>
				<rect x="124.1" y="98.2" class="st1" width="10.1" height="9.8"/>
			</g>
			<g>
				<rect x="124.1" y="108.8" class="st1" width="10.1" height="9.8"/>
			</g>
			<g>
				<rect x="124.1" y="119.4" class="st1" width="10.1" height="9.8"/>
			</g>
			<g>
				<rect x="124.1" y="129.9" class="st1" width="10.1" height="9.8"/>
			</g>
			<g>
				<rect x="124.1" y="140.5" class="st1" width="10.1" height="9.8"/>
			</g>
			<g>
				<rect x="124.1" y="151.1" class="st1" width="10.1" height="9.8"/>
			</g>
			<g>
				<rect x="124.1" y="161.7" class="st1" width="10.1" height="9.8"/>
			</g>
			<g>
				<rect x="124.1" y="172.2" class="st1" width="10.1" height="9.8"/>
			</g>
			<g>
				<rect x="124.1" y="182.8" class="st1" width="10.1" height="9.8"/>
			</g>
			<g>
				<rect x="102.4" y="55.9" class="st1" width="10.1" height="9.8"/>
			</g>
			<g>
				<rect x="102.4" y="66.5" class="st1" width="10.1" height="9.8"/>
			</g>
			<g>
				<rect x="102.4" y="77.1" class="st1" width="10.1" height="9.8"/>
			</g>
			<g>
				<rect x="91.5" y="45.4" class="st1" width="10.1" height="9.8"/>
			</g>
			<g>
				<rect x="91.5" y="87.6" class="st1" width="10.1" height="9.8"/>
			</g>
			<g>
				<rect x="80.6" y="45.4" class="st1" width="10.1" height="9.8"/>
			</g>
			<g>
				<rect x="80.6" y="87.6" class="st1" width="10.1" height="9.8"/>
			</g>
			<g>
				<rect x="69.7" y="45.4" class="st1" width="10.1" height="9.8"/>
			</g>
			<g>
				<rect x="69.7" y="87.6" class="st1" width="10.1" height="9.8"/>
			</g>
			<g>
				<rect x="58.8" y="45.4" class="st1" width="10.1" height="9.8"/>
			</g>
			<g>
				<rect x="58.8" y="87.6" class="st1" width="10.1" height="9.8"/>
			</g>
			<g>
				<rect x="48" y="45.4" class="st1" width="10.1" height="9.8"/>
			</g>
			<g>
				<rect x="48" y="55.9" class="st1" width="10.1" height="9.8"/>
			</g>
			<g>
				<rect x="48" y="66.5" class="st1" width="10.1" height="9.8"/>
			</g>
			<g>
				<rect x="48" y="77.1" class="st1" width="10.1" height="9.8"/>
			</g>
			<g>
				<rect x="48" y="87.6" class="st1" width="10.1" height="9.8"/>
			</g>
			<g>
				<rect x="48" y="98.2" class="st1" width="10.1" height="9.8"/>
			</g>
			<g>
				<rect x="48" y="108.8" class="st1" width="10.1" height="9.8"/>
			</g>
			<g>
				<rect x="48" y="119.4" class="st1" width="10.1" height="9.8"/>
			</g>
			<g>
				<rect x="48" y="129.9" class="st1" width="10.1" height="9.8"/>
			</g>
			<g>
				<rect x="48" y="140.5" class="st1" width="10.1" height="9.8"/>
			</g>
			<g>
				<rect x="26.2" y="24.2" class="st1" width="10.1" height="9.8"/>
			</g>
			<g>
				<rect x="26.2" y="34.8" class="st1" width="10.1" height="9.8"/>
			</g>
			<g>
				<rect x="26.2" y="45.4" class="st1" width="10.1" height="9.8"/>
			</g>
			<g>
				<rect x="26.2" y="55.9" class="st1" width="10.1" height="9.8"/>
			</g>
			<g>
				<rect x="26.2" y="66.5" class="st1" width="10.1" height="9.8"/>
			</g>
			<g>
				<rect x="26.2" y="77.1" class="st1" width="10.1" height="9.8"/>
			</g>
			<g>
				<rect x="26.2" y="87.6" class="st1" width="10.1" height="9.8"/>
			</g>
			<g>
				<rect x="26.2" y="98.2" class="st1" width="10.1" height="9.8"/>
			</g>
			<g>
				<rect x="26.2" y="108.8" class="st1" width="10.1" height="9.8"/>
			</g>
			<g>
				<rect x="26.2" y="119.4" class="st1" width="10.1" height="9.8"/>
			</g>
			<g>
				<rect x="26.2" y="129.9" class="st1" width="10.1" height="9.8"/>
			</g>
			<g>
				<rect x="26.2" y="140.5" class="st1" width="10.1" height="9.8"/>
			</g>
			<g>
				<rect x="26.2" y="151.1" class="st1" width="10.1" height="9.8"/>
			</g>
			<g>
				<rect x="26.2" y="161.7" class="st1" width="10.1" height="9.8"/>
			</g>
			<g>
				<rect x="26.2" y="172.2" class="st1" width="10.1" height="9.8"/>
			</g>
			<g>
				<rect x="26.2" y="182.8" class="st1" width="10.1" height="9.8"/>
			</g>
			<g>
				<rect x="26.2" y="193.4" class="st1" width="10.1" height="9.8"/>
			</g>
			<g>
				<rect x="200.3" y="34.8" class="st1" width="10.1" height="9.8"/>
			</g>
			<g>
				<rect x="200.3" y="45.4" class="st1" width="10.1" height="9.8"/>
			</g>
			<g>
				<rect x="200.3" y="55.9" class="st1" width="10.1" height="9.8"/>
			</g>
			<g>
				<rect x="200.3" y="66.5" class="st1" width="10.1" height="9.8"/>
			</g>
			<g>
				<rect x="200.3" y="77.1" class="st1" width="10.1" height="9.8"/>
			</g>
			<g>
				<rect x="200.3" y="87.6" class="st1" width="10.1" height="9.8"/>
			</g>
			<g>
				<rect x="200.3" y="98.2" class="st1" width="10.1" height="9.8"/>
			</g>
			<g>
				<rect x="200.3" y="108.8" class="st1" width="10.1" height="9.8"/>
			</g>
			<g>
				<rect x="200.3" y="119.4" class="st1" width="10.1" height="9.8"/>
			</g>
			<g>
				<rect x="200.3" y="129.9" class="st1" width="10.1" height="9.8"/>
			</g>
			<g>
				<rect x="200.3" y="140.5" class="st1" width="10.1" height="9.8"/>
			</g>
			<g>
				<rect x="200.3" y="151.1" class="st1" width="10.1" height="9.8"/>
			</g>
			<g>
				<rect x="200.3" y="161.7" class="st1" width="10.1" height="9.8"/>
			</g>
			<g>
				<rect x="200.3" y="172.2" class="st1" width="10.1" height="9.8"/>
			</g>
			<g>
				<rect x="200.3" y="182.8" class="st1" width="10.1" height="9.8"/>
			</g>
			<g>
				<rect x="200.3" y="193.4" class="st1" width="10.1" height="9.8"/>
			</g>
			<g>
				<rect x="26.2" y="204" class="st1" width="10.1" height="9.8"/>
			</g>
			<g>
				<rect x="37.1" y="24.2" class="st1" width="10.1" height="9.8"/>
			</g>
			<g>
				<rect x="48" y="24.2" class="st1" width="10.1" height="9.8"/>
			</g>
			<g>
				<rect x="58.8" y="24.2" class="st1" width="10.1" height="9.8"/>
			</g>
			<g>
				<rect x="69.7" y="24.2" class="st1" width="10.1" height="9.8"/>
			</g>
			<g>
				<rect x="80.6" y="24.2" class="st1" width="10.1" height="9.8"/>
			</g>
			<g>
				<rect x="91.5" y="24.2" class="st1" width="10.1" height="9.8"/>
			</g>
			<g>
				<rect x="102.4" y="24.2" class="st1" width="10.1" height="9.8"/>
			</g>
			<g>
				<rect x="113.3" y="24.2" class="st1" width="10.1" height="9.8"/>
			</g>
			<g>
				<rect x="124.1" y="24.2" class="st1" width="10.1" height="9.8"/>
			</g>
			<g>
				<rect x="135" y="24.2" class="st1" width="10.1" height="9.8"/>
			</g>
			<g>
				<rect x="145.9" y="24.2" class="st1" width="10.1" height="9.8"/>
			</g>
			<g>
				<rect x="156.8" y="24.2" class="st1" width="10.1" height="9.8"/>
			</g>
			<g>
				<rect x="167.7" y="24.2" class="st1" width="10.1" height="9.8"/>
			</g>
			<g>
				<rect x="178.6" y="24.2" class="st1" width="10.1" height="9.8"/>
			</g>
			<g>
				<rect x="189.4" y="24.2" class="st1" width="10.1" height="9.8"/>
			</g>
			<g>
				<rect x="200.3" y="24.2" class="st1" width="10.1" height="9.8"/>
			</g>
			<g>
				<rect x="37.1" y="204" class="st1" width="10.1" height="9.8"/>
			</g>
			<g>
				<rect x="48" y="204" class="st1" width="10.1" height="9.8"/>
			</g>
			<g>
				<rect x="58.8" y="204" class="st1" width="10.1" height="9.8"/>
			</g>
			<g>
				<rect x="69.7" y="204" class="st1" width="10.1" height="9.8"/>
			</g>
			<g>
				<rect x="80.6" y="204" class="st1" width="10.1" height="9.8"/>
			</g>
			<g>
				<rect x="91.5" y="204" class="st1" width="10.1" height="9.8"/>
			</g>
			<g>
				<rect x="102.4" y="204" class="st1" width="10.1" height="9.8"/>
			</g>
			<g>
				<rect x="113.3" y="204" class="st1" width="10.1" height="9.8"/>
			</g>
			<g>
				<rect x="124.1" y="204" class="st1" width="10.1" height="9.8"/>
			</g>
			<g>
				<rect x="135" y="204" class="st1" width="10.1" height="9.8"/>
			</g>
			<g>
				<rect x="145.9" y="204" class="st1" width="10.1" height="9.8"/>
			</g>
			<g>
				<rect x="156.8" y="204" class="st1" width="10.1" height="9.8"/>
			</g>
			<g>
				<rect x="167.7" y="204" class="st1" width="10.1" height="9.8"/>
			</g>
			<g>
				<rect x="178.6" y="204" class="st1" width="10.1" height="9.8"/>
			</g>
			<g>
				<rect x="189.4" y="204" class="st1" width="10.1" height="9.8"/>
			</g>
			<g>
				<rect x="200.3" y="204" class="st1" width="10.1" height="9.8"/>
			</g>
		</g>
	</g>
	<g>
		<g>
			<path class="st1" d="M48.7,190.3C48.7,190.3,48.7,190.3,48.7,190.3c-0.1,0.1-0.1,0.1-0.1,0.1c0,0.1,0,0.2,0,0.3
				c0,0.1,0,0.1,0,0.1c0,0,0,0.1,0,0.1c0,0,0,0,0,0.1c0,0,0,0,0,0c0,0,0,0,0,0.1c0,0,0,0,0,0.1s0,0.1,0,0.1c-0.1,0.1-0.1,0.1,0,0.2
				s0,0.2,0,0.2c0,0,0,0,0.1,0c0,0.1,0,0.1,0,0.2c0,0,0,0.1,0,0.1l0,0.1c0,0.2,0,0.3,0,0.3c0,0.1,0,0.1,0,0.2c0,0.1,0,0.1,0,0.2
				c0,0.1,0,0.2,0,0.3c0,0,0,0,0,0s0,0,0,0.1h0v0.1h0l0,0l0,0.1h0v0c0,0,0,0,0.1,0c0,0.1,0,0.2,0,0.3c0,0.1,0.1,0.2,0,0.3
				c0,0,0,0,0,0c0-0.1,0-0.1-0.1-0.2v0.1c0,0,0,0,0.1,0c0,0,0,0,0,0c0,0,0,0,0,0c0,0,0,0,0,0c0,0.1,0,0.1-0.1,0.1c0,0,0,0,0,0.1
				c0,0,0,0,0,0c0,0,0,0,0,0s0,0,0,0c0,0,0,0,0,0c-0.1,0-0.1,0-0.1,0c0,0,0,0,0,0c0,0,0,0,0,0c0,0,0,0-0.1-0.1c0-0.1,0-0.2-0.1-0.2
				c0,0,0-0.1-0.1-0.2c0-0.1,0-0.2,0-0.2c0,0-0.1-0.1-0.1-0.2c0-0.3,0-0.5,0-0.6s0-0.2,0-0.3c0-0.1,0-0.2,0-0.3s0-0.3,0-0.6
				c0,0,0-0.1,0-0.2s0-0.2,0-0.2c0,0,0,0,0-0.1s0,0,0-0.1c0,0,0,0,0,0c0,0,0,0,0,0c0-0.3,0-0.5,0-0.8c0-0.3,0.1-0.5,0.1-0.8
				c0,0,0,0,0,0c0,0,0,0,0,0c0,0,0,0,0,0c0,0,0,0,0,0c0-0.2,0-0.5,0.1-0.8c0.1-0.3,0.1-0.6,0.1-0.8l-0.1-0.1c0,0,0,0,0,0.1
				s0,0-0.1,0c0,0,0,0,0-0.1c0,0-0.1,0-0.1,0c0,0,0,0,0,0v0c-0.1,0-0.2,0.1-0.4,0.1c-0.1,0-0.3,0-0.4,0.1c0,0,0,0,0.1-0.1
				c0,0-0.1,0-0.1,0s-0.1,0.1-0.1,0.1c0,0-0.1,0-0.1,0c0,0,0,0-0.1,0c0,0,0-0.1,0-0.1c0,0,0,0.1-0.1,0.1c0,0-0.1,0.1-0.1,0.1
				c0,0,0,0,0,0c0,0,0,0,0,0c-0.1,0-0.2,0-0.2,0.1c-0.1,0-0.2,0-0.2,0c0,0-0.1,0-0.1,0c0,0,0,0-0.1,0c0,0-0.1,0-0.1,0s-0.1,0-0.1,0
				l-0.1,0c-0.2,0.1-0.5,0.1-0.7,0.1c-0.3,0-0.5,0-0.7,0.1c-0.4,0.7-0.8,1.4-1.1,2.2s-0.8,1.5-1.2,2.1c-0.1,0-0.2,0-0.3,0
				c-0.1,0-0.1,0-0.2-0.1c-0.1,0-0.1-0.1-0.2-0.1c-0.1,0-0.1-0.1-0.2-0.1c0-0.1,0-0.1,0.1-0.1c0.3-0.6,0.6-1.2,0.9-1.8
				c0.3-0.6,0.6-1.2,0.9-1.8c0,0,0,0-0.1,0c0,0,0,0-0.1,0l0,0c-0.2,0-0.4,0.1-0.6,0.1s-0.4,0.1-0.6,0.1c-0.1,0.1-0.3,0.1-0.5,0.1
				c-0.2,0-0.3,0-0.5,0.1c-0.1,0-0.1,0-0.2,0.1s-0.1,0-0.1,0.1c0,0-0.1,0-0.1,0s-0.1,0-0.1,0c0,0-0.1,0-0.1,0c0,0-0.1,0-0.1,0
				c0-0.1,0-0.2-0.1-0.3c0-0.1-0.1-0.2-0.1-0.3c0.1,0,0.1,0,0.1,0c0.2-0.1,0.3-0.1,0.5-0.2c0.2,0,0.3-0.1,0.5-0.1
				c0.2,0,0.3-0.1,0.5-0.1c0.2,0,0.3-0.1,0.5-0.1c0.3-0.1,0.5-0.1,0.8-0.2c0.3-0.1,0.5-0.1,0.8-0.2c0,0,0,0,0-0.1c0,0,0-0.1,0-0.1
				c0.1,0,0.1-0.1,0.1-0.1c0,0,0.1-0.1,0.1-0.2c0.6-1,1.3-2.1,1.9-3.1s1.4-2,2.2-2.9c0.1-0.1,0.2-0.2,0.3-0.3
				c0.1-0.1,0.2-0.2,0.3-0.3c0-0.1,0.1-0.1,0.1-0.1c0.1,0,0.2-0.1,0.2-0.1c0.1-0.1,0.1-0.1,0.2-0.2s0.2-0.1,0.2-0.2
				c0.1,0,0.2-0.1,0.3-0.1c0.1,0,0.2,0.1,0.3,0.2s0.1,0.3,0.2,0.4c0.1,0.1,0.2,0.2,0.2,0.2c0,0.1,0.1,0.2,0,0.4c0,0.1,0,0.2,0,0.2
				c0,0.1,0,0.1,0,0.2c0,0.1,0,0.2-0.1,0.2c0,0.1,0,0.1-0.1,0.2c0,0,0,0,0,0.1c0,0,0,0.1,0,0.1c0,0.1,0,0.2-0.1,0.2
				c0,0.1-0.1,0.2-0.1,0.2c0,0.1,0,0.2,0,0.2s0,0.2,0,0.3c0,0.1,0,0.1-0.1,0.2s-0.1,0.1-0.1,0.2c-0.1,0.4-0.2,0.8-0.2,1.1
				c-0.1,0.3-0.1,0.7-0.2,1.1c0,0,0,0,0,0c0,0,0,0,0,0c0,0,0,0,0,0c0,0.1,0,0.1,0,0.1c0,0,0,0.1-0.1,0.1c0,0,0,0,0,0c0,0,0,0,0,0.1
				c0,0,0,0,0,0c0,0,0,0,0,0c0,0.1,0,0.2,0,0.2c0,0.1,0,0.2,0,0.2c0,0,0,0,0,0.1s0,0.1,0,0.1c0.2,0,0.4,0,0.6,0c0.2,0,0.4,0,0.6,0
				c0,0-0.1,0-0.1,0c0,0-0.1,0-0.2,0l0.3,0c0,0-0.1,0.1-0.1,0c0,0-0.1,0-0.2,0c0,0,0.1,0,0.1,0c-0.1,0.1-0.2,0.1-0.3,0
				c-0.1,0-0.2,0-0.3,0c0,0,0,0,0,0s0,0,0,0c-0.1,0-0.2,0-0.2,0c-0.1,0-0.2,0-0.2,0c0.1,0,0.1,0,0.2,0s0.2,0,0.3,0
				c-0.1,0.1-0.1,0.1-0.2,0.1c-0.1,0-0.1,0-0.2,0c0,0,0,0,0-0.1c0,0-0.1,0-0.1,0c0,0,0,0.1,0,0.1s0,0-0.1,0c0.2,0,0.4,0,0.5,0
				c0.2,0,0.3,0,0.5,0c-0.1,0-0.1,0-0.1,0c0,0-0.1,0-0.1,0c0,0,0,0,0,0s0,0,0,0c0,0-0.1,0-0.1,0s0,0-0.1,0c0,0,0,0,0,0c0,0,0,0,0,0
				c-0.1,0-0.3,0-0.4,0c-0.1,0-0.3,0-0.4,0c0.1,0,0.1,0.1,0.1,0.1l-0.1,0.1c0,0,0,0,0,0c-0.1,0-0.1,0-0.1,0c0,0,0,0,0,0
				c0,0,0,0,0-0.1c0,0,0,0,0,0c0,0,0,0,0,0c0,0,0,0,0,0c0,0,0,0,0,0l0,0v0v0c0,0,0,0,0,0c0,0,0,0,0,0v0h0v0c0,0-0.1,0,0,0l0,0
				c0,0,0,0,0,0c0,0,0,0,0,0c0,0,0,0.1,0,0.1c0,0,0,0.1,0,0.1c0,0,0,0,0,0s0-0.1,0-0.1c0,0,0,0,0,0.1s0,0.2,0,0.2c0,0.1,0,0.2,0,0.2
				c0,0.1,0,0.1,0,0.1c0,0.1,0,0.2,0,0.4c-0.1,0.2-0.1,0.6-0.2,1.1c0,0,0,0-0.1,0L48.7,190.3z M47.5,187.2c0,0-0.1,0-0.1,0
				C47.4,187.1,47.5,187.1,47.5,187.2L47.5,187.2c0.2,0,0.2,0,0.2-0.1c0,0,0.1,0,0.1,0c0,0,0,0,0,0c0.1,0,0.2,0,0.2,0s0.1,0,0.2,0
				c0,0,0,0-0.1,0c0,0,0,0,0,0c0.1,0,0.1,0,0.1,0s0.1,0,0.1,0c0.1-0.3,0.1-0.6,0.1-0.9s0.1-0.6,0.1-0.9l0.2-0.6c0,0,0,0,0-0.1
				s0,0,0-0.1l0,0c0,0,0-0.1,0-0.2c0-0.1,0-0.1,0-0.1c0.1-0.1,0.1-0.2,0.1-0.3c0-0.1,0-0.2,0.1-0.3c0-0.1,0-0.1,0-0.2
				c0,0,0-0.1,0-0.1l0.1-0.5c0-0.1,0.1-0.2,0.1-0.3s0.1-0.2,0.1-0.3c0,0,0-0.1,0-0.1c0-0.1,0-0.3,0.1-0.4c0-0.1,0.1-0.2,0.1-0.4
				c-0.2,0.1-0.3,0.2-0.4,0.3s-0.2,0.2-0.4,0.4c-0.2,0.3-0.4,0.5-0.6,0.7c-0.2,0.2-0.4,0.5-0.6,0.8c-0.1,0.1-0.2,0.3-0.3,0.4
				c-0.1,0.2-0.2,0.3-0.3,0.5c0,0,0,0.1,0,0.1s0,0,0,0c-0.3,0.5-0.6,0.9-0.9,1.4c-0.3,0.5-0.6,0.9-0.9,1.4c0,0.1,0,0.1-0.1,0.1
				c0,0-0.1,0.1,0,0.1c0.1,0,0.2-0.1,0.3-0.1l-0.1,0c0.2,0,0.4-0.1,0.5-0.1c0.1,0,0.3,0,0.5,0c0,0,0,0,0,0c0.1,0,0.1,0,0.1,0
				s0,0,0,0h0l0,0c0.2,0,0.4-0.1,0.6-0.1c0.2,0,0.4-0.1,0.5,0c0,0,0,0,0,0c0,0,0,0,0,0L47.5,187.2z M45.9,187.3c0.1,0,0.1,0,0.1-0.1
				C46,187.3,45.9,187.3,45.9,187.3L45.9,187.3C45.8,187.3,45.8,187.3,45.9,187.3L45.9,187.3L45.9,187.3z M45.9,187.3
				C45.8,187.3,45.8,187.3,45.9,187.3L45.9,187.3L45.9,187.3c0.1,0,0.1,0,0.1,0C46,187.3,45.9,187.3,45.9,187.3L45.9,187.3z
				 M46.3,188C46.3,188.1,46.2,188.1,46.3,188C46.2,188.1,46.2,188,46.3,188C46.2,188.1,46.2,188.1,46.3,188z M46.3,187.2
				C46.2,187.2,46.3,187.2,46.3,187.2C46.3,187.2,46.3,187.2,46.3,187.2C46.3,187.2,46.3,187.2,46.3,187.2L46.3,187.2z M46.9,187.9
				C46.9,187.9,46.9,187.9,46.9,187.9C46.9,187.9,46.9,187.9,46.9,187.9C46.9,187.9,46.9,187.9,46.9,187.9L46.9,187.9L46.9,187.9
				C46.9,187.9,46.9,187.9,46.9,187.9L46.9,187.9L46.9,187.9z M46.9,187.9C46.9,187.9,46.9,187.9,46.9,187.9
				C46.9,187.9,46.9,187.9,46.9,187.9C46.9,187.9,46.9,187.9,46.9,187.9L46.9,187.9L46.9,187.9C46.9,187.9,46.9,187.9,46.9,187.9
				L46.9,187.9L46.9,187.9z M47,187.9C47,188,47,188,47,187.9C47,187.9,47,187.9,47,187.9z M47.5,187.5c0,0,0.1,0,0.1,0c0,0,0,0,0,0
				v0c0,0,0,0,0,0L47.5,187.5L47.5,187.5C47.5,187.5,47.5,187.5,47.5,187.5z M47.5,187.5c0,0,0.1,0,0.1,0c0,0,0,0,0,0v0c0,0,0,0,0,0
				L47.5,187.5L47.5,187.5C47.5,187.5,47.5,187.5,47.5,187.5z M47.5,187.8c0,0,0.1,0,0.1,0c0,0,0,0,0,0c0,0,0,0,0,0h0l0.1,0h0h0h0h0
				c0,0,0,0,0,0c0,0,0,0,0,0h0C47.6,187.8,47.6,187.8,47.5,187.8L47.5,187.8L47.5,187.8z M47.8,187.8L47.8,187.8L47.8,187.8
				L47.8,187.8c-0.1,0-0.1,0-0.1,0c0,0,0,0,0,0h0c0,0,0,0,0,0l-0.1,0h0c0,0,0.1,0,0.1,0c0,0,0,0,0,0c0,0,0,0,0,0L47.8,187.8
				L47.8,187.8L47.8,187.8z M47.7,187.5L47.7,187.5l0.1,0l0,0h0.1l0,0h0h0c0,0,0,0,0.1,0h-0.2c0,0,0,0-0.1,0S47.8,187.5,47.7,187.5
				L47.7,187.5L47.7,187.5C47.7,187.5,47.7,187.5,47.7,187.5C47.7,187.5,47.7,187.5,47.7,187.5L47.7,187.5z M47.7,187.5L47.7,187.5
				l0.1,0l0,0h0.1l0,0h0h0c0,0,0,0,0.1,0h-0.2c0,0,0,0-0.1,0S47.8,187.5,47.7,187.5L47.7,187.5L47.7,187.5
				C47.7,187.5,47.7,187.5,47.7,187.5C47.7,187.5,47.7,187.5,47.7,187.5L47.7,187.5z M47.8,187.4L47.8,187.4L47.8,187.4L47.8,187.4
				L47.8,187.4L47.8,187.4L47.8,187.4L47.8,187.4L47.8,187.4L47.8,187.4L47.8,187.4L47.8,187.4L47.8,187.4z M47.7,187.4L47.7,187.4
				L47.7,187.4L47.7,187.4L47.7,187.4L47.7,187.4L47.7,187.4L47.7,187.4L47.7,187.4L47.7,187.4L47.7,187.4L47.7,187.4L47.7,187.4z
				 M48,187.6C48,187.6,48.1,187.6,48,187.6L48,187.6L48,187.6c-0.1,0-0.1,0-0.1,0L48,187.6L48,187.6z M47.9,187.5L47.9,187.5l0.1,0
				c0,0,0,0,0,0l0,0L47.9,187.5C47.9,187.5,47.9,187.5,47.9,187.5z M47.9,192.1c0,0.1,0,0.1,0,0.1c0,0,0,0.1,0,0.1c0,0,0,0,0-0.1
				S48,192.1,47.9,192.1z M48,191.6L48,191.6L48,191.6L48,191.6C48,191.7,48,191.7,48,191.6L48,191.6L48,191.6L48,191.6L48,191.6
				C48,191.6,48,191.6,48,191.6L48,191.6z M48,191.6L48,191.6L48,191.6L48,191.6C48,191.7,48,191.7,48,191.6L48,191.6L48,191.6
				L48,191.6L48,191.6C48,191.6,48,191.6,48,191.6L48,191.6z M48.1,187.4L48.1,187.4L48.1,187.4L48.1,187.4L48.1,187.4
				C48.2,187.5,48.2,187.5,48.1,187.4C48.2,187.5,48.2,187.5,48.1,187.4L48.1,187.4L48.1,187.4l0.1,0.1v0L48.1,187.4
				C48.2,187.5,48.2,187.5,48.1,187.4L48.1,187.4L48.1,187.4L48.1,187.4L48.1,187.4L48.1,187.4c0.1,0,0.1,0,0.1,0l0,0v0H48.1z
				 M48.1,187.4L48.1,187.4L48.1,187.4L48.1,187.4L48.1,187.4C48.2,187.5,48.2,187.5,48.1,187.4C48.2,187.5,48.2,187.5,48.1,187.4
				L48.1,187.4L48.1,187.4l0.1,0.1v0L48.1,187.4C48.2,187.5,48.2,187.5,48.1,187.4L48.1,187.4L48.1,187.4L48.1,187.4L48.1,187.4
				L48.1,187.4c0.1,0,0.1,0,0.1,0l0,0v0H48.1z M48.1,192.3C48.1,192.4,48.1,192.4,48.1,192.3C48.1,192.4,48.1,192.4,48.1,192.3
				C48.1,192.3,48.1,192.3,48.1,192.3z M48.1,192c0,0.1,0,0.1,0,0.1s0,0.1,0,0.1c0,0,0-0.1,0-0.1C48.2,192.1,48.2,192.1,48.1,192z
				 M48.2,187.8C48.2,187.8,48.2,187.8,48.2,187.8C48.2,187.8,48.2,187.8,48.2,187.8C48.2,187.8,48.2,187.8,48.2,187.8
				C48.2,187.7,48.2,187.8,48.2,187.8z M48.2,193.5C48.2,193.6,48.2,193.6,48.2,193.5c0,0.1,0,0.1,0,0.1
				C48.2,193.6,48.2,193.6,48.2,193.5z M48.3,191.8c0,0.1,0,0.1,0,0.1c0,0,0,0.1,0,0.1c0,0,0,0,0,0s0,0,0,0
				C48.3,192,48.3,191.9,48.3,191.8C48.3,191.8,48.3,191.8,48.3,191.8z M48.4,191.1L48.4,191.1C48.4,191.1,48.4,191.1,48.4,191.1
				L48.4,191.1L48.4,191.1L48.4,191.1L48.4,191.1L48.4,191.1z M48.4,191.1C48.4,191.1,48.4,191.1,48.4,191.1L48.4,191.1L48.4,191.1
				L48.4,191.1L48.4,191.1L48.4,191.1L48.4,191.1z M48.4,191.2c0,0.1,0,0.1,0,0.2c0,0,0,0.1,0,0.2c0,0,0-0.1,0-0.2
				C48.4,191.2,48.4,191.2,48.4,191.2z M48.4,190.7c0,0,0,0.1,0,0.1c0,0.1,0,0.1,0,0.1c0-0.1,0-0.1,0-0.1
				C48.4,190.8,48.4,190.8,48.4,190.7z M48.4,193.7C48.4,193.7,48.4,193.7,48.4,193.7C48.4,193.7,48.4,193.7,48.4,193.7
				c0,0.1,0,0.1,0,0.1C48.4,193.9,48.4,193.8,48.4,193.7C48.4,193.8,48.4,193.8,48.4,193.7z M48.4,194.1L48.4,194.1
				C48.4,194.1,48.4,194.1,48.4,194.1z M48.4,193.6L48.4,193.6L48.4,193.6z M48.4,194.1L48.4,194.1L48.4,194.1L48.4,194.1z
				 M49.1,187.4C49.1,187.4,49.1,187.4,49.1,187.4L49.1,187.4C49.1,187.4,49.1,187.4,49.1,187.4l0.1-0.1l0,0h0c0,0,0,0,0,0
				c0,0,0,0,0,0v0l0,0v0L49.1,187.4L49.1,187.4L49.1,187.4z M49.1,187.4C49.1,187.4,49.1,187.4,49.1,187.4L49.1,187.4
				C49.1,187.4,49.1,187.4,49.1,187.4l0.1-0.1l0,0h0c0,0,0,0,0,0c0,0,0,0,0,0v0l0,0v0L49.1,187.4L49.1,187.4L49.1,187.4z
				 M49.1,186.7L49.1,186.7L49.1,186.7L49.1,186.7L49.1,186.7L49.1,186.7L49.1,186.7L49.1,186.7L49.1,186.7z M49.2,186.7L49.2,186.7
				L49.2,186.7L49.2,186.7L49.2,186.7L49.2,186.7L49.2,186.7L49.2,186.7L49.2,186.7z M49.2,187.5C49.2,187.6,49.1,187.6,49.2,187.5
				L49.2,187.5C49.1,187.6,49.1,187.6,49.2,187.5C49.1,187.6,49.1,187.6,49.2,187.5L49.2,187.5L49.2,187.5L49.2,187.5L49.2,187.5
				C49.2,187.6,49.2,187.6,49.2,187.5L49.2,187.5L49.2,187.5z M49.1,187.6C49.1,187.6,49.1,187.6,49.1,187.6
				C49.1,187.6,49.1,187.6,49.1,187.6L49.1,187.6L49.1,187.6L49.1,187.6L49.1,187.6C49.2,187.6,49.2,187.6,49.1,187.6L49.1,187.6
				L49.1,187.6L49.1,187.6C49.2,187.6,49.1,187.6,49.1,187.6L49.1,187.6z M49.2,188.2C49.1,188.3,49.1,188.3,49.2,188.2
				C49.1,188.3,49.1,188.2,49.2,188.2C49.1,188.2,49.2,188.2,49.2,188.2z M49.2,188c0,0,0,0.1-0.1,0.2
				C49.1,188.1,49.1,188.1,49.2,188L49.2,188z M49.2,187.8L49.2,187.8L49.2,187.8L49.2,187.8z M49.5,187.5
				C49.4,187.6,49.4,187.6,49.5,187.5C49.4,187.5,49.5,187.5,49.5,187.5z M49.5,187.6C49.5,187.6,49.5,187.6,49.5,187.6
				C49.5,187.6,49.4,187.6,49.5,187.6C49.4,187.6,49.4,187.6,49.5,187.6z M49.5,181C49.5,181,49.5,181,49.5,181
				C49.5,180.9,49.5,180.9,49.5,181L49.5,181L49.5,181L49.5,181L49.5,181z M49.5,181C49.5,181,49.5,181,49.5,181
				C49.5,180.9,49.5,180.9,49.5,181L49.5,181L49.5,181L49.5,181L49.5,181z M49.6,187.5c0.1,0,0.1,0,0.1,0c0,0,0.1,0,0.1,0
				c0,0-0.1,0.1-0.1,0.1c0,0-0.1,0-0.2,0C49.6,187.6,49.6,187.6,49.6,187.5C49.6,187.5,49.6,187.5,49.6,187.5z M50.1,187.3
				C50.1,187.3,50.1,187.3,50.1,187.3c-0.1,0-0.2,0-0.2,0c0,0,0,0,0.1,0C50.1,187.2,50.1,187.2,50.1,187.3z M50.1,187.5
				C50.1,187.5,50,187.5,50.1,187.5c-0.1,0-0.2,0-0.2,0C49.9,187.4,49.9,187.5,50.1,187.5C50,187.5,50,187.5,50.1,187.5z"/>
			<path class="st1" d="M54.6,190.7C54.6,190.7,54.5,190.7,54.6,190.7c-0.1,0-0.1,0-0.1,0c0,0,0,0-0.1,0c0,0.1-0.1,0.1-0.1,0.2
				c0,0-0.1,0.1-0.1,0c0,0,0,0-0.1,0.1S54,191,54,191c0,0,0,0,0,0c0,0-0.1,0-0.2,0.1c-0.1,0-0.2,0.1-0.3,0.1c-0.1,0-0.2,0.1-0.3,0.1
				c-0.1,0-0.1,0.1-0.2,0.1c-0.1,0-0.1,0-0.2,0c-0.1,0-0.2,0.1-0.2,0.1c-0.1,0-0.3,0.1-0.5,0.1s-0.4,0-0.6,0c-0.1,0-0.1,0-0.1,0
				c0,0,0,0,0,0c0,0,0,0,0,0s0,0-0.1,0c0,0,0-0.1,0-0.1c0,0,0,0-0.1,0c0,0,0,0-0.1-0.1s-0.1,0-0.1,0c-0.2-0.2-0.4-0.4-0.5-0.7
				c-0.1-0.3-0.2-0.5-0.2-0.9c0,0,0-0.1,0-0.1s0-0.1,0-0.1V189c0,0,0,0,0-0.1c0,0,0,0,0-0.1l0-0.4c0,0,0-0.1,0-0.1s0,0,0-0.1l0,0
				c0,0,0,0,0,0c0,0,0,0,0,0c0,0,0,0,0,0l0.1-0.3c0,0,0,0,0-0.1c0,0,0,0,0-0.1c0,0,0,0,0.1,0c0-0.1,0-0.1,0-0.2s0-0.1,0-0.1h0
				c0,0,0,0,0-0.1c0,0,0,0,0,0c0-0.2,0.1-0.3,0.1-0.4c0.1-0.1,0.1-0.3,0.1-0.4c0.1,0,0.1-0.1,0.1-0.1c0,0,0,0,0-0.1c0,0,0-0.1,0-0.1
				v0v0c0.1-0.1,0.2-0.3,0.2-0.4c0.2-0.2,0.3-0.5,0.4-0.7c0,0,0.1,0,0.1-0.1c0,0,0-0.1,0-0.1c0.1-0.1,0.1-0.2,0.2-0.3
				c0.1-0.1,0.1-0.2,0.2-0.3c0-0.1,0.1-0.2,0.1-0.2c0.1-0.1,0.1-0.2,0.2-0.2c0.2-0.3,0.4-0.5,0.6-0.8s0.4-0.5,0.8-0.7
				c0.1-0.1,0.1-0.1,0.2-0.1c0.1,0,0.1,0,0.2-0.1c0.3-0.2,0.5-0.1,0.8,0c0.1,0,0.1,0.1,0.2,0.1c0.1,0,0.1,0.1,0.2,0.1
				c0,0,0.1,0,0.1,0s0,0,0,0.1c0,0,0,0,0,0.1c0,0,0,0,0,0.1c0,0,0,0,0,0.1c0,0,0,0.1,0,0.1c0,0.1-0.1,0.1-0.1,0.2l0,0.2l-0.1,0.1
				c0,0.1-0.1,0.2-0.1,0.3c0,0.1-0.1,0.2-0.1,0.2c-0.1,0.3-0.2,0.5-0.4,0.7c-0.2,0.2-0.3,0.4-0.5,0.7c-0.1,0.1-0.2,0.3-0.3,0.4
				c-0.1,0.2-0.2,0.3-0.3,0.4c0,0-0.1,0-0.1,0.1s-0.1,0.1-0.1,0.1c-0.1,0.1-0.3,0.3-0.3,0.4c-0.1,0.1-0.2,0.3-0.3,0.4
				c0,0.1-0.1,0.1-0.1,0.2s-0.1,0.1-0.1,0.2c0,0,0,0-0.1,0c0,0,0,0,0,0.1c-0.1,0-0.1,0.1-0.2,0.2c0,0.1-0.1,0.1-0.1,0.2
				c0,0,0,0.1-0.1,0.1c0,0-0.1,0.1-0.1,0.1c-0.1,0.1-0.2,0.2-0.3,0.3c-0.1,0.1-0.2,0.3-0.4,0.4c0,0,0,0-0.1,0v0.1
				c-0.1,0.2-0.1,0.5-0.1,0.8c0,0.3,0,0.6,0.1,0.9c0,0.2,0.1,0.3,0.1,0.3c0,0,0,0,0.1,0c0,0,0,0,0,0c0,0,0,0.1,0,0.2c0,0,0,0,0,0h0
				c0,0,0,0,0,0c0.2,0,0.4,0,0.4,0s0.2,0,0.3-0.1c0.2-0.1,0.3-0.1,0.5-0.2c0.2-0.1,0.3-0.1,0.5-0.2c0,0,0,0,0,0h0v0c0,0,0,0,0,0
				c0,0,0,0,0,0c0,0,0,0,0,0h0l0,0c0.2-0.1,0.4-0.2,0.5-0.4c0.2-0.1,0.3-0.3,0.5-0.4c0,0,0-0.1,0-0.1c0,0,0,0,0-0.1c0,0,0,0,0,0
				s0,0,0,0c0.1-0.1,0.2-0.1,0.3-0.1c0.1,0,0.1-0.1,0.1-0.2c0,0,0,0,0,0c0,0,0,0,0,0c0-0.1,0.1-0.1,0.1-0.1c0,0,0,0,0.1,0
				c0,0,0,0,0.1,0s0.1-0.1,0.1-0.1c0,0,0-0.1,0-0.1c0,0,0,0,0,0c0,0,0,0,0,0c0,0,0,0,0,0c0.1-0.1,0.2-0.2,0.3-0.3
				c0.1-0.1,0.1-0.1,0.1-0.1c0.1-0.1,0.1-0.1,0.1-0.1s0,0,0,0c0,0,0,0,0,0c0,0,0,0,0.1-0.1c0.1,0,0.1,0,0.1,0c0,0.1,0,0.1,0.1,0.1
				c0,0-0.1,0,0,0.1c0,0,0,0,0,0.1c0,0,0,0.1,0,0.1c0,0.1,0,0.2,0,0.2c0,0,0,0.1,0,0.1s0,0,0,0c0,0,0,0,0,0.1c0,0,0,0,0,0v0
				c0,0,0,0,0,0c0,0,0,0,0,0c0,0,0,0,0,0.1c0,0,0,0,0,0c0,0-0.1,0.1-0.1,0.1c0,0,0,0,0,0c0,0,0,0,0,0s0,0,0,0.1v0v0c0,0-0.1,0-0.1,0
				c0,0,0,0.1,0,0.1c0,0,0,0,0,0c0,0,0,0,0,0c0,0,0,0-0.1,0s0,0-0.1,0c0,0,0,0.1,0,0.1s0,0.1-0.1,0.1c0,0,0,0,0,0c0,0,0-0.1,0-0.1
				c-0.1,0-0.1,0.1-0.1,0.1l0,0c0,0,0,0,0,0c0,0,0,0,0,0.1c0,0,0,0.1-0.1,0.1c0,0.1-0.1,0.1-0.2,0.1l0,0v0c-0.1,0-0.1,0-0.1,0.1
				c0,0,0,0,0,0c0,0,0,0-0.1,0c0,0,0,0,0,0c0,0,0,0,0,0c0,0,0,0,0,0c0,0,0,0,0,0c-0.1,0.1-0.1,0.1-0.2,0.2
				C54.6,190.5,54.6,190.5,54.6,190.7C54.5,190.6,54.5,190.7,54.6,190.7C54.6,190.7,54.6,190.7,54.6,190.7z M50.8,188.2
				C50.8,188.2,50.8,188.1,50.8,188.2C50.8,188.1,50.8,188.1,50.8,188.2C50.8,188.2,50.8,188.2,50.8,188.2z M51.7,187.4
				c0.2-0.3,0.4-0.6,0.6-0.8s0.4-0.5,0.6-0.8c0,0,0,0,0,0c0.1-0.1,0.1-0.1,0.2-0.2c0-0.1,0.1-0.2,0.1-0.2c0.2-0.2,0.3-0.5,0.5-0.7
				c0.2-0.2,0.3-0.5,0.4-0.7c0.1-0.1,0.1-0.3,0.2-0.4c0.1-0.1,0.1-0.3,0.1-0.4c0.1-0.1,0.2-0.2,0.1-0.4c-0.1,0-0.2,0.1-0.3,0.2
				c-0.1,0.1-0.1,0.2-0.2,0.2c0,0.1-0.1,0.2-0.2,0.3c-0.1,0.1-0.1,0.2-0.2,0.2c-0.3,0.2-0.5,0.5-0.7,0.8c-0.2,0.3-0.3,0.6-0.5,0.9
				c0,0-0.1,0-0.1,0c0,0.1-0.1,0.2-0.1,0.2c-0.1,0.1-0.1,0.1-0.1,0.2c-0.1,0.1-0.1,0.2-0.1,0.2c0,0.1-0.1,0.2-0.1,0.2
				c0,0.1,0,0.1-0.1,0.2c0,0-0.1,0.1-0.1,0.1v0.1c0,0,0,0.1-0.1,0.1c0,0,0,0.1,0,0.2c-0.1,0.1-0.1,0.1-0.1,0.2
				C51.8,187.3,51.7,187.4,51.7,187.4L51.7,187.4z M54.2,190.6C54.2,190.6,54.2,190.6,54.2,190.6C54.2,190.6,54.2,190.6,54.2,190.6
				C54.2,190.6,54.2,190.6,54.2,190.6c0.1,0,0.1,0,0.2-0.1c0,0,0.1-0.1,0.1-0.1c0,0,0,0,0,0c0,0,0,0,0.1-0.1s0-0.1,0-0.1
				c-0.1,0-0.1,0.1-0.2,0.1S54.3,190.4,54.2,190.6L54.2,190.6L54.2,190.6C54.2,190.6,54.2,190.6,54.2,190.6
				C54.2,190.6,54.1,190.6,54.2,190.6C54.1,190.6,54.1,190.6,54.2,190.6C54.1,190.7,54.1,190.6,54.2,190.6
				C54.1,190.6,54.2,190.6,54.2,190.6z M54.2,190.6L54.2,190.6L54.2,190.6L54.2,190.6z M54.7,190.2
				C54.6,190.2,54.6,190.2,54.7,190.2C54.6,190.3,54.6,190.3,54.7,190.2C54.6,190.2,54.6,190.2,54.7,190.2z M54.7,190.3
				C54.7,190.2,54.7,190.2,54.7,190.3L54.7,190.3C54.8,190.3,54.8,190.3,54.7,190.3c0.1,0,0.1,0,0.1-0.1
				C54.8,190.2,54.8,190.2,54.7,190.3C54.8,190.2,54.7,190.2,54.7,190.3C54.7,190.2,54.7,190.2,54.7,190.3z M54.8,190.1
				C54.8,190.1,54.8,190.1,54.8,190.1C54.8,190.2,54.8,190.2,54.8,190.1C54.8,190.2,54.8,190.2,54.8,190.1
				C54.8,190.2,54.8,190.2,54.8,190.1z M54.9,190.1C54.9,190.1,54.9,190.1,54.9,190.1C54.9,190.2,54.9,190.2,54.9,190.1
				C54.9,190.2,54.9,190.1,54.9,190.1C54.9,190.1,54.9,190.1,54.9,190.1z M55.3,189.9C55.3,189.9,55.2,189.9,55.3,189.9
				c-0.1,0.1-0.1,0.1-0.2,0.1c0,0,0,0,0,0c0,0,0,0,0,0c0,0,0,0-0.1,0c0,0,0,0,0,0.1c0.1,0,0.1,0,0.2-0.1
				C55.2,190,55.3,189.9,55.3,189.9z M55.5,189.8C55.5,189.9,55.4,189.9,55.5,189.8C55.4,189.9,55.4,189.9,55.5,189.8
				C55.4,189.8,55.4,189.8,55.5,189.8z M55.5,189.1C55.5,189,55.5,189,55.5,189.1L55.5,189.1z M55.7,189.4c0,0-0.1,0-0.1,0
				c0,0,0,0.1,0,0.1C55.6,189.5,55.6,189.5,55.7,189.4C55.6,189.5,55.7,189.5,55.7,189.4z M56,189.2c-0.1,0-0.1,0.1-0.1,0.1
				c0,0,0.1,0,0.1,0C56.1,189.3,56.1,189.2,56,189.2z M56.1,189.4L56.1,189.4L56.1,189.4L56.1,189.4L56.1,189.4z M56.1,189.4
				C56.1,189.4,56.1,189.5,56.1,189.4C56.1,189.5,56.1,189.4,56.1,189.4L56.1,189.4z"/>
			<path class="st1" d="M55.5,189.8C55.5,189.8,55.5,189.8,55.5,189.8c0-0.1,0-0.1,0-0.1c0-0.1,0-0.1,0-0.2s0-0.1,0.1-0.1
				c0,0,0-0.1,0-0.1c0,0,0,0,0,0c0,0,0-0.1,0.1-0.1s0-0.1,0.1-0.1c0.1-0.2,0.2-0.4,0.3-0.7c0.1-0.2,0.3-0.5,0.4-0.7
				c0.1-0.1,0.1-0.1,0.1-0.2c0-0.1,0.1-0.1,0.1-0.2h0c0-0.1,0.1-0.2,0.2-0.1s0.2,0.1,0.4,0.1c0.1,0,0.1,0.1,0.1,0.1c0,0,0,0.1,0,0.1
				c0,0,0,0,0,0.1c0,0,0,0.1,0,0.1c-0.1,0.1-0.1,0.2-0.2,0.4c0,0.1-0.1,0.3-0.2,0.4c0,0,0,0,0,0s0,0,0,0c0,0,0,0.1-0.1,0.2
				s-0.1,0.2-0.1,0.3c-0.1,0.2-0.2,0.3-0.2,0.5c-0.1,0.2-0.1,0.3-0.2,0.5c0,0.2-0.1,0.3-0.1,0.4c0,0.1,0,0.3,0.1,0.4
				c0.3-0.1,0.5-0.1,0.7-0.2s0.4-0.2,0.6-0.3l0.4-0.3l0.1-0.1l0.5-0.4l0.4-0.3c0,0,0.1-0.1,0.2-0.1c0.1,0,0.1-0.1,0.2-0.1
				c0.1-0.1,0.2-0.2,0.3-0.2c0.1,0,0.2-0.1,0.3-0.2c0,0,0-0.1,0.1-0.1s0.1,0,0.1-0.1l0.1-0.1c0-0.1,0.1-0.1,0.2-0.1
				c0.1,0,0.1-0.1,0.2-0.1c0,0,0.1,0,0.1,0c0.1,0,0.1,0,0.1,0.1c0,0,0,0.1,0,0.1c0,0,0,0-0.1,0.1s0,0.1,0,0.1c0,0,0.1,0,0.1-0.1
				s0-0.1,0.1-0.1c0,0,0,0,0,0.1c0,0,0,0.1,0,0.1c0.1,0,0.1,0.1,0,0.1c0,0,0,0.1,0,0.1c0,0,0,0,0,0s0,0,0,0.1c0,0,0,0,0,0
				c0,0,0,0,0,0c0,0,0,0,0,0.1c0,0,0,0,0,0.1c0,0,0,0,0,0c0,0,0,0,0,0c-0.1,0-0.1,0-0.1,0c-0.1,0-0.1,0.1-0.1,0.1s0,0.1-0.1,0.1
				c0,0,0,0,0,0s0,0,0,0c0,0,0,0,0,0.1c0,0-0.1,0.1-0.1,0.1c0,0-0.1,0.1-0.1,0.1s0,0,0,0c0,0-0.1,0-0.1,0.1
				c-0.1,0.1-0.1,0.1-0.1,0.1l-0.2,0.2c0,0-0.1,0.1-0.2,0.1c-0.1,0.1-0.1,0.1-0.2,0.1l0,0c0,0,0,0,0,0c0,0,0,0,0,0c0,0,0,0,0,0
				c0,0,0,0,0,0.1h0c0,0,0,0-0.1,0.1s-0.1,0.1-0.2,0.2v-0.1c0,0,0,0,0,0s0,0,0,0h0c0,0,0,0.1,0,0.1c0,0,0,0-0.1,0c0,0,0,0,0,0
				c0,0,0,0,0,0c0,0,0,0-0.1,0.1c0,0-0.1,0.1-0.1,0.1c0,0,0,0-0.1,0c0,0,0,0-0.1,0l-0.1,0c0,0-0.1,0-0.1,0.1c0,0-0.1,0-0.1,0
				c0,0,0,0,0,0.1c0,0,0,0,0,0s0,0,0,0c0,0,0,0-0.1,0.1s-0.1,0-0.1,0.1c0,0.1-0.1,0.1-0.2,0.2c-0.1,0-0.2,0.1-0.3,0.1
				c-0.1,0.1-0.3,0.1-0.4,0.2c-0.1,0-0.3,0-0.4,0.1s-0.3,0-0.5,0c-0.1,0-0.2,0-0.3,0c-0.1,0-0.2,0-0.2-0.1c-0.1-0.1-0.1-0.1-0.2-0.2
				c0-0.1-0.1-0.1-0.1-0.2c0,0,0,0,0,0c0,0,0,0,0-0.1c0,0,0,0,0,0c0,0,0,0,0,0c0,0,0,0,0,0c0-0.1,0-0.1,0-0.1c0,0,0-0.1,0-0.1
				c0,0,0,0.1,0,0.1c0,0,0-0.1,0-0.1c0,0,0-0.1,0.1-0.1c0-0.1,0-0.1,0.1-0.2c0,0,0,0,0,0c0-0.1,0-0.1,0.1-0.1
				C55.5,189.9,55.5,189.9,55.5,189.8C55.5,189.8,55.5,189.9,55.5,189.8C55.5,189.9,55.5,189.9,55.5,189.8c-0.1,0,0,0,0-0.1
				c0,0,0,0,0,0C55.5,189.7,55.5,189.7,55.5,189.8C55.5,189.8,55.5,189.8,55.5,189.8z M58.2,186.1C58.2,186.1,58.2,186.1,58.2,186.1
				C58.2,186.1,58.2,186.1,58.2,186.1c-0.1,0.1-0.1,0.2-0.2,0.2c0,0.1-0.1,0.1-0.2,0.1c-0.1,0-0.1,0.1-0.1,0.1c-0.1,0-0.1,0-0.1,0
				c0,0,0,0,0,0c-0.1,0-0.1,0-0.1,0c-0.1,0-0.2-0.1-0.2-0.1c-0.1,0-0.1-0.1-0.2-0.1c0-0.1,0-0.2,0-0.3c0-0.1,0.1-0.1,0.2-0.1
				c0,0,0,0,0,0s0,0,0,0c0.1,0,0.2,0,0.3,0.1C57.9,185.9,58,186,58.2,186.1C58.1,186,58.2,186.1,58.2,186.1z M58.7,190.3
				C58.7,190.3,58.7,190.3,58.7,190.3C58.8,190.2,58.8,190.2,58.7,190.3L58.7,190.3z M60.5,188.8C60.4,188.8,60.4,188.8,60.5,188.8
				c-0.1,0.1-0.1,0.1-0.1,0.2C60.4,188.9,60.4,188.9,60.5,188.8C60.4,188.8,60.5,188.8,60.5,188.8z M60.6,188.7
				C60.6,188.7,60.6,188.7,60.6,188.7L60.6,188.7z"/>
			<path class="st1" d="M67.3,189.7C67.3,189.7,67.3,189.7,67.3,189.7c-0.1,0-0.1,0.1-0.2,0.1c0,0.1-0.1,0.1-0.2,0.2
				c-0.1,0.1-0.1,0.1-0.1,0.1c0,0,0-0.1,0-0.1c0,0,0.1-0.1,0.1-0.1c-0.1,0-0.1,0-0.1,0.1c0,0.1,0,0.1-0.1,0.1c0,0.1-0.1,0.1-0.1,0.1
				c-0.1,0-0.1,0.1-0.2,0.1c0,0,0,0,0,0s0,0,0,0c0,0,0,0,0,0c0,0,0,0,0,0v0c0,0,0,0-0.1,0c0,0,0,0,0.1,0c0,0,0-0.1,0-0.1
				c0,0-0.1,0-0.1,0s0,0.1,0,0.1c0,0,0,0.1-0.1,0.1c0,0-0.1,0.1-0.1,0c0.1-0.1,0.2-0.2,0.2-0.3c-0.1,0-0.2,0.1-0.3,0.2c0,0,0,0,0,0
				c0,0,0,0.1,0,0.1c0,0-0.1,0-0.1,0h0c0,0,0,0,0,0c0,0-0.1,0-0.1,0c0,0,0,0-0.1,0.1c0,0,0,0,0,0s0,0,0,0c0,0,0,0-0.1,0.1
				c0,0-0.1,0-0.1,0c0,0,0,0,0,0c0,0,0,0,0-0.1c-0.1,0-0.1,0.1-0.1,0.1c0,0,0,0.1-0.1,0.1c0,0,0-0.1,0-0.1c0,0,0,0,0,0
				c0,0,0,0-0.1,0c0,0,0,0,0,0c0,0,0,0,0,0c-0.1,0.1-0.2,0.1-0.3,0.1c-0.1,0-0.3,0-0.4-0.1c-0.2,0-0.3,0-0.5-0.1s-0.3-0.1-0.4-0.2
				c0,0,0,0,0,0c0,0,0,0,0,0s0,0,0,0c0,0,0,0,0,0c0,0,0,0,0,0c-0.1,0-0.1-0.1-0.1-0.2c0-0.1-0.1-0.1-0.1-0.2c0,0,0-0.1,0-0.1
				c0,0,0,0-0.1,0c-0.1-0.3-0.1-0.6-0.1-0.9c0-0.3,0-0.6,0.1-1c-0.1,0-0.2,0.1-0.2,0.2c-0.1,0.1-0.1,0.1-0.2,0.2
				c-0.4,0.4-0.8,0.8-1.2,1.2c-0.4,0.4-0.8,0.8-1.1,1.3c-0.1,0-0.1,0-0.1,0.1c0,0-0.1,0.1-0.1,0.1c-0.1,0-0.1,0-0.2,0s-0.2,0-0.3,0
				c0,0,0,0,0,0s0,0,0,0c-0.1,0-0.2-0.1-0.3-0.1s-0.1-0.1-0.1-0.3c0-0.1,0-0.1,0-0.2c0,0,0-0.1,0-0.2c0,0,0-0.1,0-0.1c0,0,0,0,0,0
				c0.1-0.6,0.3-1.1,0.5-1.6c0.2-0.5,0.4-1,0.6-1.5c0.1,0,0.1,0,0.2,0c0.1,0,0.2,0.1,0.2,0.1s0.1,0,0.3,0.1c0,0,0,0,0.1,0.1
				s0.1,0,0.1,0.1c0,0.2-0.1,0.4-0.1,0.6c-0.1,0.2-0.2,0.4-0.3,0.6c-0.1,0.1-0.1,0.3-0.2,0.5c-0.1,0.2-0.1,0.4-0.2,0.5
				c0,0.1,0,0.1,0,0.1s0,0,0,0.1c0.1-0.2,0.3-0.3,0.4-0.5s0.3-0.4,0.4-0.5c0.2-0.1,0.3-0.2,0.4-0.3c0.1-0.1,0.3-0.3,0.4-0.4
				c0.2-0.1,0.3-0.2,0.5-0.3c0.2-0.1,0.3-0.2,0.4-0.3c0.1,0,0.1,0,0.2-0.1c0.1,0,0.1-0.1,0.2-0.1c0.1,0,0.2,0,0.2,0.1
				c0.1,0,0.2,0.1,0.3,0.1v0c0.1,0,0.1,0,0.1,0.1c0,0.1,0,0.1,0.1,0.2c0,0.1,0,0.2,0,0.4c0,0.2,0,0.3-0.1,0.4c0,0,0,0,0,0.1
				c0,0.1,0,0.1,0,0.2c-0.1,0.5-0.1,0.8,0,1.1c0.1,0.3,0.1,0.4,0.2,0.5c0.1,0,0.3,0,0.4,0s0.2,0,0.3,0c0.1,0,0.2,0,0.3-0.1
				s0.2-0.1,0.3-0.2c0,0,0,0,0.1-0.1c0,0,0,0,0.1,0c0.1,0,0.2-0.1,0.3-0.1c0.1-0.1,0.1-0.1,0.2,0c0,0,0,0,0-0.1c0,0,0,0,0-0.1
				c0,0,0,0,0,0c0,0,0,0,0,0c0,0,0,0,0-0.1c0,0,0.1,0,0.1,0c0,0,0.1,0,0.1-0.1c0,0,0.1,0,0.1-0.1c0,0,0-0.1,0.1-0.1c0,0,0,0,0,0
				c0,0,0,0,0,0.1c0.1,0,0.1-0.1,0.1-0.1c0,0,0-0.1,0.1-0.1c0.1,0,0.1-0.1,0.2-0.1c0.1,0,0.1-0.1,0.2-0.1c0.1,0,0.1-0.1,0.1-0.1
				s0.1-0.1,0.1-0.1c0,0,0-0.1,0.1-0.1c0,0,0.1-0.1,0.1,0c0,0,0.1,0,0.1,0c0,0,0,0,0,0c0,0,0-0.1,0-0.1c0,0,0.1,0,0.2-0.1
				c0.1,0,0.2-0.1,0.2-0.1c0,0,0,0,0-0.1c0,0,0,0,0,0s0,0,0,0c0,0,0,0,0,0s0,0,0,0c0,0,0,0,0,0s0,0,0-0.1c0,0,0,0,0,0c0,0,0,0,0,0
				c0,0,0,0,0,0c0,0,0,0,0,0c0,0,0.1,0,0.1,0.1s0,0.2-0.1,0.3c0,0,0,0,0,0c0,0,0,0,0,0c0,0,0,0.1-0.1,0.2c-0.1,0.1-0.1,0.1-0.1,0.1
				L67.3,189.7z M65.7,190.7C65.6,190.7,65.6,190.7,65.7,190.7C65.6,190.8,65.6,190.8,65.7,190.7L65.7,190.7z M65.8,190.6
				L65.8,190.6L65.8,190.6C65.8,190.6,65.8,190.6,65.8,190.6C65.8,190.6,65.8,190.6,65.8,190.6z M65.9,190.6
				C65.8,190.7,65.8,190.6,65.9,190.6L65.9,190.6z M66.4,190.4L66.4,190.4C66.4,190.4,66.4,190.4,66.4,190.4z M67.1,189.5
				C67.1,189.5,67.2,189.5,67.1,189.5l0.1-0.1C67.2,189.4,67.1,189.5,67.1,189.5z M67.8,189.1C67.8,189.2,67.8,189.2,67.8,189.1
				C67.7,189.1,67.7,189.2,67.8,189.1C67.8,189.2,67.8,189.2,67.8,189.1z"/>
			<path class="st1" d="M73.7,189.1c0,0,0,0.1-0.1,0.2c-0.1,0.1-0.2,0.2-0.3,0.3c0,0-0.1,0-0.1,0.1c-0.1,0.1-0.1,0.1-0.1,0.1
				l-0.1,0.1l-0.3,0.2l-0.1,0.1l-0.2,0.1c-0.2,0.1-0.4,0.2-0.5,0.3c-0.2,0.1-0.4,0.2-0.6,0.3c0,0,0,0-0.1,0s-0.1,0-0.1,0
				c0,0-0.1,0-0.1,0c0,0-0.1,0-0.1,0c0,0-0.1,0-0.1,0c0,0,0,0,0,0c-0.1,0-0.1,0-0.1,0c0,0-0.1,0-0.1,0.1c0,0-0.1,0-0.1,0
				s-0.1,0-0.1,0c0,0-0.1,0-0.1,0s-0.1,0-0.1,0c0,0,0,0,0,0c0,0,0,0,0,0c0,0-0.1,0-0.1,0c0,0-0.1,0-0.2,0c0,0-0.1,0-0.1,0
				c0,0-0.1,0-0.1,0l0,0c-0.2,0-0.3,0-0.4,0c0,0-0.1,0-0.1,0c0,0,0,0-0.1,0c-0.1,0-0.2,0-0.3-0.1s-0.2-0.1-0.3-0.1
				c-0.1-0.1-0.2-0.1-0.3-0.2c-0.1-0.1-0.2-0.2-0.3-0.3c0-0.1-0.1-0.2-0.1-0.2c0-0.1,0-0.1-0.1-0.2c0-0.1,0-0.2,0-0.2s0-0.2,0-0.2
				c0-0.1,0.1-0.3,0.1-0.5c0-0.2,0.1-0.4,0.3-0.5l0.4-0.4l0.2-0.3c0.1-0.1,0.2-0.1,0.2-0.2s0.1-0.1,0.2-0.2c0.1-0.1,0.1-0.1,0.2-0.1
				c0.1,0,0.1-0.1,0.2-0.1c0.1-0.1,0.2-0.1,0.2-0.2c0.1-0.1,0.2-0.1,0.2-0.2c0.1,0,0.2-0.1,0.2-0.1c0,0,0.1,0,0.1,0
				c0.1,0,0.1,0,0.1,0c0,0,0,0,0.1,0c0,0,0,0,0.1,0c0.1,0.1,0.1,0.2,0.2,0.2c0.1,0.1,0.2,0.1,0.2,0.2c0.1,0,0.1,0.1,0.1,0.1
				s0,0.1,0.1,0.1c0,0.1,0,0.2,0,0.2s0,0.1-0.1,0.2c0,0,0,0,0,0.1c0,0,0,0,0,0.1c0,0.1-0.1,0.1-0.1,0.1c0,0-0.1,0.1-0.1,0.1
				c0,0,0,0.1-0.1,0.1s0,0.1-0.1,0.1c0,0-0.1,0.1-0.2,0.2c-0.1,0.1-0.1,0.1-0.2,0.2c-0.1,0.1-0.1,0.1-0.2,0.2
				c-0.1,0-0.2,0.1-0.2,0.1c0,0,0,0.1,0,0.1c-0.1,0.1-0.2,0.2-0.3,0.2s-0.2,0.2-0.3,0.2c-0.2,0-0.3,0.1-0.5,0.2
				c-0.1,0.1-0.3,0.1-0.5,0.1c0,0,0,0,0,0s0,0,0.1,0c0,0.1,0,0.1,0,0.1s0,0.1,0.1,0.1c0.1,0.1,0.2,0.2,0.3,0.2
				c0.1,0.1,0.3,0.1,0.4,0.1c0.4,0.1,0.8,0.1,1.2,0c0.1,0,0.2,0,0.3-0.1c0.1,0,0.2-0.1,0.4-0.1c0.2-0.1,0.3-0.1,0.5-0.2l0.2-0.1
				c0,0,0.1,0,0.1,0c0,0,0,0,0,0c0,0,0,0,0,0s0,0,0,0l0.4-0.2c0.1-0.1,0.2-0.2,0.3-0.2c0.1,0,0.2-0.1,0.3-0.3c0,0,0,0,0.1-0.1
				s0.1-0.1,0.2-0.1c0.1,0,0.1-0.1,0.2-0.1c0.1,0,0.1-0.1,0.1-0.1l0.2-0.2c0.1-0.1,0.2-0.2,0.3-0.2c0.1-0.1,0.2-0.1,0.2-0.1
				c0,0,0.1,0.1,0.1,0.1s0,0.1,0.1,0.1c-0.1,0.1-0.1,0.2-0.1,0.2c0,0,0,0.1-0.1,0.1c0,0,0,0-0.1,0.1C73.8,189,73.7,189,73.7,189.1z
				 M70.2,187.2c0,0-0.1,0-0.1,0.1s-0.1,0.1-0.1,0.1c0,0-0.1,0-0.1,0c0,0,0,0-0.1,0c0,0,0,0-0.1,0l-0.1,0.1
				c-0.1,0.1-0.1,0.1-0.2,0.1s-0.1,0.1-0.2,0.1c-0.1,0.1-0.1,0.2-0.2,0.2c-0.1,0-0.1,0.1-0.2,0.2c-0.1,0.1-0.2,0.2-0.3,0.3
				c-0.1,0.1-0.2,0.2-0.3,0.4s-0.2,0.2-0.2,0.4c0.2-0.1,0.4-0.2,0.6-0.3c0.2-0.1,0.4-0.3,0.6-0.4c0.1-0.1,0.1-0.1,0.2-0.2
				c0.1-0.1,0.1-0.1,0.2-0.2c0.1-0.1,0.2-0.1,0.3-0.3s0.2-0.2,0.3-0.4c0-0.1,0-0.1,0.1-0.1c0,0,0-0.1,0-0.1
				C70.3,187.2,70.3,187.2,70.2,187.2C70.2,187.2,70.2,187.2,70.2,187.2z"/>
			<path class="st1" d="M81.7,182.9C81.7,182.8,81.7,182.8,81.7,182.9C81.7,182.8,81.8,182.8,81.7,182.9l0.1,0.1c0,0,0,0,0,0
				C81.7,183,81.7,183,81.7,182.9c0,0.1,0,0.1,0,0.2c0,0,0,0-0.1,0v0c0,0,0,0,0,0c0,0,0,0,0,0c0,0.1-0.1,0.1-0.1,0.1
				c-0.1,0-0.1,0.1-0.2,0.1c-0.1,0-0.1,0,0,0c0,0,0.1,0,0,0c0,0,0,0-0.1,0c0,0,0,0,0,0c-0.1,0-0.1-0.1-0.1-0.1
				c0-0.1-0.1-0.1-0.2-0.2c0-0.1,0-0.2-0.1-0.2s0-0.2-0.1-0.3c0-0.1,0-0.2,0-0.3c0-0.1,0-0.2,0.1-0.3c0,0,0,0,0,0c0,0,0,0,0,0
				c0,0,0,0,0,0c0,0,0,0,0,0c0,0,0,0,0.1,0c0,0,0-0.1,0-0.1c0.3-0.2,0.6-0.4,0.9-0.5c0.3-0.2,0.6-0.3,1-0.5c0.1,0,0.2-0.1,0.2-0.1
				c0.1,0,0.2-0.1,0.3-0.1c0.1,0,0.1,0,0.2-0.1c0.1,0,0.1,0,0.2-0.1c0.2-0.1,0.3-0.1,0.5-0.1c0.2,0,0.3-0.1,0.5-0.1
				c0.2,0,0.4,0,0.6-0.1s0.4,0,0.6-0.1c0.4,0,0.8,0.1,1.2,0.2c0.4,0.1,0.6,0.3,0.8,0.5c0,0.1,0.1,0.1,0.1,0.2c0,0.1,0.1,0.1,0.1,0.2
				c0,0.1,0,0.1,0.1,0.1c0,0,0,0.1,0.1,0.2c0.1,0.2,0.2,0.4,0.2,0.6c0,0.4,0,0.8-0.2,1.1c-0.1,0.3-0.3,0.6-0.6,0.8
				c-0.1,0.2-0.3,0.4-0.5,0.6c-0.2,0.2-0.4,0.3-0.5,0.5c-0.1,0.1-0.3,0.2-0.4,0.3s-0.2,0.2-0.4,0.2c-0.2,0.2-0.4,0.3-0.7,0.5
				c-0.2,0.1-0.4,0.3-0.7,0.4c0.1,0,0.1,0.1,0.2,0.1s0.2,0,0.2,0.1c0.4,0.1,0.8,0.2,1.2,0.4c0,0,0,0,0,0s0,0,0,0h0
				c0.2,0.1,0.4,0.2,0.5,0.4s0.3,0.2,0.4,0.4c0,0.1,0.1,0.2,0.1,0.3s0.1,0.2,0.1,0.3c0,0,0,0,0,0c0,0,0,0,0,0c0,0,0,0.1,0.1,0.1
				c0,0,0,0.1,0,0.1c0.1,0.1,0.1,0.1,0.1,0.2c0,0.1,0.1,0.2,0.1,0.2c0.1,0.2,0.1,0.4,0.1,0.7c0,0.2-0.1,0.5-0.2,0.7
				c0,0.1-0.1,0.2-0.1,0.2c-0.1,0.1-0.1,0.2-0.2,0.2c0,0.1-0.1,0.1-0.2,0.2c0,0-0.1,0.1-0.1,0.1c0,0-0.1,0.1-0.1,0.1
				c-0.1,0.1-0.1,0.1-0.2,0.2c-0.1,0.1-0.1,0.1-0.2,0.2c-0.1,0.1-0.2,0.2-0.3,0.2c-0.1,0.1-0.2,0.2-0.3,0.2h-0.1l-0.3,0.2
				c-0.1,0-0.2,0.1-0.3,0.2c-0.1,0.1-0.2,0.1-0.3,0.2c-0.1,0-0.1,0-0.2,0.1c-0.1,0-0.1,0.1-0.2,0.1s-0.1,0.1-0.2,0.1
				c-0.1,0-0.1,0.1-0.2,0.1c-0.1,0.1-0.2,0.1-0.4,0.2s-0.2,0.1-0.4,0.1l-0.4,0.2l-0.7,0.2c-0.2,0.1-0.4,0.1-0.6,0.2
				c-0.2,0.1-0.4,0.1-0.7,0.1c0,0,0,0,0.1,0c0,0,0.1,0,0.1,0c0.5-0.1,1-0.3,1.5-0.5c0.5-0.2,0.9-0.4,1.4-0.6c0,0,0,0,0.1,0
				c0,0,0,0,0-0.1c0.1,0,0.3-0.1,0.4-0.2c0.1-0.1,0.2-0.1,0.3-0.2c0.1-0.1,0.2-0.1,0.3-0.2s0.2-0.1,0.3-0.1c0-0.1,0.1-0.1,0.1-0.1
				c0,0,0-0.1,0-0.1c0,0,0,0,0,0c-0.1,0-0.1,0-0.1,0.1s-0.1,0.1-0.1,0.1c0,0,0,0-0.1,0c0,0,0,0,0,0c-0.1,0-0.1,0-0.1,0.1
				s0,0.1-0.1,0.1l-0.2,0.1c-0.1,0-0.1,0.1-0.2,0.1c-0.1,0-0.1,0.1-0.2,0.2c-0.3,0.1-0.6,0.3-0.9,0.4c-0.1,0.1-0.2,0.2-0.3,0.2
				s-0.3,0.1-0.4,0.1c-0.1,0.1-0.1,0.1-0.2,0.1c-0.1,0-0.2,0.1-0.2,0.1v0c-0.2,0.1-0.3,0.1-0.5,0.2c-0.2,0.1-0.3,0.1-0.5,0.2
				c0.1-0.1,0.1-0.1,0.2-0.1s0.1,0,0.2-0.1c-0.2,0.1-0.4,0.2-0.6,0.2c-0.2,0.1-0.4,0.1-0.7,0.2c0.4-0.1,0.8-0.2,1.1-0.4
				s0.7-0.3,1.1-0.4c0,0,0,0,0,0c0.1,0,0.2-0.1,0.3-0.1c0.1,0,0.2-0.1,0.3-0.1c0,0,0,0,0,0c0,0,0,0,0,0c0.3-0.1,0.5-0.2,0.8-0.4
				c0.2-0.1,0.5-0.3,0.7-0.5c-0.1,0-0.2,0.1-0.3,0.1s-0.2,0.1-0.2,0.1c-0.1,0-0.1,0.1-0.1,0.1c0,0-0.1,0.1-0.1,0.1l-0.3,0.1
				c-0.3,0.2-0.7,0.3-1.1,0.4l0.4-0.2c0,0,0,0,0,0s0,0,0,0c0.1-0.1,0.2-0.1,0.3-0.2c0.1,0,0.2-0.1,0.3-0.2c0.1-0.1,0.2-0.1,0.4-0.2
				c0.1-0.1,0.2-0.1,0.3-0.2c0.2-0.2,0.4-0.3,0.6-0.4c0.2-0.1,0.4-0.2,0.6-0.4c0,0,0,0,0,0c0,0,0,0,0,0c0.1,0,0.2-0.1,0.2-0.1
				c0,0,0.1-0.1,0.1-0.2c-0.1,0-0.1,0.1-0.2,0.1c0,0-0.1,0.1-0.2,0.1c0,0.1-0.1,0.1-0.1,0.1c-0.1,0-0.1,0.1-0.2,0.1c0,0,0,0,0,0
				c0,0,0,0-0.1,0c-0.1,0.1-0.2,0.2-0.3,0.2s-0.2,0.1-0.4,0.2c-0.1,0.1-0.2,0.1-0.3,0.2c-0.1,0.1-0.2,0.1-0.4,0.1c0,0,0.1,0,0.1,0
				c0,0,0.1,0,0.1-0.1c-0.1,0-0.2,0.1-0.2,0.1c-0.1,0-0.1,0.1-0.2,0.1c0.2-0.1,0.5-0.2,0.7-0.3c0.2-0.1,0.4-0.3,0.6-0.4
				c0.2-0.1,0.3-0.1,0.4-0.3c0.1-0.1,0.3-0.2,0.4-0.3c0-0.1,0.1-0.1,0.1-0.1c0,0,0.1-0.1,0.1-0.1c0,0-0.1,0-0.1,0c0,0,0,0,0,0
				c0,0,0.1-0.1,0.1-0.1c0.1,0,0.1-0.1,0.1-0.2c0,0-0.1,0-0.1,0c0,0-0.1,0-0.1,0c0,0-0.1,0-0.1,0.1c0,0,0,0,0,0
				c-0.1,0.1-0.1,0.1-0.2,0.2c-0.1,0-0.2,0.1-0.3,0.2v0.1c0,0,0,0-0.1,0s0,0-0.1,0c0,0,0,0,0,0l-0.3,0.1c-0.1,0.1-0.1,0.1-0.2,0.1
				c-0.1,0-0.2,0.1-0.2,0.1c0,0,0.1,0,0.1,0c0,0,0.1-0.1,0.1-0.1c-0.2,0.2-0.4,0.3-0.7,0.4c-0.3,0.1-0.5,0.2-0.7,0.4
				c-0.1,0-0.1,0-0.1,0c0,0-0.1,0-0.2,0c0,0,0.1,0,0.1,0c0.2-0.1,0.4-0.2,0.6-0.3c0.2-0.1,0.4-0.2,0.6-0.3c0,0,0-0.1,0.1-0.1
				c0.1,0,0.1,0,0.1-0.1l-0.1,0.1c0,0,0,0,0,0c0,0,0,0,0,0c0,0,0,0,0,0c0,0,0,0,0,0c0,0-0.1,0-0.1,0c0,0-0.1,0-0.1,0c0,0,0,0,0,0
				c0,0,0,0,0,0c-0.2,0.1-0.4,0.2-0.6,0.3c-0.2,0.1-0.4,0.2-0.5,0.2c0,0,0,0,0,0c0,0,0,0,0,0c0,0-0.1,0-0.1,0c0,0-0.1,0-0.1,0.1
				l-1.2,0.4c-0.1,0-0.2,0-0.3,0.1c-0.1,0-0.2,0.1-0.3,0.1c-0.1,0-0.1,0-0.1,0.1s-0.1,0-0.2,0c-0.1,0.1-0.2,0.1-0.4,0.1
				c-0.1,0-0.3,0.1-0.4,0.1c-0.1,0-0.2,0.1-0.3,0.1s-0.2,0-0.3,0c0,0,0,0,0,0s0,0,0,0c-0.1,0-0.1,0-0.1,0.1c0.3,0,0.6,0,0.9-0.1
				c0.3,0,0.6-0.1,0.9-0.2c-0.2,0.1-0.3,0.1-0.5,0.1c-0.2,0-0.3,0.1-0.4,0.1c0,0,0,0,0,0c0,0,0,0,0,0c0,0-0.1,0-0.1,0
				c-0.1,0-0.1,0-0.1,0c0,0,0,0,0.1,0c0,0,0.1,0,0.1,0c0,0.1-0.1,0.1-0.1,0.1s-0.1,0-0.2,0c0,0,0.1,0,0.1,0c0,0,0.1,0,0.1,0
				c-0.1,0.1-0.2,0.1-0.3,0.1c-0.1,0-0.2-0.1-0.4,0c0,0-0.1,0-0.1,0c0,0,0,0-0.1,0c-0.2,0-0.4,0-0.6,0c-0.2,0-0.4-0.1-0.6-0.1
				c0-0.1-0.1-0.1-0.1-0.1c-0.1,0-0.1-0.1-0.1-0.2c0,0,0,0,0,0c0,0,0,0-0.1,0c0,0,0,0,0,0.1c0,0,0,0.1,0,0.1c0,0-0.1-0.1-0.1-0.1
				c0,0-0.1-0.1-0.1-0.1c0,0,0,0,0.1,0.1c0,0,0,0,0.1,0.1c0,0,0-0.1,0-0.1c0,0,0-0.1,0-0.1c0,0,0,0,0,0c0,0,0,0-0.1,0
				c0-0.1,0-0.1,0-0.1c0,0,0-0.1,0-0.1l-0.1,0c0,0.1,0,0.1,0,0.1c0,0,0,0,0,0c0,0,0-0.1,0-0.1c0,0,0,0,0,0s0,0,0,0c0,0,0,0,0,0
				c0,0,0,0-0.1,0c0,0,0-0.1,0.1-0.1c0,0,0-0.1,0-0.1c0.1,0,0.1-0.1,0.1,0c0,0,0,0,0,0c0,0,0,0,0.1,0c0,0,0,0,0,0c0,0,0,0,0,0
				c0.1-0.1,0.2-0.1,0.3-0.1c0.1,0,0.2,0,0.3,0c0,0,0,0,0,0s0,0,0,0c0,0,0,0,0-0.1c0,0.1,0.1,0.1,0.2,0.1c0.1,0,0.2,0,0.2,0
				c-0.1,0.1-0.1,0.1-0.2,0c-0.1,0-0.2,0-0.2,0.1c-0.1,0-0.1,0-0.2,0.1c-0.1,0-0.1,0.1-0.1,0.2c0,0,0.1,0.1,0.2,0.1
				c0.1,0,0.2,0.1,0.3,0.1c0.1,0,0.2,0,0.3,0s0.2,0,0.2,0c0-0.1,0.1-0.2,0.1-0.3c0-0.1,0-0.2,0.1-0.3c0-0.1,0-0.2,0.1-0.3
				s0.1-0.2,0.1-0.3c0.2-0.9,0.5-1.7,0.8-2.6c0.3-0.8,0.7-1.6,1-2.4c0,0,0,0,0,0c0,0,0,0-0.1,0c0-0.1,0-0.1,0-0.2
				c0,0-0.1-0.1-0.1-0.1c0,0,0.1,0,0.1,0c0,0,0-0.1,0-0.1c0.1,0,0.1,0,0.2-0.1c0,0,0.1,0,0.2-0.1c0.1-0.3,0.3-0.6,0.4-0.9
				c0.1-0.3,0.3-0.6,0.4-0.9c0.1-0.2,0.2-0.4,0.3-0.7c0.1-0.2,0.2-0.5,0.3-0.7c0.1-0.2,0.2-0.4,0.3-0.7c0.1-0.2,0.2-0.5,0.3-0.7
				c0.1-0.1,0.1-0.2,0.1-0.3c0-0.1,0.1-0.2,0.1-0.3c0,0,0,0,0.1,0s0,0,0,0c0.1,0,0.2,0,0.3,0c0.1,0,0.2,0,0.2,0c0.1,0,0.1,0,0.2,0
				c0.1,0,0.1,0,0.1,0.1c0.1,0.1,0.1,0.1,0.1,0.2c0,0.1,0,0.1,0,0.2c0,0.1,0,0.1-0.1,0.2c0,0.1-0.1,0.1-0.1,0.2
				c-0.1,0.3-0.3,0.5-0.4,0.8c-0.1,0.2-0.3,0.5-0.4,0.8h0c-0.1,0.3-0.2,0.5-0.3,0.8c-0.1,0.2-0.2,0.5-0.3,0.7c0,0,0,0,0,0.1
				c0,0,0,0.1-0.1,0.1c-0.1,0.2-0.1,0.3-0.2,0.5c-0.1,0.2-0.2,0.3-0.2,0.5c0.1,0,0.2,0,0.2-0.1c0.1,0,0.1-0.1,0.2-0.1
				c0.5-0.2,1-0.5,1.4-0.7c0,0,0-0.1,0-0.1c0.2-0.1,0.4-0.2,0.5-0.4c0.2-0.1,0.3-0.2,0.5-0.4v0c0.6-0.5,1.1-1,1.5-1.6v-0.1
				c0.1-0.1,0.1-0.2,0.2-0.3s0.1-0.2,0.2-0.4c0.1-0.1,0.1-0.3,0.2-0.4c0-0.1,0.1-0.3,0.1-0.4c0-0.1,0-0.1,0-0.2c0,0,0-0.1-0.1-0.1
				c-0.3-0.2-0.7-0.4-1.2-0.5c-0.4-0.1-0.9-0.1-1.3,0l-0.5,0.1c-0.3,0.1-0.6,0.2-0.9,0.3s-0.6,0.2-0.8,0.3c-0.3,0.1-0.5,0.3-0.8,0.5
				c-0.3,0.2-0.5,0.4-0.6,0.7c0,0,0,0,0.1,0c0,0,0,0,0,0c0,0,0,0,0,0c0,0,0,0,0,0c0,0,0,0.1,0,0.1c0,0,0,0,0,0.1c0,0,0,0,0,0
				c0,0,0,0,0,0c0,0,0,0,0,0C81.8,182.7,81.8,182.8,81.7,182.9C81.7,182.8,81.7,182.8,81.7,182.9z M78.1,193.6
				C78.1,193.6,78.1,193.6,78.1,193.6C78.1,193.6,78.1,193.6,78.1,193.6L78.1,193.6C78.1,193.6,78.1,193.6,78.1,193.6z M85.2,191.3
				C85.2,191.3,85.2,191.2,85.2,191.3C85.3,191.2,85.3,191.2,85.2,191.3C85.2,191.2,85.2,191.2,85.2,191.3
				C85.2,191.2,85.2,191.2,85.2,191.3L85.2,191.3c0-0.1,0-0.1,0-0.1c0,0,0,0,0.1,0c0,0,0.1,0,0.1,0c0,0,0.1,0,0.1-0.1c0,0,0,0,0,0
				c0,0,0,0,0,0c0,0,0-0.1,0.1-0.1c0,0,0.1,0,0.1-0.1c0.2-0.1,0.4-0.3,0.5-0.5c0.1-0.2,0.3-0.4,0.4-0.5c0,0,0-0.1,0-0.1
				c0.1-0.1,0.2-0.3,0.3-0.5c0.1-0.2,0.1-0.4,0.1-0.6c0-0.1-0.1-0.2-0.1-0.4c-0.1-0.1-0.2-0.2-0.3-0.3c-0.1-0.1-0.2-0.1-0.3-0.1
				c-0.1,0-0.2-0.1-0.3-0.1c0,0,0,0,0,0c0,0,0,0,0,0c-0.1,0-0.1-0.1-0.2-0.1c-0.1,0-0.1-0.1-0.2-0.1c-0.2-0.1-0.4-0.1-0.5-0.2
				c-0.1-0.1-0.3-0.1-0.4-0.1c-0.1,0-0.3-0.1-0.4-0.1c-0.2,0-0.5,0-0.7,0s-0.5,0.1-0.7,0.2c0,0,0,0,0,0s0,0,0,0
				c-0.1,0-0.2,0-0.2,0.1c-0.1,0-0.2,0.1-0.2,0.1c0,0,0,0,0,0c-0.1,0-0.1,0-0.1,0c0,0,0,0.1,0,0.1c-0.1,0.2-0.2,0.4-0.3,0.6
				c-0.1,0.2-0.2,0.4-0.3,0.6c0,0.1,0,0.2,0,0.3c0,0.1,0,0.2-0.1,0.3c-0.1,0.2-0.1,0.4-0.2,0.7c0,0.2-0.1,0.4-0.1,0.7
				c0,0.1-0.1,0.2-0.1,0.3s-0.1,0.2-0.1,0.3c0,0.1,0,0.1-0.1,0.2c0,0.1-0.1,0.2-0.1,0.3c0,0.1-0.1,0.2-0.1,0.3
				c-0.1,0.1-0.1,0.2-0.2,0.3c-0.1,0.1-0.1,0.2-0.2,0.2c0,0,0,0,0,0c-0.1,0-0.1,0.1-0.1,0.2c0,0.1-0.1,0.2-0.1,0.2
				c-0.1,0-0.1,0-0.1,0.1c0,0-0.1,0.1-0.1,0.1c0.3-0.1,0.6-0.1,0.9-0.2c0.3-0.1,0.6-0.1,0.9-0.3c0,0,0,0,0,0s0,0,0,0
				c0.2,0,0.4-0.1,0.5-0.1c0.1-0.1,0.3-0.1,0.5-0.2c0-0.1,0-0.1,0-0.1c0,0,0.1,0,0.1-0.1c0,0,0,0,0,0c0.1-0.1,0.2-0.1,0.3-0.1
				c0,0,0.1,0,0.1,0c0,0,0,0,0,0c0.1,0,0.1,0,0.1,0c0,0,0.1,0,0.1,0c0,0,0,0,0,0s0,0,0,0c0,0,0.1,0,0.1,0c0,0,0.1,0,0.1,0l0,0
				c0.1,0,0.2-0.1,0.3-0.1c0.1-0.1,0.2-0.1,0.3-0.1c0,0,0,0,0,0c0,0,0,0,0,0c0.1,0,0.1,0,0.1,0s0.1,0,0.1-0.1c0,0,0.1-0.1,0.1-0.1
				c0,0,0.1,0,0.1,0c0,0,0,0,0.1,0c0,0,0.1,0,0.1,0l0,0c0,0,0,0,0,0c0,0,0,0,0,0c0,0,0,0,0.1,0C85.1,191.3,85.1,191.2,85.2,191.3
				C85.2,191.2,85.2,191.3,85.2,191.3C85.2,191.3,85.2,191.3,85.2,191.3z M81.7,193.6c0.2-0.1,0.4-0.1,0.6-0.2
				c0.2-0.1,0.4-0.1,0.6-0.2c0,0,0,0,0,0C82.5,193.4,82.1,193.5,81.7,193.6c-0.4,0.2-0.8,0.3-1.2,0.4c0.2,0,0.4-0.1,0.6-0.1
				C81.3,193.8,81.5,193.7,81.7,193.6z M82.9,193.2C82.9,193.2,82.9,193.2,82.9,193.2C82.9,193.2,82.9,193.2,82.9,193.2
				C82.9,193.2,82.9,193.2,82.9,193.2z M83.2,192.2C83.2,192.3,83.2,192.3,83.2,192.2C83.2,192.3,83.1,192.3,83.2,192.2
				C83.1,192.3,83.2,192.3,83.2,192.2z M84.7,192.2c0.1-0.1,0.1-0.1,0.2-0.2s0.2-0.1,0.2-0.1c0,0,0,0,0.1,0c0,0,0,0,0,0
				c-0.1,0.1-0.2,0.1-0.3,0.2c-0.1,0.1-0.2,0.1-0.4,0.2c0,0,0.1,0,0.1,0S84.7,192.2,84.7,192.2z M86.8,191.6
				c-0.1,0.1-0.2,0.1-0.2,0.2c0,0,0.1-0.1,0.1-0.1S86.8,191.6,86.8,191.6z M86.9,187.4C86.9,187.4,86.8,187.4,86.9,187.4
				C86.8,187.4,86.8,187.4,86.9,187.4c0,0.1,0.1,0.1,0.2,0.2c0.1,0.1,0.1,0.1,0.2,0.2c0,0,0,0,0,0c0,0,0,0,0,0c0,0,0,0,0,0
				c0,0,0,0,0,0c0,0,0,0,0,0h0h0c-0.1-0.1-0.2-0.2-0.3-0.3c-0.1-0.1-0.2-0.2-0.4-0.2c0,0.1,0.1,0.1,0.1,0.1
				C86.8,187.3,86.8,187.3,86.9,187.4z M87.5,188.2c0-0.1,0-0.1,0-0.1c0,0-0.1-0.1-0.1,0C87.4,188,87.4,188,87.5,188.2
				C87.4,188.1,87.4,188.2,87.5,188.2z"/>
			<path class="st1" d="M97.2,189.4c-0.1,0-0.1,0-0.1,0.1s-0.1,0.1-0.1,0.2c0,0,0,0,0,0c-0.1,0.1-0.2,0.1-0.2,0.2
				c-0.1,0.1-0.2,0.2-0.2,0.2h0v0c0,0,0,0-0.1,0.1c0,0-0.1,0-0.1,0c-0.1,0-0.1,0.1-0.1,0.1c0,0-0.1,0.1-0.1,0.1
				c-0.1,0.1-0.1,0.1-0.1,0.1c0,0-0.1,0.1-0.1,0.1c0,0,0,0,0,0c0,0-0.1,0.1-0.2,0.1c-0.1,0.1-0.2,0.1-0.3,0.2
				c-0.1,0.1-0.2,0.1-0.3,0.1c-0.1,0-0.2,0-0.2,0c0,0-0.1,0-0.1,0c-0.1,0-0.2,0-0.3,0.1c-0.1,0-0.2,0.1-0.3,0c0-0.1-0.1-0.1-0.1-0.1
				c-0.1,0-0.1-0.1-0.2-0.1c0,0-0.1-0.1-0.1-0.1c-0.1-0.1-0.2-0.2-0.3-0.3s-0.1-0.3-0.1-0.5c0-0.2,0-0.4,0-0.6
				c0-0.2,0.1-0.4,0.1-0.6c-0.2,0.1-0.3,0.3-0.4,0.4c-0.1,0.2-0.3,0.3-0.4,0.5c-0.1,0.1-0.1,0.2-0.2,0.2c-0.1,0.1-0.1,0.1-0.2,0.2
				c-0.2,0.2-0.4,0.4-0.5,0.6c0,0,0,0,0,0c0,0,0,0,0,0c-0.1,0.1-0.2,0.1-0.3,0.2c-0.1,0.1-0.2,0.2-0.3,0.2c-0.1,0.1-0.2,0.1-0.4,0.1
				s-0.3,0-0.4-0.1c-0.1,0-0.1,0-0.2-0.1c0,0-0.1-0.1-0.1-0.1c-0.1-0.1-0.2-0.1-0.2-0.2c0-0.1,0-0.2-0.1-0.3c0-0.1,0-0.2,0-0.3
				s0.1-0.2,0.1-0.3c0.1-0.2,0.1-0.4,0.2-0.6s0.2-0.3,0.3-0.5c0.2-0.3,0.4-0.5,0.6-0.7c0.2-0.2,0.4-0.4,0.6-0.6
				c0.1,0,0.1-0.1,0.2-0.1s0.2-0.1,0.2-0.1c0.1,0,0.1,0,0.2,0c0.1,0,0.1,0,0.2,0c0.2,0,0.4,0.1,0.6,0.2c0.2,0.1,0.3,0.2,0.4,0.4
				c0.1-0.1,0.1-0.1,0.2-0.1c0.1,0,0.1-0.1,0.2-0.1c0,0,0.1,0,0.1-0.1c0,0,0,0,0.1,0c0.1,0,0.2,0,0.3,0.1s0.2,0.1,0.3,0.2
				c0,0,0,0,0,0s0,0,0.1,0c0,0,0,0.1,0,0.1s0,0,0,0.1c0,0.2,0,0.4-0.1,0.6c-0.1,0.2-0.2,0.4-0.2,0.6c0,0.3-0.1,0.5-0.2,0.8
				c-0.1,0.3-0.1,0.6,0,0.8c0.4,0,0.7-0.1,1-0.3c0.3-0.1,0.5-0.3,0.8-0.4c0.1-0.1,0.2-0.1,0.3-0.2c0.1-0.1,0.2-0.1,0.2-0.2
				c0,0,0,0,0,0v0c0.1,0,0.2-0.1,0.3-0.2c0.2-0.1,0.3-0.3,0.5-0.4c0.2-0.1,0.3-0.3,0.5-0.4c0.1-0.1,0.2-0.1,0.3-0.1c0,0,0,0,0.1,0
				s0.1,0,0.1,0c0,0,0,0,0,0c0,0,0,0,0,0v0c0,0,0,0,0,0c0,0,0,0.1,0,0.1s0,0,0,0.1c0,0,0,0,0,0c0,0,0,0-0.1,0.1s-0.1,0.1-0.1,0.1
				c0,0.1,0,0.1,0,0.1c0,0,0,0.1,0,0.1c0,0-0.1,0-0.1,0c0,0.1-0.1,0.1-0.1,0.1s-0.1,0.1-0.1,0.1c0,0,0,0-0.1,0.1L97.2,189.4z
				 M92.7,188c0-0.1-0.1-0.3-0.1-0.4s-0.2-0.1-0.3,0l-0.3,0.3c0,0,0,0.1-0.1,0.1c0,0-0.1,0-0.1,0.1c0,0,0,0.1-0.1,0.1
				c0,0,0,0.1-0.1,0.1l-0.2,0.3c-0.1,0.2-0.2,0.3-0.4,0.5c-0.1,0.2-0.2,0.4-0.3,0.5c0,0.1,0,0.1-0.1,0.1c0,0-0.1,0.1-0.1,0.2
				c0,0,0,0,0,0s0,0,0,0c0,0.1-0.1,0.2-0.1,0.3s-0.1,0.2-0.1,0.3c0.1-0.1,0.2-0.1,0.3-0.2s0.2-0.1,0.2-0.2c0.3-0.3,0.6-0.6,0.9-1
				c0.3-0.3,0.6-0.7,0.9-1c0,0,0.1-0.1,0.1-0.1c0,0,0-0.1,0.1-0.1v0C92.9,188,92.8,188,92.7,188z"/>
			<path class="st1" d="M103,189.1c0,0,0,0.1-0.1,0.2c-0.1,0.1-0.2,0.2-0.3,0.3c0,0-0.1,0-0.1,0.1c-0.1,0.1-0.1,0.1-0.1,0.1
				l-0.1,0.1l-0.3,0.2l-0.1,0.1l-0.2,0.1c-0.2,0.1-0.4,0.2-0.5,0.3c-0.2,0.1-0.4,0.2-0.6,0.3c0,0,0,0-0.1,0s-0.1,0-0.1,0
				c0,0-0.1,0-0.1,0c0,0-0.1,0-0.1,0c0,0-0.1,0-0.1,0c0,0,0,0,0,0c-0.1,0-0.1,0-0.1,0c0,0-0.1,0-0.1,0.1c0,0-0.1,0-0.1,0
				s-0.1,0-0.1,0c0,0-0.1,0-0.1,0s-0.1,0-0.1,0c0,0,0,0,0,0c0,0,0,0,0,0c0,0-0.1,0-0.1,0c0,0-0.1,0-0.2,0c0,0-0.1,0-0.1,0
				c0,0-0.1,0-0.1,0l0,0c-0.2,0-0.3,0-0.4,0c0,0-0.1,0-0.1,0c0,0,0,0-0.1,0c-0.1,0-0.2,0-0.3-0.1s-0.2-0.1-0.3-0.1
				c-0.1-0.1-0.2-0.1-0.3-0.2c-0.1-0.1-0.2-0.2-0.3-0.3c0-0.1-0.1-0.2-0.1-0.2c0-0.1,0-0.1-0.1-0.2c0-0.1,0-0.2,0-0.2s0-0.2,0-0.2
				c0-0.1,0.1-0.3,0.1-0.5c0-0.2,0.1-0.4,0.3-0.5l0.4-0.4l0.2-0.3c0.1-0.1,0.2-0.1,0.2-0.2s0.1-0.1,0.2-0.2c0.1-0.1,0.1-0.1,0.2-0.1
				c0.1,0,0.1-0.1,0.2-0.1c0.1-0.1,0.2-0.1,0.2-0.2c0.1-0.1,0.2-0.1,0.2-0.2c0.1,0,0.2-0.1,0.2-0.1c0,0,0.1,0,0.1,0
				c0.1,0,0.1,0,0.1,0c0,0,0,0,0.1,0c0,0,0,0,0.1,0c0.1,0.1,0.1,0.2,0.2,0.2c0.1,0.1,0.2,0.1,0.2,0.2c0.1,0,0.1,0.1,0.1,0.1
				s0,0.1,0.1,0.1c0,0.1,0,0.2,0,0.2s0,0.1-0.1,0.2c0,0,0,0,0,0.1c0,0,0,0,0,0.1c0,0.1-0.1,0.1-0.1,0.1c0,0-0.1,0.1-0.1,0.1
				c0,0,0,0.1-0.1,0.1s0,0.1-0.1,0.1c0,0-0.1,0.1-0.2,0.2c-0.1,0.1-0.1,0.1-0.2,0.2c-0.1,0.1-0.1,0.1-0.2,0.2
				c-0.1,0-0.2,0.1-0.2,0.1c0,0,0,0.1,0,0.1c-0.1,0.1-0.2,0.2-0.3,0.2s-0.2,0.2-0.3,0.2c-0.2,0-0.3,0.1-0.5,0.2
				c-0.1,0.1-0.3,0.1-0.5,0.1c0,0,0,0,0,0s0,0,0.1,0c0,0.1,0,0.1,0,0.1s0,0.1,0.1,0.1c0.1,0.1,0.2,0.2,0.3,0.2
				c0.1,0.1,0.3,0.1,0.4,0.1c0.4,0.1,0.8,0.1,1.2,0c0.1,0,0.2,0,0.3-0.1c0.1,0,0.2-0.1,0.4-0.1c0.2-0.1,0.3-0.1,0.5-0.2l0.2-0.1
				c0,0,0.1,0,0.1,0c0,0,0,0,0,0c0,0,0,0,0,0s0,0,0,0l0.4-0.2c0.1-0.1,0.2-0.2,0.3-0.2c0.1,0,0.2-0.1,0.3-0.3c0,0,0,0,0.1-0.1
				s0.1-0.1,0.2-0.1c0.1,0,0.1-0.1,0.2-0.1c0.1,0,0.1-0.1,0.1-0.1l0.2-0.2c0.1-0.1,0.2-0.2,0.3-0.2c0.1-0.1,0.2-0.1,0.2-0.1
				c0,0,0.1,0.1,0.1,0.1s0,0.1,0.1,0.1c-0.1,0.1-0.1,0.2-0.1,0.2c0,0,0,0.1-0.1,0.1c0,0,0,0-0.1,0.1C103.1,189,103.1,189,103,189.1z
				 M99.5,187.2c0,0-0.1,0-0.1,0.1s-0.1,0.1-0.1,0.1c0,0-0.1,0-0.1,0c0,0,0,0-0.1,0c0,0,0,0-0.1,0l-0.1,0.1
				c-0.1,0.1-0.1,0.1-0.2,0.1s-0.1,0.1-0.2,0.1c-0.1,0.1-0.1,0.2-0.2,0.2c-0.1,0-0.1,0.1-0.2,0.2c-0.1,0.1-0.2,0.2-0.3,0.3
				c-0.1,0.1-0.2,0.2-0.3,0.4s-0.2,0.2-0.2,0.4c0.2-0.1,0.4-0.2,0.6-0.3c0.2-0.1,0.4-0.3,0.6-0.4c0.1-0.1,0.1-0.1,0.2-0.2
				c0.1-0.1,0.1-0.1,0.2-0.2c0.1-0.1,0.2-0.1,0.3-0.3s0.2-0.2,0.3-0.4c0-0.1,0-0.1,0.1-0.1c0,0,0-0.1,0-0.1
				C99.7,187.2,99.6,187.2,99.5,187.2C99.6,187.2,99.5,187.2,99.5,187.2z"/>
			<path class="st1" d="M102.5,190.7c0-0.1,0.1-0.2,0.1-0.2c0.1,0,0.1-0.1,0.2-0.2c0,0,0,0.1-0.1,0.1c0,0,0,0,0,0.1
				c0.2-0.1,0.2-0.2,0.3-0.3c0,0,0.1,0,0.1,0c0-0.1,0.1-0.1,0.1-0.1l0,0c0,0,0,0,0-0.1s0-0.1,0-0.1c0,0,0,0,0,0c0,0,0,0,0,0
				c0-0.1,0.1-0.1,0.1-0.1c0,0,0.1,0,0.1-0.1c0,0,0,0,0.1,0c0.1-0.1,0.2-0.1,0.3-0.2c0.1,0,0.2-0.1,0.2-0.2c0.1-0.1,0.3-0.1,0.4-0.2
				c0.1-0.1,0.3-0.2,0.4-0.2c0-0.2,0.1-0.4,0-0.6c0-0.2-0.1-0.4-0.1-0.6c0,0-0.1,0.1-0.2,0.1s-0.1,0.1-0.2,0.2l-0.2,0.2l-0.2,0.2
				l-0.3,0.3c-0.1,0.1-0.2,0.1-0.2,0.2c-0.1,0.1-0.1,0.1-0.2,0.1c-0.1,0.1-0.1,0.2-0.2,0.2c-0.1,0-0.1,0-0.2,0c0,0-0.1-0.1-0.1-0.1
				c0,0,0,0,0,0s0,0,0,0c0,0,0,0-0.1-0.1c0,0-0.1,0-0.1,0s0,0,0,0c0,0,0,0,0-0.1c0,0,0,0,0,0c0.1,0,0.1-0.1,0.2-0.1
				c0,0,0-0.1,0.1-0.1c0-0.1,0-0.1,0.1-0.1c0.1,0,0.1-0.1,0.1-0.1s0.1,0,0.1-0.1c0,0,0,0,0-0.1c0,0,0-0.1,0-0.1c0,0,0.1-0.1,0.1-0.1
				s0.1-0.1,0.1-0.1c0.1-0.1,0.2-0.2,0.3-0.3c0.1-0.1,0.2-0.2,0.2-0.3c0.1-0.2,0.2-0.3,0.4-0.4c0.2,0,0.3,0,0.4,0.1
				c0.2,0,0.3,0,0.3,0.1c0.1,0.1,0.1,0.1,0.2,0.3c0,0,0.1,0.1,0.1,0.2c0,0.1,0,0.2,0.1,0.3s0,0.2,0,0.3c0,0.1,0,0.2,0,0.2
				c0.1,0,0.2,0,0.3-0.1c0.2-0.1,0.3-0.1,0.5-0.2s0.4-0.1,0.5-0.2c0.2,0,0.3-0.1,0.3-0.1c0,0,0,0,0,0c0,0,0,0,0,0c0,0,0,0,0.1,0
				c0.1,0,0.2,0,0.2-0.1s0.2-0.1,0.2-0.1c0,0,0.1,0,0.1,0c0,0,0,0,0.1-0.1v0v0c0,0,0,0,0-0.1c0.1,0,0.2,0,0.3,0c0.1,0,0.2,0,0.2,0
				c0,0,0.1,0,0.1,0c0,0,0.1,0,0.1,0l0.2,0c0,0.1,0,0.1,0.1,0c0,0,0,0,0,0c0,0,0,0,0,0s0,0,0,0c0,0,0,0,0,0c0,0,0,0,0,0
				c0,0,0,0.1,0,0.1s0,0,0,0.1c-0.1,0-0.1,0-0.1,0c0,0-0.1,0-0.1,0c0,0,0,0,0,0c0,0,0,0,0,0c-0.1,0-0.1,0-0.2,0
				c-0.1,0-0.1,0-0.1,0.1c-0.1,0-0.2,0-0.3,0.1s-0.2,0-0.3,0.1c0,0,0,0.1,0,0.1c-0.1,0-0.1,0-0.2,0c0,0-0.1,0-0.1,0
				c-0.1,0-0.2,0-0.3,0.1c-0.1,0-0.2,0.1-0.3,0.1l-1.3,0.5c-0.1,0-0.2,0.1-0.3,0.1c-0.1,0-0.2,0.1-0.2,0.2c0,0.2-0.1,0.3-0.1,0.3
				c0,0.1-0.1,0.2-0.1,0.3c-0.1,0-0.1,0-0.1,0.1s0,0.1,0,0.1c0,0,0,0,0,0c0,0,0,0,0,0c0,0.1,0,0.1-0.1,0.2c0,0.1-0.1,0.1-0.1,0.2
				c0,0,0,0,0,0.1s0,0.1,0,0.1c0,0,0,0-0.1,0.1c0,0,0,0.1,0,0.1c0,0,0,0,0,0s0,0,0,0c0,0,0,0.1,0,0.1c0,0,0,0,0,0
				c-0.1,0.1-0.1,0.1-0.2,0.2c0,0.1-0.1,0.1-0.2,0.2c0,0,0,0,0,0c0,0,0,0,0,0c-0.2,0.2-0.3,0.3-0.5,0.5c-0.2,0.1-0.4,0.2-0.6,0.3
				c0,0,0,0,0,0c0,0-0.1,0-0.1,0c0,0,0,0,0,0c0,0,0,0,0.1,0c0-0.1-0.1-0.1-0.1,0c0,0-0.1,0-0.1,0c0,0,0,0,0,0v0c0,0-0.1,0-0.1,0
				s-0.1,0-0.2,0c0,0,0,0,0,0s0,0,0,0c-0.2,0-0.4,0-0.6-0.1c-0.1-0.1-0.3-0.2-0.4-0.3c0,0,0,0,0,0c0,0,0,0,0,0c0,0,0,0,0,0
				c0,0,0,0,0-0.1c0,0,0,0.1-0.1,0c0,0,0,0-0.1,0c0,0,0-0.1,0-0.1s0,0,0-0.1c0,0,0,0,0,0c0,0,0,0,0,0c0,0,0-0.1,0-0.1
				c0,0,0.1,0,0.1,0c0-0.2,0-0.3,0.1-0.3c0,0,0,0,0,0c0,0,0,0,0,0c0.1,0,0.1-0.1,0.1-0.2c0-0.1,0.1-0.2,0.1-0.3
				C102.4,190.8,102.4,190.7,102.5,190.7C102.5,190.7,102.5,190.6,102.5,190.7z M102.7,190.5C102.7,190.5,102.7,190.4,102.7,190.5
				C102.7,190.5,102.7,190.5,102.7,190.5z M103.9,190.2C103.9,190.3,103.9,190.3,103.9,190.2C103.9,190.3,103.9,190.3,103.9,190.2
				c-0.1,0.1-0.2,0.2-0.3,0.3s-0.2,0.2-0.3,0.3c0,0,0,0.1,0,0c0,0,0,0,0,0s0,0,0,0c-0.1,0-0.1,0.1-0.1,0.1c0,0,0,0,0,0
				c0,0.1-0.1,0.1-0.2,0.2c-0.1,0-0.1,0.1-0.1,0.2c0,0,0,0,0,0s0,0,0,0c0.1,0,0.3-0.1,0.4-0.1c0.1,0,0.2-0.1,0.4-0.2
				c0,0,0-0.1,0-0.1c0,0,0,0,0,0c0.2-0.2,0.4-0.4,0.6-0.7c0.2-0.3,0.3-0.5,0.5-0.8l0,0c-0.1,0.1-0.2,0.2-0.3,0.3
				S104.1,190.2,103.9,190.2z M103.6,192.2c0,0,0.1,0,0.1-0.1C103.7,192.1,103.7,192.1,103.6,192.2
				C103.6,192.1,103.6,192.1,103.6,192.2z"/>
			<path class="st1" d="M107.9,190.7c0-0.1,0.1-0.2,0.1-0.2c0.1,0,0.1-0.1,0.2-0.2c0,0,0,0.1-0.1,0.1c0,0,0,0,0,0.1
				c0.2-0.1,0.2-0.2,0.3-0.3c0,0,0.1,0,0.1,0c0-0.1,0.1-0.1,0.1-0.1l0,0c0,0,0,0,0-0.1s0-0.1,0-0.1c0,0,0,0,0,0c0,0,0,0,0,0
				c0-0.1,0.1-0.1,0.1-0.1c0,0,0.1,0,0.1-0.1c0,0,0,0,0.1,0c0.1-0.1,0.2-0.1,0.3-0.2c0.1,0,0.2-0.1,0.2-0.2c0.1-0.1,0.3-0.1,0.4-0.2
				c0.1-0.1,0.3-0.2,0.4-0.2c0-0.2,0.1-0.4,0-0.6c0-0.2-0.1-0.4-0.1-0.6c0,0-0.1,0.1-0.2,0.1s-0.1,0.1-0.2,0.2l-0.2,0.2l-0.2,0.2
				l-0.3,0.3c-0.1,0.1-0.2,0.1-0.2,0.2c-0.1,0.1-0.1,0.1-0.2,0.1c-0.1,0.1-0.1,0.2-0.2,0.2c-0.1,0-0.1,0-0.2,0c0,0-0.1-0.1-0.1-0.1
				c0,0,0,0,0,0s0,0,0,0c0,0,0,0-0.1-0.1c0,0-0.1,0-0.1,0s0,0,0,0c0,0,0,0,0-0.1c0,0,0,0,0,0c0.1,0,0.1-0.1,0.2-0.1
				c0,0,0-0.1,0.1-0.1c0-0.1,0-0.1,0.1-0.1c0.1,0,0.1-0.1,0.1-0.1s0.1,0,0.1-0.1c0,0,0,0,0-0.1c0,0,0-0.1,0-0.1c0,0,0.1-0.1,0.1-0.1
				s0.1-0.1,0.1-0.1c0.1-0.1,0.2-0.2,0.3-0.3c0.1-0.1,0.2-0.2,0.2-0.3c0.1-0.2,0.2-0.3,0.4-0.4c0.2,0,0.3,0,0.4,0.1
				c0.2,0,0.3,0,0.3,0.1c0.1,0.1,0.1,0.1,0.2,0.3c0,0,0.1,0.1,0.1,0.2c0,0.1,0,0.2,0.1,0.3s0,0.2,0,0.3c0,0.1,0,0.2,0,0.2
				c0.1,0,0.2,0,0.3-0.1c0.2-0.1,0.3-0.1,0.5-0.2s0.4-0.1,0.5-0.2c0.2,0,0.3-0.1,0.3-0.1c0,0,0,0,0,0c0,0,0,0,0,0c0,0,0,0,0.1,0
				c0.1,0,0.2,0,0.2-0.1s0.2-0.1,0.2-0.1c0,0,0.1,0,0.1,0c0,0,0,0,0.1-0.1v0v0c0,0,0,0,0-0.1c0.1,0,0.2,0,0.3,0c0.1,0,0.2,0,0.2,0
				c0,0,0.1,0,0.1,0c0,0,0.1,0,0.1,0l0.2,0c0,0.1,0,0.1,0.1,0c0,0,0,0,0,0c0,0,0,0,0,0s0,0,0,0c0,0,0,0,0,0c0,0,0,0,0,0
				c0,0,0,0.1,0,0.1s0,0,0,0.1c-0.1,0-0.1,0-0.1,0c0,0-0.1,0-0.1,0c0,0,0,0,0,0c0,0,0,0,0,0c-0.1,0-0.1,0-0.2,0
				c-0.1,0-0.1,0-0.1,0.1c-0.1,0-0.2,0-0.3,0.1s-0.2,0-0.3,0.1c0,0,0,0.1,0,0.1c-0.1,0-0.1,0-0.2,0c0,0-0.1,0-0.1,0
				c-0.1,0-0.2,0-0.3,0.1c-0.1,0-0.2,0.1-0.3,0.1l-1.3,0.5c-0.1,0-0.2,0.1-0.3,0.1c-0.1,0-0.2,0.1-0.2,0.2c0,0.2-0.1,0.3-0.1,0.3
				c0,0.1-0.1,0.2-0.1,0.3c-0.1,0-0.1,0-0.1,0.1s0,0.1,0,0.1c0,0,0,0,0,0c0,0,0,0,0,0c0,0.1,0,0.1-0.1,0.2c0,0.1-0.1,0.1-0.1,0.2
				c0,0,0,0,0,0.1s0,0.1,0,0.1c0,0,0,0-0.1,0.1c0,0,0,0.1,0,0.1c0,0,0,0,0,0s0,0,0,0c0,0,0,0.1,0,0.1c0,0,0,0,0,0
				c-0.1,0.1-0.1,0.1-0.2,0.2c0,0.1-0.1,0.1-0.2,0.2c0,0,0,0,0,0c0,0,0,0,0,0c-0.2,0.2-0.3,0.3-0.5,0.5c-0.2,0.1-0.4,0.2-0.6,0.3
				c0,0,0,0,0,0c0,0-0.1,0-0.1,0c0,0,0,0,0,0c0,0,0,0,0.1,0c0-0.1-0.1-0.1-0.1,0c0,0-0.1,0-0.1,0c0,0,0,0,0,0v0c0,0-0.1,0-0.1,0
				s-0.1,0-0.2,0c0,0,0,0,0,0s0,0,0,0c-0.2,0-0.4,0-0.6-0.1c-0.1-0.1-0.3-0.2-0.4-0.3c0,0,0,0,0,0c0,0,0,0,0,0c0,0,0,0,0,0
				c0,0,0,0,0-0.1c0,0,0,0.1-0.1,0c0,0,0,0-0.1,0c0,0,0-0.1,0-0.1s0,0,0-0.1c0,0,0,0,0,0c0,0,0,0,0,0c0,0,0-0.1,0-0.1
				c0,0,0.1,0,0.1,0c0-0.2,0-0.3,0.1-0.3c0,0,0,0,0,0c0,0,0,0,0,0c0.1,0,0.1-0.1,0.1-0.2c0-0.1,0.1-0.2,0.1-0.3
				C107.7,190.8,107.8,190.7,107.9,190.7C107.8,190.7,107.9,190.6,107.9,190.7z M108,190.5C108,190.5,108,190.4,108,190.5
				C108,190.5,108,190.5,108,190.5z M109.3,190.2C109.3,190.3,109.3,190.3,109.3,190.2C109.3,190.3,109.3,190.3,109.3,190.2
				c-0.1,0.1-0.2,0.2-0.3,0.3s-0.2,0.2-0.3,0.3c0,0,0,0.1,0,0c0,0,0,0,0,0s0,0,0,0c-0.1,0-0.1,0.1-0.1,0.1c0,0,0,0,0,0
				c0,0.1-0.1,0.1-0.2,0.2c-0.1,0-0.1,0.1-0.1,0.2c0,0,0,0,0,0s0,0,0,0c0.1,0,0.3-0.1,0.4-0.1c0.1,0,0.2-0.1,0.4-0.2
				c0,0,0-0.1,0-0.1c0,0,0,0,0,0c0.2-0.2,0.4-0.4,0.6-0.7c0.2-0.3,0.3-0.5,0.5-0.8l0,0c-0.1,0.1-0.2,0.2-0.3,0.3
				S109.4,190.2,109.3,190.2z M109,192.2c0,0,0.1,0,0.1-0.1C109.1,192.1,109,192.1,109,192.2C109,192.1,109,192.1,109,192.2z"/>
			<path class="st1" d="M119.3,189.1c0,0,0,0.1-0.1,0.2c-0.1,0.1-0.2,0.2-0.3,0.3c0,0-0.1,0-0.1,0.1c-0.1,0.1-0.1,0.1-0.1,0.1
				l-0.1,0.1l-0.3,0.2l-0.1,0.1l-0.2,0.1c-0.2,0.1-0.4,0.2-0.5,0.3c-0.2,0.1-0.4,0.2-0.6,0.3c0,0,0,0-0.1,0s-0.1,0-0.1,0
				c0,0-0.1,0-0.1,0c0,0-0.1,0-0.1,0c0,0-0.1,0-0.1,0c0,0,0,0,0,0c-0.1,0-0.1,0-0.1,0c0,0-0.1,0-0.1,0.1c0,0-0.1,0-0.1,0
				s-0.1,0-0.1,0c0,0-0.1,0-0.1,0s-0.1,0-0.1,0c0,0,0,0,0,0c0,0,0,0,0,0c0,0-0.1,0-0.1,0c0,0-0.1,0-0.2,0c0,0-0.1,0-0.1,0
				c0,0-0.1,0-0.1,0l0,0c-0.2,0-0.3,0-0.4,0c0,0-0.1,0-0.1,0c0,0,0,0-0.1,0c-0.1,0-0.2,0-0.3-0.1s-0.2-0.1-0.3-0.1
				c-0.1-0.1-0.2-0.1-0.3-0.2c-0.1-0.1-0.2-0.2-0.3-0.3c0-0.1-0.1-0.2-0.1-0.2c0-0.1,0-0.1-0.1-0.2c0-0.1,0-0.2,0-0.2s0-0.2,0-0.2
				c0-0.1,0.1-0.3,0.1-0.5c0-0.2,0.1-0.4,0.3-0.5l0.4-0.4l0.2-0.3c0.1-0.1,0.2-0.1,0.2-0.2s0.1-0.1,0.2-0.2c0.1-0.1,0.1-0.1,0.2-0.1
				c0.1,0,0.1-0.1,0.2-0.1c0.1-0.1,0.2-0.1,0.2-0.2c0.1-0.1,0.2-0.1,0.2-0.2c0.1,0,0.2-0.1,0.2-0.1c0,0,0.1,0,0.1,0
				c0.1,0,0.1,0,0.1,0c0,0,0,0,0.1,0c0,0,0,0,0.1,0c0.1,0.1,0.1,0.2,0.2,0.2c0.1,0.1,0.2,0.1,0.2,0.2c0.1,0,0.1,0.1,0.1,0.1
				s0,0.1,0.1,0.1c0,0.1,0,0.2,0,0.2s0,0.1-0.1,0.2c0,0,0,0,0,0.1c0,0,0,0,0,0.1c0,0.1-0.1,0.1-0.1,0.1c0,0-0.1,0.1-0.1,0.1
				c0,0,0,0.1-0.1,0.1s0,0.1-0.1,0.1c0,0-0.1,0.1-0.2,0.2c-0.1,0.1-0.1,0.1-0.2,0.2c-0.1,0.1-0.1,0.1-0.2,0.2
				c-0.1,0-0.2,0.1-0.2,0.1c0,0,0,0.1,0,0.1c-0.1,0.1-0.2,0.2-0.3,0.2s-0.2,0.2-0.3,0.2c-0.2,0-0.3,0.1-0.5,0.2
				c-0.1,0.1-0.3,0.1-0.5,0.1c0,0,0,0,0,0s0,0,0.1,0c0,0.1,0,0.1,0,0.1s0,0.1,0.1,0.1c0.1,0.1,0.2,0.2,0.3,0.2
				c0.1,0.1,0.3,0.1,0.4,0.1c0.4,0.1,0.8,0.1,1.2,0c0.1,0,0.2,0,0.3-0.1c0.1,0,0.2-0.1,0.4-0.1c0.2-0.1,0.3-0.1,0.5-0.2l0.2-0.1
				c0,0,0.1,0,0.1,0c0,0,0,0,0,0c0,0,0,0,0,0s0,0,0,0l0.4-0.2c0.1-0.1,0.2-0.2,0.3-0.2c0.1,0,0.2-0.1,0.3-0.3c0,0,0,0,0.1-0.1
				s0.1-0.1,0.2-0.1c0.1,0,0.1-0.1,0.2-0.1c0.1,0,0.1-0.1,0.1-0.1l0.2-0.2c0.1-0.1,0.2-0.2,0.3-0.2c0.1-0.1,0.2-0.1,0.2-0.1
				c0,0,0.1,0.1,0.1,0.1s0,0.1,0.1,0.1c-0.1,0.1-0.1,0.2-0.1,0.2c0,0,0,0.1-0.1,0.1c0,0,0,0-0.1,0.1
				C119.4,189,119.4,189,119.3,189.1z M115.8,187.2c0,0-0.1,0-0.1,0.1s-0.1,0.1-0.1,0.1c0,0-0.1,0-0.1,0c0,0,0,0-0.1,0
				c0,0,0,0-0.1,0l-0.1,0.1c-0.1,0.1-0.1,0.1-0.2,0.1s-0.1,0.1-0.2,0.1c-0.1,0.1-0.1,0.2-0.2,0.2c-0.1,0-0.1,0.1-0.2,0.2
				c-0.1,0.1-0.2,0.2-0.3,0.3c-0.1,0.1-0.2,0.2-0.3,0.4s-0.2,0.2-0.2,0.4c0.2-0.1,0.4-0.2,0.6-0.3c0.2-0.1,0.4-0.3,0.6-0.4
				c0.1-0.1,0.1-0.1,0.2-0.2c0.1-0.1,0.1-0.1,0.2-0.2c0.1-0.1,0.2-0.1,0.3-0.3s0.2-0.2,0.3-0.4c0-0.1,0-0.1,0.1-0.1c0,0,0-0.1,0-0.1
				C116,187.2,115.9,187.2,115.8,187.2C115.9,187.2,115.8,187.2,115.8,187.2z"/>
		</g>
	</g>
</g>
</svg>
